<svg width="96" height="97" viewBox="0 0 96 97" fill="none" xmlns="http://www.w3.org/2000/svg">
<path d="M49.3081 17.7916C65.7159 18.5878 78.7733 32.1465 78.7733 48.7587C78.7733 49.0957 78.7601 49.4296 78.7489 49.7656H95.5373C95.5445 49.4296 95.5628 49.0957 95.5628 48.7587C95.5628 22.8702 74.9884 1.80361 49.3081 0.995201V17.7916Z" fill="#34A853"/>
<path d="M78.5004 52.8238C76.5107 68.0268 63.5204 79.7671 47.7803 79.7671C30.6641 79.7671 16.7884 65.8856 16.7884 48.7624C16.7884 32.1502 29.8469 18.5915 46.2537 17.7953V0.999924C20.5734 1.80833 0 22.8739 0 48.7624C0 75.161 21.3926 96.5625 47.7803 96.5625C72.8001 96.5625 93.3154 77.3205 95.3783 52.8238H78.5004Z" fill="#FFAC00"/>
</svg>
