<svg width="97" height="96" viewBox="0 0 97 96" fill="none" xmlns="http://www.w3.org/2000/svg">
<path d="M50.0986 16.8012C66.5066 17.5973 79.5641 31.1553 79.5641 47.7665C79.5641 48.1035 79.5509 48.4375 79.5397 48.7734H96.3282C96.3354 48.4375 96.3537 48.1035 96.3537 47.7665C96.3537 21.8794 75.7791 0.814041 50.0986 0.00567245V16.8012Z" fill="#FFBB00"/>
<path d="M79.2915 51.834C77.3018 67.0362 64.3115 78.7758 48.5712 78.7758C31.4549 78.7758 17.5791 64.8951 17.5791 47.7728C17.5791 31.1616 30.6377 17.6036 47.0446 16.8074V0.0129471C21.3641 0.821312 0.790527 21.8857 0.790527 47.7728C0.790527 74.17 22.1833 95.5703 48.5712 95.5703C73.5912 95.5703 94.1067 76.3293 96.1696 51.834H79.2915Z" fill="#F65314"/>
</svg>
