<svg width="97" height="97" viewBox="0 0 97 97" fill="none" xmlns="http://www.w3.org/2000/svg">
<path d="M50.2441 17.7894C66.6522 18.5856 79.7098 32.1435 79.7098 48.7546C79.7098 49.0916 79.6966 49.4255 79.6854 49.7615H96.4741C96.4812 49.4255 96.4995 49.0916 96.4995 48.7546C96.4995 22.8677 75.9248 1.80239 50.2441 0.99403V17.7894Z" fill="#F65314"/>
<path d="M79.4375 52.8262C77.4479 68.0283 64.4574 79.7679 48.717 79.7679C31.6006 79.7679 17.7247 65.8873 17.7247 48.765C17.7247 32.1539 30.7834 18.596 47.1904 17.7999V1.00551C21.5097 1.81387 0.936035 22.8781 0.936035 48.765C0.936035 75.162 22.329 96.5623 48.717 96.5623C73.7372 96.5623 94.2528 77.3214 96.3158 52.8262H79.4375Z" fill="#00A1F1"/>
</svg>
