<svg width="291" height="307" viewBox="0 0 291 307" fill="none" xmlns="http://www.w3.org/2000/svg">
<path d="M38.6961 17.1719H14.0841V25.0049H38.6961V17.1719Z" fill="#EBEBEB"/>
<path d="M208.089 109.934H183.477V117.767H208.089V109.934Z" fill="#EBEBEB"/>
<path d="M24.969 7.29156C20.881 7.36156 10.402 7.53656 6.454 7.58556H0.356999L0.678998 7.26356V15.0966L0.328998 14.7466C4.417 14.7466 14.84 14.8026 18.788 14.8586L24.941 14.9356L24.773 15.0966L24.941 7.26356L24.969 7.29156ZM24.969 7.29156L25.13 15.1246V15.2926H24.962C21.889 15.3346 15.722 15.4046 12.656 15.4256L0.35 15.4746H0V15.1246V7.29156V6.97656H0.314998H6.524C10.444 7.01856 20.874 7.19356 24.927 7.26356L24.969 7.29156Z" fill="#EBEBEB"/>
<path d="M94.6119 176.04C90.5239 176.11 80.0449 176.285 76.0969 176.327H69.9999L70.3219 176.012V183.845L69.9719 183.495C74.0599 183.495 84.4829 183.544 88.4309 183.6L94.5839 183.677L94.4159 183.845L94.5839 176.012L94.6119 176.04ZM94.6119 176.04L94.7799 183.873V184.034H94.6119C91.5389 184.034 85.3789 184.146 82.3059 184.167L69.9999 184.216H69.6499V183.866V176.033V175.711H69.9649L76.1739 175.746C80.0939 175.788 90.5309 175.963 94.5769 176.033L94.6119 176.04Z" fill="#EBEBEB"/>
<path d="M80.8853 166.153C76.7973 166.223 66.3183 166.398 62.3703 166.44H56.2733L56.5953 166.125V173.958L56.2453 173.608C60.3333 173.608 70.7563 173.657 74.7043 173.713L80.8573 173.79L80.6893 173.958L80.8573 166.125L80.8853 166.153ZM80.8853 166.153L81.0533 173.986V174.147H80.8853C77.8123 174.182 71.6453 174.259 68.5793 174.28L56.2733 174.329H55.9233V173.979V166.146V165.824H56.2453H62.4543C66.3743 165.866 76.8043 166.041 80.8573 166.111L80.8853 166.153Z" fill="#EBEBEB"/>
<path d="M67.214 176.027H42.6021V183.86H67.214V176.027Z" fill="#EBEBEB"/>
<path d="M289.932 7.29688H265.32V15.1299H289.932V7.29688Z" fill="#EBEBEB"/>
<path d="M276.206 249.18H251.594V257.013H276.206V249.18Z" fill="#EBEBEB"/>
<path d="M289.933 239.302C285.845 239.372 275.366 239.547 271.418 239.596H265.321L265.643 239.274V247.107L265.293 246.757C269.381 246.757 279.804 246.813 283.752 246.869L289.905 246.946L289.737 247.107L289.905 239.274L289.933 239.302ZM289.933 239.302L290.101 247.135V247.303H289.933C286.86 247.345 280.7 247.415 277.627 247.443L265.321 247.485H264.971V247.128L265.006 239.295V238.98H265.321H271.53C275.45 239.022 285.887 239.204 289.933 239.267V239.302Z" fill="#EBEBEB"/>
<path d="M38.6959 249.176C34.6079 249.246 24.1289 249.421 20.1809 249.47H14.0839L14.4059 249.148V256.981L14.0559 256.631L26.3619 256.68C29.4279 256.68 35.6019 256.778 38.6679 256.82L38.4999 256.981L38.6679 249.148L38.6959 249.176ZM38.6959 249.176L38.8639 257.009V257.177H38.6959C35.6229 257.219 29.4559 257.289 26.3899 257.317L14.0839 257.359H13.7339V257.002V249.169V248.84H14.0489H20.2579C24.1779 248.882 34.6079 249.064 38.6609 249.127L38.6959 249.176Z" fill="#EBEBEB"/>
<path d="M111.594 59.9459L110.32 69.0459C110.215 69.9563 109.926 70.8359 109.471 71.6312C109.015 72.4266 108.403 73.1212 107.671 73.673C106.94 74.2247 106.103 74.6222 105.213 74.8411C104.324 75.0601 103.398 75.0961 102.494 74.9469C100.678 74.6866 99.0389 73.7181 97.9345 72.2531C96.8302 70.7881 96.3505 68.9455 96.6002 67.128L98.6372 52.5679C98.6372 52.4279 98.7982 52.4489 98.8192 52.3089C98.7002 52.1479 98.7002 52.1479 98.7142 52.0079C99.0177 50.212 99.9968 48.6002 101.451 47.503C102.904 46.4058 104.723 45.9063 106.533 46.1069C108.605 46.4227 110.719 46.3241 112.752 45.8168C114.785 45.3095 116.698 44.4037 118.378 43.1518C120.059 41.8999 121.474 40.3268 122.542 38.5238C123.61 36.7208 124.31 34.7238 124.6 32.6484C124.891 30.573 124.766 28.4606 124.234 26.4337C123.702 24.4067 122.773 22.5056 121.501 20.8404C120.228 19.1752 118.638 17.7792 116.822 16.7332C115.006 15.6872 113.001 15.0121 110.922 14.7469C108.204 14.3576 105.431 14.6909 102.883 15.7132C100.334 16.7356 98.0998 18.411 96.4042 20.5709C95.8362 21.2999 95.1294 21.9092 94.3247 22.3636C93.52 22.8181 92.6333 23.1087 91.7157 23.2186C90.7981 23.3286 89.8678 23.2558 88.9785 23.0044C88.0892 22.753 87.2584 22.328 86.5342 21.7539C85.824 21.1883 85.2328 20.4878 84.7946 19.6926C84.3563 18.8975 84.0798 18.0235 83.9809 17.121C83.882 16.2185 83.9627 15.3053 84.2183 14.4341C84.4739 13.5629 84.8994 12.7509 85.4702 12.0449C88.5051 8.1705 92.4549 5.11072 96.9649 3.14054C101.475 1.17036 106.404 0.3515 111.309 0.757532C116.213 1.16356 120.94 2.78177 125.065 5.46675C129.19 8.15174 132.583 11.8194 134.939 16.1401C137.295 20.4609 138.541 25.2994 138.565 30.2209C138.589 35.1423 137.39 39.9926 135.075 44.3359C132.76 48.6792 129.403 52.3795 125.305 55.1041C121.206 57.8288 116.495 59.4926 111.594 59.9459ZM107.303 90.599L106.946 93.1189C106.844 94.0309 106.558 94.9126 106.105 95.7104C105.651 96.5081 105.04 97.2052 104.309 97.7592C103.577 98.3133 102.74 98.7126 101.85 98.933C100.959 99.1533 100.033 99.19 99.1272 99.0409C97.3095 98.7841 95.668 97.8165 94.5629 96.3506C93.4579 94.8846 92.9797 93.0401 93.2332 91.2219L93.5832 88.7019C93.8573 86.8923 94.8292 85.262 96.2907 84.1603C97.7522 83.0586 99.5871 82.5732 101.402 82.8079C102.305 82.9238 103.175 83.2184 103.963 83.6746C104.75 84.1308 105.439 84.7394 105.988 85.4648C106.538 86.1902 106.937 87.0179 107.163 87.8995C107.388 88.781 107.436 89.6987 107.303 90.599Z" fill="#EBEBEB"/>
<path d="M43.778 103.515L45.815 110.942C46.0368 111.676 46.1071 112.447 46.0215 113.209C45.9359 113.971 45.6963 114.708 45.3172 115.374C44.9382 116.041 44.4275 116.623 43.8163 117.086C43.2052 117.549 42.5062 117.883 41.762 118.068C40.2806 118.474 38.6986 118.276 37.3628 117.517C36.027 116.759 35.0464 115.502 34.636 114.022L31.367 102.122C31.367 102.017 31.458 101.982 31.423 101.863C31.276 101.786 31.276 101.786 31.241 101.667C30.8776 100.186 31.0952 98.6222 31.849 97.2969C32.6028 95.9715 33.8356 94.9852 35.294 94.5406C37.038 94.1397 38.6828 93.3899 40.1292 92.3364C41.5757 91.2829 42.7939 89.9474 43.7105 88.4105C44.6271 86.8736 45.2231 85.167 45.4625 83.3937C45.702 81.6203 45.58 79.8168 45.1038 78.0918C44.6276 76.3668 43.8072 74.7561 42.6919 73.3567C41.5766 71.9573 40.1896 70.7981 38.6144 69.949C37.0392 69.1 35.3084 68.5786 33.5263 68.4163C31.7442 68.254 29.9477 68.4541 28.245 69.0046C26.0271 69.6053 24.0069 70.7803 22.3882 72.4113C20.7696 74.0422 19.6098 76.0712 19.026 78.2936C18.8348 79.0451 18.496 79.7511 18.0294 80.3704C17.5627 80.9897 16.9774 81.51 16.3077 81.9009C15.638 82.2918 14.8972 82.5455 14.1284 82.6473C13.3597 82.749 12.5783 82.6968 11.83 82.4936C11.0967 82.2936 10.4102 81.9507 9.80989 81.4846C9.20958 81.0184 8.70732 80.4382 8.33199 79.7773C7.95665 79.1164 7.71563 78.3878 7.62279 77.6334C7.52994 76.8791 7.5871 76.1138 7.79098 75.3816C8.83693 71.3963 10.8566 67.7333 13.6686 64.7217C16.4805 61.7101 19.9967 59.4442 23.901 58.1278C27.8053 56.8114 31.9756 56.4856 36.037 57.1797C40.0984 57.8738 43.9238 59.566 47.1693 62.1044C50.4149 64.6427 52.9789 67.9476 54.6311 71.7222C56.2834 75.4967 56.9719 79.6226 56.635 83.7291C56.298 87.8356 54.9461 91.794 52.7008 95.2488C50.4554 98.7035 47.3869 101.546 43.771 103.522L43.778 103.515ZM50.652 128.505L51.219 130.556C51.4406 131.291 51.5101 132.065 51.4233 132.828C51.3364 133.592 51.0951 134.33 50.714 134.997C50.3328 135.664 49.8199 136.247 49.2063 136.71C48.5927 137.173 47.8914 137.506 47.145 137.689C45.6627 138.091 44.0817 137.89 42.7467 137.131C41.4117 136.371 40.4312 135.115 40.019 133.636L39.445 131.578C39.0618 130.096 39.2707 128.523 40.0273 127.193C40.7839 125.863 42.0287 124.88 43.498 124.452C44.2334 124.238 45.0042 124.173 45.7649 124.262C46.5256 124.351 47.2607 124.592 47.9269 124.97C48.5931 125.347 49.1769 125.855 49.6437 126.462C50.1106 127.069 50.451 127.764 50.645 128.505H50.652Z" fill="#EBEBEB"/>
<path d="M79.989 136.906L79.688 142.604C79.6682 143.172 79.5333 143.73 79.2915 144.245C79.0496 144.759 78.706 145.219 78.2812 145.596C77.8565 145.974 77.3596 146.262 76.8205 146.441C76.2814 146.621 75.7114 146.69 75.145 146.643C74.0084 146.582 72.9425 146.072 72.1813 145.225C71.4202 144.379 71.0259 143.265 71.085 142.128L71.561 133.028C71.561 132.944 71.659 132.951 71.666 132.86C71.673 132.769 71.575 132.769 71.582 132.678C71.6729 131.552 72.1913 130.503 73.0308 129.747C73.8704 128.991 74.9674 128.584 76.097 128.611C77.384 128.68 78.6718 128.494 79.887 128.065C81.1022 127.636 82.221 126.971 83.1794 126.11C84.1379 125.248 84.9172 124.206 85.473 123.043C86.0288 121.881 86.3501 120.62 86.4185 119.333C86.487 118.046 86.3014 116.758 85.8721 115.543C85.4429 114.328 84.7785 113.209 83.917 112.25C83.0554 111.292 82.0134 110.513 80.8506 109.957C79.6879 109.401 78.427 109.08 77.14 109.011C75.4387 108.916 73.7422 109.27 72.221 110.038C70.6998 110.806 69.4076 111.961 68.474 113.386C68.1635 113.87 67.7599 114.286 67.2867 114.612C66.8134 114.938 66.2801 115.166 65.7177 115.283C65.1554 115.4 64.5753 115.404 64.0114 115.295C63.4474 115.186 62.9109 114.965 62.433 114.646C61.9642 114.335 61.5616 113.933 61.2485 113.465C60.9353 112.997 60.7179 112.472 60.6086 111.92C60.4993 111.367 60.5003 110.799 60.6116 110.247C60.7229 109.695 60.9422 109.17 61.257 108.703C62.9257 106.144 65.2042 104.04 67.8877 102.579C70.5711 101.119 73.5755 100.348 76.6306 100.336C79.6857 100.324 82.6959 101.072 85.3906 102.512C88.0853 103.951 90.38 106.038 92.0684 108.584C93.7568 111.13 94.7861 114.056 95.0636 117.099C95.3412 120.141 94.8584 123.205 93.6585 126.015C92.4587 128.825 90.5795 131.292 88.1898 133.196C85.8001 135.099 82.9749 136.379 79.968 136.92L79.989 136.906ZM78.974 156.093L78.89 157.668C78.8737 158.237 78.7421 158.796 78.5033 159.312C78.2644 159.828 77.9232 160.29 77.5004 160.671C77.0775 161.051 76.5819 161.341 76.0434 161.524C75.505 161.707 74.935 161.779 74.368 161.735C73.2301 161.674 72.1631 161.163 71.4017 160.315C70.6404 159.467 70.247 158.351 70.308 157.213L70.392 155.638C70.4677 154.506 70.9816 153.448 71.8246 152.689C72.6676 151.93 73.7733 151.529 74.907 151.571C75.4733 151.594 76.0292 151.731 76.542 151.972C77.0549 152.213 77.5143 152.554 77.8933 152.975C78.2723 153.397 78.5631 153.89 78.7487 154.425C78.9343 154.961 79.0109 155.528 78.974 156.093Z" fill="#DBDBDB"/>
<path d="M248.696 33.3711H192.682V89.3851H248.696V33.3711Z" fill="white"/>
<path d="M189.763 30.4375V92.2755H251.608V30.4375H189.763ZM248.696 89.3635H192.696V33.3635H248.696V89.3635Z" fill="#DBDBDB"/>
<path d="M244.657 78.5222V59.1602H200.998V78.5222H244.657Z" fill="#EBEBEB"/>
<path d="M231.868 72.5595V50.1875H209.496V72.5595H231.868Z" fill="#C7C7C7"/>
<path d="M253.994 30.4492H251.607V92.2942H253.994V30.4492Z" fill="#C7C7C7"/>
<path d="M277.64 115.68H221.626V171.694H277.64V115.68Z" fill="white"/>
<path d="M245.882 124.645H231.259V166.897H245.882V124.645Z" fill="#C7C7C7"/>
<path d="M218.715 112.762V174.642H280.553V112.762H218.715ZM277.641 171.695H221.641V115.695H277.641V171.695Z" fill="#DBDBDB"/>
<path d="M260.82 132.504H238.455V154.869H260.82V132.504Z" fill="#EBEBEB"/>
<path d="M282.947 112.762H280.56V174.607H282.947V112.762Z" fill="#C7C7C7"/>
<path d="M3.35205 282.252L38.8001 282.084L74.248 282.021L145.144 281.902L216.04 282.021L251.488 282.084L286.936 282.252L251.488 282.42L216.04 282.483L145.144 282.602L74.248 282.483L38.8001 282.42L3.35205 282.252Z" fill="#263238"/>
<path d="M171.591 146.092C206.913 183.003 250.894 260.192 242.249 275.592C232.617 292.721 183.449 240.991 183.666 238.016C183.841 235.769 166.971 189.016 154.147 155.045C141.323 121.074 162.855 136.964 171.591 146.092Z" fill="#D3766A"/>
<path d="M183.33 238.029C181.874 233.038 158.893 171.41 152.348 151.929C145.803 132.448 152.229 126.547 171.486 144.593C190.743 162.639 232.645 222.566 241.927 254.178C250.873 284.628 235.27 284.39 214.893 270.11C198.205 258.413 183.33 238.029 183.33 238.029Z" fill="#FFC727"/>
<path d="M150.801 136.616C150.668 136.567 150.535 136.518 150.395 136.455C150.45 136.282 150.523 136.116 150.612 135.958C150.878 136.063 151.151 136.161 151.424 136.252C153.629 136.952 156.324 137.183 158.263 135.664C158.482 135.493 158.683 135.3 158.865 135.09L159.397 135.356C157.423 137.722 153.629 137.652 150.801 136.616ZM166.026 139.836L165.487 139.409C165.179 139.558 164.871 139.698 164.563 139.829C160.153 141.768 154.707 143.721 150.892 146.997L151.06 147.697C153.087 145.949 155.361 144.51 157.808 143.427C160.503 142.125 163.345 141.096 166.026 139.836ZM170.926 152.968C172.226 151.305 173.669 149.759 175.238 148.348C175.098 148.194 174.951 148.047 174.811 147.9C170.786 151.4 167.902 156.748 164.073 160.143C161.967 162.096 159.437 163.534 156.681 164.343C156.744 164.525 156.807 164.707 156.877 164.889C158.786 164.343 160.588 163.474 162.204 162.32C165.823 159.863 168.245 156.328 170.933 152.94L170.926 152.968ZM190.813 166.828C184.989 174.731 174.426 176.628 165.158 178.028C164.038 178.196 162.918 178.378 161.798 178.602C161.875 178.805 161.945 179.015 162.022 179.225C165.935 178.427 169.96 178.091 173.852 177.202C180.341 175.718 187.152 172.645 191.219 167.353L190.813 166.828ZM198.744 234.959C194.74 233.958 191.1 235.288 187.579 237.15C186.424 237.766 185.255 238.417 184.079 239.026L184.478 239.544C189.224 237.101 193.795 234.056 199.262 235.834C201.047 236.415 202.762 237.556 203.462 239.334C204.372 241.651 203.35 244.066 201.733 245.781C199.472 248.168 196.385 249.12 193.396 250.247L193.914 250.828L196.497 249.82C200.06 248.42 204.246 245.816 204.505 241.532C204.694 238.081 201.88 235.736 198.751 234.959H198.744ZM184.814 192.259C187.614 188.276 190.239 184.139 193.06 180.149C194.278 178.42 195.559 176.649 196.959 174.99L196.56 174.451C195.811 175.333 195.104 176.236 194.418 177.146C191.576 180.919 189.028 184.902 186.382 188.808C182.392 194.695 177.709 201.324 171.563 205.405C171.64 205.622 171.717 205.832 171.801 206.049C177.065 202.556 181.3 197.201 184.821 192.252L184.814 192.259ZM186.214 202.759C185.997 204.468 186.247 206.204 186.937 207.783C187.627 209.362 188.732 210.724 190.134 211.726C193.396 213.966 197.043 212.587 199.36 209.717C200.76 208.023 201.719 206.077 202.944 204.285C204.361 202.177 206.118 200.32 208.145 198.79C209.336 197.908 210.646 197.201 212.037 196.69L211.638 196.081C210.771 196.411 209.937 196.821 209.146 197.306C205.191 199.714 202.783 203.431 200.361 207.246C199.115 209.192 197.617 211.264 195.314 211.999C194.331 212.274 193.293 212.279 192.308 212.014C191.322 211.749 190.426 211.224 189.714 210.494C186.354 207.358 186.137 202.535 188.671 198.846C191.345 194.94 195.972 192.84 200.347 191.44C202.587 190.74 204.897 190.138 207.158 189.417L206.773 188.85C202.223 190.313 197.372 191.335 193.473 193.645C190.12 195.64 186.865 198.748 186.249 202.773L186.214 202.759ZM223.314 214.876C221.422 217.159 219.177 219.125 216.664 220.7C212.563 223.423 207.847 225.078 202.944 225.516C198.093 225.955 193.26 224.508 189.448 221.477C186.123 218.803 183.148 215.485 178.738 214.757C177.488 214.549 176.215 214.523 174.958 214.68C175.049 214.925 175.133 215.163 175.224 215.38C176.955 215.188 178.707 215.369 180.362 215.912C182.686 216.689 184.604 218.278 186.424 219.853C188.116 221.448 189.974 222.856 191.968 224.053C193.929 225.103 196.063 225.793 198.268 226.09C202.668 226.625 207.132 226.023 211.232 224.34C215.663 222.59 220.5 219.58 223.72 215.59L223.314 214.876ZM223.349 275.349C224 275.699 224.644 276.049 225.274 276.329C227.434 276.819 229.51 277.626 231.434 278.723C232.246 278.95 233.071 279.128 233.905 279.255C231.776 277.922 229.493 276.851 227.108 276.063C225.885 275.701 224.627 275.466 223.356 275.363L223.349 275.349ZM226.849 221.078L226.541 220.532C220.633 221.799 215.117 226.027 212.919 231.41C211.183 235.659 212.219 239.81 214.053 243.842C215.206 246.096 216.218 248.42 217.084 250.8C217.774 252.988 218.158 255.261 218.225 257.555C218.378 261.98 217.251 266.355 214.977 270.155L215.523 270.533C217.275 267.655 218.37 264.426 218.729 261.076C219.199 256.832 218.595 252.538 216.972 248.588C215.061 243.94 211.813 239.362 212.772 234.084C214.004 227.77 220.255 222.471 226.877 221.092L226.849 221.078ZM242.291 255.539C240.38 256.154 238.42 256.606 236.432 256.89C234.052 257.184 231.182 257.079 229.782 254.79C228.774 253.138 228.956 251.017 229.502 249.239C230.699 245.361 233.835 243.135 236.796 240.678C236.719 240.482 236.628 240.286 236.537 240.09C235.046 241.315 233.478 242.47 232.134 243.758C229.726 246.068 227.934 249.736 228.501 253.138C229.201 257.408 233.541 258.003 237.146 257.443C238.939 257.112 240.707 256.658 242.438 256.085C242.445 255.931 242.375 255.742 242.319 255.553L242.291 255.539Z" fill="white"/>
<path opacity="0.1" d="M214.894 270.112C198.206 258.422 183.331 238.031 183.331 238.031C181.882 233.04 158.887 171.412 152.349 151.931C149.934 144.728 149.283 139.387 150.403 136.426L214.894 270.112Z" fill="black"/>
<path d="M182.196 282.134H45.7871C45.7871 282.134 73.6891 173.704 119.784 128.834C125.965 122.814 150.038 123.829 155.589 132.894C176.386 166.893 182.574 281.651 182.196 282.134Z" fill="#FFC727"/>
<path d="M164.85 221.386C159.488 229.002 165.319 239.376 173.866 241.168C175.621 241.525 177.437 241.465 179.165 240.993L179.228 241.693C177.632 242.128 175.964 242.228 174.328 241.987C166.726 240.804 160.328 232.705 162.365 224.991C163.933 218.978 170.065 214.792 176.141 214.603C176.141 214.855 176.204 215.1 176.239 215.352C175.716 215.358 175.195 215.401 174.678 215.478C172.727 215.754 170.852 216.419 169.164 217.434C167.476 218.449 166.008 219.793 164.85 221.386ZM51.6458 262.84L51.4357 262.665C51.3587 262.896 51.2887 263.127 51.2188 263.365C56.5457 267.768 57.6448 275.699 59.3528 282.146H60.0528C58.2328 275.391 57.2387 267.6 51.6458 262.84ZM74.4447 223.64C78.6097 223.374 82.8447 221.981 85.3787 218.488C87.3387 215.793 88.3607 211.999 86.9117 208.849C85.2317 205.202 81.1297 204.236 77.4617 204.327C75.8727 204.362 74.3048 204.516 72.7438 204.691L72.4497 205.391C74.9943 204.971 77.5827 204.884 80.1497 205.132C82.4037 205.44 84.6227 206.427 85.8827 208.401C86.3831 209.257 86.7087 210.204 86.8409 211.186C86.9731 212.169 86.9091 213.169 86.6527 214.127C85.5887 218.712 81.8507 221.603 77.3987 222.569C73.4577 223.423 69.4467 222.961 65.4987 222.394L65.2467 223.031C68.2852 223.536 71.3662 223.74 74.4447 223.64ZM80.3177 274.663C76.3417 273.963 69.9577 277.757 67.8157 272.563C66.2057 268.671 68.5158 264.324 70.9797 261.398C73.9827 257.849 77.8608 255.196 81.6898 252.613C88.7598 247.832 105.889 233.195 97.7127 226.993C90.0897 221.218 80.2967 238.067 74.5637 243.352C69.4957 248.014 62.0757 252.235 54.8238 252.13L54.6137 252.753C61.9427 252.879 69.1878 248.707 74.6338 244.192C81.8018 238.256 88.8647 222.821 97.1457 227.553C104.02 231.48 91.2027 245.249 84.1047 250.142C80.5278 252.613 76.8107 254.93 73.5487 257.842C70.6647 260.404 67.8367 263.568 66.9617 267.432C66.3177 270.288 66.6467 273.956 69.5517 275.454C71.3997 276.413 73.4927 276.049 75.4457 275.678C77.9027 275.202 80.2058 274.915 82.4878 276.154C83.6268 276.781 84.6246 277.637 85.4194 278.666C86.2141 279.696 86.7888 280.878 87.1077 282.139H87.8568C87.8568 282.139 87.8568 282.139 87.8568 282.104C86.8978 278.555 83.9857 275.349 80.2967 274.67L80.3177 274.663ZM130.221 188.262C128.498 187.268 126.526 186.792 124.539 186.89C122.553 186.988 120.637 187.656 119.021 188.815C115.521 191.293 113.372 195.297 111.727 199.161C109.893 203.48 108.227 208.261 104.657 211.46C102.725 213.203 99.6797 214.729 97.3067 212.86C95.7597 211.642 95.2067 209.493 95.1157 207.596C94.9827 203.536 97.4047 199.7 99.8267 196.634C102.333 193.449 105.259 190.628 107.786 187.457C110.131 184.517 112.189 181.157 112.742 177.377C113.015 175.508 112.742 173.485 111.209 172.232C109.885 171.293 108.25 170.902 106.645 171.14C102.669 171.525 99.2737 174.416 96.8797 177.44C95.5448 179.153 94.373 180.988 93.3797 182.921C92.2947 184.986 91.4897 187.191 90.3907 189.221C89.1167 191.601 86.9257 192.756 84.2798 191.944C82.5396 191.369 81.0304 190.25 79.9747 188.752C79.8767 188.955 79.7788 189.158 79.6878 189.361C81.6338 191.748 84.5457 193.61 87.6467 192.602C89.6137 191.958 90.6707 190.18 91.4827 188.402C92.4207 186.302 93.3307 184.251 94.4367 182.263C96.6557 178.266 99.7427 174.171 104.125 172.4C105.966 171.658 108.325 171.357 110.152 172.316C112.693 173.653 112.371 176.775 111.706 179.134C109.48 186.953 102.123 191.895 97.7057 198.398C95.6897 201.38 94.0167 204.978 94.4927 208.667C94.9267 211.985 97.2927 215.072 100.968 214.267C105.287 213.329 108.101 208.772 109.858 205.09C111.86 200.89 113.204 196.403 116.053 192.679C118.902 188.955 123.277 186.463 128.016 188.08C133.091 189.809 135.996 194.821 136.185 199.98C136.535 209.409 129.885 217.214 123.109 222.905C116.585 228.372 109.214 232.824 103.18 238.879C96.4947 245.615 92.1449 254.317 90.7688 263.708C89.9218 269.469 89.9287 276.399 92.2597 282.118H93.1418C92.4517 280.423 91.9403 278.661 91.6157 276.861C89.8237 267.243 92.0077 256.827 96.8237 248.392C101.465 240.265 108.759 234.7 116.144 229.219C122.64 224.396 129.444 219.37 133.553 212.223C137.949 204.684 138.992 193.155 130.2 188.269L130.221 188.262ZM152.95 232.775C152.875 230.636 152.303 228.545 151.279 226.666C150.254 224.787 148.806 223.173 147.049 221.953C145.456 220.859 143.576 220.26 141.645 220.231C139.713 220.202 137.816 220.745 136.192 221.792C132.825 223.948 130.648 227.763 129.815 231.592C128.604 237.157 129.612 242.869 129.724 248.483C129.909 259.246 127.001 269.836 121.345 278.996C120.68 280.067 119.945 281.096 119.189 282.132H120.141C122.419 279.018 124.318 275.643 125.797 272.08C127.845 267.327 129.237 262.318 129.934 257.191C130.669 251.787 130.326 246.488 130.039 241.091C129.766 235.897 129.934 230.458 132.965 226.02C135.632 222.114 140.294 219.72 144.921 221.666C149.548 223.612 152.145 228.54 152.243 233.44C152.523 243.569 145.243 252.074 140.252 260.229C137.872 264.107 135.737 268.209 134.736 272.675C134.043 275.787 133.938 279.002 134.428 282.153H135.128C134.561 278.577 134.771 274.922 135.744 271.436C138.313 262.336 145.012 255.189 149.289 246.936C151.536 242.54 153.237 237.724 152.929 232.782L152.95 232.775ZM173.285 263.575C170.681 260.467 166.908 258.402 162.785 258.808C159.005 259.179 155.687 261.608 154.875 265.423C153.944 269.833 156.275 274.411 158.69 277.946C159.628 279.346 160.692 280.697 161.707 282.111H162.498C160.594 279.381 158.459 276.791 157.01 273.774C154.91 269.406 154.21 263.414 159.11 260.607C163.247 258.22 168.343 259.606 171.64 262.742C175.21 266.144 176.883 271.002 177.877 275.713C178.318 277.813 178.654 279.913 178.99 282.111H179.655C178.633 275.51 177.639 268.811 173.264 263.596L173.285 263.575ZM130.235 125.227C129.852 125.264 129.474 125.306 129.101 125.353C127.504 127.214 125.663 128.851 123.627 130.218C120.825 132.127 117.719 133.547 114.443 134.418L113.589 135.384C114.381 135.223 115.164 135.019 115.934 134.775C121.065 133.123 126.679 129.798 130.235 125.227ZM131.215 144.638C130.373 142.962 130.157 141.04 130.606 139.22C131.39 135.664 134.232 132.22 137.956 131.625C142.779 130.841 146.587 135.083 150.801 136.616C152.943 137.4 155.631 137.631 157.675 136.672C157.598 136.504 157.514 136.343 157.437 136.189C155.61 137.113 153.328 136.889 151.424 136.252C147.14 134.852 143.724 130.911 138.957 130.967C132.657 131.051 127.827 139.066 130.557 144.715C131.516 146.675 133.357 148.005 134.932 149.405C136.578 150.77 137.896 152.487 138.789 154.431C139.593 156.254 140.019 158.222 140.039 160.214C140.06 162.207 139.675 164.183 138.908 166.023C138.179 167.805 136.954 169.341 135.378 170.448C133.802 171.555 131.942 172.186 130.018 172.267C128.182 172.312 126.36 171.938 124.691 171.173C123.021 170.407 121.549 169.27 120.386 167.85C119.269 166.454 118.633 164.736 118.573 162.95C118.51 160.556 119.413 158.232 119.973 155.95C120.862 152.555 120.995 148.103 117.11 146.549C113.995 145.296 110.306 146.857 107.87 148.838C104.615 151.477 103.299 155.642 101.479 159.268C99.5327 163.139 96.6907 166.814 92.0637 167.234C91.7697 167.234 91.4827 167.276 91.1957 167.276C91.0697 167.5 90.9437 167.731 90.8107 167.976H90.9927C94.7307 168.011 97.8527 166.065 100.016 163.076C102.564 159.576 103.656 155.236 106.12 151.666C108.22 148.635 112.721 145.835 116.515 147.032C122.038 148.775 119.266 155.607 118.356 159.429C117.53 162.88 117.915 166.135 120.358 168.837C124.859 173.8 133.357 174.437 137.753 169.047C142.261 163.489 141.295 154.557 136.178 149.72C134.526 148.117 132.356 146.787 131.215 144.638ZM151.326 164.791C155.043 166.191 159.145 164.476 162.211 162.355C163.511 161.445 164.713 160.401 165.795 159.24L165.627 158.638C165.13 159.17 164.612 159.681 164.08 160.157C160.853 163.02 155.939 165.897 151.515 164.217C146.958 162.488 145.992 157.168 147.434 153.017C149.058 148.306 153.517 145.45 157.808 143.434C158.606 143.06 159.411 142.703 160.223 142.363C160.16 142.181 160.083 142.006 160.006 141.824C153.44 144.673 146.566 148.362 146.167 156.23C145.985 159.856 147.763 163.44 151.326 164.791ZM174.545 203.165C171.748 205.639 168.44 207.468 164.857 208.52C159.852 209.92 154.777 208.702 151.599 204.439C150.232 202.527 149.2 200.396 148.547 198.139C147.686 195.339 147.063 192.322 147.847 189.445C149.121 184.615 153.755 181.591 158.263 180.177C162.127 178.959 166.187 178.553 170.163 177.902C170.114 177.678 170.072 177.454 170.03 177.202C168.392 177.496 166.761 177.755 165.172 177.993C160.447 178.693 155.596 179.673 151.746 182.683C149.995 183.971 148.623 185.707 147.774 187.709C146.926 189.71 146.632 191.903 146.923 194.058C147.476 198.384 149.205 203.158 152.306 206.28C155.407 209.402 159.747 210.291 163.975 209.395C167.932 208.464 171.598 206.572 174.65 203.886C174.601 203.669 174.545 203.417 174.545 203.165Z" fill="white"/>
<path d="M240.975 274.807C231.175 284.957 211.617 285.86 155.778 287.911C148.078 288.198 131.383 234.207 139.615 233.479C149.989 232.562 190.442 231.26 193.41 231.533C218.463 233.878 247.611 267.926 240.975 274.807Z" fill="#D3766A"/>
<path d="M157.584 234.781C157.584 234.781 135.583 229.881 123.228 230.896C106.687 232.247 92.9603 240.227 87.4093 243.916C75.8243 251.616 53.1093 278.216 59.6683 286.119C65.5833 293.245 87.3953 264.853 87.3953 264.853C87.3953 264.853 60.3753 290.13 69.0693 297.403C77.7633 304.676 101.213 270.271 101.213 270.271C101.213 270.271 74.0393 296.871 84.1893 302.947C91.8893 307.546 114.856 277.586 114.856 277.586C114.856 277.586 91.6513 300.644 99.3373 305.67C107.835 311.27 130.795 284.943 130.795 284.943C152.495 294.533 166.761 290.221 176.533 285.944C178.899 284.908 157.584 234.781 157.584 234.781Z" fill="#D3766A"/>
<path d="M96.1802 255.5C92.8972 258.356 89.5582 261.226 86.5412 264.362C83.5242 267.498 80.6192 270.739 77.9032 274.162C71.2532 282.513 68.3972 288.778 68.6142 288.407C73.7872 279.713 84.4132 268.317 87.4302 265.181C90.4472 262.045 93.2962 258.769 96.3062 255.633C96.3832 255.535 96.2572 255.437 96.1802 255.5Z" fill="#263238"/>
<path d="M107.702 266.194C103.67 270.016 99.5264 273.67 95.6624 277.674C91.7984 281.678 88.5154 285.78 84.9454 290.022C84.6724 290.344 84.9454 290.386 85.2254 290.071C88.9494 285.976 92.7154 282.476 96.4884 278.43C100.261 274.384 103.88 270.177 107.786 266.285C107.863 266.222 107.765 266.138 107.702 266.194Z" fill="#263238"/>
<path d="M119.245 273.588C112.784 279.118 107.345 285.838 102.179 292.551C101.92 292.887 102.27 292.901 102.55 292.551C108.108 286.139 112.413 281.064 119.434 273.784C119.546 273.7 119.378 273.469 119.245 273.588Z" fill="#263238"/>
<path d="M146.055 231.964L185.157 292.304C185.157 292.304 233.457 287.852 242.459 276.659C248.395 269.295 218.834 231.908 190.953 231.418L146.055 231.964Z" fill="#FFC727"/>
<path d="M152.929 232.782C153.063 235.524 152.69 238.267 151.83 240.874L151.361 240.174C151.997 237.99 152.295 235.721 152.243 233.447C152.229 232.934 152.187 232.422 152.117 231.914H152.817C152.873 232.194 152.911 232.483 152.929 232.782ZM163.429 258.787L163.849 259.431C166.754 259.55 169.514 260.736 171.598 262.763C175.168 266.165 176.841 271.023 177.835 275.734C178.332 278.065 178.689 280.48 179.06 282.909L179.928 284.253C178.801 276.966 178.101 269.371 173.257 263.596C170.807 260.663 167.307 258.64 163.436 258.787H163.429ZM216.993 248.623C215.593 245.27 213.542 241.959 212.856 238.389L212.205 238.004C212.548 240.034 213.177 242.004 214.074 243.856C215.227 246.111 216.24 248.434 217.105 250.814C217.795 253.002 218.179 255.276 218.246 257.569C218.526 266.788 213.479 275.825 204.281 278.415C196.007 280.746 186.62 277.169 184.303 268.398C183.28 264.664 183.697 260.681 185.472 257.24C187.817 252.893 192.157 251.556 196.483 249.841C200.046 248.441 204.232 245.837 204.491 241.553C204.694 238.053 201.88 235.729 198.751 234.952C194.747 233.951 191.107 235.281 187.586 237.143C183.309 239.404 178.92 242.225 173.866 241.161C171.469 240.613 169.251 239.459 167.426 237.811C165.6 236.163 164.227 234.075 163.436 231.746H162.589C163.449 234.346 164.991 236.667 167.055 238.466C169.119 240.265 171.629 241.476 174.321 241.973C183.421 243.373 190.106 232.873 199.255 235.82C201.04 236.401 202.755 237.542 203.455 239.32C204.365 241.637 203.343 244.052 201.726 245.767C198.184 249.505 192.626 249.715 188.566 252.634C182.805 256.778 181.762 265.199 184.688 271.338C188.139 278.583 196.791 281.047 204.169 279.094C212.52 276.882 217.84 269.462 218.764 261.069C219.225 256.838 218.618 252.559 217 248.623H216.993ZM234.885 257.646L234.374 257.016C232.575 256.967 230.811 256.456 229.803 254.818C229.177 253.722 228.931 252.45 229.103 251.199L228.494 250.59C228.362 251.444 228.362 252.313 228.494 253.166C229.082 256.54 231.945 257.625 234.892 257.646H234.885ZM227.115 276.077C223.811 275.097 219.933 274.922 216.741 276.399C213.339 277.967 211.897 281.299 212.366 284.953C212.536 286.035 212.77 287.105 213.066 288.159L213.654 288.047C212.954 285.177 212.373 282.314 213.934 279.703C215.95 276.343 220.444 275.713 224.007 276.126C228.473 276.644 232.176 279.15 236.012 281.285L236.775 280.9C233.597 279.143 230.545 277.092 227.115 276.077Z" fill="white"/>
<path d="M222.236 245.018C208.201 233.58 203.455 231.606 181.363 231.34C181.181 231.34 181.146 231.571 181.328 231.578C205.555 232.67 216.741 241.623 222.075 245.2C222.215 245.284 222.362 245.123 222.236 245.018Z" fill="#263238"/>
<path d="M199.528 285.507C195.587 278.64 191.275 271.99 186.928 265.354C182.581 258.718 178.283 252.054 173.789 245.537C171.248 241.841 168.728 238.138 166.089 234.533C166.019 234.442 165.844 234.533 165.907 234.638C169.841 241.498 174.125 248.169 178.402 254.819C182.679 261.469 187.04 268.119 191.457 274.706C193.956 278.423 196.518 282.098 199.157 285.703C199.318 285.878 199.647 285.703 199.528 285.507Z" fill="#263238"/>
<path opacity="0.1" d="M195.363 231.789L163.163 258.389L146.034 231.964L190.946 231.418C191.471 231.418 192.003 231.453 192.535 231.488L195.048 231.761L195.363 231.789Z" fill="black"/>
<path d="M103.32 166.124C97.5874 230.846 106.547 282.401 133.721 286.118C151.767 288.582 147.245 233.856 147.203 232.687C147.063 228.683 144.984 195.286 132.188 158.956C118.111 118.993 105.882 137.207 103.32 166.124Z" fill="#D3766A"/>
<path d="M103.32 166.124C97.5874 230.846 106.547 282.401 133.721 286.118C151.767 288.582 154.294 242.431 154.252 241.262C154.105 237.258 144.984 195.286 132.188 158.956C118.111 118.993 105.882 137.207 103.32 166.124Z" fill="#FFC727"/>
<path d="M133.756 163.569C137.711 175.756 141.309 188.069 144.802 200.389C148.127 212.758 151.676 225.113 153.762 237.762C149.023 216.062 139.657 185.333 133.756 163.562V163.569Z" fill="#263238"/>
<path d="M137.102 166.59C137.998 170.09 138.67 173.821 137.844 177.363C137.949 173.814 137.291 170.132 137.102 166.59Z" fill="#263238"/>
<path d="M106.183 151.688C105.868 152.143 105.581 152.605 105.301 153.088C105.446 152.44 105.6 151.803 105.763 151.177C106.384 150.317 107.114 149.541 107.933 148.867C110.369 146.886 114.058 145.325 117.173 146.578C121.058 148.132 120.925 152.584 120.036 155.979C119.441 158.261 118.538 160.585 118.636 162.979C118.697 164.766 119.333 166.484 120.449 167.879C121.613 169.3 123.085 170.437 124.754 171.202C126.424 171.968 128.246 172.342 130.081 172.296C132.236 172.239 134.309 171.455 135.961 170.07C136.038 170.287 136.108 170.504 136.178 170.728C131.551 174.298 124.439 173.276 120.456 168.887C118.013 166.185 117.656 162.93 118.454 159.479C119.364 155.657 122.136 148.825 116.613 147.082C112.784 145.857 108.276 148.657 106.183 151.688ZM112.749 177.399C113.022 175.53 112.749 173.507 111.216 172.254C109.894 171.307 108.256 170.908 106.645 171.141C105.295 171.281 103.985 171.683 102.788 172.324C102.788 172.569 102.746 172.814 102.732 173.059C103.184 172.806 103.651 172.584 104.132 172.394C105.973 171.652 108.332 171.351 110.159 172.31C112.7 173.647 112.378 176.769 111.713 179.128C110.082 184.854 105.7 189.04 101.752 193.422C101.752 193.737 101.752 194.052 101.752 194.36C103.761 192.057 105.896 189.866 107.8 187.472C110.145 184.539 112.196 181.186 112.749 177.399ZM133.602 212.238C137.949 204.685 138.992 193.156 130.2 188.27C128.478 187.277 126.505 186.801 124.519 186.899C122.533 186.997 120.617 187.665 119 188.823C115.5 191.301 113.351 195.305 111.706 199.169C109.872 203.488 108.206 208.269 104.636 211.468C103.813 212.223 102.866 212.832 101.836 213.267C101.836 213.519 101.836 213.764 101.871 214.009C105.686 212.679 108.227 208.507 109.858 205.091C111.86 200.891 113.204 196.404 116.053 192.68C118.902 188.956 123.277 186.464 128.016 188.081C133.091 189.81 135.996 194.822 136.185 199.981C136.535 209.41 129.885 217.215 123.109 222.906C116.9 228.107 109.928 232.391 104.069 238.012C104.118 238.341 104.167 238.67 104.223 238.992C107.96 235.456 111.936 232.182 116.123 229.192C122.689 224.411 129.486 219.385 133.602 212.238ZM149.303 246.888C151.403 242.863 152.992 238.411 152.964 233.84C152.964 233.483 152.964 233.14 152.929 232.783C152.816 230.87 152.341 228.996 151.529 227.26C150.546 225.109 148.982 223.274 147.014 221.961C145.422 220.867 143.542 220.269 141.61 220.24C139.679 220.211 137.782 220.754 136.157 221.8C132.79 223.956 130.613 227.771 129.78 231.6C128.569 237.165 129.577 242.877 129.689 248.491C129.884 259.249 126.988 269.837 121.345 278.997C121.191 279.249 121.03 279.494 120.869 279.746C121.058 279.928 121.254 280.103 121.45 280.278C123.142 277.682 124.597 274.939 125.797 272.081C127.846 267.329 129.238 262.32 129.934 257.192C130.669 251.788 130.326 246.489 130.039 241.092C129.766 235.898 129.934 230.459 132.965 226.021C135.632 222.115 140.294 219.721 144.921 221.667C149.548 223.613 152.145 228.541 152.243 233.441C152.523 243.57 145.243 252.075 140.252 260.23C137.872 264.108 135.737 268.21 134.736 272.676C133.798 276.912 133.945 281.316 135.163 285.479C135.233 285.731 135.317 285.983 135.394 286.235C135.632 286.235 135.87 286.235 136.094 286.186C134.533 281.411 134.414 276.281 135.751 271.437C138.327 262.309 145.026 255.141 149.303 246.888Z" fill="white"/>
<path d="M102.088 175.001C102.011 190.8 102.417 206.62 103.726 222.356C105.385 242.047 110.026 283.557 135.226 285.517C139.174 285.755 142.814 284.985 146.006 282.514C150.787 279.091 154.784 274.688 158.606 270.236C166.215 261.248 173.117 251.273 179.515 241.578L177.982 240.017L179.571 241.522C177.555 244.938 175.42 248.277 173.271 251.595C166.866 261.15 152.089 283.095 141.232 286.238C127.932 289.185 117.936 280.05 112.532 268.78C100.632 243.629 101.332 202.854 102.067 174.98L102.088 175.001Z" fill="#263238"/>
<path d="M100.786 178.918C101.122 181.914 101.612 184.805 101.934 187.801C100.85 184.974 100.456 181.928 100.786 178.918Z" fill="#263238"/>
<path d="M148.281 163.44C148.281 163.44 124.992 142.132 110.397 143.14L98.3642 154.55C98.3642 154.55 94.3392 156.02 92.9882 153.479C89.6632 147.179 88.5292 131.779 101.465 121.335C113.316 111.752 138.327 112.795 155.078 116.617C171.178 120.285 180.278 129.378 175.721 139.941C171.164 150.504 148.281 163.44 148.281 163.44Z" fill="#FFC727"/>
<path opacity="0.1" d="M149.716 158.498C149.716 158.498 167.566 144.827 169.197 137.015C170.828 129.203 155.078 122.315 144.97 119.76C129.325 115.791 118.804 117.142 110.397 125.703C101.99 134.264 149.716 158.498 149.716 158.498Z" fill="black"/>
<path d="M152.292 155.895C143.948 156.945 131.292 143.008 126.875 132.333C126.574 131.633 128.415 124.43 130.242 115.61C131.327 110.255 132.412 104.27 133.007 98.7335C133.126 97.5925 166.824 110.892 166.824 110.892C166.824 110.892 162.169 122.134 161.189 131.794C161.122 132.558 161.122 133.327 161.189 134.09C161.189 134.195 161.189 134.328 161.189 134.475C161.434 138.864 160.356 154.873 152.292 155.895Z" fill="#D3766A"/>
<path d="M157.612 134.272C158.796 134.444 159.993 134.509 161.189 134.468C161.189 134.321 161.189 134.195 161.189 134.083C161.115 133.319 161.115 132.551 161.189 131.787C162.162 122.141 166.789 110.899 166.789 110.899C166.789 110.899 139.433 100.098 133.889 98.7891C134.351 105.299 137.179 131.626 157.612 134.272Z" fill="#263238"/>
<path d="M121.961 70.868C121.086 83.783 135.555 117.145 145.943 122.92C161 131.32 181.643 127.631 187.705 110.46C193.606 93.8069 173.978 50.666 162.75 45.836C146.223 38.717 123.256 51.786 121.961 70.868Z" fill="#D3766A"/>
<path d="M160.881 84.7993C160.825 84.7223 160.748 84.9813 160.79 85.0723C161.826 87.2983 162.638 90.0143 160.923 91.6313C160.867 91.6873 160.923 91.7923 160.993 91.7503C163.345 90.3363 162.218 86.7383 160.881 84.7993Z" fill="#263238"/>
<path d="M157.864 83.304C154.126 84.585 156.947 91.97 160.412 90.787C163.877 89.604 161 82.24 157.864 83.304Z" fill="#263238"/>
<path d="M174.797 79.1257C174.797 79.0277 175.014 79.1257 175.049 79.2587C175.847 81.5757 177.149 84.0887 179.522 84.0607C179.592 84.0607 179.627 84.1727 179.522 84.1937C176.89 84.8027 175.182 81.4427 174.797 79.1257Z" fill="#263238"/>
<path d="M175.946 75.9432C179.516 74.2562 182.631 81.5432 179.32 83.0832C176.009 84.6232 172.929 77.3432 175.946 75.9432Z" fill="#263238"/>
<path d="M154.686 83.5977C155.706 83.2361 156.706 82.8201 157.682 82.3517C158.83 81.8617 159.782 81.5887 160.482 80.4967C160.649 80.1674 160.701 79.7922 160.632 79.4299C160.562 79.0676 160.374 78.7386 160.097 78.4947C158.858 77.5077 157.297 77.7597 155.897 78.2987C154.467 78.7808 153.269 79.7793 152.537 81.0987C151.774 82.4847 153.286 84.0317 154.686 83.5977Z" fill="#263238"/>
<path d="M176.113 69.8314C175.045 70.0084 173.968 70.1298 172.886 70.1954C171.647 70.3214 170.667 70.5454 169.526 69.9364C169.221 69.7289 168.992 69.4266 168.876 69.0761C168.759 68.7256 168.762 68.3465 168.882 67.9974C169.498 66.5344 170.982 66.0024 172.459 65.7924C173.952 65.5283 175.489 65.8303 176.771 66.6394C178.115 67.4514 177.541 69.5374 176.113 69.8314Z" fill="#263238"/>
<path d="M166.775 106.038C167.524 106.367 168.357 106.892 169.211 106.647C170.056 106.303 170.819 105.786 171.451 105.128C171.463 105.112 171.48 105.1 171.5 105.096C171.519 105.091 171.54 105.094 171.557 105.103C171.575 105.113 171.589 105.128 171.596 105.147C171.604 105.165 171.604 105.186 171.598 105.205C171.442 105.78 171.134 106.302 170.707 106.717C170.28 107.132 169.748 107.425 169.169 107.564C168.063 107.774 167.209 107.074 166.593 106.227C166.509 106.094 166.663 105.975 166.775 106.038Z" fill="#263238"/>
<path d="M168.189 102.42C170.639 100.145 174.489 99.0671 176.988 98.4441C177.233 98.3041 177.275 97.6881 177.219 97.4221L175.196 92.6481C175.959 92.7181 179.767 92.9141 179.361 92.0251C175.987 84.6751 172.235 76.4991 167.328 69.8911C167.298 69.8391 167.249 69.8011 167.191 69.7853C167.134 69.7695 167.072 69.7774 167.02 69.8071C166.968 69.8368 166.93 69.8859 166.914 69.9437C166.898 70.0015 166.906 70.0631 166.936 70.1151C169.897 77.3041 174.104 83.9331 177.198 91.1151C176.008 91.1151 174.041 91.0521 173.138 91.4301C172.914 91.5911 175.539 96.3721 175.756 97.1841C175.756 97.1841 170.604 97.5971 167.769 101.461C167.027 102.441 167.013 103.505 168.189 102.42Z" fill="#263238"/>
<path d="M129.402 102.54C135.044 102.022 136.661 92.7823 136.759 89.1003C136.857 85.4183 131.691 71.7193 132.363 66.0003C133.035 60.2813 138.334 56.5293 143.003 56.2003C147.672 55.8713 155.197 59.3083 158.186 57.8523C161.175 56.3963 159.376 49.3963 161.532 48.5773C166.278 46.7783 172.732 56.5573 175.574 61.4363C175.574 61.4363 169.449 37.6363 144.263 44.6363C121.296 50.9363 119.959 69.0173 120.568 76.4373C121.723 90.5843 129.402 102.54 129.402 102.54Z" fill="#263238"/>
<path d="M163.121 99.9054C161.248 100.445 159.261 100.448 157.385 99.9143C155.51 99.3804 153.823 98.331 152.515 96.8855C151.207 95.44 150.33 93.6563 149.986 91.7374C149.641 89.8186 149.842 87.8415 150.566 86.0311C151.289 84.2208 152.506 82.6498 154.078 81.4969C155.65 80.344 157.515 79.6555 159.459 79.5097C161.403 79.3638 163.349 79.7665 165.075 80.672C166.802 81.5774 168.24 82.9493 169.225 84.6314C170.617 87.0161 171.007 89.8556 170.309 92.5272C169.611 95.1989 167.882 97.4847 165.501 98.8834C164.753 99.3204 163.953 99.6636 163.121 99.9054ZM157.745 81.2224C157.024 81.4289 156.332 81.7277 155.687 82.1114C153.716 83.2736 152.262 85.1435 151.62 87.3403C150.979 89.5371 151.2 91.8956 152.237 93.9356C153.273 95.9757 155.049 97.5438 157.201 98.3208C159.354 99.0977 161.722 99.0251 163.822 98.1176C165.923 97.2101 167.599 95.536 168.509 93.4363C169.419 91.3365 169.494 88.9689 168.719 86.8155C167.945 84.6622 166.379 82.885 164.34 81.8459C162.301 80.8068 159.943 80.5838 157.745 81.2224Z" fill="#EBEBEB"/>
<path d="M185.108 90.5268C181.279 91.6328 176.708 88.7138 174.608 83.7018C173.559 81.3243 173.282 78.6777 173.817 76.1348C174.016 75.0429 174.475 74.015 175.154 73.1378C175.834 72.2605 176.715 71.5598 177.723 71.0948C179.683 70.2688 181.923 70.5418 184.058 71.8368C186.246 73.2364 187.942 75.2849 188.909 77.6958C191.128 82.9948 189.728 88.6508 185.787 90.2958C185.566 90.3889 185.339 90.4661 185.108 90.5268ZM178.745 72.2078C178.574 72.2567 178.405 72.3151 178.241 72.3828C177.436 72.7634 176.736 73.3325 176.198 74.0417C175.661 74.751 175.303 75.5794 175.154 76.4568C174.685 78.7106 174.93 81.0544 175.854 83.1628C177.786 87.7478 181.972 90.3868 185.213 89.0218C188.454 87.6568 189.511 82.8268 187.586 78.2348C186.736 76.0947 185.238 74.2738 183.302 73.0268C182.641 72.5809 181.894 72.2778 181.11 72.1368C180.325 71.9958 179.52 72.0199 178.745 72.2078Z" fill="#EBEBEB"/>
<path d="M169.365 85.8729L168.126 85.2359C169.071 83.4019 171.752 80.3359 175.126 81.8689L174.559 83.1359C171.535 81.7639 169.456 85.7399 169.365 85.8729Z" fill="#EBEBEB"/>
<path d="M127.646 106.304L126.246 106.192C126.295 105.548 126.827 99.822 129.501 98.156C132 96.602 149.885 90.988 150.641 90.75L151.061 92.08C145.93 93.683 132.161 98.128 130.236 99.332C128.458 100.438 127.744 104.736 127.646 106.304Z" fill="#EBEBEB"/>
<path d="M138.306 98.1634C138.306 98.1634 127.645 88.9374 123.235 93.0254C118.825 97.1134 128.884 111.869 135.422 112.583C141.96 113.297 142.73 107.249 142.73 107.249L138.306 98.1634Z" fill="#D3766A"/>
<path d="M126.245 97.1867C126.223 97.1867 126.201 97.1956 126.186 97.2113C126.17 97.2271 126.161 97.2484 126.161 97.2707C126.161 97.293 126.17 97.3144 126.186 97.3301C126.201 97.3459 126.223 97.3547 126.245 97.3547C130.865 97.9917 134.057 101.317 136.619 104.95C134.981 103.718 133.07 103.298 131.369 105.307C131.285 105.412 131.432 105.559 131.544 105.503C133.161 104.698 134.477 104.684 135.982 105.762C137.015 106.59 137.953 107.529 138.782 108.562C139.076 108.884 139.699 108.513 139.447 108.121C139.433 108.088 139.414 108.057 139.391 108.03C138.145 102.689 132.083 96.2417 126.245 97.1867Z" fill="#263238"/>
<path d="M149.716 158.5C149.716 158.5 130.613 128.498 107.933 126.223L110.397 143.142C110.397 143.142 123.865 142.722 148.281 163.442L149.716 158.5Z" fill="#FFC727"/>
<path d="M104.321 143.641C108.437 142.99 112.574 143.767 116.494 144.859C120.422 146.028 124.203 147.642 127.764 149.668C131.354 151.65 134.808 153.869 138.103 156.311L142.954 160.112L147.637 164.137L148.162 164.592L148.722 164.284C152.861 161.975 156.837 159.386 160.622 156.535C162.537 155.136 164.365 153.621 166.096 151.999C167.844 150.4 169.431 148.635 170.835 146.728C167.601 150.172 163.772 152.895 159.901 155.513C157.955 156.808 155.953 158.026 153.93 159.195C151.907 160.364 149.877 161.547 147.819 162.604L148.897 162.744L144.207 158.579C142.59 157.256 140.938 155.968 139.307 154.687C137.676 153.406 135.87 152.279 134.099 151.187C132.328 150.095 130.508 149.003 128.604 148.107C124.865 146.161 120.892 144.702 116.781 143.767C115.766 143.515 114.716 143.375 113.68 143.2C112.644 143.025 111.58 142.983 110.537 142.969C108.442 142.839 106.34 143.067 104.321 143.641Z" fill="#263238"/>
<path d="M98.3638 154.549C100.603 152.912 102.729 151.125 104.727 149.201C106.754 147.308 108.648 145.278 110.397 143.125C108.154 144.757 106.025 146.542 104.027 148.466C102.006 150.365 100.114 152.397 98.3638 154.549Z" fill="#263238"/>
<path d="M141.071 152.519C140.354 159.661 140.256 166.851 140.777 174.009C141.106 179.007 144.578 196.724 150.066 195.597C155.554 194.47 145.523 183.697 143.115 174.415C140.679 164.979 142.639 157.993 142.485 152.316L141.071 152.519Z" fill="#FFC727"/>
<g opacity="0.1">
<path d="M141.071 152.519C140.354 159.661 140.255 166.851 140.777 174.009C141.106 179.007 144.578 196.724 150.066 195.597C155.554 194.47 145.523 183.697 143.115 174.415C140.679 164.979 142.639 157.993 142.485 152.316L141.071 152.519Z" fill="black"/>
</g>
<path d="M159.789 153.41C162.243 159.437 164.173 165.665 165.557 172.023C166.558 176.454 168.091 192.757 163.03 193.184C157.969 193.611 163.926 181.683 163.632 172.975C163.345 164.141 159.845 158.541 158.508 153.592L159.789 153.41Z" fill="#FFC727"/>
<g opacity="0.1">
<path d="M159.789 153.406C162.243 159.433 164.173 165.661 165.557 172.019C166.558 176.45 168.091 192.753 163.03 193.18C157.969 193.607 163.926 181.679 163.632 172.971C163.345 164.137 159.845 158.537 158.508 153.588L159.789 153.406Z" fill="black"/>
</g>
<path d="M138.775 282.195C153.671 279.906 178.08 246.348 193.55 207.995C196.497 200.694 139.811 171.175 137.55 179.295C130.354 205.342 116.263 239.411 116.718 260.425C117.089 276.763 128.478 283.784 138.775 282.195Z" fill="#D3766A"/>
<path d="M165.291 151.652C161.679 147.228 161.126 134.852 157.885 127.558C154.644 120.264 145.145 116.841 143.472 119.522C141.799 122.203 144.277 124.905 145.054 136.889C145.551 144.589 139.65 159.989 142.17 173.989C143.437 181.01 168.945 156.076 165.291 151.652Z" fill="#F7A9A0"/>
<path d="M165.291 151.652C161.679 147.228 161.126 134.852 157.885 127.558C154.644 120.264 145.145 116.841 143.472 119.522C141.799 122.203 144.277 124.905 145.054 136.889C145.551 144.589 139.65 159.989 142.17 173.989C143.437 181.01 168.945 156.076 165.291 151.652Z" fill="#D3766A"/>
<path opacity="0.06" d="M165.291 151.652C161.679 147.228 161.126 134.852 157.885 127.558C154.644 120.264 145.145 116.841 143.472 119.522C141.799 122.203 144.277 124.905 145.054 136.889C145.551 144.589 139.65 159.989 142.17 173.989C143.437 181.01 168.945 156.076 165.291 151.652Z" fill="black"/>
<path d="M193.446 114.012C198.507 118.73 185.809 130.217 185.809 130.217C185.809 130.217 190.422 128.971 194.433 131.211C199.025 133.766 197.023 142.096 197.023 142.096C197.023 142.096 201.958 141.802 205.955 144.588C210.106 147.486 209.28 156.173 209.28 156.173C209.28 156.173 214.026 158.427 215.748 163.313C218.702 171.678 209.448 181.709 204.968 189.052C200.159 196.913 194.125 206.671 190.667 211.515L136.452 183.935C136.452 183.935 145.741 142.474 153.098 135.376C159.321 129.398 185.746 106.795 193.446 114.012Z" fill="#D3766A"/>
<path d="M185.592 130.183C177.472 134.957 170.514 141.663 163.892 148.208C163.861 148.239 163.844 148.281 163.844 148.324C163.844 148.367 163.861 148.409 163.892 148.439C163.922 148.47 163.964 148.487 164.007 148.487C164.05 148.487 164.092 148.47 164.123 148.439C170.654 141.852 179.103 136.854 185.879 130.54C185.926 130.502 185.956 130.447 185.963 130.387C185.969 130.326 185.952 130.266 185.914 130.218C185.876 130.171 185.82 130.141 185.76 130.134C185.699 130.128 185.639 130.145 185.592 130.183Z" fill="#263238"/>
<path d="M196.364 141.798C194.558 142.932 193.137 144.661 191.709 146.215C190.169 147.888 188.657 149.596 187.18 151.318C184.212 154.772 181.33 158.297 178.535 161.895C178.409 162.056 178.626 162.287 178.766 162.126C181.727 158.689 184.744 155.294 187.866 151.99C189.42 150.334 190.988 148.7 192.57 147.09C194.033 145.571 195.713 144.094 196.819 142.274C196.85 142.244 196.875 142.209 196.893 142.169C196.91 142.13 196.92 142.087 196.921 142.044C196.922 142 196.914 141.957 196.898 141.917C196.883 141.877 196.859 141.84 196.829 141.809C196.8 141.778 196.764 141.752 196.724 141.735C196.685 141.718 196.642 141.708 196.599 141.707C196.556 141.706 196.513 141.714 196.472 141.729C196.432 141.745 196.395 141.768 196.364 141.798Z" fill="#263238"/>
<path d="M209.174 156.315C207.564 157.239 206.374 159.115 205.191 160.515C203.875 162.12 202.548 163.716 201.208 165.303C198.534 168.474 195.86 171.645 193.074 174.725C192.934 174.879 193.165 175.11 193.305 174.956C196.147 171.841 199.031 168.768 201.845 165.625C203.245 164.085 204.62 162.536 205.968 160.977C207.13 159.654 208.733 158.135 209.335 156.448C209.342 156.427 209.343 156.404 209.337 156.382C209.33 156.36 209.318 156.341 209.3 156.326C209.283 156.312 209.261 156.303 209.239 156.301C209.216 156.299 209.194 156.304 209.174 156.315Z" fill="#263238"/>
<path d="M187.418 112.605C178.213 116.413 167.181 124.505 160.713 129.531C158.298 131.403 155.983 133.398 153.776 135.509C151.634 137.658 150.234 140.409 148.876 143.104C147.945 144.931 147.154 146.828 146.37 148.704C147.77 143.804 149.45 138.596 152.936 134.704C155.114 132.482 157.438 130.407 159.894 128.495C166.404 123.49 173.082 118.415 180.656 115.146L187.418 112.605Z" fill="#263238"/>
<path d="M125.888 194.422L179.543 241.553C179.543 241.553 151.487 286.899 138.404 286.01C125.321 285.121 111.104 276.651 112.175 245.2C112.434 237.325 125.888 194.422 125.888 194.422Z" fill="#FFC727"/>
<path d="M116.193 229.238L115.493 229.742C115.591 229.364 115.696 228.986 115.794 228.601C118.279 226.76 120.764 224.912 123.13 222.924C129.101 217.926 134.946 211.29 136.031 203.324L136.563 203.793C136.075 206.749 135.063 209.594 133.574 212.193C129.486 219.382 122.689 224.408 116.193 229.238ZM147.028 221.965C145.436 220.871 143.556 220.272 141.624 220.244C139.692 220.215 137.795 220.758 136.171 221.804C132.804 223.96 130.627 227.775 129.794 231.604C128.583 237.169 129.591 242.881 129.703 248.495C129.893 259.146 127.05 269.632 121.506 278.728C121.695 278.924 121.891 279.113 122.087 279.295C123.504 276.983 124.746 274.568 125.804 272.071C127.853 267.319 129.244 262.31 129.941 257.182C130.676 251.778 130.333 246.479 130.046 241.082C129.773 235.888 129.941 230.449 132.972 226.011C135.639 222.105 140.301 219.711 144.928 221.657C149.555 223.603 152.145 228.538 152.243 233.438C152.523 243.567 145.243 252.072 140.252 260.227C137.872 264.105 135.737 268.207 134.736 272.673C133.798 276.909 133.945 281.313 135.163 285.476C135.179 285.536 135.197 285.594 135.219 285.651L135.968 285.77C134.531 281.11 134.458 276.135 135.758 271.434C138.327 262.334 145.026 255.187 149.303 246.934C151.536 242.601 153.237 237.771 152.929 232.829C152.862 230.682 152.294 228.581 151.269 226.693C150.244 224.806 148.792 223.184 147.028 221.958V221.965ZM162.75 258.834C158.97 259.205 155.652 261.634 154.84 265.449C154.266 268.179 154.938 270.979 156.107 273.548C156.268 273.359 156.443 273.17 156.611 272.981C154.812 268.711 154.511 263.265 159.075 260.633C160.272 259.967 161.598 259.564 162.964 259.453C164.33 259.342 165.703 259.525 166.992 259.989C167.132 259.8 167.265 259.611 167.412 259.422C165.922 258.879 164.329 258.675 162.75 258.827V258.834ZM178.962 241.047C177.285 241.463 175.536 241.495 173.845 241.138C167.237 239.738 162.253 233.242 162.806 226.844L162.106 226.207C161.021 233.522 167.125 240.837 174.321 241.957C176.057 242.21 177.826 242.083 179.508 241.586L179.543 241.523L178.962 241.047Z" fill="white"/>
<path d="M125.293 213.917C127.918 216.108 130.368 218.53 132.86 220.868C135.352 223.206 137.83 225.579 140.273 227.98C145.155 232.782 149.996 237.619 154.798 242.491C156.107 243.828 157.416 245.165 158.704 246.53C159.992 247.895 161.273 249.617 162.666 251.052C162.683 251.076 162.69 251.105 162.687 251.134C162.685 251.163 162.672 251.191 162.651 251.211C162.63 251.232 162.603 251.245 162.574 251.248C162.545 251.25 162.515 251.243 162.491 251.227C161.273 250.072 159.887 249.085 158.641 247.951C157.395 246.817 156.086 245.571 154.826 244.36C152.362 241.984 149.908 239.6 147.462 237.206C142.562 232.418 137.711 227.595 132.986 222.653C130.319 219.853 127.54 217.109 125.041 214.162C125.009 214.128 124.991 214.083 124.991 214.037C124.992 213.99 125.011 213.946 125.045 213.913C125.078 213.881 125.123 213.863 125.17 213.863C125.216 213.864 125.261 213.883 125.293 213.917Z" fill="#263238"/>
<path d="M131.964 199.761L125.762 194.567L126.063 194.483C123.116 205.599 119.861 216.631 116.809 227.712C115.4 232.503 114.232 237.363 113.309 242.272C112.51 248.662 112.491 255.126 113.253 261.522C111.711 255.17 111.215 248.609 111.783 242.097C113.302 231.352 116.746 220.985 119.952 210.66C121.779 205.095 123.711 199.572 125.804 194.098L126.007 194.28L131.957 199.761H131.964Z" fill="#263238"/>
<path d="M285.795 215.449C276.611 227.881 267.042 242.308 264.711 257.897C264.711 258.128 265.061 258.205 265.117 257.974C266.173 253.722 267.53 249.552 269.177 245.493C275.211 243.834 281.133 242.469 284.304 236.477C287.538 230.317 287.104 222.295 286.509 215.582C286.467 215.239 285.977 215.239 285.795 215.449Z" fill="#FFC727"/>
<path d="M269.268 245.372C273.391 236.118 278.683 226.829 285.41 219.22C285.42 219.21 285.432 219.204 285.446 219.203C285.46 219.203 285.474 219.207 285.484 219.217C285.494 219.226 285.5 219.239 285.501 219.253C285.501 219.266 285.497 219.28 285.487 219.29C281.084 224.715 277.731 230.616 274.462 236.622C277.507 233.535 280.832 230.77 283.716 227.522C283.772 227.452 283.863 227.522 283.807 227.613C280.944 231.043 277.822 234.767 274.105 237.308C273.107 239.147 272.096 240.993 271.074 242.845C271.326 242.705 271.585 242.579 271.837 242.453C271.886 242.453 271.921 242.502 271.879 242.523C271.592 242.67 271.312 242.817 271.018 242.943C270.535 243.818 270.059 244.693 269.562 245.568C269.45 245.736 269.177 245.568 269.268 245.372Z" fill="#263238"/>
<path d="M272.335 242.149C274.801 240.764 277.158 239.192 279.384 237.445C279.44 237.396 279.531 237.445 279.468 237.529C277.323 239.388 274.975 240.996 272.468 242.324C272.321 242.38 272.223 242.212 272.335 242.149Z" fill="#263238"/>
<path d="M263.647 255.579C263.647 255.768 263.99 255.761 263.983 255.579C264.032 250.448 263.983 245.289 264.067 240.13C265.383 237.477 268.204 236.007 270.171 233.886C271.582 232.33 272.811 230.618 273.832 228.783C276.196 224.4 277.642 219.582 278.081 214.622C278.62 209.134 276.534 191.011 274.224 191.641C273.02 191.963 269.135 200.944 268.106 203.905C266.436 208.801 265.213 213.838 264.452 218.955C262.576 231.016 262.744 243.42 263.647 255.579Z" fill="#FFC727"/>
<path d="M263.612 233.438C263.892 226.942 265.355 220.383 266.72 214.083C268.197 207.293 269.926 200.902 273.419 194.847C273.482 194.735 273.65 194.847 273.587 194.952C271.259 199.661 269.456 204.612 268.211 209.715C268.449 209.344 268.729 209.015 268.974 208.651C269.072 208.518 269.296 208.651 269.198 208.784C268.887 209.334 268.521 209.85 268.106 210.324C268.092 210.329 268.078 210.329 268.064 210.324C266.86 215.175 265.999 220.124 265.264 225.087L265.432 224.898C265.467 224.856 265.53 224.898 265.509 224.954C265.418 225.122 265.313 225.283 265.215 225.451C264.837 227.964 264.515 230.47 264.151 232.955C268.624 229.133 272.439 224.625 274.595 219.067C274.595 219.067 274.651 219.067 274.637 219.067C272.537 224.828 269.198 229.945 264.074 233.445C263.983 234.145 263.892 234.782 263.794 235.447C263.794 235.587 263.556 235.552 263.556 235.447C263.556 234.852 263.556 234.257 263.612 233.669C263.592 233.658 263.575 233.641 263.563 233.621C263.551 233.6 263.545 233.577 263.545 233.554C263.545 233.53 263.551 233.507 263.563 233.487C263.575 233.467 263.592 233.45 263.612 233.438Z" fill="#263238"/>
<path d="M265.719 224.021C269.142 218.918 272.334 213.962 274.819 208.327C274.819 208.264 274.959 208.327 274.931 208.369C272.831 213.969 269.87 219.653 265.88 224.154C265.81 224.245 265.649 224.126 265.719 224.021Z" fill="#263238"/>
<path d="M270.263 207.064C271.663 204.558 273.175 202.115 274.505 199.56C274.547 199.49 274.645 199.56 274.61 199.623C273.52 202.291 272.137 204.829 270.487 207.19C270.389 207.316 270.186 207.204 270.263 207.064Z" fill="#263238"/>
<path d="M269.745 208.145V208.194C269.745 208.194 269.681 208.145 269.745 208.145Z" fill="#263238"/>
<path d="M260.175 240.733C260.107 244.135 259.706 247.523 258.978 250.848C259.027 251.212 259.083 251.548 259.132 251.954C260.185 248.281 260.793 244.495 260.945 240.677C260.977 240.624 260.993 240.563 260.993 240.502C260.993 240.44 260.977 240.38 260.945 240.327C261.098 235.206 260.722 230.083 259.825 225.039C258.236 215.61 254.764 206.552 248.184 199.482C248.13 199.441 248.068 199.413 248.002 199.398C247.936 199.383 247.867 199.383 247.801 199.397C247.735 199.411 247.672 199.439 247.618 199.479C247.563 199.519 247.518 199.57 247.484 199.629C244.831 206.384 245.755 214.441 248.016 221.175C249.247 224.821 251.007 228.267 253.238 231.402C255.464 234.58 258.341 237.261 260.175 240.733Z" fill="#FFC727"/>
<path d="M248.962 202.642C255.199 212.764 259.539 224.762 260.064 236.718C260.064 236.928 259.721 236.984 259.693 236.767C259.546 235.696 259.378 234.632 259.21 233.575C256.627 231.104 253.981 228.5 252.133 225.406C252.133 225.357 252.182 225.287 252.224 225.343C254.367 227.967 256.662 230.463 259.098 232.819C258.631 230.177 258.097 227.576 257.495 225.014C257.327 224.818 257.166 224.622 256.998 224.433C256.83 224.244 257.075 224.118 257.187 224.251L257.334 224.412C256.457 220.898 255.368 217.44 254.072 214.059C252.49 212.169 250.712 210.559 249.557 208.249C249.552 208.238 249.551 208.225 249.555 208.214C249.559 208.203 249.567 208.193 249.577 208.187C249.587 208.181 249.599 208.179 249.611 208.181C249.623 208.184 249.633 208.19 249.641 208.2C250.572 209.509 251.468 210.818 252.525 212.029C252.945 212.512 253.407 212.96 253.841 213.429C252.406 209.759 250.703 206.2 248.745 202.782C248.74 202.755 248.743 202.727 248.754 202.701C248.765 202.676 248.783 202.655 248.807 202.64C248.83 202.625 248.857 202.617 248.884 202.617C248.912 202.618 248.939 202.626 248.962 202.642Z" fill="#263238"/>
<path d="M250.221 215.126C252.237 217.835 254.533 220.425 256.409 223.232C256.465 223.309 256.346 223.393 256.276 223.33C253.868 221.069 251.831 217.989 250.088 215.203C250.032 215.119 250.144 215.042 250.221 215.126Z" fill="#263238"/>
<path d="M256.689 223.857L256.773 223.948C256.836 224.004 256.773 224.095 256.682 224.039L256.598 223.955C256.535 223.892 256.633 223.801 256.689 223.857Z" fill="#263238"/>
<path d="M239.189 222.101C239.693 227.309 242.43 233.525 245.769 237.536C247.239 239.283 249.058 240.701 251.11 241.701C253.42 242.849 255.842 244.165 258.229 245.103C259.368 247.995 260.212 250.994 260.749 254.056L260.98 253.265C259.447 240.084 250.914 228.814 239.98 221.583C239.896 221.532 239.799 221.506 239.7 221.508C239.601 221.51 239.505 221.54 239.422 221.594C239.34 221.648 239.274 221.724 239.233 221.814C239.192 221.903 239.177 222.003 239.189 222.101Z" fill="#FFC727"/>
<path d="M242.962 225.992C242.885 225.922 242.962 225.789 243.074 225.852C249.071 230.31 253.851 236.202 256.976 242.988C257.053 243.163 256.808 243.324 256.703 243.142C256.199 242.253 255.681 241.392 255.156 240.538C252.664 240.069 250.305 238.312 248.457 236.646C248.408 236.604 248.457 236.534 248.527 236.576C249.482 237.444 250.543 238.188 251.684 238.788C252.699 239.306 253.784 239.628 254.848 240.041C253.915 238.581 252.951 237.181 251.957 235.841C249.268 234.821 246.746 233.405 244.474 231.641C244.465 231.638 244.456 231.632 244.449 231.625C244.442 231.618 244.437 231.609 244.433 231.599C244.43 231.59 244.429 231.579 244.43 231.569C244.431 231.559 244.434 231.549 244.439 231.541C244.444 231.532 244.451 231.524 244.459 231.518C244.468 231.513 244.477 231.509 244.487 231.507C244.497 231.505 244.508 231.506 244.517 231.508C244.527 231.511 244.536 231.516 244.544 231.522C246.795 232.886 249.118 234.127 251.502 235.239C249.983 233.236 248.346 231.324 246.602 229.513C245.755 229.065 244.894 228.617 244.075 228.113C244.062 228.104 244.052 228.091 244.047 228.075C244.042 228.059 244.044 228.042 244.05 228.027C244.057 228.012 244.069 228 244.084 227.992C244.098 227.985 244.115 227.983 244.131 227.987C244.813 228.228 245.463 228.547 246.07 228.939C245.062 227.938 244.047 226.951 242.962 225.992Z" fill="#263238"/>
<path d="M243.193 230.541C243.341 230.631 243.481 230.732 243.613 230.842C243.655 230.842 243.613 230.933 243.557 230.912C243.414 230.83 243.276 230.739 243.144 230.639C243.046 230.639 243.144 230.492 243.193 230.541Z" fill="#263238"/>
<path d="M278.011 282.607H248.107L250.522 255.377L251.054 249.371H275.071L275.596 255.377L278.011 282.607Z" fill="#455A64"/>
<path d="M275.596 255.377H250.522L251.054 249.371H275.071L275.596 255.377Z" fill="#263238"/>
<path d="M276.499 245.168H249.626V251.111H276.499V245.168Z" fill="#455A64"/>
<path d="M219.296 69.4118C219.419 70.857 219.111 72.3062 218.411 73.5765C217.711 74.8467 216.65 75.8809 215.362 76.5483C214.074 77.2158 212.618 77.4865 211.176 77.3264C209.735 77.1662 208.373 76.5823 207.263 75.6485C206.153 74.7147 205.345 73.4729 204.941 72.08C204.537 70.687 204.554 69.2055 204.992 67.8227C205.429 66.4398 206.267 65.2176 207.399 64.3106C208.53 63.4036 209.906 62.8525 211.351 62.7268C212.311 62.6433 213.279 62.75 214.199 63.0408C215.118 63.3317 215.971 63.801 216.709 64.4219C217.447 65.0428 218.055 65.8031 218.499 66.6593C218.943 67.5156 219.214 68.4509 219.296 69.4118Z" fill="white"/>
<path d="M219.296 69.4167C219.926 75.9407 212.163 80.0707 207.067 75.8917C206.295 75.2496 205.657 74.4607 205.192 73.5707C204.727 72.6806 204.442 71.7071 204.356 70.7065C204.269 69.7059 204.382 68.6981 204.688 67.7414C204.993 66.7846 205.485 65.898 206.136 65.1327C210.434 60.1347 218.799 62.8717 219.296 69.4167ZM219.296 69.4167C218.729 63.0257 210.609 60.5477 206.598 65.5177C205.43 66.9602 204.866 68.7987 205.024 70.6478C205.182 72.4969 206.049 74.2132 207.445 75.4367C212.247 79.6367 219.828 75.8007 219.289 69.4167H219.296Z" fill="#263238"/>
<path d="M199.849 77.0362C199.918 77.8403 199.747 78.6469 199.358 79.3538C198.969 80.0607 198.378 80.6364 197.662 81.0079C196.945 81.3795 196.135 81.5303 195.333 81.4412C194.531 81.3522 193.773 81.0273 193.155 80.5076C192.538 79.988 192.088 79.2969 191.864 78.5218C191.639 77.7467 191.649 76.9223 191.893 76.1529C192.136 75.3835 192.603 74.7037 193.233 74.1993C193.863 73.6949 194.628 73.3886 195.432 73.3192C196.51 73.228 197.581 73.5681 198.409 74.2648C199.237 74.9616 199.755 75.9582 199.849 77.0362Z" fill="white"/>
<path d="M199.85 77.0294C199.907 77.7327 199.79 78.4395 199.507 79.0861C199.224 79.7327 198.785 80.2991 198.23 80.7343C197.674 81.1695 197.019 81.46 196.324 81.5797C195.628 81.6993 194.914 81.6445 194.245 81.42C193.576 81.1955 192.973 80.8084 192.49 80.2934C192.008 79.7784 191.661 79.1517 191.48 78.4695C191.299 77.7873 191.291 77.0708 191.455 76.3845C191.62 75.6983 191.952 75.0635 192.423 74.5374C192.98 73.9228 193.704 73.4834 194.506 73.2729C195.308 73.0623 196.155 73.0897 196.942 73.3515C197.729 73.6134 198.423 74.0985 198.939 74.7478C199.455 75.3971 199.772 76.1825 199.85 77.0084V77.0294ZM199.85 77.0294C199.234 71.8704 191.772 72.5564 192.066 77.7294C192.661 82.8534 200.13 82.2444 199.85 77.0294Z" fill="#263238"/>
<path d="M283.381 37.9456C283.832 41.6733 283.297 45.4543 281.828 48.9099C280.359 52.3656 278.008 55.3747 275.01 57.6359C272.012 59.8972 268.473 61.3312 264.747 61.7945C261.02 62.2578 257.238 61.734 253.778 60.2756C252.095 62.473 249.928 64.2523 247.446 65.4749C244.963 66.6975 242.232 67.3304 239.464 67.3243C236.697 67.3183 233.968 66.6733 231.491 65.4398C229.014 64.2062 226.855 62.4174 225.183 60.2126C224.399 60.4522 223.595 60.6209 222.782 60.7166C219.983 61.0573 217.147 60.5797 214.614 59.3416C212.082 58.1034 209.963 56.1579 208.514 53.7404C207.064 51.3229 206.347 48.5372 206.448 45.7203C206.548 42.9034 207.464 40.1761 209.083 37.8686C205.918 33.8518 204.294 28.8358 204.505 23.7266C204.716 18.6174 206.746 13.752 210.23 10.0092C213.715 6.26636 218.422 3.89297 223.503 3.31775C228.585 2.74253 233.704 4.0034 237.937 6.8726C239.92 4.39324 242.524 2.48336 245.485 1.33721C248.446 0.191061 251.657 -0.150467 254.793 0.347368C257.929 0.845203 260.876 2.16464 263.337 4.17147C265.797 6.1783 267.682 8.80093 268.8 11.7726C269.547 11.5181 270.319 11.3421 271.103 11.2476C273.487 10.9559 275.903 11.4013 278.027 12.524C280.151 13.6467 281.88 15.3927 282.981 17.5274C284.083 19.662 284.504 22.0828 284.189 24.4642C283.874 26.8455 282.837 29.0732 281.218 30.8476C282.354 33.0665 283.087 35.47 283.381 37.9456Z" fill="white"/>
<path d="M283.381 37.9499C283.834 41.6863 283.3 45.4764 281.831 48.9416C280.361 52.4069 278.009 55.4262 275.008 57.6981C272.007 59.97 268.463 61.415 264.729 61.8889C260.995 62.3629 257.202 61.8491 253.729 60.3989L253.876 60.3569C252.182 62.5784 249.998 64.3789 247.495 65.6183C244.991 66.8577 242.235 67.5025 239.442 67.5025C236.648 67.5025 233.892 66.8577 231.389 65.6183C228.885 64.3789 226.702 62.5784 225.008 60.3569L225.246 60.4339C224.153 60.7702 223.021 60.9655 221.879 61.0149C209.545 61.7779 201.754 47.8199 208.845 37.6909V38.0689C198.275 24.8179 206.654 4.91688 223.482 3.06888C228.619 2.4945 233.793 3.78099 238.063 6.69488L237.776 6.74388C246.519 -4.16912 264.012 -1.36212 268.905 11.7349L268.772 11.6719C269.696 11.3553 270.659 11.1692 271.635 11.1189C273.994 10.9438 276.351 11.4807 278.401 12.6602C280.452 13.8397 282.101 15.6074 283.135 17.7345C284.17 19.8617 284.542 22.2504 284.204 24.5915C283.866 26.9326 282.833 29.1184 281.239 30.8659C282.382 33.0759 283.111 35.477 283.388 37.9499H283.381ZM283.381 37.9499C283.08 35.4708 282.34 33.0651 281.197 30.8449C282.922 28.9194 283.962 26.4767 284.153 23.8982C284.344 21.3197 283.675 18.7506 282.252 16.592C280.829 14.4333 278.731 12.8067 276.286 11.966C273.841 11.1253 271.187 11.1179 268.737 11.9449C263.928 -0.956119 246.673 -3.77012 238.098 7.04488L237.979 7.19888L237.811 7.08688C233.626 4.24342 228.557 3.00106 223.531 3.58688C207.179 5.47688 199.192 24.7619 209.335 37.6839L209.482 37.8729L209.349 38.0619C202.489 47.7849 209.965 61.2459 221.851 60.5669C223.011 60.519 224.159 60.319 225.267 59.9719C226.909 62.1824 229.041 63.9822 231.495 65.2297C233.95 66.4772 236.661 67.1384 239.414 67.1615C242.168 67.1846 244.889 66.5688 247.364 65.3626C249.839 64.1564 252.001 62.3926 253.68 60.2099L253.743 60.1329L253.827 60.1749C257.275 61.6283 261.044 62.1519 264.758 61.6934C268.471 61.2348 272 59.8101 274.991 57.5616C277.982 55.3131 280.331 52.3193 281.803 48.8792C283.275 45.4391 283.819 41.673 283.381 37.9569V37.9499Z" fill="#263238"/>
<path d="M246.82 36.7749L246.645 39.7359C246.636 40.0309 246.568 40.3211 246.443 40.5887C246.319 40.8563 246.141 41.0957 245.921 41.2923C245.701 41.4889 245.443 41.6384 245.163 41.7319C244.883 41.8254 244.587 41.8608 244.293 41.8359C243.703 41.8016 243.15 41.5347 242.756 41.0939C242.363 40.653 242.16 40.074 242.193 39.4839L242.459 34.7519C242.459 34.7029 242.508 34.7099 242.515 34.6609C242.522 34.6119 242.445 34.6399 242.445 34.5699C242.493 33.9851 242.764 33.4411 243.201 33.0503C243.639 32.6595 244.21 32.4518 244.797 32.4699C245.478 32.5294 246.165 32.4514 246.816 32.2404C247.467 32.0295 248.069 31.6899 248.586 31.2419C249.104 30.7939 249.526 30.2466 249.827 29.6324C250.129 29.0182 250.304 28.3496 250.343 27.6664C250.381 26.9831 250.282 26.2991 250.051 25.655C249.82 25.0108 249.462 24.4195 248.999 23.9163C248.535 23.4131 247.975 23.0081 247.352 22.7255C246.728 22.4428 246.055 22.2883 245.371 22.2709C244.487 22.2186 243.605 22.4001 242.813 22.797C242.022 23.1939 241.349 23.7923 240.863 24.5319C240.709 24.7927 240.503 25.0197 240.259 25.1989C240.015 25.3782 239.737 25.5061 239.442 25.575C239.147 25.6438 238.841 25.652 238.543 25.5993C238.245 25.5465 237.961 25.4338 237.707 25.268C237.454 25.1022 237.236 24.8867 237.069 24.6346C236.901 24.3824 236.786 24.0989 236.731 23.8011C236.676 23.5032 236.682 23.1973 236.748 22.9018C236.814 22.6063 236.94 22.3274 237.118 22.0819C237.99 20.7549 239.178 19.6655 240.575 18.9114C241.972 18.1573 243.535 17.7622 245.123 17.7617C246.711 17.7612 248.274 18.1552 249.672 18.9084C251.069 19.6616 252.258 20.7502 253.131 22.0766C254.004 23.403 254.534 24.9255 254.672 26.5072C254.811 28.089 254.555 29.6804 253.926 31.1385C253.298 32.5966 252.316 33.8757 251.071 34.8607C249.826 35.8458 248.355 36.5059 246.792 36.7819L246.82 36.7749ZM246.26 46.7429L246.211 47.5619C246.201 47.8566 246.132 48.1463 246.007 48.4134C245.882 48.6806 245.705 48.9196 245.485 49.1159C245.265 49.3123 245.007 49.462 244.728 49.5558C244.448 49.6496 244.152 49.6857 243.859 49.6619C243.269 49.624 242.717 49.3551 242.324 48.9136C241.931 48.472 241.728 47.8933 241.759 47.3029L241.808 46.4839C241.849 45.8965 242.118 45.3484 242.557 44.9563C242.996 44.5641 243.571 44.3587 244.16 44.3839C244.454 44.3972 244.742 44.4692 245.008 44.5957C245.274 44.7222 245.511 44.9006 245.707 45.1205C245.903 45.3404 246.052 45.5972 246.147 45.8758C246.242 46.1545 246.28 46.4493 246.26 46.7429Z" fill="#FFC727"/>
</svg>
