<svg width="300" height="292" viewBox="0 0 300 292" fill="none" xmlns="http://www.w3.org/2000/svg">
<path d="M13.2892 174.184H31.6196V166.437H13.2892V174.184Z" fill="#EBEBEB"/>
<path d="M23.5208 156.672L32.6029 156.478L37.2132 156.402C38.7569 156.367 40.3075 156.402 41.8512 156.367H42.1558V156.679L42.1973 164.425V164.771H41.8651L32.6999 164.729C29.6471 164.729 26.5874 164.646 23.5346 164.612H23.3408V164.425C23.3408 163.11 23.3962 161.801 23.4308 160.514L23.5208 156.672ZM23.5208 156.672L23.6177 160.583C23.6177 161.877 23.6939 163.151 23.7077 164.418L23.5208 164.231C26.5736 164.196 29.6333 164.12 32.686 164.113L41.8651 164.072L41.519 164.418V156.672L41.8651 157.011C40.356 157.011 38.8469 157.011 37.3309 156.969L32.776 156.893L23.5208 156.672Z" fill="#EBEBEB"/>
<path d="M3.10105 156.672L12.1832 156.478L16.7935 156.402C18.3372 156.367 19.8809 156.402 21.4315 156.367H21.7361V156.679L21.7776 164.425V164.771H21.4315L12.2663 164.729C9.20658 164.729 6.15382 164.646 3.10105 164.612H2.90723V164.425C2.90723 163.11 2.96953 161.801 2.99722 160.514L3.10105 156.672ZM3.10105 156.672L3.19796 160.583C3.19796 161.877 3.27411 163.151 3.28796 164.418L3.10105 164.231C6.15382 164.196 9.20658 164.12 12.2663 164.113L21.4315 164.072L21.0854 164.418V156.672L21.3969 156.983C19.8809 156.983 18.3787 156.983 16.8627 156.942L12.3078 156.866L3.10105 156.672Z" fill="#EBEBEB"/>
<path d="M285.027 12.979L275.945 13.1728L271.335 13.2489C269.791 13.2835 268.24 13.2489 266.697 13.2905H266.392V12.979L266.351 5.23284V4.88672H266.697L275.862 4.93518C278.922 4.93518 281.974 5.01132 285.027 5.04593H285.221V5.23284C285.221 6.54809 285.159 7.85641 285.131 9.1509L285.027 12.979ZM285.027 12.979L284.93 9.06783C284.93 7.78027 284.854 6.50655 284.84 5.23284L285.027 5.42666C281.974 5.42666 278.922 5.53742 275.862 5.53742L266.697 5.57896L267.043 5.23284L267.008 12.979L266.697 12.6744C268.206 12.6744 269.715 12.6744 271.231 12.6744L275.786 12.7574L285.027 12.979Z" fill="#EBEBEB"/>
<path d="M295.252 14.9961H276.922V22.7422H295.252V14.9961Z" fill="#EBEBEB"/>
<path d="M21.4032 13.0171L12.3141 13.204L7.7038 13.2871C6.16011 13.2871 4.61643 13.2871 3.07274 13.2871H2.76123V13.0171V5.27101V4.91797H3.10043L12.2656 4.9595C15.3184 4.9595 18.3712 5.03565 21.4309 5.07026H21.6178V5.25717C21.6178 6.56549 21.5555 7.87382 21.5278 9.1683L21.4032 13.0171ZM21.4032 13.0171L21.2993 9.09908C21.2993 7.81152 21.2232 6.5378 21.2093 5.27101L21.4032 5.45791C18.3435 5.49253 15.2907 5.56867 12.238 5.56867L3.10043 5.58944L3.43962 5.24332L3.37732 13.0171L3.10043 12.6779C4.6095 12.6779 6.11166 12.6779 7.62766 12.7195L12.1826 12.7956L21.4032 13.0171Z" fill="#EBEBEB"/>
<path d="M131.905 61.8594H150.236V54.1132H131.905V61.8594Z" fill="#EBEBEB"/>
<path d="M276.92 159.562L286.009 159.368L290.62 159.292C292.163 159.257 293.707 159.292 295.251 159.25H295.562V159.562L295.597 167.308V167.654H295.223L286.058 167.612C283.005 167.612 279.952 167.529 276.892 167.495H276.706V167.308C276.706 165.992 276.768 164.684 276.796 163.397L276.92 159.562ZM276.92 159.562L277.024 163.473C277.024 164.767 277.1 166.041 277.114 167.308L276.92 167.121C279.98 167.086 283.033 167.01 286.085 167.003L295.251 166.962L294.911 167.308L294.946 159.562L295.251 159.873C293.742 159.873 292.239 159.873 290.723 159.831L286.168 159.755L276.92 159.562Z" fill="#EBEBEB"/>
<path d="M157.067 231.664H175.397V223.918H157.067V231.664Z" fill="#EBEBEB"/>
<path d="M142.122 44.343L151.239 44.1699L155.849 44.0938C157.393 44.0938 158.937 44.0938 160.487 44.0938H160.792V44.4053L160.826 52.1514V52.4975H160.48L151.315 52.456C148.255 52.456 145.203 52.3798 142.15 52.3383H141.956V52.1514C141.956 50.8361 142.018 49.5278 142.046 48.2402L142.122 44.343ZM142.122 44.343L142.226 48.261C142.226 49.5486 142.302 50.8223 142.316 52.0891L142.129 51.9022C145.182 51.9022 148.235 51.7914 151.294 51.7914L160.46 51.743L160.113 52.0891L160.148 44.343L160.46 44.6545C158.944 44.6545 157.441 44.6545 155.925 44.6129L151.37 44.5368L142.122 44.343Z" fill="#EBEBEB"/>
<path d="M50.5322 224.15H27.3007L14.0098 157.868L35.2753 148.094L50.5322 224.15Z" fill="#DBDBDB"/>
<path d="M117.029 224.15H50.533L35.2761 148.094H101.772L117.029 224.15Z" fill="#EBEBEB"/>
<path d="M38.6056 188.598H3.00391V261.649H38.6056V188.598Z" fill="#DBDBDB"/>
<path d="M134.113 261.649H124.387L109.892 188.598H134.113V261.649Z" fill="#DBDBDB"/>
<path d="M58.1681 188.598H38.6055V261.649H58.1681V188.598Z" fill="#EBEBEB"/>
<path d="M153.676 188.598H134.114V261.649H153.676V188.598Z" fill="#EBEBEB"/>
<path d="M134.113 224.152H58.168V261.637H134.113V224.152Z" fill="#EBEBEB"/>
<path d="M134.113 207.945H58.168V224.303H134.113V207.945Z" fill="#EBEBEB"/>
<path d="M43.4019 188.592L50.788 188.46L58.1673 188.363H58.3888V188.592L58.4788 197.155V205.704C58.4788 211.401 58.5203 217.098 58.4788 222.802C58.4372 228.506 58.4788 234.196 58.3819 239.9C58.2849 245.604 58.2573 251.295 58.1326 256.999C58.0127 251.295 57.9319 245.595 57.8904 239.9C57.8142 234.196 57.8073 228.499 57.7865 222.802C57.7658 217.105 57.7865 211.401 57.7865 205.704V197.155L57.8696 188.606L58.0911 188.827L50.7119 188.737L43.4019 188.592Z" fill="#DBDBDB"/>
<path d="M134.113 188.598C134.265 194.316 134.334 200.033 134.397 205.758L134.48 222.919L134.397 240.079L134.293 248.663L134.113 257.24L133.933 248.663L133.829 240.079L133.746 222.919L133.829 205.758C133.891 200.033 133.933 194.316 134.113 188.598Z" fill="#DBDBDB"/>
<path d="M134.113 224.148C127.786 224.3 121.459 224.37 115.125 224.432L96.1441 224.515L77.1699 224.432L67.6793 224.328L58.168 224.148L67.6655 223.968L77.156 223.864L96.1441 223.781L115.125 223.864C121.473 223.927 127.786 223.996 134.113 224.148Z" fill="#DBDBDB"/>
<path d="M134.114 207.953C127.787 208.105 121.459 208.174 115.126 208.237L96.1444 208.32L77.1702 208.237L67.6796 208.133L58.1821 207.953L67.6796 207.773L77.1702 207.669L96.1582 207.586L115.139 207.669C121.473 207.731 127.787 207.801 134.114 207.953Z" fill="#DBDBDB"/>
<path d="M16.5366 261.633L16.0521 267.551L14.9306 281.23H9.77347L8.65205 267.551L8.16748 261.633H16.5366Z" fill="#C7C7C7"/>
<path d="M8.16748 261.633H16.5366L16.0521 267.551H8.65205L8.16748 261.633Z" fill="#A6A6A6"/>
<path d="M52.5747 261.633L52.0901 267.551L50.9687 281.23H45.8116L44.6901 267.551L44.2056 261.633H52.5747Z" fill="#C7C7C7"/>
<path d="M44.2056 261.633H52.5747L52.0901 267.551H44.6901L44.2056 261.633Z" fill="#A6A6A6"/>
<path d="M112.342 261.633L111.865 267.551L110.743 281.23H105.586L104.465 267.551L103.98 261.633H112.342Z" fill="#C7C7C7"/>
<path d="M103.98 261.633H112.342L111.865 267.551H104.465L103.98 261.633Z" fill="#A6A6A6"/>
<path d="M148.394 261.633L147.909 267.551L146.788 281.23H141.631L140.509 267.551L140.025 261.633H148.394Z" fill="#C7C7C7"/>
<path d="M148.394 261.633L147.909 267.551H140.509L140.025 261.633H148.394Z" fill="#A6A6A6"/>
<path d="M135.954 48.2969H17.1313V53.3987H135.954V48.2969Z" fill="#EBEBEB"/>
<path d="M34.4105 73.4801H29.7794L27.9242 53.3983H34.4105V73.4801Z" fill="#EBEBEB"/>
<path d="M118.676 73.4801H123.307L125.162 53.3983H118.676V73.4801Z" fill="#EBEBEB"/>
<path d="M27.9242 53.3983H34.4035V60.3138H28.5611L27.9242 53.3983Z" fill="#DBDBDB"/>
<path d="M125.162 53.3983L124.525 60.3138H118.676V53.3983H125.162Z" fill="#DBDBDB"/>
<path d="M60.1619 17.6896C54.8871 24.8265 49.3907 33.0918 48.0547 42.0909C48.0543 42.1188 48.0637 42.1459 48.0814 42.1674C48.0991 42.189 48.1239 42.2035 48.1513 42.2085C48.1787 42.2135 48.207 42.2086 48.2312 42.1946C48.2553 42.1807 48.2737 42.1587 48.2831 42.1324C48.8912 39.6923 49.6708 37.2981 50.616 34.9678C54.0772 34.0125 57.483 33.2303 59.3035 29.7899C61.1241 26.3494 60.9234 21.6422 60.5703 17.7865C60.5565 17.558 60.2658 17.5511 60.1619 17.6896Z" fill="#EBEBEB"/>
<path d="M50.6712 34.8809C52.9901 29.4372 56.1147 24.3734 59.9402 19.8594L59.9818 19.9009C57.5616 23.0149 55.4365 26.3474 53.634 29.8553C55.3784 28.0831 57.289 26.491 58.9434 24.615C58.9434 24.615 59.0265 24.615 58.9988 24.6704C57.3582 26.6364 55.5376 28.7754 53.4609 30.2083C52.8887 31.2697 52.3072 32.3312 51.7165 33.3926C51.8618 33.3095 52.0141 33.2403 52.1595 33.1642V33.2057L51.668 33.448C51.3911 33.9464 51.1142 34.4517 50.8304 34.9501C50.775 35.0886 50.6158 34.9917 50.6712 34.8809Z" fill="#A6A6A6"/>
<path d="M52.4289 33.0239C53.846 32.2292 55.1999 31.3266 56.4785 30.3242C56.4785 30.3242 56.5616 30.3242 56.527 30.3727C55.2882 31.4453 53.9321 32.3742 52.4843 33.1416C52.4766 33.1453 52.4682 33.1473 52.4597 33.1477C52.4512 33.1481 52.4426 33.1469 52.4346 33.144C52.4266 33.1411 52.4192 33.1366 52.4129 33.1309C52.4066 33.1251 52.4014 33.1182 52.3978 33.1105C52.3942 33.1027 52.3921 33.0944 52.3917 33.0858C52.3913 33.0773 52.3926 33.0688 52.3954 33.0608C52.3983 33.0527 52.4028 33.0453 52.4085 33.039C52.4143 33.0327 52.4212 33.0276 52.4289 33.0239Z" fill="#A6A6A6"/>
<path d="M47.4725 41.9853C47.4725 42.096 47.6663 42.0891 47.6663 41.9853C47.6663 39.0363 47.6663 36.0736 47.7148 33.1108C48.4693 31.5879 50.0892 30.7434 51.2175 29.5181C52.0209 28.6258 52.7178 27.6432 53.2942 26.5899C54.6507 24.0724 55.4798 21.3048 55.7309 18.4562C56.0424 15.2996 54.8448 4.89524 53.5157 5.25521C52.8235 5.44211 50.5945 10.5993 50.0061 12.3022C49.0528 15.1128 48.3576 18.0045 47.9294 20.9413C46.8564 27.8775 46.9464 35.0006 47.4725 41.9853Z" fill="#EBEBEB"/>
<path d="M47.4518 29.2651C47.7321 25.5151 48.3319 21.7958 49.2447 18.1478C50.0892 14.2436 51.0791 10.5747 53.0866 7.072C53.0866 7.00278 53.2181 7.072 53.1835 7.12738C51.8466 9.83227 50.8112 12.676 50.0961 15.6073C50.2346 15.3996 50.3938 15.1989 50.5322 14.9981C50.5876 14.922 50.7191 14.9981 50.6638 15.0743C50.4866 15.3899 50.2778 15.6868 50.0408 15.9603C49.3485 18.7293 48.8501 21.5951 48.4278 24.4402L48.5248 24.3295C48.5248 24.3295 48.5801 24.3295 48.5663 24.3295L48.4002 24.6133C48.1856 26.0531 47.9848 27.493 47.7841 28.919C50.4213 26.8057 52.485 24.0635 53.7858 20.9444C52.6878 24.2707 50.562 27.1624 47.7148 29.2028C47.6664 29.5905 47.611 29.9712 47.5556 30.3588C47.5556 30.435 47.4172 30.4142 47.4172 30.3588C47.4172 30.0196 47.4172 29.6666 47.4172 29.3343C47.4162 29.3207 47.4189 29.3072 47.425 29.295C47.4311 29.2828 47.4404 29.2725 47.4518 29.2651Z" fill="#A6A6A6"/>
<path d="M48.6635 23.8663C50.6708 21.0273 52.4221 18.0158 53.8969 14.8672C53.8969 14.8672 53.9799 14.8672 53.9661 14.8672C52.801 18.1796 51.0469 21.254 48.7881 23.9424C48.7831 23.9506 48.7766 23.9577 48.7688 23.9634C48.7611 23.969 48.7523 23.9731 48.743 23.9753C48.7337 23.9776 48.724 23.978 48.7145 23.9765C48.705 23.975 48.696 23.9716 48.6878 23.9666C48.6796 23.9616 48.6725 23.9551 48.6668 23.9473C48.6612 23.9396 48.6571 23.9308 48.6549 23.9215C48.6526 23.9121 48.6522 23.9025 48.6537 23.893C48.6552 23.8835 48.6585 23.8744 48.6635 23.8663Z" fill="#A6A6A6"/>
<path d="M51.2741 14.12C52.0909 12.6801 52.9423 11.2818 53.7107 9.81426C53.7107 9.77272 53.7869 9.81426 53.773 9.84887C53.1445 11.3812 52.3482 12.8391 51.3987 14.1961C51.3865 14.2071 51.371 14.2139 51.3547 14.2154C51.3383 14.2169 51.3219 14.2131 51.3079 14.2046C51.2939 14.196 51.283 14.1831 51.2769 14.1679C51.2708 14.1527 51.2698 14.1358 51.2741 14.12Z" fill="#A6A6A6"/>
<path d="M46.0184 34.4294C45.9793 36.3857 45.7474 38.3334 45.3261 40.2442C45.3261 40.4518 45.3884 40.6595 45.4161 40.881C46.0184 38.7699 46.3693 36.5951 46.4614 34.4017C46.4767 34.3704 46.4846 34.3361 46.4846 34.3013C46.4846 34.2665 46.4767 34.2322 46.4614 34.2009C46.5454 31.2628 46.3274 28.3239 45.8107 25.4303C44.8969 20.0101 42.9033 14.8045 39.1237 10.748C39.092 10.7215 39.0549 10.7025 39.0149 10.6923C38.975 10.682 38.9332 10.6808 38.8928 10.6888C38.8523 10.6968 38.8141 10.7137 38.781 10.7383C38.7479 10.7629 38.7207 10.7946 38.7014 10.831C37.1785 14.7076 37.7115 19.3386 39.0129 23.2082C39.7171 25.3042 40.7271 27.2846 42.0103 29.0853C43.3256 30.899 44.98 32.4427 46.0184 34.4294Z" fill="#EBEBEB"/>
<path d="M39.5872 12.5582C43.1729 18.373 45.665 25.2607 45.9696 32.1277C45.9696 32.2523 45.7688 32.2869 45.7481 32.1623C45.665 31.5462 45.575 30.9301 45.4712 30.321C43.9165 28.9417 42.5503 27.3637 41.4077 25.6276C41.4077 25.6276 41.4077 25.5584 41.4631 25.6276C42.6943 27.1333 44.0118 28.5663 45.4089 29.9195C45.1504 28.4058 44.8435 26.9105 44.4882 25.4338C44.3913 25.3299 44.3013 25.2123 44.2044 25.1015C44.1075 24.9907 44.2459 24.9215 44.3082 24.9977L44.3982 25.0946C43.8946 23.0761 43.2681 21.0903 42.5222 19.1483C41.527 18.1342 40.6535 17.0074 39.9194 15.7909C39.9194 15.7909 39.9194 15.7286 39.9679 15.7909C40.4838 16.5503 41.0383 17.2827 41.6293 17.9853C41.8646 18.2622 42.1346 18.5253 42.3838 18.7952C41.5566 16.6885 40.5756 14.6455 39.4487 12.6828C39.4322 12.6644 39.4236 12.6402 39.4249 12.6156C39.4262 12.5909 39.4373 12.5678 39.4556 12.5513C39.474 12.5347 39.4982 12.5262 39.5228 12.5275C39.5475 12.5288 39.5706 12.5398 39.5872 12.5582Z" fill="#A6A6A6"/>
<path d="M40.3149 19.7286C41.471 21.2862 42.7931 22.7745 43.8661 24.3805C43.8661 24.4289 43.8661 24.4774 43.79 24.4428C42.4205 23.0356 41.2279 21.4664 40.2388 19.7702C40.2042 19.7217 40.2803 19.6802 40.3149 19.7286Z" fill="#A6A6A6"/>
<path d="M44.0322 24.7365L44.0806 24.7919C44.0806 24.7919 44.0806 24.875 44.0252 24.8404L43.9768 24.785C43.9422 24.785 43.9975 24.7088 44.0322 24.7365Z" fill="#A6A6A6"/>
<path d="M33.4269 22.2543C33.845 25.5022 35.153 28.5711 37.2065 31.1219C38.0483 32.1248 39.0905 32.9406 40.2662 33.517C41.5953 34.1747 42.9867 34.9015 44.3573 35.4691C45.0104 37.1314 45.4973 38.8543 45.811 40.6125C45.8525 40.4602 45.8941 40.3079 45.9425 40.1556C45.0565 32.5825 40.1624 26.1101 33.8907 21.9567C33.8418 21.926 33.7851 21.9099 33.7273 21.9102C33.6695 21.9105 33.613 21.9272 33.5644 21.9584C33.5158 21.9896 33.477 22.034 33.4527 22.0864C33.4283 22.1388 33.4194 22.1971 33.4269 22.2543Z" fill="#EBEBEB"/>
<path d="M35.725 27.1172C35.809 27.1702 35.8899 27.228 35.9673 27.2902C35.9673 27.2902 35.9673 27.3387 35.9673 27.3318C35.8805 27.2901 35.7972 27.2415 35.7181 27.1864C35.7127 27.1821 35.7085 27.1765 35.7059 27.1701C35.7032 27.1637 35.7022 27.1568 35.7028 27.1499C35.7035 27.1431 35.7059 27.1365 35.7098 27.1307C35.7137 27.125 35.7189 27.1204 35.725 27.1172Z" fill="#A6A6A6"/>
<path d="M53.6475 48.2993H40.7373L41.3742 39.8401L41.6164 37.0781H52.6507L52.8999 39.8401L53.6475 48.2993Z" fill="#DBDBDB"/>
<path d="M52.9003 39.8401H41.3745L41.6168 37.0781H52.651L52.9003 39.8401Z" fill="#C7C7C7"/>
<path d="M53.5298 34.8086H40.7373V37.6398H53.5298V34.8086Z" fill="#DBDBDB"/>
<path d="M85.0063 48.2722V17.5508H77.2671V48.2722H85.0063Z" fill="#C7C7C7"/>
<path d="M85.0132 19.2883V15.9102H77.274V19.2883H85.0132Z" fill="#DBDBDB"/>
<path d="M85.0063 24.8623V23.6094H77.2671V24.8623H85.0063Z" fill="#DBDBDB"/>
<path d="M85.0063 44.2492V40.8711H77.2671V44.2492H85.0063Z" fill="#DBDBDB"/>
<path d="M90.4121 48.2785V12.4414H85.0057V48.2785H90.4121Z" fill="#DBDBDB"/>
<path d="M89.3105 29.5949V15.8125H86.064V29.5949H89.3105Z" fill="#EBEBEB"/>
<path d="M128.914 44.4013L103.428 19.207L99.6269 23.0519L125.113 48.2461L128.914 44.4013Z" fill="#C7C7C7"/>
<path d="M122.189 39.2401L112.388 29.5508L110.105 31.8597L119.907 41.549L122.189 39.2401Z" fill="#DBDBDB"/>
<path d="M99.5977 48.2851V21.0664H90.4186V48.2851H99.5977Z" fill="#A6A6A6"/>
<path d="M99.5908 45.3969V42.8633H90.4118V45.3969H99.5908Z" fill="#C7C7C7"/>
<path d="M99.5977 41.1978V40.2148H90.4186V41.1978H99.5977Z" fill="#C7C7C7"/>
<path d="M67.6373 48.6803L77.6128 25.1484L71.7792 22.6755L61.8037 46.2074L67.6373 48.6803Z" fill="#A6A6A6"/>
<path d="M68.3005 45.8132L69.2397 43.625L63.4129 41.124L62.4737 43.3122L68.3005 45.8132Z" fill="#C7C7C7"/>
<path d="M74.3054 31.8289L75.2446 29.6406L69.4178 27.1396L68.4786 29.3279L74.3054 31.8289Z" fill="#C7C7C7"/>
<path d="M73.2972 34.1883L73.6631 33.3359L67.8363 30.8349L67.4704 31.6873L73.2972 34.1883Z" fill="#C7C7C7"/>
<path d="M269.681 197.566H201.987V281.237H269.681V197.566Z" fill="#EBEBEB"/>
<path d="M272.955 194.082H198.706V197.557H272.955V194.082Z" fill="#DBDBDB"/>
<path d="M296.312 194.082H272.962V197.557H296.312V194.082Z" fill="#EBEBEB"/>
<path d="M292.614 197.566H269.681V281.237H292.614V197.566Z" fill="#DBDBDB"/>
<path d="M262.391 236.412H209.276V206.383H262.391V236.412ZM209.449 236.239H262.218V206.556H209.449V236.239Z" fill="#C7C7C7"/>
<path d="M238.766 215.164H228.424V221.11H238.766V215.164Z" fill="#C7C7C7"/>
<path d="M241.922 220.739H231.393V215.52H241.922V220.739ZM231.538 220.566H241.707V215.72H231.538V220.566Z" fill="#C7C7C7"/>
<path d="M262.391 274.123H209.276V244.094H262.391V274.123ZM209.449 273.95H262.218V244.267H209.449V273.95Z" fill="#C7C7C7"/>
<path d="M238.766 252.875H228.424V258.821H238.766V252.875Z" fill="#C7C7C7"/>
<path d="M241.922 258.453H231.393V253.227H241.922V258.453ZM231.538 258.28H241.707V253.434H231.538V258.28Z" fill="#C7C7C7"/>
<path d="M296.651 281.237L259.575 281.403L222.492 281.465L148.326 281.583L74.1593 281.465L37.0831 281.403L0 281.237L37.0831 281.064L74.1593 281.008L148.326 280.891L222.492 281.008L259.575 281.064L296.651 281.237Z" fill="#263238"/>
<path d="M279.228 281.237H283.195L255.415 134.441H245.537L279.228 281.237Z" fill="#455A64"/>
<path d="M245.537 134.441L250.521 156.15H259.52L255.422 134.462L255.415 134.441H245.537Z" fill="#37474F"/>
<path d="M238.703 281.237H242.669L241.783 134.441H231.912L238.703 281.237Z" fill="#455A64"/>
<path d="M231.912 134.441L232.916 156.15H241.915L241.783 134.462V134.441H231.912Z" fill="#37474F"/>
<path d="M202.147 281.237H198.187L220.055 134.441H229.933L202.147 281.237Z" fill="#455A64"/>
<path d="M216.822 156.15H225.821L229.933 134.441H220.055L220.048 134.462L216.822 156.15Z" fill="#37474F"/>
<path d="M210.281 221.211H267.923V218.345H210.281V221.211Z" fill="#455A64"/>
<path d="M296.335 80.072C298.359 39.1153 276.419 4.74757 247.33 3.30961C218.241 1.87166 193.019 33.908 190.994 74.8647C188.969 115.821 210.909 150.189 239.998 151.627C269.087 153.065 294.31 121.029 296.335 80.072Z" fill="#FFC727"/>
<path d="M235.824 2.57031L248.201 3.3387L238.773 151.553L226.389 150.785L235.824 2.57031Z" fill="#FFC727"/>
<g opacity="0.1">
<path d="M235.823 2.57812L248.201 3.34651L238.772 151.561L226.388 150.793L235.823 2.57812Z" fill="black"/>
</g>
<path d="M284.94 79.365C286.964 38.4083 265.024 4.04055 235.935 2.6026C206.846 1.16464 181.624 33.2009 179.599 74.1577C177.574 115.114 199.514 149.482 228.603 150.92C257.692 152.358 282.915 120.322 284.94 79.365Z" fill="#FFC727"/>
<path d="M273.359 78.7878C274.939 46.8388 257.823 20.0296 235.13 18.9078C212.436 17.786 192.76 42.7764 191.18 74.7254C189.601 106.674 206.717 133.484 229.41 134.605C252.103 135.727 271.78 110.737 273.359 78.7878Z" fill="white"/>
<path d="M261.888 78.2245C263.027 55.1877 250.689 35.8572 234.331 35.0486C217.973 34.2399 203.789 52.2594 202.65 75.2961C201.511 98.3329 213.849 117.663 230.207 118.472C246.565 119.281 260.75 101.261 261.888 78.2245Z" fill="#FFC727"/>
<path d="M250.301 77.6457C250.994 63.6205 243.483 51.8518 233.525 51.3595C223.566 50.8672 214.931 61.8378 214.238 75.863C213.544 89.8882 221.055 101.657 231.014 102.149C240.972 102.641 249.607 91.6709 250.301 77.6457Z" fill="white"/>
<path d="M240.276 75.3182C240.705 81.5483 237.465 87.1901 233.035 88C228.605 88.8099 224.68 84.4557 224.257 78.2602C223.835 72.0647 227.068 66.3883 231.491 65.5715C235.915 64.7547 239.846 69.0881 240.276 75.3182Z" fill="#FFC727"/>
<path opacity="0.4" d="M284.94 79.365C286.964 38.4083 265.024 4.04055 235.935 2.6026C206.846 1.16464 181.624 33.2009 179.599 74.1577C177.574 115.114 199.514 149.482 228.603 150.92C257.692 152.358 282.915 120.322 284.94 79.365Z" fill="white"/>
<path d="M182.558 240.078C182.797 234.03 182.714 227.974 182.309 221.935C181.417 209.479 179.516 197.117 176.625 184.969C175.04 178.13 173.088 171.401 171.053 164.687C170.991 164.479 170.672 164.541 170.728 164.749C177.013 188.43 182.177 212.873 181.803 237.489C181.707 244.412 180.91 251.147 180.253 257.993C180.253 258.18 180.537 258.249 180.578 258.062C181.893 252.234 182.316 246.094 182.558 240.078Z" fill="#FFC727"/>
<path d="M170.728 164.781C170.728 164.781 161.195 188.968 163.328 194.651C165.46 200.335 169.862 201.574 169.862 201.574C169.862 201.574 164.034 209.88 168.104 217.703C172.174 225.525 181.256 225.144 181.831 233.991C181.831 233.963 182.336 196.956 170.728 164.781Z" fill="#FFC727"/>
<path d="M180.8 218.683C180.813 218.64 180.813 218.594 180.8 218.552C179.547 202.041 176.447 185.722 171.558 169.901C171.558 169.86 171.468 169.901 171.482 169.901C173.365 176.976 175.033 184.088 176.487 191.236C175.207 190.024 173.643 189.153 171.939 188.702C171.905 188.702 171.891 188.737 171.939 188.751C173.731 189.408 175.34 190.483 176.632 191.887C176.916 193.271 177.186 194.656 177.442 196.096C175.317 193.714 172.361 192.537 169.406 191.416C169.364 191.416 169.343 191.464 169.406 191.478C172.486 192.731 175.546 194.344 177.636 197.016C178.361 201.031 178.998 205.058 179.547 209.096C178.007 207.485 176.033 206.354 173.864 205.842C173.801 205.842 173.76 205.925 173.829 205.946C176.066 206.59 178.068 207.872 179.588 209.636H179.63C179.817 211.055 179.997 212.481 180.163 213.9C178.971 212.894 177.628 212.083 176.183 211.498C176.148 211.498 176.127 211.546 176.183 211.56C177.657 212.199 179.007 213.095 180.17 214.204C180.188 214.211 180.207 214.211 180.225 214.204C180.377 215.589 180.537 216.918 180.675 218.275C178.529 215.682 175.745 213.692 172.597 212.502C172.584 212.497 172.57 212.498 172.557 212.503C172.545 212.509 172.536 212.52 172.531 212.533C172.526 212.546 172.527 212.56 172.533 212.572C172.539 212.584 172.549 212.594 172.562 212.598C175.671 213.972 178.402 216.076 180.523 218.732C180.546 218.761 180.578 218.783 180.614 218.794C180.649 218.805 180.688 218.805 180.724 218.794C180.931 220.871 181.118 222.947 181.27 225.024C181.27 225.024 181.319 225.059 181.319 225.024C181.118 222.954 181.007 220.815 180.8 218.683Z" fill="#263238"/>
<path d="M173.144 186.317C171.418 185.245 169.448 184.63 167.419 184.531C167.41 184.531 167.401 184.535 167.394 184.541C167.388 184.548 167.384 184.557 167.384 184.566C167.384 184.575 167.388 184.584 167.394 184.59C167.401 184.597 167.41 184.6 167.419 184.6C169.379 184.968 171.282 185.59 173.081 186.449C173.151 186.483 173.213 186.366 173.144 186.317Z" fill="#263238"/>
<path d="M174.3 211.931C172.974 211.171 171.515 210.671 170.001 210.457C169.946 210.457 169.946 210.533 170.001 210.54C171.48 210.835 172.911 211.336 174.251 212.028C174.307 212.056 174.355 211.959 174.3 211.931Z" fill="#263238"/>
<path d="M207.603 195.039C203.576 197.825 199.877 201.058 196.576 204.675C193.175 208.507 190.549 212.962 188.843 217.793C185.224 227.866 183.278 238.464 183.084 249.165C182.958 255.091 183.527 261.011 184.78 266.803C184.788 266.848 184.814 266.887 184.851 266.912C184.888 266.937 184.933 266.947 184.977 266.938C185.021 266.93 185.06 266.905 185.086 266.868C185.111 266.831 185.12 266.785 185.112 266.741C183.553 256.518 183.612 246.114 185.285 235.909C186.919 225.899 189.494 215.017 195.849 206.883C199.31 202.46 203.63 198.978 207.901 195.379C208.122 195.185 207.838 194.873 207.603 195.039Z" fill="#FFC727"/>
<path d="M184.469 241.962C186.764 238.252 189.461 234.807 192.513 231.69C197.275 226.92 201.29 223.535 201.913 220.385C202.536 217.236 197.137 214.91 197.137 214.91C197.137 214.91 203.734 216.094 205.534 213.325C207.333 210.556 208.212 194.523 208.212 194.523C208.212 194.523 196.237 203.093 190.637 215.104C185.036 227.114 184.469 241.962 184.469 241.962Z" fill="#FFC727"/>
<path d="M203.941 209.562C203.15 209.448 202.349 209.42 201.553 209.479C201.534 209.485 201.517 209.496 201.505 209.512C201.494 209.527 201.487 209.546 201.487 209.566C201.487 209.585 201.494 209.604 201.505 209.62C201.517 209.636 201.534 209.647 201.553 209.652C202.342 209.652 203.138 209.611 203.927 209.652C203.937 209.65 203.946 209.645 203.952 209.638C203.959 209.631 203.964 209.622 203.965 209.612C203.967 209.602 203.965 209.592 203.961 209.583C203.957 209.574 203.95 209.567 203.941 209.562Z" fill="#263238"/>
<path d="M195.302 225.117C194.036 225.148 192.785 225.398 191.605 225.858C191.605 225.858 191.605 225.92 191.605 225.913C192.831 225.623 194.063 225.505 195.302 225.297C195.326 225.297 195.349 225.288 195.366 225.271C195.383 225.254 195.392 225.231 195.392 225.207C195.392 225.183 195.383 225.16 195.366 225.144C195.349 225.127 195.326 225.117 195.302 225.117Z" fill="#263238"/>
<path d="M192.713 219.743C192.186 219.737 191.66 219.783 191.142 219.881C191.093 219.881 191.093 219.978 191.142 219.978C191.667 220.005 192.193 219.979 192.713 219.902C192.81 219.888 192.81 219.743 192.713 219.743Z" fill="#263238"/>
<path d="M149.311 212.055C153.215 213.378 156.956 215.14 160.462 217.309C164.102 219.621 167.257 222.619 169.752 226.135C175.021 233.447 179.057 241.573 181.7 250.19C183.167 254.958 184.075 259.881 184.407 264.859C184.4 264.891 184.382 264.92 184.356 264.941C184.33 264.961 184.298 264.973 184.265 264.973C184.232 264.973 184.2 264.961 184.174 264.941C184.148 264.92 184.13 264.891 184.123 264.859C183.017 256.223 180.564 247.814 176.855 239.938C173.213 232.22 168.624 224.017 161.625 218.894C157.797 216.125 153.499 214.291 149.214 212.366C148.923 212.29 149.082 211.979 149.311 212.055Z" fill="#FFC727"/>
<path d="M178.869 244.682C176.155 242.211 173.176 240.048 169.987 238.231C165.024 235.462 160.988 233.662 159.763 231.253C158.538 228.844 162.366 225.715 162.366 225.715C162.366 225.715 157.298 228.193 155.201 226.373C153.103 224.552 148.687 211.773 148.687 211.773C148.687 211.773 160.379 215.927 167.682 224.365C174.985 232.804 178.869 244.682 178.869 244.682Z" fill="#FFC727"/>
<path d="M158.96 219.565C158.437 219.529 157.911 219.56 157.396 219.655C157.383 219.655 157.37 219.661 157.361 219.67C157.352 219.679 157.347 219.691 157.347 219.704C157.347 219.717 157.352 219.729 157.361 219.738C157.37 219.747 157.383 219.752 157.396 219.752C157.908 219.697 158.413 219.718 158.932 219.704C158.951 219.708 158.97 219.704 158.985 219.693C159.001 219.683 159.012 219.667 159.015 219.649C159.019 219.63 159.015 219.611 159.005 219.596C158.995 219.58 158.978 219.569 158.96 219.565Z" fill="#263238"/>
<path d="M193.945 280.977H167.557L171.316 253.412L172.278 246.351H189.217L190.179 253.412L193.945 280.977Z" fill="#455A64"/>
<path d="M190.179 253.412H171.316L172.278 246.351H189.217L190.179 253.412Z" fill="#263238"/>
<path d="M191.64 243.895H169.855V249.882H191.64V243.895Z" fill="#455A64"/>
<path d="M192.048 62.1506L8.45068 72.9297L10.3937 106.024L193.991 95.2448L192.048 62.1506Z" fill="#FFC727"/>
<path d="M191.515 53.1016L194.519 104.286L231.713 76.423L191.515 53.1016Z" fill="#FFC727"/>
<g opacity="0.5">
<path d="M231.713 76.423L194.519 104.279L193.986 95.2449L10.391 106.023L8.4458 72.9272L192.041 62.1491L191.508 53.1016L231.713 76.423Z" fill="white"/>
<path d="M8.7641 107.861L6.61816 71.3109L190.206 60.5328L189.597 50.0039L234.849 76.2466L192.975 107.605L192.359 97.0829L8.7641 107.861ZM10.2732 74.5645L12.0176 104.206L195.613 93.4141L196.056 100.966L228.591 76.6066L193.425 56.2202L193.868 63.7794L10.2732 74.5645Z" fill="#FFC727"/>
</g>
<path d="M101.973 245.938C101.973 245.938 101.281 273.357 101.281 273.378C101.281 278.445 101.405 282.889 101.675 285.146V285.187C101.684 285.731 101.814 286.265 102.056 286.752C103.572 287.769 144.082 288.828 145.508 288.385C146.934 287.942 145.792 283.844 144.255 282.55C142.718 281.255 127.399 274.001 127.399 274.001L127.842 246.595L101.973 245.938Z" fill="#EB9481"/>
<path d="M101.233 267.938C101.233 267.938 101.281 273.358 101.274 273.378C101.274 278.446 101.399 282.89 101.669 285.147V285.188C101.738 285.722 101.865 286.247 102.05 286.753C103.566 287.77 144.075 288.829 145.501 288.386C146.927 287.943 145.785 283.845 144.248 282.551C142.712 281.256 127.399 274.001 127.399 274.001V268.464L101.233 267.938Z" fill="white"/>
<path d="M129.877 274C127.184 273.557 123.903 274.041 121.888 276C121.812 276.076 121.923 276.18 122.006 276.152C124.557 275.269 127.196 274.661 129.877 274.339C129.916 274.331 129.951 274.31 129.976 274.279C130.002 274.248 130.015 274.209 130.015 274.169C130.015 274.129 130.002 274.091 129.976 274.06C129.951 274.029 129.916 274.008 129.877 274Z" fill="#263238"/>
<path d="M131.857 275.121C129.157 274.678 125.883 275.162 123.869 277.114C123.793 277.191 123.903 277.301 123.986 277.274C126.538 276.39 129.176 275.782 131.857 275.46C131.896 275.452 131.931 275.431 131.957 275.4C131.982 275.369 131.996 275.33 131.996 275.29C131.996 275.25 131.982 275.212 131.957 275.181C131.931 275.15 131.896 275.129 131.857 275.121Z" fill="#263238"/>
<path d="M133.808 276.247C131.109 275.804 127.834 276.281 125.82 278.24C125.744 278.316 125.82 278.427 125.938 278.399C128.486 277.515 131.123 276.907 133.801 276.586C133.841 276.579 133.876 276.558 133.902 276.528C133.928 276.497 133.943 276.459 133.944 276.419C133.944 276.379 133.931 276.34 133.907 276.309C133.882 276.277 133.847 276.255 133.808 276.247Z" fill="#263238"/>
<path d="M145.529 288.443C144.103 288.879 103.593 287.827 102.077 286.809C101.495 286.435 101.302 280.524 101.281 273.373V273.145L127.42 273.532V273.975C127.42 273.975 142.746 281.313 144.296 282.614C145.847 283.916 146.955 288.007 145.529 288.443Z" fill="#37474F"/>
<path d="M101.274 273.145V273.373C101.309 280.524 101.495 286.435 102.077 286.809C102.769 287.273 111.547 287.744 121.03 288.083C132.39 288.485 144.753 288.685 145.529 288.443C146.955 288.007 145.806 283.902 144.276 282.607C142.746 281.313 127.399 273.996 127.399 273.996V273.56L118.704 273.408L101.274 273.145Z" fill="#FFC727"/>
<path d="M145.106 286.859C138.288 286.513 110.73 285.766 103.96 285.946C103.904 285.946 103.904 285.987 103.96 285.987C110.716 286.479 138.274 287.005 145.106 286.97C145.251 286.97 145.251 286.866 145.106 286.859Z" fill="#263238"/>
<path opacity="0.1" d="M118.705 273.41C119.342 277.785 120.318 284.237 121.031 288.086C132.391 288.487 144.754 288.688 145.529 288.446C146.955 288.009 145.806 283.904 144.276 282.61C142.746 281.316 127.4 273.999 127.4 273.999V273.562L118.705 273.41Z" fill="black"/>
<path d="M98.9199 273.518L128.236 273.802C128.236 273.802 129.898 226.037 130.022 210.157C130.167 191.972 129.136 137.473 129.136 137.473H107.22C107.22 137.473 101.343 149.497 104.7 163.016L105.628 211.673L98.9199 273.518Z" fill="#263238"/>
<path d="M101.094 268.394C101.867 268.29 102.646 268.228 103.427 268.207C104.292 268.145 105.157 268.083 106.023 268.048C107.691 267.972 109.359 267.944 111.027 267.938C114.399 267.938 117.763 267.938 121.127 268.055C123.045 268.117 124.955 268.194 126.866 268.304C126.942 268.304 126.935 268.422 126.866 268.422C123.529 268.547 120.186 268.595 116.849 268.664C113.513 268.734 110.176 268.789 106.846 268.727C105.884 268.727 104.929 268.727 103.974 268.644C103.018 268.561 102.042 268.644 101.108 268.505C101.052 268.498 101.025 268.408 101.094 268.394Z" fill="#37474F"/>
<path d="M126.125 242.037C126.464 234.145 126.72 226.247 126.935 218.355C127.364 202.559 127.477 186.759 127.274 170.958C127.163 162.097 126.928 153.237 126.665 144.376C126.665 144.272 126.81 144.279 126.817 144.376C127.655 160.235 127.98 176.129 127.994 192.009C128.008 207.889 127.703 223.616 126.9 239.379C126.464 248.232 125.924 257.1 125.093 265.926C125.093 266.002 124.969 266.002 124.969 265.926C125.329 257.972 125.779 250.011 126.125 242.037Z" fill="#37474F"/>
<path d="M133.332 250.289C133.332 250.289 133.553 276.795 133.553 276.816C133.553 281.883 133.671 286.327 133.941 288.618C133.936 288.629 133.936 288.642 133.941 288.653C133.941 289.197 134.072 289.734 134.321 290.217C134.319 290.229 134.319 290.241 134.321 290.252C135.831 291.269 176.34 292.329 177.766 291.879C179.192 291.429 178.057 287.344 176.513 286.05C174.97 284.756 159.637 277.418 159.637 277.418L159.166 250.926L133.332 250.289Z" fill="#EB9481"/>
<path d="M133.504 271.375C133.504 271.375 133.553 276.802 133.553 276.823C133.553 281.89 133.671 286.334 133.94 288.626C133.936 288.637 133.936 288.649 133.94 288.66C134.004 289.195 134.132 289.72 134.321 290.225C134.318 290.236 134.318 290.248 134.321 290.259C135.83 291.277 176.34 292.336 177.766 291.886C179.192 291.436 178.057 287.352 176.513 286.057C174.969 284.763 159.636 277.425 159.636 277.425L159.671 271.887L133.504 271.375Z" fill="white"/>
<path d="M162.155 277.454C159.455 277.011 156.181 277.488 154.167 279.447C154.091 279.523 154.167 279.634 154.284 279.606C156.833 278.722 159.47 278.114 162.148 277.793C162.188 277.786 162.223 277.765 162.249 277.735C162.275 277.704 162.29 277.666 162.291 277.626C162.291 277.586 162.278 277.547 162.254 277.516C162.229 277.484 162.194 277.462 162.155 277.454Z" fill="#263238"/>
<path d="M164.122 278.559C161.422 278.116 158.148 278.594 156.134 280.553C156.057 280.629 156.134 280.74 156.251 280.712C158.8 279.828 161.436 279.22 164.115 278.898C164.154 278.891 164.19 278.871 164.216 278.84C164.242 278.81 164.256 278.771 164.257 278.732C164.258 278.692 164.245 278.653 164.22 278.621C164.196 278.59 164.161 278.568 164.122 278.559Z" fill="#263238"/>
<path d="M166.088 279.684C163.388 279.241 160.107 279.684 158.1 281.678C158.016 281.754 158.099 281.865 158.217 281.837C160.766 280.953 163.402 280.345 166.081 280.024C166.12 280.016 166.156 279.996 166.182 279.966C166.208 279.935 166.222 279.897 166.223 279.857C166.224 279.817 166.211 279.778 166.186 279.746C166.162 279.715 166.127 279.693 166.088 279.684Z" fill="#263238"/>
<path d="M177.8 291.881C176.374 292.324 135.871 291.272 134.355 290.255C133.774 289.874 133.58 283.962 133.552 276.818C133.552 276.742 133.552 276.666 133.552 276.59L159.691 276.977V277.421C159.691 277.421 175.01 284.758 176.561 286.053C178.112 287.347 179.233 291.452 177.8 291.881Z" fill="#FFC727"/>
<path d="M177.385 290.301C170.559 289.955 143.008 289.207 136.231 289.387C136.183 289.387 136.176 289.387 136.231 289.428C142.988 289.92 170.552 290.439 177.385 290.411C177.544 290.411 177.544 290.308 177.385 290.301Z" fill="#263238"/>
<path d="M119.936 165.498C119.936 165.498 131.96 203.405 132.182 210.369C132.362 216.308 131.607 277.252 131.607 277.252L162.066 277.432C162.066 277.432 159.498 215.283 159.02 209.095C158.134 197.521 147.993 165.747 140.745 137.441H107.905C107.905 137.441 108.189 152.269 114.931 162.985C114.931 162.985 118.012 164.397 119.936 165.498Z" fill="#263238"/>
<path d="M133.241 271.64C136.758 271.536 140.406 271.433 143.922 271.523C147.439 271.613 150.914 271.661 154.396 271.869C156.369 271.986 158.341 272.056 160.314 272.249C160.377 272.249 160.377 272.353 160.314 272.353C156.798 272.561 153.267 272.519 149.751 272.485C146.234 272.45 142.766 272.416 139.277 272.256C137.297 272.166 135.332 272.069 133.359 271.931C133.123 271.924 133.013 271.647 133.241 271.64Z" fill="#37474F"/>
<path d="M137.125 143.804C138.212 147.425 151.662 197.107 153.046 204.32C154.431 211.533 156.307 258.896 156.175 266.49C156.175 267.431 156.141 268.372 156.106 269.314C156.106 269.332 156.099 269.35 156.086 269.363C156.073 269.376 156.055 269.383 156.037 269.383C156.018 269.383 156.001 269.376 155.988 269.363C155.975 269.35 155.968 269.332 155.968 269.314C155.76 261.769 153.745 212.066 152.451 204.666C151.24 197.397 137.838 148.013 136.903 143.86C136.903 143.834 136.912 143.808 136.928 143.787C136.944 143.767 136.967 143.752 136.992 143.746C137.018 143.739 137.045 143.742 137.069 143.752C137.093 143.763 137.112 143.781 137.125 143.804Z" fill="#37474F"/>
<path d="M127.468 166.231C125.952 166.22 124.44 166.083 122.947 165.822C121.467 165.5 120.004 165.101 118.565 164.625C117.149 164.304 115.713 164.073 114.267 163.933C112.811 163.721 111.393 163.298 110.058 162.68C109.996 162.68 109.947 162.742 110.009 162.77C111.302 163.467 112.652 164.053 114.045 164.521C115.485 164.978 116.994 165.04 118.462 165.4C119.941 165.84 121.446 166.187 122.968 166.439C124.469 166.622 125.988 166.594 127.481 166.355C127.544 166.321 127.523 166.231 127.468 166.231Z" fill="#37474F"/>
<path d="M129.385 196.39C129.094 195.261 128.824 194.14 128.52 193.018C127.904 190.755 127.281 188.491 126.595 186.248C125.211 181.79 123.951 177.305 122.518 172.874C121.701 170.355 120.967 167.814 120.012 165.343C120.007 165.33 119.998 165.319 119.986 165.314C119.973 165.308 119.959 165.307 119.946 165.312C119.933 165.316 119.923 165.326 119.917 165.338C119.911 165.35 119.911 165.364 119.915 165.377C120.4 167.676 121.078 169.925 121.687 172.189C122.296 174.453 122.947 176.709 123.605 178.966C124.899 183.438 126.173 187.924 127.592 192.368C127.984 193.614 128.395 194.855 128.824 196.092C129.26 197.352 129.606 198.653 130.133 199.878C130.167 199.948 130.257 199.92 130.243 199.878C130.043 198.681 129.683 197.539 129.385 196.39Z" fill="#37474F"/>
<path d="M132.985 100.721C130.783 101.012 126.99 97.0317 125.806 94.2143C126.02 92.7285 126.309 91.2545 126.671 89.7978C126.955 88.4134 127.232 86.8005 127.364 85.3398L136.3 88.5103C135.59 90.2901 135.1 92.1497 134.84 94.0482C134.826 94.2487 134.826 94.4499 134.84 94.6504C134.84 94.6504 134.84 94.7127 134.84 94.7543C134.937 95.8965 135.117 100.444 132.985 100.721Z" fill="#EB9481"/>
<path d="M125.897 93.4875C130.59 95.0658 133.989 92.4214 135.54 90.8016C135.921 89.4863 136.322 88.5103 136.322 88.5103L127.385 85.3398C127.233 86.8005 126.956 88.3857 126.693 89.7978C126.361 91.3485 126.042 92.6983 125.897 93.4875Z" fill="#263238"/>
<path d="M139.09 74.567C140.204 77.7928 138.827 87.2903 136.577 89.4778C133.324 92.6552 127.82 93.1466 125.079 89.194C122.428 85.359 124.442 73.0164 126.969 71.0089C130.686 68.0531 137.442 69.7837 139.09 74.567Z" fill="#EB9481"/>
<path d="M129.739 80.6172C129.739 80.6172 129.787 80.6518 129.781 80.6795C129.677 81.3163 129.67 82.064 130.224 82.3547C130.224 82.3547 130.224 82.3962 130.224 82.3547C129.517 82.2024 129.538 81.2056 129.739 80.6172Z" fill="#263238"/>
<path d="M130.395 80.0204C131.44 80.0688 131.254 82.1525 130.291 82.0971C129.329 82.0417 129.523 79.9719 130.395 80.0204Z" fill="#263238"/>
<path d="M126.125 80.2852C126.125 80.2852 126.07 80.2852 126.07 80.3336C126.07 80.9843 125.883 81.7181 125.281 81.8773V81.9188C126.001 81.8773 126.195 80.9012 126.125 80.2852Z" fill="#263238"/>
<path d="M125.627 79.5642C124.595 79.398 124.339 81.4678 125.288 81.6409C126.236 81.8139 126.471 79.7095 125.627 79.5642Z" fill="#263238"/>
<path d="M131.303 79.1365C131.026 79.0396 130.784 78.9012 130.521 78.7835C130.258 78.6658 129.967 78.562 129.829 78.2643C129.788 78.1759 129.777 78.0764 129.798 77.9813C129.82 77.8862 129.872 77.8008 129.946 77.7382C130.115 77.641 130.306 77.5898 130.5 77.5898C130.695 77.5898 130.886 77.641 131.054 77.7382C131.427 77.8805 131.733 78.1571 131.912 78.5135C131.949 78.5993 131.96 78.6942 131.943 78.7861C131.926 78.878 131.882 78.9627 131.817 79.0295C131.752 79.0963 131.668 79.1422 131.576 79.1613C131.485 79.1803 131.39 79.1717 131.303 79.1365Z" fill="#263238"/>
<path d="M124.893 78.4449C125.184 78.4449 125.454 78.3549 125.738 78.3065C126.043 78.2936 126.336 78.1846 126.575 77.995C126.634 77.9171 126.665 77.8224 126.665 77.725C126.665 77.6276 126.634 77.5329 126.575 77.455C126.44 77.3151 126.27 77.2137 126.083 77.1614C125.895 77.1091 125.697 77.1077 125.509 77.1574C125.11 77.198 124.74 77.3855 124.471 77.6835C124.412 77.7563 124.377 77.8449 124.369 77.9379C124.362 78.0309 124.381 78.1241 124.427 78.2057C124.472 78.2873 124.54 78.3536 124.623 78.3962C124.706 78.4388 124.8 78.4557 124.893 78.4449Z" fill="#263238"/>
<path d="M129.399 84.5445C129.215 84.7851 128.983 84.9846 128.717 85.13C128.451 85.2754 128.158 85.3637 127.856 85.3891C127.592 85.4274 127.324 85.4274 127.06 85.3891L126.914 85.3545L126.769 85.3198C126.737 85.3095 126.708 85.2892 126.688 85.2618C126.669 85.2344 126.658 85.2014 126.658 85.1676C126.655 85.1469 126.655 85.1259 126.658 85.1052V85.0222C126.693 84.5238 126.803 83.7762 126.803 83.7762C126.616 83.8523 125.654 84.1846 125.689 83.9284C125.946 81.6986 126.426 79.5001 127.122 77.366C127.126 77.3538 127.134 77.3432 127.145 77.3357C127.155 77.3282 127.168 77.3242 127.181 77.3242C127.194 77.3242 127.206 77.3282 127.217 77.3357C127.227 77.3432 127.235 77.3538 127.24 77.366C127.018 79.4428 126.437 81.4364 126.18 83.5062C126.52 83.3791 126.877 83.3021 127.24 83.2777C127.309 83.2777 126.997 84.7245 126.997 84.946C127.4 85.022 127.814 85.0165 128.215 84.9297C128.616 84.8429 128.995 84.6766 129.33 84.4407C129.399 84.4476 129.441 84.4961 129.399 84.5445Z" fill="#263238"/>
<path d="M127.377 85.1287C127.619 85.5059 127.953 85.8156 128.347 86.0286C128.561 86.1335 128.803 86.1697 129.039 86.1324C129.565 86.0425 129.62 85.5717 129.558 85.1633C129.524 84.9431 129.466 84.7272 129.385 84.5195C128.796 84.9283 128.094 85.1415 127.377 85.1287Z" fill="#263238"/>
<path d="M128.347 86.0306C128.562 86.1355 128.803 86.1718 129.039 86.1345C129.566 86.0445 129.621 85.5738 129.559 85.1653C129.289 85.1529 129.023 85.2315 128.803 85.3884C128.584 85.5453 128.423 85.7715 128.347 86.0306Z" fill="#FF98B9"/>
<path d="M136.611 80.8634C136.092 78.8905 137.421 75.7409 136.514 74.8133C134.562 72.7989 130.049 76.0939 127.121 75.9139C124.193 75.7339 123.459 73.8372 124.13 71.5736C124.802 69.31 126.865 67.8978 130.083 67.6417C132.885 67.5122 135.643 68.3696 137.878 70.0645C137.878 70.0645 137.241 68.8669 137.539 68.5278C137.837 68.1886 139.145 69.393 139.533 69.9122C139.815 70.3336 140.019 70.8027 140.135 71.2967C140.564 71.2201 141.003 71.2061 141.436 71.2552C142.065 71.3446 142.643 71.6506 143.07 72.1205C143.111 72.3004 142.066 72.3558 141.339 72.342C141.339 72.342 142.565 74.2318 142.433 75.7616C142.301 77.2915 139.408 84.4146 138.833 84.4561C138.086 84.4838 136.826 81.6387 136.611 80.8634Z" fill="#263238"/>
<path d="M141.077 72.1211C141.077 72.1211 141.015 72.1211 141.036 72.1211C141.701 72.7359 142.181 73.5249 142.42 74.3986C142.643 75.4507 142.578 76.5434 142.233 77.5621C141.539 79.4977 140.641 81.3541 139.554 83.1C139.551 83.1059 139.549 83.1124 139.549 83.119C139.548 83.1257 139.549 83.1325 139.55 83.1389C139.552 83.1453 139.556 83.1513 139.56 83.1565C139.564 83.1617 139.569 83.166 139.575 83.1692C139.581 83.1724 139.588 83.1744 139.594 83.175C139.601 83.1757 139.608 83.1751 139.614 83.1731C139.621 83.1712 139.627 83.168 139.632 83.1638C139.637 83.1596 139.641 83.1543 139.644 83.1484C140.915 81.323 141.891 79.3094 142.538 77.1813C142.995 75.4092 142.718 73.2494 141.077 72.1211Z" fill="#263238"/>
<path d="M136.703 74.0452C135.847 73.886 134.969 73.886 134.114 74.0452C133.319 74.2646 132.554 74.5807 131.836 74.9867C130.192 75.8426 128.34 76.2169 126.492 76.0666V76.1012C128.174 76.3652 129.897 76.1243 131.442 75.4089C132.208 75.0088 132.999 74.6573 133.809 74.3567C134.753 74.1584 135.723 74.1117 136.682 74.2183C136.693 74.2196 136.705 74.2188 136.716 74.2157C136.727 74.2126 136.737 74.2073 136.746 74.2003C136.755 74.1932 136.763 74.1844 136.768 74.1745C136.774 74.1645 136.777 74.1535 136.779 74.1421C136.78 74.1308 136.779 74.1193 136.776 74.1082C136.773 74.0972 136.768 74.0869 136.761 74.0779C136.754 74.0689 136.745 74.0614 136.735 74.0558C136.725 74.0502 136.714 74.0466 136.703 74.0452Z" fill="#263238"/>
<path d="M136.191 69.0959C135.082 68.4413 133.883 67.9516 132.633 67.6422C131.444 67.3018 130.205 67.1729 128.971 67.2615C126.846 67.4553 124.818 68.6459 124.181 70.7919C123.834 71.8791 123.905 73.0567 124.382 74.0939C124.39 74.1049 124.402 74.1127 124.415 74.1162C124.429 74.1196 124.443 74.1184 124.456 74.1129C124.469 74.1073 124.479 74.0976 124.486 74.0854C124.492 74.0732 124.495 74.0591 124.492 74.0454C124.109 73.0945 124.044 72.0449 124.307 71.0539C124.57 70.063 125.148 69.1841 125.953 68.549C127.78 67.1646 130.203 67.2199 132.335 67.7114C133.663 68.0381 134.953 68.5021 136.184 69.0959C136.184 69.0959 136.198 69.0959 136.191 69.0959Z" fill="#263238"/>
<path d="M137.242 82.3364C137.242 82.3364 139.319 79.2491 140.704 79.9898C142.088 80.7304 140.572 85.1746 138.952 85.8115C138.751 85.9065 138.532 85.9598 138.309 85.9682C138.087 85.9767 137.864 85.94 137.656 85.8605C137.448 85.781 137.258 85.6602 137.098 85.5055C136.937 85.3508 136.81 85.1652 136.723 84.96L137.242 82.3364Z" fill="#EB9481"/>
<path d="M102.153 144.97C102.243 145.087 144.379 148.901 144.808 148.5C145.397 147.939 142.884 105.775 135.359 97.1637C133.511 95.0385 126.969 92.4911 124.816 93.8132C119.23 97.2744 115.783 105.034 113.574 109.555C111.934 112.905 109.829 118.671 107.877 124.597C104.658 134.364 101.841 144.547 102.153 144.97Z" fill="#FFC727"/>
<path d="M127.572 106.215C127.686 106.933 127.9 107.633 128.209 108.291C128.507 108.954 128.893 109.574 129.358 110.133C129.248 109.413 129.034 108.714 128.721 108.056C128.424 107.393 128.037 106.773 127.572 106.215ZM134.661 133.828C134.776 134.547 134.992 135.247 135.304 135.905C135.595 136.573 135.982 137.196 136.454 137.753C136.211 136.312 135.593 134.96 134.661 133.835V133.828ZM117.161 132.506C117.275 133.225 117.492 133.925 117.805 134.583C118.094 135.252 118.484 135.873 118.961 136.424C118.847 135.703 118.628 135.004 118.31 134.347C118.016 133.682 117.629 133.062 117.161 132.506ZM105.171 141.214C106.609 140.964 107.957 140.344 109.083 139.414C107.643 139.66 106.294 140.281 105.171 141.214ZM133.712 119.367C134.431 119.254 135.13 119.039 135.789 118.73C136.455 118.436 137.076 118.046 137.63 117.574C136.911 117.689 136.212 117.906 135.554 118.218C134.887 118.509 134.267 118.896 133.712 119.367ZM122.401 98.0117C123.12 97.8981 123.819 97.6837 124.478 97.3748C125.146 97.0801 125.769 96.6907 126.326 96.2188C124.888 96.4721 123.54 97.0893 122.408 98.0117H122.401ZM134.439 101.154C134.864 100.566 135.205 99.9204 135.45 99.2369C135.623 98.7642 135.758 98.278 135.851 97.7832L135.657 97.5202C135.362 97.9992 135.116 98.5071 134.924 99.0362C134.659 99.7147 134.496 100.428 134.439 101.154ZM117.639 118.46C118.064 117.869 118.404 117.222 118.649 116.536C118.911 115.859 119.074 115.148 119.134 114.425C118.71 115.014 118.37 115.659 118.123 116.342C117.861 117.026 117.698 117.744 117.639 118.474V118.46ZM115.015 146.15L115.41 146.184C115.467 145.913 115.504 145.638 115.52 145.361C115.328 145.625 115.159 145.905 115.015 146.198V146.15ZM141.057 147.777C141.482 147.188 141.822 146.543 142.068 145.859C142.332 145.18 142.495 144.467 142.552 143.741C141.713 144.934 141.198 146.325 141.057 147.777ZM107.421 125.992C107.587 126.07 107.753 126.14 107.92 126.2C108.599 126.461 109.312 126.624 110.038 126.684C109.448 126.258 108.8 125.92 108.113 125.68L107.587 125.5L107.421 125.992ZM125.184 142.73C126.376 143.572 127.767 144.088 129.22 144.225C128.631 143.802 127.985 143.464 127.302 143.222C126.624 142.956 125.91 142.79 125.184 142.73ZM123.799 126.116C124.39 126.543 125.038 126.883 125.724 127.127C126.389 127.387 127.089 127.551 127.801 127.612C126.609 126.77 125.218 126.254 123.765 126.116H123.799ZM138.883 107.668C139.236 107.939 139.616 108.172 140.019 108.361C139.977 108.181 139.929 108.008 139.887 107.828C139.55 107.749 139.208 107.701 138.863 107.682L138.883 107.668ZM116.206 104.297C116.809 104.519 117.44 104.654 118.082 104.699C117.586 104.332 117.044 104.034 116.469 103.813L116.206 104.297Z" fill="white"/>
<path d="M131.663 103.791C142.469 106.359 159.29 108.9 164.828 105.397C167.659 103.604 174.235 87.9041 176.07 79.092C176.548 76.8007 157.753 73.5887 157.158 76.0115C156.355 79.2789 154.472 89.5793 153.545 91.1992C153.011 92.1268 141.084 93.5112 131.476 95.0342C120.206 96.834 122.892 101.707 131.663 103.791Z" fill="#EB9481"/>
<path d="M160.239 56.1445C160.694 56.1897 161.13 56.3468 161.509 56.6016C161.889 56.8565 162.199 57.2012 162.413 57.6051C162.972 56.8981 163.76 56.4085 164.642 56.2207C166.213 55.9507 167.321 58.2974 167.321 58.2974C168.054 57.6793 168.956 57.2958 169.909 57.1967C171.439 57.0929 172.9 59.2734 172.9 59.2734C173.384 59.1218 173.897 59.0848 174.398 59.1652C174.899 59.2457 175.374 59.4415 175.787 59.7372C178.701 62.1808 177.787 75.5202 175.447 80.8435L157.65 78.1576C157.65 78.1576 155.262 68.1064 155.656 65.0051C155.975 62.4508 157.47 55.8815 160.239 56.1445Z" fill="#EB9481"/>
<path d="M162.315 57.6499C161.404 60.3663 160.83 63.1839 160.605 66.0398C160.605 66.1022 160.695 66.116 160.702 66.0398C160.993 63.2709 162.045 60.4466 162.446 57.6707C162.481 57.6084 162.363 57.5807 162.315 57.6499Z" fill="#263238"/>
<path d="M167.092 58.3487C166.917 58.9776 166.829 59.6273 166.829 60.2801C166.78 60.9723 166.752 61.6645 166.725 62.3568C166.683 63.7412 166.672 65.1257 166.69 66.5102C166.69 66.5725 166.787 66.5863 166.794 66.5102C166.836 65.1257 166.905 63.7412 167.016 62.3568C167.064 61.6645 167.126 60.9723 167.189 60.2801C167.291 59.637 167.321 58.9846 167.279 58.3349C167.272 58.3146 167.258 58.2973 167.24 58.2855C167.222 58.2737 167.201 58.2682 167.18 58.2698C167.158 58.2714 167.138 58.28 167.122 58.2942C167.106 58.3085 167.096 58.3277 167.092 58.3487Z" fill="#263238"/>
<path d="M172.88 59.3497C172.734 59.9189 172.685 60.5086 172.734 61.0941C172.734 61.724 172.734 62.354 172.734 62.9839C172.7 64.2438 172.672 65.5036 172.596 66.7566C172.596 66.8258 172.693 66.8327 172.693 66.7566C172.776 65.4829 172.873 64.2022 172.942 62.9285C172.976 62.2986 173.011 61.6687 173.039 61.0456C173.116 60.4738 173.093 59.8927 172.97 59.3289C172.97 59.3289 172.893 59.322 172.88 59.3497Z" fill="#263238"/>
<path d="M146.774 108.824L146.082 91.8984C146.082 91.8984 134.273 92.6599 127.579 95.1173C120.885 97.5748 123.162 101.223 129.655 103.756C136.148 106.29 146.774 108.824 146.774 108.824Z" fill="#FFC727"/>
<path d="M143.999 92.7736C143.321 92.5093 142.607 92.3461 141.881 92.2891C142.471 92.7158 143.119 93.0561 143.806 93.2997C144.482 93.5633 145.193 93.7265 145.917 93.7843C145.331 93.3549 144.685 93.0144 143.999 92.7736ZM134.924 99.0038C134.663 99.6833 134.5 100.397 134.44 101.122C134.865 100.531 135.205 99.8833 135.45 99.1976C135.708 98.5315 135.871 97.8324 135.935 97.1209C135.511 97.7101 135.171 98.3555 134.924 99.0384V99.0038ZM146.498 102.257C145.906 102.382 145.33 102.575 144.782 102.832C144.113 103.124 143.491 103.511 142.933 103.981C143.652 103.867 144.351 103.653 145.01 103.344C145.541 103.107 146.045 102.812 146.512 102.465L146.498 102.257ZM124.561 96.7194C124.253 96.9758 123.993 97.2853 123.793 97.6331C124.021 97.5501 124.25 97.4601 124.485 97.3632C125.154 97.0685 125.776 96.6791 126.333 96.2071C125.722 96.3003 125.126 96.4749 124.561 96.7263V96.7194Z" fill="white"/>
<path d="M143.043 92.884C142.964 97.6855 143.212 102.487 143.784 107.255H143.895C143.929 103.323 143.403 95.4868 143.202 92.884C143.209 92.8355 143.043 92.8355 143.043 92.884Z" fill="#263238"/>
<path d="M146.685 106.697C146.796 107.389 146.858 108.081 146.948 108.815V109.037L146.706 108.988C145.225 108.677 143.743 108.379 142.276 108.019C140.808 107.659 139.341 107.285 137.887 106.87C136.433 106.455 134.98 106.025 133.554 105.527C132.128 105.029 130.695 104.53 129.303 103.914L133.692 105.063C135.153 105.444 136.613 105.825 138.067 106.219L142.435 107.41C143.889 107.798 145.335 108.247 146.789 108.656L146.581 108.829C146.637 108.116 146.637 107.41 146.685 106.697Z" fill="#263238"/>
<path d="M133.152 105.23C132.613 105.361 132.055 105.396 131.504 105.334C130.952 105.284 130.415 105.124 129.926 104.863C130.203 104.863 130.473 104.898 130.743 104.919L131.539 104.988C132.08 105.039 132.619 105.12 133.152 105.23Z" fill="#263238"/>
<path d="M30.2232 273.382C27.8419 272.094 24.6161 271.492 22.1033 272.69C22.0064 272.731 22.1033 272.87 22.1587 272.87C24.8275 272.86 27.4896 273.138 30.0986 273.7C30.1389 273.709 30.181 273.704 30.2174 273.684C30.2538 273.665 30.2821 273.633 30.2971 273.594C30.3121 273.556 30.3129 273.514 30.2994 273.475C30.2859 273.436 30.2588 273.403 30.2232 273.382Z" fill="#263238"/>
<path d="M31.6978 275.069C29.3165 273.782 26.0907 273.18 23.5779 274.377C23.481 274.419 23.5779 274.557 23.6333 274.557C26.3065 274.544 28.9733 274.82 31.5871 275.381C31.624 275.382 31.6604 275.372 31.691 275.351C31.7217 275.331 31.7449 275.301 31.7572 275.266C31.7696 275.231 31.7705 275.193 31.7598 275.158C31.7491 275.123 31.7274 275.092 31.6978 275.069Z" fill="#263238"/>
<path d="M33.1722 276.765C30.7909 275.477 27.5651 274.875 25.0523 276.073C24.9554 276.114 25.0523 276.253 25.1146 276.253C27.7863 276.247 30.4507 276.53 33.0615 277.097C33.1055 277.112 33.1536 277.108 33.1952 277.088C33.2367 277.067 33.2683 277.03 33.283 276.986C33.2977 276.942 33.2943 276.894 33.2735 276.853C33.2527 276.811 33.2163 276.779 33.1722 276.765Z" fill="#263238"/>
<path d="M34.6536 278.445C32.2654 277.157 29.0465 276.555 26.5268 277.752C26.4299 277.794 26.5268 277.932 26.5891 277.932C29.2608 277.926 31.9252 278.21 34.536 278.777C34.58 278.793 34.6285 278.79 34.6707 278.77C34.7129 278.75 34.7453 278.714 34.7609 278.67C34.7765 278.626 34.774 278.577 34.7539 278.535C34.7338 278.493 34.6977 278.46 34.6536 278.445Z" fill="#263238"/>
<path d="M36.7858 269.023C36.232 267.334 34.176 267.354 32.8331 267.901C30.5457 268.889 28.5575 270.46 27.0668 272.456C27.0582 272.463 27.0512 272.471 27.0464 272.481C27.0416 272.49 27.0391 272.501 27.0391 272.512C27.0391 272.522 27.0416 272.533 27.0464 272.543C27.0512 272.552 27.0582 272.561 27.0668 272.567C27.0114 272.761 27.1152 273.024 27.3575 273.01C29.7042 272.906 32.2031 273.086 34.4598 272.269C35.7959 271.792 37.3119 270.622 36.7858 269.023ZM30.9087 272.131C29.7595 272.207 28.6174 272.228 27.4475 272.352C28.5758 271.466 29.6557 270.539 30.9087 269.763C31.4866 269.383 32.0903 269.043 32.7154 268.746C33.6915 268.303 37.1457 267.797 35.8028 270.435C35.0552 271.923 32.2793 272.034 30.9087 272.131Z" fill="#263238"/>
<path d="M20.8372 269.721C22.644 271.278 25.0599 272.005 27.2127 272.933C27.2619 272.949 27.3143 272.954 27.3657 272.946C27.417 272.938 27.4657 272.918 27.5077 272.888C27.5497 272.857 27.5838 272.817 27.6071 272.771C27.6305 272.724 27.6424 272.673 27.6419 272.621C27.653 272.622 27.6641 272.62 27.6742 272.615C27.6844 272.61 27.6932 272.603 27.7 272.594C27.7068 272.585 27.7113 272.575 27.7133 272.564C27.7152 272.553 27.7145 272.542 27.7111 272.531C27.028 270.137 25.7269 267.964 23.9384 266.232C22.8793 265.235 20.9687 264.487 19.8473 265.872C18.7259 267.256 19.785 268.807 20.8372 269.721ZM20.2765 267.547C19.9581 264.605 23.0455 266.301 23.7377 267.063C24.2123 267.566 24.6561 268.098 25.0668 268.655C25.9252 269.811 26.6105 271.064 27.3512 272.289C26.3197 271.77 25.2745 271.341 24.2084 270.863C22.9901 270.288 20.4496 269.146 20.2765 267.547Z" fill="#263238"/>
<path d="M3.51687 269.758C3.36458 270.678 3.21229 271.578 3.07384 272.45C2.16009 278.051 1.62014 282.37 2.04241 282.765C3.32997 283.99 41.9775 291.764 43.4243 291.57C44.8711 291.376 44.4488 287.264 43.189 285.769C42.4206 284.862 37.1388 280.958 33.1169 278.044C30.5279 276.175 28.4651 274.7 28.4651 274.7L36.2181 249.641L10.2316 244.512C10.2316 244.512 3.79377 268.276 3.51687 269.758Z" fill="#FFC4C0"/>
<path d="M43.4243 291.558C41.9775 291.731 3.32997 283.978 2.04241 282.752C1.62014 282.351 2.16009 278.038 3.07384 272.438C3.21229 271.573 3.35766 270.666 3.51687 269.745C3.60686 269.226 4.45831 265.986 5.51744 261.992C9.2832 262.74 24.3947 265.779 30.8048 267.066L28.4512 274.681C28.4512 274.681 30.5279 276.148 33.1031 278.024C37.125 280.939 42.4067 284.836 43.1682 285.75C44.4419 287.252 44.8642 291.371 43.4243 291.558Z" fill="#EBEBEB"/>
<path d="M43.7428 291.812C42.7875 291.923 26.0285 288.593 13.8797 285.866C11.0692 285.236 8.50795 284.634 6.44509 284.121C3.6 283.429 1.70327 282.861 1.4333 282.605C0.962575 282.148 3.92535 266.303 4.44452 264.469L30.1403 269.785L28.6313 274.534C28.6313 274.534 42.2406 284.336 43.5351 285.873C44.8296 287.409 45.2173 291.625 43.7428 291.812Z" fill="#FFC727"/>
<path d="M43.1407 290.042C36.5437 288.533 9.81642 282.995 3.18479 281.984C3.12941 281.984 3.12249 281.984 3.18479 282.026C9.67797 283.687 36.4537 288.99 43.113 290.153C43.2514 290.174 43.2514 290.077 43.1407 290.042Z" fill="#263238"/>
<path d="M36.1835 263.71C36.4604 263.578 43.9919 231.251 47.4254 218.071C52.3818 199.048 57.186 168.043 58.6258 161.584C61.5982 154.148 63.6171 146.365 64.6344 138.422H33.3869C33.3869 138.422 25.1977 154.087 29.4065 165.163C29.7942 166.181 23.9517 205.313 20.9266 211.674C18.3169 217.157 6.38965 257.307 6.38965 257.307L36.1835 263.71Z" fill="#37474F"/>
<path d="M36.0167 257.082C35.2552 256.805 34.4384 256.666 33.6492 256.459C32.8601 256.251 31.9809 256.037 31.1433 255.85C29.4681 255.469 27.7929 255.109 26.1177 254.742C22.7603 254.015 19.3961 253.358 16.0318 252.665C15.1088 252.476 14.1858 252.296 13.2628 252.125C12.354 251.904 11.4275 251.762 10.4939 251.703C10.4852 251.708 10.478 251.715 10.473 251.723C10.468 251.732 10.4653 251.742 10.4653 251.752C10.4653 251.761 10.468 251.771 10.473 251.78C10.478 251.788 10.4852 251.795 10.4939 251.8C11.2561 252.085 12.0412 252.305 12.8406 252.458C13.6713 252.665 14.5089 252.859 15.3465 253.046C16.994 253.42 18.6415 253.801 20.296 254.161C23.6187 254.853 26.9484 255.621 30.2849 256.3C31.2333 256.486 32.1747 256.68 33.13 256.84C34.0853 256.999 35.0268 257.248 35.982 257.317C36.0651 257.31 36.1551 257.13 36.0167 257.082Z" fill="#263238"/>
<path d="M50.4514 160.141C49.8492 163.395 49.3508 166.669 48.8108 169.93C48.5409 171.598 48.174 173.245 47.8971 174.907C47.6202 176.568 47.3641 178.174 47.101 179.808C46.0396 186.384 44.9897 192.958 43.9513 199.53C43.4345 202.797 42.9107 206.06 42.38 209.318C41.8923 212.533 41.2337 215.719 40.4071 218.864C39.5487 222.007 38.538 225.094 37.5758 228.216L34.6338 237.783C32.6886 244.124 32.9655 245.203 31.2211 251.627C31.0065 252.423 30.785 253.22 30.5289 254.016C30.5282 254.033 30.5336 254.051 30.5443 254.065C30.5549 254.079 30.5702 254.089 30.5873 254.093C30.6045 254.097 30.6225 254.095 30.6384 254.087C30.6542 254.079 30.6669 254.066 30.6742 254.05C32.8271 247.765 32.5294 246.685 34.53 240.344C36.5306 234.003 38.5796 227.718 40.4832 221.377C41.4058 218.29 42.1432 215.151 42.6915 211.976C43.2453 208.709 43.7298 205.434 44.2559 202.16C45.2897 195.589 46.3395 189.015 47.4056 182.438C47.9178 179.213 48.4855 175.98 48.887 172.747C49.3023 169.383 49.8838 166.039 50.3822 162.689C50.5068 161.865 50.6245 161.048 50.7352 160.224C50.7352 160.038 50.486 159.961 50.4514 160.141Z" fill="#263238"/>
<path d="M77.3234 275.531C74.6583 275.019 71.4048 275.406 69.3558 277.289C69.2796 277.365 69.3558 277.476 69.4735 277.448C72.0212 276.642 74.6484 276.113 77.3096 275.87C77.3491 275.864 77.3853 275.844 77.412 275.814C77.4386 275.784 77.4541 275.746 77.4557 275.706C77.4573 275.666 77.445 275.627 77.4209 275.595C77.3968 275.563 77.3623 275.54 77.3234 275.531Z" fill="#263238"/>
<path d="M79.2484 276.699C76.5902 276.187 73.3297 276.574 71.2877 278.457C71.2046 278.533 71.2877 278.644 71.3984 278.616C73.9508 277.81 76.5826 277.281 79.2484 277.038C79.2875 277.03 79.3227 277.009 79.3479 276.978C79.3732 276.947 79.387 276.908 79.387 276.868C79.387 276.828 79.3732 276.79 79.3479 276.759C79.3227 276.728 79.2875 276.707 79.2484 276.699Z" fill="#263238"/>
<path d="M81.1441 277.871C78.4859 277.358 75.2324 277.746 73.1834 279.629C73.1073 279.705 73.1834 279.816 73.3011 279.788C75.8488 278.982 78.476 278.453 81.1372 278.21C81.1765 278.203 81.2122 278.182 81.2381 278.152C81.264 278.121 81.2786 278.083 81.2794 278.043C81.2802 278.003 81.2672 277.964 81.2426 277.933C81.2179 277.901 81.1831 277.879 81.1441 277.871Z" fill="#263238"/>
<path d="M83.0623 279.043C80.4041 278.53 77.1437 278.918 75.1016 280.801C75.0185 280.877 75.1016 280.988 75.2124 280.96C77.7603 280.155 80.3874 279.626 83.0485 279.382C83.0881 279.376 83.1242 279.356 83.1509 279.326C83.1775 279.296 83.193 279.258 83.1946 279.218C83.1963 279.178 83.184 279.138 83.1598 279.107C83.1357 279.075 83.1013 279.052 83.0623 279.043Z" fill="#263238"/>
<path d="M82.2727 269.411C81.2343 267.964 79.2822 268.594 78.1677 269.521C76.274 271.145 74.8414 273.239 74.0143 275.592C74.0099 275.602 74.0078 275.613 74.0084 275.624C74.0089 275.635 74.012 275.645 74.0174 275.655C74.0228 275.664 74.0304 275.672 74.0394 275.678C74.0485 275.684 74.0589 275.688 74.0697 275.689C74.0697 275.89 74.2566 276.111 74.485 276.028C76.6932 275.225 79.1438 274.644 81.0336 273.19C82.1619 272.346 83.2556 270.774 82.2727 269.411ZM77.6001 274.132C76.5271 274.547 75.4403 274.914 74.3812 275.371C75.1911 274.194 75.9456 272.983 76.8732 271.91C77.3099 271.371 77.7841 270.865 78.2923 270.394C79.0884 269.701 82.238 268.165 81.7535 271.086C81.4766 272.664 78.8807 273.626 77.6001 274.132Z" fill="#263238"/>
<path d="M67.2719 274.863C69.4594 275.811 71.9791 275.776 74.312 276.019C74.3638 276.02 74.415 276.008 74.4617 275.986C74.5083 275.963 74.5491 275.93 74.5807 275.889C74.6123 275.848 74.6339 275.8 74.6437 275.75C74.6536 275.699 74.6514 275.646 74.6373 275.596C74.6449 275.589 74.6509 275.581 74.655 275.571C74.6591 275.562 74.6612 275.551 74.6612 275.541C74.6612 275.531 74.6591 275.52 74.655 275.511C74.6509 275.501 74.6449 275.493 74.6373 275.486C73.266 273.405 71.3733 271.72 69.1479 270.598C67.8396 269.975 65.7906 269.83 65.1398 271.484C64.4891 273.139 65.9913 274.309 67.2719 274.863ZM66.0951 272.959C64.9114 270.245 68.3311 270.951 69.2794 271.45C69.8862 271.783 70.4691 272.158 71.0239 272.571C72.1937 273.416 73.2183 274.406 74.2912 275.34C73.1559 275.153 72.0138 275.063 70.8646 274.918C69.4871 274.759 66.732 274.454 66.0951 272.959Z" fill="#263238"/>
<path d="M50.6582 272.465C50.6582 274.043 51.3505 289.833 51.8281 290.138C53.3303 291.093 92.7531 291.204 94.1307 290.754C95.5082 290.304 94.3038 286.33 92.7462 285.112C91.8186 284.365 85.8862 281.561 81.3728 279.484C78.4723 278.148 76.1602 277.11 76.1602 277.11L76.2848 272.479L76.6448 251.414H50.6167C50.6167 251.414 50.4852 262.227 50.6582 272.465Z" fill="#FFC4C0"/>
<path d="M94.1371 290.757C92.7527 291.207 53.3298 291.089 51.8345 290.141C51.3431 289.829 50.6785 274.046 50.6577 272.475C50.6577 271.429 50.6577 270.398 50.6162 269.332H76.3605L76.3051 272.475L76.1736 277.092L81.3861 279.473C85.8926 281.55 91.8251 284.367 92.7596 285.108C94.3033 286.333 95.5078 290.3 94.1371 290.757Z" fill="#EBEBEB"/>
<path d="M95.0648 291.069C94.151 291.374 77.0666 291.374 64.6063 291.069C61.7266 291 59.0684 290.91 56.9917 290.813C54.0636 290.668 52.0976 290.501 51.7792 290.294C51.2254 289.941 50.4432 273.819 50.5955 271.922L76.6374 272.053L76.7343 277.017C76.7343 277.017 92.1366 284.029 93.708 285.282C95.2793 286.535 96.4769 290.605 95.0648 291.069Z" fill="#FFC727"/>
<path d="M94.124 289.459C87.3609 289.251 60.066 289.05 53.3652 289.355C53.3167 289.355 53.3098 289.397 53.3652 289.397C60.066 289.75 87.3609 289.729 94.124 289.57C94.2694 289.563 94.2694 289.459 94.124 289.459Z" fill="#263238"/>
<path d="M46.0201 166.374C46.0201 166.374 50.4711 210.054 50.5404 211.079C50.5404 211.487 48.6298 264.866 48.6298 264.866H78.0706C78.0706 264.866 77.0184 214.845 76.5685 208.677C76.52 207.985 74.6164 163.557 66.0465 138.422H33.3452C33.3452 138.422 33.629 153.187 40.3437 163.868C42.2805 164.599 44.1755 165.435 46.0201 166.374Z" fill="#37474F"/>
<path d="M76.2084 259.35C75.3985 259.233 74.5748 259.26 73.7579 259.219C72.9411 259.177 72.0481 259.136 71.1897 259.115C69.473 259.08 67.7285 259.067 66.0395 259.046C62.5783 259.004 59.1725 259.046 55.739 259.046H52.9285C51.9823 259.011 51.0349 259.06 50.0973 259.191C50.0488 259.191 50.0557 259.281 50.0973 259.295C50.8986 259.421 51.7089 259.481 52.5201 259.475C53.3785 259.51 54.2368 259.53 55.0952 259.544C56.7843 259.579 58.4733 259.62 60.1693 259.641C63.5682 259.683 66.974 259.745 70.3798 259.731C71.3489 259.731 72.3111 259.731 73.2803 259.697C74.2494 259.662 75.2185 259.697 76.1738 259.586C76.2984 259.565 76.3538 259.371 76.2084 259.35Z" fill="#263238"/>
<path d="M69.5563 213.521C68.781 197.787 67.1265 182.121 65.0429 166.518C63.9076 157.969 62.5716 149.434 60.2595 141.113C60.2595 141.113 60.1972 141.113 60.2042 141.113C62.007 148.726 63.3661 156.436 64.2745 164.206C65.2436 171.89 66.1712 179.588 66.9535 187.299C68.5387 202.944 69.2448 218.644 69.3417 234.371C69.3971 243.218 69.1617 247.385 68.9125 256.225C68.9125 256.308 69.0371 256.301 69.044 256.225C70.3246 240.498 70.3039 229.277 69.5563 213.521Z" fill="#263238"/>
<path d="M67.9572 144.502C67.9572 144.489 67.9521 144.476 67.943 144.467C67.9339 144.458 67.9216 144.453 67.9087 144.453C67.8959 144.453 67.8835 144.458 67.8745 144.467C67.8654 144.476 67.8603 144.489 67.8603 144.502C67.9849 146.364 68.3033 148.392 67.4726 150.15C66.7458 151.694 65.3544 152.566 64.0737 153.611C64.0737 153.646 64.0737 153.708 64.1291 153.694C65.8251 153.182 67.5211 152.241 68.1925 150.496C68.9402 148.565 68.5317 146.44 67.9572 144.502Z" fill="#263238"/>
<path d="M53.78 165.416C52.4147 165.376 51.0483 165.422 49.6889 165.554C48.3575 165.625 47.0228 165.602 45.6947 165.485C45.0284 165.416 44.3672 165.305 43.7149 165.153C43.0226 164.994 42.3996 164.744 41.7281 164.557C41.1184 164.424 40.4848 164.448 39.8868 164.627C39.1946 164.786 38.5023 164.897 37.7478 164.994C36.1088 165.232 34.4472 165.274 32.7983 165.118C32.736 165.118 32.7083 165.208 32.7983 165.222C34.1848 165.512 35.5975 165.658 37.014 165.658C37.7398 165.642 38.4636 165.577 39.1807 165.464C39.839 165.272 40.5233 165.183 41.209 165.201C41.8814 165.381 42.5425 165.6 43.1888 165.859C43.8472 166.043 44.5181 166.18 45.1962 166.267C46.5545 166.447 47.9276 166.489 49.2943 166.392C50.836 166.357 52.3668 166.125 53.8492 165.7C53.8868 165.69 53.9193 165.667 53.9394 165.634C53.9595 165.6 53.9657 165.561 53.9565 165.523C53.9473 165.485 53.9236 165.453 53.8905 165.433C53.8574 165.413 53.8176 165.407 53.78 165.416Z" fill="#263238"/>
<path d="M49.8275 201.153C49.569 198.324 49.2921 195.495 48.9968 192.666C48.4015 187.004 47.8408 181.341 47.2593 175.679C46.927 172.467 46.6916 169.227 46.1655 166.043C46.1655 165.96 46.0202 165.96 46.0271 166.043C46.0686 168.881 46.3732 171.719 46.6155 174.55C46.8578 177.382 47.107 180.213 47.37 183.044C47.9031 188.707 48.4084 194.376 49.0729 200.032C49.2621 201.633 49.4606 203.248 49.6683 204.877C49.8828 206.483 50.1667 208.082 50.3605 209.688C50.3605 209.703 50.3663 209.717 50.3767 209.727C50.3871 209.738 50.4012 209.744 50.4159 209.744C50.4306 209.744 50.4446 209.738 50.455 209.727C50.4654 209.717 50.4713 209.703 50.4713 209.688C50.222 206.85 50.0905 203.984 49.8275 201.153Z" fill="#263238"/>
<path d="M50.0554 102.921C50.277 103.53 53.7728 107.227 56.6178 106.735C57.5454 106.576 56.8947 101.474 56.8947 101.474L56.9294 101.087L57.4624 95.6664L50.7684 92.4544L49.8062 92.0391C49.8062 92.0391 49.7578 93.5343 49.7232 95.3895C49.7232 95.4795 49.7232 95.5625 49.7232 95.6595C49.7232 95.7564 49.7232 95.8602 49.7232 95.9571V96.8017C49.7232 97.0232 49.7232 97.2308 49.7232 97.4524C49.7232 97.6739 49.7232 97.9023 49.7232 98.1446C49.7213 99.7426 49.8323 101.339 50.0554 102.921Z" fill="#FFC4C0"/>
<path d="M49.7231 95.4012C50.4378 96.8177 51.4528 98.0612 52.6974 99.0452C53.942 100.029 55.3862 100.73 56.9293 101.098L57.4623 95.6781L50.7684 92.4661L49.8062 92.0508C49.8062 92.0508 49.7578 93.5322 49.7231 95.4012Z" fill="#263238"/>
<path d="M65.7834 129.879L66.0464 138.415H33.3867C33.3867 138.415 37.2356 113.113 45.847 103.803C50.1527 99.1232 54.7284 100.002 57.9542 103.27C58.7641 104.1 67.687 115.73 68.7115 120.645C69.6045 124.937 65.7834 129.879 65.7834 129.879Z" fill="#FFC727"/>
<path opacity="0.1" d="M66.0121 137.402H33.5601C33.6016 137.139 33.657 136.835 33.7193 136.489H65.9913L66.0121 137.402ZM65.9083 133.941H34.1969C34.1346 134.26 34.0723 134.564 34.0169 134.855H65.936L65.9083 133.941ZM65.8321 131.387H34.7299C34.6607 131.698 34.5984 132.003 34.5361 132.301H65.8598L65.8321 131.387ZM35.3114 128.826C35.2422 129.137 35.166 129.442 35.0968 129.739H65.8944C66.026 129.566 66.2475 129.248 66.5105 128.826H35.3114ZM35.9414 126.271L35.7129 127.185H67.4312C67.5835 126.894 67.7219 126.59 67.8604 126.271H35.9414ZM36.6336 123.717L36.3844 124.631H68.4488C68.5318 124.333 68.608 124.028 68.6703 123.717H36.6336ZM68.8087 121.163H37.3812C37.2843 121.467 37.1943 121.772 37.1043 122.076H68.8641C68.8609 121.769 68.8401 121.461 68.8018 121.156L68.8087 121.163ZM68.0473 118.608H38.198C38.0942 118.913 37.9973 119.217 37.8935 119.522H68.3934C68.2965 119.224 68.1719 118.934 68.0404 118.601L68.0473 118.608ZM66.7736 116.047H39.098C38.9803 116.352 38.8695 116.656 38.7588 116.968H67.2512C67.1058 116.656 66.9397 116.352 66.7874 116.04L66.7736 116.047ZM65.2714 113.493H40.1155C39.9863 113.797 39.8617 114.102 39.7417 114.406H65.8252C65.6452 114.097 65.4583 113.79 65.2645 113.486L65.2714 113.493ZM63.6239 110.938H41.2577C41.1124 111.243 40.967 111.547 40.8285 111.852H64.2192L63.6239 110.938ZM61.8656 108.384H42.5937C42.4207 108.682 42.2476 108.986 42.0884 109.298H62.4886C62.281 108.979 62.0664 108.675 61.8587 108.377L61.8656 108.384ZM60.0035 105.83H44.1997C43.9851 106.127 43.7844 106.432 43.5836 106.743H60.668L60.0035 105.83ZM57.9891 103.275H46.3249C46.168 103.432 46.0088 103.598 45.8473 103.774C45.6857 103.949 45.5611 104.087 45.4734 104.189H58.7367C58.3767 103.704 58.1137 103.407 57.9822 103.268L57.9891 103.275ZM53.7526 100.714H50.6237C49.8492 100.903 49.1089 101.211 48.4293 101.628H55.9331C55.2539 101.214 54.5166 100.903 53.7457 100.707L53.7526 100.714Z" fill="#030402"/>
<path d="M55.109 110.406C60.9584 112.649 82.7569 117.64 87.3464 113.826C94.5526 107.838 100.187 97.1085 103.095 88.3102C104.099 85.2505 84.889 82.6131 83.8368 86.0674C82.4523 90.5669 78.9911 98.7561 78.0705 100.161C77.1498 101.567 64.115 101.802 55.3236 102.626C47.9859 103.311 47.6882 107.568 55.109 110.406Z" fill="#FFC4C0"/>
<path d="M86.1218 65.6324C86.647 65.4555 87.2137 65.4435 87.7458 65.5982C88.278 65.7529 88.75 66.0668 89.0984 66.4977C89.6688 65.7516 90.4815 65.2277 91.3967 65.0163C93.0303 64.7256 94.2071 67.1554 94.2071 67.1554C94.9587 66.5026 95.8902 66.0924 96.8792 65.9786C98.4713 65.8539 100.008 68.1383 100.008 68.1383C101.03 67.92 102.097 68.0773 103.012 68.5814C105.401 70.0351 105.456 74.2992 105.525 77.0128C105.594 79.7264 103.234 87.4794 102.936 89.0023L86.2395 90.6152C86.2395 90.6152 81.1169 83.416 82.1553 74.2923C82.4668 71.5787 84.142 66.3731 86.1218 65.6324Z" fill="#FFC4C0"/>
<path d="M88.8207 66.6125C87.7962 69.3815 87.6509 72.3304 87.3394 75.2516C87.3433 75.2622 87.3504 75.2714 87.3597 75.2778C87.3689 75.2843 87.38 75.2878 87.3913 75.2878C87.4026 75.2878 87.4136 75.2843 87.4229 75.2778C87.4322 75.2714 87.4393 75.2622 87.4432 75.2516C87.7201 72.3373 88.5646 69.5199 88.9592 66.6264C88.973 66.5641 88.8484 66.5364 88.8207 66.6125Z" fill="#263238"/>
<path d="M93.9788 67.205C93.8058 67.8599 93.722 68.5351 93.7296 69.2125C93.6881 69.9047 93.6604 70.6454 93.6396 71.3584C93.6396 72.7913 93.6396 74.2312 93.6396 75.6641C93.6396 75.7264 93.7366 75.7403 93.7366 75.6641C93.7735 74.2335 93.8358 72.8029 93.9235 71.3722C93.9696 70.6569 94.025 69.9439 94.0896 69.2332C94.1886 68.5642 94.2118 67.8861 94.1588 67.2119C94.1503 67.1957 94.1377 67.1821 94.1223 67.1723C94.1069 67.1625 94.0891 67.157 94.0708 67.1563C94.0526 67.1556 94.0345 67.1598 94.0183 67.1683C94.0022 67.1768 93.9885 67.1895 93.9788 67.205Z" fill="#263238"/>
<path d="M100.015 68.1779C99.8703 68.7733 99.8259 69.3886 99.883 69.9985C99.883 70.6561 99.883 71.3068 99.883 71.9645C99.883 73.2728 99.8484 74.5742 99.7861 75.8825C99.7861 75.9518 99.883 75.9587 99.883 75.8825C99.9592 74.5534 100.049 73.2243 100.105 71.9022C100.105 71.2099 100.16 70.5938 100.181 69.9431C100.257 69.3498 100.229 68.7477 100.098 68.1641C100.096 68.1531 100.09 68.1432 100.081 68.1367C100.071 68.1303 100.06 68.1276 100.049 68.1295C100.038 68.1313 100.028 68.1375 100.022 68.1465C100.015 68.1556 100.013 68.1669 100.015 68.1779Z" fill="#263238"/>
<path d="M79.8007 95.3984L95.3414 108.046C95.3414 108.046 89.4297 114.726 86.2177 115.411C83.0057 116.096 65.6237 115.099 55.7593 111.112C45.8949 107.125 48.4147 103.255 55.6209 102.411C62.8271 101.566 76.1803 99.981 76.6164 99.718C77.0525 99.4549 79.8007 95.3984 79.8007 95.3984Z" fill="#FFC727"/>
<path opacity="0.1" d="M57.2074 111.656C56.7183 111.485 56.2406 111.305 55.7745 111.116C55.2692 110.908 54.7915 110.707 54.3485 110.507L49.3436 106.415C49.2381 106.038 49.26 105.637 49.4059 105.273L57.2074 111.656ZM51.3027 103.536C51.0091 103.674 50.7288 103.838 50.465 104.027L61.2985 112.881C61.9908 113.054 62.683 113.22 63.3337 113.366L51.3027 103.536ZM54.2377 102.629C53.8362 102.705 53.4624 102.788 53.1025 102.885L66.788 114.085C67.3972 114.196 68.0063 114.3 68.6155 114.397L54.2377 102.629ZM57.6989 102.172L56.4321 102.317L71.7098 114.778C72.2774 114.854 72.8451 114.923 73.3988 114.978L57.6989 102.172ZM61.2224 101.757L59.9695 101.909L76.3547 115.297L77.9399 115.421L61.2224 101.757ZM64.7459 101.334L63.4929 101.487L80.7227 115.567L82.211 115.608L64.7459 101.334ZM68.2555 100.898L67.0026 101.058L84.7584 115.595C85.19 115.579 85.6201 115.535 86.046 115.463L68.2555 100.898ZM71.7167 100.455L70.4707 100.621L87.7766 114.75C88.0466 114.598 88.3165 114.425 88.5934 114.238L71.7167 100.455ZM75.1779 99.9846L73.9457 100.158L89.9225 113.22C90.1648 113.033 90.4071 112.833 90.6148 112.632L75.1779 99.9846ZM77.5107 98.6001C77.3031 98.884 77.1162 99.1332 76.9569 99.2924L91.8816 111.497L92.5738 110.86L77.5107 98.6001ZM78.999 96.5234L78.4729 97.2711L93.7021 109.731L94.3321 109.039L78.999 96.5234Z" fill="#030402"/>
<path d="M91.7979 109.619C87.6444 105.957 83.4356 102.302 78.9361 99.0623C78.9269 99.0559 78.9156 99.0534 78.9045 99.0553C78.8935 99.0573 78.8837 99.0635 78.8773 99.0727C78.8708 99.0819 78.8683 99.0932 78.8703 99.1043C78.8722 99.1153 78.8785 99.1251 78.8876 99.1316C82.9303 102.918 87.3329 106.324 91.7217 109.695C91.7771 109.737 91.8463 109.66 91.7979 109.619Z" fill="#263238"/>
<path d="M47.4529 80.5221C47.1728 80.7342 46.8368 80.8597 46.4862 80.883C46.1356 80.9064 45.7859 80.8266 45.4801 80.6536C44.6078 80.3075 43.4933 79.4076 42.545 80.0375C41.4789 80.7297 41.8527 82.2734 42.3581 83.1872C42.8472 83.9566 43.2821 84.7593 43.6595 85.5893C43.9589 86.3909 44.1136 87.2394 44.1164 88.0951C44.1164 89.8188 43.1749 91.411 43.2857 93.1277C43.431 95.2044 45.3624 96.6997 47.0099 97.6411C48.6574 98.5825 50.6649 98.9633 52.5478 99.6209C54.1284 100.226 55.5312 101.219 56.6272 102.509C57.7233 103.798 58.4771 105.343 58.8195 107C59.0068 107.814 59.1158 108.644 59.1448 109.478C59.1448 110.371 59.0825 111.271 59.1448 112.164C59.1724 112.67 59.3206 113.162 59.5771 113.6C59.8336 114.037 60.1909 114.406 60.6193 114.677C61.4372 115.107 62.3259 115.386 63.2429 115.501C63.2719 115.509 63.2981 115.525 63.3183 115.548C63.3385 115.57 63.3519 115.598 63.357 115.627C63.3621 115.657 63.3586 115.688 63.347 115.716C63.3353 115.743 63.316 115.767 63.2913 115.785C62.7919 116.13 62.2692 116.44 61.7269 116.712C61.259 116.983 60.7418 117.157 60.2057 117.225C59.6696 117.292 59.1253 117.252 58.6049 117.107C57.4281 116.691 56.722 115.591 56.0782 114.594C55.371 113.401 54.3762 112.404 53.1847 111.693C51.9543 111.043 50.6225 110.605 49.2458 110.399C46.5807 109.942 43.8533 110.081 41.202 109.52C39.9166 109.292 38.6904 108.806 37.5972 108.093C36.5041 107.379 35.5663 106.452 34.8404 105.366C34.1277 104.264 33.6559 103.023 33.4559 101.725C33.3078 100.308 33.3826 98.8761 33.6774 97.4819C34.2329 94.4932 34.4304 91.449 34.2658 88.4136C34.1622 86.9836 33.982 85.5601 33.7259 84.1494C33.4566 82.8329 33.3244 81.492 33.3313 80.1483C33.3593 78.9834 33.694 77.8465 34.3017 76.8524C34.9094 75.8582 35.7686 75.0419 36.7925 74.4858C37.7998 73.8954 38.942 73.5739 40.1093 73.5521C41.2767 73.5303 42.4301 73.8089 43.4587 74.3612C46.7953 76.2648 47.889 80.0929 47.4529 80.5221Z" fill="#263238"/>
<path d="M43.7356 94.6447C44.1164 95.5656 44.6812 96.3992 45.3954 97.0943C46.1096 97.7895 46.9581 98.3315 47.889 98.6873C49.7927 99.3795 51.8832 99.4211 53.8215 100.072C55.6233 100.603 57.2291 101.653 58.4387 103.09C59.4623 104.527 59.9962 106.255 59.9616 108.019C60.0308 110.012 59.8301 111.999 60.0447 113.986C60.0447 114.02 59.9893 114.034 59.9824 113.986C59.2902 110.525 60.6262 106.648 58.4595 103.554C57.1379 101.838 55.2652 100.63 53.1569 100.134C51.3225 99.6149 49.3427 99.5664 47.5775 98.8119C46.6915 98.4087 45.8952 97.8323 45.2353 97.1166C44.5755 96.4009 44.0656 95.5604 43.7356 94.6447Z" fill="#263238"/>
<path d="M33.1177 104.216C32.9397 103.053 32.9772 101.868 33.2285 100.72C33.4846 99.3354 33.81 97.9509 34.1076 96.5664C33.8654 97.7501 33.6646 98.9477 33.4569 100.145C33.2222 101.271 33.1453 102.425 33.2285 103.572C33.3845 104.704 33.7935 105.787 34.425 106.739C35.0566 107.692 35.8945 108.49 36.8766 109.075C38.8702 110.3 41.1408 110.536 43.4251 110.543C45.4555 110.507 47.4859 110.606 49.503 110.84C51.7638 111.088 53.9475 111.808 55.9131 112.952C55.9131 112.952 55.9131 113.021 55.9131 113C51.9535 110.681 47.4124 110.799 42.9821 110.806C40.7905 110.91 38.6146 110.387 36.7105 109.297C35.7934 108.743 35.0008 108.006 34.3825 107.132C33.7642 106.258 33.3336 105.265 33.1177 104.216Z" fill="#263238"/>
<path d="M46.0682 82.7456C46.1928 82.7456 47.8818 80.9735 48.0618 80.8004C48.2418 80.6274 50.0278 78.9729 50.0555 78.8552C49.4766 78.2748 48.7962 77.8056 48.048 77.4708C47.598 77.3739 46.2551 78.4953 46.0336 78.7029C45.8121 78.9106 44.6491 80.2397 44.7599 80.6966C45.0692 81.4527 45.5124 82.1469 46.0682 82.7456Z" fill="#FFC727"/>
<path d="M64.5099 86.2859C67.0158 95.5134 61.8171 98.1439 59.775 98.5938C57.9475 99.0023 51.752 100.511 48.3116 91.5884C44.8712 82.6655 48.367 78.5882 52.465 77.2522C56.563 75.9162 62.0109 77.0514 64.5099 86.2859Z" fill="#FFC4C0"/>
<path d="M63.5133 84.4156C63.2917 84.4156 63.0841 84.4156 62.821 84.4156C62.5813 84.4494 62.3371 84.4005 62.1288 84.2771C62.073 84.2284 62.0347 84.1628 62.0197 84.0903C62.0047 84.0178 62.0139 83.9424 62.0457 83.8756C62.1329 83.752 62.2511 83.6537 62.3884 83.5904C62.5258 83.5272 62.6774 83.5014 62.828 83.5156C63.1349 83.5023 63.4359 83.6034 63.6725 83.7995C63.7186 83.8446 63.7521 83.9011 63.7694 83.9633C63.7867 84.0254 63.7874 84.0911 63.7712 84.1536C63.7551 84.2161 63.7227 84.2732 63.6774 84.3192C63.6321 84.3652 63.5755 84.3984 63.5133 84.4156Z" fill="#263238"/>
<path d="M57.5248 85.9361C57.7302 85.8621 57.9312 85.7766 58.127 85.68C58.3561 85.6179 58.5582 85.4815 58.7016 85.2923C58.7346 85.2257 58.7444 85.15 58.7293 85.0772C58.7143 85.0044 58.6752 84.9388 58.6185 84.8908C58.4898 84.814 58.3427 84.7734 58.1928 84.7734C58.0429 84.7734 57.8958 84.814 57.767 84.8908C57.4692 84.9868 57.2207 85.1955 57.0748 85.4723C57.0521 85.5356 57.0476 85.6041 57.0619 85.6698C57.0761 85.7356 57.1085 85.7961 57.1553 85.8444C57.2022 85.8926 57.2616 85.9268 57.3269 85.9431C57.3922 85.9593 57.4608 85.9569 57.5248 85.9361Z" fill="#263238"/>
<path d="M59.3596 87.9688C59.3596 87.9688 59.3181 88.0103 59.3596 88.038C59.5188 88.6679 59.5949 89.4224 59.0688 89.7547C59.0688 89.7547 59.0688 89.7962 59.0688 89.7893C59.7265 89.5401 59.6157 88.5433 59.3596 87.9688Z" fill="#263238"/>
<path d="M58.6467 87.4357C57.6083 87.5811 57.9544 89.6509 58.9443 89.5124C59.9342 89.374 59.5189 87.3042 58.6467 87.4357Z" fill="#263238"/>
<path d="M58.2582 87.6179C58.099 87.7702 57.9605 88.0056 57.7459 88.0679C57.5314 88.1302 57.2683 87.9571 57.0537 87.7771C57.1229 88.1786 57.3445 88.5524 57.7459 88.5386C58.1474 88.5247 58.362 88.1232 58.3897 87.701C58.4036 87.6525 58.3205 87.5556 58.2582 87.6179Z" fill="#263238"/>
<path d="M62.7383 86.9961C62.7383 86.9961 62.7937 86.9961 62.8006 87.0445C62.8906 87.6883 63.1052 88.429 63.7213 88.5259V88.5605C62.9944 88.5813 62.7245 87.6191 62.7383 86.9961Z" fill="#263238"/>
<path d="M63.1947 86.2263C64.2192 85.9633 64.6553 88.0192 63.7139 88.2615C62.7724 88.5038 62.3433 86.4409 63.1947 86.2263Z" fill="#263238"/>
<path d="M63.6584 86.2668C63.8384 86.3429 64.0461 86.5021 64.2399 86.4744C64.4337 86.4467 64.586 86.1837 64.6829 85.9414C64.6829 85.9414 64.683 85.9414 64.7245 85.9414C64.8145 86.336 64.7729 86.7721 64.413 86.9244C64.053 87.0767 63.7554 86.7859 63.5823 86.4121C63.5477 86.3568 63.5823 86.2391 63.6584 86.2668Z" fill="#263238"/>
<path d="M62.4745 90.0895C62.4745 90.0895 62.786 91.0171 62.876 91.474C62.876 91.5156 62.7791 91.5571 62.6268 91.5986C62.2537 91.7438 61.8479 91.7837 61.4536 91.7141C61.0594 91.6446 60.6918 91.4681 60.3909 91.204C60.3839 91.1958 60.3798 91.1854 60.3794 91.1745C60.379 91.1637 60.3823 91.153 60.3887 91.1442C60.395 91.1354 60.4042 91.1291 60.4146 91.1261C60.4251 91.1231 60.4362 91.1238 60.4463 91.1279C61.1009 91.4105 61.8295 91.4737 62.523 91.3079C62.523 91.1764 61.9276 89.7365 61.9969 89.7157C62.3522 89.6797 62.7107 89.6914 63.0629 89.7504C62.4607 87.7982 61.5538 85.95 60.9862 83.9979C60.9809 83.9835 60.9811 83.9677 60.9868 83.9534C60.9924 83.9392 61.0031 83.9275 61.0168 83.9206C61.0305 83.9138 61.0463 83.9122 61.0611 83.9163C61.0758 83.9203 61.0886 83.9296 61.097 83.9425C62.1344 85.8895 62.9762 87.9347 63.6098 90.048C63.6582 90.2903 62.6683 90.1311 62.4745 90.0895Z" fill="#263238"/>
<path d="M62.5234 91.2473C62.3653 91.6756 62.1009 92.0568 61.755 92.3549C61.557 92.5118 61.3152 92.6037 61.0628 92.6179C60.5229 92.6179 60.3706 92.1887 60.329 91.7665C60.3011 91.5366 60.3011 91.3041 60.329 91.0742C61.0222 91.3692 61.7926 91.4299 62.5234 91.2473Z" fill="#263238"/>
<path d="M61.7541 92.3556C61.556 92.5126 61.3143 92.6045 61.0619 92.6187C60.522 92.6187 60.3697 92.1895 60.3281 91.7672C60.5973 91.6896 60.8849 91.7056 61.1439 91.8124C61.4028 91.9193 61.618 92.1108 61.7541 92.3556Z" fill="#FF98B9"/>
<path d="M49.6819 94.5482C50.4918 94.4028 49.6819 89.3079 49.6819 89.3079C49.6819 89.3079 52.8524 87.6119 52.9977 82.794C53.1698 84.196 52.9292 85.6177 52.3055 86.8851C52.3055 86.8851 57.8434 85.1614 59.2763 79.9627C59.2763 79.9627 58.8056 82.5586 58.0857 83.5901C59.4321 82.869 60.4938 81.7121 61.0969 80.3088C61.0969 80.3088 62.6267 82.8424 63.5405 83.4447C63.5405 83.4447 62.4952 73.8364 52.3955 76.4739C50.5809 76.9145 48.9225 77.8456 47.6015 79.1654C46.2805 80.4852 45.3478 82.1428 44.9055 83.9569C44.1786 87.0512 45.2101 90.727 46.4838 92.7899C47.2799 94.0151 49.6819 94.5482 49.6819 94.5482Z" fill="#263238"/>
<path d="M52.2506 90.0768C52.2506 90.0768 49.9039 87.3079 48.6163 88.1524C47.3288 88.9969 49.3086 93.185 50.9284 93.628C51.1341 93.6988 51.352 93.7275 51.569 93.7123C51.7861 93.697 51.9978 93.6383 52.1917 93.5394C52.3855 93.4406 52.5574 93.3037 52.6972 93.1369C52.8369 92.9702 52.9417 92.777 53.0051 92.5689L52.2506 90.0768Z" fill="#FFC4C0"/>
</svg>
