<svg width="227" height="158" viewBox="0 0 227 158" fill="none" xmlns="http://www.w3.org/2000/svg">
<g clip-path="url(#clip0_1_501)">
<path d="M264.424 151.854C264.424 151.918 196.495 151.966 112.727 151.966C28.9584 151.966 -38.9883 151.918 -38.9883 151.854C-38.9883 151.789 28.9237 151.742 112.727 151.742C196.53 151.742 264.424 151.794 264.424 151.854Z" fill="#263238"/>
<path d="M205.815 16.6406H17.0126C13.5274 16.6406 10.7021 19.4444 10.7021 22.9031V142.565C10.7021 146.023 13.5274 148.827 17.0126 148.827H205.815C209.3 148.827 212.125 146.023 212.125 142.565V22.9031C212.125 19.4444 209.3 16.6406 205.815 16.6406Z" fill="#455A64"/>
<path d="M4.11107 140.281H222.335V144.197C222.335 146.226 221.522 148.172 220.077 149.607C218.631 151.042 216.67 151.848 214.625 151.848H11.8032C9.75849 151.848 7.79757 151.042 6.35178 149.607C4.90599 148.172 4.09375 146.226 4.09375 144.197V140.281H4.11107Z" fill="#455A64"/>
<path d="M91.5605 139.047L94.2675 143.324H132.373L134.885 139.047H91.5605Z" fill="#263238"/>
<path d="M210.393 139.043C210.393 139.116 165.687 139.172 110.556 139.172C55.4253 139.172 10.7021 139.116 10.7021 139.043C10.7021 138.97 55.3993 138.914 110.556 138.914C165.713 138.914 210.393 138.97 210.393 139.043Z" fill="#263238"/>
<path d="M204.152 24.2422H17.888C17.1058 24.2422 16.4717 24.8715 16.4717 25.6477V134.151C16.4717 134.927 17.1058 135.557 17.888 135.557H204.152C204.934 135.557 205.569 134.927 205.569 134.151V25.6477C205.569 24.8715 204.934 24.2422 204.152 24.2422Z" fill="#EBEBEB"/>
<path d="M205.365 135.719H16.2686L16.4721 32.5625H205.365V135.719Z" fill="white"/>
<path d="M31.9829 28.5419C31.9855 28.8391 31.899 29.1304 31.7345 29.3787C31.57 29.6271 31.3348 29.8214 31.0588 29.9369C30.7829 30.0524 30.4785 30.084 30.1845 30.0276C29.8904 29.9711 29.6199 29.8293 29.4072 29.62C29.1945 29.4108 29.0492 29.1435 28.9898 28.8522C28.9304 28.5609 28.9596 28.2586 29.0736 27.9837C29.1876 27.7089 29.3814 27.4738 29.6302 27.3084C29.879 27.143 30.1718 27.0547 30.4713 27.0547C30.8703 27.0535 31.2535 27.2095 31.5368 27.4882C31.8202 27.767 31.9806 28.1459 31.9829 28.5419Z" fill="#263238"/>
<path d="M22.8298 28.5419C22.8323 28.8397 22.7455 29.1315 22.5804 29.3801C22.4153 29.6288 22.1794 29.823 21.9027 29.9382C21.626 30.0533 21.321 30.0841 21.0265 30.0266C20.7321 29.9692 20.4616 29.826 20.2494 29.6155C20.0373 29.4049 19.893 29.1364 19.8351 28.8443C19.7772 28.5521 19.8082 28.2494 19.9243 27.9748C20.0403 27.7002 20.236 27.466 20.4866 27.3022C20.7371 27.1383 21.0312 27.0522 21.3312 27.0547C21.7279 27.057 22.1078 27.2144 22.3883 27.4928C22.6689 27.7712 22.8275 28.1482 22.8298 28.5419Z" fill="#263238"/>
<path d="M27.2214 28.543C27.2214 28.8397 27.1327 29.1298 26.9666 29.3764C26.8005 29.6231 26.5645 29.8154 26.2883 29.9289C26.0121 30.0425 25.7081 30.0722 25.4149 30.0143C25.1217 29.9564 24.8524 29.8135 24.641 29.6037C24.4296 29.394 24.2856 29.1267 24.2273 28.8357C24.169 28.5447 24.1989 28.2431 24.3133 27.969C24.4277 27.6949 24.6215 27.4606 24.87 27.2958C25.1186 27.1309 25.4108 27.043 25.7098 27.043C25.9085 27.0424 26.1053 27.0808 26.2889 27.156C26.4726 27.2312 26.6394 27.3417 26.7799 27.4811C26.9204 27.6205 27.0317 27.7861 27.1075 27.9683C27.1832 28.1506 27.2219 28.3459 27.2214 28.543Z" fill="#263238"/>
<path d="M205.569 125.754H16.2686V135.717H205.569V125.754Z" fill="#263238"/>
<path d="M23.4245 131.883V132.201H21.9173V131.952L22.7272 131.187C22.9264 130.998 22.961 130.877 22.961 130.757C22.961 130.572 22.8311 130.465 22.5799 130.465C22.4894 130.46 22.3989 130.476 22.3161 130.513C22.2333 130.55 22.1604 130.605 22.1035 130.675L21.835 130.473C21.9299 130.361 22.0497 130.273 22.185 130.215C22.3203 130.156 22.4673 130.13 22.6146 130.138C23.0477 130.138 23.3465 130.357 23.3465 130.718C23.3437 130.844 23.3113 130.968 23.2519 131.079C23.1925 131.19 23.1077 131.286 23.0044 131.359L22.4586 131.875L23.4245 131.883Z" fill="white"/>
<path d="M23.6272 130.885C23.6272 130.837 23.6415 130.791 23.6684 130.751C23.6953 130.711 23.7334 130.681 23.7781 130.662C23.8227 130.644 23.8717 130.64 23.9189 130.649C23.9661 130.659 24.0093 130.682 24.0431 130.717C24.0769 130.751 24.0997 130.794 24.1085 130.841C24.1174 130.888 24.112 130.936 24.0929 130.98C24.0739 131.024 24.0421 131.062 24.0016 131.087C23.9611 131.113 23.9138 131.127 23.8656 131.126C23.8337 131.126 23.8021 131.121 23.7726 131.109C23.7431 131.097 23.7164 131.079 23.6941 131.056C23.6718 131.034 23.6543 131.007 23.6428 130.978C23.6313 130.948 23.626 130.917 23.6272 130.885ZM23.6272 131.99C23.6226 131.956 23.6253 131.921 23.6353 131.888C23.6453 131.855 23.6622 131.825 23.685 131.799C23.7078 131.773 23.7359 131.753 23.7674 131.739C23.7989 131.724 23.8331 131.717 23.8678 131.717C23.9024 131.717 23.9366 131.724 23.9681 131.739C23.9996 131.753 24.0277 131.773 24.0505 131.799C24.0733 131.825 24.0902 131.855 24.1002 131.888C24.1102 131.921 24.113 131.956 24.1083 131.99C24.113 132.024 24.1102 132.058 24.1002 132.091C24.0902 132.124 24.0733 132.155 24.0505 132.18C24.0277 132.206 23.9996 132.227 23.9681 132.241C23.9366 132.255 23.9024 132.263 23.8678 132.263C23.8331 132.263 23.7989 132.255 23.7674 132.241C23.7359 132.227 23.7078 132.206 23.685 132.18C23.6622 132.155 23.6453 132.124 23.6353 132.091C23.6253 132.058 23.6226 132.024 23.6272 131.99Z" fill="white"/>
<path d="M25.058 130.173V132.201H24.6812V130.482H24.248V130.164L25.058 130.173Z" fill="white"/>
<path d="M27.2873 131.745H26.9235V132.205H26.5554V131.745H25.4336V131.5L26.4427 130.211H26.8499L25.897 131.462H26.5683V131.053H26.9235V131.462H27.2873V131.745Z" fill="white"/>
<path d="M185.785 130.934H30.627V131.634H185.785V130.934Z" fill="white"/>
<path d="M78.9957 130.183H30.5087V132.057H78.9957V130.183Z" fill="#FF725E"/>
<path d="M80.5647 131.284C80.5647 131.747 80.4262 132.2 80.1669 132.585C79.9075 132.971 79.5388 133.271 79.1075 133.448C78.6762 133.625 78.2016 133.672 77.7437 133.581C77.2858 133.491 76.8652 133.268 76.5351 132.94C76.205 132.613 75.9802 132.195 75.8891 131.741C75.798 131.287 75.8448 130.816 76.0234 130.387C76.2021 129.959 76.5046 129.594 76.8928 129.336C77.281 129.079 77.7374 128.941 78.2042 128.941C78.8302 128.941 79.4306 129.188 79.8733 129.628C80.316 130.067 80.5647 130.663 80.5647 131.284Z" fill="#FF725E"/>
<path d="M189.691 131.267C189.69 131.361 189.669 131.453 189.631 131.539C189.592 131.624 189.536 131.7 189.466 131.763C189.396 131.826 189.313 131.873 189.224 131.903C189.134 131.932 189.04 131.943 188.946 131.934C188.387 131.934 188.079 131.577 188.079 130.923C188.062 130.785 188.076 130.644 188.119 130.511C188.162 130.378 188.234 130.256 188.33 130.153C188.426 130.05 188.543 129.97 188.673 129.916C188.803 129.863 188.944 129.839 189.084 129.845C189.272 129.84 189.458 129.886 189.621 129.978L189.478 130.262C189.363 130.191 189.229 130.156 189.093 130.163C188.707 130.163 188.465 130.399 188.465 130.859C188.535 130.787 188.62 130.73 188.714 130.694C188.809 130.657 188.91 130.642 189.011 130.648C189.097 130.643 189.183 130.654 189.265 130.682C189.346 130.711 189.421 130.755 189.484 130.813C189.548 130.871 189.599 130.941 189.635 131.019C189.67 131.097 189.689 131.182 189.691 131.267ZM189.322 131.267C189.322 131.057 189.162 130.923 188.915 130.923C188.863 130.915 188.81 130.917 188.759 130.931C188.708 130.944 188.661 130.968 188.62 131.001C188.579 131.034 188.546 131.075 188.522 131.122C188.498 131.168 188.485 131.219 188.482 131.272C188.482 131.461 188.634 131.611 188.915 131.611C188.964 131.619 189.014 131.617 189.062 131.604C189.11 131.592 189.154 131.569 189.193 131.538C189.231 131.508 189.263 131.469 189.285 131.425C189.307 131.381 189.32 131.334 189.322 131.285V131.267Z" fill="white"/>
<path d="M189.878 130.566C189.874 130.532 189.876 130.497 189.886 130.464C189.896 130.431 189.913 130.401 189.936 130.375C189.959 130.349 189.987 130.329 190.018 130.314C190.05 130.3 190.084 130.293 190.119 130.293C190.153 130.293 190.188 130.3 190.219 130.314C190.251 130.329 190.279 130.349 190.301 130.375C190.324 130.401 190.341 130.431 190.351 130.464C190.361 130.497 190.364 130.532 190.359 130.566C190.364 130.6 190.361 130.634 190.351 130.667C190.341 130.7 190.324 130.73 190.301 130.756C190.279 130.782 190.251 130.803 190.219 130.817C190.188 130.831 190.153 130.839 190.119 130.839C190.084 130.839 190.05 130.831 190.018 130.817C189.987 130.803 189.959 130.782 189.936 130.756C189.913 130.73 189.896 130.7 189.886 130.667C189.876 130.634 189.874 130.6 189.878 130.566ZM189.878 131.67C189.874 131.636 189.876 131.602 189.886 131.569C189.896 131.536 189.913 131.506 189.936 131.48C189.959 131.454 189.987 131.433 190.018 131.419C190.05 131.405 190.084 131.398 190.119 131.398C190.153 131.398 190.188 131.405 190.219 131.419C190.251 131.433 190.279 131.454 190.301 131.48C190.324 131.506 190.341 131.536 190.351 131.569C190.361 131.602 190.364 131.636 190.359 131.67C190.364 131.704 190.361 131.739 190.351 131.772C190.341 131.805 190.324 131.835 190.301 131.861C190.279 131.887 190.251 131.907 190.219 131.922C190.188 131.936 190.153 131.943 190.119 131.943C190.084 131.943 190.05 131.936 190.018 131.922C189.987 131.907 189.959 131.887 189.936 131.861C189.913 131.835 189.896 131.805 189.886 131.772C189.876 131.739 189.874 131.704 189.878 131.67Z" fill="white"/>
<path d="M190.602 130.876C190.602 130.21 190.97 129.832 191.468 129.832C191.966 129.832 192.334 130.21 192.334 130.876C192.334 131.543 191.966 131.921 191.468 131.921C190.97 131.921 190.602 131.543 190.602 130.876ZM191.927 130.876C191.927 130.386 191.736 130.163 191.455 130.163C191.173 130.163 190.983 130.386 190.983 130.876C190.983 131.366 191.178 131.594 191.455 131.594C191.732 131.594 191.927 131.366 191.927 130.876Z" fill="white"/>
<path d="M192.562 130.876C192.562 130.21 192.931 129.832 193.429 129.832C193.927 129.832 194.295 130.21 194.295 130.876C194.295 131.543 193.927 131.921 193.429 131.921C192.931 131.921 192.562 131.543 192.562 130.876ZM193.892 130.876C193.892 130.386 193.697 130.163 193.416 130.163C193.134 130.163 192.948 130.386 192.948 130.876C192.948 131.366 193.139 131.594 193.416 131.594C193.693 131.594 193.892 131.366 193.892 130.876Z" fill="white"/>
<path d="M197.577 130.755H196.866V128.73H198.906V129.431H197.577V130.755Z" fill="white"/>
<path d="M198.906 133.391H196.866V131.371H197.572V132.691H198.906V133.391Z" fill="white"/>
<path d="M202.156 133.396H200.12V132.695H201.445V131.371H202.156V133.396Z" fill="white"/>
<path d="M202.155 130.751H201.449V129.431H200.115V128.73H202.155V130.751Z" fill="white"/>
<path d="M42.2025 38.6914H31.0542L25.4844 48.2721L31.0542 57.8484H42.2025L47.7723 48.2721L42.2025 38.6914Z" fill="#EBEBEB"/>
<path d="M31.964 50.1522C31.4457 49.6233 30.9895 49.0379 30.604 48.4071C30.2154 47.7704 30.0523 47.023 30.1406 46.2838C30.2575 45.8694 30.3515 45.449 30.4221 45.0244C30.4654 44.4313 30.2142 43.8123 30.4221 43.2579C30.7513 42.3982 31.925 42.2564 32.6396 41.6589C33.194 41.1904 33.4669 40.434 34.0776 40.0428C34.6448 39.7448 35.3002 39.6564 35.927 39.7935C36.5471 39.9353 37.1842 39.9903 37.8197 39.9569C38.2587 39.8636 38.6924 39.7474 39.119 39.6087C39.5481 39.4748 40.0123 39.5071 40.4183 39.699C40.6167 39.8065 40.7649 39.9866 40.8312 40.2011C40.8976 40.4155 40.8769 40.6471 40.7735 40.8466C41.5055 40.5113 42.4323 41.0787 42.6315 41.8481C42.7079 42.2419 42.6717 42.6491 42.5271 43.0235C42.3824 43.398 42.135 43.7248 41.813 43.9671C41.165 44.4461 40.4049 44.7538 39.6041 44.8611C37.3649 45.2909 34.9395 45.0459 33.0121 43.8424" fill="#263238"/>
<path d="M42.298 52.5121C42.2243 51.141 41.8389 48.33 41.4577 45.7897C41.2606 44.4738 40.5724 43.2794 39.5294 42.4434C38.4865 41.6075 37.1651 41.191 35.8273 41.2766H35.5501C32.5876 41.6463 31.2493 44.3498 31.704 47.2941L32.5703 57.8461H39.8032C39.8032 57.8461 39.63 55.9936 39.63 55.9764C39.63 55.9592 42.4539 55.3489 42.298 52.5121Z" fill="#FFBE9D"/>
<path d="M39.6255 55.9483C38.3072 56.0584 36.9856 55.7787 35.8271 55.1445C35.8271 55.1445 36.8493 57.126 39.6818 56.6833L39.6255 55.9483Z" fill="#EB996E"/>
<path d="M40.5362 48.2213C40.5446 48.326 40.5112 48.4298 40.4431 48.5103C40.375 48.5907 40.2778 48.6413 40.1724 48.6511C40.1217 48.6578 40.0702 48.6543 40.0209 48.641C39.9716 48.6276 39.9254 48.6047 39.8851 48.5735C39.8448 48.5423 39.8111 48.5035 39.7861 48.4592C39.7611 48.415 39.7451 48.3663 39.7393 48.3159C39.732 48.2114 39.7658 48.1082 39.8337 48.028C39.9015 47.9479 39.9981 47.897 40.1031 47.8861C40.1538 47.8795 40.2053 47.8829 40.2546 47.8963C40.3039 47.9096 40.3501 47.9325 40.3904 47.9637C40.4307 47.9949 40.4643 48.0338 40.4893 48.078C40.5144 48.1222 40.5303 48.1709 40.5362 48.2213Z" fill="#263238"/>
<path d="M40.9383 47.2204C40.8906 47.2763 40.5658 47.07 40.124 47.1001C39.6823 47.1302 39.3791 47.3709 39.3271 47.3193C39.2751 47.2677 39.3271 47.1989 39.483 47.0872C39.6642 46.9449 39.8848 46.861 40.1154 46.8465C40.344 46.8302 40.5718 46.8874 40.765 47.0098C40.908 47.1044 40.9599 47.1946 40.9383 47.2204Z" fill="#263238"/>
<path d="M36.3858 48.5176C36.3872 48.6206 36.3512 48.7207 36.2844 48.7996C36.2176 48.8785 36.1245 48.9309 36.022 48.9474C35.9194 48.9584 35.8165 48.9289 35.7356 48.8654C35.6546 48.8019 35.6019 48.7094 35.5889 48.6078C35.5876 48.5048 35.6236 48.4048 35.6903 48.3259C35.7571 48.247 35.8502 48.1945 35.9527 48.178C36.0553 48.1671 36.1582 48.1965 36.2392 48.26C36.3202 48.3235 36.3728 48.416 36.3858 48.5176Z" fill="#263238"/>
<path d="M36.6248 47.5847C36.5772 47.6405 36.2523 47.4342 35.8106 47.4643C35.3688 47.4944 35.0656 47.7308 35.0136 47.6835C34.9617 47.6362 35.0136 47.5632 35.1696 47.4514C35.3509 47.306 35.5734 47.22 35.8061 47.2054C36.0389 47.1907 36.2705 47.2482 36.4689 47.3698C36.5945 47.4643 36.6465 47.5589 36.6248 47.5847Z" fill="#263238"/>
<path d="M38.4365 50.6991C38.6634 50.6109 38.9006 50.5517 39.1425 50.5229C39.2551 50.5229 39.359 50.4756 39.372 50.3983C39.3738 50.2837 39.3406 50.1714 39.2768 50.0759L38.887 49.2507C38.5321 48.5586 38.2324 47.84 37.9904 47.1016C38.4035 47.7694 38.7613 48.4695 39.0602 49.1948C39.1901 49.4828 39.3157 49.7621 39.437 50.0243C39.5127 50.1543 39.5431 50.3053 39.5236 50.4541C39.5094 50.4943 39.4865 50.5308 39.4566 50.5612C39.4267 50.5917 39.3904 50.6153 39.3504 50.6304C39.2885 50.6503 39.2246 50.6633 39.1598 50.6691C38.921 50.7096 38.6779 50.7198 38.4365 50.6991Z" fill="#263238"/>
<path d="M36.6203 45.8691C36.5856 45.9894 36.1439 45.9637 35.6328 46.0625C35.1217 46.1614 34.7146 46.3247 34.6366 46.2215C34.5587 46.1184 34.6713 46.0582 34.8315 45.9293C35.0449 45.7721 35.2928 45.6675 35.5548 45.6241C35.8154 45.5732 36.0846 45.5865 36.3388 45.6628C36.5337 45.7273 36.6376 45.8132 36.6203 45.8691Z" fill="#263238"/>
<path d="M40.6918 45.9687C40.6182 46.0719 40.3107 45.9902 39.9469 46.0074C39.5831 46.0246 39.2799 46.1192 39.2019 46.0074C39.124 45.8957 39.2019 45.857 39.3362 45.7538C39.5076 45.6262 39.7153 45.5555 39.9295 45.5518C40.1433 45.5424 40.3548 45.5979 40.5359 45.7108C40.6702 45.8183 40.7221 45.9171 40.6918 45.9687Z" fill="#263238"/>
<path d="M32.0731 49.4044C32.0211 49.4044 30.0678 48.9745 30.2627 50.8958C30.4576 52.8171 32.5712 52.1853 32.5669 52.1423C32.5625 52.0993 32.0731 49.4044 32.0731 49.4044Z" fill="#FFBE9D"/>
<path d="M31.7011 51.4839C31.7011 51.4839 31.6707 51.5097 31.6188 51.5397C31.5408 51.5824 31.4491 51.5932 31.3632 51.5698C31.2293 51.5033 31.1157 51.4025 31.0343 51.2778C30.9528 51.1531 30.9064 51.0091 30.8998 50.8606C30.8773 50.6958 30.8936 50.5281 30.9474 50.3706C30.9587 50.3075 30.9855 50.2482 31.0256 50.1979C31.0657 50.1476 31.1177 50.108 31.177 50.0827C31.2149 50.0698 31.256 50.07 31.2938 50.0833C31.3315 50.0965 31.3636 50.1221 31.3849 50.1557C31.4195 50.2073 31.4109 50.2503 31.4195 50.2503C31.4282 50.2503 31.4585 50.2159 31.4195 50.1342C31.4038 50.0885 31.3734 50.0493 31.3329 50.0225C31.3043 50.0044 31.2722 49.9925 31.2386 49.9873C31.2051 49.9821 31.1708 49.9839 31.138 49.9924C31.0599 50.0169 30.9893 50.0604 30.9325 50.1189C30.8758 50.1775 30.8347 50.2493 30.8132 50.3277C30.7482 50.5034 30.7274 50.6923 30.7525 50.8778C30.7573 51.0513 30.8149 51.2193 30.9177 51.3597C31.0205 51.5001 31.1638 51.6063 31.3286 51.6644C31.3827 51.6742 31.4384 51.6719 31.4916 51.6578C31.5447 51.6437 31.5941 51.618 31.6361 51.5827C31.727 51.5483 31.727 51.4839 31.7011 51.4839Z" fill="#EB996E"/>
<path d="M41.3144 43.1371C41.1801 43.9064 39.6036 44.6156 38.2826 44.577C37.0785 44.5426 36.4808 43.9494 35.6103 43.5282C35.0559 43.2617 35.0559 43.2617 34.3109 43.3821C33.7046 43.4809 33.3884 44.1901 33.0506 44.7016C33.7002 46.1071 33.436 47.7404 33.1589 49.262C33.1482 49.4327 33.0795 49.5949 32.964 49.7219C32.8391 49.798 32.6913 49.8281 32.5464 49.8069C32.4015 49.7856 32.2687 49.7145 32.1714 49.6058C31.8509 49.2637 31.6373 48.8367 31.5563 48.3766C31.2835 47.3492 31.2187 46.2783 31.3658 45.226C31.5094 44.1732 31.9612 43.1853 32.6651 42.3849C33.5932 41.4141 34.8651 40.8392 36.2123 40.7817C37.5538 40.7325 38.8767 41.104 39.9934 41.8433C40.5261 42.1614 40.9722 42.6041 41.2927 43.1328" fill="#263238"/>
<path d="M38.7256 51.6947L37.7295 51.2348C37.6742 51.2036 37.6111 51.1886 37.5475 51.1918C37.4782 51.2072 37.4175 51.2488 37.3786 51.3079C37.2618 51.4457 37.1887 51.6148 37.1687 51.7938C37.1487 51.9728 37.1825 52.1537 37.266 52.3137C37.3569 52.4703 37.5005 52.5902 37.6716 52.6523C37.8426 52.7144 38.0303 52.7147 38.2015 52.6532C38.3689 52.5619 38.5084 52.4275 38.6052 52.2641C38.702 52.1007 38.7526 51.9144 38.7516 51.7248L38.7256 51.6947Z" fill="#EB996E"/>
<path d="M38.2219 52.7197C38.2219 52.7197 38.014 52.8787 37.6372 52.7713C37.4172 52.6972 37.2332 52.5438 37.1218 52.3415C37.051 52.2201 37.0084 52.0846 36.9971 51.9447C36.9859 51.8049 37.0063 51.6644 37.0568 51.5334C37.1097 51.3967 37.1926 51.2734 37.2993 51.1724C37.3511 51.1251 37.4077 51.0833 37.4683 51.0477C37.5083 51.0266 37.5529 51.0156 37.5982 51.0156C37.6435 51.0156 37.6881 51.0266 37.7281 51.0477C37.9577 51.1724 38.1093 51.2798 38.2609 51.3744C38.551 51.5678 38.7243 51.701 38.694 51.7268C38.6636 51.7526 38.4774 51.671 38.1656 51.5119L37.6328 51.2368C37.5939 51.2368 37.5982 51.2368 37.5549 51.2368C37.5114 51.2659 37.4707 51.299 37.4336 51.3357C37.3521 51.4153 37.2899 51.5123 37.2517 51.6194C37.2129 51.7206 37.196 51.8287 37.2019 51.9368C37.2079 52.0449 37.2367 52.1505 37.2864 52.2469C37.3707 52.4091 37.5082 52.5379 37.6762 52.6123C38.001 52.7498 38.2219 52.681 38.2219 52.7197Z" fill="#263238"/>
<path d="M37.9162 48.2698C37.9162 48.2698 37.9162 48.0936 37.8122 47.7884C37.6867 47.3625 37.4234 46.9894 37.0629 46.7268C36.7743 46.5138 36.4317 46.3846 36.0734 46.3536C35.7151 46.3227 35.3552 46.3912 35.0338 46.5514C34.7124 46.7117 34.4423 46.9575 34.2535 47.2613C34.0647 47.5651 33.9648 47.915 33.9648 48.272C33.9648 48.6289 34.0647 48.9788 34.2535 49.2826C34.4423 49.5864 34.7124 49.8322 35.0338 49.9925C35.3552 50.1528 35.7151 50.2212 36.0734 50.1903C36.4317 50.1593 36.7743 50.0301 37.0629 49.8172C37.4234 49.5546 37.6867 49.1815 37.8122 48.7555C37.8988 48.4503 37.8945 48.2698 37.9162 48.2698C37.9378 48.2698 37.9162 48.3171 37.9162 48.4031C37.9189 48.5288 37.9058 48.6544 37.8772 48.777C37.7798 49.239 37.5204 49.6517 37.1452 49.9418C36.8647 50.1591 36.5336 50.3029 36.1825 50.36C35.8313 50.4171 35.4713 50.3856 35.1356 50.2685C34.7202 50.1219 34.3607 49.8512 34.1065 49.4938C33.8523 49.1363 33.7158 48.7095 33.7158 48.272C33.7158 47.8344 33.8523 47.4076 34.1065 47.0501C34.3607 46.6927 34.7202 46.4221 35.1356 46.2755C35.4713 46.1583 35.8313 46.1269 36.1825 46.1839C36.5336 46.241 36.8647 46.3848 37.1452 46.6021C37.5204 46.8922 37.7798 47.3049 37.8772 47.7669C37.906 47.8894 37.9191 48.0151 37.9162 48.1409C37.9292 48.2268 37.9248 48.2698 37.9162 48.2698Z" fill="#263238"/>
<path d="M42.7786 48.0759C42.7569 48.0759 42.7786 47.904 42.6746 47.6074C42.5533 47.1934 42.2975 46.8307 41.947 46.5758C41.6661 46.3687 41.3327 46.2432 40.9841 46.2132C40.6354 46.1832 40.2852 46.2499 39.9726 46.406C39.6599 46.562 39.3971 46.8012 39.2135 47.0968C39.0298 47.3925 38.9326 47.7329 38.9326 48.0802C38.9326 48.4275 39.0298 48.768 39.2135 49.0636C39.3971 49.3592 39.6599 49.5984 39.9726 49.7544C40.2852 49.9105 40.6354 49.9772 40.9841 49.9472C41.3327 49.9172 41.6661 49.7917 41.947 49.5846C42.2975 49.3297 42.5533 48.9671 42.6746 48.553C42.7613 48.2564 42.7569 48.0802 42.7786 48.0802C42.8003 48.0802 42.7786 48.1232 42.7786 48.2092C42.781 48.3318 42.7694 48.4544 42.7439 48.5745C42.6472 49.0242 42.3943 49.4259 42.0293 49.7092C41.7556 49.9217 41.4323 50.0623 41.0894 50.1179C40.7464 50.1734 40.3949 50.1423 40.0673 50.0273C39.6626 49.8839 39.3125 49.6198 39.0649 49.2713C38.8173 48.9227 38.6844 48.5067 38.6844 48.0802C38.6844 47.6538 38.8173 47.2377 39.0649 46.8892C39.3125 46.5406 39.6626 46.2765 40.0673 46.1331C40.3949 46.0181 40.7464 45.987 41.0894 46.0426C41.4323 46.0982 41.7556 46.2387 42.0293 46.4512C42.3946 46.7361 42.6475 47.1392 42.7439 47.5902C42.7697 47.7103 42.7813 47.8329 42.7786 47.9556C42.7916 48.0329 42.7873 48.0759 42.7786 48.0759Z" fill="#263238"/>
<path d="M38.8129 47.6409C38.7696 47.6796 38.5747 47.555 38.3148 47.5635C38.0549 47.5721 37.8817 47.6968 37.8211 47.6581C37.7604 47.6194 37.9423 47.3486 38.3105 47.34C38.6786 47.3314 38.8692 47.6065 38.8129 47.6409Z" fill="#263238"/>
<path d="M33.9648 47.9844C34.0038 48.0317 33.6227 48.3755 33.1202 48.7495C32.8362 49.0067 32.5035 49.2053 32.1414 49.334C32.1024 49.2867 32.4836 48.9429 32.986 48.5689C33.2694 48.3108 33.6023 48.112 33.9648 47.9844Z" fill="#263238"/>
<path d="M74.1713 48.1782C74.1713 48.2383 69.1602 48.2899 62.9797 48.2899C56.7992 48.2899 51.7881 48.2383 51.7881 48.1782C51.7881 48.118 56.7992 48.0664 62.9797 48.0664C69.1602 48.0664 74.1713 48.118 74.1713 48.1782Z" fill="#263238"/>
<path d="M63.8162 50.4989C63.8162 50.559 61.1569 50.6106 57.8739 50.6106C54.591 50.6106 51.9316 50.559 51.9316 50.4989C51.9316 50.4387 54.591 50.3828 57.8739 50.3828C61.1569 50.3828 63.8162 50.4344 63.8162 50.4989Z" fill="#263238"/>
<path d="M141.216 65.3398C143.177 66.4464 144.897 67.9279 146.276 69.6986C147.656 71.4693 148.668 73.494 149.254 75.6555C151.346 83.0828 157.743 102.425 157.743 102.425C157.743 102.425 161.399 106.693 161.789 109.852C162.179 113.011 161.399 120.658 160.221 122.085C159.88 122.499 159.442 122.824 158.945 123.031C158.448 123.239 157.908 123.322 157.371 123.275L141.983 121.827L135.919 81.5612L141.216 65.3398Z" fill="#FF725E"/>
<path d="M90.3339 64.6477C90.3339 64.6477 79.3285 68.0863 76.5869 71.052L85.5956 112.641L85.4354 125.768H137.617C137.617 125.119 138.085 82.1929 138.085 82.1929L141.216 65.3483L122.683 62.1118L119.028 59.2578L98.3984 60.298L95.2627 63.4056L90.3339 64.6477Z" fill="#FF725E"/>
<g opacity="0.3">
<path d="M94.5325 100.726C94.3722 100.373 94.1383 99.9907 93.7572 99.9133C93.1292 99.7844 92.7091 100.519 92.4968 101.121C90.8331 105.836 88.5278 110.303 85.645 114.398L85.5107 120.785C88.5425 118.245 91.5483 115.524 93.4887 112.081C95.429 108.639 96.1523 104.319 94.5325 100.726Z" fill="black"/>
</g>
<path d="M76.587 71.0508C76.587 71.0508 72.9618 75.955 71.4589 79.1572C69.956 82.3593 57.478 109.244 56.7331 112.025C55.9881 114.806 54.0478 123.549 59.7432 125.578H71.4676L83.2309 101.968L83.8329 74.5667L76.587 71.0508Z" fill="#FF725E"/>
<path d="M72.2087 108.521C72.2087 108.521 71.9488 108.293 71.4074 107.988C70.6347 107.577 69.8061 107.279 68.9474 107.103C68.3569 106.974 67.7575 106.891 67.1543 106.853C66.4593 106.802 65.7603 106.851 65.0797 107C63.5389 107.392 62.1598 108.252 61.134 109.458C60.091 110.651 59.3277 112.059 58.8992 113.58C58.5454 114.823 58.3105 116.097 58.1975 117.384C58.0849 118.484 58.0459 119.383 58.0069 119.997C58.0069 120.29 57.9723 120.526 57.9636 120.711C57.9639 120.795 57.9522 120.879 57.929 120.96C57.9234 120.877 57.9234 120.794 57.929 120.711C57.929 120.522 57.929 120.281 57.929 119.997C57.929 119.374 57.955 118.48 58.0459 117.371C58.1375 116.063 58.3595 114.767 58.7086 113.503C59.1341 111.947 59.9085 110.507 60.9738 109.291C62.0316 108.05 63.456 107.172 65.045 106.78C65.7397 106.637 66.4522 106.598 67.1586 106.664C67.7701 106.709 68.377 106.802 68.9733 106.944C69.8417 107.135 70.6746 107.46 71.4421 107.907C71.6488 108.033 71.8444 108.177 72.0268 108.336C72.0938 108.391 72.1548 108.453 72.2087 108.521Z" fill="#263238"/>
<path d="M66.6514 103.816C66.7795 103.778 66.912 103.758 67.0455 103.755C67.4073 103.727 67.7708 103.727 68.1326 103.755C68.6714 103.787 69.2062 103.866 69.7308 103.992C71.0214 104.301 72.2326 104.875 73.2867 105.677C73.7161 106.001 74.1147 106.364 74.4777 106.76C74.7238 107.028 74.9482 107.316 75.149 107.619C75.2308 107.725 75.2978 107.84 75.3483 107.963C75.3136 107.989 74.9931 107.533 74.3608 106.88C73.9872 106.509 73.5861 106.165 73.161 105.853C72.6376 105.475 72.0809 105.144 71.4979 104.864C70.9115 104.593 70.303 104.371 69.6788 104.202C69.1669 104.071 68.6456 103.979 68.1196 103.927C67.2187 103.811 66.6514 103.858 66.6514 103.816Z" fill="#263238"/>
<path d="M77.2447 102.521C77.0633 102.529 76.8817 102.516 76.7033 102.483C76.3568 102.44 75.8587 102.388 75.235 102.341C71.9959 102.101 68.7408 102.488 65.6503 103.48C65.0569 103.669 64.5805 103.837 64.2556 103.961C64.0899 104.034 63.9172 104.09 63.7402 104.129C63.8893 104.026 64.0508 103.942 64.221 103.88C64.5372 103.729 65.0093 103.54 65.5983 103.329C68.6911 102.243 71.9887 101.852 75.2524 102.186C75.8717 102.251 76.3741 102.324 76.7163 102.397C76.896 102.421 77.0729 102.463 77.2447 102.521Z" fill="#263238"/>
<path d="M110.636 79.5515C110.588 79.5106 110.547 79.4628 110.514 79.4096L110.194 78.9798L109.016 77.3637C108.007 75.9453 106.595 73.9681 104.936 71.6471L105.118 71.6213C104.485 73.4609 103.788 75.4897 103.056 77.6388L103.009 77.772L102.887 77.6946L102.645 77.5399C101.701 76.9404 100.843 76.2175 100.094 75.3908C99.4012 74.6211 98.7902 73.7829 98.2703 72.8893C97.405 71.3771 96.7314 69.7645 96.265 68.0882C95.9519 66.956 95.6989 65.8082 95.5071 64.6496C95.4378 64.2628 95.3858 63.949 95.3425 63.7126C95.3302 63.6324 95.3114 63.5534 95.2862 63.4762C95.2862 63.4247 95.2559 63.3989 95.2602 63.3946C95.2645 63.3903 95.4378 63.8244 95.5937 64.6367C95.7496 65.4491 95.9965 66.6182 96.4209 68.0323C96.9006 69.693 97.5827 71.2894 98.4522 72.7861C98.9707 73.663 99.5757 74.4865 100.258 75.2447C100.995 76.0516 101.837 76.757 102.762 77.3422L103 77.4969L102.835 77.5571C103.576 75.408 104.278 73.3921 104.919 71.5396L104.984 71.3505L105.101 71.5138C106.729 73.8564 108.132 75.8507 109.115 77.2777C109.588 77.974 109.982 78.5285 110.246 78.9325L110.536 79.3623C110.576 79.4217 110.609 79.4851 110.636 79.5515Z" fill="#263238"/>
<g opacity="0.3">
<path d="M124.211 99.3945C123.744 104.244 124.803 109.119 127.243 113.346C129.668 117.533 133.229 121.268 137.659 123.271C137.802 119.003 137.594 113.974 137.737 109.706L124.211 99.3945Z" fill="black"/>
</g>
<path d="M123.723 93.787C123.723 93.787 121.826 94.3071 123.247 98.1626C124.667 102.018 125.144 101.782 126.092 105.384C127.041 108.985 128.145 112.261 129.8 114.315C131.454 116.37 137.617 120.505 137.617 120.505L143.144 115.347C143.144 115.347 142.234 111.478 142.451 108.874C142.667 106.269 143.222 99.8475 143.144 98.7342C143.066 97.621 141.879 94.9733 141.879 94.9733V93.1509L139.038 84.4772C139.038 84.4772 137.457 83.7723 136.907 86.2781L135.958 83.6175C135.958 83.6175 134.46 83.3811 134.066 86.4371C133.672 89.4931 134.382 93.7226 134.382 93.7226L133.589 99.048L132.407 102.654L131.38 102.809C131.38 102.809 129.834 102.379 128.99 99.5036C128.145 96.6281 125.854 93.1595 123.723 93.787Z" fill="#FFBE9D"/>
<path d="M141.307 107.433C141.307 107.433 141.307 107.368 141.281 107.24C141.255 107.111 141.255 106.9 141.242 106.664C141.212 106.139 141.173 105.413 141.125 104.514C141.039 102.645 140.922 100.04 140.783 97.0012L140.805 97.0657C140.663 96.9202 140.484 96.8159 140.287 96.7644C140.09 96.7128 139.883 96.716 139.687 96.7734C139.475 96.8245 139.276 96.9169 139.1 97.0453C138.925 97.1737 138.777 97.3355 138.665 97.5213C138.18 98.2907 138.154 99.2965 138.003 100.264C137.704 102.46 137.418 104.562 137.158 106.457C137.028 107.411 136.889 108.314 136.703 109.152C136.528 109.929 136.298 110.694 136.015 111.439C135.772 112.122 135.555 112.728 135.421 113.3C135.301 113.771 135.242 114.254 135.244 114.74C135.259 115.158 135.332 115.571 135.46 115.969C135.408 115.873 135.365 115.772 135.33 115.668C135.227 115.37 135.169 115.059 135.157 114.744C135.136 114.246 135.184 113.747 135.3 113.261C135.452 112.623 135.641 111.995 135.867 111.379C136.135 110.636 136.352 109.876 136.517 109.105C136.695 108.275 136.829 107.386 136.95 106.423C137.201 104.514 137.483 102.426 137.777 100.225C137.847 99.7392 137.899 99.2535 137.985 98.7721C138.056 98.2855 138.221 97.8171 138.47 97.3924C138.599 97.1838 138.769 97.0026 138.969 96.8595C139.169 96.7163 139.395 96.614 139.635 96.5585C139.869 96.4889 140.117 96.4858 140.352 96.5496C140.588 96.6135 140.8 96.7417 140.965 96.9196L140.987 96.9496V96.984C141.095 100.023 141.186 102.628 141.251 104.502C141.251 105.408 141.29 106.135 141.307 106.651C141.307 106.887 141.307 107.08 141.307 107.227C141.315 107.295 141.315 107.364 141.307 107.433Z" fill="#EB996E"/>
<path d="M138.276 97.5425C138.178 97.3896 138.099 97.225 138.042 97.0525C137.861 96.5945 137.706 96.1267 137.579 95.6513C137.393 94.9458 137.261 94.2274 137.185 93.5022C137.131 93.0744 137.122 92.6423 137.159 92.2128C137.199 91.7326 137.363 91.2707 137.635 90.8717C137.878 90.514 138.235 90.2476 138.648 90.1152L138.731 90.0938L138.774 90.1668C139.575 91.568 140.273 92.8059 140.758 93.6956L141.325 94.7487C141.403 94.8721 141.464 95.005 141.507 95.1441C141.41 95.0349 141.326 94.9152 141.256 94.7874L140.632 93.7687C140.112 92.9091 139.389 91.6755 138.584 90.2786L138.709 90.3301C138.347 90.4504 138.035 90.6861 137.821 91.0007C137.572 91.3694 137.423 91.7958 137.388 92.2385C137.345 92.6587 137.345 93.0821 137.388 93.5022C137.453 94.2254 137.568 94.9434 137.73 95.6513C137.869 96.2531 138.02 96.7345 138.12 97.0654C138.188 97.2189 138.24 97.3787 138.276 97.5425Z" fill="#EB996E"/>
<path d="M136.95 98.2422C136.912 98.0774 136.894 97.9084 136.898 97.7393C136.898 97.3696 136.864 96.914 136.842 96.3767C136.807 95.2248 136.768 93.6345 136.747 91.8765C136.682 90.3735 136.705 88.8681 136.816 87.3677C136.87 86.9123 136.969 86.4632 137.11 86.0267C137.153 85.862 137.221 85.7052 137.314 85.5625C137.155 86.1608 137.041 86.7699 136.972 87.3849C136.864 88.5239 136.972 90.1143 136.972 91.8722C136.972 93.6302 137.007 95.2205 137.002 96.3724C137.002 96.914 137.002 97.3696 137.002 97.7393C137.003 97.9083 136.986 98.0769 136.95 98.2422Z" fill="#EB996E"/>
<path d="M132.276 112.692C132.246 112.666 132.592 112.262 133.017 111.527C133.266 111.099 133.481 110.652 133.662 110.191C133.875 109.623 134.04 109.04 134.156 108.446C134.257 107.849 134.308 107.245 134.308 106.64C134.301 106.146 134.258 105.654 134.178 105.166C134.035 104.328 133.853 103.829 133.892 103.816C133.96 103.921 134.013 104.036 134.048 104.156C134.17 104.474 134.266 104.802 134.334 105.136C134.44 105.63 134.5 106.132 134.515 106.636C134.553 107.879 134.328 109.117 133.853 110.268C133.661 110.735 133.428 111.184 133.155 111.609C132.975 111.897 132.771 112.171 132.545 112.426C132.385 112.606 132.289 112.701 132.276 112.692Z" fill="#EB996E"/>
<path d="M141.978 110.004L146.772 111.654C146.772 111.654 151.355 109.303 154.512 111.654C157.669 114.006 160.411 120.199 159.545 122.705C159.545 122.705 157.379 125.379 155.707 125.77C154.035 126.161 147.604 124.609 144.923 124.05C142.242 123.492 137.616 120.509 137.616 120.509L141.978 110.004Z" fill="#FFBE9D"/>
<path d="M142.569 117.009C142.535 116.868 142.518 116.724 142.517 116.579C142.517 116.257 142.478 115.874 142.452 115.427C142.4 114.456 142.335 113.115 142.313 111.627C142.291 110.14 142.335 108.795 142.422 107.824C142.465 107.338 142.521 106.964 142.569 106.676C142.58 106.528 142.613 106.383 142.669 106.246C142.703 106.246 142.63 106.848 142.582 107.819C142.534 108.791 142.517 110.127 142.539 111.61C142.56 113.093 142.591 114.374 142.608 115.406C142.608 115.891 142.608 116.287 142.608 116.557C142.62 116.709 142.606 116.861 142.569 117.009Z" fill="#EB996E"/>
<path d="M158.379 111.466C157.882 110.953 157.35 110.477 156.785 110.039C155.399 109.009 153.736 108.409 152.007 108.315C150.277 108.221 148.558 108.637 147.066 109.51C146.461 109.884 145.882 110.299 145.334 110.752C145.448 110.594 145.581 110.45 145.728 110.322C146.118 109.963 146.543 109.643 146.997 109.368C148.504 108.437 150.263 107.99 152.035 108.087C153.807 108.185 155.505 108.823 156.898 109.914C157.319 110.235 157.705 110.6 158.05 111.001C158.178 111.143 158.288 111.299 158.379 111.466Z" fill="#263238"/>
<path d="M157.764 107.496C157.145 107.054 156.475 106.688 155.768 106.404C154.03 105.792 152.142 105.736 150.371 106.245C149.397 106.516 148.459 106.903 147.578 107.397C146.86 107.806 146.183 108.281 145.555 108.815C145.018 109.271 144.606 109.675 144.325 109.946C144.187 110.102 144.035 110.246 143.87 110.376C143.983 110.202 144.113 110.041 144.26 109.894C144.634 109.475 145.032 109.078 145.451 108.704C146.073 108.146 146.751 107.652 147.474 107.229C148.364 106.713 149.317 106.313 150.31 106.039C152.125 105.513 154.064 105.593 155.828 106.267C156.355 106.476 156.852 106.753 157.305 107.092C157.466 107.208 157.574 107.32 157.656 107.388C157.738 107.457 157.764 107.492 157.764 107.496Z" fill="#263238"/>
<path d="M157.803 104.049C157.803 104.092 156.936 103.839 155.559 103.654C154.745 103.546 153.925 103.494 153.103 103.499C152.097 103.51 151.094 103.599 150.102 103.766C149.112 103.946 148.138 104.202 147.187 104.531C146.412 104.804 145.658 105.131 144.931 105.511C143.688 106.156 142.986 106.68 142.96 106.641C143.107 106.5 143.268 106.373 143.441 106.263C143.629 106.116 143.828 105.981 144.034 105.859C144.272 105.709 144.541 105.532 144.853 105.369C145.581 104.969 146.338 104.625 147.118 104.337C148.075 103.991 149.06 103.726 150.063 103.547C151.065 103.378 152.079 103.293 153.095 103.293C153.926 103.297 154.756 103.365 155.577 103.495C155.927 103.538 156.239 103.62 156.512 103.676C156.749 103.723 156.983 103.783 157.214 103.856C157.415 103.903 157.612 103.968 157.803 104.049Z" fill="#263238"/>
<path d="M121.063 61.9688C121.243 62.3689 121.354 62.796 121.392 63.2324C121.522 64.4651 121.46 65.7102 121.21 66.9246C121.058 67.7962 120.852 68.6575 120.591 69.5035C120.25 70.4879 119.83 71.4437 119.335 72.3618C118.3 74.3389 117.001 76.4923 115.493 78.8091L115.32 79.0798V78.7575C115.32 77.2359 115.32 75.6413 115.32 73.9865L115.489 74.0682L111.422 77.2875L111.457 77.2359C110.492 80.3734 109.899 83.6117 109.69 86.8854C109.291 92.1163 109.612 97.1193 109.858 101.658C110.105 106.197 110.214 110.293 110.357 113.732C110.5 117.17 110.616 119.947 110.72 121.868C110.781 122.823 110.824 123.562 110.855 124.078C110.855 124.323 110.885 124.507 110.894 124.654C110.902 124.8 110.894 124.851 110.894 124.851C110.894 124.851 110.894 124.787 110.863 124.658C110.833 124.529 110.829 124.327 110.803 124.082C110.755 123.579 110.694 122.835 110.629 121.873C110.5 119.956 110.348 117.175 110.196 113.736C110.045 110.298 109.858 106.21 109.651 101.667C109.443 97.1236 109.066 92.1162 109.464 86.8682C109.683 83.575 110.292 80.3189 111.279 77.1671V77.1371H111.305L115.359 73.9091L115.528 73.7716V73.9865C115.528 75.6413 115.528 77.2359 115.528 78.7575L115.35 78.7016C118.326 74.124 120.747 70.1439 121.119 66.9246C121.377 65.7217 121.455 64.488 121.353 63.2625C121.318 62.9405 121.259 62.6216 121.176 62.3083C121.089 62.0762 121.063 61.9688 121.063 61.9688Z" fill="#263238"/>
<path d="M113.293 117.41H113.155C112.839 117.43 112.544 117.571 112.332 117.803C112.119 118.036 112.006 118.341 112.016 118.654C112.026 118.968 112.159 119.265 112.386 119.483C112.613 119.701 112.917 119.823 113.233 119.823C113.549 119.823 113.852 119.701 114.079 119.483C114.306 119.265 114.439 118.968 114.449 118.654C114.459 118.341 114.346 118.036 114.134 117.803C113.921 117.571 113.626 117.43 113.311 117.41H113.293Z" fill="white"/>
<path d="M113.292 100.848H113.153C112.839 100.868 112.545 101.008 112.333 101.24C112.122 101.471 112.009 101.775 112.019 102.087C112.029 102.4 112.161 102.696 112.388 102.913C112.614 103.131 112.916 103.252 113.231 103.252C113.546 103.252 113.849 103.131 114.075 102.913C114.301 102.696 114.433 102.4 114.443 102.087C114.453 101.775 114.341 101.471 114.129 101.24C113.917 101.008 113.623 100.868 113.309 100.848H113.292Z" fill="white"/>
<path d="M113.154 86.0252C113.477 86.0463 113.796 85.9391 114.04 85.7271C114.283 85.5151 114.432 85.2157 114.453 84.8948C114.475 84.5739 114.367 84.2578 114.153 84.0159C113.939 83.7741 113.638 83.6264 113.314 83.6053H113.154C112.83 83.6053 112.519 83.733 112.29 83.9604C112.061 84.1877 111.933 84.496 111.933 84.8174C111.933 85.1389 112.061 85.4472 112.29 85.6745C112.519 85.9018 112.83 86.0295 113.154 86.0295V86.0252Z" fill="white"/>
<path d="M94.432 42.5562C92.9161 40.8842 91.4002 39.1993 90.2785 37.2393C89.1567 35.2793 88.5114 32.9884 88.8752 30.792C89.0917 29.5026 89.6461 28.2561 89.7414 26.9237C89.8627 25.1184 89.1004 23.2315 89.7414 21.5423C90.7462 18.8946 94.3367 18.4863 96.5109 16.6596C98.2044 15.2369 99.0273 12.9288 100.89 11.7339C102.518 10.6851 104.61 10.7109 106.52 10.9774C108.43 11.2439 110.371 11.7296 112.294 11.4717C113.662 11.2911 114.953 10.741 116.291 10.41C117.629 10.0791 119.132 9.98019 120.323 10.6851C121.515 11.39 122.19 13.0534 121.406 14.1838C123.632 13.1652 126.461 14.8887 127.071 17.2441C127.682 19.5995 126.461 22.1484 124.572 23.6914C122.684 25.2345 120.241 25.9695 117.837 26.4208C111.02 27.7102 103.618 26.9752 97.741 23.3132" fill="#263238"/>
<path d="M118.412 65.3015C118.079 62.7226 117.806 60.6036 117.788 60.3371C117.788 60.3371 126.416 58.4115 125.94 49.755C125.71 45.5686 124.532 36.9894 123.371 29.2397C122.775 25.2223 120.675 21.5756 117.489 19.0264C114.304 16.4773 110.268 15.213 106.185 15.4855L105.319 15.5371C96.2888 16.6675 92.2045 24.9115 93.5905 33.8431L98.4673 63.7886C98.4673 63.7886 100.546 70.4121 104.994 71.5597L110.625 79.5199L111.552 76.0814L115.735 72.4623C116.537 71.5267 117.23 70.5045 117.801 69.4149C118.44 68.143 118.654 66.7022 118.412 65.3015Z" fill="#FFBE9D"/>
<path d="M117.792 60.2238C117.792 60.2238 112.313 61.0319 106.211 57.7695C106.211 57.7695 109.321 63.8171 117.966 62.4632L117.792 60.2238Z" fill="#EB996E"/>
<path d="M120.571 36.6886C120.595 37.0107 120.492 37.3296 120.283 37.5775C120.075 37.8255 119.777 37.983 119.453 38.0168C119.296 38.0397 119.135 38.031 118.981 37.9912C118.827 37.9515 118.682 37.8814 118.556 37.7853C118.429 37.6891 118.324 37.5687 118.245 37.4313C118.166 37.2939 118.116 37.1422 118.098 36.9852C118.069 36.6605 118.17 36.3377 118.381 36.0872C118.591 35.8367 118.892 35.679 119.219 35.6485C119.377 35.6262 119.538 35.6357 119.692 35.6762C119.846 35.7168 119.991 35.7877 120.117 35.8847C120.243 35.9818 120.348 36.1029 120.426 36.241C120.504 36.3791 120.553 36.5313 120.571 36.6886Z" fill="#263238"/>
<path d="M121.786 33.6194C121.643 33.7913 120.652 33.1595 119.313 33.2541C117.975 33.3486 117.052 34.075 116.879 33.9289C116.806 33.8644 116.944 33.5635 117.351 33.224C117.903 32.7863 118.578 32.5295 119.283 32.489C119.98 32.4387 120.676 32.612 121.267 32.9833C121.7 33.2584 121.856 33.542 121.786 33.6194Z" fill="#263238"/>
<path d="M107.915 37.591C107.94 37.9128 107.838 38.2318 107.629 38.4793C107.42 38.7268 107.121 38.8832 106.798 38.9148C106.64 38.9384 106.48 38.9303 106.326 38.891C106.172 38.8517 106.027 38.7821 105.9 38.6863C105.774 38.5905 105.668 38.4704 105.589 38.3331C105.511 38.1959 105.461 38.0444 105.442 37.8875C105.418 37.5661 105.52 37.2478 105.728 37C105.936 36.7522 106.232 36.5942 106.555 36.5594C106.713 36.5365 106.874 36.5451 107.028 36.5848C107.183 36.6245 107.327 36.6945 107.454 36.7907C107.581 36.8868 107.687 37.0071 107.766 37.1446C107.845 37.282 107.896 37.4338 107.915 37.591Z" fill="#263238"/>
<path d="M108.636 34.7411C108.489 34.913 107.501 34.2812 106.163 34.3757C104.825 34.4703 103.885 35.1967 103.729 35.042C103.651 34.9775 103.789 34.6766 104.197 34.3371C104.75 33.9 105.426 33.6434 106.133 33.6021C106.829 33.5524 107.522 33.7257 108.112 34.0964C108.545 34.38 108.705 34.6637 108.636 34.7411Z" fill="#263238"/>
<path d="M114.16 44.2771C114.16 44.1997 114.975 44.002 116.326 43.7398C116.664 43.684 116.984 43.5937 117.028 43.3616C117.032 43.0082 116.928 42.6619 116.729 42.3687L115.542 39.85C113.892 36.2653 112.67 33.3038 112.818 33.2394C112.965 33.1749 114.42 36.0289 116.075 39.6179L117.218 42.1538C117.46 42.5489 117.555 43.0159 117.487 43.4733C117.445 43.5959 117.375 43.7075 117.284 43.7998C117.192 43.8921 117.081 43.9627 116.958 44.0063C116.772 44.0704 116.579 44.1109 116.382 44.1267C115.014 44.29 114.173 44.3502 114.16 44.2771Z" fill="#263238"/>
<path d="M108.629 29.5063C108.521 29.8803 107.174 29.7943 105.598 30.0866C104.021 30.3788 102.795 30.8903 102.566 30.5809C102.462 30.4304 102.661 30.078 103.151 29.6911C103.806 29.219 104.561 28.9003 105.358 28.7589C106.156 28.6174 106.975 28.657 107.755 28.8745C108.365 29.0679 108.677 29.3344 108.629 29.5063Z" fill="#263238"/>
<path d="M121.033 29.8011C120.82 30.1191 119.876 29.8698 118.763 29.9257C117.65 29.9816 116.727 30.2653 116.489 29.9644C116.385 29.8183 116.515 29.5045 116.922 29.1907C117.451 28.813 118.081 28.5992 118.733 28.5763C119.384 28.5533 120.027 28.7223 120.582 29.0618C120.981 29.3455 121.128 29.6291 121.033 29.8011Z" fill="#263238"/>
<path d="M94.7561 40.232C94.6045 40.1805 88.6492 38.8738 89.2382 44.7752C89.8273 50.6766 96.2633 48.7511 96.2633 48.5834C96.2633 48.4158 94.7561 40.232 94.7561 40.232Z" fill="#FFBE9D"/>
<path d="M93.6308 46.641C93.6005 46.641 93.5355 46.7227 93.3666 46.8172C93.1319 46.9473 92.8552 46.9812 92.5956 46.9118C91.9416 46.7442 91.2963 45.8072 91.1794 44.7627C91.1147 44.2583 91.1635 43.746 91.3223 43.2626C91.3611 43.074 91.4451 42.8973 91.5673 42.7477C91.6894 42.5981 91.846 42.4798 92.0239 42.403C92.1403 42.3604 92.268 42.3594 92.385 42.4002C92.502 42.441 92.601 42.521 92.6649 42.6265C92.7602 42.7855 92.7342 42.9059 92.7646 42.9102C92.7949 42.9145 92.8815 42.8027 92.8122 42.562C92.7634 42.4187 92.6672 42.2961 92.5393 42.2139C92.4512 42.1552 92.3523 42.1143 92.2483 42.0936C92.1442 42.073 92.0371 42.073 91.933 42.0935C91.6941 42.1662 91.4779 42.2984 91.3051 42.4775C91.1322 42.6565 91.0084 42.8765 90.9455 43.1165C90.7424 43.6523 90.6755 44.2295 90.7506 44.7971C90.9065 45.9834 91.6168 47.0364 92.5133 47.1955C92.6781 47.2265 92.8479 47.2203 93.0099 47.1771C93.1719 47.1339 93.3219 47.055 93.4489 46.9462C93.6351 46.7828 93.6654 46.6496 93.6308 46.641Z" fill="#EB996E"/>
<path d="M122.935 21.1881C122.528 23.5392 117.737 25.6926 113.744 25.5765C110.076 25.469 108.261 23.6638 105.597 22.3786C103.908 21.5663 103.908 21.5663 101.617 21.9488C99.7676 22.2454 98.8061 24.416 97.7666 25.9633C99.7459 30.2615 98.9447 35.2302 98.1044 39.8723C98.0682 40.3958 97.8562 40.8922 97.5024 41.2821C96.8354 41.8666 95.7699 41.5185 95.0943 40.921C94.0418 39.9625 93.5611 38.5441 93.2189 37.1687C92.3797 34.0404 92.1794 30.7771 92.6299 27.5709C93.0852 24.3489 94.4826 21.3303 96.6492 18.8885C99.4826 15.9255 103.365 14.1703 107.477 13.9929C111.569 13.8473 115.603 14.9843 119.006 17.2423C120.583 18.2696 122.038 19.5375 122.948 21.1838" fill="#263238"/>
<path d="M115.04 47.2584L112.008 45.8572C111.842 45.7597 111.651 45.7119 111.458 45.7197C111.245 45.7673 111.057 45.8933 110.934 46.0721C110.578 46.4943 110.357 47.0112 110.297 47.5581C110.237 48.1049 110.341 48.6571 110.596 49.1453C110.873 49.6209 111.31 49.9853 111.83 50.1752C112.349 50.3652 112.919 50.3688 113.441 50.1855C114.516 49.7557 115.035 48.5049 115.122 47.353L115.04 47.2584Z" fill="#EB996E"/>
<path d="M113.535 50.4077C113.535 50.4335 113.392 50.5194 113.102 50.5839C112.668 50.6612 112.221 50.6287 111.803 50.4893C111.163 50.2756 110.627 49.8326 110.3 49.2472C110.093 48.8904 109.968 48.4923 109.936 48.0818C109.904 47.6713 109.965 47.2588 110.114 46.8745C110.266 46.4763 110.506 46.1166 110.815 45.8215C110.965 45.6805 111.131 45.5565 111.309 45.4519C111.416 45.3888 111.536 45.352 111.66 45.3444C111.78 45.3396 111.9 45.3616 112.011 45.4089C112.172 45.4898 112.33 45.5787 112.483 45.6754L112.894 45.9289L113.635 46.3846C114.531 46.9519 115.073 47.3302 115.042 47.3817C115.012 47.4333 114.414 47.1582 113.474 46.6596L112.708 46.2298L112.275 45.9934C112.128 45.9204 111.972 45.8215 111.842 45.7699C111.788 45.7445 111.729 45.7343 111.67 45.7404C111.611 45.7464 111.555 45.7686 111.508 45.8043C111.364 45.8943 111.231 45.9995 111.11 46.1181C110.853 46.372 110.652 46.6766 110.521 47.0121C110.395 47.3376 110.342 47.6862 110.364 48.0341C110.386 48.382 110.484 48.721 110.651 49.0279C110.921 49.5424 111.363 49.9468 111.902 50.1713C112.275 50.3203 112.674 50.3948 113.076 50.3905C113.362 50.4034 113.522 50.3776 113.535 50.4077Z" fill="#263238"/>
<path d="M112.579 36.8359C112.536 36.3323 112.456 35.8324 112.341 35.3401C112.126 34.5171 111.741 33.7477 111.209 33.0814C110.677 32.4151 110.01 31.8666 109.252 31.4711C108.494 31.0756 107.661 30.8419 106.806 30.785C105.951 30.7282 105.094 30.8493 104.289 31.1408C103.735 31.3383 103.213 31.618 102.743 31.9704C102.242 32.3267 101.803 32.7623 101.444 33.2598C100.672 34.2956 100.255 35.5498 100.255 36.838C100.255 38.1263 100.672 39.3806 101.444 40.4163C101.803 40.9138 102.242 41.3494 102.743 41.7058C103.213 42.0581 103.735 42.3378 104.289 42.5353C105.094 42.824 105.951 42.9431 106.805 42.885C107.658 42.8268 108.491 42.5927 109.248 42.1976C110.006 41.8025 110.672 41.2551 111.204 40.5902C111.737 39.9253 112.124 39.1576 112.341 38.336C112.456 37.8451 112.535 37.3466 112.579 36.8445C112.584 36.8773 112.584 36.9106 112.579 36.9434C112.579 37.0207 112.579 37.1196 112.579 37.2356C112.583 37.3954 112.571 37.5552 112.544 37.7127C112.52 37.93 112.481 38.1454 112.427 38.3575C112.29 38.9426 112.064 39.5035 111.756 40.0209C111.016 41.2756 109.857 42.2336 108.479 42.7283C107.102 43.223 105.593 43.2231 104.216 42.7287C103.642 42.525 103.103 42.2351 102.617 41.8691C102.1 41.5014 101.647 41.0529 101.275 40.5409C100.475 39.468 100.043 38.1685 100.043 36.8338C100.043 35.499 100.475 34.1995 101.275 33.1266C101.644 32.6138 102.096 32.1651 102.613 31.7984C103.098 31.4324 103.637 31.1425 104.211 30.9388C105.273 30.5606 106.417 30.4715 107.525 30.6809C108.402 30.8474 109.233 31.1982 109.962 31.7097C110.691 32.2212 111.301 32.8817 111.752 33.6466C112.06 34.164 112.286 34.7249 112.423 35.31C112.477 35.5221 112.516 35.7375 112.54 35.9548C112.567 36.1123 112.579 36.2721 112.575 36.4319C112.575 36.5479 112.575 36.6468 112.575 36.7241C112.582 36.761 112.583 36.7986 112.579 36.8359Z" fill="#263238"/>
<path d="M127.408 36.2543C127.365 35.7639 127.289 35.277 127.178 34.7972C126.831 33.4972 126.053 32.3511 124.969 31.5435C124.231 30.9863 123.37 30.6106 122.457 30.4474C121.41 30.2567 120.33 30.3472 119.33 30.7096C118.792 30.9028 118.286 31.1736 117.827 31.5134C117.345 31.8638 116.921 32.2874 116.571 32.7685C115.823 33.7788 115.419 35.0002 115.419 36.2543C115.419 37.5084 115.823 38.7297 116.571 39.7401C116.92 40.2209 117.344 40.6431 117.827 40.9909C118.285 41.3336 118.791 41.606 119.33 41.799C120.331 42.1594 121.41 42.2498 122.457 42.0611C123.37 41.8979 124.231 41.5223 124.969 40.9651C126.053 40.1575 126.831 39.0114 127.178 37.7114C127.289 37.2315 127.365 36.7447 127.408 36.2543C127.418 36.3816 127.418 36.5095 127.408 36.6368C127.409 36.7937 127.398 36.9504 127.373 37.1053C127.35 37.3168 127.313 37.5265 127.261 37.7329C126.985 38.8586 126.389 39.8821 125.545 40.682C124.7 41.482 123.642 42.0247 122.496 42.246C121.416 42.4484 120.3 42.3608 119.265 41.9924C118.121 41.5786 117.124 40.8402 116.398 39.8691C115.619 38.8226 115.198 37.5556 115.198 36.2543C115.198 34.953 115.619 33.686 116.398 32.6395C117.124 31.6683 118.121 30.93 119.265 30.5162C120.3 30.1477 121.416 30.0602 122.496 30.2626C123.642 30.4839 124.7 31.0266 125.545 31.8266C126.389 32.6265 126.985 33.65 127.261 34.7757C127.313 34.9821 127.35 35.1918 127.373 35.4033C127.398 35.5582 127.409 35.7149 127.408 35.8718C127.418 35.9991 127.418 36.127 127.408 36.2543Z" fill="#263238"/>
<path d="M115.321 34.9023C115.295 34.9237 115.152 34.8077 114.887 34.6831C114.547 34.5221 114.173 34.4412 113.796 34.4467C113.42 34.452 113.05 34.5463 112.718 34.7217C112.458 34.855 112.319 34.9796 112.284 34.9538C112.25 34.9281 112.362 34.7647 112.622 34.5842C112.965 34.3529 113.367 34.2259 113.782 34.219C114.196 34.2122 114.603 34.3257 114.952 34.5455C115.217 34.7174 115.321 34.8851 115.321 34.9023Z" fill="#263238"/>
<path d="M100.528 35.9648C99.6709 36.7374 98.7653 37.4552 97.8167 38.1139C96.9092 38.8301 95.9574 39.489 94.9668 40.0868C95.8229 39.3114 96.7301 38.5935 97.6824 37.9377C98.5872 37.22 99.5377 36.561 100.528 35.9648Z" fill="#263238"/>
<g opacity="0.3">
<path d="M95.397 63.9336C94.795 69.7662 97.0299 75.9255 101.746 79.4586C102.115 79.738 102.578 80.0131 103.015 79.8541C103.307 79.7139 103.54 79.4766 103.674 79.1836C104.995 76.9188 105.49 74.272 105.077 71.6875C104.332 73.6389 103.691 75.5559 102.938 77.5932C98.8359 75.1175 96.2633 69.8565 95.397 63.9336Z" fill="black"/>
</g>
<path opacity="0.3" d="M111.366 77.1995L114.831 75.9445L115.403 81.7513C115.403 81.7513 119.136 74.9989 120.682 71.9214C122.229 68.8439 121.432 63.4023 121.432 63.4023C121.432 63.4023 121.982 68.1304 118.244 74.1779L115.42 78.734V73.963L111.366 77.1995Z" fill="black"/>
<g opacity="0.3">
<path d="M71.1416 106.714C69.562 106.048 67.8267 105.832 66.1305 106.09C64.3229 106.237 62.5936 106.887 61.141 107.964C59.7377 109.086 58.7892 110.857 58.9755 112.637L59.1487 112.658C60.3571 109.417 62.7565 107.07 65.8533 106.774C68.95 106.477 71.9688 107.853 74.0824 110.109C73.8529 108.424 72.6661 107.432 71.1416 106.714Z" fill="black"/>
</g>
<g opacity="0.3">
<path d="M158.605 110.009C157.404 108.786 155.835 107.985 154.135 107.726C152.654 107.48 151.136 107.568 149.694 107.982C148.251 108.397 146.921 109.127 145.802 110.12L146.46 109.587C148.135 108.586 150.058 108.068 152.013 108.092C153.975 108.125 155.856 108.871 157.301 110.189C158.6 111.41 159.375 113.065 160.116 114.676C160.236 113.836 160.162 112.979 159.901 112.17C159.639 111.362 159.196 110.623 158.605 110.009Z" fill="black"/>
</g>
<path d="M136.303 83.054C136.338 82.8928 136.39 82.7357 136.459 82.5855C136.593 82.2459 136.757 81.829 136.948 81.3347C137.381 80.2816 137.944 78.8289 138.551 77.2084C139.157 75.588 139.681 74.1137 140.058 73.0478L140.491 71.7798C140.537 71.6215 140.601 71.4687 140.681 71.3242C140.668 71.4889 140.632 71.6509 140.573 71.8056C140.491 72.1151 140.361 72.5535 140.192 73.0951C139.854 74.1782 139.352 75.674 138.745 77.2858C138.139 78.8976 137.537 80.359 137.078 81.3949C136.853 81.915 136.645 82.3319 136.519 82.6199C136.465 82.7728 136.393 82.9186 136.303 83.054Z" fill="#263238"/>
<path d="M81.7029 83.4743C81.6423 83.4743 81.1702 81.4413 80.6504 78.9053C80.1307 76.3694 79.7582 74.3278 79.8059 74.2934C79.8535 74.259 80.3343 76.3264 80.854 78.8624C81.3737 81.3983 81.7635 83.4614 81.7029 83.4743Z" fill="#263238"/>
<path d="M80.884 109.049C81.0226 109.117 79.2988 95.6554 79.2988 95.6554C79.2988 95.6554 80.3859 85.4386 80.9966 84.9658V81.3596C80.9966 81.3596 82.6814 80.3495 83.1319 81.9828C83.1319 81.9828 84.6261 80.6934 84.8643 83.758C85.1025 86.8226 85.1805 89.9517 85.1805 89.9517L88.5025 98.1956L89.0482 98.4707C89.0482 98.4707 89.7628 92.0234 90.1786 91.0606C90.5944 90.0978 90.8803 87.7983 92.4525 88.1465C94.0247 88.4946 94.1589 89.7841 93.8774 91.8902C93.5959 93.9963 93.2407 96.1884 93.375 97.538C93.5092 98.8876 94.1286 101.892 93.938 104.273C93.7475 106.654 92.4308 109.165 91.0535 110.927C89.6762 112.689 87.0385 116.338 85.6093 117.434C85.1458 117.821 80.884 109.049 80.884 109.049Z" fill="#FFBE9D"/>
<path d="M82.5628 98.0906C82.5411 97.8992 82.5411 97.7061 82.5628 97.5147C82.5888 97.0849 82.6278 96.5777 82.6711 95.9501C82.7707 94.6306 82.9266 92.8081 83.1042 90.7923C83.1995 89.7908 83.2904 88.8366 83.3727 87.9598C83.4222 87.5558 83.4222 87.1474 83.3727 86.7434C83.3266 86.3975 83.1756 86.0737 82.9396 85.815C82.7665 85.6297 82.5568 85.4818 82.3236 85.3805C82.0903 85.2792 81.8386 85.2267 81.584 85.2262C81.3934 85.2351 81.2037 85.2581 81.0166 85.2949C81.0591 85.2654 81.1058 85.2422 81.1552 85.2262C81.2941 85.1745 81.4402 85.144 81.5883 85.1359C81.8614 85.1204 82.1347 85.1634 82.3895 85.2621C82.6444 85.3607 82.8748 85.5127 83.0652 85.7075C83.3271 85.9866 83.4951 86.3396 83.546 86.7176C83.6003 87.1357 83.6003 87.5589 83.546 87.977C83.468 88.8366 83.3814 89.8123 83.2948 90.8138C83.1085 92.8253 82.9266 94.6435 82.7837 95.9716L82.6061 97.5319C82.6078 97.719 82.5934 97.9059 82.5628 98.0906Z" fill="#EB996E"/>
<path d="M84.3486 92.5867C84.1067 92.9137 83.9087 93.2706 83.7596 93.6483C83.4954 94.6001 83.3114 95.5719 83.2095 96.5539C83.0276 97.7058 82.8544 98.746 82.7158 99.4982C82.6655 99.9084 82.5756 100.313 82.4473 100.706C82.4489 100.292 82.4866 99.8796 82.5599 99.4724C82.6552 98.7159 82.8067 97.6714 82.993 96.5195C83.1792 95.3676 83.3005 94.3146 83.621 93.5925C83.7349 93.3095 83.8943 93.0468 84.0931 92.8145C84.236 92.6426 84.34 92.5781 84.3486 92.5867Z" fill="#EB996E"/>
<path d="M83.126 81.8047C83.1863 81.9414 83.2257 82.0863 83.2429 82.2345C83.3035 82.5096 83.3772 82.9093 83.4595 83.4079C83.6241 84.4008 83.806 85.7805 83.9229 87.315C84.0398 88.8494 84.0615 90.242 84.0442 91.2478C84.0442 91.7507 84.0225 92.159 84.0009 92.4384C84.0045 92.5834 83.987 92.7282 83.9489 92.8682C83.8964 92.3283 83.8747 91.7859 83.8839 91.2435C83.8623 90.2377 83.8103 88.8537 83.6977 87.3278C83.5851 85.802 83.4291 84.4223 83.3035 83.4251C83.2121 82.8889 83.1528 82.3478 83.126 81.8047Z" fill="#EB996E"/>
<path d="M92.7112 94.426C92.547 94.5312 92.3592 94.5949 92.1644 94.6114C91.9696 94.6278 91.7736 94.5967 91.5938 94.5205C90.9571 94.3314 90.6626 93.8457 90.7276 93.8242C91.0258 94.0121 91.3403 94.1732 91.6674 94.3056C92.0114 94.3744 92.3605 94.4146 92.7112 94.426Z" fill="#EB996E"/>
<path d="M81.0705 107.375L72.2956 111.037H67.0636C67.0636 111.037 61.8923 112.64 61.0954 117.454C60.2984 122.268 60.1858 124.74 62.4597 125.337C64.7335 125.935 71.1566 125.999 74.3399 124.95C77.5233 123.902 85.865 117.214 85.865 117.214L86.6663 112.382L81.0705 107.375Z" fill="#FFBE9D"/>
<path d="M83.1266 112.694C83.1266 112.694 83.027 112.621 82.8754 112.466C82.6665 112.241 82.4767 112 82.308 111.744C81.7587 110.894 81.3452 109.964 81.0823 108.989C80.8107 108.022 80.6294 107.032 80.5409 106.032C80.4826 105.619 80.4709 105.201 80.5063 104.785C80.6001 105.188 80.6638 105.598 80.6969 106.01C80.8305 106.995 81.0317 107.97 81.2989 108.929C81.5604 109.885 81.9447 110.803 82.4423 111.662C82.8364 112.311 83.1569 112.664 83.1266 112.694Z" fill="#EB996E"/>
<path d="M86.9515 114.221C87.1838 113.618 87.3508 112.993 87.4495 112.355C87.646 110.8 87.2234 109.23 86.2715 107.98C85.7388 107.241 85.1367 106.596 84.63 105.968C84.1685 105.421 83.7704 104.824 83.4433 104.189C83.2285 103.755 83.0824 103.291 83.0101 102.813C82.9836 102.64 82.9836 102.463 83.0101 102.289C83.1117 102.925 83.3134 103.542 83.6078 104.116C83.949 104.729 84.354 105.305 84.8162 105.835C85.323 106.445 85.9293 107.09 86.475 107.847C87.0059 108.556 87.3794 109.369 87.5708 110.232C87.7184 110.939 87.7375 111.667 87.6271 112.381C87.5543 112.858 87.4204 113.323 87.2287 113.765C87.1594 113.92 87.0944 114.036 87.0511 114.113C87.0078 114.191 86.9558 114.225 86.9515 114.221Z" fill="#EB996E"/>
<path d="M73.4171 93.2419C72.6387 91.989 71.9246 90.6979 71.2775 89.3735C70.1514 87.2244 69.2852 85.4363 69.3372 85.4062C70.1156 86.6591 70.8297 87.9502 71.4768 89.2746C72.1913 90.5633 72.8389 91.8875 73.4171 93.2419Z" fill="white"/>
<path d="M87.6016 77.5598C87.9708 76.4579 88.4121 75.381 88.9225 74.3361C89.3656 73.2623 89.8763 72.2172 90.4514 71.207C90.0799 72.3081 89.6387 73.3848 89.1304 74.4307C88.6885 75.5049 88.1778 76.5501 87.6016 77.5598Z" fill="white"/>
<path d="M101.516 87.744C100.797 87.0578 100.131 86.3194 99.5237 85.5347C98.8613 84.7964 98.2547 84.0106 97.709 83.1836C98.4282 83.868 99.0928 84.6066 99.697 85.3929C100.362 86.1305 100.97 86.9164 101.516 87.744Z" fill="white"/>
<path d="M98.3154 101.737C98.7549 100.951 99.256 100.201 99.814 99.4932C100.316 98.7452 100.88 98.0393 101.499 97.3828C101.061 98.1692 100.559 98.9195 100 99.6265C99.5006 100.377 98.9369 101.083 98.3154 101.737Z" fill="white"/>
<path d="M94.0116 121.516C93.8095 121.25 93.6394 120.961 93.5049 120.656C93.219 120.106 92.8509 119.336 92.4784 118.472C92.1059 117.609 91.8071 116.805 91.6122 116.225C91.4827 115.915 91.3896 115.592 91.335 115.262C91.5133 115.547 91.6586 115.851 91.7681 116.169L92.6993 118.382C93.0587 119.203 93.3792 119.947 93.6608 120.587C93.8121 120.883 93.9298 121.194 94.0116 121.516Z" fill="white"/>
<path d="M106.225 113.111C105.339 113.053 104.46 112.922 103.596 112.72C102.714 112.59 101.844 112.386 100.997 112.109C102.755 112.297 104.493 112.632 106.194 113.111H106.225Z" fill="white"/>
<path d="M115.753 94.6267C116.529 93.6291 117.365 92.6789 118.256 91.7813C119.094 90.8303 119.988 89.929 120.933 89.082C120.154 90.0797 119.316 91.0312 118.425 91.9317C117.587 92.8801 116.695 93.7799 115.753 94.6267Z" fill="white"/>
<path d="M125.281 119.266C125.234 119.309 123.835 117.697 122.154 115.677C120.474 113.657 119.153 111.981 119.2 111.942C119.248 111.903 120.647 113.511 122.328 115.531C124.008 117.551 125.32 119.228 125.281 119.266Z" fill="white"/>
<path d="M66.0334 108.773C66.0637 108.834 64.786 109.478 63.3914 110.54C61.9968 111.602 61.0266 112.65 60.9746 112.603C61.132 112.331 61.3307 112.085 61.5636 111.872C62.0824 111.323 62.6475 110.818 63.2528 110.364C63.8555 109.907 64.4959 109.502 65.1671 109.152C65.4358 108.984 65.7276 108.857 66.0334 108.773Z" fill="white"/>
<path d="M69.6002 99.2578C69.325 99.866 68.9837 100.442 68.5824 100.977C68.2405 101.553 67.8352 102.089 67.374 102.576C67.65 101.968 67.9912 101.392 68.3918 100.857C68.7328 100.28 69.1382 99.7441 69.6002 99.2578Z" fill="white"/>
<path d="M77.6389 108.593C76.9454 107.499 76.649 106.202 76.7986 104.918C76.8636 104.918 76.8853 105.778 77.1235 106.779C77.3617 107.781 77.6995 108.563 77.6389 108.593Z" fill="white"/>
<path d="M78.8315 78.9749C78.293 79.1614 77.7326 79.2784 77.164 79.323C76.6048 79.4397 76.0324 79.4816 75.4619 79.4477C76.002 79.2615 76.5638 79.1445 77.1337 79.0995C77.6919 78.9855 78.2625 78.9436 78.8315 78.9749Z" fill="white"/>
<path d="M84.8677 68.3477C83.9349 69.0327 82.9156 69.5933 81.8359 70.0153C82.2792 69.6423 82.7699 69.3287 83.2955 69.0826C83.7861 68.7726 84.3144 68.5256 84.8677 68.3477Z" fill="white"/>
<path d="M101.85 72.8368C101.238 72.2191 100.679 71.5521 100.178 70.8425C99.6227 70.1758 99.1243 69.4641 98.6885 68.7148C99.8603 69.9957 100.918 71.3748 101.85 72.8368Z" fill="white"/>
<path d="M123.406 83.5183C122.212 82.3507 121.314 80.919 120.785 79.3405C120.85 79.3147 121.314 80.3161 122.041 81.4638C122.769 82.6114 123.458 83.4753 123.406 83.5183Z" fill="white"/>
<path d="M131.637 86.2148C131.114 87.7259 130.447 89.1839 129.645 90.5689C129.875 89.8029 130.176 89.0592 130.541 88.3467C130.837 87.6033 131.204 86.8894 131.637 86.2148Z" fill="white"/>
<path d="M132.787 75.0703C131.999 74.3116 131.267 73.4987 130.595 72.6375C129.865 71.8246 129.192 70.9629 128.581 70.0586C130.097 71.6319 131.502 73.3064 132.787 75.0703Z" fill="white"/>
<path d="M120.219 66.0134C120.082 65.3285 120.016 64.6313 120.024 63.9331C119.959 63.2363 119.969 62.5345 120.054 61.8398C120.192 62.5247 120.257 63.2219 120.249 63.9202C120.317 64.6169 120.307 65.3189 120.219 66.0134Z" fill="white"/>
<path d="M130.478 65.4531C129.6 65.6815 128.705 65.8382 127.801 65.9216C126.909 66.0773 126.005 66.1592 125.099 66.1666C125.976 65.9383 126.872 65.7816 127.775 65.6981C128.668 65.5423 129.572 65.4604 130.478 65.4531Z" fill="white"/>
<path d="M146.605 77.2163C146.004 76.2369 145.466 75.2204 144.994 74.1732C144.459 73.157 143.99 72.1075 143.591 71.0312C144.195 72.0101 144.734 73.0266 145.206 74.0744C145.74 75.0908 146.207 76.1403 146.605 77.2163Z" fill="white"/>
<path d="M143.905 87.3757C144.087 85.734 144.414 84.1116 144.884 82.5273C144.832 83.352 144.706 84.1705 144.507 84.973C144.381 85.7905 144.179 86.5947 143.905 87.3757Z" fill="white"/>
<path d="M151.373 95.3942C150.868 94.3231 150.434 93.2205 150.074 92.0932C149.644 90.9911 149.287 89.8626 149.004 88.7148C149.506 89.7887 149.94 90.8926 150.303 92.0202C150.731 93.1215 151.088 94.2484 151.373 95.3942Z" fill="white"/>
<path d="M150.329 100.084C149.555 99.9681 148.812 99.7039 148.141 99.3056C147.437 98.9698 146.808 98.4961 146.292 97.913C146.335 97.8614 147.132 98.5148 148.25 99.1079C149.367 99.7011 150.35 100.019 150.329 100.084Z" fill="white"/>
<path d="M159.93 110.77C159.347 109.832 158.894 108.82 158.583 107.762C159.166 108.7 159.619 109.712 159.93 110.77Z" fill="white"/>
<path d="M103.285 125.678C103.1 125.058 102.986 124.419 102.947 123.774C102.837 123.136 102.799 122.489 102.834 121.844C103.032 122.467 103.153 123.113 103.194 123.765C103.297 124.397 103.328 125.039 103.285 125.678Z" fill="white"/>
<path d="M132.705 124.937C132.725 124.307 132.819 123.683 132.987 123.076C133.084 122.454 133.254 121.845 133.493 121.262C133.473 121.891 133.377 122.516 133.207 123.123C133.113 123.745 132.944 124.354 132.705 124.937Z" fill="white"/>
<path d="M138.343 39.7089L142.172 33.0725C139.81 29.29 138.961 24.7678 139.789 20.395C140.617 16.0221 143.064 12.115 146.648 9.44187C150.233 6.76872 154.695 5.52291 159.158 5.9494C163.621 6.37588 167.761 8.44381 170.766 11.7466C173.77 15.0493 175.421 19.348 175.393 23.7974C175.366 28.2467 173.662 32.5249 170.617 35.7907C167.571 39.0565 163.405 41.0737 158.938 41.4456C154.47 41.8175 150.023 40.5172 146.472 37.8005L138.343 39.7089Z" fill="#FAFAFA"/>
<path d="M138.342 39.7072L146.472 37.8676H146.554L146.502 37.7988L146.424 37.8719C147.563 38.7485 148.802 39.4899 150.114 40.0812C151.679 40.7761 153.336 41.245 155.034 41.4738C155.975 41.6042 156.926 41.6516 157.875 41.6156C158.365 41.5898 158.859 41.5769 159.361 41.5383L160.877 41.3105C165.394 40.4314 169.404 37.8768 172.09 34.1669C173.582 32.1147 174.616 29.7701 175.122 27.2898C175.637 24.6657 175.565 21.9613 174.91 19.3682C174.229 16.6646 172.911 14.1602 171.064 12.0613L170.323 11.2231C170.081 10.9523 169.795 10.7331 169.535 10.4838C169.275 10.2345 169.015 9.98525 168.721 9.77894L167.854 9.14281C167.572 8.92634 167.274 8.73096 166.962 8.55826L166.053 8.00809L165.1 7.54818C164.788 7.38647 164.467 7.24295 164.138 7.11836C161.583 6.11916 158.835 5.70058 156.095 5.89338C153.512 6.06579 150.998 6.79945 148.732 8.04247C144.647 10.2975 141.593 14.027 140.204 18.457C139.648 20.336 139.385 22.2886 139.425 24.2466C139.469 25.9456 139.761 27.6293 140.291 29.2454C140.738 30.5885 141.341 31.8752 142.089 33.0794V33.0235C139.689 37.2916 138.515 39.3763 138.329 39.7029C138.52 39.3806 139.724 37.3088 142.179 33.0751V33.0493V33.0235C141.45 31.822 140.866 30.5395 140.438 29.2025C139.911 27.5975 139.619 25.9255 139.572 24.238C139.543 22.2981 139.811 20.3649 140.365 18.5043C141.755 14.1341 144.779 10.4582 148.815 8.23159C151.058 6.99123 153.55 6.25742 156.113 6.0825C158.819 5.89324 161.533 6.30891 164.056 7.29889C164.38 7.42345 164.697 7.56697 165.004 7.72871L165.949 8.18431L166.858 8.74308C167.16 8.91495 167.449 9.1074 167.724 9.31903L168.591 9.95087C168.881 10.1572 169.123 10.4151 169.392 10.6472C169.66 10.8793 169.933 11.1114 170.172 11.3779L170.895 12.1644C172.721 14.2434 174.024 16.7225 174.698 19.3983C175.348 21.9585 175.421 24.6298 174.91 27.221C174.415 29.6748 173.396 31.9949 171.921 34.025C169.269 37.6982 165.308 40.2322 160.842 41.1127L159.344 41.3448C158.846 41.3835 158.356 41.4007 157.871 41.4265C156.931 41.4646 155.989 41.4214 155.056 41.2976C153.368 41.0809 151.72 40.6264 150.162 39.9479C148.855 39.3679 147.621 38.638 146.485 37.773L146.151 37.5195L146.407 37.8504L146.437 37.7644L138.342 39.7072Z" fill="#263238"/>
<path d="M162.267 22.9948C162.271 23.333 162.376 23.6624 162.568 23.9418C162.76 24.2212 163.03 24.4382 163.346 24.5657C163.662 24.6931 164.008 24.7254 164.342 24.6584C164.676 24.5913 164.983 24.428 165.224 24.1889C165.465 23.9497 165.63 23.6454 165.697 23.3139C165.765 22.9824 165.732 22.6385 165.604 22.3252C165.475 22.012 165.257 21.7433 164.975 21.5527C164.694 21.3622 164.362 21.2583 164.021 21.254C163.79 21.2512 163.56 21.2942 163.346 21.3807C163.132 21.4671 162.937 21.5952 162.774 21.7575C162.611 21.9197 162.481 22.1127 162.394 22.3252C162.307 22.5377 162.264 22.7654 162.267 22.9948Z" fill="#263238"/>
<path d="M155.256 22.9947C155.26 23.3338 155.365 23.664 155.558 23.9439C155.751 24.2238 156.023 24.4408 156.34 24.5677C156.657 24.6945 157.005 24.7255 157.34 24.6568C157.674 24.588 157.981 24.4226 158.221 24.1813C158.461 23.94 158.624 23.6337 158.689 23.3008C158.754 22.9679 158.719 22.6233 158.587 22.3104C158.455 21.9975 158.233 21.7302 157.949 21.5422C157.664 21.3542 157.33 21.2539 156.988 21.2539C156.759 21.2539 156.532 21.2991 156.32 21.3868C156.109 21.4745 155.917 21.6031 155.756 21.765C155.595 21.927 155.467 22.1191 155.382 22.3301C155.296 22.5412 155.253 22.7671 155.256 22.9947Z" fill="#263238"/>
<path d="M148.261 22.1175C148.094 22.4124 148.018 22.7498 148.043 23.0875C148.068 23.4251 148.193 23.7479 148.402 24.0153C148.611 24.2828 148.895 24.4831 149.218 24.591C149.541 24.6989 149.89 24.7098 150.219 24.6221C150.549 24.5344 150.845 24.3522 151.07 24.0982C151.296 23.8442 151.441 23.5298 151.487 23.1944C151.533 22.859 151.479 22.5175 151.33 22.2128C151.182 21.908 150.946 21.6536 150.652 21.4813C150.454 21.365 150.234 21.289 150.005 21.258C149.777 21.227 149.545 21.2416 149.322 21.3008C149.099 21.3601 148.891 21.4628 148.709 21.6031C148.526 21.7433 148.374 21.9182 148.261 22.1175Z" fill="#263238"/>
</g>
<defs>
<clipPath id="clip0_1_501">
<rect width="225.25" height="157.653" fill="white" transform="translate(0.960938 0.00390625)"/>
</clipPath>
</defs>
</svg>
