<svg width="202" height="386" viewBox="0 0 202 386" fill="none" xmlns="http://www.w3.org/2000/svg">
<g clip-path="url(#clip0_1_956)">
<path d="M96.2602 343.914L94.6679 363.969C94.6679 363.969 74.8575 370.338 74.7402 374.05L113.502 374.558L114.644 343.875L96.2602 343.914Z" fill="#F65314"/>
<path d="M106.615 361.918C106.992 362.021 107.318 362.259 107.53 362.587C107.743 362.915 107.827 363.309 107.768 363.696C107.677 364.074 107.446 364.403 107.121 364.617C106.796 364.831 106.403 364.914 106.019 364.848C105.612 364.748 105.258 364.499 105.026 364.15C104.795 363.8 104.703 363.377 104.769 362.963C104.905 362.579 105.184 362.262 105.549 362.08C105.913 361.898 106.334 361.864 106.723 361.986" fill="#EBEBEB"/>
<path d="M113.501 374.548L113.423 371.441L76.7127 371.666C76.7127 371.666 74.6125 372.916 74.6711 374.128L113.501 374.548Z" fill="#EBEBEB"/>
<path d="M94.0234 363.724C94.0234 363.909 95.0003 363.968 95.9771 364.554C96.954 365.14 97.4522 365.912 97.6182 365.834C97.7843 365.755 97.4815 364.661 96.319 363.978C95.1566 363.294 94.0234 363.587 94.0234 363.724Z" fill="#263238"/>
<path d="M90.0176 365.586C90.0176 365.772 90.8088 366.065 91.4731 366.846C92.1374 367.628 92.3522 368.468 92.5476 368.458C92.743 368.448 92.8211 367.364 91.9713 366.407C91.1214 365.449 90.0176 365.4 90.0176 365.586Z" fill="#263238"/>
<path d="M87.849 370.521C88.0248 370.521 88.2593 369.603 87.7415 368.568C87.2238 367.532 86.3251 367.161 86.2567 367.327C86.1883 367.493 86.7452 368.021 87.1554 368.871C87.5657 369.72 87.6634 370.512 87.849 370.521Z" fill="#263238"/>
<path d="M94.2383 359.193C94.3262 359.359 95.2152 359.075 96.2604 359.114C97.3056 359.154 98.2141 359.466 98.2727 359.3C98.3313 359.134 97.5401 358.48 96.319 358.45C95.0979 358.421 94.1406 359.046 94.2383 359.193Z" fill="#263238"/>
<path d="M94.0234 355.165C94.6684 355.324 95.3448 355.3 95.9771 355.097C96.6772 354.955 97.3566 354.725 97.9992 354.413C98.3782 354.231 98.7438 354.022 99.0933 353.788C99.307 353.656 99.5011 353.495 99.6696 353.309C99.7729 353.167 99.8285 352.996 99.8285 352.821C99.8285 352.645 99.7729 352.474 99.6696 352.332C99.5716 352.203 99.4444 352.098 99.2985 352.027C99.1526 351.956 98.9919 351.92 98.8295 351.922C98.5837 351.929 98.3401 351.972 98.1067 352.049C97.6937 352.163 97.2917 352.314 96.9052 352.498C96.2589 352.81 95.6682 353.226 95.1566 353.729C94.2774 354.589 93.9941 355.302 94.0625 355.341C94.1309 355.38 94.5705 354.794 95.4594 354.071C95.9851 353.66 96.5592 353.316 97.1689 353.045C97.5264 352.892 97.8955 352.768 98.2727 352.674C98.6732 352.547 99.0249 352.537 99.1421 352.674C99.2593 352.811 99.1421 352.772 99.1421 352.899C99.0159 353.029 98.8749 353.144 98.7221 353.241C98.4094 353.466 98.0832 353.671 97.7452 353.856C97.1532 354.176 96.5316 354.438 95.8892 354.638C95.2559 354.77 94.6325 354.947 94.0234 355.165Z" fill="#263238"/>
<path d="M94.3065 355.412C94.6562 354.845 94.8138 354.18 94.7558 353.517C94.7705 352.797 94.6615 352.08 94.4335 351.397C94.2891 350.994 94.1093 350.605 93.8962 350.235C93.7897 349.974 93.6162 349.746 93.3931 349.575C93.17 349.403 92.9054 349.294 92.6263 349.258C92.4536 349.265 92.2868 349.323 92.1463 349.423C92.0057 349.524 91.8976 349.663 91.8351 349.824C91.7443 350.053 91.6851 350.293 91.6592 350.537C91.5902 350.971 91.5902 351.413 91.6592 351.846C91.7934 352.56 92.0984 353.23 92.5481 353.8C93.3394 354.777 94.1307 354.982 94.1502 354.924C94.1697 354.865 93.5348 354.474 92.9291 353.527C92.5749 352.981 92.3448 352.364 92.2551 351.719C92.2062 351.347 92.2062 350.969 92.2551 350.596C92.2551 350.186 92.4505 349.844 92.6068 349.883C92.7631 349.922 93.1343 350.176 93.3101 350.498C93.5067 350.829 93.6766 351.176 93.8181 351.534C94.0534 352.162 94.2013 352.819 94.2576 353.488C94.3846 354.67 94.199 355.383 94.3065 355.412Z" fill="#263238"/>
<path d="M180.073 340.559L184.547 364.003L193.437 381.508C193.588 381.806 193.676 382.132 193.696 382.466C193.716 382.8 193.667 383.134 193.553 383.448C193.438 383.762 193.26 384.05 193.03 384.292C192.8 384.535 192.523 384.728 192.216 384.859C191.857 385.013 191.466 385.079 191.077 385.05C190.687 385.021 190.31 384.899 189.979 384.693C185.69 382.045 169.953 372.238 169.719 370.499C169.455 368.545 163.35 346.078 163.35 346.078L180.073 340.559Z" fill="#F65314"/>
<path d="M192.218 384.839L169.379 368.906L169.594 369.883C169.775 370.739 170.257 371.501 170.952 372.032C172.808 373.458 178.014 377.268 189.912 384.682C190.255 384.895 190.644 385.02 191.047 385.045C191.449 385.071 191.851 384.997 192.218 384.829V384.839Z" fill="#EBEBEB"/>
<path d="M172.562 362.042C172.895 362.189 173.161 362.454 173.309 362.786C173.457 363.119 173.476 363.494 173.363 363.839C173.227 364.177 172.967 364.45 172.636 364.601C172.305 364.751 171.929 364.769 171.585 364.65C171.224 364.491 170.937 364.201 170.781 363.838C170.626 363.476 170.613 363.068 170.745 362.697C170.926 362.359 171.23 362.105 171.594 361.987C171.958 361.868 172.354 361.895 172.699 362.062" fill="#EBEBEB"/>
<path d="M184.696 375.796C185.099 374.946 185.659 374.181 186.347 373.539C187.134 373.022 188.007 372.652 188.926 372.445C188.926 372.387 188.594 372.27 188.037 372.309C187.301 372.383 186.602 372.668 186.024 373.129C185.44 373.582 185.002 374.197 184.764 374.897C184.598 375.454 184.637 375.786 184.696 375.796Z" fill="#263238"/>
<path d="M187.029 378.563C187.156 378.641 187.742 377.723 188.875 377.117C189.595 376.812 190.333 376.548 191.083 376.326C190.675 376.183 190.24 376.139 189.812 376.197C189.384 376.254 188.976 376.413 188.621 376.658C187.332 377.352 186.892 378.524 187.029 378.563Z" fill="#263238"/>
<path d="M180.738 372.448C181.58 371.576 182.484 370.766 183.444 370.026C184.498 369.427 185.595 368.908 186.726 368.473C185.453 368.495 184.212 368.881 183.151 369.585C182.09 370.29 181.253 371.283 180.738 372.448Z" fill="#263238"/>
<path d="M178.784 365.455C178.872 365.582 180.044 364.771 181.715 364.342C183.385 363.912 184.792 364.039 184.811 363.882C183.758 363.579 182.643 363.566 181.582 363.842C180.522 364.119 179.555 364.676 178.784 365.455Z" fill="#263238"/>
<path d="M177.3 358.619C178.24 358.068 179.253 357.65 180.308 357.379C181.396 357.271 182.493 357.307 183.571 357.486C183.571 357.437 183.278 357.193 182.672 356.998C181.876 356.761 181.035 356.714 180.217 356.862C179.399 357.009 178.627 357.347 177.964 357.848C177.466 358.238 177.251 358.571 177.3 358.619Z" fill="#263238"/>
<path d="M179.988 356.089C179.988 356.089 179.988 355.756 179.831 355.2C179.586 354.406 179.18 353.671 178.64 353.041C178.284 352.545 177.776 352.178 177.194 351.996C176.997 351.953 176.792 351.973 176.606 352.051C176.421 352.13 176.265 352.264 176.158 352.435C175.971 352.782 175.919 353.185 176.012 353.568C176.233 354.341 176.718 355.013 177.381 355.467C178.044 355.922 178.845 356.131 179.646 356.059C180.435 355.97 181.181 355.649 181.788 355.136C182.395 354.623 182.836 353.941 183.055 353.178C183.116 352.985 183.135 352.782 183.111 352.582C183.088 352.381 183.022 352.188 182.918 352.015C182.788 351.86 182.612 351.75 182.416 351.699C182.22 351.648 182.013 351.66 181.824 351.732C181.282 351.982 180.814 352.369 180.466 352.855C179.942 353.498 179.535 354.229 179.265 355.014C179.142 355.291 179.078 355.59 179.079 355.893C179.498 354.886 180.061 353.945 180.75 353.099C181.065 352.677 181.481 352.341 181.961 352.123C182.064 352.083 182.177 352.077 182.284 352.105C182.391 352.133 182.486 352.194 182.557 352.279C182.619 352.395 182.657 352.522 182.669 352.653C182.68 352.784 182.666 352.916 182.625 353.041C182.419 353.685 182.034 354.257 181.515 354.691C180.996 355.125 180.365 355.403 179.695 355.493C179.02 355.552 178.345 355.38 177.781 355.006C177.216 354.631 176.796 354.076 176.588 353.432C176.511 353.166 176.532 352.882 176.647 352.631C176.704 352.536 176.789 352.461 176.891 352.415C176.992 352.37 177.104 352.356 177.213 352.377C177.706 352.532 178.139 352.836 178.454 353.246C179.135 354.091 179.655 355.055 179.988 356.089Z" fill="#263238"/>
<path d="M95.9775 159.564C95.7333 159.564 92.7637 356.058 92.7637 356.058L116.511 355.237L124.726 258.627L126.68 187.707L142.866 253.342L163.019 356.292L186.727 350.343L156.542 158.314L128.135 152.824L95.9775 159.564Z" fill="#263238"/>
<path d="M147.604 38.2036C150.446 32.5965 151.335 22.5154 148.083 16.9376C144.83 11.3598 138.226 7.3254 132.033 5.48892C131.015 5.10466 129.905 5.03656 128.848 5.29355C128.328 5.44043 127.884 5.77948 127.604 6.242C127.325 6.70452 127.232 7.25593 127.344 7.78451C126.174 6.82884 124.853 6.07301 123.437 5.54753C122.729 5.29381 121.971 5.21637 121.227 5.3219C120.483 5.42744 119.776 5.71277 119.168 6.15318C118.88 6.38617 118.641 6.67376 118.464 6.99943C118.287 7.3251 118.177 7.68245 118.139 8.05095C118.101 8.41945 118.136 8.79185 118.242 9.14677C118.348 9.5017 118.523 9.83216 118.758 10.1192C117.897 9.74914 116.949 9.63423 116.025 9.78814C115.101 9.94206 114.241 10.3583 113.547 10.9873C112.853 11.6163 112.355 12.4315 112.111 13.3358C111.868 14.2401 111.889 15.1954 112.174 16.0877C112.901 17.9301 113.971 19.6174 115.329 21.0599C116.56 22.3689 116.677 23.6388 116.306 25.4069" fill="#263238"/>
<path d="M124.188 84.4164C124.364 81.7203 124.804 57.3577 124.794 57.2503C124.784 57.1428 115.748 56.1269 115.358 47.1301C115.172 42.7831 115.514 33.8059 115.914 25.6883C116.121 21.4816 117.902 17.5065 120.904 14.5528C123.907 11.5992 127.911 9.88331 132.12 9.74609H132.99C142.367 10.0001 147.388 18.1079 146.871 27.4759L145.591 79.6103" fill="#FFBE9D"/>
<path d="M124.795 57.2511C128.953 57.1111 132.984 55.7822 136.41 53.4219C136.41 53.4219 133.704 59.0485 124.688 58.521L124.795 57.2511Z" fill="#F65314"/>
<path d="M117.468 31.7615C117.478 32.0959 117.616 32.4136 117.855 32.6483C118.093 32.883 118.413 33.0168 118.747 33.0217C118.912 33.0295 119.075 33.0045 119.23 32.948C119.384 32.8915 119.525 32.8047 119.645 32.6927C119.766 32.5808 119.862 32.4459 119.929 32.296C119.997 32.1461 120.033 31.9843 120.037 31.8201C120.036 31.6534 120.001 31.4885 119.936 31.3349C119.871 31.1813 119.777 31.042 119.658 30.925C119.539 30.808 119.398 30.7156 119.244 30.6529C119.089 30.5903 118.924 30.5587 118.757 30.56C118.593 30.5521 118.429 30.5772 118.275 30.6337C118.121 30.6902 117.979 30.777 117.859 30.8889C117.739 31.0009 117.642 31.1358 117.575 31.2857C117.508 31.4355 117.471 31.5973 117.468 31.7615Z" fill="#263238"/>
<path d="M117.984 30.032C118.151 30.1883 119.098 29.4362 120.485 29.3971C121.872 29.358 122.898 30.0223 123.045 29.8464C123.191 29.6706 122.947 29.4752 122.488 29.1626C121.878 28.7676 121.162 28.5698 120.436 28.5961C119.727 28.6238 119.043 28.8732 118.483 29.3092C118.033 29.6511 117.906 29.9539 117.984 30.032Z" fill="#263238"/>
<path d="M131.281 31.9522C131.289 32.2874 131.427 32.6064 131.666 32.8417C131.905 33.0769 132.226 33.2098 132.561 33.2123C132.725 33.2215 132.89 33.1974 133.045 33.1415C133.199 33.0855 133.341 32.9987 133.462 32.8865C133.582 32.7743 133.679 32.6388 133.746 32.4883C133.812 32.3378 133.848 32.1754 133.85 32.0108C133.843 31.6756 133.705 31.3565 133.466 31.1213C133.227 30.886 132.906 30.7531 132.571 30.7506C132.241 30.7401 131.92 30.8605 131.678 31.0856C131.437 31.3107 131.294 31.6222 131.281 31.9522Z" fill="#263238"/>
<path d="M131.584 29.8677C131.75 30.024 132.708 29.2718 134.085 29.2327C135.462 29.1937 136.508 29.8579 136.644 29.6821C136.781 29.5063 136.547 29.3109 136.097 28.9983C135.484 28.6048 134.765 28.4072 134.036 28.4317C133.327 28.4614 132.644 28.7106 132.082 29.1448C131.643 29.4867 131.506 29.7895 131.584 29.8677Z" fill="#263238"/>
<path d="M126.885 40.2852C126.151 40.0701 125.392 39.9551 124.628 39.9433C124.277 39.9433 123.935 39.8554 123.866 39.6209C123.829 39.2567 123.9 38.8897 124.071 38.566L125.048 35.8503C126.387 31.9429 127.334 28.7877 127.178 28.7389C127.021 28.69 125.82 31.7866 124.482 35.6549C124.169 36.6318 123.856 37.5207 123.573 38.3901C123.36 38.8235 123.308 39.3188 123.427 39.787C123.483 39.9089 123.566 40.0169 123.669 40.103C123.772 40.1892 123.893 40.2514 124.023 40.2852C124.221 40.3311 124.425 40.3508 124.628 40.3438C125.38 40.4201 126.138 40.4005 126.885 40.2852Z" fill="#263238"/>
<path d="M130.988 41.1179C130.763 41.1179 130.802 42.6125 129.552 43.7163C128.301 44.8202 126.699 44.6932 126.69 44.9179C126.68 45.1425 127.061 45.1914 127.735 45.1914C128.624 45.1934 129.485 44.8821 130.167 44.3122C130.801 43.7545 131.196 42.9746 131.271 42.1339C131.271 41.4696 131.085 41.0984 130.988 41.1179Z" fill="#263238"/>
<path d="M131.056 24.4528C131.212 24.824 132.58 24.5993 134.211 24.7459C135.843 24.8924 137.142 25.2929 137.367 24.951C137.464 24.7849 137.22 24.443 136.683 24.0914C135.964 23.6624 135.154 23.4081 134.319 23.349C133.488 23.2749 132.651 23.3988 131.877 23.7104C131.291 23.9741 130.998 24.277 131.056 24.4528Z" fill="#263238"/>
<path d="M118.366 26.0029C118.62 26.3155 119.568 26.0029 120.711 25.9052C121.854 25.8075 122.831 26.0517 123.046 25.7196C123.133 25.5535 122.977 25.2409 122.538 24.9576C121.95 24.605 121.267 24.4445 120.584 24.4985C119.911 24.5299 119.265 24.7725 118.738 25.1921C118.376 25.5242 118.259 25.8563 118.366 26.0029Z" fill="#263238"/>
<path d="M146.373 34.1478C146.529 34.0794 152.498 32.1257 152.498 38.2896C152.498 44.4536 146.314 43.1739 146.295 42.9981C146.275 42.8222 146.373 34.1478 146.373 34.1478Z" fill="#FFBE9D"/>
<path d="M148.18 40.6564C148.18 40.6564 148.287 40.7346 148.473 40.8127C148.6 40.8654 148.736 40.8925 148.874 40.8925C149.011 40.8925 149.147 40.8654 149.274 40.8127C149.672 40.5603 149.996 40.2066 150.212 39.7877C150.429 39.3688 150.53 38.9 150.505 38.4292C150.515 37.9022 150.412 37.3791 150.202 36.8956C150.144 36.7044 150.041 36.53 149.902 36.3872C149.763 36.2443 149.591 36.1373 149.401 36.075C149.278 36.04 149.146 36.0504 149.029 36.1041C148.913 36.1579 148.819 36.2515 148.766 36.3681C148.678 36.5341 148.766 36.6611 148.688 36.6709C148.61 36.6807 148.561 36.5634 148.61 36.3095C148.643 36.1598 148.726 36.0256 148.844 35.9285C149.015 35.801 149.229 35.7449 149.44 35.7722C149.697 35.8217 149.936 35.9381 150.133 36.1097C150.33 36.2812 150.479 36.5017 150.563 36.749C150.826 37.2797 150.953 37.8669 150.935 38.4585C150.963 39.0084 150.83 39.5545 150.55 40.0287C150.27 40.503 149.857 40.8844 149.362 41.1253C149.197 41.172 149.024 41.1813 148.855 41.1526C148.686 41.1239 148.525 41.0578 148.385 40.9593C148.19 40.803 148.16 40.6662 148.18 40.6564Z" fill="#F65314"/>
<path d="M111.989 14.0372C111.266 22.0181 121.103 25.3491 125.421 20.8752C127.374 18.814 129.152 16.2351 131.868 15.3071C132.796 15.0284 133.771 14.9366 134.735 15.0372C135.699 15.1378 136.634 15.4288 137.485 15.8932C140.024 17.212 141.519 20.1523 141.92 22.9852C142.467 26.8926 141.832 30.4092 142.896 34.0333C142.987 34.571 143.256 35.0627 143.658 35.4302C144.072 35.6295 144.542 35.6771 144.986 35.5646C145.431 35.452 145.822 35.1866 146.091 34.8148C146.991 33.6403 147.528 32.2274 147.634 30.7511C148.176 27.4351 148.05 24.0441 147.263 20.7775C146.47 17.4968 144.731 14.5213 142.261 12.2203C139.059 9.44766 134.906 8.02586 130.676 8.25428C126.465 8.5155 122.443 10.0943 119.179 12.7673C117.612 13.9342 116.361 15.4714 115.535 17.2413" fill="#263238"/>
<path d="M118.504 9.65921C118.224 9.59276 117.933 9.59276 117.654 9.65921C116.885 9.84153 116.181 10.2338 115.622 10.7924C114.778 11.6231 114.237 12.7138 114.088 13.889C113.972 15.3425 114.392 16.7884 115.27 17.9527C116.121 19.1082 117.274 20.0072 118.601 20.5511C119.673 20.9827 120.808 21.2336 121.962 21.2935C122.731 21.3421 123.502 21.3192 124.267 21.2251C124.551 21.2124 124.831 21.1564 125.097 21.059C125.097 20.9711 123.896 21.1372 121.991 20.9614C120.885 20.8538 119.802 20.5805 118.777 20.1506C117.531 19.6192 116.452 18.7622 115.651 17.6694C114.864 16.6232 114.47 15.3333 114.538 14.0257C114.646 12.9292 115.113 11.899 115.866 11.0952C116.371 10.5484 117.006 10.1384 117.712 9.90342C118.211 9.71782 118.514 9.70805 118.504 9.65921Z" fill="#455A64"/>
<path d="M122.627 6.84988C122.627 6.84988 122.402 6.7815 122.041 6.94757C121.792 7.08338 121.576 7.27168 121.407 7.4994C121.239 7.72712 121.121 7.98881 121.064 8.26631C120.941 9.08171 121.107 9.91446 121.533 10.6205C121.978 11.4812 122.544 12.2739 123.213 12.9747C124.43 14.2537 125.943 15.2133 127.619 15.7685C128.294 16.0433 129.02 16.1667 129.748 16.1299C129.748 16.042 128.947 15.9443 127.736 15.4559C126.159 14.834 124.736 13.8775 123.565 12.6524C122.921 11.9804 122.366 11.2286 121.914 10.4154C121.517 9.79369 121.332 9.0604 121.386 8.32493C121.468 7.84023 121.73 7.40423 122.119 7.10387C122.422 6.9085 122.637 6.88896 122.627 6.84988Z" fill="#455A64"/>
<path d="M69.0063 86.5911L26.6208 82.5763L19.9196 80.9645C19.9196 80.9645 4.60259 78.2293 3.16662 77.7702C1.50598 77.2524 0.851501 77.9265 0.704973 78.5516C0.470529 79.5285 1.43761 80.5737 2.84427 81.0622C3.3327 81.238 11.1377 83.602 11.1377 83.602C10.2629 83.8262 9.40454 84.1102 8.5686 84.4518C6.75166 85.1454 5.07148 87.5973 4.29977 90.4008C3.52806 93.2044 3.55736 94.0542 4.6319 94.4059C4.83689 94.4642 5.05244 94.4751 5.26228 94.4379C5.47212 94.4007 5.67078 94.3162 5.84321 94.191C6.44456 93.8197 6.88665 93.2384 7.0838 92.5597C8.39277 88.0857 11.1377 87.6266 11.1377 87.6266L12.0169 87.8415C12.0169 87.8415 9.24262 89.9417 9.38915 92.3448C9.41555 92.6839 9.50501 93.0152 9.65291 93.3216C9.44409 93.9355 9.40334 94.5941 9.53489 95.2291C9.66645 95.8641 9.9655 96.4523 10.4011 96.9327C10.8366 97.4131 11.3928 97.7682 12.0119 97.9611C12.6309 98.1541 13.2904 98.1779 13.9217 98.03C14.5274 97.903 15.1623 97.5221 15.2307 96.9066C15.236 96.5665 15.1554 96.2305 14.9963 95.9298C14.9267 95.7722 14.8711 95.6087 14.8302 95.4414L17.37 95.6856C17.37 95.6856 23.1041 95.9396 25.5853 96.3303L65.5091 106.656C66.8237 106.997 68.1932 107.072 69.5374 106.878C70.8815 106.684 72.1735 106.223 73.3377 105.524C74.5019 104.825 75.5149 103.9 76.3177 102.805C77.1204 101.709 77.6967 100.464 78.0128 99.1436C78.352 97.7186 78.3812 96.2373 78.0983 94.8C77.8154 93.3627 77.227 92.003 76.3731 90.8128C75.5191 89.6226 74.4194 88.6297 73.1485 87.9014C71.8775 87.173 70.4649 86.7262 69.0063 86.5911Z" fill="#FFBE9D"/>
<path d="M25.7236 83.694C25.649 84.1306 25.4407 84.5333 25.1275 84.8465C24.8143 85.1597 24.4116 85.3679 23.975 85.4425C23.1056 85.6574 22.2069 85.5793 21.3277 85.7258C18.7195 86.1849 16.7756 88.6564 14.1381 88.9885C13.7767 88.9885 13.3078 88.9885 13.1613 88.627C13.0148 88.2656 13.3078 87.9823 13.5618 87.7479L19.9015 81.6719" fill="#FFBE9D"/>
<path d="M19.9288 81.6719C19.6568 81.8383 19.4045 82.035 19.1767 82.258C18.7175 82.6585 18.063 83.2348 17.223 83.9968L14.4096 86.605C14.1459 86.8589 13.8821 87.1129 13.5989 87.3669C13.3156 87.6209 12.9444 87.8651 12.8857 88.4707C12.8864 88.6199 12.9326 88.7653 13.0182 88.8875C13.1037 89.0097 13.2245 89.1028 13.3644 89.1545C13.5916 89.2406 13.8362 89.2708 14.0775 89.2425C14.5069 89.1856 14.9293 89.0841 15.3376 88.9396C16.7639 88.2684 18.1414 87.498 19.4599 86.6343C20.0393 86.309 20.6653 86.075 21.316 85.9407C21.9216 85.8235 22.5175 85.8137 23.0743 85.7551C23.5273 85.7513 23.974 85.6478 24.3825 85.4519C24.7911 85.2561 25.1515 84.9727 25.4383 84.622C25.5507 84.4883 25.6318 84.3313 25.6758 84.1623C25.7197 83.9933 25.7253 83.8166 25.6922 83.6451C25.6018 83.9364 25.4631 84.2105 25.282 84.4559C24.9919 84.7528 24.6432 84.986 24.2581 85.1408C23.8729 85.2955 23.4598 85.3683 23.045 85.3546C22.4441 85.3669 21.8442 85.4093 21.2476 85.4816C20.5652 85.6134 19.9066 85.8473 19.2939 86.1751C17.9759 87.0026 16.6091 87.7497 15.2009 88.4121C14.8346 88.5477 14.4547 88.6427 14.0677 88.6954C13.7063 88.6954 13.3839 88.6173 13.4132 88.4219C13.4426 88.2265 13.6965 87.9237 13.97 87.6697C14.2435 87.4157 14.5073 87.1422 14.7711 86.898L17.5062 84.2019C18.278 83.4302 18.9031 82.7952 19.3232 82.3557C19.7432 81.9161 19.9581 81.7012 19.9288 81.6719Z" fill="#F65314"/>
<path d="M12.0859 87.7533C11.536 87.6412 10.9677 87.6579 10.4253 87.8022C9.85646 87.9907 9.3633 88.3571 9.01865 88.8474C8.58906 89.4625 8.25938 90.1417 8.0418 90.8597C7.81951 91.5999 7.52501 92.3164 7.16261 92.999C6.84594 93.565 6.3883 94.0395 5.83411 94.3764C5.64145 94.4877 5.42557 94.5526 5.20349 94.5662C4.98141 94.5798 4.75922 94.5415 4.55444 94.4545C4.27116 94.3178 4.16369 94.181 4.17346 94.1712C4.18323 94.1615 4.32001 94.2494 4.59353 94.3373C4.78301 94.3945 4.98276 94.4093 5.1786 94.3806C5.37444 94.3519 5.56154 94.2804 5.72664 94.1712C6.22708 93.836 6.63389 93.3788 6.90865 92.8427C7.24472 92.1709 7.52252 91.4716 7.73898 90.7523C7.96098 90.0028 8.30772 89.296 8.76466 88.6618C9.15557 88.1331 9.71294 87.7512 10.3472 87.5775C10.7668 87.4687 11.2072 87.4687 11.6268 87.5775C11.7923 87.596 11.9504 87.6565 12.0859 87.7533Z" fill="#F65314"/>
<path d="M2.33691 80.8789C2.8666 80.9881 3.38616 81.1417 3.8901 81.338L7.60211 82.5396L11.3337 83.6825C11.8608 83.8147 12.3769 83.9878 12.8771 84.2002C12.3331 84.1682 11.7951 84.0698 11.2751 83.9071C10.2982 83.6727 8.9697 83.3113 7.50442 82.8521C6.03915 82.393 4.73994 81.9241 3.81194 81.5529C3.29746 81.3819 2.80294 81.1559 2.33691 80.8789Z" fill="#F65314"/>
<path d="M13.2861 90.0586C13.2861 90.0586 13.1787 90.2149 12.9735 90.4591C12.8205 90.6112 12.7028 90.795 12.6285 90.9975C12.5542 91.2 12.5253 91.4164 12.5437 91.6313C12.5687 91.769 12.6299 91.8977 12.7208 92.0041C12.8118 92.1105 12.9293 92.1908 13.0615 92.237C13.395 92.3615 13.7429 92.4436 14.0969 92.4812C14.5378 92.5216 14.9483 92.7234 15.2496 93.0477C15.3961 93.2418 15.4954 93.4673 15.5395 93.7064C15.5836 93.9455 15.5713 94.1916 15.5036 94.4251C15.4309 94.653 15.313 94.8639 15.1569 95.0452C15.0008 95.2265 14.8097 95.3744 14.5951 95.4801C14.2057 95.686 13.7625 95.7678 13.3252 95.7145C12.6444 95.5973 11.9856 95.3766 11.3715 95.0601C10.9411 94.8657 10.5478 94.598 10.2091 94.2688C10.0765 94.1508 9.9785 93.9988 9.92578 93.8292C9.92578 93.8292 10.0528 93.966 10.297 94.1809C10.6505 94.4597 11.0419 94.6866 11.4594 94.8549C12.0818 95.132 12.7391 95.3226 13.4131 95.4215C13.7942 95.4647 14.1789 95.3821 14.5087 95.1864C14.8385 94.9906 15.0953 94.6924 15.2398 94.3372C15.2945 94.1528 15.3061 93.9583 15.2739 93.7686C15.2418 93.579 15.1666 93.3992 15.0542 93.2431C14.796 92.9739 14.449 92.8073 14.0774 92.7742C13.7021 92.7216 13.3347 92.6232 12.9833 92.4812C12.8178 92.4118 12.6731 92.3006 12.5635 92.1585C12.4539 92.0163 12.3831 91.8481 12.3581 91.6704C12.3718 91.3411 12.4685 91.0207 12.6393 90.7389C12.8101 90.4571 13.0494 90.2231 13.335 90.0586H13.2861Z" fill="#F65314"/>
<path d="M14.3997 95.2861C14.3997 95.2861 14.5756 95.2861 14.8198 95.4717C14.9912 95.6091 15.1275 95.7853 15.2175 95.9857C15.3075 96.1861 15.3487 96.405 15.3375 96.6244C15.3113 96.95 15.2001 97.2631 15.0149 97.5322C14.8298 97.8013 14.5772 98.0171 14.2825 98.1581C13.5658 98.4948 12.7463 98.5403 11.9967 98.285C11.2489 98.0526 10.5929 97.5913 10.1211 96.9663C9.74525 96.4609 9.51245 95.8637 9.44711 95.2373C9.3975 94.8187 9.42733 94.3945 9.53503 93.9869C9.61317 93.7036 9.69131 93.5571 9.71085 93.5669C9.62857 94.1075 9.62857 94.6575 9.71085 95.1982C9.80156 95.7797 10.0404 96.328 10.4044 96.7905C10.8477 97.3505 11.4507 97.7626 12.1334 97.9724C12.803 98.2038 13.5348 98.1759 14.1848 97.8943C14.443 97.7789 14.6679 97.6003 14.8387 97.3749C15.0094 97.1495 15.1205 96.8846 15.1617 96.6049C15.1756 96.4144 15.1498 96.2232 15.0859 96.0432C15.022 95.8633 14.9214 95.6986 14.7905 95.5596C14.5463 95.3643 14.3899 95.3154 14.3997 95.2861Z" fill="#F65314"/>
<path d="M21.2672 91.5327C21.283 91.2713 21.3672 91.0186 21.5114 90.8C21.8475 90.2089 22.3695 89.7453 22.9962 89.4813V89.7646C22.6611 89.6178 22.335 89.4514 22.0194 89.2664C20.8758 88.6701 19.9242 87.7625 19.2744 86.6484C20.1604 87.5371 21.1434 88.3236 22.205 88.9929C22.5273 89.1785 22.8497 89.3446 23.1818 89.4813L23.5139 89.6376L23.172 89.7646C22.5954 89.9981 22.0973 90.3912 21.7361 90.8977C21.4039 91.2787 21.316 91.5522 21.2672 91.5327Z" fill="#F65314"/>
<path d="M7.97221 87.5517C8.03082 87.4931 8.4997 87.9718 8.57785 88.7435C8.656 89.5152 8.3141 90.0818 8.23595 90.0329C8.1578 89.9841 8.33363 89.4566 8.23595 88.7826C8.13826 88.1085 7.89406 87.6103 7.97221 87.5517Z" fill="#F65314"/>
<path d="M69.7567 107.303L97.382 100.963C97.382 100.963 95.9754 151.564 95.9754 152.043C95.9754 152.522 93.6993 153.313 93.8947 156.996L95.8484 161.362L156.413 162.173L158.054 112.998L163.583 74.9012L150.884 67.0375L146.41 60.9127L128.944 79.3361L124.597 63.6088L124.724 58.9297L120.406 63.6186L97.1085 70.3393L66.328 84.6892L45.5211 83.0969L40.1191 101.305L69.7567 107.303Z" fill="#F65314"/>
<path d="M126.533 73.6942C125.967 74.0013 125.525 74.4949 125.283 75.0911C125.017 75.769 124.887 76.4927 124.902 77.2206C124.943 78.2142 124.804 79.2071 124.491 80.1512L124.276 80.6494L124.062 80.1512C123.479 78.6983 123.021 77.1983 122.694 75.6675C121.961 72.5025 121.483 69.6012 121.17 67.5108C120.956 66.3797 120.835 65.2329 120.809 64.082C121.121 65.1857 121.362 66.308 121.531 67.4424C121.932 69.5231 122.508 72.4048 123.192 75.5502C123.51 77.0492 123.941 78.5219 124.482 79.9558H124.062C124.364 79.0792 124.516 78.1577 124.511 77.2304C124.526 76.4611 124.699 75.7031 125.019 75.0032C125.227 74.5432 125.567 74.1555 125.996 73.8896C126.151 73.7723 126.338 73.7043 126.533 73.6942Z" fill="#263238"/>
<path d="M148.952 65.9749C148.792 66.2813 148.595 66.5668 148.366 66.8248C147.955 67.3425 147.389 68.0947 146.607 69.0129C145.103 70.8494 143.012 73.3599 140.668 76.1244L136.936 80.4518L136.643 80.784L136.546 80.3639C136.008 78.2344 135.569 76.4565 135.295 75.1866C135.178 74.5517 134.826 74.2098 134.484 74.2098C134.318 74.1951 134.152 74.2401 134.016 74.3368C134.016 74.3368 134.084 74.0828 134.484 74.0633C134.604 74.0598 134.724 74.0815 134.835 74.1269C134.946 74.1723 135.046 74.2405 135.129 74.327C135.337 74.5542 135.484 74.8295 135.559 75.128C135.92 76.3784 136.419 78.1562 136.985 80.2662L136.585 80.1783L140.277 75.7923C142.622 73.0376 144.761 70.5564 146.334 68.7785C147.115 67.8896 147.76 67.1765 148.209 66.688C148.659 66.1996 148.922 65.9456 148.952 65.9749Z" fill="#263238"/>
<path d="M123.191 146.876C123.147 146.661 123.127 146.441 123.133 146.222C123.133 145.733 123.133 145.118 123.133 144.336C123.133 142.705 123.133 140.341 123.133 137.43C123.191 131.569 123.475 123.53 124.11 114.64C124.745 105.751 125.712 97.7408 126.513 91.9578C126.903 89.0273 127.265 86.7317 127.49 85.1199L127.812 83.2639C127.841 83.0482 127.89 82.8356 127.958 82.6289C127.98 82.8465 127.98 83.0658 127.958 83.2834C127.9 83.762 127.822 84.3775 127.734 85.1492C127.519 86.8294 127.226 89.1543 126.864 91.9871C126.161 97.7798 125.292 105.79 124.618 114.67C123.944 123.549 123.641 131.598 123.465 137.42C123.397 140.292 123.348 142.637 123.299 144.336C123.299 145.108 123.299 145.724 123.25 146.212C123.246 146.435 123.226 146.656 123.191 146.876Z" fill="#263238"/>
<path d="M118.26 158.723C117.833 157.316 117.677 155.841 117.801 154.376C117.771 152.914 117.942 151.455 118.309 150.039C118.447 151.485 118.447 152.94 118.309 154.386C118.241 156.77 118.446 158.704 118.26 158.723Z" fill="#263238"/>
<path d="M143.071 144.5C142.567 144.73 142.048 144.926 141.518 145.086C140.541 145.438 139.017 145.897 137.18 146.434C132.378 147.808 127.506 148.93 122.586 149.795C117.661 150.684 112.691 151.311 107.699 151.67C105.794 151.797 104.241 151.875 103.166 151.895C102.614 151.941 102.058 151.941 101.506 151.895C102.051 151.795 102.603 151.736 103.157 151.719L107.67 151.328C111.479 150.977 116.735 150.351 122.479 149.374C128.223 148.398 133.371 147.118 137.063 146.141L141.439 144.94C141.969 144.745 142.515 144.598 143.071 144.5Z" fill="#263238"/>
<path d="M97.0799 111.593C96.9432 111.593 96.8552 104.414 96.8845 95.5438C96.9138 86.674 97.0506 79.4941 97.1971 79.5039C97.3437 79.5137 97.4218 86.6838 97.3925 95.5536C97.3632 104.423 97.2265 111.593 97.0799 111.593Z" fill="#263238"/>
<path d="M162.462 74.1561C162.462 74.1561 170.091 80.701 170.599 84.413C170.98 87.2752 178.492 114.187 181.872 126.242C182.928 129.995 182.701 133.993 181.227 137.602L171.459 161.731L155.683 152.392L163.576 129.768L157.04 110.563L162.462 74.1561Z" fill="#F65314"/>
<path d="M171.478 161.73C171.374 161.695 171.275 161.645 171.184 161.584L170.344 161.124L167.15 159.298L155.565 152.567L155.418 152.479L155.477 152.333C157.684 145.954 160.361 138.198 163.292 129.68V129.846C162.373 127.365 161.406 124.776 160.42 122.129C158.104 115.906 155.907 109.967 153.894 104.545C151.892 100.355 150.163 96.3007 149.684 92.4129C149.444 90.596 149.497 88.7524 149.84 86.9523C150.157 85.4225 150.69 83.9456 151.423 82.5662C152.462 80.6209 153.846 78.8801 155.506 77.428C155.942 77.0392 156.399 76.674 156.874 76.3339C157.032 76.2099 157.202 76.102 157.382 76.0116C157.242 76.1568 157.088 76.2877 156.922 76.4023C156.61 76.6465 156.161 77.0177 155.604 77.5355C154.013 79.0196 152.691 80.7679 151.696 82.703C150.987 84.0611 150.48 85.5157 150.192 87.0207C149.87 88.7846 149.834 90.5887 150.085 92.364C150.583 96.164 152.312 100.179 154.334 104.35L160.898 121.933C161.875 124.581 162.852 127.169 163.77 129.66V129.738V129.826C160.781 138.325 158.065 146.071 155.828 152.44L155.74 152.206L167.199 159.044L170.344 160.997L171.155 161.505C171.39 161.652 171.487 161.72 171.478 161.73Z" fill="#263238"/>
<g opacity="0.3">
<path d="M130.812 77.6768C131.339 77.6595 131.857 77.8196 132.282 78.1313C132.707 78.443 133.015 78.8884 133.157 79.3961C133.352 80.4511 133.206 81.5451 133.479 82.5806C133.753 83.6161 134.7 84.632 135.746 84.4073C136.366 84.2039 136.895 83.7889 137.24 83.2351C139.292 80.4578 140.936 77.402 142.124 74.1602C142.124 74.2285 136.713 80.3729 136.713 80.3729C136.505 78.8195 136.098 77.2993 135.501 75.8501C135.316 75.3812 135.111 74.59 134.661 74.3751C133.929 74.0429 132.952 75.1175 132.463 75.7622C131.964 76.424 131.397 77.0328 130.773 77.5791" fill="black"/>
</g>
<g opacity="0.3">
<path d="M121.99 72.1211C122.088 75.5527 122.748 78.945 123.944 82.1631C124.048 82.4938 124.228 82.7952 124.471 83.0423C124.597 83.1679 124.761 83.2492 124.937 83.2738C125.113 83.2985 125.293 83.2652 125.448 83.1791C125.84 82.5186 126.167 81.8218 126.425 81.0984C126.923 79.7015 128.955 79.5745 128.955 79.5745C128.615 77.9971 128.171 76.4438 127.627 74.9247C127.526 74.676 127.351 74.4645 127.125 74.3193C126.9 74.1741 126.635 74.1024 126.366 74.1139C126.015 74.2332 125.702 74.4433 125.458 74.723C125.215 75.0027 125.049 75.3419 124.979 75.7061C124.677 78.2167 124.716 79.3596 124.344 80.2387C123.368 77.5719 122.625 74.3776 122 72.0234" fill="black"/>
</g>
<g opacity="0.3">
<path d="M137.005 146.127C137.236 145.962 137.432 145.753 137.581 145.512C137.73 145.27 137.829 145.002 137.873 144.721C137.917 144.441 137.904 144.155 137.835 143.88C137.767 143.604 137.644 143.346 137.474 143.118C137.111 142.673 136.638 142.332 136.101 142.128C135.565 141.924 134.984 141.864 134.417 141.956C133.288 142.152 132.226 142.629 131.33 143.343C130.402 144.017 129.552 144.789 128.575 145.385C126.182 146.85 123.271 147.192 120.458 147.231C117.648 147.113 114.834 147.24 112.047 147.612C109.292 148.139 106.538 149.566 105.209 152.037C105.17 152.037 129.191 150.298 137.005 146.127Z" fill="black"/>
</g>
<path d="M152.634 181.404C150.068 179.753 147.915 177.534 146.343 174.918C146.358 174.884 146.365 174.848 146.365 174.811C146.365 174.774 146.358 174.737 146.343 174.703C146.283 174.625 146.196 174.573 146.099 174.557C145.423 173.519 144.81 172.443 144.262 171.333C146.216 170.063 148.785 168.129 146.001 167.738C142.572 167.25 140.14 165.579 139.769 164.671C139.711 164.454 139.722 164.224 139.8 164.014C139.879 163.804 140.02 163.623 140.206 163.496C140.391 163.37 140.611 163.304 140.836 163.308C141.06 163.312 141.278 163.385 141.459 163.518C142.503 164.047 143.613 164.431 144.761 164.661C145.679 164.876 146.626 164.935 147.564 164.837C148.141 164.769 150.182 163.372 152.37 162.346C152.675 162.203 153.015 162.155 153.347 162.209L154.177 162.151C154.621 162.123 155.049 161.981 155.421 161.738C155.793 161.495 156.095 161.159 156.297 160.764L159.472 154.668L169.045 160.334L161.465 170.845C158.715 174.522 155.767 178.047 152.634 181.404Z" fill="#FFBE9D"/>
<path d="M154.646 182.505C153.858 182.283 153.113 181.933 152.438 181.47C150.748 180.445 149.221 179.174 147.905 177.699C146.592 176.239 145.499 174.593 144.662 172.815C144.282 172.088 144.016 171.307 143.871 170.5C146.062 175.568 149.831 179.792 154.616 182.545L154.646 182.505Z" fill="#455A64"/>
<path d="M124.493 188.677C124.493 188.677 124.395 188.677 124.219 188.599C123.977 188.481 123.751 188.333 123.545 188.16C122.812 187.487 122.273 186.63 121.982 185.679C121.552 184.305 121.196 182.91 120.917 181.498C120.566 179.915 120.204 178.176 119.843 176.34C119.12 172.677 118.573 169.336 118.221 166.913C118.045 165.702 117.918 164.715 117.85 164.041C117.786 163.69 117.763 163.333 117.782 162.977C117.912 163.289 118 163.618 118.045 163.953L118.573 166.806C119.022 169.209 119.618 172.53 120.341 176.193C120.702 178.02 121.054 179.749 121.376 181.351C121.699 182.953 121.953 184.37 122.353 185.512C122.603 186.425 123.065 187.265 123.701 187.964C124.16 188.482 124.512 188.638 124.493 188.677Z" fill="#455A64"/>
<path d="M123.671 166.73C123.671 166.73 123.837 166.672 124.101 166.73C124.488 166.873 124.809 167.155 125 167.522C125.154 167.799 125.226 168.113 125.209 168.43C125.191 168.746 125.085 169.051 124.902 169.309C124.678 169.63 124.362 169.876 123.996 170.016C123.631 170.155 123.231 170.181 122.851 170.091C122.479 169.977 122.147 169.761 121.893 169.468C121.639 169.174 121.473 168.814 121.415 168.43C121.376 168.121 121.412 167.808 121.519 167.516C121.626 167.223 121.801 166.961 122.03 166.75C122.841 166.056 123.573 166.262 123.534 166.301C123.068 166.434 122.64 166.675 122.284 167.004C122.116 167.181 121.992 167.396 121.922 167.63C121.853 167.864 121.839 168.112 121.883 168.352C121.937 168.64 122.067 168.908 122.262 169.127C122.457 169.345 122.708 169.507 122.987 169.593C123.271 169.654 123.566 169.635 123.839 169.536C124.112 169.438 124.352 169.264 124.531 169.036C124.673 168.843 124.761 168.615 124.787 168.377C124.813 168.138 124.775 167.897 124.677 167.678C124.306 166.887 123.632 166.799 123.671 166.73Z" fill="#455A64"/>
<path d="M102.902 162.816C103.136 163.541 103.222 164.305 103.156 165.063C103.088 166.91 102.598 168.716 101.722 170.344C100.847 171.971 99.6097 173.376 98.1061 174.451C97.5042 174.908 96.8166 175.241 96.084 175.428C96.084 175.349 96.8166 174.968 97.8912 174.119C99.2755 173.003 100.421 171.62 101.26 170.053C102.1 168.486 102.615 166.765 102.775 164.995C102.922 163.686 102.814 162.826 102.902 162.816Z" fill="#455A64"/>
<path d="M64.9912 94.2763C65.0377 92.6382 65.2042 91.0057 65.4894 89.392C65.6087 87.7688 65.8437 86.1562 66.1927 84.5664C66.3451 86.1963 66.276 87.8393 65.9876 89.4507C65.8714 91.0963 65.5363 92.7192 64.9912 94.2763Z" fill="#263238"/>
<path d="M45.5231 83.1172C45.5155 83.2337 45.4925 83.3486 45.4548 83.4591C45.3961 83.7228 45.3082 84.0452 45.2008 84.4359C44.9468 85.3346 44.6049 86.585 44.1653 88.148L40.297 101.384L40.1407 101.111C45.6599 102.478 52.3122 103.592 59.4139 104.901C62.9501 105.565 66.3593 106.278 69.5048 107.06H69.3973L89.2078 102.576L94.981 101.326L96.5244 101.003C96.7024 100.953 96.8864 100.926 97.0715 100.925C96.9002 100.994 96.7238 101.05 96.5439 101.091L95.0201 101.482L89.3153 102.918L69.5439 107.577H69.4266C66.291 106.806 62.8915 106.102 59.3553 105.448C52.2732 104.139 45.6013 102.996 40.0723 101.541L39.8477 101.492L39.916 101.267C41.5571 95.8455 42.9345 91.3227 43.9211 88.0894C44.3998 86.5459 44.7905 85.3151 45.0738 84.4164C45.1975 84.0257 45.305 83.7 45.3962 83.4395C45.4292 83.3287 45.4717 83.2208 45.5231 83.1172Z" fill="#263238"/>
</g>
<defs>
<clipPath id="clip0_1_956">
<rect width="201.977" height="386" fill="white"/>
</clipPath>
</defs>
</svg>
