<svg width="129" height="142" viewBox="0 0 129 142" fill="none" xmlns="http://www.w3.org/2000/svg">
<path d="M36.7228 71.9003C27.7165 66.7388 18.2888 62.0381 8.16327 59.7997C6.75805 59.4153 5.2945 59.2903 3.84445 59.431C3.12113 59.5142 2.42783 59.7676 1.82132 60.1704C1.21481 60.5732 0.712365 61.114 0.355169 61.7484C-0.513861 63.5523 0.355166 65.6986 1.4217 67.3708C3.85762 71.0576 7.50492 73.7305 11.1786 76.1664C21.2514 82.8421 32.0616 88.2802 42.7797 93.705C41.463 86.0154 38.7242 79.4187 36.657 71.9003" fill="#F65314"/>
<path d="M105.771 91.7377C108.721 101.692 112.263 111.594 118.03 120.218C118.783 121.471 119.76 122.573 120.914 123.47C121.491 123.916 122.167 124.216 122.884 124.344C123.602 124.472 124.339 124.426 125.035 124.208C126.905 123.51 127.8 121.377 128.142 119.415C128.932 115.07 128.142 110.606 127.181 106.314C124.548 94.4633 120.466 83.1264 116.424 71.75C112.092 78.2414 109.471 84.9171 105.771 91.7377Z" fill="#F65314"/>
<path d="M36.5908 71.6951C36.5908 71.6951 37.2887 140.625 75.9737 141.981C114.659 143.337 116.278 72.1954 116.278 71.6951C116.278 71.6951 111.709 61.4247 76.4346 61.8197C41.1598 62.2147 36.5908 71.6951 36.5908 71.6951Z" fill="#F65314"/>
<path d="M87.9694 99.063C87.7773 101.694 86.8092 104.21 85.1875 106.291C83.5657 108.372 81.3632 109.925 78.8585 110.755C76.3538 111.584 73.6594 111.652 71.1162 110.949C68.573 110.247 66.2952 108.806 64.5709 106.809C62.8466 104.812 61.7532 102.349 61.4291 99.7306C61.1051 97.1121 61.5648 94.4564 62.7502 92.0993C63.9357 89.7422 65.7935 87.7897 68.0888 86.4886C70.384 85.1875 73.0136 84.5963 75.6449 84.7899C79.1716 85.0493 82.4509 86.6985 84.762 89.375C87.0731 92.0515 88.2268 95.5362 87.9694 99.063Z" fill="#263238"/>
<path d="M84.3618 98.807C84.2212 100.724 83.5154 102.556 82.3336 104.071C81.1518 105.587 79.5471 106.718 77.7224 107.322C75.8977 107.926 73.935 107.974 72.0825 107.463C70.23 106.951 68.5708 105.901 67.3149 104.446C66.059 102.991 65.2627 101.197 65.0267 99.2895C64.7907 97.3821 65.1256 95.4475 65.9891 93.7305C66.8526 92.0135 68.2058 90.591 69.8777 89.6431C71.5496 88.6952 73.465 88.2643 75.3818 88.405C77.9507 88.597 80.3386 89.7999 82.0219 91.7498C83.7053 93.6997 84.5467 96.2376 84.3618 98.807Z" fill="white"/>
<path d="M79.6732 100.576C79.5993 100.044 79.5684 99.5063 79.581 98.9692C79.581 97.9554 79.581 96.5333 79.581 94.7821L79.6864 94.9664L74.6434 92.0565H74.9199L69.8769 94.8874C69.7452 95.1244 70.0612 94.5846 70.0349 94.6373V96.1251C70.0349 96.6123 70.0349 97.1127 70.0349 97.5999C70.0349 98.5611 70.0349 99.4959 70.0349 100.404L69.9032 100.154L74.8409 103.17H74.617C76.1576 102.34 77.4348 101.682 78.3302 101.221C78.7935 100.957 79.278 100.733 79.7786 100.549C79.3641 100.863 78.9236 101.14 78.4619 101.379C77.6192 101.892 76.3551 102.696 74.775 103.551L74.6697 103.617L74.5644 103.551L69.5609 100.641L69.416 100.562V100.391C69.416 99.4827 69.416 98.5479 69.416 97.5867C69.416 97.0995 69.416 96.6123 69.416 96.112V94.6899C69.416 94.6899 69.7057 94.2027 69.5609 94.4266L74.6302 91.622L74.775 91.543L74.9067 91.622L79.8444 94.6504H79.9629V94.7689C79.9629 96.586 79.8576 98.0475 79.8049 99.0482C79.8085 99.5603 79.7644 100.072 79.6732 100.576Z" fill="#F65314"/>
<path d="M36.4199 71.6425C36.4199 71.6425 36.4989 71.6425 36.6306 71.6425L37.21 71.84L39.4615 72.63L41.0679 73.2094L43.0298 73.8151C44.4256 74.2364 46.0056 74.7763 47.8095 75.1318L50.6141 75.8428C51.5885 76.093 52.6155 76.2773 53.6821 76.5012C55.7888 76.9884 58.093 77.3176 60.4894 77.7126C70.9692 79.2199 81.6108 79.2199 92.0905 77.7126C94.5001 77.3307 96.7912 77.0015 98.898 76.5144C99.9645 76.2773 100.992 76.093 101.966 75.856L104.771 75.1318C106.574 74.7105 108.154 74.1706 109.563 73.8151C110.261 73.6044 110.88 73.4201 111.512 73.2226L113.132 72.6432L115.37 71.8532L115.949 71.6557L116.16 71.5898C116.16 71.5898 116.094 71.5898 115.963 71.682L115.383 71.9059L113.158 72.7354L111.552 73.3411C110.959 73.5517 110.235 73.7361 109.603 73.9731C108.207 74.3944 106.627 74.9475 104.823 75.382L102.019 76.1193C101.044 76.3695 100.017 76.567 98.9506 76.804C96.8307 77.2912 94.5396 77.6336 92.13 78.0286C81.6221 79.5734 70.9447 79.5734 60.4368 78.0286C58.014 77.6336 55.723 77.2912 53.6031 76.7909C52.5497 76.567 51.5095 76.3695 50.5351 76.1193L47.7305 75.382C45.9266 74.9475 44.3597 74.3944 42.9508 73.9599L41.0021 73.3411L39.3957 72.7354L37.1705 71.8927L36.5911 71.6689L36.4199 71.6425Z" fill="#263238"/>
<g opacity="0.3">
<path d="M36.5898 71.6958C36.5898 71.6958 41.1589 62.2286 76.4336 61.8204C111.708 61.4123 116.277 71.6958 116.277 71.6958C116.277 71.6958 80.6997 89.2476 36.5898 71.6958Z" fill="black"/>
</g>
<path d="M48.7175 120.752C48.6908 120.72 48.6687 120.684 48.6517 120.646L48.4805 120.343L47.8354 119.132L47.3877 118.263L46.8873 117.197C46.5318 116.433 46.1368 115.564 45.7418 114.563L45.1098 113.023L44.4909 111.337C44.03 110.178 43.6482 108.901 43.1742 107.571C42.3447 104.938 41.5415 101.923 40.8304 98.7625C40.1194 95.6024 39.6059 92.574 39.1845 89.7957C38.7632 87.0175 38.4867 84.5289 38.3287 82.409C38.2233 81.3556 38.1575 80.4076 38.1048 79.5649C38.0522 78.7222 38.0127 77.998 37.9863 77.4055V76.0887V75.6016C37.9863 75.6016 37.9863 75.6016 37.9863 75.7332V76.0756C37.9863 76.4179 37.9864 76.8656 38.0917 77.3923C38.197 77.919 38.1707 78.709 38.2497 79.5385C38.3287 80.3681 38.3945 81.3293 38.4999 82.3826C38.6974 84.4894 39.0265 86.978 39.4215 89.7562C39.8166 92.5345 40.3959 95.5366 41.0806 98.6967C41.7653 101.857 42.5948 104.806 43.398 107.479C43.8457 108.796 44.2144 110.113 44.7148 111.245L45.3204 112.944L45.9393 114.484C46.308 115.472 46.703 116.341 47.0453 117.118L47.5194 118.197L47.9539 119.079L48.5464 120.304L48.6912 120.62L48.7175 120.752Z" fill="white"/>
<path d="M67.3623 137.32C67.1541 137.313 66.9469 137.286 66.7435 137.241C66.1854 137.152 65.6351 137.02 65.0976 136.846C64.2953 136.606 63.5119 136.307 62.7538 135.951C61.8368 135.502 60.9563 134.983 60.1204 134.397C59.2833 133.803 58.4952 133.142 57.7635 132.422C57.1665 131.829 56.6163 131.191 56.1176 130.513C55.7755 130.067 55.4674 129.596 55.1959 129.104C55.0804 128.93 54.9833 128.745 54.9062 128.551C54.9062 128.551 55.3934 129.288 56.223 130.394C56.7363 131.043 57.2905 131.659 57.882 132.238C58.6157 132.938 59.3989 133.585 60.2258 134.173C61.0626 134.754 61.943 135.269 62.8592 135.714C63.602 136.078 64.3672 136.395 65.1503 136.662C66.4933 137.109 67.3623 137.267 67.3623 137.32Z" fill="white"/>
<path d="M75.421 113.008H75.0523C74.8153 113.008 74.4466 113.008 73.9857 113.008C72.6812 112.986 71.3866 112.778 70.1409 112.389C68.2771 111.825 66.5385 110.908 65.0189 109.69C63.1241 108.226 61.6298 106.307 60.6745 104.111C59.7193 101.915 59.3341 99.5133 59.5546 97.1288C59.6417 96.091 59.8269 95.0638 60.1076 94.0608C60.3664 93.1984 60.6922 92.3576 61.082 91.5459C61.6544 90.3647 62.3902 89.2699 63.2677 88.2936C63.5004 88.0309 63.7465 87.7804 64.0051 87.5431C64.1894 87.3719 64.2816 87.2929 64.2947 87.3061C64.3079 87.3193 63.9392 87.6748 63.3467 88.3726C62.507 89.3559 61.807 90.4503 61.2663 91.6249C60.8846 92.431 60.5719 93.2679 60.3314 94.1267C60.0654 95.1133 59.8935 96.1229 59.8179 97.1419C59.607 99.4845 59.9871 101.843 60.9233 104C61.8595 106.158 63.322 108.046 65.1769 109.493C65.9764 110.13 66.8313 110.694 67.7313 111.178C68.5264 111.579 69.3493 111.922 70.1936 112.205C71.4271 112.599 72.7059 112.834 73.9989 112.903C74.9074 113.008 75.421 112.982 75.421 113.008Z" fill="white"/>
<path d="M73.748 0.0205897C73.748 0.0205897 40.0139 -0.387589 34.747 28.8566C29.4801 58.1008 57.9343 58.6012 66.1374 59.141C69.8637 59.3912 77.8167 59.4175 84.8348 59.2859C100.385 59.0225 111.367 56.0072 115.119 41.5892C115.566 39.8955 115.848 38.1625 115.962 36.4145C116.87 20.614 106.166 -0.756271 73.748 0.0205897Z" fill="#F65314"/>
<path d="M98.2142 44.5082L49.2193 45.2719C47.993 45.2911 46.7751 45.0674 45.6356 44.6137C44.4962 44.1601 43.4578 43.4854 42.5802 42.6287C41.7026 41.7719 41.0033 40.75 40.5224 39.6218C40.0416 38.4935 39.7888 37.2813 39.7785 36.0549C39.7398 33.5881 40.6818 31.2068 42.3977 29.4342C44.1135 27.6615 46.4629 26.6425 48.9296 26.6009L97.9509 25.9031C99.1773 25.8857 100.395 26.1104 101.535 26.5646C102.674 27.0187 103.713 27.6932 104.591 28.5494C105.469 29.4057 106.17 30.4268 106.653 31.5543C107.135 32.6818 107.391 33.8936 107.405 35.12C107.426 37.5822 106.471 39.9525 104.748 41.712C103.026 43.4715 100.676 44.4769 98.2142 44.5082Z" fill="#263238"/>
<path d="M59.3835 35.112C59.2702 35.693 58.9869 36.2272 58.5696 36.647C58.1522 37.0668 57.6197 37.3532 57.0394 37.47C56.4591 37.5867 55.8572 37.5285 55.31 37.3028C54.7628 37.0771 54.295 36.6939 53.9658 36.202C53.6366 35.7101 53.4609 35.1315 53.4609 34.5395C53.461 33.9476 53.6367 33.369 53.966 32.8771C54.2952 32.3852 54.7631 32.0022 55.3104 31.7765C55.8576 31.5509 56.4595 31.4928 57.0397 31.6096C57.8138 31.7654 58.4948 32.2212 58.9339 32.8775C59.3731 33.5337 59.5347 34.337 59.3835 35.112Z" fill="white"/>
<path d="M93.6174 34.5548C93.5046 35.1355 93.2222 35.6696 92.8057 36.0896C92.3892 36.5096 91.8575 36.7966 91.2779 36.9142C90.6982 37.0319 90.0967 36.9749 89.5494 36.7506C89.0021 36.5262 88.5337 36.1445 88.2035 35.6537C87.8733 35.163 87.6961 34.5854 87.6943 33.9939C87.6926 33.4024 87.8664 32.8237 88.1937 32.331C88.521 31.8384 88.9871 31.4539 89.533 31.2263C90.079 30.9987 90.6802 30.9381 91.2605 31.0524C92.037 31.2052 92.7212 31.6597 93.163 32.3163C93.6049 32.9729 93.7683 33.7779 93.6174 34.5548Z" fill="white"/>
<path d="M67.9682 33.7271C68.1921 33.7271 68.0735 34.7936 68.7319 36.1893C69.1093 36.9845 69.6473 37.6928 70.312 38.2697C71.0999 38.9568 72.0779 39.3884 73.1166 39.5074C74.1623 39.5836 75.2061 39.3353 76.1055 38.7964C76.8663 38.3493 77.5256 37.7483 78.0411 37.032C78.9364 35.7811 79.0154 34.7409 79.2393 34.7541C79.4631 34.7673 79.4105 35.0174 79.4105 35.5178C79.3806 36.2208 79.1963 36.9086 78.8706 37.5324C78.3818 38.4742 77.6613 39.2763 76.777 39.8629C75.6668 40.6152 74.3358 40.9723 72.998 40.8768C71.6638 40.7347 70.4184 40.1399 69.4693 39.1914C68.7043 38.4689 68.1376 37.5622 67.8234 36.558C67.6089 35.8866 67.5503 35.175 67.6522 34.4776C67.7444 33.9509 67.8761 33.7139 67.9682 33.7271Z" fill="white"/>
<path d="M69.4822 2.20313H69.3637H69.0082C68.6922 2.20313 68.2313 2.20312 67.6915 2.30845C66.0159 2.47493 64.3533 2.75205 62.7143 3.13799C60.2849 3.71329 57.9203 4.53386 55.6567 5.58708C52.8793 6.88604 50.2778 8.53189 47.9145 10.4853C43.636 14.0613 40.2275 18.564 37.9469 23.6524C37.2552 25.1859 36.6701 26.7653 36.1957 28.3794C36.0114 28.9587 35.9192 29.4064 35.827 29.6961L35.7217 30.0384V30.1569C35.7217 30.1569 35.7217 30.1569 35.7217 30.0384L35.8007 29.6829C35.8665 29.3801 35.9455 28.9192 36.1167 28.3662C36.5317 26.735 37.0687 25.1373 37.7231 23.5865C38.7178 21.2662 39.9582 19.0591 41.4231 17.003C46.519 9.88362 54.0628 4.89504 62.609 2.99315C64.2737 2.62219 65.9638 2.37572 67.6651 2.25579C68.2577 2.25579 68.7317 2.25579 68.9819 2.25579H69.4559L69.4822 2.20313Z" fill="white"/>
<path d="M36.4854 42.6692C36.2688 42.3458 36.1044 41.9903 35.9982 41.6158C35.6922 40.7601 35.4631 39.8788 35.3135 38.9824C35.1748 38.0632 35.1175 37.1335 35.1423 36.2041C35.135 35.8181 35.1793 35.4329 35.274 35.0586C35.3662 35.0586 35.274 36.823 35.5901 39.0087C35.9061 41.1945 36.5644 42.6429 36.4854 42.6692Z" fill="white"/>
<path d="M90.1158 24.1945C90.1158 24.2735 83.6639 24.3393 75.711 24.3393C67.758 24.3393 61.293 24.3393 61.293 24.1945C61.293 24.0496 67.7448 24.0628 75.711 24.0628C83.6771 24.0628 90.1158 24.1286 90.1158 24.1945Z" fill="white"/>
<path d="M65.5193 57.057C65.5193 57.057 65.4403 57.057 65.2823 57.057H64.5845C64.2685 57.057 63.8998 57.057 63.4653 57.057C63.0307 57.057 62.5304 57.057 61.9774 57.057C60.6925 57.0461 59.4091 56.967 58.1326 56.82C56.5696 56.6383 55.0179 56.3701 53.4846 56.0168C51.9541 55.6688 50.4459 55.2291 48.9682 54.7001C47.7616 54.2634 46.5792 53.7623 45.4263 53.199C44.9259 52.962 44.4914 52.725 44.1096 52.5143C43.7277 52.3036 43.3985 52.1325 43.1352 51.9745L42.5295 51.6058L42.332 51.4609C42.332 51.4609 42.411 51.4609 42.5558 51.5531L43.1879 51.8691C43.4512 52.014 43.7804 52.1983 44.1754 52.3826C44.5704 52.567 45.005 52.804 45.4921 53.0147C46.4797 53.4755 47.6779 53.9759 49.0341 54.463C50.5118 54.9781 52.0148 55.4176 53.5372 55.7798C55.0626 56.1318 56.6053 56.4043 58.1589 56.5961C59.581 56.7673 60.8845 56.8595 61.9774 56.8858C62.5172 56.8858 63.0176 56.8858 63.4521 56.8858H65.5061L65.5193 57.057Z" fill="white"/>
<path d="M106.759 75.9081H106.64L106.258 76.053L104.797 76.5797C104.165 76.8035 103.388 77.0669 102.466 77.3434C101.544 77.6199 100.504 77.9622 99.3455 78.2519L97.5153 78.7391L95.5139 79.1999C94.1972 79.5291 92.6435 79.7924 91.0766 80.0953C87.6625 80.6724 84.2216 81.0767 80.7667 81.3067C77.3148 81.4833 73.8561 81.4833 70.4042 81.3067C68.8109 81.2013 67.2967 81.1223 65.8878 80.9643L63.847 80.7536L61.9641 80.4903C60.7659 80.3455 59.6993 80.1348 58.7513 79.9768C57.8032 79.8188 57 79.6476 56.3417 79.5028L54.8275 79.1604L54.4325 79.0683H54.3008C54.3008 79.0683 54.3008 79.0683 54.4456 79.0683L54.8406 79.1341L56.368 79.4238C57.0264 79.5554 57.8296 79.7134 58.7776 79.8451C59.7256 79.9768 60.7922 80.2006 61.9904 80.3323L63.8733 80.5693C64.5185 80.6483 65.19 80.701 65.901 80.7668C67.3099 80.9116 68.8241 80.9907 70.4042 81.0828C73.5906 81.2145 77.0931 81.2145 80.7535 81.0038C84.414 80.7931 87.8901 80.3323 91.0239 79.8188C92.5908 79.5291 94.0787 79.2789 95.4612 78.9497C96.1459 78.7917 96.7779 78.6601 97.4626 78.5021L99.2929 78.0412C100.465 77.7647 101.505 77.4355 102.413 77.1722C103.322 76.9088 104.125 76.6587 104.77 76.448L106.245 75.974L106.627 75.8555L106.759 75.9081Z" fill="white"/>
</svg>
