<svg width="146" height="306" viewBox="0 0 146 306" fill="none" xmlns="http://www.w3.org/2000/svg">
<path d="M76.1651 85.0781L79.705 117.609L100.652 124.595L101.513 134.724L71.9533 132.743C71.9533 132.743 62.8408 132.966 60.8598 120.96L60.3774 89.4019L76.1651 85.0781Z" fill="#FFBE9D"/>
<path d="M119.635 134.54C119.449 134.761 119.2 134.921 118.922 134.997C118.644 135.074 118.349 135.065 118.076 134.971C117.956 134.934 117.843 134.879 117.74 134.807C116.999 134.342 117.507 132.714 117.507 132.714L113.821 131.069C113.821 131.069 107.938 132.981 105.587 134.652C103.236 136.323 99.1357 133.386 99.1357 133.386L99.73 124.773L108.533 120.226C108.533 120.226 107.999 120.493 108.808 119.416C109.618 118.339 111.728 119.416 111.728 119.416C112.228 118.916 113.743 119.089 113.743 119.089L119.773 121.449C120.384 121.692 120.934 122.068 121.381 122.551C121.828 123.034 122.161 123.611 122.356 124.239L123.89 129.106C123.89 129.106 124.492 132.482 124.088 133.119C123.912 133.386 123.645 133.578 123.336 133.659C123.028 133.74 122.7 133.705 122.417 133.559C122.417 133.559 121.555 135.445 121.047 135.385C120.52 135.215 120.03 134.95 119.6 134.601L119.635 134.54Z" fill="#FFBE9D"/>
<path d="M107.267 133.693C107.422 133.645 107.572 133.582 107.715 133.504L108.989 132.944C110.567 132.274 112.184 131.699 113.83 131.221H113.735L117.421 132.901L117.327 132.703C117.234 133.014 117.176 133.335 117.154 133.659C117.114 134.02 117.179 134.386 117.344 134.71C117.456 134.872 117.611 135 117.792 135.08C117.957 135.172 118.138 135.231 118.326 135.252C118.714 135.293 119.105 135.195 119.428 134.977C119.512 134.921 119.589 134.858 119.661 134.787L119.713 134.736H119.471L119.575 134.822L120.031 135.123C120.187 135.228 120.351 135.32 120.522 135.399C120.613 135.443 120.708 135.478 120.806 135.502C120.926 135.545 121.057 135.545 121.177 135.502C121.383 135.418 121.562 135.277 121.694 135.097C121.813 134.944 121.923 134.783 122.021 134.615C122.224 134.285 122.405 133.943 122.563 133.59L122.296 133.685C122.543 133.811 122.819 133.868 123.096 133.848C123.372 133.828 123.638 133.733 123.864 133.573C124.097 133.399 124.262 133.149 124.329 132.867C124.413 132.612 124.468 132.349 124.493 132.083C124.46 131.057 124.35 130.035 124.165 129.025C123.907 128.164 123.631 127.303 123.347 126.441C123.175 125.881 123.003 125.339 122.83 124.788C122.682 124.227 122.474 123.684 122.21 123.168C121.921 122.659 121.528 122.216 121.056 121.868C120.601 121.538 120.094 121.285 119.557 121.118L113.856 118.905H113.813C113.446 118.87 113.077 118.87 112.71 118.905C112.324 118.921 111.953 119.06 111.651 119.301H111.883C111.603 119.074 111.271 118.918 110.917 118.846C110.564 118.774 110.198 118.788 109.851 118.888C109.231 119.134 108.727 119.604 108.438 120.205L108.507 120.137L102.478 123.246L100.833 124.107C100.635 124.196 100.447 124.306 100.273 124.434C100.479 124.364 100.681 124.281 100.876 124.185L102.547 123.392L108.671 120.404H108.714V120.352C108.971 119.831 109.413 119.426 109.954 119.215C110.25 119.135 110.561 119.126 110.86 119.191C111.16 119.255 111.44 119.391 111.677 119.585L111.797 119.68L111.909 119.577C112.161 119.398 112.462 119.302 112.77 119.301C113.111 119.267 113.455 119.267 113.795 119.301H113.752L119.437 121.549C119.938 121.713 120.411 121.951 120.841 122.255C121.266 122.568 121.621 122.968 121.883 123.427C122.131 123.922 122.327 124.441 122.469 124.977C122.632 125.52 122.813 126.071 122.985 126.622C123.261 127.483 123.545 128.345 123.804 129.206C123.985 130.193 124.098 131.192 124.14 132.195C124.145 132.428 124.128 132.662 124.088 132.892C124.038 133.086 123.922 133.257 123.761 133.375C123.593 133.488 123.399 133.554 123.197 133.566C122.996 133.578 122.795 133.536 122.615 133.444L122.426 133.366L122.348 133.547C122.198 133.884 122.028 134.212 121.84 134.529C121.695 134.817 121.483 135.065 121.22 135.252C121.166 135.265 121.11 135.265 121.056 135.252C120.976 135.231 120.898 135.202 120.824 135.166C120.67 135.094 120.52 135.014 120.376 134.925C120.229 134.83 120.083 134.736 119.945 134.632L119.842 134.555C120.066 134.555 119.532 134.555 119.583 134.555L119.54 134.598C119.486 134.653 119.425 134.702 119.359 134.744C119.109 134.921 118.803 135 118.498 134.968C118.352 134.952 118.211 134.905 118.085 134.83C117.955 134.787 117.843 134.703 117.766 134.589C117.559 134.034 117.559 133.422 117.766 132.867V132.729L117.637 132.668L113.933 131.041H113.881H113.838C112.19 131.551 110.579 132.172 109.015 132.901C108.464 133.159 108.05 133.375 107.775 133.53C107.598 133.559 107.427 133.614 107.267 133.693Z" fill="#EB996E"/>
<path d="M112.202 121.835C112.758 122.299 113.379 122.68 114.045 122.964C115.647 123.75 117.343 124.329 119.092 124.686L118.92 124.497C118.92 124.824 118.971 125.177 119.015 125.539C119.267 127.554 119.904 129.501 120.892 131.275C121.186 131.81 121.52 132.323 121.891 132.808C122.158 133.153 122.322 133.325 122.339 133.308C122.356 133.291 121.84 132.498 121.151 131.137C120.269 129.362 119.687 127.452 119.428 125.487C119.385 125.134 119.359 124.789 119.333 124.471V124.333H119.17C117.45 123.988 115.772 123.46 114.165 122.757C112.942 122.18 112.236 121.749 112.202 121.835Z" fill="#EB996E"/>
<path d="M117.162 127.039C117.056 129.721 118.013 132.336 119.824 134.317C119.927 134.248 118.902 132.81 118.179 130.794C117.455 128.779 117.291 127.022 117.162 127.039Z" fill="#EB996E"/>
<path d="M98.5674 130.555C98.5674 130.555 98.6191 130.624 98.7397 130.727C98.9115 130.875 99.096 131.008 99.2909 131.123C100.015 131.591 100.822 131.915 101.668 132.079C102.967 132.33 104.31 132.211 105.544 131.735C107.108 131.117 108.415 129.984 109.248 128.522L108.981 128.608C110.917 129.541 113.019 130.082 115.165 130.202C115.741 130.261 116.323 130.227 116.887 130.098C117.205 130.028 117.485 129.84 117.671 129.573C117.756 129.437 117.813 129.285 117.836 129.127C117.86 128.968 117.851 128.806 117.809 128.651C117.727 128.343 117.525 128.08 117.249 127.919L116.577 127.549C114.803 126.593 113.132 125.826 111.771 125.198C110.41 124.569 109.187 124.138 108.429 123.845C108.022 123.67 107.598 123.538 107.163 123.449C107.552 123.661 107.955 123.845 108.369 124C109.153 124.336 110.272 124.862 111.651 125.465C113.029 126.068 114.639 126.92 116.388 127.894L117.051 128.264C117.141 128.316 117.219 128.385 117.281 128.468C117.343 128.551 117.388 128.646 117.413 128.746C117.44 128.849 117.446 128.956 117.432 129.061C117.417 129.166 117.381 129.267 117.327 129.358C117.193 129.537 116.996 129.657 116.775 129.694C116.255 129.806 115.72 129.835 115.191 129.78C113.101 129.652 111.055 129.129 109.161 128.238L108.989 128.152L108.894 128.324C108.126 129.71 106.912 130.797 105.449 131.408C104.277 131.886 102.995 132.032 101.746 131.83C100.923 131.695 100.128 131.424 99.3942 131.029C98.843 130.727 98.5846 130.529 98.5674 130.555Z" fill="#EB996E"/>
<path d="M123.838 252.123C123.9 251.856 123.9 251.58 123.838 251.313C123.713 250.575 123.434 249.87 123.02 249.246C122.886 249.026 122.72 248.826 122.529 248.652C122.409 248.539 122.261 248.46 122.101 248.424C121.94 248.388 121.773 248.395 121.616 248.445C121.522 248.479 121.436 248.534 121.366 248.605C121.296 248.677 121.243 248.763 121.211 248.858C121.153 249.035 121.153 249.225 121.211 249.401C121.329 249.7 121.473 249.989 121.642 250.262C121.952 250.796 122.219 251.33 122.624 251.933C122.746 252.105 122.912 252.241 123.104 252.327C123.297 252.413 123.508 252.447 123.718 252.424C124.101 252.357 124.461 252.198 124.769 251.959C125.336 251.544 125.853 251.064 126.31 250.529C126.529 250.278 126.734 250.013 126.922 249.737C127.131 249.465 127.286 249.155 127.378 248.824C127.427 248.631 127.408 248.426 127.323 248.245C127.238 248.065 127.093 247.919 126.913 247.834C126.744 247.785 126.565 247.78 126.393 247.819C126.222 247.858 126.063 247.94 125.931 248.057C125.542 248.4 125.198 248.791 124.906 249.22C124.477 249.827 124.135 250.491 123.89 251.193C123.776 251.438 123.717 251.706 123.718 251.976C124.12 251.069 124.61 250.204 125.182 249.393C125.468 249.003 125.801 248.651 126.172 248.342C126.249 248.272 126.342 248.221 126.443 248.196C126.543 248.17 126.649 248.17 126.749 248.195C126.835 248.245 126.9 248.323 126.934 248.416C126.969 248.508 126.97 248.61 126.939 248.703C126.856 248.971 126.722 249.22 126.543 249.436C126.362 249.694 126.164 249.944 125.957 250.185C125.514 250.683 125.021 251.133 124.484 251.529C124.232 251.722 123.936 251.852 123.623 251.908C123.495 251.924 123.365 251.905 123.248 251.852C123.131 251.798 123.031 251.713 122.96 251.606C122.624 251.115 122.305 250.504 121.986 250.004C121.836 249.766 121.701 249.519 121.582 249.263C121.496 249.031 121.582 248.876 121.702 248.815C122.073 248.66 122.434 249.082 122.684 249.436C123.237 250.249 123.629 251.162 123.838 252.123Z" fill="#263238"/>
<path d="M102.813 252.844L92.3744 275.471L75.5273 267.685L86.3194 239.684L102.813 252.844Z" fill="#FFBE9D"/>
<path d="M94.3467 273.957L88.2401 285.593C88.2401 285.593 103.821 301.76 102.391 305.343L65.6826 287.747L75.7684 264.414L94.3467 273.957Z" fill="#00A1F1"/>
<path d="M77.6547 278.557C77.2508 278.497 76.8387 278.587 76.4972 278.811C76.1556 279.035 75.9085 279.377 75.8029 279.772C75.7224 280.173 75.8003 280.59 76.0203 280.935C76.2402 281.28 76.5852 281.527 76.9829 281.624C77.413 281.697 77.8549 281.604 78.2194 281.365C78.5839 281.125 78.8438 280.756 78.9467 280.332C78.9835 279.904 78.8534 279.479 78.5837 279.145C78.314 278.811 77.9255 278.594 77.4997 278.54" fill="black"/>
<g opacity="0.6">
<path d="M65.6826 287.741L67.2157 284.812L101.831 302.788C101.831 302.788 103.132 304.278 102.391 305.372L65.6826 287.741Z" fill="white"/>
</g>
<path d="M88.9295 285.678C88.8347 285.859 87.9045 285.506 86.7418 285.678C85.579 285.851 84.7522 286.359 84.623 286.212C84.4938 286.066 85.2603 285.153 86.6642 284.989C88.0682 284.826 89.05 285.532 88.9295 285.678Z" fill="#263238"/>
<path d="M92.0128 289.132C91.9697 289.321 91.0481 289.252 90.0748 289.717C89.1016 290.183 88.5417 290.906 88.3522 290.811C88.1627 290.717 88.5503 289.649 89.7734 289.089C90.9964 288.529 92.0903 288.951 92.0128 289.132Z" fill="#263238"/>
<path d="M91.9954 294.776C91.8145 294.776 91.9954 293.725 92.9256 292.958C93.8558 292.192 94.8807 292.209 94.8807 292.399C94.8807 292.588 94.1142 292.864 93.3648 293.492C92.6155 294.121 92.1762 294.862 91.9954 294.776Z" fill="#263238"/>
<path d="M90.6776 281.208C90.5226 281.337 89.8163 280.691 88.7741 280.277C87.7319 279.864 86.7845 279.804 86.7673 279.606C86.7501 279.407 87.8095 279.132 89.0411 279.606C90.2728 280.079 90.8326 281.087 90.6776 281.208Z" fill="#263238"/>
<path d="M97.7923 270.939L125.311 202.034C125.311 202.034 124.691 190.286 122.529 186.574C120.367 182.862 54.8048 161.217 54.8048 161.217C54.8048 161.217 38.1041 157.195 26.9761 161.217C15.8481 165.24 7.49349 179.15 9.03522 186.884C10.5769 194.619 17.6913 200.906 17.6913 200.906L65.3212 201.767L91.5909 211.319L73.8912 262.041L97.7923 270.939Z" fill="#263238"/>
<path d="M122.262 223.873L122.882 248.791L104.329 249.239L101.659 219.352L122.262 223.873Z" fill="#FFBE9D"/>
<path d="M123.984 246.557L123.631 259.692C123.631 259.692 144.767 267.289 145.043 271.173L104.338 271.586L103.089 246.195L123.984 246.557Z" fill="#00A1F1"/>
<path d="M111.039 258.052C110.649 258.175 110.317 258.439 110.109 258.792C109.901 259.144 109.83 259.562 109.911 259.964C110.02 260.358 110.277 260.696 110.628 260.908C110.979 261.119 111.397 261.188 111.797 261.101C112.215 260.974 112.569 260.694 112.788 260.317C113.007 259.939 113.074 259.493 112.977 259.068C112.822 258.668 112.519 258.345 112.13 258.165C111.741 257.985 111.298 257.963 110.893 258.103" fill="black"/>
<g opacity="0.6">
<path d="M104.355 271.619L104.433 268.32L143.433 269.182C143.433 269.182 145.259 269.948 145.061 271.231L104.355 271.619Z" fill="white"/>
</g>
<path d="M124.303 259.477C124.303 259.675 123.304 259.779 122.339 260.425C121.374 261.071 120.849 261.915 120.668 261.837C120.487 261.76 120.771 260.614 121.96 259.848C123.149 259.081 124.346 259.296 124.303 259.477Z" fill="#263238"/>
<path d="M128.592 261.197C128.644 261.387 127.782 261.74 127.119 262.584C126.456 263.428 126.258 264.306 126.068 264.306C125.879 264.306 125.733 263.178 126.577 262.136C127.421 261.094 128.583 261.008 128.592 261.197Z" fill="#263238"/>
<path d="M131.073 266.28C130.892 266.331 130.599 265.341 131.073 264.247C131.546 263.153 132.502 262.705 132.589 262.869C132.675 263.032 132.106 263.627 131.727 264.531C131.348 265.435 131.262 266.262 131.073 266.28Z" fill="#263238"/>
<path d="M123.898 254.687C123.82 254.867 122.899 254.6 121.779 254.687C120.659 254.773 119.781 255.134 119.678 254.971C119.574 254.807 120.41 254.109 121.736 253.997C123.062 253.886 123.993 254.523 123.898 254.687Z" fill="#263238"/>
<path d="M111.427 154.703C111.427 154.703 122.546 153.842 123.778 165.9C125.01 177.959 126.216 234.219 126.216 234.219L100.239 236.389L96.2165 178.872L54.7793 161.241C54.7793 161.241 104.003 153.162 111.427 154.703Z" fill="#263238"/>
<path d="M65.6142 138.434C65.6142 138.434 72.3581 157.382 71.0748 159.458C69.7915 161.534 52.4362 170.233 52.4362 170.233L9.02666 186.908C9.02666 186.908 4.57373 179.819 4.57373 168.924C4.57373 158.028 19.6723 138.434 19.6723 138.434H65.6142Z" fill="#263238"/>
<path d="M52.7466 160.285C52.7466 160.285 52.8069 160.328 52.9447 160.397L53.5648 160.681L55.9679 161.749L64.9943 165.677L96.1475 179.087L96.0011 178.889C96.3973 184.574 96.8194 190.715 97.2673 197.063C98.318 211.903 99.2913 225.58 100.066 236.407V236.605H100.265L119.213 234.943L124.381 234.46L125.742 234.314C125.899 234.304 126.054 234.281 126.207 234.245H125.742L124.372 234.331L119.153 234.719L100.204 236.209L100.411 236.39C99.6703 225.563 98.7315 211.877 97.7151 197.037C97.2672 190.689 96.8538 184.548 96.4318 178.872V178.726L96.3026 178.674L65.0804 165.419L56.0023 161.612L53.5734 160.612L52.9361 160.363L52.7466 160.285Z" fill="#455A64"/>
<path d="M18.2163 162.171C18.6329 162.094 19.0421 161.982 19.4394 161.835L22.7037 160.784C26.2713 159.576 29.9289 158.651 33.6422 158.019C37.3539 157.411 41.1435 157.458 44.8391 158.157C46.3562 158.513 47.8539 158.948 49.3265 159.458C48.974 159.224 48.5953 159.034 48.1982 158.889C47.138 158.439 46.0398 158.085 44.9166 157.83C41.1885 157.012 37.3387 156.913 33.5733 157.537C29.8315 158.181 26.1579 159.173 22.6003 160.5C21.2309 160.982 20.1284 161.404 19.3791 161.697C18.9765 161.815 18.5869 161.974 18.2163 162.171Z" fill="#455A64"/>
<path d="M24.3574 152.196C25.6195 152.119 26.8851 152.119 28.1471 152.196C29.3185 152.274 30.731 152.455 32.2642 152.635C33.7973 152.816 35.5027 153.023 37.2597 153.359C40.2758 153.841 43.1674 154.912 45.7694 156.511C46.8049 157.235 47.7892 158.029 48.715 158.889C48.5477 158.586 48.3357 158.31 48.0863 158.07C47.446 157.381 46.7327 156.763 45.9589 156.227C43.3602 154.509 40.423 153.37 37.3458 152.885C35.563 152.541 33.849 152.351 32.2986 152.188C30.7483 152.024 29.353 151.886 28.1644 151.852C27.2238 151.81 26.2815 151.851 25.3479 151.972C25.0084 151.997 24.6744 152.072 24.3574 152.196Z" fill="#455A64"/>
<path d="M43.53 0.20699C38.5345 -0.654311 34.1419 1.275 29.9301 4.09145C25.7283 6.99081 22.5127 11.1049 20.7142 15.8827C18.7141 20.8788 18.3936 26.39 19.8012 31.5842C20.5236 34.159 21.76 36.5609 23.4356 38.6451C25.1113 40.7293 27.1916 42.4527 29.5511 43.7113C36.0453 47.0101 44.3569 45.8646 50.1707 41.4719C55.9845 37.0793 59.3091 29.8099 59.5847 22.5233C59.8488 17.4705 58.517 12.4626 55.7777 8.20847C54.3947 6.10561 52.5935 4.30999 50.4864 2.93341C48.3793 1.55683 46.0114 0.628754 43.53 0.20699Z" fill="#263238"/>
<path d="M29.327 17.1876C30.0591 15.2756 29.7749 13.1395 30.0591 11.1155C30.6965 6.65393 34.2881 3.07954 38.4482 1.33971C42.3154 -0.279534 47.0612 0.0735988 51.695 1.58088C54.927 2.5636 57.8128 4.44559 60.0152 7.00706C61.4186 8.74457 62.3854 10.7929 62.835 12.9806C63.2845 15.1684 63.2036 17.432 62.5991 19.5821L39.7832 16.2661C37.6472 18.0317 35.4767 19.8232 32.8928 20.8137C32.1464 21.143 31.3274 21.2736 30.5156 21.1927C30.1103 21.1454 29.7272 20.9821 29.4124 20.7224C29.0977 20.4626 28.8647 20.1175 28.7413 19.7285C28.4915 18.8672 29.0083 18.0145 29.327 17.1876Z" fill="#263238"/>
<path d="M52.1435 7.87942L32.2216 12.0998C31.2972 12.1703 30.4322 12.5825 29.7953 13.256C29.1584 13.9296 28.7951 14.8162 28.7764 15.7431L29.0175 58.8598C29.0359 61.8021 30.0227 64.6565 31.8254 66.9819L33.7288 69.4366C38.0354 75.0265 46.8292 74.458 50.1366 68.2136C50.3388 67.8587 50.4951 67.4795 50.6017 67.0853C50.662 66.6977 50.7654 66.4393 50.7826 66.112L51.1702 61.9088C51.3597 58.0674 51.3855 54.1571 51.3855 54.2088C51.3855 54.2605 59.5421 53.1752 61.6264 42.6674C62.6686 37.4479 62.7375 28.8177 62.5652 21.755C62.4274 15.3986 58.5257 7.45738 52.1435 7.87942Z" fill="#FFBE9D"/>
<path d="M59.2233 30.5652C59.2122 30.9186 59.0639 31.2538 58.8099 31.4997C58.5559 31.7457 58.2161 31.8832 57.8625 31.883C57.6896 31.8899 57.517 31.8622 57.3549 31.8016C57.1928 31.7409 57.0444 31.6485 56.9185 31.5298C56.7925 31.4111 56.6915 31.2684 56.6214 31.1102C56.5513 30.952 56.5136 30.7813 56.5103 30.6083C56.5193 30.2541 56.6669 29.9177 56.9214 29.6713C57.1759 29.4248 57.5169 29.2881 57.8711 29.2905C58.0443 29.2824 58.2174 29.3092 58.3801 29.3694C58.5427 29.4296 58.6915 29.522 58.8177 29.6409C58.9439 29.7599 59.0448 29.903 59.1145 30.0618C59.1842 30.2206 59.2212 30.3918 59.2233 30.5652Z" fill="#263238"/>
<path d="M60.5318 26.1415C60.3595 26.3138 59.3604 25.5128 57.9048 25.4611C56.4492 25.4094 55.3209 26.0984 55.1917 25.9176C55.0626 25.7367 55.3037 25.5214 55.786 25.1941C56.4335 24.7843 57.191 24.5829 57.9565 24.617C58.7154 24.6429 59.446 24.9116 60.0409 25.3836C60.4801 25.7711 60.6179 26.1415 60.5318 26.1415Z" fill="#263238"/>
<path d="M45.744 29.8617C45.7329 30.2151 45.5846 30.5503 45.3305 30.7962C45.0765 31.0422 44.7368 31.1797 44.3832 31.1795C44.211 31.1852 44.0393 31.1567 43.8782 31.0955C43.7171 31.0343 43.5698 30.9418 43.4448 30.8232C43.3197 30.7046 43.2195 30.5623 43.15 30.4046C43.0804 30.247 43.0429 30.0771 43.0396 29.9048C43.0486 29.5506 43.1962 29.2142 43.4507 28.9678C43.7052 28.7213 44.0462 28.5846 44.4004 28.587C44.5729 28.5801 44.7451 28.6078 44.9067 28.6685C45.0683 28.7293 45.2161 28.8218 45.3414 28.9406C45.4666 29.0595 45.5668 29.2022 45.636 29.3604C45.7051 29.5186 45.7419 29.6891 45.744 29.8617Z" fill="#263238"/>
<path d="M46.6826 25.8101C46.5103 25.9823 45.5112 25.1813 44.047 25.1296C42.5828 25.078 41.4631 25.767 41.3425 25.5775C41.2219 25.388 41.4545 25.1813 41.9282 24.8626C42.5776 24.4501 43.3388 24.2485 44.1073 24.2856C44.8662 24.3115 45.5967 24.5802 46.1916 25.0521C46.6309 25.4139 46.7687 25.7325 46.6826 25.8101Z" fill="#263238"/>
<path d="M51.0577 36.9099C51.8365 36.702 52.6376 36.5892 53.4435 36.574C53.8139 36.574 54.1756 36.4878 54.2445 36.2381C54.2931 35.8552 54.2208 35.4667 54.0378 35.127C53.7278 34.214 53.3918 33.2493 53.0473 32.2502C51.6779 28.1504 50.696 24.7828 50.8596 24.7311C51.0233 24.6794 52.2722 27.9523 53.6502 32.0521C53.9775 33.0599 54.2962 34.0245 54.5891 34.9461C54.8104 35.4045 54.8594 35.9274 54.7269 36.4189C54.6692 36.5478 54.5824 36.6616 54.4733 36.7513C54.3642 36.8409 54.2357 36.9041 54.0981 36.9357C53.8893 36.985 53.6752 37.0082 53.4608 37.0046C52.659 37.0752 51.8515 37.0434 51.0577 36.9099Z" fill="#263238"/>
<path d="M51.3939 54.2049C46.417 54.0935 41.5688 52.6026 37.3892 49.8984C37.3892 49.8984 40.6621 57.3573 51.282 56.7888L51.3939 54.2049Z" fill="#EB996E"/>
<path d="M50.3087 40.402C50.0472 40.0373 49.6952 39.7471 49.2874 39.5599C48.8797 39.3726 48.4302 39.2947 47.9832 39.334C47.6522 39.351 47.3283 39.4363 47.0318 39.5845C46.7354 39.7327 46.4728 39.9407 46.2606 40.1953C46.0581 40.4295 45.9322 40.7202 45.8999 41.0282C45.8676 41.3361 45.9303 41.6466 46.0797 41.9179C46.301 42.1928 46.6015 42.3931 46.9404 42.4917C47.2793 42.5903 47.6403 42.5824 47.9746 42.4691C48.6715 42.2547 49.3187 41.9033 49.878 41.4355C50.0478 41.3244 50.1942 41.181 50.3087 41.0135C50.3631 40.9335 50.3922 40.839 50.3922 40.7422C50.3922 40.6454 50.3631 40.5509 50.3087 40.4709" fill="#EB996E"/>
<path d="M46.7256 37.7506C46.9667 37.7506 46.9064 39.3267 48.2156 40.5067C49.5248 41.6867 51.2216 41.5747 51.2216 41.7987C51.2216 41.8934 50.834 42.0915 50.1277 42.0829C49.1989 42.0592 48.3082 41.7084 47.6127 41.0924C46.9435 40.5016 46.5297 39.674 46.4586 38.7841C46.4241 38.1209 46.6222 37.7333 46.7256 37.7506Z" fill="#263238"/>
<path d="M46.5965 21.4924C46.4414 21.88 44.9944 21.6388 43.2718 21.7766C41.5492 21.9144 40.1539 22.3278 39.9386 21.9661C39.8439 21.7852 40.1022 21.4235 40.6707 21.0617C41.4334 20.6203 42.2866 20.3584 43.1655 20.2957C44.0445 20.233 44.9262 20.3713 45.7438 20.7C46.3639 20.9756 46.674 21.3029 46.5965 21.4924Z" fill="#263238"/>
<path d="M60.3593 19.7745C60.0836 20.0931 59.0932 19.7142 57.8873 19.6539C56.6815 19.5936 55.6479 19.7831 55.424 19.43C55.3293 19.2577 55.5015 18.9304 55.9666 18.6375C56.5761 18.2748 57.284 18.1121 57.9907 18.1724C58.7004 18.2126 59.3803 18.4714 59.9372 18.9132C60.3506 19.2491 60.4798 19.6194 60.3593 19.7745Z" fill="#263238"/>
<path d="M25.6756 14.0803C27.7427 8.05123 36.7605 -0.251711 43.1428 0.299522L53.22 6.62147C52.8552 8.35724 52.0277 9.96206 50.8254 11.266C49.623 12.57 48.0904 13.5245 46.3899 14.0287C44.5725 14.5368 42.402 14.6488 41.291 16.1819C40.1799 17.715 40.7656 20.0578 39.7062 21.677C38.2506 23.9078 34.3919 23.7269 33.2809 26.1558C32.7985 27.2152 33.0139 28.4985 32.5057 29.5579C31.8339 30.9532 28.1992 32.6758 26.7522 32.1418C25.3052 31.6078 25.3224 29.1273 24.866 27.8353C24.2832 26.3318 24.2405 24.6727 24.7454 23.1412C25.443 20.2042 24.6851 17.0002 25.6756 14.0803Z" fill="#263238"/>
<path d="M31.0935 33.5685C31.0935 32.7847 30.2839 30.8985 29.5173 30.7435C27.4502 30.3387 23.7035 30.3645 23.4882 35.627C23.1609 42.8361 30.4648 41.6562 30.482 41.4753C30.4992 41.2944 30.9988 36.2902 31.0935 33.5685Z" fill="#FFBE9D"/>
<path d="M28.38 38.638C28.38 38.638 28.2508 38.7241 28.0355 38.8102C27.7341 38.9305 27.398 38.9305 27.0966 38.8102C26.3473 38.5002 25.7616 37.2599 25.7875 35.9593C25.7942 35.3401 25.9415 34.7305 26.2181 34.1764C26.2963 33.9541 26.4273 33.7541 26.5998 33.5936C26.7723 33.433 26.9812 33.3168 27.2086 33.2548C27.3544 33.225 27.506 33.2464 27.6378 33.3155C27.7697 33.3845 27.8736 33.497 27.9321 33.6338C28.0182 33.8405 27.9321 33.9869 28.001 33.9955C28.0699 34.0042 28.1647 33.8836 28.1216 33.5821C28.0844 33.4026 27.9908 33.2397 27.8546 33.117C27.665 32.9585 27.4205 32.8811 27.1742 32.9017C26.876 32.948 26.5945 33.0696 26.3564 33.2549C26.1182 33.4403 25.9313 33.6834 25.8133 33.9611C25.4747 34.5704 25.2913 35.2537 25.2793 35.9507C25.2793 37.4063 25.9425 38.793 27.0019 39.1461C27.1925 39.2098 27.3949 39.2305 27.5944 39.2066C27.794 39.1828 27.9858 39.1151 28.156 39.0083C28.3628 38.8102 28.4058 38.6552 28.38 38.638Z" fill="#EB996E"/>
<path d="M24.1334 12.2368C24.1334 9.98877 21.3428 8.51594 19.1465 7.99916C16.903 7.61383 14.5959 8.05445 12.6523 9.23944C11.4895 9.8768 10.3268 10.7725 10.0684 12.0731C9.80999 13.3737 11.0589 14.9068 12.2905 14.4417C11.6695 14.6259 11.0981 14.9479 10.6187 15.3837C10.1394 15.8194 9.76452 16.3577 9.52205 16.9584C9.27958 17.5591 9.17574 18.2067 9.21828 18.8531C9.26082 19.4995 9.44863 20.1279 9.76772 20.6917C10.0868 21.2554 10.529 21.7399 11.0613 22.1091C11.5936 22.4782 12.2023 22.7226 12.8421 22.8238C13.482 22.9251 14.1364 22.8808 14.7567 22.6941C15.377 22.5074 15.9472 22.1831 16.4248 21.7455C15.7968 23.8287 14.4746 25.6342 12.6781 26.8617C14.5445 27.1283 16.4482 26.8983 18.1972 26.1946C19.9463 25.491 21.4789 24.3386 22.6406 22.8537C23.8023 21.3689 24.552 19.604 24.8141 17.737C25.0762 15.87 24.8414 13.9669 24.1334 12.2195V12.2368Z" fill="#263238"/>
<path d="M19.1292 23.7061C18.9192 23.0056 18.829 22.2748 18.8622 21.5443C18.828 17.983 19.9964 14.5144 22.1782 11.6996C22.5943 11.1001 23.1064 10.5733 23.6941 10.1406C23.8319 10.2354 21.4116 12.6298 20.1455 16.497C18.8794 20.3643 19.2928 23.7061 19.1292 23.7061Z" fill="#00A1F1"/>
<path d="M51.1271 4.49971C51.7903 7.43674 56.2518 11.2006 58.207 13.4831C61.945 17.8413 62.6771 19.2883 62.6427 28.9865C64.3653 25.6188 65.752 22.32 65.6142 18.5303C65.5344 14.6914 64.0514 11.0147 61.4455 8.1947C60.133 6.80954 58.515 5.75021 56.7205 5.10121C54.926 4.45221 53.0048 4.2315 51.1099 4.45665" fill="#263238"/>
<path d="M81.6858 84.6592C81.6858 84.6592 73.9341 71.7397 71.7636 69.0955C70.0305 67.0729 67.8557 65.4757 65.4072 64.4272C64.4369 64.0222 63.4221 63.7331 62.3841 63.5659L51.1871 61.094C51.1871 61.094 51.1871 68.7079 43.1856 69.1816C35.1842 69.6554 28.4746 58.5273 28.4746 58.5273C28.4746 58.5273 15.5551 60.5256 12.4802 62.1103C9.4054 63.6951 4.54766 65.7192 1.87763 79.0866L0 92.1611L22.2733 94.1852L24.4007 127.242L35.4339 134.925C35.4339 134.925 66.0187 142.875 67.9739 143.4C69.929 143.925 70.5578 94.1852 70.5578 94.1852C70.5578 94.1852 78.4301 89.1122 81.6858 84.6592Z" fill="#00A1F1"/>
<path d="M67.0435 79.1053C67.2221 79.4039 67.3666 79.7217 67.4741 80.0527C67.7239 80.6815 68.0512 81.5944 68.4129 82.7486C70.2795 88.7547 71.0497 95.0478 70.6868 101.327C70.6093 102.524 70.5231 103.497 70.4198 104.161C70.3966 104.508 70.3359 104.851 70.2389 105.185C70.1975 104.839 70.1975 104.489 70.2389 104.143C70.282 103.471 70.3336 102.507 70.3595 101.31C70.4434 98.194 70.2995 95.0764 69.9288 91.9817C69.5408 88.8928 68.9306 85.8359 68.1029 82.8347C67.7842 81.6806 67.5 80.7504 67.3019 80.113C67.1813 79.7869 67.0947 79.4492 67.0435 79.1053Z" fill="#263238"/>
<path d="M66.0967 133.244L24.2116 124.131L22.2737 94.1835L3.65234 92.4609C3.65234 92.4609 4.34139 112.925 5.05627 119.015C6.08122 127.766 11.2576 139.686 14.2808 142.089C17.304 144.492 67.9743 143.398 67.9743 143.398L66.0967 133.244Z" fill="#FFBE9D"/>
<path d="M89.8683 138.669C89.7285 138.959 89.5056 139.2 89.228 139.363C88.9503 139.526 88.6305 139.602 88.3093 139.582C88.1715 139.569 88.0357 139.54 87.9045 139.496C86.9743 139.203 87.0432 137.317 87.0432 137.317L82.6075 136.593C82.6075 136.593 76.8368 140.314 74.7783 142.777C72.7198 145.241 67.4917 143.251 67.4917 143.251L65.6743 133.777L73.8481 126.387C73.8481 126.387 73.3399 126.835 73.9084 125.448C74.4768 124.061 77.0349 124.587 77.0349 124.587C77.4397 123.906 79.1106 123.656 79.1106 123.656L86.2767 124.518C87.0059 124.601 87.7072 124.848 88.3287 125.238C88.9503 125.629 89.4764 126.154 89.8683 126.774L92.9001 131.572C92.9001 131.572 94.5021 135.017 94.2437 135.835C94.1292 136.17 93.8956 136.45 93.5874 136.623C93.2792 136.797 92.918 136.85 92.5728 136.774C92.5728 136.774 92.2196 139.048 91.6253 139.125C91.0122 139.094 90.4105 138.948 89.851 138.695L89.8683 138.669Z" fill="#FFBE9D"/>
<path d="M74.6143 131.873C74.6143 131.951 75.5789 131.873 77.1034 131.934C79.0946 132.021 81.0633 132.39 82.9516 133.027C83.9913 133.376 85.0022 133.805 85.9748 134.311C86.8361 134.802 87.7405 135.172 88.0161 135.835C88.0803 135.973 88.1069 136.125 88.0933 136.276C88.0797 136.428 88.0263 136.573 87.9386 136.696C87.8092 136.901 87.6197 137.061 87.396 137.153C87.1931 137.219 86.9806 137.251 86.7672 137.248C86.7672 137.248 86.9912 137.446 87.4563 137.317C87.7313 137.238 87.9731 137.071 88.1453 136.843C88.2686 136.687 88.3493 136.502 88.3795 136.306C88.4097 136.11 88.3884 135.909 88.3176 135.723C88.1387 135.308 87.8385 134.957 87.4563 134.716C87.0687 134.457 86.6639 134.199 86.2074 133.949C85.2239 133.409 84.195 132.957 83.1325 132.597C81.2037 131.947 79.1819 131.615 77.1465 131.615C76.2943 131.575 75.4409 131.662 74.6143 131.873Z" fill="#EB996E"/>
<path d="M74.1143 136.45C74.1143 136.588 77.0427 136.45 80.6257 136.674C84.2087 136.898 87.0941 137.32 87.1113 137.19C86.5147 136.955 85.8888 136.801 85.2509 136.734C83.7287 136.475 82.1932 136.303 80.6515 136.217C79.1081 136.131 77.5611 136.131 76.0177 136.217C75.3756 136.207 74.735 136.285 74.1143 136.45Z" fill="#EB996E"/>
<path d="M89.8248 138.494C89.89 138.247 89.9218 137.992 89.9196 137.736C89.9635 137.036 89.9635 136.334 89.9196 135.634C89.8951 135.145 89.8288 134.658 89.7215 134.179C89.5927 133.617 89.3526 133.087 89.0152 132.62C88.3131 131.536 87.4026 130.602 86.3366 129.872C85.2751 129.139 84.1152 128.559 82.8914 128.15C81.8821 127.862 80.8399 127.706 79.7907 127.685C78.9294 127.685 78.1887 127.685 77.6977 127.685C77.4397 127.668 77.1806 127.694 76.9312 127.762C77.8736 127.892 78.8225 127.969 79.7734 127.995C80.7875 128.063 81.7903 128.248 82.7622 128.546C83.9306 128.971 85.0371 129.551 86.0523 130.269C87.0669 130.962 87.9433 131.838 88.6362 132.853C89.1948 133.684 89.5164 134.651 89.5665 135.652C89.7732 137.4 89.7301 138.503 89.8248 138.494Z" fill="#EB996E"/>
<path d="M79.4727 125.492C79.4727 125.561 80.5493 125.586 82.2633 125.785C83.9773 125.983 86.5698 126.155 88.0512 128.429C89.5108 130.128 90.7282 132.02 91.6687 134.053C91.9756 134.924 92.2033 135.82 92.3491 136.732C92.4093 136.484 92.424 136.227 92.3922 135.974C92.3486 135.28 92.2065 134.595 91.9701 133.941C91.1027 131.829 89.8985 129.871 88.4043 128.144C88.0047 127.619 87.5386 127.147 87.0176 126.741C86.5011 126.366 85.9157 126.097 85.295 125.948C84.3004 125.685 83.2818 125.524 82.2546 125.466C81.3302 125.352 80.3948 125.361 79.4727 125.492Z" fill="#EB996E"/>
<path d="M76.3628 141.252C76.5191 141.16 76.6637 141.05 76.7935 140.924C77.1036 140.683 77.4998 140.356 77.9907 139.96C79.498 138.791 81.0711 137.71 82.702 136.721H82.5987L87.0344 137.479L86.8793 137.29C86.8697 137.653 86.8986 138.017 86.9655 138.375C87.0248 138.772 87.1984 139.143 87.465 139.443C87.6336 139.587 87.8398 139.679 88.0593 139.71C88.2638 139.753 88.475 139.753 88.6795 139.71C89.1087 139.646 89.5002 139.428 89.7819 139.098C89.8574 139.02 89.9238 138.933 89.98 138.84L90.0231 138.771V138.728L89.7647 138.823L89.9025 138.874L90.471 139.081C90.6691 139.141 90.8672 139.193 91.0825 139.236C91.1914 139.245 91.3009 139.245 91.4098 139.236C91.552 139.248 91.6948 139.221 91.8232 139.159C92.0191 139.004 92.1682 138.799 92.2539 138.564C92.3434 138.369 92.4183 138.168 92.4778 137.961C92.5989 137.549 92.6938 137.129 92.762 136.704L92.5036 136.885C92.8049 136.946 93.1172 136.926 93.408 136.826C93.6988 136.726 93.9575 136.55 94.1573 136.316C94.3565 136.074 94.4633 135.769 94.4588 135.455C94.4439 135.163 94.3918 134.873 94.3038 134.594C93.9737 133.5 93.565 132.433 93.0807 131.398C92.5725 130.58 92.0213 129.719 91.4701 128.814L90.4451 127.195C90.128 126.63 89.7496 126.101 89.3168 125.619C88.8612 125.157 88.316 124.794 87.7148 124.551C87.1252 124.335 86.507 124.208 85.8802 124.172L79.1276 123.414H79.0759C78.6713 123.482 78.2735 123.586 77.8874 123.724C77.4769 123.849 77.1175 124.103 76.8624 124.448L77.1122 124.37C76.7458 124.203 76.3443 124.127 75.9421 124.149C75.5399 124.172 75.1492 124.292 74.8039 124.499C74.2069 124.938 73.8002 125.588 73.667 126.317L73.7273 126.222L68.0943 131.286C67.457 131.863 66.9574 132.329 66.5785 132.682C66.3924 132.834 66.2222 133.004 66.0703 133.19C66.274 133.063 66.4644 132.916 66.6387 132.751L68.2149 131.424L73.9512 126.472V126.411C74.0763 125.78 74.4326 125.218 74.9503 124.835C75.2449 124.668 75.5754 124.573 75.9141 124.559C76.2528 124.546 76.5899 124.614 76.8968 124.758L77.0519 124.818L77.1466 124.68C77.3713 124.413 77.6717 124.221 78.0079 124.129C78.3666 124.005 78.7355 123.913 79.1104 123.853H79.0587L85.8027 124.646C86.3918 124.679 86.9724 124.801 87.5253 125.007C88.0724 125.224 88.5683 125.553 88.9809 125.972C89.3864 126.433 89.7416 126.935 90.0403 127.471L91.0653 129.09L92.6845 131.674C93.1556 132.685 93.5585 133.727 93.8903 134.792C93.9657 135.039 94.0148 135.293 94.0368 135.55C94.0474 135.774 93.9701 135.993 93.8214 136.161C93.675 136.333 93.4845 136.461 93.2705 136.533C93.0565 136.604 92.8271 136.615 92.607 136.566H92.3831V136.781C92.3165 137.188 92.2273 137.591 92.1161 137.987C92.0452 138.34 91.885 138.67 91.6509 138.943C91.5939 138.952 91.5358 138.952 91.4787 138.943C91.387 138.952 91.2948 138.952 91.2031 138.943C91.0139 138.909 90.8269 138.863 90.6432 138.806C90.4624 138.754 90.2815 138.685 90.1006 138.616L89.9714 138.564L89.713 138.659V138.711C89.6722 138.788 89.6232 138.86 89.5666 138.926C89.3445 139.182 89.0398 139.353 88.7053 139.408C88.543 139.438 88.3766 139.438 88.2144 139.408C88.065 139.394 87.9236 139.334 87.8095 139.236C87.4328 138.696 87.2617 138.039 87.3272 137.384V137.221H87.1808L82.7365 136.523H82.6762H82.6331C81.0031 137.539 79.4461 138.667 77.9735 139.899C77.4653 140.33 77.1122 140.683 76.8193 140.924C76.6566 141.018 76.5037 141.128 76.3628 141.252Z" fill="#EB996E"/>
<path d="M135.741 111.148L80.5742 111.596C78.7827 111.596 77.0774 112.458 76.8103 114.18L70.7812 154.394H42.3583C41.9197 154.394 41.4991 154.569 41.1889 154.879C40.8788 155.189 40.7046 155.609 40.7046 156.048C40.7046 156.487 40.8788 156.907 41.1889 157.217C41.4991 157.528 41.9197 157.702 42.3583 157.702H133.105L139.306 115.265C139.378 114.755 139.339 114.234 139.192 113.74C139.046 113.245 138.796 112.787 138.458 112.398C138.12 112.008 137.703 111.694 137.234 111.479C136.766 111.264 136.256 111.151 135.741 111.148Z" fill="#00A1F1"/>
<path d="M135.741 111.148C136.03 111.128 136.321 111.155 136.602 111.225C137.451 111.426 138.2 111.924 138.713 112.629C139.088 113.133 139.323 113.727 139.393 114.352C139.413 115.115 139.346 115.878 139.195 116.626L138.394 122.224C137.179 130.648 135.431 142.801 133.278 157.736V157.882H133.106L45.0547 157.934H42.6689C42.2361 157.978 41.7997 157.897 41.4114 157.701C41.0114 157.485 40.7048 157.129 40.5501 156.702C40.396 156.28 40.3981 155.817 40.5561 155.397C40.7142 154.976 41.0176 154.627 41.4114 154.411C41.7938 154.216 42.2245 154.135 42.6517 154.178H70.7387L70.5234 154.359L76.5525 114.472C76.6081 113.667 76.9721 112.914 77.5688 112.371C78.172 111.87 78.9028 111.548 79.679 111.441C80.4176 111.372 81.1596 111.347 81.9012 111.363H84.0716L92.3746 111.311L107.137 111.217L128.153 111.113H133.777H135.224H135.715C135.715 111.113 135.552 111.113 135.224 111.113H133.777L128.153 111.199L107.137 111.432L92.3746 111.578L84.0716 111.656H81.9098C81.1854 111.642 80.4609 111.668 79.7393 111.733C79.0274 111.831 78.3582 112.13 77.81 112.595C77.2875 113.087 76.9784 113.764 76.9487 114.481C75.1486 126.539 73.1504 139.967 70.9971 154.368V154.557H42.6689C42.3177 154.513 41.9614 154.573 41.6439 154.73C41.3517 154.896 41.1264 155.159 41.007 155.473C40.8875 155.788 40.8813 156.134 40.9894 156.452C41.1101 156.772 41.3385 157.04 41.6353 157.21C41.9567 157.374 42.3191 157.44 42.6775 157.4H45.0461L133.097 157.451L132.925 157.598L138.187 122.095C138.506 120.002 138.781 118.133 139.048 116.505C139.202 115.771 139.277 115.024 139.272 114.274C139.216 113.654 138.996 113.06 138.635 112.552C138.141 111.858 137.418 111.361 136.594 111.148C136.31 111.125 136.025 111.125 135.741 111.148Z" fill="#263238"/>
<path d="M102.366 133.941C102.366 134.623 102.568 135.289 102.946 135.855C103.325 136.422 103.863 136.864 104.493 137.124C105.122 137.385 105.815 137.453 106.483 137.32C107.151 137.187 107.765 136.859 108.247 136.377C108.729 135.896 109.057 135.282 109.19 134.613C109.323 133.945 109.255 133.252 108.994 132.623C108.733 131.993 108.292 131.455 107.725 131.077C107.158 130.698 106.492 130.496 105.811 130.496C104.897 130.496 104.021 130.859 103.375 131.505C102.729 132.151 102.366 133.028 102.366 133.941Z" fill="white"/>
<path d="M73.0124 157.38C73.0899 157.38 74.847 147.156 76.9313 134.512C79.0157 121.868 80.6522 111.61 80.5746 111.602C80.4971 111.593 78.74 121.825 76.6557 134.469C74.5713 147.113 72.9349 157.371 73.0124 157.38Z" fill="#263238"/>
</svg>
