<svg width="226" height="282" viewBox="0 0 226 282" fill="none" xmlns="http://www.w3.org/2000/svg">
<path d="M52.8866 144.547L47.8783 142.15C45.0905 142.422 42.199 142.725 39.7787 144.139C37.3584 145.553 35.5292 148.397 36.2082 151.113C36.7833 153.381 38.956 155.266 38.6045 157.583C38.309 159.683 36.1443 160.89 34.2592 161.856C32.3741 162.823 30.2653 164.252 30.3052 166.385C30.3455 166.997 30.5356 167.589 30.8587 168.11C31.1819 168.631 31.6282 169.065 32.1584 169.373C33.2288 169.979 34.4348 170.306 35.665 170.323C41.6159 170.643 47.375 166.992 50.4184 161.872C53.4617 156.752 54.0448 150.394 52.8866 144.547Z" fill="#7CBB00"/>
<g opacity="0.7">
<path d="M52.8866 144.545L47.8783 142.148C45.0905 142.42 42.199 142.724 39.7787 144.137C37.3584 145.551 35.5292 148.395 36.2082 151.111C36.7833 153.379 38.956 155.264 38.6045 157.581C38.309 159.681 36.1443 160.888 34.2592 161.854C32.3741 162.821 30.2653 164.25 30.3052 166.383C30.3455 166.995 30.5356 167.587 30.8587 168.108C31.1819 168.629 31.6282 169.063 32.1584 169.371C33.2288 169.977 34.4348 170.304 35.665 170.321C41.6159 170.641 47.375 166.99 50.4184 161.87C53.4617 156.75 54.0448 150.392 52.8866 144.545Z" fill="white"/>
</g>
<path d="M39.2598 140.466L56.034 152.671C56.034 152.671 60.4832 147.08 58.9016 140.538L50.4346 134.579C50.4346 134.579 45.2985 133.78 39.2598 140.466Z" fill="#263238"/>
<path d="M46.249 132.637L60.8905 142.861L115.007 69.9409C115.007 69.9409 118.706 63.0555 113.186 54.261C113.186 54.261 102.003 53.2466 95.8369 60.6033C89.6703 67.96 46.249 132.637 46.249 132.637Z" fill="#E0E0E0"/>
<path d="M46.2568 132.638C46.2568 132.638 46.3367 132.487 46.5364 132.183L47.4071 130.849L50.7939 125.745L63.4225 106.95C68.7902 99.002 75.2124 89.5126 82.4732 78.9927C86.1156 73.7288 89.9337 68.1933 94.0794 62.546L95.6769 60.4532C97.47 58.3984 99.726 56.7994 102.259 55.7884C103.971 55.1058 105.756 54.6208 107.579 54.3426C109.427 54.0496 111.302 53.9559 113.17 54.063H113.266L113.322 54.1509C115.022 56.7935 116.058 59.808 116.341 62.9374C116.549 65.3772 116.139 67.83 115.151 70.0704L60.9543 142.927L60.8904 143.014L60.8025 142.95L50.051 135.322L47.2313 133.317L46.5204 132.806L46.2968 132.638L46.5524 132.806L47.2952 133.309L50.1549 135.274L60.9942 142.775H60.8424L114.879 69.7988C115.83 67.6296 116.222 65.2571 116.022 62.8974C115.737 59.8425 114.724 56.9005 113.066 54.3186L113.226 54.4145C109.572 54.2029 105.915 54.7833 102.506 56.1159C100.852 56.7709 99.3125 57.6849 97.9454 58.8237C97.2733 59.3867 96.6457 60.001 96.0683 60.6609C95.5331 61.3558 94.99 62.0427 94.4708 62.7297C90.3331 68.3211 86.4831 73.9125 82.8566 79.1445C75.5718 89.6643 69.1257 99.1138 63.726 107.102L50.9936 125.825L47.5429 130.881L46.5763 132.183L46.2568 132.638Z" fill="#263238"/>
<path d="M46.9685 131.576L38.3018 131.719L46.2735 121.375L54.0855 121.008L46.9685 131.576Z" fill="#455A64"/>
<path d="M113.154 54.2604L112.923 54.3403C112.686 54.3965 112.458 54.4823 112.244 54.5959C111.397 55.01 110.595 55.5077 109.847 56.0816C107.09 58.194 104.477 60.489 102.027 62.951V62.8472C101.979 63.0089 101.912 63.1644 101.828 63.3105L101.604 63.7099L101.141 64.5086L100.142 66.1062L97.9775 69.501C96.4439 71.8414 94.7824 74.3575 93.073 77.0174C89.5744 82.3213 85.6764 88.2002 81.5308 94.3029C77.5369 100.222 73.6549 105.805 70.1562 110.901L60.8186 124.425L54.4923 133.515L52.759 135.975L52.2957 136.614C52.2452 136.687 52.1891 136.757 52.1279 136.822C52.1613 136.738 52.2071 136.66 52.2637 136.59L52.6871 135.927L54.3645 133.427C55.8422 131.238 57.959 128.107 60.5789 124.257C65.8588 116.509 73.1436 105.885 81.1873 94.0712C85.3249 87.9446 89.2389 82.0896 92.7535 76.8097C96.2681 71.5298 99.4952 66.7452 101.971 62.8472L101.923 62.7434C104.402 60.2965 107.05 58.0277 109.847 55.9538C110.592 55.3925 111.396 54.9131 112.244 54.524C112.466 54.4166 112.703 54.3413 112.947 54.3003L113.154 54.2604Z" fill="#263238"/>
<path d="M87.8892 86.3243C87.8892 86.2763 88.049 86.1246 88.3285 86.3243C88.4134 86.3789 88.4806 86.4571 88.5217 86.5494C88.5629 86.6416 88.5762 86.7438 88.5602 86.8435C88.5395 86.9676 88.4792 87.0818 88.3883 87.1688C88.2974 87.2558 88.1807 87.3111 88.0558 87.3264C87.9309 87.3417 87.8043 87.3162 87.6951 87.2536C87.5859 87.191 87.4999 87.0948 87.4499 86.9793C87.4095 86.8893 87.3955 86.7897 87.4097 86.6921C87.4238 86.5945 87.4655 86.5029 87.5298 86.4281C87.7534 86.1885 87.9771 86.2684 87.9611 86.3243C87.9451 86.3802 87.8333 86.4361 87.7774 86.5879C87.7577 86.6219 87.7474 86.6604 87.7474 86.6997C87.7474 86.739 87.7577 86.7775 87.7774 86.8115C87.7988 86.8474 87.8302 86.8762 87.8677 86.8945C87.9052 86.9129 87.9472 86.9199 87.9887 86.9149C88.0301 86.9098 88.0692 86.8928 88.1012 86.8659C88.1331 86.8391 88.1566 86.8035 88.1688 86.7636C88.1798 86.7284 88.1819 86.691 88.1749 86.6547C88.1679 86.6185 88.1521 86.5846 88.1288 86.5559C88.049 86.3882 87.9052 86.3802 87.8892 86.3243Z" fill="#263238"/>
<path d="M80.4607 96.8275C80.4607 96.7875 80.6205 96.6358 80.908 96.8275C80.993 96.8816 81.0598 96.9601 81.0997 97.0527C81.1396 97.1453 81.1507 97.2477 81.1317 97.3467C81.1098 97.4703 81.0486 97.5836 80.9572 97.6697C80.8657 97.7558 80.7489 97.81 80.6242 97.8244C80.4994 97.8387 80.3734 97.8124 80.2648 97.7494C80.1562 97.6863 80.0708 97.5899 80.0214 97.4745C79.9821 97.3838 79.9694 97.2837 79.985 97.1861C80.0006 97.0884 80.0437 96.9973 80.1093 96.9233C80.3249 96.6837 80.5486 96.7715 80.5406 96.8195C80.5326 96.8674 80.4048 96.9313 80.3489 97.0911C80.3314 97.1243 80.3223 97.1613 80.3223 97.1989C80.3223 97.2365 80.3314 97.2735 80.3489 97.3067C80.3727 97.3418 80.405 97.3704 80.4426 97.3899C80.4803 97.4094 80.5222 97.4193 80.5646 97.4185C80.6049 97.4088 80.6421 97.389 80.6728 97.3611C80.7035 97.3332 80.7267 97.298 80.7403 97.2588C80.7513 97.2236 80.7534 97.1862 80.7464 97.1499C80.7395 97.1137 80.7236 97.0797 80.7004 97.0511C80.6205 96.8993 80.4767 96.8834 80.4607 96.8275Z" fill="#263238"/>
<path d="M71.9774 109.258C71.9774 109.218 72.1371 109.067 72.4167 109.258C72.5024 109.312 72.5701 109.39 72.6114 109.483C72.6526 109.575 72.6655 109.678 72.6483 109.778C72.6265 109.901 72.5653 110.015 72.4738 110.101C72.3824 110.187 72.2656 110.241 72.1408 110.255C72.0161 110.27 71.89 110.243 71.7814 110.18C71.6728 110.117 71.5874 110.021 71.538 109.905C71.4995 109.815 71.4866 109.716 71.5007 109.619C71.5147 109.521 71.5553 109.43 71.6179 109.354C71.8416 109.115 72.0652 109.202 72.0493 109.25C72.0333 109.298 71.9215 109.362 71.8655 109.522C71.8458 109.554 71.8354 109.592 71.8354 109.63C71.8354 109.668 71.8458 109.705 71.8655 109.738C71.8889 109.773 71.9209 109.802 71.9587 109.822C71.9965 109.841 72.0387 109.851 72.0812 109.849C72.1215 109.84 72.1588 109.82 72.1895 109.792C72.2202 109.764 72.2434 109.729 72.2569 109.69C72.2737 109.658 72.2825 109.622 72.2825 109.586C72.2825 109.55 72.2737 109.514 72.2569 109.482C72.1371 109.33 71.9933 109.314 71.9774 109.258Z" fill="#263238"/>
<path d="M63.4308 121.982C63.4308 121.982 63.5906 121.791 63.8702 121.982C63.9558 122.036 64.0236 122.114 64.0648 122.207C64.106 122.299 64.1189 122.402 64.1018 122.502C64.0811 122.626 64.0208 122.74 63.9299 122.827C63.839 122.914 63.7223 122.969 63.5974 122.985C63.4725 123 63.3459 122.974 63.2367 122.912C63.1275 122.849 63.0415 122.753 62.9915 122.637C62.9514 122.546 62.9376 122.445 62.9517 122.346C62.9658 122.248 63.0073 122.155 63.0714 122.078C63.295 121.839 63.5187 121.927 63.5027 121.974C63.4867 122.022 63.3749 122.086 63.319 122.246C63.2993 122.279 63.2888 122.316 63.2888 122.354C63.2888 122.392 63.2993 122.429 63.319 122.462C63.3423 122.497 63.3744 122.526 63.4122 122.546C63.45 122.565 63.4921 122.575 63.5347 122.574C63.575 122.564 63.6122 122.544 63.6429 122.516C63.6736 122.488 63.6968 122.453 63.7104 122.414C63.7214 122.379 63.7235 122.341 63.7165 122.305C63.7096 122.269 63.6937 122.235 63.6705 122.206C63.6305 122.054 63.4468 122.038 63.4308 121.982Z" fill="#263238"/>
<path d="M55.5063 133.939C55.5063 133.939 55.6661 133.747 55.9457 133.939C56.0313 133.993 56.0991 134.071 56.1403 134.163C56.1816 134.256 56.1944 134.358 56.1773 134.458C56.153 134.581 56.0918 134.693 56.0018 134.78C55.9119 134.867 55.7976 134.925 55.6741 134.945C55.5479 134.957 55.4211 134.929 55.312 134.865C55.2029 134.8 55.1172 134.702 55.067 134.586C55.0246 134.496 55.0095 134.396 55.0238 134.298C55.038 134.2 55.0808 134.109 55.1469 134.035C55.3706 133.795 55.5942 133.883 55.5782 133.931C55.5623 133.979 55.4504 134.043 55.3945 134.203C55.3748 134.235 55.3643 134.272 55.3643 134.31C55.3643 134.348 55.3748 134.386 55.3945 134.418C55.4178 134.454 55.4499 134.483 55.4877 134.502C55.5255 134.522 55.5677 134.532 55.6102 134.53C55.6505 134.52 55.6877 134.501 55.7184 134.473C55.7491 134.445 55.7723 134.41 55.7859 134.37C55.8027 134.338 55.8115 134.303 55.8115 134.266C55.8115 134.23 55.8027 134.195 55.7859 134.163C55.6421 134.011 55.5223 133.995 55.5063 133.939Z" fill="#263238"/>
<path d="M94.9744 75.9712C94.9744 75.9233 95.1342 75.7715 95.4217 75.9712C95.5059 76.0262 95.5721 76.1048 95.6118 76.1971C95.6516 76.2895 95.6633 76.3915 95.6454 76.4904C95.6244 76.6147 95.5642 76.729 95.4737 76.8166C95.3832 76.9043 95.267 76.9607 95.1421 76.9777C95.017 76.9891 94.8914 76.9615 94.7827 76.8985C94.674 76.8356 94.5875 76.7404 94.5351 76.6262C94.4957 76.5355 94.4831 76.4355 94.4987 76.3378C94.5142 76.2402 94.5573 76.149 94.6229 76.0751C94.8386 75.8354 95.0703 75.9153 95.0543 75.9712C95.0383 76.0272 94.9185 76.0831 94.8626 76.2348C94.8467 76.27 94.8385 76.3081 94.8385 76.3467C94.8385 76.3852 94.8467 76.4234 94.8626 76.4585C94.8868 76.4926 94.9193 76.52 94.957 76.5382C94.9947 76.5564 95.0364 76.5647 95.0782 76.5623C95.118 76.554 95.155 76.5357 95.1857 76.5091C95.2165 76.4826 95.2399 76.4487 95.254 76.4106C95.2674 76.3757 95.2708 76.3377 95.2638 76.301C95.2567 76.2643 95.2395 76.2303 95.214 76.2029C95.1342 76.0351 94.9904 76.0272 94.9744 75.9712Z" fill="#263238"/>
<path d="M102.547 64.7579C102.507 64.7179 102.707 64.5662 102.986 64.7579C103.071 64.8121 103.138 64.8905 103.178 64.9831C103.218 65.0757 103.229 65.1781 103.21 65.2771C103.189 65.4013 103.129 65.5156 103.038 65.6033C102.948 65.6909 102.831 65.7474 102.707 65.7643C102.583 65.7753 102.458 65.7473 102.351 65.6843C102.244 65.6213 102.159 65.5264 102.108 65.4129C102.065 65.3219 102.051 65.2207 102.065 65.1215C102.079 65.0223 102.122 64.9293 102.187 64.8537C102.411 64.6141 102.635 64.702 102.619 64.7499C102.603 64.7978 102.491 64.8617 102.435 65.0215C102.415 65.054 102.405 65.0913 102.405 65.1293C102.405 65.1673 102.415 65.2046 102.435 65.2371C102.457 65.2721 102.488 65.3008 102.524 65.3204C102.561 65.34 102.601 65.3498 102.643 65.349C102.684 65.3404 102.723 65.3212 102.756 65.2932C102.788 65.2652 102.812 65.2294 102.826 65.1892C102.837 65.154 102.84 65.1166 102.833 65.0804C102.826 65.0441 102.81 65.0102 102.786 64.9815C102.699 64.8298 102.563 64.8138 102.547 64.7579Z" fill="#263238"/>
<path d="M32.1747 154.428C31.9067 154.105 31.5767 153.84 31.2043 153.648C30.8319 153.456 30.4247 153.34 30.0068 153.308C29.5889 153.276 29.1688 153.328 28.7715 153.461C28.3741 153.595 28.0076 153.807 27.6936 154.084L27.7974 154.028C27.3243 154.454 26.9966 155.018 26.8604 155.639C26.7243 156.261 26.7866 156.91 27.0386 157.495C27.2128 157.882 27.467 158.229 27.7845 158.511C28.102 158.793 28.4757 159.005 28.881 159.133C29.2862 159.26 29.7139 159.301 30.1359 159.251C30.5578 159.202 30.9646 159.064 31.3293 158.846C31.6941 158.628 32.0086 158.335 32.2523 157.987C32.4959 157.639 32.6632 157.244 32.743 156.826C32.8229 156.409 32.8135 155.98 32.7156 155.566C32.6176 155.153 32.4333 154.765 32.1747 154.428Z" fill="#7CBB00"/>
<g opacity="0.7">
<path d="M32.1747 154.426C31.9067 154.104 31.5767 153.839 31.2043 153.646C30.8319 153.454 30.4247 153.338 30.0068 153.306C29.5889 153.274 29.1688 153.326 28.7715 153.46C28.3741 153.593 28.0076 153.805 27.6936 154.082L27.7974 154.027C27.3243 154.452 26.9966 155.016 26.8604 155.638C26.7243 156.26 26.7866 156.909 27.0386 157.493C27.2128 157.881 27.467 158.227 27.7845 158.509C28.102 158.792 28.4757 159.003 28.881 159.131C29.2862 159.259 29.7139 159.299 30.1359 159.25C30.5578 159.2 30.9646 159.062 31.3293 158.844C31.6941 158.626 32.0086 158.334 32.2523 157.986C32.4959 157.638 32.6632 157.242 32.743 156.825C32.8229 156.407 32.8135 155.978 32.7156 155.564C32.6176 155.151 32.4333 154.763 32.1747 154.426Z" fill="white"/>
</g>
<path d="M113.761 71.5164C113.705 71.5164 112.962 70.6537 111.453 69.4396C109.52 67.8544 107.49 66.3924 105.374 65.0623C103.275 63.7065 101.072 62.5205 98.784 61.5158C98.3447 61.3321 97.9373 61.1883 97.5859 61.0525L96.6513 60.7809C96.3788 60.7555 96.1105 60.6965 95.8525 60.6052C96.1337 60.5701 96.4181 60.5701 96.6992 60.6052L97.6658 60.8128C98.0332 60.9327 98.4645 61.0525 98.9118 61.2202C101.251 62.1584 103.492 63.3221 105.606 64.6949C107.744 66.0279 109.769 67.5347 111.66 69.2C112.224 69.7004 112.757 70.2339 113.258 70.7975C113.463 71.0089 113.633 71.2516 113.761 71.5164Z" fill="#263238"/>
<path d="M91.7074 209.391L66.626 213.097L71.0831 244.321C74.0386 243.714 77.7209 226.708 77.7209 226.708L93.8881 224.991L91.7074 209.391Z" fill="#455A64"/>
<path d="M77.6964 216.853C77.563 216.561 77.3247 216.33 77.0287 216.205C76.7327 216.081 76.4007 216.072 76.0988 216.182C75.807 216.304 75.5736 216.534 75.4472 216.824C75.3208 217.115 75.311 217.442 75.4199 217.739C75.563 218.043 75.8137 218.283 76.1235 218.413C76.4333 218.543 76.7803 218.553 77.0973 218.442C77.3878 218.282 77.6049 218.015 77.7031 217.698C77.8014 217.381 77.7732 217.038 77.6245 216.741" fill="white"/>
<path d="M66.626 213.098L69.1661 212.826L72.489 242.868C72.489 242.868 72.0816 244.346 71.0831 244.322L66.626 213.098Z" fill="white"/>
<path d="M77.9518 227.235C77.8001 227.235 77.6243 226.492 77.0253 225.813C76.4262 225.134 75.7312 224.831 75.7712 224.679C75.8111 224.527 76.7217 224.631 77.4326 225.478C78.1435 226.324 78.0956 227.235 77.9518 227.235Z" fill="#263238"/>
<path d="M77.0652 230.663C76.9215 230.719 76.57 230.096 75.8511 229.665C75.1322 229.233 74.4293 229.194 74.4133 229.034C74.3973 228.874 75.2121 228.666 76.1307 229.21C77.0493 229.753 77.209 230.639 77.0652 230.663Z" fill="#263238"/>
<path d="M73.4075 233.082C73.3596 232.947 74.0865 232.627 75.0051 232.899C75.9236 233.17 76.331 233.833 76.2112 233.921C76.0914 234.009 75.5882 233.625 74.8533 233.41C74.1184 233.194 73.4475 233.226 73.4075 233.082Z" fill="#263238"/>
<path d="M81.5948 226.391C81.443 226.351 81.5549 225.592 81.3711 224.793C81.1874 223.995 80.828 223.308 80.9478 223.196C81.0676 223.084 81.6986 223.667 81.8983 224.674C82.098 225.68 81.7226 226.439 81.5948 226.391Z" fill="#263238"/>
<path d="M85.1973 225.12C84.9792 224.617 84.9046 224.064 84.9817 223.522C85.0048 222.944 85.0959 222.37 85.2533 221.813C85.3469 221.485 85.4643 221.165 85.6047 220.854C85.6741 220.664 85.7739 220.486 85.9003 220.327C85.9952 220.214 86.1246 220.134 86.2688 220.101C86.413 220.068 86.5641 220.083 86.699 220.143C86.8174 220.202 86.9194 220.288 86.9961 220.396C87.0727 220.503 87.1216 220.628 87.1384 220.758C87.1661 220.957 87.1661 221.159 87.1384 221.357C87.1026 221.704 87.0358 222.046 86.9387 222.38C86.777 222.948 86.5263 223.487 86.1958 223.977C85.6287 224.776 85.0935 225.128 85.0616 225.08C85.0296 225.032 85.429 224.592 85.8603 223.778C86.1185 223.304 86.3144 222.8 86.4434 222.276C86.5198 221.967 86.5706 221.651 86.5952 221.333C86.6351 220.99 86.5952 220.71 86.4354 220.647C86.2757 220.583 86.3556 220.647 86.2677 220.702C86.1778 220.822 86.1052 220.954 86.052 221.094C85.9117 221.383 85.7916 221.682 85.6926 221.988C85.5206 222.508 85.4002 223.043 85.3331 223.586C85.3259 224.1 85.2805 224.613 85.1973 225.12Z" fill="#263238"/>
<path d="M84.9414 224.952C85.3461 224.593 85.8561 224.374 86.3952 224.329C86.9712 224.227 87.5605 224.227 88.1365 224.329C88.4806 224.38 88.818 224.468 89.143 224.592C89.3613 224.646 89.5622 224.755 89.726 224.909C89.8897 225.063 90.0108 225.256 90.0775 225.471C90.0945 225.611 90.0711 225.753 90.0103 225.88C89.9495 226.008 89.8537 226.115 89.734 226.19C89.5643 226.299 89.3782 226.38 89.1829 226.43C88.8421 226.537 88.4859 226.589 88.1285 226.581C87.5318 226.582 86.9443 226.433 86.4191 226.15C85.5245 225.655 85.2529 225.04 85.3009 225.024C85.3488 225.008 85.7402 225.447 86.5869 225.823C87.0716 226.027 87.595 226.122 88.1205 226.102C88.427 226.094 88.7308 226.043 89.0231 225.95C89.3506 225.855 89.5983 225.687 89.5503 225.567C89.5024 225.447 89.2388 225.184 88.9592 225.096C88.6673 224.98 88.3651 224.891 88.0566 224.832C87.5311 224.726 86.9926 224.699 86.4591 224.752C85.5245 224.792 84.9813 225.032 84.9414 224.952Z" fill="#263238"/>
<path d="M18.899 241.485L0 258.387L20.9438 281.967C23.0766 279.834 16.7583 263.595 16.7583 263.595L29.291 253.211L18.899 241.485Z" fill="#455A64"/>
<path d="M11.3025 255.448C11.0329 255.282 10.7112 255.222 10.3999 255.279C10.0885 255.337 9.80953 255.508 9.61711 255.759C9.44154 256.023 9.3735 256.343 9.42699 256.655C9.48047 256.967 9.6514 257.247 9.90467 257.437C10.192 257.61 10.5333 257.672 10.8633 257.61C11.1934 257.549 11.4891 257.367 11.6939 257.101C11.8501 256.807 11.8858 256.463 11.7934 256.142C11.701 255.822 11.4878 255.55 11.1987 255.384" fill="white"/>
<path d="M0 258.388L1.96499 256.79L21.2953 280.01C21.2953 280.01 21.7666 281.464 20.9199 281.999L0 258.388Z" fill="white"/>
<path d="M17.2213 263.923C17.1015 264.019 16.5424 263.492 15.6238 263.252C14.7052 263.012 14.0262 263.148 13.9544 262.997C13.8825 262.845 14.7531 262.429 15.7756 262.741C16.798 263.052 17.3491 263.851 17.2213 263.923Z" fill="#263238"/>
<path d="M18.3955 267.302C18.3076 267.43 17.6686 267.103 16.7979 267.151C15.9273 267.199 15.3522 267.534 15.2563 267.414C15.1605 267.294 15.7436 266.615 16.782 266.615C17.8204 266.615 18.4993 267.175 18.3955 267.302Z" fill="#263238"/>
<path d="M16.6866 271.336C16.5668 271.256 16.9982 270.585 17.8928 270.322C18.7874 270.058 19.4903 270.37 19.4903 270.506C19.4903 270.641 18.8114 270.609 18.0765 270.833C17.3416 271.057 16.7985 271.44 16.6866 271.336Z" fill="#263238"/>
<path d="M19.8169 261.249C19.6651 261.297 19.3536 260.626 18.7386 260.011C18.1235 259.396 17.4525 259.076 17.5005 258.925C17.5484 258.773 18.3871 258.925 19.098 259.635C19.8089 260.346 19.9527 261.225 19.8169 261.249Z" fill="#263238"/>
<path d="M22.0936 258.196C22.0457 258.244 21.5664 257.853 21.0472 257.014C20.5655 256.226 20.2401 255.353 20.0887 254.442C20.0411 254.246 20.0276 254.043 20.0488 253.843C20.0631 253.694 20.1266 253.554 20.2294 253.446C20.3321 253.337 20.4681 253.266 20.6159 253.244C20.7474 253.23 20.8801 253.248 21.0036 253.295C21.127 253.342 21.2377 253.418 21.3268 253.515C21.4613 253.662 21.5719 253.829 21.6543 254.01C21.8211 254.315 21.955 254.636 22.0537 254.969C22.2306 255.527 22.3169 256.109 22.3093 256.694C22.3556 257.231 22.2357 257.769 21.9658 258.236C21.8859 258.236 21.9658 257.637 21.9658 256.702C21.9195 256.157 21.8041 255.621 21.6223 255.105C21.5153 254.805 21.3845 254.513 21.2309 254.234C21.0712 253.931 20.8875 253.715 20.7197 253.747C20.552 253.779 20.6319 253.747 20.6079 253.891C20.5816 254.039 20.5816 254.19 20.6079 254.338C20.6533 254.653 20.7173 254.965 20.7996 255.272C20.9467 255.8 21.1419 256.314 21.3827 256.806C21.6478 257.254 21.8852 257.719 22.0936 258.196Z" fill="#263238"/>
<path d="M21.8141 258.195C21.7582 258.195 21.9738 257.572 22.6768 256.869C23.0995 256.466 23.5851 256.134 24.1145 255.887C24.4299 255.74 24.759 255.625 25.097 255.543C25.3103 255.469 25.5388 255.451 25.7611 255.49C25.9833 255.529 26.1919 255.625 26.3671 255.767C26.4603 255.876 26.5197 256.009 26.5382 256.151C26.5566 256.293 26.5333 256.437 26.4709 256.566C26.388 256.747 26.2805 256.917 26.1514 257.069C25.9232 257.345 25.6538 257.585 25.3526 257.78C24.8573 258.116 24.2866 258.324 23.6912 258.387C22.6768 258.475 22.0936 258.115 22.1416 258.067C22.6428 258.078 23.1442 258.059 23.6433 258.011C24.1621 257.92 24.6535 257.712 25.0811 257.404C25.3303 257.226 25.5535 257.014 25.7441 256.773C25.9677 256.51 26.0875 256.238 25.9757 256.166C25.8631 256.101 25.7373 256.061 25.6075 256.05C25.4776 256.039 25.3469 256.057 25.2248 256.102C24.9163 256.165 24.6142 256.256 24.3222 256.374C23.8252 256.572 23.3596 256.841 22.9403 257.173C22.2135 257.74 21.886 258.243 21.8141 258.195Z" fill="#263238"/>
<path d="M100.446 133.891C99.8226 134.139 93.9756 135.193 88.8715 145.609C83.7673 156.025 84.582 162.311 84.582 162.311L59.4047 198.2L8.14746 246.047L24.3785 262.022L77.7685 215.35C77.7685 215.35 105.726 190.213 108.665 186.866C114.392 180.412 133.675 152.718 133.675 152.718L100.446 133.891Z" fill="#263238"/>
<path d="M109.648 174.861L119.944 200.03L82.3457 209.615L84.9417 227.987C84.9417 227.987 143.644 219.999 146.847 217.1C150.05 214.2 152.143 211.58 152.222 208.617C152.302 205.653 133.595 146.656 133.595 146.656L112.42 163.127L109.648 174.861Z" fill="#263238"/>
<path d="M130.942 154.157C130.918 154.292 130.872 154.421 130.807 154.541C130.679 154.836 130.519 155.188 130.335 155.619C129.936 156.57 129.241 157.872 128.37 159.477C126.006 163.608 123.419 167.608 120.622 171.459C117.387 175.996 114.296 179.982 112.003 182.817C110.861 184.239 109.911 185.381 109.248 186.156L108.449 187.043C108.36 187.148 108.261 187.244 108.153 187.33C108.218 187.208 108.296 187.093 108.385 186.987L109.096 186.052L111.74 182.642C113.968 179.758 117.028 175.748 120.255 171.219C123.482 166.69 126.254 162.489 128.083 159.341C128.977 157.744 129.68 156.482 130.16 155.555L130.727 154.549C130.854 154.269 130.926 154.149 130.942 154.157Z" fill="#455A64"/>
<path d="M131.854 204.96C131.79 205 131.383 204.297 130.504 203.362C129.985 202.824 129.415 202.338 128.803 201.909C128.051 201.395 127.248 200.961 126.406 200.615C125.552 200.289 124.666 200.056 123.762 199.92C123.022 199.814 122.273 199.779 121.526 199.816C120.248 199.896 119.473 200.127 119.457 200.055C119.441 199.983 119.633 199.952 119.984 199.84C120.476 199.678 120.986 199.573 121.502 199.528C122.269 199.436 123.044 199.436 123.81 199.528C124.751 199.648 125.674 199.882 126.558 200.223C127.434 200.58 128.265 201.039 129.034 201.589C129.657 202.056 130.226 202.592 130.728 203.187C131.071 203.573 131.371 203.996 131.622 204.449C131.79 204.76 131.878 204.944 131.854 204.96Z" fill="#455A64"/>
<path d="M131.422 197.84C129.628 198.333 127.799 198.688 125.951 198.902C124.124 199.255 122.274 199.474 120.415 199.557C122.209 199.064 124.038 198.709 125.887 198.495C127.713 198.142 129.564 197.924 131.422 197.84Z" fill="#455A64"/>
<path d="M108.186 187.297C108.127 187.373 108.063 187.445 107.994 187.512L107.395 188.111L105.054 190.404C103.026 192.393 100.054 195.236 96.3558 198.711C88.9512 205.676 78.5592 215.11 66.8971 225.326C55.235 235.543 44.5793 244.672 36.8792 251.294L27.7572 259.186L25.289 261.279C25.0094 261.503 24.7937 261.686 24.634 261.822L24.4023 261.998C24.4023 261.998 24.4662 261.918 24.602 261.79L25.2331 261.215L27.6294 259.034C29.7861 257.141 32.8693 254.441 36.6715 251.095L66.6095 225.031C78.2636 214.822 88.6876 205.429 96.1641 198.519C99.8864 195.069 102.89 192.265 104.951 190.316L107.347 188.079L107.978 187.504C108.106 187.377 108.178 187.297 108.186 187.297Z" fill="#455A64"/>
<path d="M205.916 15.5613L210.118 8.3723C210.118 8.3723 212.25 1.18334 212.841 0.61621C213.432 0.0490816 214.095 -0.182562 214.535 0.16091C214.974 0.504382 221.388 2.28565 221.836 2.55723C222.283 2.82881 221.836 6.82267 221.836 6.82267L221.788 7.78121C221.788 7.78121 224.272 6.98243 225.246 7.78121C225.718 8.17261 224.951 9.98582 223.409 10.6728C221.248 11.686 219.284 13.0763 217.61 14.7785C217.075 15.2945 216.371 15.5983 215.629 15.6331C215.214 15.6331 214.878 15.6331 215.006 15.5373C215.485 15.1539 211.012 21.1287 211.012 21.1287L205.916 15.5613Z" fill="#B78876"/>
<path d="M225.222 7.7803C224.851 7.61229 224.447 7.53037 224.04 7.54067C223.044 7.62407 222.066 7.84726 221.132 8.20365C220.164 8.5852 219.137 8.79861 218.097 8.83468C217.655 8.8721 217.212 8.76563 216.835 8.53115C216.835 8.46725 217.322 8.60304 218.089 8.53115C219.082 8.41543 220.056 8.17386 220.989 7.81226C221.962 7.43629 222.996 7.244 224.04 7.24512C224.37 7.25229 224.692 7.34594 224.974 7.51671C225.182 7.64451 225.238 7.77232 225.222 7.7803Z" fill="#AA6550"/>
<path d="M216.668 3.93774C216.715 3.93774 216.843 4.21732 217.291 4.425C217.606 4.53593 217.941 4.57696 218.273 4.54523C218.606 4.51351 218.927 4.40979 219.216 4.24128L219.567 4.06555L219.471 4.45695C219.311 5.12631 219.274 5.81901 219.359 6.50181V6.64558V6.86925H219.144C218.778 6.86122 218.418 6.77402 218.089 6.61364C217.976 6.5539 217.852 6.51747 217.724 6.5065C217.597 6.49552 217.468 6.51022 217.347 6.54974C217.25 6.60229 217.168 6.67797 217.108 6.76998C217.048 6.862 217.012 6.96747 217.003 7.07692C216.996 7.28691 217.049 7.49453 217.155 7.676C217.341 7.95693 217.583 8.19628 217.866 8.37893C218.065 8.52271 218.177 8.61057 218.161 8.63453C218.145 8.6585 218.009 8.63453 217.778 8.51472C217.437 8.36536 217.14 8.13169 216.915 7.83576C216.741 7.60691 216.654 7.32408 216.668 7.03699C216.673 6.86473 216.721 6.6966 216.81 6.54846C216.898 6.40032 217.022 6.27705 217.171 6.19028C217.337 6.11676 217.516 6.07878 217.698 6.07878C217.88 6.07878 218.059 6.11676 218.225 6.19028C218.501 6.32023 218.799 6.39358 219.104 6.40596L218.92 6.64558V6.49382C218.822 5.75792 218.879 5.00972 219.088 4.2972L219.343 4.52085C218.956 4.68814 218.542 4.78549 218.121 4.80841C217.782 4.81745 217.448 4.73169 217.155 4.56079C216.692 4.31317 216.636 3.93774 216.668 3.93774Z" fill="#AA6550"/>
<path d="M215.868 8.10028C215.764 8.02839 216.323 7.1737 216.667 5.9995C216.846 5.52842 216.893 5.01753 216.803 4.52177C216.715 4.16232 216.523 3.98659 216.555 3.93866C216.587 3.89074 216.883 4.00257 217.082 4.42592C217.283 4.96983 217.283 5.56742 217.082 6.11133C216.927 6.89756 216.496 7.60271 215.868 8.10028Z" fill="#AA6550"/>
<path d="M147.27 19.7707C149.432 18.4556 151.878 17.6751 154.403 17.4942C155.664 17.4169 156.925 17.6427 158.082 18.1527C159.238 18.6627 160.255 19.4421 161.048 20.4257C162.199 22.0232 162.646 24.132 164.132 25.3701C166.208 27.0795 169.284 26.3286 171.928 26.8079C172.471 26.9117 173.086 27.1354 173.238 27.6626C173.267 27.8992 173.245 28.1394 173.173 28.3668C173.102 28.5942 172.982 28.8035 172.822 28.9806L170.154 32.9744C170.679 33.3107 171.272 33.5235 171.891 33.5968C172.509 33.6702 173.137 33.6021 173.725 33.3978C173.196 36.2224 171.685 38.769 169.459 40.5867C169.597 40.5407 169.742 40.5239 169.886 40.5374C170.031 40.5508 170.17 40.5943 170.297 40.6651C170.423 40.7358 170.533 40.8321 170.62 40.9479C170.707 41.0638 170.769 41.1965 170.801 41.3376C170.906 41.9165 170.81 42.5138 170.53 43.031C169.817 44.6823 168.757 46.1614 167.423 47.3683C166.09 48.5752 164.512 49.4819 162.798 50.027C161.084 50.5722 159.273 50.7432 157.487 50.5284C155.701 50.3136 153.982 49.7181 152.446 48.7821" fill="#263238"/>
<path d="M148.795 19.4189C147.476 18.3311 145.835 17.7074 144.126 17.6439C142.417 17.5804 140.735 18.0806 139.338 19.0675C137.445 20.4653 136.326 22.654 135.04 24.6589C133.754 26.6638 132.045 28.5888 129.729 29.0282C127.852 29.3876 125.839 28.6927 124.033 29.3077C122.076 29.9707 120.886 32.0635 120.671 34.1004C120.578 36.1729 120.882 38.2441 121.565 40.203C121.003 40.6354 120.36 40.9513 119.674 41.1323C118.989 41.3134 118.274 41.3559 117.571 41.2574C118.061 42.7366 119.024 44.0137 120.311 44.8918C121.182 45.3393 121.975 45.9246 122.659 46.6251C123.192 47.4419 123.47 48.3982 123.458 49.3729C123.495 49.9327 123.657 50.4771 123.933 50.9656C124.209 51.4541 124.591 51.8743 125.052 52.195C125.512 52.5157 126.038 52.7286 126.592 52.8181C127.146 52.9076 127.713 52.8712 128.251 52.7118C129.404 52.3687 130.52 51.9111 131.582 51.3459C131.582 51.3459 130.448 52.8795 132.205 54.541C132.913 54.4617 133.591 54.2135 134.184 53.8174C134.776 53.4212 135.264 52.8886 135.608 52.2645" fill="#263238"/>
<path d="M162.886 35.842C163.256 32.283 162.275 28.7148 160.137 25.8456C157.999 22.9765 154.86 21.0162 151.344 20.3538L150.617 20.21C142.709 19.1956 137.429 25.3462 136.63 33.286L131.318 69.6461L149.259 72.977L151.288 61.2031C151.288 61.2031 159.028 61.4507 160.537 53.9422C161.264 50.2998 162.159 42.7195 162.886 35.842Z" fill="#B78876"/>
<path d="M158.908 40.7873C158.859 41.0679 158.701 41.3181 158.47 41.4839C158.238 41.6497 157.951 41.718 157.669 41.674C157.532 41.6582 157.398 41.6151 157.277 41.5473C157.156 41.4796 157.05 41.3884 156.964 41.2791C156.879 41.1699 156.816 41.0447 156.779 40.9109C156.743 40.7771 156.733 40.6373 156.751 40.4998C156.798 40.2177 156.954 39.9656 157.186 39.7981C157.418 39.6306 157.706 39.5613 157.989 39.6051C158.128 39.6209 158.262 39.6642 158.383 39.7325C158.505 39.8008 158.612 39.8927 158.697 40.0028C158.783 40.1129 158.845 40.2391 158.882 40.3738C158.918 40.5085 158.927 40.6491 158.908 40.7873Z" fill="#263238"/>
<path d="M160.577 39.2145C160.417 39.3343 159.714 38.5755 158.564 38.3598C157.414 38.1442 156.447 38.5675 156.352 38.3998C156.256 38.232 156.487 38.1042 156.903 37.9045C157.469 37.6521 158.099 37.5796 158.708 37.6969C159.318 37.8033 159.878 38.1029 160.306 38.5515C160.585 38.895 160.657 39.1666 160.577 39.2145Z" fill="#263238"/>
<path d="M148.507 40.0743C148.348 40.1862 147.653 39.4353 146.495 39.2196C145.336 39.004 144.386 39.4193 144.282 39.2196C144.178 39.0199 144.418 38.9161 144.841 38.7164C145.404 38.4631 146.032 38.3905 146.638 38.5087C147.248 38.6167 147.808 38.9161 148.236 39.3634C148.515 39.7468 148.587 40.0184 148.507 40.0743Z" fill="#263238"/>
<path d="M151.759 46.6582C152.403 46.5756 153.055 46.5756 153.7 46.6582C154.003 46.6582 154.291 46.6582 154.379 46.4905C154.474 46.1944 154.474 45.876 154.379 45.5799C154.235 44.7811 154.083 43.9824 153.931 43.1836C153.316 39.7568 152.933 36.9611 153.077 36.9372C153.221 36.9132 153.82 39.669 154.427 43.0957C154.57 43.9424 154.706 44.7492 154.842 45.492C154.961 45.8846 154.936 46.3068 154.77 46.6822C154.706 46.7743 154.623 46.8518 154.526 46.9096C154.43 46.9674 154.323 47.0042 154.211 47.0177C154.039 47.0388 153.864 47.0388 153.692 47.0177C153.035 46.9771 152.386 46.8563 151.759 46.6582Z" fill="#263238"/>
<path d="M148.205 46.817C148.396 46.817 148.165 48.095 149.067 49.2133C149.97 50.3316 151.336 50.4194 151.312 50.6031C151.288 50.7869 150.968 50.7869 150.401 50.699C149.665 50.5686 148.998 50.1842 148.516 49.6127C148.055 49.0629 147.826 48.3554 147.877 47.6397C147.925 47.0726 148.125 46.793 148.205 46.817Z" fill="#263238"/>
<path d="M149.85 34.3653C149.714 34.6768 148.548 34.4372 147.166 34.5011C145.784 34.565 144.634 34.8525 144.474 34.557C144.403 34.4132 144.618 34.1257 145.09 33.8541C145.712 33.5095 146.408 33.3204 147.118 33.3029C147.83 33.2728 148.538 33.4095 149.187 33.7023C149.674 33.934 149.898 34.2135 149.85 34.3653Z" fill="#263238"/>
<path d="M161.32 34.7321C161.017 34.9478 160.09 34.5004 158.924 34.2768C157.758 34.0531 156.72 34.0691 156.528 33.7576C156.448 33.6058 156.648 33.3662 157.127 33.1985C157.784 32.9927 158.483 32.9624 159.156 33.1106C159.829 33.2348 160.458 33.5352 160.977 33.9812C161.36 34.3567 161.448 34.6522 161.32 34.7321Z" fill="#263238"/>
<path d="M136.718 39.0449C136.598 38.965 131.837 36.5448 131.038 41.7128C130.24 46.8809 135.591 46.6253 135.623 46.5055C135.655 46.3857 136.718 39.0449 136.718 39.0449Z" fill="#B78876"/>
<path d="M134.801 44.3567C134.801 44.3567 134.697 44.4046 134.538 44.4525C134.309 44.5144 134.064 44.4828 133.859 44.3646C133.559 44.0989 133.335 43.7589 133.209 43.3788C133.082 42.9988 133.059 42.5921 133.14 42.2C133.199 41.7563 133.354 41.3309 133.595 40.9539C133.669 40.7973 133.781 40.6614 133.92 40.5583C134.06 40.4552 134.222 40.3881 134.394 40.3628C134.501 40.3538 134.608 40.3812 134.698 40.4406C134.788 40.5 134.855 40.588 134.889 40.6903C134.937 40.85 134.889 40.9459 134.889 40.9619C134.889 40.9778 135.009 40.89 135.001 40.6743C134.995 40.5402 134.941 40.4126 134.849 40.3149C134.787 40.25 134.713 40.1981 134.631 40.1625C134.548 40.1268 134.46 40.108 134.37 40.1072C134.152 40.1179 133.94 40.1836 133.754 40.2981C133.569 40.4126 133.415 40.5723 133.307 40.7622C133.016 41.1735 132.832 41.6513 132.772 42.152C132.678 42.6093 132.719 43.0843 132.891 43.5185C133.062 43.9527 133.357 44.3274 133.739 44.5963C133.871 44.6594 134.016 44.6922 134.162 44.6922C134.309 44.6922 134.453 44.6594 134.586 44.5963C134.769 44.4845 134.817 44.3726 134.801 44.3567Z" fill="#AA6550"/>
<path d="M144.346 24.3489C145.919 24.2863 147.463 24.7877 148.699 25.7627L149.498 26.3937L162.662 30.3876C166.089 29.3093 164.507 26.0662 161.823 24.6284C158.684 22.943 155.329 19.9157 151.839 19.2048C148.348 18.4939 141.95 19.5562 138.803 23.0229C137.718 24.1797 136.869 25.5361 136.303 27.0168C135.29 30.661 134.74 34.4181 134.665 38.1996C134.833 39.3907 135.223 40.5396 135.815 41.5864C136.997 41.8021 137.613 40.9394 137.644 39.7412L138.283 35.1163C139.641 34.4021 140.729 33.2647 141.382 31.8766C142.035 30.4885 142.217 28.9254 141.902 27.4242C141.902 27.4242 141.902 27.4721 141.902 27.4242C141.792 27.0546 141.773 26.6639 141.846 26.2854C141.919 25.9068 142.083 25.5515 142.323 25.2496C142.563 24.9478 142.872 24.7083 143.224 24.5515C143.576 24.3946 143.961 24.3251 144.346 24.3489Z" fill="#263238"/>
<path d="M142.021 25.7214C142.597 24.1239 145.456 23.5328 146.974 24.3076C148.492 25.0824 149.466 26.5921 150.496 27.942C151.527 29.2919 152.853 30.6418 154.546 30.8256C156.24 31.0093 158.213 29.915 159.778 30.7377C160.41 31.1958 161.018 31.6863 161.599 32.2074C162.123 32.511 162.708 32.6918 163.311 32.736C163.915 32.7803 164.52 32.687 165.082 32.463C166.199 32.0121 167.241 31.3955 168.173 30.6339C164.834 30.1147 161.991 28.0219 159.323 25.9451C156.655 23.8682 153.907 21.6956 150.608 20.9687C147.309 20.2418 143.308 21.4639 142.021 24.5792" fill="#263238"/>
<path d="M123.914 46.6337C123.914 46.6337 124.074 46.7215 124.385 46.7934C124.849 46.8806 125.328 46.7893 125.727 46.5378C126.036 46.3393 126.292 46.0679 126.471 45.7476C126.651 45.4273 126.749 45.0678 126.758 44.7006C126.781 43.708 126.526 42.7287 126.023 41.873C125.4 40.8031 124.911 39.6601 124.569 38.4702C124.371 37.7665 124.324 37.0285 124.433 36.3055C124.542 35.5825 124.803 34.8908 125.2 34.2767C125.676 33.6274 126.344 33.144 127.109 32.8948C127.884 32.6538 128.694 32.5457 129.505 32.5753C131.103 32.5753 132.82 32.8708 134.41 32.4075C135.184 32.1792 135.859 31.6983 136.327 31.0416C136.764 30.3753 137.056 29.624 137.182 28.837C137.485 27.2874 137.357 25.7058 137.621 24.2121C137.731 23.4755 137.958 22.7611 138.292 22.0954C138.62 21.4565 139.117 20.9203 139.73 20.5457C140.285 20.238 140.895 20.0435 141.526 19.9735C142.157 19.9036 142.795 19.9596 143.404 20.1384C144.401 20.4181 145.322 20.9207 146.096 21.6081C146.674 22.1131 147.209 22.6663 147.694 23.2616C148.093 23.7488 148.38 24.1482 148.572 24.4118C148.677 24.545 148.77 24.6866 148.852 24.8352C148.724 24.7258 148.609 24.6026 148.508 24.4677C148.269 24.1802 147.957 23.8207 147.566 23.3734C147.079 22.7969 146.545 22.2625 145.968 21.7759C145.208 21.1365 144.316 20.6729 143.356 20.4179C142.786 20.2573 142.19 20.2106 141.602 20.2805C141.014 20.3504 140.446 20.5355 139.929 20.8253C139.382 21.2256 138.927 21.74 138.598 22.333C138.268 22.926 138.071 23.5835 138.02 24.26C137.781 25.6978 137.917 27.2794 137.605 28.9089C137.478 29.7641 137.168 30.5816 136.694 31.3052C136.175 32.0393 135.424 32.5769 134.562 32.8309C132.82 33.3341 131.111 33.0146 129.521 33.0146C128.752 32.9824 127.982 33.0796 127.245 33.3022C126.556 33.523 125.953 33.953 125.52 34.5323C125.152 35.102 124.907 35.7426 124.803 36.4128C124.698 37.0829 124.736 37.7675 124.913 38.4223C125.234 39.5929 125.698 40.7197 126.294 41.7771C126.801 42.6856 127.045 43.7174 126.997 44.7566C126.975 45.1546 126.856 45.5411 126.65 45.8823C126.444 46.2235 126.157 46.509 125.815 46.7136C125.599 46.8391 125.359 46.9207 125.111 46.9536C124.863 46.9865 124.611 46.97 124.369 46.9053C124.198 46.8525 124.042 46.7594 123.914 46.6337Z" fill="#455A64"/>
<path d="M168.629 27.6453C168.629 27.6453 168.573 27.7172 168.43 27.813C168.221 27.9574 167.999 28.0805 167.767 28.1805C166.901 28.5507 165.956 28.6963 165.019 28.6038C163.612 28.4957 162.287 27.8996 161.273 26.9184C160.689 26.3262 160.234 25.6189 159.939 24.8416C159.653 24.037 159.314 23.2524 158.924 22.4932C158.505 21.805 157.92 21.2334 157.222 20.8313C156.524 20.4293 155.736 20.2096 154.93 20.1927C154.273 20.1762 153.621 20.3042 153.019 20.5679C152.417 20.8315 151.881 21.2243 151.448 21.7184C150.843 22.3981 150.427 23.2243 150.242 24.1147C150.122 24.7457 150.146 25.1052 150.106 25.1052C150.066 25.1052 150.106 25.0173 150.058 24.8496C150.029 24.5841 150.029 24.3163 150.058 24.0508C150.192 23.1158 150.588 22.2379 151.2 21.5187C151.651 20.9721 152.219 20.5339 152.861 20.2366C153.504 19.9393 154.206 19.7906 154.914 19.8013C155.786 19.8114 156.641 20.0442 157.397 20.4776C158.153 20.911 158.786 21.5306 159.236 22.2775C159.637 23.0502 159.981 23.8511 160.266 24.6738C160.538 25.406 160.956 26.0748 161.496 26.6388C162.459 27.5992 163.722 28.1998 165.075 28.3402C165.969 28.452 166.877 28.3536 167.727 28.0527C168.31 27.821 168.605 27.6053 168.629 27.6453Z" fill="#455A64"/>
<path d="M130.407 26.7444C130.407 26.7444 130.471 26.6565 130.543 26.4728C130.646 26.2165 130.646 25.9303 130.543 25.674C130.47 25.4729 130.336 25.2994 130.16 25.1777C129.984 25.056 129.775 24.9922 129.561 24.9951C129.279 25.0175 129.01 25.1249 128.79 25.3032C128.571 25.4815 128.41 25.7222 128.33 25.9935C128.259 26.3314 128.288 26.6826 128.413 27.0045C128.537 27.3265 128.753 27.6052 129.033 27.8068C129.37 28.0356 129.75 28.1915 130.151 28.2645C130.551 28.3374 130.962 28.3257 131.358 28.2301C132.258 28.0543 133.078 27.5953 133.698 26.9201C134.329 26.1493 134.777 25.2453 135.008 24.2762C135.265 23.2667 135.674 22.3023 136.222 21.4166C136.758 20.599 137.434 19.8824 138.219 19.2998C139.331 18.4772 140.637 17.959 142.01 17.7965C143.383 17.634 144.775 17.8328 146.047 18.3733C146.323 18.4923 146.59 18.6312 146.846 18.7886C147.014 18.8925 147.102 18.9564 147.094 18.9723C147.086 18.9883 146.702 18.7886 145.991 18.525C144.981 18.1607 143.91 17.9953 142.836 18.0378C141.244 18.1022 139.711 18.6606 138.451 19.6353C137.708 20.1957 137.07 20.8825 136.566 21.6642C136.044 22.5233 135.651 23.4545 135.4 24.428C135.152 25.454 134.674 26.4102 134.002 27.2237C133.317 27.9551 132.415 28.4478 131.43 28.6295C130.983 28.7305 130.52 28.7357 130.071 28.6448C129.622 28.5539 129.198 28.3691 128.826 28.1023C128.496 27.8588 128.244 27.5241 128.103 27.1395C127.961 26.7548 127.934 26.337 128.027 25.9376C128.13 25.6141 128.33 25.3301 128.6 25.1243C128.87 24.9185 129.197 24.8009 129.537 24.7874C129.83 24.7787 130.115 24.8815 130.335 25.075C130.504 25.23 130.63 25.4251 130.703 25.6421C130.759 25.7888 130.783 25.9456 130.775 26.1025C130.767 26.2593 130.726 26.4126 130.655 26.5527C130.511 26.7444 130.415 26.7843 130.407 26.7444Z" fill="#263238"/>
<path d="M147.27 19.7707C149.432 18.4556 151.878 17.6751 154.403 17.4942C155.664 17.4169 156.925 17.6427 158.082 18.1527C159.238 18.6627 160.255 19.4421 161.048 20.4257C162.199 22.0232 162.646 24.132 164.132 25.3701C166.208 27.0795 169.284 26.3286 171.928 26.8079C172.471 26.9117 173.086 27.1354 173.238 27.6626C173.267 27.8992 173.245 28.1394 173.173 28.3668C173.102 28.5942 172.982 28.8035 172.822 28.9806L170.154 32.9744C170.679 33.3107 171.272 33.5235 171.891 33.5968C172.509 33.6702 173.137 33.6021 173.725 33.3978C173.196 36.2224 171.685 38.769 169.459 40.5867C169.597 40.5407 169.742 40.5239 169.886 40.5374C170.031 40.5508 170.17 40.5943 170.297 40.6651C170.423 40.7358 170.533 40.8321 170.62 40.9479C170.707 41.0638 170.769 41.1965 170.801 41.3376C170.906 41.9165 170.81 42.5138 170.53 43.031C169.817 44.6823 168.757 46.1614 167.423 47.3683C166.09 48.5752 164.512 49.4819 162.798 50.027C161.084 50.5722 159.273 50.7432 157.487 50.5284C155.701 50.3136 153.982 49.7181 152.446 48.7821" fill="#263238"/>
<path d="M148.795 19.4189C147.476 18.3311 145.835 17.7074 144.126 17.6439C142.417 17.5804 140.735 18.0806 139.338 19.0675C137.445 20.4653 136.326 22.654 135.04 24.6589C133.754 26.6638 132.045 28.5888 129.729 29.0282C127.852 29.3876 125.839 28.6927 124.033 29.3077C122.076 29.9707 120.886 32.0635 120.671 34.1004C120.578 36.1729 120.882 38.2441 121.565 40.203C121.003 40.6354 120.36 40.9513 119.674 41.1323C118.989 41.3134 118.274 41.3559 117.571 41.2574C118.061 42.7366 119.024 44.0137 120.311 44.8918C121.182 45.3393 121.975 45.9246 122.659 46.6251C123.192 47.4419 123.47 48.3982 123.458 49.3729C123.495 49.9327 123.657 50.4771 123.933 50.9656C124.209 51.4541 124.591 51.8743 125.052 52.195C125.512 52.5157 126.038 52.7286 126.592 52.8181C127.146 52.9076 127.713 52.8712 128.251 52.7118C129.404 52.3687 130.52 51.9111 131.582 51.3459C131.582 51.3459 130.448 52.8795 132.205 54.541C132.913 54.4617 133.591 54.2135 134.184 53.8174C134.776 53.4212 135.264 52.8886 135.608 52.2645" fill="#263238"/>
<path d="M162.886 35.842C163.256 32.283 162.275 28.7148 160.137 25.8456C157.999 22.9765 154.86 21.0162 151.344 20.3538L150.617 20.21C142.709 19.1956 137.429 25.3462 136.63 33.286L131.318 69.6461L149.259 72.977L151.288 61.2031C151.288 61.2031 159.028 61.4507 160.537 53.9422C161.264 50.2998 162.159 42.7195 162.886 35.842Z" fill="#B78876"/>
<path d="M151.352 61.1781C147.858 60.5227 144.626 58.8788 142.038 56.4414C142.038 56.4414 143.34 62.2884 150.968 63.0233L151.352 61.1781Z" fill="#AA6550"/>
<path d="M158.908 40.7873C158.859 41.0679 158.701 41.3181 158.47 41.4839C158.238 41.6497 157.951 41.718 157.669 41.674C157.532 41.6582 157.398 41.6151 157.277 41.5473C157.156 41.4796 157.05 41.3884 156.964 41.2791C156.879 41.1699 156.816 41.0447 156.779 40.9109C156.743 40.7771 156.733 40.6373 156.751 40.4998C156.798 40.2177 156.954 39.9656 157.186 39.7981C157.418 39.6306 157.706 39.5613 157.989 39.6051C158.128 39.6209 158.262 39.6642 158.383 39.7325C158.505 39.8008 158.612 39.8927 158.697 40.0028C158.783 40.1129 158.845 40.2391 158.882 40.3738C158.918 40.5085 158.927 40.6491 158.908 40.7873Z" fill="#263238"/>
<path d="M160.577 39.2145C160.417 39.3343 159.714 38.5755 158.564 38.3598C157.414 38.1442 156.447 38.5675 156.352 38.3998C156.256 38.232 156.487 38.1042 156.903 37.9045C157.469 37.6521 158.099 37.5796 158.708 37.6969C159.318 37.8033 159.878 38.1029 160.306 38.5515C160.585 38.895 160.657 39.1666 160.577 39.2145Z" fill="#263238"/>
<path d="M148.507 40.0743C148.348 40.1862 147.653 39.4353 146.495 39.2196C145.336 39.004 144.386 39.4193 144.282 39.2196C144.178 39.0199 144.418 38.9161 144.841 38.7164C145.404 38.4631 146.032 38.3905 146.638 38.5087C147.248 38.6167 147.808 38.9161 148.236 39.3634C148.515 39.7468 148.587 40.0184 148.507 40.0743Z" fill="#263238"/>
<path d="M151.759 46.6582C152.403 46.5756 153.055 46.5756 153.7 46.6582C154.003 46.6582 154.291 46.6582 154.379 46.4905C154.474 46.1944 154.474 45.876 154.379 45.5799C154.235 44.7811 154.083 43.9824 153.931 43.1836C153.316 39.7568 152.933 36.9611 153.077 36.9372C153.221 36.9132 153.82 39.669 154.427 43.0957C154.57 43.9424 154.706 44.7492 154.842 45.492C154.961 45.8846 154.936 46.3068 154.77 46.6822C154.706 46.7743 154.623 46.8518 154.526 46.9096C154.43 46.9674 154.323 47.0042 154.211 47.0177C154.039 47.0388 153.864 47.0388 153.692 47.0177C153.035 46.9771 152.386 46.8563 151.759 46.6582Z" fill="#263238"/>
<path d="M148.205 46.817C148.396 46.817 148.165 48.095 149.067 49.2133C149.97 50.3316 151.336 50.4194 151.312 50.6031C151.288 50.7869 150.968 50.7869 150.401 50.699C149.665 50.5686 148.998 50.1842 148.516 49.6127C148.055 49.0629 147.826 48.3554 147.877 47.6397C147.925 47.0726 148.125 46.793 148.205 46.817Z" fill="#263238"/>
<path d="M149.85 34.3653C149.714 34.6768 148.548 34.4372 147.166 34.5011C145.784 34.565 144.634 34.8525 144.474 34.557C144.403 34.4132 144.618 34.1257 145.09 33.8541C145.712 33.5095 146.408 33.3204 147.118 33.3029C147.83 33.2728 148.538 33.4095 149.187 33.7023C149.674 33.934 149.898 34.2135 149.85 34.3653Z" fill="#263238"/>
<path d="M161.32 34.7321C161.017 34.9478 160.09 34.5004 158.924 34.2768C157.758 34.0531 156.72 34.0691 156.528 33.7576C156.448 33.6058 156.648 33.3662 157.127 33.1985C157.784 32.9927 158.483 32.9624 159.156 33.1106C159.829 33.2348 160.458 33.5352 160.977 33.9812C161.36 34.3567 161.448 34.6522 161.32 34.7321Z" fill="#263238"/>
<path d="M136.718 39.0449C136.598 38.965 131.837 36.5448 131.038 41.7128C130.24 46.8809 135.591 46.6253 135.623 46.5055C135.655 46.3857 136.718 39.0449 136.718 39.0449Z" fill="#B78876"/>
<path d="M134.801 44.3567C134.801 44.3567 134.697 44.4046 134.538 44.4525C134.309 44.5144 134.064 44.4828 133.859 44.3646C133.559 44.0989 133.335 43.7589 133.209 43.3788C133.082 42.9988 133.059 42.5921 133.14 42.2C133.199 41.7563 133.354 41.3309 133.595 40.9539C133.669 40.7973 133.781 40.6614 133.92 40.5583C134.06 40.4552 134.222 40.3881 134.394 40.3628C134.501 40.3538 134.608 40.3812 134.698 40.4406C134.788 40.5 134.855 40.588 134.889 40.6903C134.937 40.85 134.889 40.9459 134.889 40.9619C134.889 40.9778 135.009 40.89 135.001 40.6743C134.995 40.5402 134.941 40.4126 134.849 40.3149C134.787 40.25 134.713 40.1981 134.631 40.1625C134.548 40.1268 134.46 40.108 134.37 40.1072C134.152 40.1179 133.94 40.1836 133.754 40.2981C133.569 40.4126 133.415 40.5723 133.307 40.7622C133.016 41.1735 132.832 41.6513 132.772 42.152C132.678 42.6093 132.719 43.0843 132.891 43.5185C133.062 43.9527 133.357 44.3274 133.739 44.5963C133.871 44.6594 134.016 44.6922 134.162 44.6922C134.309 44.6922 134.453 44.6594 134.586 44.5963C134.769 44.4845 134.817 44.3726 134.801 44.3567Z" fill="#AA6550"/>
<path d="M144.346 24.3489C145.919 24.2863 147.463 24.7877 148.699 25.7627L149.498 26.3937L162.662 30.3876C166.089 29.3093 164.507 26.0662 161.823 24.6284C158.684 22.943 155.329 19.9157 151.839 19.2048C148.348 18.4939 141.95 19.5562 138.803 23.0229C137.718 24.1797 136.869 25.5361 136.303 27.0168C135.29 30.661 134.74 34.4181 134.665 38.1996C134.833 39.3907 135.223 40.5396 135.815 41.5864C136.997 41.8021 137.613 40.9394 137.644 39.7412L138.283 35.1163C139.641 34.4021 140.729 33.2647 141.382 31.8766C142.035 30.4885 142.217 28.9254 141.902 27.4242C141.902 27.4242 141.902 27.4721 141.902 27.4242C141.792 27.0546 141.773 26.6639 141.846 26.2854C141.919 25.9068 142.083 25.5515 142.323 25.2496C142.563 24.9478 142.872 24.7083 143.224 24.5515C143.576 24.3946 143.961 24.3251 144.346 24.3489Z" fill="#263238"/>
<path d="M142.021 25.7214C142.597 24.1239 145.456 23.5328 146.974 24.3076C148.492 25.0824 149.466 26.5921 150.496 27.942C151.527 29.2919 152.853 30.6418 154.546 30.8256C156.24 31.0093 158.213 29.915 159.778 30.7377C160.41 31.1958 161.018 31.6863 161.599 32.2074C162.123 32.511 162.708 32.6918 163.311 32.736C163.915 32.7803 164.52 32.687 165.082 32.463C166.199 32.0121 167.241 31.3955 168.173 30.6339C164.834 30.1147 161.991 28.0219 159.323 25.9451C156.655 23.8682 153.907 21.6956 150.608 20.9687C147.309 20.2418 143.308 21.4639 142.021 24.5792" fill="#263238"/>
<path d="M123.914 46.6337C123.914 46.6337 124.074 46.7215 124.385 46.7934C124.849 46.8806 125.328 46.7893 125.727 46.5378C126.036 46.3393 126.292 46.0679 126.471 45.7476C126.651 45.4273 126.749 45.0678 126.758 44.7006C126.781 43.708 126.526 42.7287 126.023 41.873C125.4 40.8031 124.911 39.6601 124.569 38.4702C124.371 37.7665 124.324 37.0285 124.433 36.3055C124.542 35.5825 124.803 34.8908 125.2 34.2767C125.676 33.6274 126.344 33.144 127.109 32.8948C127.884 32.6538 128.694 32.5457 129.505 32.5753C131.103 32.5753 132.82 32.8708 134.41 32.4075C135.184 32.1792 135.859 31.6983 136.327 31.0416C136.764 30.3753 137.056 29.624 137.182 28.837C137.485 27.2874 137.357 25.7058 137.621 24.2121C137.731 23.4755 137.958 22.7611 138.292 22.0954C138.62 21.4565 139.117 20.9203 139.73 20.5457C140.285 20.238 140.895 20.0435 141.526 19.9735C142.157 19.9036 142.795 19.9596 143.404 20.1384C144.401 20.4181 145.322 20.9207 146.096 21.6081C146.674 22.1131 147.209 22.6663 147.694 23.2616C148.093 23.7488 148.38 24.1482 148.572 24.4118C148.677 24.545 148.77 24.6866 148.852 24.8352C148.724 24.7258 148.609 24.6026 148.508 24.4677C148.269 24.1802 147.957 23.8207 147.566 23.3734C147.079 22.7969 146.545 22.2625 145.968 21.7759C145.208 21.1365 144.316 20.6729 143.356 20.4179C142.786 20.2573 142.19 20.2106 141.602 20.2805C141.014 20.3504 140.446 20.5355 139.929 20.8253C139.382 21.2256 138.927 21.74 138.598 22.333C138.268 22.926 138.071 23.5835 138.02 24.26C137.781 25.6978 137.917 27.2794 137.605 28.9089C137.478 29.7641 137.168 30.5816 136.694 31.3052C136.175 32.0393 135.424 32.5769 134.562 32.8309C132.82 33.3341 131.111 33.0146 129.521 33.0146C128.752 32.9824 127.982 33.0796 127.245 33.3022C126.556 33.523 125.953 33.953 125.52 34.5323C125.152 35.102 124.907 35.7426 124.803 36.4128C124.698 37.0829 124.736 37.7675 124.913 38.4223C125.234 39.5929 125.698 40.7197 126.294 41.7771C126.801 42.6856 127.045 43.7174 126.997 44.7566C126.975 45.1546 126.856 45.5411 126.65 45.8823C126.444 46.2235 126.157 46.509 125.815 46.7136C125.599 46.8391 125.359 46.9207 125.111 46.9536C124.863 46.9865 124.611 46.97 124.369 46.9053C124.198 46.8525 124.042 46.7594 123.914 46.6337Z" fill="#455A64"/>
<path d="M168.629 27.6453C168.629 27.6453 168.573 27.7172 168.43 27.813C168.221 27.9574 167.999 28.0805 167.767 28.1805C166.901 28.5507 165.956 28.6963 165.019 28.6038C163.612 28.4957 162.287 27.8996 161.273 26.9184C160.689 26.3262 160.234 25.6189 159.939 24.8416C159.653 24.037 159.314 23.2524 158.924 22.4932C158.505 21.805 157.92 21.2334 157.222 20.8313C156.524 20.4293 155.736 20.2096 154.93 20.1927C154.273 20.1762 153.621 20.3042 153.019 20.5679C152.417 20.8315 151.881 21.2243 151.448 21.7184C150.843 22.3981 150.427 23.2243 150.242 24.1147C150.122 24.7457 150.146 25.1052 150.106 25.1052C150.066 25.1052 150.106 25.0173 150.058 24.8496C150.029 24.5841 150.029 24.3163 150.058 24.0508C150.192 23.1158 150.588 22.2379 151.2 21.5187C151.651 20.9721 152.219 20.5339 152.861 20.2366C153.504 19.9393 154.206 19.7906 154.914 19.8013C155.786 19.8114 156.641 20.0442 157.397 20.4776C158.153 20.911 158.786 21.5306 159.236 22.2775C159.637 23.0502 159.981 23.8511 160.266 24.6738C160.538 25.406 160.956 26.0748 161.496 26.6388C162.459 27.5992 163.722 28.1998 165.075 28.3402C165.969 28.452 166.877 28.3536 167.727 28.0527C168.31 27.821 168.605 27.6053 168.629 27.6453Z" fill="#455A64"/>
<path d="M130.407 26.7444C130.407 26.7444 130.471 26.6565 130.543 26.4728C130.646 26.2165 130.646 25.9303 130.543 25.674C130.47 25.4729 130.336 25.2994 130.16 25.1777C129.984 25.056 129.775 24.9922 129.561 24.9951C129.279 25.0175 129.01 25.1249 128.79 25.3032C128.571 25.4815 128.41 25.7222 128.33 25.9935C128.259 26.3314 128.288 26.6826 128.413 27.0045C128.537 27.3265 128.753 27.6052 129.033 27.8068C129.37 28.0356 129.75 28.1915 130.151 28.2645C130.551 28.3374 130.962 28.3257 131.358 28.2301C132.258 28.0543 133.078 27.5953 133.698 26.9201C134.329 26.1493 134.777 25.2453 135.008 24.2762C135.265 23.2667 135.674 22.3023 136.222 21.4166C136.758 20.599 137.434 19.8824 138.219 19.2998C139.331 18.4772 140.637 17.959 142.01 17.7965C143.383 17.634 144.775 17.8328 146.047 18.3733C146.323 18.4923 146.59 18.6312 146.846 18.7886C147.014 18.8925 147.102 18.9564 147.094 18.9723C147.086 18.9883 146.702 18.7886 145.991 18.525C144.981 18.1607 143.91 17.9953 142.836 18.0378C141.244 18.1022 139.711 18.6606 138.451 19.6353C137.708 20.1957 137.07 20.8825 136.566 21.6642C136.044 22.5233 135.651 23.4545 135.4 24.428C135.152 25.454 134.674 26.4102 134.002 27.2237C133.317 27.9551 132.415 28.4478 131.43 28.6295C130.983 28.7305 130.52 28.7357 130.071 28.6448C129.622 28.5539 129.198 28.3691 128.826 28.1023C128.496 27.8588 128.244 27.5241 128.103 27.1395C127.961 26.7548 127.934 26.337 128.027 25.9376C128.13 25.6141 128.33 25.3301 128.6 25.1243C128.87 24.9185 129.197 24.8009 129.537 24.7874C129.83 24.7787 130.115 24.8815 130.335 25.075C130.504 25.23 130.63 25.4251 130.703 25.6421C130.759 25.7888 130.783 25.9456 130.775 26.1025C130.767 26.2593 130.726 26.4126 130.655 26.5527C130.511 26.7444 130.415 26.7843 130.407 26.7444Z" fill="#263238"/>
<path d="M151.352 61.1781C147.858 60.5227 144.626 58.8788 142.038 56.4414C142.038 56.4414 143.34 62.2884 150.968 63.0233L151.352 61.1781Z" fill="#AA6550"/>
<path d="M68.7187 171.985C68.7187 171.985 69.8849 163.526 62.8557 163.007C55.8265 162.488 54.3967 168.599 54.3967 168.599L51.5371 167.48C51.5371 167.48 54.3967 158.973 64.0299 161.186C73.6631 163.398 71.4505 173.167 71.4505 173.167L68.7187 171.985Z" fill="#7CBB00"/>
<g opacity="0.3">
<path d="M68.7187 171.984C68.7187 171.984 69.8849 163.525 62.8557 163.005C55.8265 162.486 54.3967 168.597 54.3967 168.597L51.5371 167.479C51.5371 167.479 54.3967 158.972 64.0299 161.184C73.6631 163.397 71.4505 173.166 71.4505 173.166L68.7187 171.984Z" fill="black"/>
</g>
<path d="M37.0072 163.031L27.5098 202.179L79.4939 213.729L88.2964 174.917L37.0072 163.031Z" fill="#7CBB00"/>
<path d="M88.2968 174.917C88.2602 174.969 88.2173 175.018 88.169 175.06L87.7617 175.436L86.1641 176.858C84.7822 178.08 82.8013 179.869 80.2692 181.978C77.3396 184.511 74.1446 186.721 70.7398 188.568C68.7011 189.629 66.5385 190.434 64.3017 190.964C61.8904 191.544 59.3895 191.653 56.937 191.283C54.4867 190.865 52.1565 189.919 50.1075 188.512C48.2058 187.214 46.5118 185.636 45.0832 183.831C42.7146 180.748 40.9034 177.274 39.7314 173.567C38.685 170.435 38.078 167.831 37.6626 166.034C37.4789 165.156 37.3271 164.437 37.2153 163.957L37.1115 163.414C37.1009 163.353 37.1009 163.291 37.1115 163.23C37.1439 163.284 37.1656 163.344 37.1754 163.406L37.3191 163.941C37.4469 164.445 37.6227 165.132 37.8463 165.994C38.3096 167.775 38.9566 170.364 40.035 173.471C41.237 177.126 43.0551 180.549 45.4107 183.591C46.8222 185.359 48.4917 186.905 50.3631 188.176C52.3661 189.546 54.6412 190.467 57.0329 190.876C59.4268 191.237 61.8681 191.131 64.2218 190.564C66.4398 190.049 68.5859 189.263 70.612 188.224C74.0024 186.403 77.1911 184.229 80.1254 181.738C82.6815 179.669 84.6944 177.912 86.1002 176.722L87.6978 175.364L88.1291 175.02L88.2968 174.917Z" fill="#263238"/>
<path d="M72.4164 212.146C72.3126 212.098 75.6115 203.927 79.8051 193.886C83.9987 183.846 87.4653 175.746 87.5692 175.786C87.673 175.826 84.3741 184.006 80.1885 194.046C76.0029 204.087 72.4803 212.186 72.4164 212.146Z" fill="#263238"/>
<path d="M88.0012 175.172C87.9993 175.307 87.9778 175.442 87.9373 175.571C87.8654 175.867 87.7775 176.242 87.6657 176.689C87.426 177.664 87.0506 179.086 86.5714 180.787C85.6128 184.238 84.175 188.982 82.5775 194.198C80.9799 199.414 79.5262 204.095 78.4478 207.57C77.9446 209.239 77.5293 210.613 77.2257 211.636C77.0899 212.075 76.9701 212.434 76.8822 212.73C76.8484 212.864 76.7974 212.993 76.7305 213.113C76.7424 212.978 76.7664 212.845 76.8024 212.714L77.066 211.588C77.3056 210.613 77.681 209.191 78.1683 207.49C79.1268 204.039 80.5646 199.295 82.1621 194.079C83.7597 188.863 85.2134 184.182 86.2918 180.707C86.795 179.038 87.2024 177.664 87.5139 176.649C87.6497 176.202 87.7615 175.851 87.8574 175.547C87.8881 175.416 87.9364 175.29 88.0012 175.172Z" fill="#263238"/>
<path d="M56.6138 189.708L55.0508 189.418L54.5118 192.332L56.0748 192.622L56.6138 189.708Z" fill="#263238"/>
<path d="M88.2966 174.917C88.1155 174.915 87.9355 174.888 87.7615 174.837L86.2677 174.534L80.7722 173.336L62.68 169.222L44.6117 164.997L39.1481 163.671L37.6704 163.287C37.496 163.248 37.3251 163.194 37.1592 163.127C37.3377 163.131 37.5149 163.158 37.6864 163.207L39.1881 163.511L44.6756 164.709L62.7758 168.823L80.8441 173.048L86.3077 174.382L87.7854 174.758C87.9588 174.801 88.1295 174.854 88.2966 174.917Z" fill="#263238"/>
<path d="M64.1414 147.189C64.1414 147.189 58.7976 155.976 58.3743 157.446C57.9509 158.915 55.9779 161.024 57.5755 161.927C57.5755 161.927 57.0483 163.045 58.8216 163.844C58.8216 163.844 58.4142 165.825 60.8744 166.104C60.8744 166.104 62.1924 168.061 63.7181 167.502C63.7181 167.502 65.6111 168.972 66.7774 167.614C67.7037 166.469 68.5523 165.262 69.3174 164.004L70.4677 165.354C71.1789 164.357 71.569 163.167 71.586 161.943C71.586 160.018 69.6929 157.214 70.6834 155.009C70.9843 154.207 71.3841 153.445 71.8735 152.741L64.1414 147.189Z" fill="#B78876"/>
<g opacity="0.3">
<path d="M75.0851 185.756C72.2295 189.927 68.3517 193.296 63.8224 195.541C60.6273 197.211 56.8331 198.289 53.3824 197.203C50.3711 196.26 48.0706 193.808 46.2574 191.22C42.5977 185.957 40.3933 179.82 39.8672 173.431C39.8672 173.431 45.7701 189.654 55.9864 190.693C66.2027 191.731 75.0851 185.756 75.0851 185.756Z" fill="black"/>
</g>
<path d="M62.1602 141.735L65.0357 150.17L72.001 139.123L69.2692 130.752L62.1602 141.735Z" fill="#455A64"/>
<path d="M205.916 13.3641L208.712 9.82556L215.038 17.0145L212.314 22.2145L205.916 13.3641Z" fill="#FAFAFA"/>
<path d="M205.916 13.3648C206.113 13.5721 206.295 13.7937 206.459 14.0278L207.849 15.849C209.015 17.3986 210.629 19.5713 212.482 22.1034H212.138L214.223 18.1095C214.442 17.7101 214.649 17.3108 214.846 16.9114V17.151C212.386 14.3393 210.197 11.8152 208.576 9.91411H208.8L206.715 12.4223C206.465 12.7471 206.198 13.059 205.916 13.3568C206.113 13.0191 206.337 12.6985 206.587 12.3983C207.05 11.7673 207.729 10.8567 208.6 9.73039L208.704 9.5946L208.824 9.72241C210.501 11.5756 212.722 14.0757 215.214 16.9114L215.31 17.0232L215.238 17.143C215.038 17.5424 214.83 17.9418 214.615 18.3492L212.522 22.343L212.37 22.6306L212.178 22.367C210.309 19.763 208.728 17.5104 207.625 15.9209L206.347 14.0597C206.179 13.8444 206.034 13.6114 205.916 13.3648Z" fill="#263238"/>
<path d="M61.3056 145.155C61.3056 145.155 58.9093 149.636 58.8613 149.676L70.5314 155.691L71.8574 152.744L61.3056 145.155Z" fill="#FAFAFA"/>
<path d="M61.3055 145.155C61.582 145.306 61.8488 145.474 62.1043 145.659L64.3249 147.184C66.218 148.502 68.9178 150.379 71.9931 152.576L72.1289 152.672L72.057 152.824C71.6337 153.774 71.1863 154.765 70.739 155.779L70.6432 155.979L70.4515 155.875L69.5489 155.412C65.3473 153.247 61.5611 151.266 58.8134 149.82L58.6855 149.756L58.7894 149.572L60.6026 146.377C60.8108 145.965 61.0512 145.57 61.3215 145.195C61.1622 145.627 60.9699 146.047 60.7464 146.449C60.5307 146.865 60.2911 147.352 60.0115 147.895C59.8677 148.183 59.708 148.478 59.5482 148.79L59.2846 149.285L59.1488 149.533L59.0849 149.668V149.732C59.0635 149.771 59.0366 149.806 59.0051 149.836V149.588C61.7848 150.978 65.5949 152.919 69.7965 155.084L70.6991 155.547L70.4115 155.651C70.8748 154.637 71.3142 153.646 71.7455 152.696L71.8174 152.943C68.822 150.779 66.226 148.87 64.3808 147.48L62.1123 145.762C61.6011 145.403 61.3135 145.179 61.3055 145.155Z" fill="#263238"/>
<path d="M128.595 144.506C139.418 144.45 151.264 148.5 158.988 156.017C162.087 150.497 160.809 143.923 158.924 138.004C157.039 132.085 153.54 126.901 150.026 121.861C149.258 120.539 148.177 119.426 146.879 118.618C144.299 117.3 141.064 118.618 138.787 120.591C135.352 123.538 133.124 127.78 131.822 132.125C130.52 136.471 130.072 141.048 129.633 145.569" fill="#455A64"/>
<path d="M150.129 67.281C150.129 67.281 150.257 63.0235 152.294 63.0235C153.466 63.039 154.627 63.2385 155.737 63.6146L205.341 12.3654L213.848 22.4059L190.364 52.4957L161.392 82.0503C161.392 82.0503 158.844 86.803 158.373 89.2952C157.901 91.7874 157.095 115.575 157.358 120.016C157.622 124.457 161.68 141.918 161.624 150.202C161.568 158.485 158.988 156.033 158.988 156.033L150.329 131.846L146.271 121.07L144.586 118.714L145.984 112.324C145.984 112.324 151.376 94.0719 151.352 90.4934C151.328 86.9148 152.15 82.9849 152.15 80.1892C152.15 77.5133 149.586 72.4091 149.586 72.4091L150.129 67.281Z" fill="#263238"/>
<path d="M132.325 57.7769L131.239 61.3873L130.647 61.6509L126.342 71.9311L125.615 150.211L132.101 151.976C132.101 151.976 138.228 144.787 140.249 139.651C142.27 134.515 146.439 119.202 146.439 119.202L152.111 85.3185L152.909 76.8755C153.027 75.667 152.848 74.4479 152.387 73.3245C151.926 72.201 151.198 71.2072 150.265 70.4294L150.553 67.0985L148.955 67.8973L132.325 57.7769Z" fill="#FAFAFA"/>
<path d="M131.382 61.4041C131.403 61.069 131.46 60.7371 131.55 60.4136C131.709 59.6947 131.909 58.8161 132.149 57.7457L132.197 57.546L132.372 57.6499C134.313 58.7841 136.965 60.3737 139.889 62.147C143.787 64.5433 147.182 66.6201 148.979 67.7863H148.875C149.411 67.5127 149.967 67.2777 150.536 67.0834C150.03 67.4267 149.496 67.726 148.939 67.978H148.891H148.835C146.974 66.9156 143.539 64.8788 139.641 62.5064C136.718 60.7411 134.09 59.1116 132.189 57.9135L132.404 57.8256C132.117 58.872 131.869 59.7506 131.677 60.4615C131.616 60.7863 131.517 61.1027 131.382 61.4041Z" fill="#263238"/>
<path d="M147.501 73.9521C147.613 74.3819 147.691 74.82 147.733 75.2621C147.861 76.1088 148.012 77.3389 148.156 78.8726C148.895 86.8547 148.712 94.8953 147.613 102.836C147.397 104.353 147.198 105.584 147.03 106.422C146.97 106.864 146.871 107.3 146.734 107.724C146.748 107.28 146.793 106.836 146.87 106.398C146.99 105.552 147.142 104.322 147.317 102.796C147.677 99.7605 148.044 95.543 148.156 90.8781C148.268 86.2133 148.076 81.9878 147.861 78.8965C147.757 77.3709 147.653 76.1328 147.573 75.2781C147.512 74.8389 147.488 74.3954 147.501 73.9521Z" fill="#263238"/>
<path d="M147.11 107.965C147.11 107.965 151.623 94.1778 151.623 94.6411C151.623 95.1043 149.011 128.341 149.011 128.341L144.93 117.119L147.11 107.965Z" fill="#263238"/>
<path d="M140.121 131.901C140.174 131.569 140.268 131.244 140.401 130.935L141.295 128.371C142.046 126.206 143.061 123.203 144.091 119.856C145.121 116.509 145.96 113.465 146.551 111.237C146.831 110.19 147.062 109.312 147.254 108.609C147.319 108.279 147.421 107.957 147.558 107.65C147.544 107.985 147.496 108.316 147.414 108.641C147.294 109.28 147.094 110.183 146.839 111.309C146.32 113.545 145.513 116.621 144.49 119.975C143.468 123.33 142.398 126.326 141.567 128.474C141.159 129.545 140.808 130.407 140.552 130.999C140.438 131.313 140.293 131.615 140.121 131.901Z" fill="#455A64"/>
<path d="M154.243 90.7825C154.329 91.0402 154.375 91.3096 154.379 91.5812C154.431 92.3072 154.431 93.0359 154.379 93.7619C154.231 96.1704 153.581 98.5213 152.47 100.663C151.368 102.852 150.145 104.721 149.339 106.255C148.79 107.27 148.3 108.315 147.869 109.386H147.789C147.845 109.258 147.877 109.186 147.893 109.194C147.909 109.202 147.893 109.274 147.893 109.418H147.813C148.111 108.29 148.534 107.2 149.075 106.167C149.874 104.569 151.032 102.692 152.126 100.575C153.209 98.4737 153.883 96.1863 154.115 93.8338C154.283 91.9167 154.171 90.7905 154.243 90.7825Z" fill="#455A64"/>
<path d="M150.401 68.6228C150.71 68.7864 150.997 68.9876 151.256 69.2219C151.994 69.8065 152.696 70.4361 153.357 71.107C154.37 72.0839 155.253 73.1873 155.985 74.3899C156.449 75.1179 156.759 75.9335 156.895 76.7863C156.98 77.6834 156.953 78.5876 156.816 79.4781C156.42 81.9164 155.816 84.3162 155.01 86.6511C154.347 88.664 153.748 90.2136 153.365 91.1083L153.293 91.0044C153.62 90.9924 153.947 91.0192 154.267 91.0843C153.946 91.1384 153.619 91.1625 153.293 91.1562H153.181L153.221 91.0444C153.525 90.1258 154.068 88.5602 154.683 86.5393C155.436 84.1898 156.01 81.7866 156.4 79.3503C156.536 78.4972 156.565 77.6306 156.488 76.7703C156.373 75.9815 156.102 75.2237 155.689 74.5417C154.98 73.3584 154.139 72.2596 153.181 71.2668C152.382 70.4041 151.671 69.7491 151.184 69.3018C150.904 69.0991 150.642 68.8719 150.401 68.6228Z" fill="#455A64"/>
<path d="M160.234 75.6854C160.107 75.0436 160.049 74.3904 160.058 73.7364C160.001 72.1804 159.776 70.6351 159.387 69.1275C158.983 67.6319 158.214 66.2597 157.15 65.1336C156.352 64.2869 155.625 63.9674 155.665 63.8955C155.844 63.9245 156.015 63.9898 156.168 64.0872C156.594 64.3019 156.992 64.5703 157.35 64.886C158.521 66.0009 159.363 67.4154 159.786 68.9757C160.189 70.5162 160.38 72.1044 160.353 73.6965C160.388 74.3618 160.348 75.029 160.234 75.6854Z" fill="#455A64"/>
<path d="M151.655 111.279C150.895 111.642 150.06 111.823 149.218 111.806C148.386 111.927 147.537 111.848 146.742 111.575C148.376 111.428 150.015 111.329 151.655 111.279Z" fill="#455A64"/>
<path d="M148.979 116.934C148.405 116.363 147.939 115.691 147.605 114.953C147.144 114.287 146.801 113.547 146.591 112.764C147.162 113.342 147.627 114.015 147.965 114.753C148.42 115.42 148.762 116.157 148.979 116.934Z" fill="#455A64"/>
<path d="M116.15 66.0049C116.426 66.18 116.678 66.3893 116.901 66.6279C117.548 67.2377 118.134 67.9092 118.65 68.6329C120.407 71.0238 121.483 73.8459 121.764 76.7995C122.046 79.753 121.522 82.7275 120.248 85.4071C119.871 86.2118 119.419 86.9793 118.898 87.6996C118.721 87.9741 118.512 88.2262 118.275 88.4504C118.203 88.4025 119.074 87.3162 119.976 85.2553C121.158 82.6092 121.637 79.703 121.366 76.8177C121.096 73.9324 120.087 71.1656 118.435 68.7846C117.149 66.9714 116.086 66.0608 116.15 66.0049Z" fill="#455A64"/>
<path d="M81.667 145.609C83.608 149.779 115.152 166.378 115.152 166.378C115.152 166.378 122.564 160.746 132.062 149.132C141.559 137.518 147.11 107.955 147.11 107.955C147.11 107.955 141.839 85.0385 138.132 75.3973C134.426 65.7561 130.616 61.4587 130.616 61.4587L111.293 66.1715L105.239 106.725L104.887 119.29C104.887 119.29 103.346 119.681 103.346 120.36V121.846L81.667 145.609Z" fill="#263238"/>
<path d="M60.2832 144.419C60.2832 144.419 88.1764 99.2479 91.1718 94.0958C94.6225 88.153 109.663 65.2282 111.94 66.0349C114.216 66.8417 121.861 72.5769 118.793 83.8236C115.726 95.0703 112.195 101.029 112.195 101.029L101.172 112.763L72.3527 153.069L61.05 144.962L60.2832 144.419Z" fill="#263238"/>
<path d="M145.84 111.828C145.814 111.947 145.768 112.06 145.704 112.164C145.609 112.387 145.457 112.699 145.249 113.106C144.683 114.258 144.045 115.373 143.34 116.445C142.321 118.077 140.994 119.496 139.434 120.623C137.439 121.909 135.115 122.594 132.74 122.596C128.498 122.663 124.266 122.171 120.152 121.134C118.554 120.742 117.324 120.335 116.469 120.047C116.038 119.904 115.671 119.776 115.487 119.68C115.368 119.645 115.256 119.594 115.151 119.528C115.615 119.616 116.072 119.739 116.517 119.896C117.388 120.143 118.642 120.495 120.224 120.846C124.321 121.795 128.519 122.243 132.724 122.18C135.023 122.181 137.275 121.531 139.218 120.303C140.749 119.224 142.065 117.869 143.1 116.309C144.019 114.991 144.658 113.841 145.113 113.058C145.325 112.631 145.568 112.22 145.84 111.828Z" fill="#455A64"/>
<path d="M146.799 109.017C146.651 108.924 146.515 108.814 146.391 108.69C146.104 108.426 145.744 108.091 145.289 107.684C144.339 106.797 142.973 105.503 141.391 103.809C137.096 99.4552 134.153 93.9514 132.916 87.9618C132.038 84.5351 131.255 81.2521 130.52 78.2807C129.792 75.6539 129.219 72.9867 128.803 70.2929C128.547 68.444 128.859 66.561 129.697 64.8932C129.938 64.4514 130.236 64.0432 130.584 63.6791C130.67 63.582 130.764 63.4912 130.863 63.4075L130.975 63.3276C130.536 63.8312 130.155 64.3833 129.841 64.9731C129.082 66.6253 128.824 68.4636 129.098 70.261C129.551 72.9301 130.148 75.5726 130.887 78.1768L133.324 87.85C134.551 93.7742 137.421 99.2332 141.607 103.602C143.156 105.319 144.49 106.637 145.401 107.556L146.447 108.618C146.577 108.74 146.694 108.874 146.799 109.017Z" fill="#455A64"/>
<path d="M130.943 150.29C130.815 150.448 130.676 150.597 130.528 150.737L129.282 151.967L124.633 156.432C122.652 158.325 120.312 160.554 117.708 163.022C117.061 163.696 116.358 164.313 115.607 164.867C115.176 165.154 114.671 165.31 114.153 165.315C113.642 165.288 113.14 165.163 112.675 164.947C110.878 164.149 109.017 163.35 107.148 162.447C100.736 159.396 94.5671 155.858 88.6963 151.863C86.4437 150.33 84.7024 149.012 83.4643 148.093L82.0824 147.015C81.9191 146.892 81.7643 146.759 81.6191 146.615C81.7996 146.708 81.9707 146.818 82.1304 146.943L83.5602 147.965C84.7983 148.844 86.5875 150.122 88.856 151.624C94.7607 155.533 100.932 159.024 107.324 162.072C109.193 162.974 111.046 163.789 112.835 164.572C113.252 164.767 113.702 164.883 114.161 164.915C114.602 164.906 115.031 164.773 115.399 164.532C116.127 163.988 116.814 163.39 117.452 162.743L124.433 156.225L129.17 151.847L130.472 150.673C130.614 150.528 130.772 150.399 130.943 150.29Z" fill="#455A64"/>
<path d="M144.945 109.746C144.905 109.746 145.153 109.426 145.696 109.546C145.858 109.591 146.002 109.687 146.107 109.819C146.211 109.951 146.272 110.113 146.279 110.281C146.279 110.497 146.197 110.706 146.048 110.863C145.899 111.021 145.696 111.115 145.48 111.128C145.278 111.16 145.072 111.13 144.888 111.039C144.705 110.949 144.555 110.804 144.458 110.624C144.379 110.476 144.349 110.307 144.372 110.14C144.395 109.974 144.469 109.819 144.585 109.698C144.662 109.62 144.758 109.565 144.863 109.537C144.969 109.509 145.079 109.509 145.185 109.538C145.328 109.586 145.376 109.658 145.36 109.682C145.344 109.706 145.033 109.61 144.801 109.889C144.749 109.972 144.722 110.068 144.722 110.165C144.722 110.263 144.749 110.358 144.801 110.441C144.87 110.539 144.964 110.618 145.074 110.667C145.184 110.716 145.305 110.735 145.424 110.72C145.536 110.712 145.642 110.665 145.723 110.588C145.805 110.511 145.857 110.408 145.871 110.297C145.869 110.198 145.839 110.102 145.785 110.019C145.732 109.936 145.657 109.869 145.568 109.826C145.248 109.666 144.961 109.818 144.945 109.746Z" fill="#455A64"/>
<path d="M115.103 133.563C114.891 133.492 114.691 133.387 114.512 133.252C114.137 133.036 113.625 132.685 112.994 132.229C111.374 131.029 109.859 129.693 108.465 128.235C107.069 126.784 105.797 125.219 104.663 123.555C104.24 122.916 103.864 122.38 103.697 122.005C103.569 121.819 103.472 121.614 103.409 121.398C103.944 122.032 104.443 122.696 104.903 123.387C106.094 124.985 107.383 126.508 108.761 127.948C110.149 129.37 111.624 130.704 113.178 131.942C113.849 132.447 114.491 132.988 115.103 133.563Z" fill="#455A64"/>
<path d="M119.4 131.382C119.162 131.305 118.936 131.194 118.729 131.054C118.314 130.823 117.723 130.463 117.004 130.008C115.133 128.803 113.325 127.501 111.588 126.11C109.849 124.722 108.185 123.242 106.604 121.677C105.997 121.07 105.525 120.574 105.206 120.215C104.886 119.856 104.719 119.656 104.742 119.632C105.464 120.205 106.154 120.815 106.811 121.461C108.065 122.611 109.823 124.161 111.852 125.79C113.88 127.42 115.774 128.786 117.163 129.784C117.943 130.267 118.69 130.801 119.4 131.382Z" fill="#455A64"/>
<path d="M113.682 97.1414C113.15 97.9764 112.566 98.7768 111.932 99.5377L107.563 105.129C105.854 107.302 104.288 109.259 103.122 110.649C102.533 111.435 101.867 112.16 101.133 112.813C101.259 112.581 101.412 112.364 101.588 112.166L102.89 110.465L107.235 104.873C108.953 102.701 110.526 100.752 111.701 99.3699C112.284 98.675 112.771 98.1238 113.114 97.7724C113.273 97.5368 113.464 97.3244 113.682 97.1414Z" fill="#455A64"/>
<path d="M113.106 65.7414C113.106 65.7414 123.49 68.5212 121.286 80.7184C119.081 92.9157 105.167 109.618 105.167 109.618L103.921 109.37L98.6406 116.256C98.6406 116.256 102.962 117.853 106.349 116.216C109.736 114.578 118.33 101.319 122.492 90.783C127.436 78.2422 125.855 72.6987 124.257 69.7912C120.687 63.3052 117.108 64.5193 117.108 64.5193L113.106 65.7414Z" fill="#455A64"/>
<path d="M148.579 68.1111L146.071 71.1544L147.11 73.9102L148.907 74.5332L150.257 71.3222L148.579 68.1111Z" fill="#7CBB00"/>
<path d="M149.426 73.2977C149.298 73.2977 149.267 72.3471 148.747 71.3407C148.228 70.3342 147.517 69.6872 147.605 69.5914C147.693 69.4955 148.548 70.0387 149.115 71.1889C149.309 71.5001 149.437 71.848 149.49 72.2108C149.544 72.5737 149.522 72.9436 149.426 73.2977Z" fill="#263238"/>
<path d="M147.43 73.8705C147.43 73.8705 147.981 76.9218 147.43 78.1439C145.377 82.7529 141.439 78.5513 137.845 74.6533C134.25 70.7553 129.314 60.6348 123.467 58.8056C117.62 56.9765 111.118 56.6969 106.509 60.9623L105.087 66.2103L110.343 66.0345C110.343 66.0345 117.684 59.6444 124.01 65.2358C130.336 70.8272 137.781 83.7194 142.709 84.0309C147.638 84.3424 149.395 81.9461 149.746 78.9667C149.953 77.084 149.858 75.1804 149.467 73.3273L147.43 73.8705Z" fill="#7CBB00"/>
<g opacity="0.3">
<path d="M136.662 73.2234C138.098 76.5381 140.592 79.2828 143.755 81.0274C144.358 81.4069 145.056 81.6064 145.768 81.6025C146.151 81.5534 146.52 81.4233 146.849 81.2209C147.178 81.0184 147.46 80.7483 147.677 80.4283C148.095 79.7807 148.367 79.0504 148.476 78.2876C148.64 77.3514 148.72 76.4024 148.716 75.452C148.757 75.0489 148.685 74.6421 148.508 74.2778C148.392 74.1135 148.218 73.9992 148.021 73.9577C147.824 73.9162 147.618 73.9507 147.446 74.0541C147.65 75.1555 147.68 76.2823 147.533 77.393C147.442 77.9565 147.221 78.4913 146.888 78.9554C146.556 79.4196 146.12 79.8006 145.616 80.0689C145.616 80.0689 144.107 80.636 141.686 78.5113C139.895 76.863 138.217 75.0964 136.662 73.2234Z" fill="black"/>
</g>
<path d="M149.458 73.2246C149.554 73.2725 149.25 73.8796 148.5 74.1352C148.184 74.2447 147.841 74.2447 147.525 74.1352C147.285 74.0473 147.182 73.9195 147.206 73.8716C147.229 73.8237 147.773 73.9595 148.372 73.7438C148.971 73.5281 149.362 73.1527 149.458 73.2246Z" fill="#263238"/>
<path d="M149.331 80.5079C149.219 80.5079 148.979 80.1006 148.74 79.5414C148.5 78.9823 148.348 78.503 148.444 78.4471C148.54 78.3912 148.875 78.7906 149.123 79.3737C149.371 79.9568 149.435 80.476 149.331 80.5079Z" fill="white"/>
<path d="M149.81 75.963C149.722 76.0429 149.506 75.963 149.258 75.8752C149.011 75.7873 148.787 75.7394 148.771 75.6196C148.755 75.4997 149.035 75.3639 149.394 75.4838C149.754 75.6036 149.897 75.8911 149.81 75.963Z" fill="white"/>
<path d="M148.516 70.8212C148.604 70.8931 148.3 71.4123 147.837 71.9715C147.374 72.5306 146.934 72.938 146.839 72.8661C146.743 72.7942 147.054 72.275 147.518 71.7159C147.981 71.1567 148.42 70.7493 148.516 70.8212Z" fill="white"/>
<path d="M144.762 83.9912C144.65 83.9912 144.698 83.4081 144.858 82.7611C145.018 82.1141 145.241 81.6109 145.353 81.6349C145.465 81.6588 145.425 82.202 145.257 82.865C145.09 83.5279 144.874 84.0312 144.762 83.9912Z" fill="white"/>
<path d="M139.33 82.2261C139.242 82.1542 139.658 81.4912 140.265 80.7484C140.872 80.0055 141.439 79.4623 141.527 79.5342C141.615 79.6061 141.199 80.2691 140.592 81.012C139.985 81.7548 139.41 82.298 139.33 82.2261Z" fill="white"/>
<path d="M138.779 77.0035C138.859 77.0834 138.34 77.6665 137.605 78.3055C136.87 78.9445 136.231 79.3918 136.159 79.304C136.087 79.2161 136.614 78.625 137.333 77.994C138.052 77.363 138.715 76.9236 138.779 77.0035Z" fill="white"/>
<path d="M136.534 73.0741C135.963 74.4906 134.93 75.6727 133.603 76.4289C133.523 76.3331 134.234 75.6302 135.033 74.7275C135.831 73.8249 136.43 73.0261 136.534 73.0741Z" fill="white"/>
<path d="M133.308 69.0778C133.388 69.1657 132.749 69.8766 131.886 70.6754C131.403 71.2035 130.826 71.6369 130.184 71.9534C130.105 71.8655 130.744 71.1546 131.606 70.3559C132.469 69.5571 133.228 68.99 133.308 69.0778Z" fill="white"/>
<path d="M131.166 65.5806C130.637 66.2181 130.042 66.799 129.393 67.3139C128.838 67.9335 128.22 68.4931 127.548 68.9833C127.922 68.2119 128.469 67.5368 129.145 67.0104C129.704 66.3888 130.394 65.9002 131.166 65.5806Z" fill="white"/>
<path d="M128.331 62.1545C127.754 62.7912 127.137 63.3915 126.486 63.9518C125.935 64.6143 125.351 65.2488 124.736 65.8529C125.017 65.0066 125.519 64.2509 126.19 63.6642C126.763 62.986 127.5 62.4662 128.331 62.1545Z" fill="white"/>
<path d="M123.826 58.9501C123.575 59.7693 123.232 60.5571 122.803 61.2985C122.497 62.0971 122.1 62.8582 121.621 63.567C121.948 61.8646 122.708 60.2748 123.826 58.9501Z" fill="white"/>
<path d="M118.746 57.7612C118.858 57.8171 118.426 58.9274 118.155 60.3493C118.053 61.2295 117.906 62.104 117.715 62.9692C117.402 61.1655 117.77 59.3099 118.746 57.7612Z" fill="white"/>
<path d="M114.129 63.7673C113.622 62.8662 113.291 61.8767 113.155 60.8518C112.895 59.854 112.822 58.8168 112.939 57.7925C113.229 58.7666 113.437 59.7632 113.562 60.7719C113.831 61.7536 114.02 62.7553 114.129 63.7673Z" fill="white"/>
<path d="M110.51 65.5891C108.767 64.4052 107.495 62.6468 106.916 60.6207C107.028 60.5728 107.619 61.8189 108.609 63.1768C109.6 64.5347 110.59 65.4932 110.51 65.5891Z" fill="white"/>
<path d="M148.723 69.2078C148.643 68.7919 148.603 68.3692 148.603 67.9457H148.771C147.948 69.2925 146.952 70.5252 145.808 71.6121C145.434 72.0306 144.98 72.3701 144.474 72.6105C144.314 72.6572 144.147 72.6707 143.982 72.6501C143.817 72.6294 143.658 72.5752 143.515 72.4907C143.253 72.331 143.007 72.1464 142.78 71.9396C141.87 71.1807 140.911 70.342 139.929 69.5432C135.935 66.1005 132.74 62.9294 131.326 61.4597H131.398C130.997 61.5254 130.59 61.5522 130.184 61.5395C130.57 61.4131 130.969 61.3274 131.374 61.2839H131.414C132.915 62.6578 136.206 65.7491 140.2 69.1838L143.036 71.62C143.483 72.0114 143.915 72.4188 144.362 72.2271C144.818 72.0093 145.23 71.7087 145.576 71.3405C146.715 70.2861 147.736 69.1102 148.619 67.8339L148.787 67.6022V67.8818C148.809 68.3248 148.787 68.7689 148.723 69.2078Z" fill="#263238"/>
</svg>
