<svg width="272" height="353" viewBox="0 0 272 353" fill="none" xmlns="http://www.w3.org/2000/svg">
<g clip-path="url(#clip0_1_1284)">
<path d="M89.6793 292.602C89.6793 292.602 89.6793 329.126 89.6793 329.146C89.6793 336.127 89.7382 342.253 90.0818 345.415C90.0758 345.431 90.0758 345.448 90.0818 345.464C90.0768 346.213 90.2484 346.953 90.5826 347.624C90.5826 347.624 90.5826 347.624 90.5826 347.673C92.6543 349.087 148.452 351.001 150.475 350.412C152.498 349.823 150.917 344.168 148.806 342.361C146.695 340.555 125.654 330.275 125.654 330.275L125.31 293.78L89.6793 292.602Z" fill="#AD6359"/>
<path d="M89.69 321.652V329.154C89.69 336.135 89.7489 342.261 90.0926 345.423C90.0865 345.439 90.0865 345.456 90.0926 345.472C90.173 346.209 90.3411 346.934 90.5933 347.632C90.5933 347.632 90.5933 347.632 90.5933 347.681C92.665 349.095 148.463 351.009 150.486 350.42C152.508 349.831 150.927 344.176 148.817 342.369C146.706 340.563 125.665 330.283 125.665 330.283L125.773 322.673L89.69 321.652Z" fill="white"/>
<path d="M150.485 350.411C148.521 351 92.7133 349.095 90.5925 347.672C89.7874 347.141 89.6107 338.992 89.6107 329.144C89.6107 329.046 89.6107 328.938 89.6107 328.84L125.615 329.665V330.283C125.615 330.283 146.646 340.563 148.757 342.37C150.868 344.176 152.449 349.832 150.485 350.411Z" fill="#FFBB00"/>
<path d="M149.953 348.228C140.557 347.669 102.599 346.324 93.2715 346.5C93.1929 346.5 93.1929 346.549 93.2715 346.559C102.569 347.305 140.537 348.346 149.943 348.376C150.12 348.376 150.12 348.238 149.953 348.228Z" fill="#263238"/>
<path d="M128.688 330.487C125.016 329.672 120.47 330.085 117.554 332.627C117.436 332.726 117.554 332.883 117.701 332.843C121.277 331.829 124.95 331.197 128.659 330.958C128.721 330.962 128.783 330.941 128.83 330.9C128.877 330.858 128.905 330.8 128.909 330.737C128.913 330.675 128.892 330.613 128.851 330.566C128.809 330.52 128.751 330.491 128.688 330.487Z" fill="#263238"/>
<path d="M131.3 332.187C127.618 331.372 123.072 331.784 120.156 334.327C120.048 334.425 120.156 334.582 120.303 334.553C123.89 333.527 127.577 332.892 131.3 332.658C131.363 332.658 131.422 332.633 131.467 332.589C131.511 332.545 131.536 332.485 131.536 332.422C131.536 332.36 131.511 332.3 131.467 332.256C131.422 332.211 131.363 332.187 131.3 332.187Z" fill="#263238"/>
<path d="M133.922 333.89C130.25 333.065 125.704 333.487 122.788 336.021C122.67 336.119 122.788 336.276 122.935 336.246C126.51 335.228 130.183 334.593 133.892 334.351C133.946 334.344 133.996 334.319 134.034 334.279C134.071 334.239 134.093 334.187 134.097 334.133C134.1 334.078 134.085 334.024 134.053 333.98C134.021 333.936 133.974 333.904 133.922 333.89Z" fill="#263238"/>
<path d="M87.8833 266.353L87.8931 266.765L88.6982 330.693L127.756 329.907L119.734 135.012H86.7443L87.8833 266.353Z" fill="#455A64"/>
<path d="M126.115 323.397C120.018 323.338 121.776 323.269 115.678 323.289C112.733 323.289 93.0961 323.357 90.2978 323.858C90.2389 323.858 90.2389 323.976 90.2978 323.986C93.0961 324.408 112.703 323.986 115.678 323.937C121.776 323.799 120.028 323.77 126.125 323.573C126.233 323.573 126.233 323.397 126.115 323.397Z" fill="#263238"/>
<path d="M95.3248 301.717C95.2463 295.871 95.1514 290.029 95.0401 284.191C94.811 272.52 94.595 260.839 94.3921 249.149C93.9601 225.912 93.5837 202.675 93.263 179.438C93.0666 166.321 93.0764 153.203 92.7328 140.105H92.6837C92.4677 151.78 92.5953 163.473 92.615 175.157C92.6346 186.841 92.6837 198.525 92.8015 210.209C93.0273 233.449 93.3513 256.699 93.9012 279.92C94.0583 286.478 94.2153 293.027 94.4412 299.557C94.667 306.086 94.8143 312.674 95.2757 319.193C95.2757 319.214 95.284 319.234 95.2987 319.249C95.3135 319.264 95.3335 319.272 95.3543 319.272C95.3751 319.272 95.3951 319.264 95.4098 319.249C95.4246 319.234 95.4328 319.214 95.4328 319.193C95.5408 313.45 95.3935 307.559 95.3248 301.717Z" fill="#263238"/>
<path d="M86.7438 135.416L87.6078 234.926L114.059 135.023H86.7536L86.7438 135.416Z" fill="#263238"/>
<path d="M29.9243 274.34L11.0729 304.983C8.00959 311.257 5.43719 316.814 4.3768 319.819C4.37076 319.835 4.37076 319.852 4.3768 319.868C4.05301 320.542 3.88521 321.28 3.88588 322.028C3.88588 322.028 3.88588 322.077 3.88588 322.087C5.14264 324.266 54.5882 350.187 56.6206 350.511C58.653 350.835 59.733 345.072 58.5843 342.539C57.4355 340.005 42.9632 321.606 42.9632 321.606L61.5298 290.864L29.9243 274.34Z" fill="#AD6359"/>
<path d="M3.88595 322.023C3.87991 322.039 3.87991 322.057 3.88595 322.072C5.14271 324.252 54.5882 350.173 56.6207 350.497C58.6531 350.821 59.7233 345.057 58.5843 342.524C57.4454 339.991 42.9632 321.591 42.9632 321.591L46.272 316.103C38.1915 311.792 23.4933 304.222 14.372 299.539L11.0338 304.969C7.97041 311.252 5.39798 316.8 4.33759 319.804C4.33664 319.821 4.33664 319.837 4.33759 319.853C4.01376 320.529 3.85878 321.274 3.88595 322.023Z" fill="white"/>
<path d="M56.6301 350.498C54.5976 350.174 5.15208 324.254 3.89533 322.074C3.40441 321.249 6.7623 313.826 11.0726 304.97C11.1217 304.882 11.161 304.793 11.2101 304.695L43.2966 321.063L43.0021 321.593C43.0021 321.593 57.4941 339.943 58.6428 342.526C59.7916 345.108 58.6428 350.822 56.6301 350.498Z" fill="#FFBB00"/>
<path d="M57.0723 348.293C48.8445 343.718 15.2263 326.045 6.74314 322.156C6.67441 322.156 6.65478 322.156 6.74314 322.206C14.7942 326.918 48.5598 344.307 57.0232 348.431C57.1803 348.509 57.249 348.381 57.0723 348.293Z" fill="#263238"/>
<path d="M45.6336 323.111C42.6881 320.784 38.3974 319.184 34.6665 320.165C34.5192 320.165 34.5781 320.411 34.6665 320.43C38.3324 321.064 41.9202 322.088 45.3685 323.484C45.4176 323.503 45.4717 323.506 45.5222 323.491C45.5728 323.476 45.6169 323.444 45.6474 323.401C45.6779 323.358 45.6931 323.306 45.6907 323.254C45.6882 323.201 45.6681 323.151 45.6336 323.111Z" fill="#263238"/>
<path d="M47.2536 325.788C44.3081 323.451 40.0175 321.86 36.2865 322.842C36.1392 322.842 36.1981 323.088 36.2865 323.107C39.9521 323.737 43.5398 324.758 46.9885 326.151C47.0361 326.167 47.0875 326.168 47.1353 326.152C47.1832 326.137 47.2249 326.107 47.2545 326.067C47.2841 326.026 47.3 325.977 47.2998 325.927C47.2996 325.877 47.2835 325.828 47.2536 325.788Z" fill="#263238"/>
<path d="M48.8249 328.443C45.8794 326.116 41.5888 324.516 37.8578 325.497C37.7105 325.497 37.7694 325.743 37.8578 325.772C41.5215 326.397 45.1067 327.417 48.55 328.816C48.5996 328.84 48.656 328.846 48.7094 328.833C48.7629 328.82 48.8101 328.788 48.8427 328.744C48.8754 328.7 48.8915 328.645 48.8883 328.59C48.885 328.535 48.8626 328.483 48.8249 328.443Z" fill="#263238"/>
<path d="M116.355 134.977C116.208 135.654 113.911 146.356 111.515 155.546C109.777 162.262 107.99 168.163 106.959 168.772C105.928 169.38 100.135 171.973 98.2405 172.758C98.2405 172.758 85.4766 236.352 78.7706 256.067C72.5653 274.271 46.8803 322.911 46.8803 322.911L9.62928 304.079C9.62928 304.079 38.7212 254.722 41.7846 245.866C46.5269 232.12 64.2982 165.09 64.2982 165.09C64.2982 165.09 64.1608 144.098 71.23 134.938L116.355 134.977Z" fill="#455A64"/>
<path d="M46.3302 315.674C40.9988 312.729 42.5698 313.475 37.2187 310.559C34.5972 309.135 17.3561 299.759 14.6855 298.875C14.6266 298.875 14.5775 298.954 14.6266 298.983C16.8652 300.701 34.2634 309.783 36.9144 311.138C42.3243 313.946 40.8417 313.102 46.2418 315.831C46.3498 315.88 46.4284 315.723 46.3302 315.674Z" fill="#263238"/>
<path d="M73.8416 159.3C74.8235 159.044 75.9526 158.956 76.9933 158.799C77.8377 158.661 78.6723 158.514 79.5068 158.328C81.103 158.042 82.6156 157.405 83.935 156.462C85.2572 155.247 86.2445 153.712 86.8019 152.005C87.2143 151.023 87.6463 150.041 88.0783 149.108C88.2845 148.637 88.5005 148.126 88.7165 147.714C89.0101 147.17 89.2723 146.609 89.502 146.035C89.502 145.956 89.6591 146.035 89.6296 146.035C89.4853 146.429 89.3673 146.833 89.2762 147.243C89.1289 147.704 89.0012 148.175 88.854 148.647C88.5987 149.481 88.3434 150.316 88.0685 151.14C87.6575 152.67 87.0607 154.144 86.2914 155.529C84.7499 157.984 82.0007 158.966 79.2515 159.319C78.4661 159.417 77.6708 159.476 76.8755 159.516C75.8762 159.609 74.8704 159.609 73.8711 159.516C73.8528 159.505 73.8371 159.491 73.8254 159.473C73.8136 159.456 73.806 159.436 73.8031 159.415C73.8003 159.394 73.8023 159.373 73.8089 159.353C73.8156 159.333 73.8268 159.315 73.8416 159.3Z" fill="#263238"/>
<path d="M109.965 167.313C105.923 168.784 102.017 170.604 98.2907 172.752C98.2656 172.771 98.2476 172.797 98.2396 172.827C98.2316 172.857 98.234 172.889 98.2466 172.918C98.2592 172.946 98.2811 172.97 98.3087 172.984C98.3363 172.999 98.3681 173.003 98.3987 172.997C102.326 171.299 106.342 169.689 110.181 167.784C110.243 167.755 110.292 167.703 110.316 167.639C110.34 167.574 110.337 167.503 110.308 167.44C110.28 167.378 110.228 167.329 110.163 167.305C110.099 167.281 110.027 167.284 109.965 167.313Z" fill="#263238"/>
<path d="M111.152 140.357C111.152 140.219 110.897 140.19 110.907 140.357C110.907 145.03 110.632 149.134 110.239 153.503C110.062 155.526 108.433 166.729 104.918 165.904C104.328 165.767 104.024 165.187 103.936 164.304C103.952 163.143 104.111 161.989 104.407 160.867C104.79 158.53 105.104 156.174 105.31 153.808C105.718 149.4 105.669 144.961 105.163 140.563C105.156 140.538 105.141 140.517 105.121 140.502C105.1 140.487 105.075 140.479 105.05 140.479C105.025 140.479 105 140.487 104.98 140.502C104.959 140.517 104.944 140.538 104.937 140.563C105.042 146.678 104.685 152.793 103.867 158.854C103.425 161.8 101.962 166.15 105.006 166.591C108.05 167.033 110.121 159.719 110.494 157.696C111.465 151.969 111.686 146.14 111.152 140.357Z" fill="#263238"/>
<path d="M105.005 166.17C104.695 166.925 104.432 167.699 104.219 168.487C103.985 169.114 103.875 169.781 103.895 170.45C103.905 170.474 103.921 170.494 103.942 170.508C103.963 170.522 103.988 170.529 104.013 170.529C104.038 170.529 104.063 170.522 104.084 170.508C104.105 170.494 104.121 170.474 104.131 170.45C104.497 169.878 104.772 169.252 104.946 168.595C105.221 167.878 105.496 167.161 105.751 166.435C105.768 166.386 105.776 166.334 105.773 166.282C105.771 166.23 105.758 166.179 105.736 166.132C105.713 166.085 105.682 166.043 105.643 166.008C105.605 165.973 105.56 165.947 105.511 165.929C105.462 165.912 105.41 165.904 105.358 165.907C105.306 165.909 105.255 165.922 105.208 165.945C105.161 165.967 105.119 165.998 105.084 166.037C105.049 166.076 105.022 166.121 105.005 166.17Z" fill="#263238"/>
<path d="M19.6738 297.948C24.9757 287.962 30.474 278.066 35.933 268.188C38.6331 263.279 41.4608 258.497 44.0431 253.559C46.4754 248.666 48.4475 243.558 49.9341 238.301C53.2069 227.638 56.3161 216.926 59.2616 206.165C62.2071 195.404 64.9596 184.604 67.5189 173.765C68.1669 171.055 68.8836 168.345 69.404 165.596C69.8704 162.83 69.8704 160.006 69.404 157.24C69.0115 154.661 68.9916 152.039 69.3451 149.454C69.7608 146.875 70.3713 144.332 71.1714 141.845C71.5837 140.529 72.0255 139.233 72.4772 137.917C72.5263 137.78 72.7521 137.839 72.703 137.986C71.1026 143.249 69.4531 148.561 69.8066 154.128C69.9637 156.798 70.6804 159.43 70.6313 162.12C70.452 164.778 69.9979 167.41 69.2764 169.975C66.7432 180.893 64.0235 191.765 61.1173 202.591C58.211 213.418 55.1379 224.198 51.8978 234.933C50.4595 240.206 48.6853 245.381 46.586 250.427C44.3376 255.414 41.5001 260.127 38.8197 264.889C33.2821 274.708 27.7052 284.526 22.0007 294.344C21.2742 295.582 20.5443 296.812 19.8112 298.036C19.7523 298.095 19.6345 298.026 19.6738 297.948Z" fill="#263238"/>
<path d="M95.9524 85.0031C99.0648 91.876 118.024 115.951 129.61 116.55C141.392 117.149 165.84 98.5132 168.884 97.3841C177.2 94.2913 160.724 69.4704 156.444 72.465C149.286 77.4527 130.778 95.0473 127.381 93.6433C120.243 90.6978 114.617 86.3188 104.249 80.2314C97.0521 75.9898 92.5552 77.4724 95.9524 85.0031Z" fill="#AD6359"/>
<path d="M160.117 99.966C157.024 99.259 150.416 78.8662 152.606 76.4508C153.018 75.9894 155.551 73.5053 156.484 72.4646C159.538 68.8601 161.976 64.7764 163.7 60.3781C165.536 55.3118 167.677 47.6142 170.446 48.4586C174.471 49.7349 172.939 59.8479 171.702 65.5917C174.756 64.6098 177.476 64.1189 179.174 64.384C184.81 65.2873 188.315 87.4966 183.278 90.3635C178.428 93.1323 163.219 100.663 160.117 99.966Z" fill="#AD6359"/>
<path d="M237.014 98.658C234.727 98.658 233.087 98.55 232.94 98.5402L233.254 94.0237C233.352 94.0237 243.72 94.7012 249.052 92.5509C253.293 90.8229 257.977 78.8935 260.048 68.3584C261.364 61.6818 260.647 59.5807 260.098 58.913C259.98 58.7756 259.666 58.3927 258.468 58.3927H254.334C253.136 61.996 251.222 65.619 248.335 65.619H239.999V61.1124H248.001C248.689 60.4251 249.818 57.8919 250.475 55.5355L250.937 53.886H258.468C259.432 53.8287 260.397 53.9957 261.286 54.3739C262.176 54.7521 262.965 55.3311 263.593 56.0657C265.557 58.4319 265.822 62.4968 264.486 69.2518C263.411 74.6898 261.81 80.0102 259.705 85.138C256.985 91.5396 253.971 95.4572 250.75 96.763C246.784 98.3536 240.922 98.658 237.014 98.658Z" fill="#FFBB00"/>
<path opacity="0.2" d="M246.617 61.0898H239.989V65.6161H245.596L246.617 61.0898Z" fill="black"/>
<path opacity="0.2" d="M232.94 98.5476C233.117 98.5476 234.727 98.6654 237.015 98.6654C237.398 98.6654 237.79 98.6654 238.203 98.6654L239.185 94.1293C235.895 94.2275 233.294 94.0606 233.215 94.0508L232.94 98.5476Z" fill="black"/>
<path d="M193.637 98.6577C195.924 98.6577 197.564 98.5497 197.711 98.5399L197.407 94.0234C197.299 94.0234 186.931 94.7009 181.609 92.5507C177.358 90.8226 172.684 78.8932 170.603 68.3581C169.297 61.6816 170.014 59.5804 170.603 58.9128C170.721 58.7753 171.035 58.3924 172.233 58.3924H176.366C177.564 61.9957 179.488 65.6187 182.365 65.6187H190.711V61.1121H182.709C181.554 59.4168 180.712 57.5279 180.225 55.5352L179.763 53.8857H172.233C171.268 53.8292 170.304 53.9965 169.414 54.3747C168.525 54.7528 167.736 55.3315 167.107 56.0654C165.144 58.4317 164.888 62.4965 166.214 69.2515C167.292 74.6898 168.897 80.0103 171.005 85.1378C173.715 91.5394 176.729 95.4569 179.95 96.7628C183.877 98.3533 189.739 98.6577 193.637 98.6577Z" fill="#FFBB00"/>
<path opacity="0.2" d="M184.034 61.0898H190.662V65.6161H185.055L184.034 61.0898Z" fill="black"/>
<path opacity="0.2" d="M197.711 98.5476C197.535 98.5476 195.924 98.6654 193.637 98.6654C193.254 98.6654 192.861 98.6654 192.449 98.6654L191.467 94.1293C194.756 94.2275 197.358 94.0606 197.436 94.0508L197.711 98.5476Z" fill="black"/>
<path d="M238.928 143.796V146.33H191.731V143.796H195.776L198.781 139.476L212.517 134.007V107.203H218.133V134.007L231.869 139.476L234.883 143.796H238.928Z" fill="#FFBB00"/>
<path d="M219.685 110.777H210.966V107.959H219.685V110.777Z" fill="#FFBB00"/>
<path opacity="0.2" d="M219.685 109.762L210.966 109.379V107.965H219.685V109.762Z" fill="black"/>
<path d="M244.211 50.8555C244.211 50.8555 242.002 87.3702 236.249 97.4635C230.495 107.557 218.212 108.411 215.345 108.411C212.478 108.411 200.205 107.547 194.452 97.4635C188.698 87.38 186.489 50.8555 186.489 50.8555H244.211Z" fill="#FFBB00"/>
<path opacity="0.3" d="M219.665 107.999C224.574 107.164 232.065 104.67 236.179 97.4635C241.933 87.3702 244.142 50.8555 244.142 50.8555H238.713C237.966 58.5237 236.503 87.812 232.34 96.3344C228.747 103.787 220.293 107.783 219.665 107.999Z" fill="white"/>
<path opacity="0.2" d="M195.777 143.791H234.884L233.804 142.24L197.809 140.875L195.777 143.791Z" fill="black"/>
<path opacity="0.1" d="M215.325 62.3867L212.222 68.6803L205.29 69.6818L210.308 74.5714L209.12 81.4835L215.325 78.2238L221.53 81.4835L220.342 74.5714L225.369 69.6818L218.428 68.6803L215.325 62.3867Z" fill="black"/>
<path d="M169.591 67.5356C168.295 70.2062 172.183 70.2062 172.183 70.2062C172.183 70.2062 166.587 71.5514 166.292 74.8209C165.998 78.0904 170.73 77.7664 171.074 77.7664C170.779 77.845 165.674 79.2097 165.733 82.5185C165.792 85.8273 170.485 84.9928 170.789 84.9241C170.534 85.0811 167.166 87.2216 167.844 89.7253C168.914 94.0257 177.662 88.8023 181.098 89.8234C181.098 89.8234 180.863 90.8936 180.863 91.0704C180.863 91.0704 188.178 89.2245 189.572 86.5146C190.74 84.2368 187.961 82.98 187.961 82.98C187.961 82.98 190.848 81.7331 190.907 79.1312C190.907 77.7861 188.796 76.5784 188.796 76.5784C189.43 76.2568 189.965 75.7692 190.344 75.1674C190.723 74.5657 190.931 73.8724 190.946 73.1616C190.858 71.3059 188.737 70.383 188.737 70.383C188.737 70.383 190.426 68.3211 189.719 66.4556C188.246 62.7148 172.399 61.8311 169.591 67.5356Z" fill="#AD6359"/>
<path d="M188.846 76.5746C188.905 76.5746 188.924 76.4863 188.846 76.4666C182.932 74.703 176.581 75.1176 170.947 77.635C170.75 77.7332 170.672 78.0081 170.947 77.9197C174.815 76.3881 183.75 75.8382 188.846 76.5746Z" fill="#263238"/>
<path d="M170.505 85.2877C176.042 82.8822 181.786 82.4992 187.746 82.9411C187.824 82.9411 187.824 82.8429 187.746 82.8134C184.889 81.8316 181.059 81.9101 178.084 82.2538C175.32 82.5147 172.673 83.4965 170.406 85.1011C170.338 85.16 170.387 85.3466 170.505 85.2877Z" fill="#263238"/>
<path d="M172.125 70.1523C171.928 70.2211 172.252 70.4371 172.046 70.5156C171.212 70.8396 166.332 73.1961 166.617 75.1008C166.852 76.6325 169.071 77.3885 170.033 77.3394L172.468 77.2216L170.22 78.2034C169.226 78.6251 168.304 79.2017 167.49 79.9118C167.095 80.2208 166.769 80.6095 166.534 81.0528C166.299 81.496 166.16 81.9837 166.126 82.4843C166.104 82.9487 166.241 83.4066 166.514 83.783C166.787 84.1593 167.18 84.4319 167.628 84.556C168.639 84.8157 169.7 84.8157 170.711 84.556L173.519 83.8981L171.084 85.4298C170.41 85.8537 169.793 86.3618 169.248 86.9418C168.708 87.4789 168.337 88.1611 168.178 88.9055C168.123 89.2409 168.163 89.5849 168.293 89.8989C168.423 90.2129 168.638 90.4843 168.914 90.6827C169.597 91.037 170.367 91.1902 171.133 91.1245C172.787 91.0001 174.428 90.7474 176.042 90.3685C176.867 90.2015 177.702 90.0346 178.536 89.907C179.371 89.7255 180.235 89.7255 181.069 89.907C180.232 89.8118 179.384 89.8853 178.575 90.123C177.761 90.3095 176.955 90.5354 176.141 90.7612C174.511 91.264 172.838 91.6124 171.143 91.802C170.222 91.9189 169.288 91.7653 168.453 91.3601C168.025 91.0902 167.685 90.7009 167.476 90.2403C167.266 89.7798 167.196 89.268 167.274 88.7681C167.439 87.8429 167.877 86.9881 168.531 86.3135C169.131 85.6582 169.81 85.0809 170.554 84.5952L170.937 85.4691C169.75 85.8112 168.493 85.8349 167.294 85.5378C166.634 85.3601 166.06 84.9527 165.674 84.389C165.303 83.8275 165.112 83.1668 165.124 82.4941C165.166 81.8619 165.34 81.2456 165.636 80.6856C165.932 80.1255 166.343 79.6343 166.842 79.2442C167.748 78.4701 168.777 77.8529 169.886 77.418L170.073 78.2525C168.845 78.2525 166.273 77.7027 165.605 75.3757C165.232 72.1553 171.045 70.3978 172.125 70.1523Z" fill="#263238"/>
<path d="M172.213 70.1953C171.611 70.0808 171.031 69.872 170.495 69.5768C170.277 69.464 170.093 69.2955 169.962 69.0885C169.831 68.8815 169.757 68.6434 169.748 68.3985C169.815 67.86 170.029 67.3504 170.367 66.9258C170.72 66.4447 171.113 65.9439 171.545 65.4727C170.92 65.689 170.35 66.041 169.876 66.5036C169.596 66.7395 169.365 67.0283 169.197 67.3534C169.028 67.6786 168.925 68.0337 168.894 68.3985C168.909 68.8012 169.042 69.1907 169.277 69.5179C169.52 69.8078 169.835 70.0281 170.19 70.156C170.842 70.391 171.553 70.4048 172.213 70.1953Z" fill="#263238"/>
<path d="M260.069 69.245C260.704 69.1693 261.324 68.9937 261.905 68.7247C262.14 68.6242 262.345 68.4633 262.499 68.2581C262.652 68.0529 262.749 67.8108 262.779 67.5563C262.756 66.9865 262.572 66.4348 262.248 65.9657C261.915 65.4355 261.541 64.8955 261.129 64.3555C261.759 64.6394 262.324 65.0505 262.788 65.5631C263.06 65.8314 263.275 66.151 263.422 66.5033C263.568 66.8556 263.643 67.2336 263.643 67.6152C263.6 68.0362 263.428 68.4338 263.152 68.7541C262.884 69.0409 262.545 69.2511 262.17 69.3629C261.475 69.5518 260.738 69.5105 260.069 69.245Z" fill="#263238"/>
<path d="M112.861 111.643L126.391 92.6447C119.452 87.8314 112.24 83.4253 104.79 79.4487C95.0306 74.5395 88.5014 76.8566 98.1921 91.6039C107.883 106.351 112.861 111.643 112.861 111.643Z" fill="#FFBB00"/>
<path d="M110.396 107.357C114.58 102.125 118.474 96.6674 122.06 91.0095C122.11 90.9506 121.992 90.8819 121.953 90.9506C121.079 92.3252 114.373 100.975 110.278 107.288C110.229 107.357 110.347 107.416 110.396 107.357Z" fill="#263238"/>
<path d="M98.183 91.6015C107.864 106.329 112.911 111.641 112.911 111.641L120.638 100.841L93.7647 78.9062C92.7828 80.9976 93.9021 85.082 98.183 91.6015Z" fill="#263238"/>
<path d="M64.5338 148.123C64.6713 148.27 121.206 146.847 121.706 146.228C122.413 145.374 111.888 90.4888 102.07 78.3435C99.6151 75.2997 91.7309 74.907 88.098 77.8525C70.0714 92.4722 64.0233 147.593 64.5338 148.123Z" fill="#FFBB00"/>
<path opacity="0.1" d="M76.9541 94.4143L109.198 93.4324L108.756 92.1953L77.5236 93.1772C77.2977 93.5601 77.1406 93.9823 76.9541 94.4143ZM75.9133 96.8983L110.022 95.8478C110.15 96.2601 110.288 96.6725 110.425 97.0947L75.4126 98.1747L75.9133 96.8983ZM74.4897 100.659L111.181 99.5297C111.319 99.942 111.446 100.354 111.564 100.777L74.038 101.935C74.1853 101.503 74.3522 101.081 74.4897 100.659ZM73.2034 104.419L112.291 103.221L112.644 104.459L72.8009 105.686C72.9285 105.293 73.066 104.841 73.2034 104.419ZM72.0351 108.17L113.331 106.903C113.449 107.316 113.557 107.728 113.675 108.14L71.662 109.436C71.7896 109.014 71.9074 108.592 72.0351 108.17ZM70.9648 111.921L114.323 110.585L114.647 111.832L70.631 113.148C70.739 112.765 70.8568 112.343 70.9648 111.921ZM69.983 115.671L115.266 114.267C115.364 114.679 115.472 115.102 115.57 115.514L69.6688 116.938C69.7768 116.516 69.8848 116.093 69.9928 115.671H69.983ZM69.0896 119.412L116.218 117.959C116.326 118.371 116.424 118.793 116.512 119.206L68.8441 120.679C68.903 120.256 68.9913 119.834 69.0993 119.412H69.0896ZM68.255 123.153L117.043 121.641L117.337 122.897L67.9899 124.419L68.255 123.153ZM67.4793 126.894L117.867 125.342C117.956 125.764 118.044 126.177 118.142 126.589L67.2339 128.16C67.3419 127.738 67.4204 127.316 67.4793 126.894ZM66.7724 130.634L118.663 129.034C118.761 129.456 118.849 129.869 118.938 130.281L66.5564 131.901C66.6546 131.479 66.7233 131.057 66.8018 130.625L66.7724 130.634ZM66.1342 134.375L119.438 132.726C119.527 133.148 119.605 133.57 119.694 133.973L65.928 135.632L66.1342 134.375ZM65.5549 138.116L120.204 136.417C120.283 136.843 120.361 137.255 120.44 137.655L65.4076 139.353C65.4666 138.951 65.5156 138.528 65.5844 138.106L65.5549 138.116ZM65.0443 141.847L120.862 140.119C120.931 140.561 121.009 140.973 121.068 141.366L64.8872 143.094C64.9658 142.691 65.0149 142.269 65.0738 141.837L65.0443 141.847ZM64.6222 145.568L121.481 143.811C121.54 144.292 121.598 144.714 121.638 145.058L64.5338 146.815C64.5338 146.462 64.6025 146.04 64.6516 145.549L64.6222 145.568Z" fill="black"/>
<path d="M95.5604 74.6587C100.047 74.8354 102.139 76.102 103.533 80.049C104.927 83.996 103.13 88.2081 99.8805 88.807C96.6306 89.406 91.3385 86.8434 88.0198 81.7672C84.7012 76.6911 90.0621 74.4427 95.5604 74.6587Z" fill="#455A64"/>
<path d="M99.2622 85.5991C96.8665 86.0704 91.1816 82.3198 88.6583 78.8146C88.4801 76.6955 88.4112 74.5686 88.4521 72.4425C88.3932 70.4002 88.2754 68.1322 88.0201 66.0703L101.363 67.602C100.945 70.2778 100.856 72.9949 101.098 75.6924C101.138 75.975 101.201 76.254 101.285 76.5269C101.287 76.5727 101.287 76.6186 101.285 76.6644C101.786 78.2451 103.013 84.8628 99.2622 85.5991Z" fill="#AD6359"/>
<path d="M101.284 76.5244C101.286 76.5702 101.286 76.6161 101.284 76.6618C100.849 76.7765 100.406 76.8553 99.9585 76.8975C92.575 77.6437 89.6589 68.8955 88.9422 66.1758L101.323 67.5994C100.904 70.2751 100.812 72.9919 101.048 75.6898C101.105 75.9738 101.183 76.2529 101.284 76.5244Z" fill="#263238"/>
<path d="M85.6143 48.5915C84.2103 53.2258 86.6943 66.5886 89.9933 69.5538C94.7749 73.8641 102.581 74.2568 106.243 68.513C109.787 62.946 106.243 45.587 102.561 42.887C97.1411 38.9203 87.686 41.748 85.6143 48.5915Z" fill="#AD6359"/>
<path d="M97.9173 56.0078C97.9173 56.0078 97.8486 56.0667 97.8584 56.106C98.0646 56.9995 98.1432 58.0697 97.3871 58.5115C97.3871 58.5115 97.3871 58.5704 97.3871 58.5115C98.369 58.2268 98.2512 56.8227 97.9173 56.0078Z" fill="#263238"/>
<path d="M96.9349 55.2228C95.4622 55.3995 95.9531 58.3156 97.2688 58.1683C98.5844 58.0211 98.1622 55.0952 96.9349 55.2228Z" fill="#263238"/>
<path d="M103.238 55.0195C103.238 55.0195 103.317 55.0195 103.317 55.0883C103.425 56.0014 103.71 57.0519 104.574 57.1992V57.2483C103.553 57.2581 103.199 55.8934 103.238 55.0195Z" fill="#263238"/>
<path d="M103.896 53.9446C105.34 53.6108 105.86 56.517 104.564 56.8214C103.268 57.1258 102.699 54.2392 103.896 53.9446Z" fill="#263238"/>
<path d="M95.5706 54.0749C95.9374 53.9046 96.2947 53.7145 96.6408 53.5054C97.0454 53.3583 97.3903 53.0823 97.6227 52.7199C97.6731 52.5906 97.6792 52.4482 97.6401 52.315C97.601 52.1817 97.519 52.0652 97.4067 51.9836C97.1631 51.8563 96.8899 51.7965 96.6154 51.8103C96.3409 51.8241 96.0751 51.911 95.8455 52.0621C95.3299 52.294 94.9199 52.711 94.6968 53.2305C94.6492 53.3515 94.6385 53.4839 94.6661 53.611C94.6937 53.738 94.7583 53.8541 94.8518 53.9444C94.9453 54.0348 95.0635 54.0954 95.1914 54.1186C95.3194 54.1418 95.4513 54.1266 95.5706 54.0749Z" fill="#263238"/>
<path d="M104.741 52.6428C104.328 52.6428 103.945 52.5643 103.533 52.525C103.102 52.5364 102.678 52.4091 102.325 52.1617C102.23 52.0624 102.17 51.9342 102.156 51.7972C102.142 51.6603 102.174 51.5225 102.247 51.4057C102.424 51.194 102.656 51.034 102.917 50.9425C103.178 50.8509 103.458 50.8312 103.729 50.8853C104.294 50.9021 104.832 51.1339 105.231 51.5334C105.32 51.6276 105.38 51.746 105.402 51.8737C105.424 52.0014 105.407 52.1328 105.355 52.2513C105.302 52.3698 105.216 52.4702 105.107 52.5399C104.998 52.6095 104.87 52.6454 104.741 52.6428Z" fill="#263238"/>
<path d="M98.3585 64.5496C98.6137 64.7361 98.869 64.9914 99.2028 64.9718C99.5532 64.9138 99.8876 64.7834 100.185 64.5888C100.185 64.5888 100.244 64.5888 100.234 64.5888C100.132 64.788 99.9772 64.9555 99.7868 65.0732C99.5965 65.1909 99.3775 65.2543 99.1538 65.2565C98.9627 65.2362 98.7817 65.1602 98.6334 65.0381C98.485 64.9159 98.3758 64.7529 98.3192 64.5692C98.2603 64.5594 98.329 64.5299 98.3585 64.5496Z" fill="#263238"/>
<path d="M98.8976 61.6952C99.1821 62.018 99.5306 62.2781 99.9211 62.459C100.312 62.6399 100.735 62.7375 101.166 62.7458C101.542 62.7604 101.919 62.7208 102.285 62.6279L102.491 62.569L102.678 62.5101C102.725 62.495 102.766 62.4647 102.795 62.4239C102.823 62.3831 102.837 62.334 102.835 62.2843C102.839 62.255 102.839 62.2253 102.835 62.1959V62.0978C102.746 61.4006 102.521 60.3501 102.521 60.3501C102.786 60.4384 104.18 60.8214 104.101 60.4581C103.54 57.3301 102.661 54.2674 101.48 51.3171C101.474 51.2998 101.462 51.2848 101.448 51.2742C101.433 51.2635 101.415 51.2578 101.396 51.2578C101.378 51.2578 101.36 51.2635 101.345 51.2742C101.33 51.2848 101.319 51.2998 101.313 51.3171C101.823 54.2627 102.825 57.002 103.375 59.8984C102.881 59.7496 102.368 59.6768 101.853 59.6824C101.765 59.6824 102.334 61.6461 102.354 62.0192C101.791 62.1649 101.204 62.1956 100.629 62.1096C100.053 62.0236 99.5014 61.8225 99.0055 61.5185C98.8975 61.5577 98.8288 61.6265 98.8976 61.6952Z" fill="#263238"/>
<path d="M101.844 62.3337C101.537 62.8871 101.095 63.3534 100.558 63.6887C100.26 63.8581 99.9178 63.9334 99.5762 63.9047C98.83 63.8261 98.7024 63.1683 98.7514 62.5792C98.7809 62.2658 98.8434 61.9564 98.938 61.6562C99.811 62.1831 100.828 62.4203 101.844 62.3337Z" fill="#263238"/>
<path d="M100.529 63.6949C100.231 63.8643 99.8885 63.9396 99.547 63.9109C98.8008 63.8323 98.6731 63.1745 98.7222 62.5854C99.1041 62.5416 99.4895 62.6272 99.817 62.8283C100.145 63.0294 100.395 63.3345 100.529 63.6949Z" fill="#FF9BBC"/>
<path d="M86.2038 58.7738C86.2038 58.7738 82.2764 50.7619 83.1502 46.4124C83.5233 44.4487 86.351 43.3687 86.351 43.3687C86.2203 42.5403 86.3228 41.6918 86.6471 40.9184C86.9714 40.145 87.5046 39.4771 88.1871 38.9897C90.7399 37.026 96.3658 38.0078 96.3658 38.0078C96.3658 38.0078 100.539 33.0397 105.546 35.6318C110.553 38.2238 106.616 43.8105 106.616 43.8105C106.616 43.8105 108.276 46.6971 103.415 48.3761C98.5553 50.055 89.5813 47.1291 89.5813 47.1291C89.7137 50.3639 89.3629 53.6003 88.5405 56.7315C88.3797 57.2557 88.0758 57.7246 87.6629 58.0854C87.2501 58.4462 86.7447 58.6846 86.2038 58.7738Z" fill="#263238"/>
<path d="M97.2595 38.1627C96.1385 37.5914 94.912 37.2572 93.6562 37.1808C92.5364 37.0627 91.4048 37.1324 90.3081 37.387C89.3296 37.5713 88.4193 38.0174 87.6742 38.6778C86.929 39.3383 86.3768 40.1884 86.0763 41.1376C85.9524 41.6345 85.9294 42.1512 86.0086 42.6572C86.0879 43.1631 86.2678 43.648 86.5378 44.0832C86.5378 44.0832 86.6164 44.0832 86.5378 44.0832C85.4774 42.4828 86.3218 40.2245 87.6865 39.0954C89.3269 37.9078 91.3472 37.366 93.3616 37.5736C94.6544 37.675 95.9302 37.9321 97.1613 38.3394C97.289 38.2903 97.3282 38.1921 97.2595 38.1627Z" fill="#263238"/>
<path d="M104.515 48.7342C102.362 49.3803 100.096 49.5611 97.8677 49.2644C95.5488 48.9815 93.2675 48.4482 91.0635 47.6738C89.7773 47.2319 88.5107 46.7508 87.2442 46.2305C87.2442 46.2305 87.1853 46.2796 87.2442 46.2992C89.4272 47.4853 91.7314 48.4333 94.1171 49.1269C96.3284 49.7651 98.6437 49.9619 100.931 49.7062C102.181 49.5462 103.407 49.2363 104.583 48.7833C104.583 48.7833 104.544 48.7243 104.515 48.7342Z" fill="#263238"/>
<path d="M88.5013 59.4682C88.5013 59.4682 85.3791 55.2169 83.4449 56.3362C81.5106 57.4555 83.9161 63.6705 86.2431 64.4756C86.533 64.5992 86.845 64.6628 87.1602 64.6627C87.4754 64.6625 87.7873 64.5986 88.0772 64.4748C88.367 64.351 88.6288 64.1698 88.8468 63.9421C89.0648 63.7145 89.2345 63.4451 89.3457 63.1501L88.5013 59.4682Z" fill="#AD6359"/>
<path d="M84.1706 58.1758C84.1706 58.1758 84.1215 58.2249 84.1706 58.2347C84.9201 58.5856 85.5872 59.0904 86.1286 59.7164C86.6699 60.3423 87.0733 61.0753 87.3125 61.8675C87.2145 61.7053 87.0822 61.5666 86.9248 61.4612C86.7675 61.3557 86.5889 61.286 86.4017 61.2569C86.2145 61.2279 86.0232 61.2403 85.8413 61.2932C85.6594 61.3461 85.4913 61.4382 85.3488 61.5631C85.3488 61.5631 85.3488 61.6515 85.3488 61.6417C85.6301 61.5457 85.9342 61.5394 86.2192 61.6239C86.5042 61.7083 86.7558 61.8792 86.9394 62.113C87.2477 62.5045 87.5111 62.9294 87.7249 63.3795C87.8034 63.517 88.0685 63.4385 88.0096 63.2715C88.098 61.1213 86.3896 58.2838 84.1706 58.1758Z" fill="#263238"/>
<path d="M85.4381 97.3295C87.8338 103.113 101.845 133.501 110.711 138.037C123.917 144.772 144.771 146.922 152.429 147.06C155.767 147.119 158.909 121.885 155.375 121.296C147.844 120.03 124.093 118.302 121.688 117.163C119.282 116.024 104.79 99.0673 96.7686 90.5646C86.0272 79.1556 79.6158 83.2891 85.4381 97.3295Z" fill="#AD6359"/>
<path d="M152.468 147.122C163.435 148.025 180.323 139.267 182.336 137.48C184.054 135.949 184.928 135.134 184.928 135.134C188.07 132.444 188.119 129.979 188.119 129.979C188.119 129.979 192.674 127.937 191.889 124.982C191.025 121.663 184.8 125.188 180.195 124.982C169.631 124.628 154.726 121.172 151.722 120.77L152.468 147.122Z" fill="#AD6359"/>
<path d="M168.865 132.426C171.952 132.57 175.046 132.498 178.124 132.21C181.472 131.695 184.777 130.93 188.011 129.922C188.029 129.921 188.048 129.926 188.063 129.937C188.079 129.947 188.09 129.962 188.097 129.979C188.103 129.997 188.104 130.016 188.099 130.034C188.095 130.051 188.084 130.067 188.07 130.079C182.025 132.693 175.379 133.6 168.855 132.701C168.698 132.671 168.708 132.426 168.865 132.426Z" fill="#263238"/>
<path d="M167.726 138.778C170.75 138.65 176.071 138.395 184.898 135.047C184.898 135.047 184.947 135.047 184.898 135.047C179.654 137.941 173.709 139.321 167.726 139.033C167.559 139.072 167.52 138.788 167.726 138.778Z" fill="#263238"/>
<path d="M167.49 123.792C166.135 123.194 166.439 122.477 168.982 121.829C171.525 121.181 182.168 120.69 181.687 116.988C181.206 113.287 166.213 114.18 162.05 115.614C157.887 117.047 151.466 120.916 151.466 120.916C154.431 121.318 161.736 122.899 167.49 123.792Z" fill="#AD6359"/>
<path d="M94.9713 120.999L112.566 105.643C106.905 99.355 100.882 93.4015 94.5295 87.8128C86.1544 80.773 79.2716 81.5291 85.3002 98.1222C91.3287 114.715 94.9713 120.999 94.9713 120.999Z" fill="#FFBB00"/>
<path d="M93.5283 116.3C98.801 112.172 103.845 107.76 108.639 103.084C108.698 103.025 108.639 102.947 108.55 102.996C107.382 104.135 98.8695 111.008 93.4301 116.202C93.3712 116.261 93.4596 116.349 93.5283 116.3Z" fill="#263238"/>
<path d="M96.4927 119.677C95.9509 120.081 95.442 120.528 94.9709 121.012C93.4785 117.812 92.1628 114.571 90.8471 111.292C90.1795 109.633 89.5216 107.964 88.8835 106.304C88.2453 104.645 87.6169 102.878 86.7922 101.258C86.7922 101.258 86.6939 101.258 86.7038 101.258C87.0827 102.791 87.5548 104.299 88.1176 105.774L87.9998 105.588C87.558 104.93 87.126 104.272 86.7332 103.624C86.6841 103.536 86.5565 103.624 86.6056 103.683C86.9492 104.409 87.3027 105.146 87.7053 105.833C87.8929 106.174 88.1028 106.502 88.3336 106.815L88.5496 107.07C89.07 108.572 89.6198 110.016 90.2089 111.538C90.8668 113.197 91.5835 114.837 92.3297 116.447C93.0822 118.133 93.9346 119.772 94.8825 121.356C95.5086 120.901 96.0758 120.37 96.5713 119.775C96.5517 119.726 96.5418 119.657 96.4927 119.677Z" fill="#263238"/>
<path d="M112.645 105.692C110.75 103.473 108.786 101.146 106.754 99.0748C106.037 98.358 105.291 97.6609 104.555 96.9638C103.916 96.0409 103.16 95.1965 102.453 94.3325C102.44 94.3181 102.422 94.3096 102.403 94.3087C102.384 94.3077 102.365 94.3145 102.35 94.3275C102.336 94.3406 102.328 94.3587 102.327 94.3781C102.326 94.3974 102.332 94.4163 102.346 94.4306L103.484 95.9427C102.457 95.0001 101.413 94.0739 100.352 93.1641C100.352 93.1641 100.264 93.1641 100.293 93.2132C102.355 95.2456 104.378 97.3271 106.391 99.4086C108.403 101.49 110.485 103.522 112.439 105.663C112.439 105.663 111.329 106.645 111.378 106.645C111.823 106.358 112.246 106.04 112.645 105.692Z" fill="#263238"/>
<path d="M217.206 26.7043C216.861 23.5317 216.698 20.3421 216.715 17.151C216.698 13.9598 216.862 10.7702 217.206 7.59766C217.56 10.7694 217.724 13.9596 217.697 17.151C217.724 20.3424 217.561 23.5325 217.206 26.7043Z" fill="#263238"/>
<path d="M197.785 32.337C195.892 29.766 194.154 27.084 192.581 24.3055C190.965 21.5565 189.512 18.714 188.232 15.793C191.97 20.9689 195.171 26.5122 197.785 32.337Z" fill="#263238"/>
<path d="M183.754 46.9146C180.831 45.6323 177.986 44.1799 175.232 42.565C172.459 40.9919 169.781 39.2576 167.21 37.3711C170.132 38.6495 172.975 40.102 175.723 41.7207C178.498 43.296 181.179 45.0302 183.754 46.9146Z" fill="#263238"/>
<path d="M251.483 45.5865C254.053 43.6999 256.731 41.9656 259.505 40.3925C262.256 38.7738 265.102 37.3213 268.027 36.043C265.453 37.9296 262.772 39.6638 259.995 41.2369C257.245 42.8518 254.403 44.3041 251.483 45.5865Z" fill="#263238"/>
<path d="M236.843 31.5443C238.132 28.6271 239.584 25.785 241.193 23.0317C242.773 20.2575 244.51 17.5759 246.397 15.0002C245.114 17.9235 243.662 20.7691 242.047 23.5226C240.471 26.2958 238.733 28.9743 236.843 31.5443Z" fill="#263238"/>
<path d="M262.22 117.117L258.734 117.755L257.958 121.427L257.183 117.755L253.697 117.117L257.173 116.263L257.958 112.797L258.754 116.263L262.22 117.117Z" fill="#FFC727"/>
<path d="M222.798 0.0444145L219.322 0.692426L218.537 4.3547L217.761 0.692426L214.286 0.0444145L217.752 -0.79997L218.537 -4.26587L219.332 -0.79997L222.798 0.0444145Z" fill="#FFC727"/>
<path d="M193.412 86.2224L189.937 86.8606L189.161 90.5327L188.385 86.8606L184.9 86.2126L188.366 85.3682L189.161 81.9023L189.947 85.3682L193.412 86.2224Z" fill="#FFBB00"/>
<path d="M279.224 61.1013L275.748 61.7396L274.973 65.4116L274.187 61.7396L270.711 61.1013L274.177 60.2471L274.973 56.7812L275.758 60.2471L279.224 61.1013Z" fill="#FFC727"/>
<path d="M222.965 112.626L221.021 112.98L220.579 115.032L220.147 112.98L218.203 112.626L220.137 112.145L220.579 110.211L221.021 112.145L222.965 112.626Z" fill="#FFBB00"/>
<path d="M254.306 2.61645L252.362 2.97973L251.93 5.03177L251.488 2.97973L249.544 2.61645L251.488 2.14517L251.93 0.210938L252.372 2.14517L254.306 2.61645Z" fill="#FFC727"/>
<path d="M276.438 86.2219L274.494 86.5852L274.062 88.6373L273.62 86.5852L271.676 86.2219L273.61 85.7506L274.062 83.8164L274.503 85.7506L276.438 86.2219Z" fill="#FFC727"/>
<path d="M180.648 101.854L178.704 102.218L178.262 104.27L177.83 102.218L175.886 101.854L177.82 101.383L178.262 99.449L178.704 101.383L180.648 101.854Z" fill="#FFBB00"/>
<path d="M191.232 44.3685L189.288 44.7317L188.846 46.774L188.414 44.7317L186.47 44.3685L188.404 43.8972L188.846 41.9531L189.288 43.8972L191.232 44.3685Z" fill="#FFBB00"/>
<path d="M268.424 95.3906C268.287 95.4087 268.161 95.476 268.07 95.5798C267.979 95.6837 267.929 95.8171 267.929 95.9552C267.929 96.0933 267.979 96.2267 268.07 96.3306C268.161 96.4344 268.287 96.5017 268.424 96.5198C268.56 96.5017 268.686 96.4344 268.777 96.3306C268.868 96.2267 268.918 96.0933 268.918 95.9552C268.918 95.8171 268.868 95.6837 268.777 95.5798C268.686 95.476 268.56 95.4087 268.424 95.3906Z" fill="#FFC727"/>
<path d="M176.523 11.4492C176.386 11.4673 176.261 11.5345 176.17 11.6384C176.079 11.7423 176.028 11.8757 176.028 12.0138C176.028 12.1519 176.079 12.2853 176.17 12.3891C176.261 12.493 176.386 12.5602 176.523 12.5783C176.66 12.5602 176.786 12.493 176.877 12.3891C176.968 12.2853 177.018 12.1519 177.018 12.0138C177.018 11.8757 176.968 11.7423 176.877 11.6384C176.786 11.5345 176.66 11.4673 176.523 11.4492Z" fill="#FFC727"/>
<path d="M173.097 83.2734C172.96 83.2915 172.834 83.3588 172.743 83.4626C172.652 83.5665 172.602 83.6999 172.602 83.838C172.602 83.9761 172.652 84.1095 172.743 84.2134C172.834 84.3172 172.96 84.3845 173.097 84.4025C173.234 84.3845 173.36 84.3172 173.451 84.2134C173.542 84.1095 173.592 83.9761 173.592 83.838C173.592 83.6999 173.542 83.5665 173.451 83.4626C173.36 83.3588 173.234 83.2915 173.097 83.2734Z" fill="#FFBB00"/>
<path d="M166.706 55.9883C166.611 56.0032 166.525 56.0515 166.462 56.1244C166.4 56.1973 166.366 56.29 166.366 56.3859C166.366 56.4818 166.4 56.5746 166.462 56.6475C166.525 56.7204 166.611 56.7686 166.706 56.7836C166.8 56.7686 166.887 56.7204 166.949 56.6475C167.011 56.5746 167.045 56.4818 167.045 56.3859C167.045 56.29 167.011 56.1973 166.949 56.1244C166.887 56.0515 166.8 56.0032 166.706 55.9883Z" fill="#FFBB00"/>
<path d="M230.359 108.012C230.252 108.012 230.15 108.054 230.074 108.13C229.999 108.205 229.957 108.308 229.957 108.414C229.957 108.521 229.999 108.623 230.074 108.699C230.15 108.774 230.252 108.817 230.359 108.817C230.466 108.817 230.568 108.774 230.644 108.699C230.719 108.623 230.762 108.521 230.762 108.414C230.762 108.308 230.719 108.205 230.644 108.13C230.568 108.054 230.466 108.012 230.359 108.012Z" fill="#FFBB00"/>
<path d="M199.42 125.312C199.326 125.327 199.239 125.376 199.177 125.449C199.115 125.521 199.081 125.614 199.081 125.71C199.081 125.806 199.115 125.899 199.177 125.972C199.239 126.045 199.326 126.093 199.42 126.108C199.515 126.093 199.601 126.045 199.664 125.972C199.726 125.899 199.76 125.806 199.76 125.71C199.76 125.614 199.726 125.521 199.664 125.449C199.601 125.376 199.515 125.327 199.42 125.312Z" fill="#FFBB00"/>
<path d="M256.416 100.949C256.146 100.975 255.896 101.1 255.713 101.301C255.531 101.502 255.43 101.763 255.43 102.034C255.43 102.305 255.531 102.567 255.713 102.767C255.896 102.968 256.146 103.093 256.416 103.119C256.686 103.093 256.937 102.968 257.119 102.767C257.302 102.567 257.403 102.305 257.403 102.034C257.403 101.763 257.302 101.502 257.119 101.301C256.937 101.1 256.686 100.975 256.416 100.949Z" fill="#FFC727"/>
<path d="M204.526 121.629C204.24 121.629 203.965 121.743 203.763 121.945C203.56 122.148 203.446 122.422 203.446 122.709C203.446 122.995 203.56 123.27 203.763 123.473C203.965 123.675 204.24 123.789 204.526 123.789C204.813 123.789 205.087 123.675 205.29 123.473C205.493 123.27 205.606 122.995 205.606 122.709C205.606 122.422 205.493 122.148 205.29 121.945C205.087 121.743 204.813 121.629 204.526 121.629Z" fill="#FFBB00"/>
</g>
<defs>
<clipPath id="clip0_1_1284">
<rect width="271.984" height="353" fill="white"/>
</clipPath>
</defs>
</svg>
