<svg width="510" height="285" viewBox="0 0 510 285" fill="none" xmlns="http://www.w3.org/2000/svg">
<path d="M0.315918 268.047L64.0199 267.768L127.724 267.663L255.132 267.477L382.54 267.663L446.244 267.768L509.948 268.047L446.244 268.337L382.54 268.442L255.132 268.628L127.724 268.442L64.0199 268.337L0.315918 268.047Z" fill="#263238"/>
<path d="M124.34 124.867C134.568 169.37 155.721 222.718 164.752 231.377C176.177 242.326 251.76 262.41 255.525 262.817C264.824 263.758 283.571 196.567 273.622 195.114C258.513 192.929 203.467 189.942 200.178 186.56C196.889 183.178 173.527 153.726 149.654 120.636C133.173 97.7743 117.982 97.2513 124.34 124.867Z" fill="#EB996E"/>
<path d="M248.041 259.18C249.145 259.737 264.94 267.687 274.703 270.512C281.991 272.627 303.121 278.148 306.247 270.349C308.386 265.049 296.333 260.342 287.895 256.82C283.443 254.96 277.958 250.311 279.271 247.452C281.595 242.454 293.021 247.452 300.552 251.846C315.115 260.307 334.514 275.544 343.405 268.117C346.764 265.328 342.859 260.237 337.152 255.251C346.45 261.062 356.306 265.828 360.153 262.876C362.373 261.19 362.478 258.877 361.246 256.251C364.105 257.18 366.627 256.994 368.394 255.088C371.404 251.927 369.94 247.278 366.639 242.501C367.205 242.442 367.75 242.249 368.227 241.938C368.704 241.627 369.1 241.206 369.382 240.711C375.762 230.983 343.812 203.054 332.782 200.438C300.296 192.709 266.056 194.151 266.056 194.151C253.294 204.39 248.006 259.156 248.041 259.18Z" fill="#EB996E"/>
<path d="M295.809 229.28C303.544 230.488 310.933 233.329 317.485 237.613C325.726 243.053 331.189 249.422 338.092 255.826C338.12 255.862 338.134 255.907 338.132 255.952C338.13 255.998 338.113 256.041 338.083 256.075C338.053 256.11 338.012 256.132 337.967 256.14C337.922 256.147 337.876 256.139 337.837 256.117C334.547 253.071 320.902 241.611 317.381 239.008C311.011 234.215 303.634 230.932 295.809 229.408C295.704 229.396 295.728 229.256 295.809 229.28Z" fill="#263238"/>
<path d="M301.865 215.482C310.408 217.807 319.16 220.131 327.087 224.222C335.757 228.639 342.545 235.845 349.17 242.819C353.184 246.98 357.1 251.241 360.92 255.604C361.071 255.79 360.827 256.08 360.665 255.894C353.892 248.735 346.919 241.761 339.744 234.973C333.103 228.67 325.282 223.741 316.731 220.468C311.849 218.597 306.828 217.121 301.807 215.633C301.738 215.61 301.772 215.459 301.865 215.482Z" fill="#263238"/>
<path d="M310.99 203.431C319.289 205.139 326.53 206.592 333.875 211.032C343.603 216.924 352.995 226.839 356.284 230.36C359.922 234.242 363.432 238.24 366.872 242.297C367.012 242.459 366.733 242.715 366.582 242.552C358.697 233.659 350.245 225.284 341.279 217.482C337.061 213.705 332.286 210.6 327.122 208.277C321.888 206.222 316.487 204.62 310.979 203.489C310.979 203.489 310.92 203.419 310.99 203.431Z" fill="#263238"/>
<path d="M260.824 191.491L237.579 265.132C237.579 265.132 174.642 247.164 163.193 234.762C151.745 222.361 130.464 158.32 124.223 127.276C117.981 96.2314 133.672 97.0565 148.096 116.571C162.519 136.086 198.434 183.576 200.398 184.61C202.362 185.645 260.824 191.491 260.824 191.491Z" fill="#3C64B1"/>
<path opacity="0.1" d="M260.824 191.491L237.579 265.132C237.579 265.132 174.642 247.164 163.193 234.762C151.745 222.361 130.464 158.32 124.223 127.276C117.981 96.2314 133.672 97.0565 148.096 116.571C162.519 136.086 198.434 183.576 200.398 184.61C202.362 185.645 260.824 191.491 260.824 191.491Z" fill="black"/>
<path d="M231.537 232.406C234.362 223.724 237.244 215.065 239.731 206.278C241.149 201.292 242.591 196.294 243.962 191.297C244.02 191.099 243.706 190.994 243.637 191.18C240.464 199.781 237.302 208.417 234.525 217.157C231.747 225.897 228.922 234.591 226.272 243.273C224.773 248.248 223.413 253.246 222.216 258.301C222.216 258.394 222.356 258.453 222.39 258.36C225.854 249.863 228.702 241.146 231.537 232.406Z" fill="#263238"/>
<path d="M205.838 255L203.048 254.024C197.806 252.153 192.46 250.142 187.427 248.085C186.776 247.829 186.137 247.562 185.51 247.294C184.498 246.876 183.487 246.446 182.511 246.016L181.046 245.376L180.523 245.144L179.012 244.447C177.013 243.528 175.119 242.61 173.352 241.68L172.19 241.03C169.428 239.609 166.826 237.899 164.426 235.927C164.205 235.73 163.984 235.532 163.787 235.334C163.589 235.137 163.38 234.939 163.206 234.753C151.699 222.352 130.476 158.311 124.235 127.267L124.025 126.197V125.965C123.607 123.64 123.235 120.688 122.933 117.527C122.061 102.08 129.372 99.5581 138.403 106.346C160.916 154.661 195.4 234.498 205.838 255Z" fill="#263238"/>
<path d="M173.191 267.37L36.0435 268.091C36.1597 265.138 55.6858 178.782 71.2137 146.912C91.1234 106.047 101.433 102.746 107.511 100.561C115.357 97.7484 129.327 99.1431 132.64 100.712C136.405 102.467 148.377 123.365 152.666 138.695C161.243 169.53 175.121 265.487 173.191 267.37Z" fill="#EBEBEB"/>
<path d="M100.479 103.797C100.479 103.797 117.913 168.361 118.785 172.65C120.098 178.879 128.792 267.77 128.792 267.77L33.1951 268.095C33.1951 268.095 54.0578 185.807 69.5857 149.776C86.5316 110.259 100.479 103.797 100.479 103.797Z" fill="#3C64B1"/>
<g opacity="0.1">
<path d="M100.482 103.793C100.482 103.793 117.916 168.357 118.788 172.646C120.101 178.876 128.795 267.766 128.795 267.766L33.1985 268.091C33.1985 268.091 54.0612 185.803 69.5892 149.772C86.535 110.255 100.482 103.793 100.482 103.793Z" fill="black"/>
</g>
<path d="M133.896 101.708C134.407 103.765 150.481 156.218 151.597 169.293C152.841 183.799 163.836 268.086 163.836 268.086H177.783C177.783 268.086 157.594 146.99 152.05 134.193C140.707 108.077 133.896 101.708 133.896 101.708Z" fill="#3C64B1"/>
<path opacity="0.1" d="M133.896 101.708C134.407 103.765 150.481 156.218 151.597 169.293C152.841 183.799 163.836 268.086 163.836 268.086H177.783C177.783 268.086 157.594 146.99 152.05 134.193C140.707 108.077 133.896 101.708 133.896 101.708Z" fill="black"/>
<path d="M82.4288 118.903C59.4624 143.508 3.62692 236.862 21.3399 253.889C39.0529 270.916 137.393 247.996 165.008 234.828C173.225 230.923 142.007 179.69 132.348 178.493C124.305 177.505 83.2075 196.299 82.0104 193.939C80.6738 191.266 87.2057 171.542 97.1199 135.826C108.499 94.6582 92.587 108.024 82.4288 118.903Z" fill="#EB996E"/>
<path d="M173.167 161.959C193.135 159.17 198.737 161.529 214.3 150.232C224.539 142.816 233.675 146.175 227.829 157.949C218.275 177.22 193.263 186.216 183.662 186.843L173.167 161.959Z" fill="#EB996E"/>
<path d="M120.123 181.153C120.123 181.153 142.566 168.693 163.557 163.626C178.062 160.139 210.489 156.013 241.522 188.033C248.879 195.623 253.981 211.662 237.465 203.631C225.726 197.924 220.031 190.765 212.581 188.684C212.581 188.684 216.649 209.849 208.757 216.927C201.86 223.113 194.531 228.799 186.825 233.943C185.558 232.751 184.37 231.477 183.269 230.131C183.269 230.131 175.272 236.047 160.232 234.605L120.123 181.153Z" fill="#EB996E"/>
<path d="M177.944 162.562C184.917 166.177 199.457 174.092 209.127 184.715C219.878 196.524 237.394 222.14 228.595 230.044C222.156 235.797 214.648 226.557 214.648 226.557C214.648 226.557 219.658 238.679 212.696 242.596C206.361 246.176 200.945 238.714 200.945 238.714C200.945 238.714 202.723 246.583 195.947 248.849C187.811 251.569 185.417 234.623 174.782 230.253C172.353 229.207 177.944 162.562 177.944 162.562Z" fill="#EB996E"/>
<path d="M194.773 193.947C200.736 198.422 211.685 212.055 214.706 226.177C214.776 226.502 214.579 226.723 214.451 226.444C209.2 214.886 202.566 204.009 194.692 194.052C194.599 193.947 194.692 193.947 194.773 193.947Z" fill="#263238"/>
<path d="M183.175 205.134C187.929 209.527 198.587 224.079 201.156 238.503C201.214 238.828 200.993 239.037 200.888 238.747C196.234 226.936 190.257 215.691 183.071 205.227C183.001 205.157 183.071 205.076 183.175 205.134Z" fill="#263238"/>
<path d="M212.583 188.535C219.092 190.453 223.323 193.649 228.855 197.461C231.548 199.385 234.346 201.159 237.235 202.773C239.885 204.202 243.802 206.364 246.614 204.121C248.195 202.877 248.172 200.634 247.777 198.809C246.982 196.168 245.774 193.669 244.197 191.406C244.197 191.313 244.278 191.208 244.348 191.29C245.87 193.352 247.179 195.564 248.253 197.891C248.957 199.486 249.164 201.256 248.846 202.97C247.881 206.55 243.651 207.027 240.71 206.039C238.928 205.384 237.215 204.555 235.596 203.563C234.015 202.657 232.481 201.68 230.947 200.657C227.855 198.565 224.892 196.299 221.823 194.172C218.842 192.171 215.737 190.362 212.525 188.756C212.501 188.744 212.481 188.724 212.47 188.7C212.458 188.675 212.456 188.648 212.463 188.621C212.47 188.595 212.485 188.572 212.507 188.556C212.529 188.541 212.556 188.533 212.583 188.535Z" fill="#263238"/>
<path d="M226.211 211.434C224.526 207.726 215.402 192.268 212.45 188.688C212.439 188.67 212.435 188.649 212.437 188.628C212.44 188.608 212.449 188.588 212.464 188.574C212.479 188.559 212.498 188.549 212.519 188.547C212.539 188.545 212.56 188.549 212.578 188.56C217.657 193.372 225.805 206.145 227.688 210.236C229.57 214.328 231.732 219.453 231.732 223.951C231.732 230.75 227.223 232.087 225.561 232.378C223.572 232.738 221.519 232.401 219.749 231.425C217.679 230.16 215.89 228.482 214.496 226.497C214.426 226.404 214.554 226.276 214.635 226.369C216.96 229.054 220.912 231.692 224.596 231.204C225.413 231.127 226.207 230.886 226.929 230.497C227.652 230.108 228.289 229.577 228.803 228.937C229.81 227.302 230.198 225.36 229.896 223.463C229.352 219.275 228.107 215.208 226.211 211.434Z" fill="#263238"/>
<path d="M120.122 181.157L151.597 247.407C151.597 247.407 28.489 275.045 17.8659 253.613C7.24274 232.181 55.0585 148.311 76.5954 123.881C101.573 95.5677 104.757 105.203 99.2596 130.296C93.4483 156.564 82.3718 194.547 82.3718 194.547L120.122 181.157Z" fill="#3C64B1"/>
<path opacity="0.1" d="M120.122 181.157L151.597 247.407C151.597 247.407 28.489 275.045 17.8659 253.613C7.24274 232.181 55.0585 148.311 76.5954 123.881C101.573 95.5677 104.757 105.203 99.2596 130.296C93.4483 156.564 82.3718 194.547 82.3718 194.547L120.122 181.157Z" fill="black"/>
<path d="M44.957 212.184C56.3123 204.298 68.7814 198.152 81.952 193.948C85.6829 192.786 89.4487 191.682 93.2144 190.601C93.3307 190.601 93.3772 190.752 93.2144 190.787C86.6465 192.912 80.2082 195.419 73.9324 198.295C67.6639 201.084 61.4651 203.986 55.3361 207C51.8493 208.709 48.4554 210.58 45.0384 212.405C45.0154 212.4 44.9941 212.389 44.9764 212.374C44.9587 212.359 44.9452 212.339 44.9371 212.317C44.929 212.295 44.9265 212.271 44.93 212.248C44.9335 212.225 44.9428 212.203 44.957 212.184Z" fill="#263238"/>
<path d="M119.795 180.972C119.179 181.135 85.5079 192.258 84.4037 192.769C84.5432 192.258 90.587 174.359 91.4935 171.732C91.5749 171.477 91.6563 171.209 91.7492 170.954C92.3536 169.791 92.9813 168.629 93.5508 167.467C94.2714 165.944 94.992 164.398 95.701 162.818H95.6312L93.3067 167.316C92.9464 168.001 92.6093 168.71 92.2723 169.419C92.865 167.571 93.4345 165.712 94.0041 163.84C94.9106 160.877 95.7242 157.878 96.5262 154.879C96.5262 154.775 96.41 154.752 96.3751 154.879C94.5852 160.098 92.6326 165.258 90.8311 170.477C89.0295 175.696 82.1024 194.885 82.1605 194.885C82.2186 194.885 119.237 181.798 119.958 181.507C119.993 181.496 120.025 181.479 120.054 181.456C120.082 181.432 120.105 181.404 120.123 181.371C120.14 181.339 120.151 181.303 120.154 181.267C120.158 181.23 120.154 181.193 120.143 181.158C120.133 181.123 120.115 181.091 120.092 181.062C120.069 181.034 120.04 181.01 120.008 180.993C119.975 180.976 119.94 180.965 119.903 180.962C119.867 180.958 119.83 180.962 119.795 180.972Z" fill="#263238"/>
<path d="M122.062 224.156C118.575 216.776 115.193 209.349 111.462 202.073C109.335 197.947 107.231 193.81 105.069 189.707C104.988 189.556 104.709 189.707 104.779 189.835C107.964 197.389 111.171 204.944 114.705 212.371C118.238 219.798 121.678 227.132 125.27 234.454C127.315 238.615 129.489 242.71 131.79 246.739C131.79 246.821 131.976 246.739 131.941 246.739C129.012 239.045 125.56 231.618 122.062 224.156Z" fill="#263238"/>
<path d="M153.189 248.425C151.957 246.379 150.4 243.45 149.086 241.451C148.738 240.928 148.331 241.033 148.61 241.579C149.551 243.439 150.33 245.519 151.248 247.391C149.528 247.739 147.761 248.041 146.064 248.402C144.065 248.82 142.078 249.25 140.079 249.657C136.158 250.432 132.237 251.207 128.317 251.982C120.367 253.462 112.386 254.763 104.374 255.887C88.3231 258.237 72.1614 259.754 55.9537 260.431C51.4208 260.594 46.8763 260.675 42.3435 260.617C37.8722 260.629 33.4032 260.411 28.9542 259.966C28.8263 259.966 28.8031 260.164 28.9542 260.187C32.7825 260.996 36.6689 261.501 40.5768 261.698C44.6797 261.896 48.7941 261.989 52.9085 261.942C61.0444 261.849 69.2617 261.315 77.4092 260.571C93.5647 259.083 109.674 256.898 125.643 254.074C130.122 253.299 134.589 252.458 139.044 251.552C141.299 251.098 143.542 250.645 145.785 250.145C148.029 249.645 153.398 248.774 153.189 248.425Z" fill="#263238"/>
<path d="M133.918 125.81C125.782 128.053 111.219 116.023 105.268 106.051C104.861 105.365 105.663 97.9732 106.209 88.9424C106.523 83.4681 106.732 77.3197 106.523 71.764C106.523 70.6018 141.891 78.9934 141.891 78.9934C141.891 78.9934 138.869 90.8253 139.288 100.565C139.325 101.348 139.434 102.126 139.613 102.89C139.645 103.012 139.668 103.136 139.683 103.262C140.555 107.574 141.787 123.636 133.918 125.81Z" fill="#EB996E"/>
<path d="M108.685 71.8909C110.661 81.282 117.379 103.888 136.091 103.621C137.291 103.609 138.489 103.5 139.671 103.295C139.686 103.168 139.686 103.039 139.671 102.912C139.499 102.147 139.386 101.37 139.334 100.587C138.927 90.8359 141.938 78.9923 141.938 78.9923C141.938 78.9923 116.344 72.9485 108.685 71.8909Z" fill="#263238"/>
<path d="M146.111 54.9945C145.716 63.572 151.504 70.8013 159.036 71.15C166.567 71.4987 172.983 64.804 173.366 56.2265C173.75 47.6489 167.962 40.4196 160.442 40.0825C152.922 39.7455 146.495 46.4169 146.111 54.9945Z" fill="#455A64"/>
<path d="M171.984 56.6941C172.415 47.1523 165.976 39.1101 157.602 38.7312C149.227 38.3524 142.088 45.7804 141.656 55.3222C141.225 64.864 147.664 72.9062 156.038 73.2851C164.413 73.6639 171.552 66.2358 171.984 56.6941Z" fill="#C7C7C7"/>
<path d="M111.138 27.248C105.048 38.7312 104.665 75.2381 111.824 84.792C122.203 98.623 142.601 103.702 155.177 90.4871C167.416 77.6324 167.067 30.0491 158.757 21.0182C146.541 7.687 120.134 10.2905 111.138 27.248Z" fill="#EB996E"/>
<path d="M141.494 55.4777C141.494 55.3847 141.297 55.6055 141.308 55.7101C141.436 58.1625 141.18 60.9984 138.984 61.8585C138.914 61.8585 138.925 62.0096 138.984 61.998C141.703 61.5563 142.005 57.7906 141.494 55.4777Z" fill="#263238"/>
<path d="M139.24 52.9652C135.277 52.756 135.149 60.6943 138.81 60.8803C142.471 61.0662 142.564 53.1396 139.24 52.9652Z" fill="#263238"/>
<path d="M155.259 55.7773C155.259 55.6843 155.445 55.9051 155.445 55.9981C155.329 58.4621 155.608 61.298 157.77 62.1465C157.84 62.1465 157.77 62.2976 157.77 62.286C155.085 61.8559 154.748 58.0902 155.259 55.7773Z" fill="#263238"/>
<path d="M157.499 53.2975C161.451 53.0534 161.637 60.9917 157.964 61.2126C154.291 61.4334 154.175 53.437 157.499 53.2975Z" fill="#263238"/>
<path d="M135.686 46.6334C136.848 46.5753 137.813 46.3312 138.917 46.1685C140.082 46.1462 141.206 45.7373 142.113 45.0062C142.357 44.7263 142.5 44.3735 142.521 44.0033C142.542 43.633 142.44 43.2663 142.23 42.9606C141.721 42.4258 141.08 42.0362 140.371 41.8319C139.662 41.6276 138.911 41.616 138.196 41.7984C136.682 41.9188 135.267 42.6031 134.233 43.7161C134.016 43.9829 133.881 44.3064 133.843 44.648C133.806 44.9896 133.867 45.3349 134.02 45.6425C134.173 45.9502 134.412 46.2072 134.707 46.3829C135.003 46.5587 135.342 46.6456 135.686 46.6334Z" fill="#263238"/>
<path d="M161.231 47.4954C160.169 47.262 159.122 46.971 158.092 46.6237C156.949 46.4858 155.883 45.9752 155.059 45.1708C154.85 44.8639 154.75 44.4965 154.773 44.1262C154.796 43.7559 154.942 43.4038 155.187 43.1253C155.755 42.6489 156.44 42.3322 157.171 42.2076C157.902 42.0831 158.653 42.1551 159.348 42.4163C160.834 42.7286 162.151 43.5819 163.044 44.8105C163.218 45.1024 163.305 45.4378 163.295 45.7774C163.286 46.1171 163.18 46.447 162.989 46.7286C162.799 47.0102 162.533 47.2318 162.221 47.3676C161.91 47.5034 161.566 47.5477 161.231 47.4954Z" fill="#263238"/>
<path d="M137.011 78.2666C137.592 78.8478 138.173 79.6497 139.056 79.7427C139.97 79.7345 140.873 79.5367 141.706 79.1616C141.723 79.158 141.74 79.1592 141.756 79.1648C141.773 79.1705 141.787 79.1805 141.798 79.1937C141.808 79.2069 141.815 79.2228 141.818 79.2397C141.82 79.2566 141.818 79.2737 141.811 79.2894C141.455 79.7693 140.974 80.143 140.421 80.3703C139.868 80.5976 139.264 80.67 138.673 80.5795C138.173 80.4397 137.726 80.1556 137.387 79.7628C137.048 79.37 136.832 78.886 136.767 78.3712C136.732 78.2318 136.918 78.1737 137.011 78.2666Z" fill="#263238"/>
<path d="M139.718 70.9503C140.325 71.9327 141.129 72.7787 142.079 73.4349C143.029 74.091 144.105 74.5431 145.239 74.7626C146.228 74.9736 147.242 75.0401 148.249 74.9602C148.444 74.953 148.638 74.9336 148.83 74.9021L149.365 74.8207C149.497 74.799 149.618 74.7351 149.71 74.6387C149.802 74.5423 149.861 74.4185 149.876 74.2861C149.882 74.2009 149.882 74.1155 149.876 74.0303V73.8096C149.958 71.9151 149.876 69.0326 149.876 69.0326C150.562 69.3929 154.072 71.0433 154.026 70.0554C153.677 61.8498 153.282 52.7376 151.201 44.6598C151.19 44.6085 151.161 44.5626 151.12 44.5297C151.079 44.4969 151.028 44.479 150.975 44.479C150.922 44.479 150.871 44.4969 150.83 44.5297C150.789 44.5626 150.76 44.6085 150.748 44.6598C150.748 52.5516 152.189 60.3853 152.34 68.312C151.096 67.7101 149.774 67.2837 148.412 67.0451C148.145 67.1265 148.772 72.6124 148.668 73.4608C148.67 73.4918 148.67 73.5229 148.668 73.5539C145.471 73.9025 143.089 72.903 140.044 70.7179C139.765 70.5901 139.567 70.7411 139.718 70.9503Z" fill="#263238"/>
<path d="M147.146 73.9788C146.089 75.3166 144.703 76.3577 143.124 77.0007C142.253 77.3232 141.302 77.3679 140.404 77.1285C138.452 76.5706 138.429 74.804 138.812 73.2349C139.026 72.4269 139.335 71.6467 139.73 70.9104C141.812 72.6969 144.41 73.7719 147.146 73.9788Z" fill="#263238"/>
<path d="M143.124 76.9989C142.253 77.3215 141.302 77.3661 140.404 77.1267C138.452 76.5688 138.429 74.8022 138.812 73.2332C140.916 73.4889 142.973 74.9533 143.124 76.9989Z" fill="#FF98B9"/>
<path opacity="0.2" d="M106.569 53.0463C108.963 52.6627 114.705 44.5617 117.134 41.3422C119.563 38.1227 120.969 20.863 121.19 16.9346C116.928 19.345 113.437 22.916 111.125 27.2323C108.405 32.3928 106.836 42.5394 106.569 53.0463Z" fill="#263238"/>
<path d="M150.886 31.2307C149.467 32.7874 147.673 33.9558 145.676 34.625C143.678 35.2942 141.543 35.4421 139.472 35.0546C137.359 34.6657 135.381 33.7428 133.725 32.3737C132.069 31.0047 130.791 29.2348 130.011 27.2325C130.011 27.1047 129.779 27.1744 129.825 27.2906C130.454 29.4718 131.666 31.4398 133.332 32.9822C134.997 34.5246 137.052 35.5828 139.275 36.0425C141.483 36.3761 143.741 36.122 145.82 35.3059C147.899 34.4897 149.726 33.1403 151.118 31.3934C151.126 31.3635 151.125 31.3319 151.114 31.3028C151.104 31.2737 151.084 31.2486 151.059 31.2309C151.034 31.2131 151.003 31.2036 150.972 31.2036C150.941 31.2035 150.911 31.213 150.886 31.2307Z" fill="#263238"/>
<path d="M139.08 0.282206C131.908 0.21247 125.214 3.96659 122.436 8.75515C120.893 11.484 120.32 14.6547 120.809 17.7511C120.809 17.879 121.076 17.8557 121.064 17.7511C121.004 15.0223 121.679 12.3275 123.019 9.94928C124.358 7.57105 126.313 5.59695 128.677 4.23392C131.267 2.64711 134.189 1.68267 137.214 1.41645C140.239 1.15024 143.285 1.58952 146.111 2.69973C148.866 3.71919 151.166 5.68952 152.597 8.25538C152.736 8.5227 153.271 8.3716 153.166 8.10428C151.353 3.54818 145.553 0.340319 139.08 0.282206Z" fill="#263238"/>
<path d="M180.163 17.1114C179.1 13.5399 176.812 10.4575 173.701 8.40605C169.389 5.54686 164.402 5.79093 159.474 6.13961C159.447 6.13961 159.42 6.15064 159.401 6.17025C159.381 6.18987 159.37 6.21648 159.37 6.24423C159.37 6.27197 159.381 6.29856 159.401 6.31818C159.42 6.3378 159.447 6.34883 159.474 6.34883C163.682 6.06988 167.971 6.02339 171.76 8.1271C174.914 9.83443 177.378 12.5823 178.733 15.9027C180.023 19.3084 180.04 23.0654 178.78 26.4823C177.52 29.8993 175.068 32.7461 171.876 34.499C170.014 35.4608 167.975 36.0321 165.885 36.178C163.794 36.3239 161.696 36.0413 159.719 35.3475C159.556 35.2893 159.44 35.5102 159.591 35.5799C162.262 36.6326 165.173 36.9213 167.999 36.4135C170.825 35.9057 173.453 34.6216 175.591 32.7049C177.728 30.7881 179.29 28.3144 180.102 25.5604C180.913 22.8065 180.943 19.881 180.186 17.1114H180.163Z" fill="#263238"/>
<path d="M108.546 34.2918C108.546 34.2918 102.2 21.2395 108.151 14.0335C111.522 9.95391 122.191 10.8837 122.191 10.8837C122.191 10.8837 125.852 4.87478 134.779 3.16625C143.705 1.45771 154.235 7.04822 154.235 7.04822C154.235 7.04822 162.906 2.50375 170.693 7.33879C181.56 14.08 179.561 30.9212 168.194 35.9423C160.221 39.4291 149.83 32.1533 149.83 32.1533C148.796 32.2579 138.08 38.1854 130.502 28.5502C130.502 28.5502 123.853 34.0361 118.216 29.8171C117.257 31.4641 115.815 32.7766 114.086 33.577C112.356 34.3774 110.422 34.6269 108.546 34.2918Z" fill="#263238"/>
<path d="M113.115 57.4503C113.115 57.4503 107.083 44.6653 101.4 46.5715C95.716 48.4776 98.8658 66.1673 104.561 69.4914C105.264 69.9682 106.055 70.2979 106.889 70.4609C107.722 70.6238 108.58 70.6166 109.41 70.4396C110.241 70.2627 111.027 69.9197 111.722 69.4311C112.416 68.9426 113.005 68.3187 113.452 67.5969L113.115 57.4503Z" fill="#EB996E"/>
<path d="M102.419 51.615C102.326 51.615 102.279 51.7312 102.419 51.7777C106.394 54.2417 107.963 58.6002 108.823 62.982C107.835 61.1805 106.242 60.0182 103.871 61.1572C103.847 61.1734 103.828 61.1969 103.818 61.2244C103.807 61.2519 103.806 61.282 103.814 61.3104C103.821 61.3387 103.838 61.3639 103.861 61.3823C103.884 61.4007 103.912 61.4114 103.941 61.4129C104.735 61.3053 105.542 61.4452 106.254 61.8133C106.965 62.1815 107.546 62.76 107.916 63.4701C108.519 64.6645 108.994 65.9189 109.334 67.2126C109.474 67.6311 110.194 67.5381 110.124 67.0732C110.13 67.0385 110.13 67.0032 110.124 66.9686C111.101 61.5408 108.183 53.1841 102.419 51.615Z" fill="#263238"/>
<path d="M126.259 83.2106L114.81 78.2709L105.605 66.8109L107.372 65.3813L116.228 76.4113L127.165 81.1301L126.259 83.2106Z" fill="#C7C7C7"/>
<path d="M125.038 81.3826C126.2 78.0469 135.499 79.2789 133.813 84.3232C132.128 89.3674 123.911 84.6951 125.038 81.3826Z" fill="#37474F"/>
<path d="M101.221 46.2196C101.221 46.2196 99.977 27.4721 105.463 17.1628C111.576 5.64471 136.914 -5.31549 154.278 7.06268C154.278 7.06268 126.07 2.01842 112.925 17.988C107.392 24.7059 107.532 46.7426 107.532 46.7426L101.221 46.2196Z" fill="#C7C7C7"/>
<path d="M103.781 73.1449C112.164 73.0615 118.882 65.2512 118.787 55.7002C118.692 46.1491 111.82 38.4741 103.437 38.5575C95.0539 38.6409 88.3353 46.4511 88.4304 56.0022C88.5254 65.5533 95.398 73.2283 103.781 73.1449Z" fill="#C7C7C7"/>
<path d="M114.359 55.2142C114.44 63.8034 108.408 70.8235 100.876 70.8932C93.3448 70.963 87.1615 64.0707 87.0802 55.4815C86.9988 46.8924 93.031 39.8723 100.562 39.8025C108.094 39.7328 114.277 46.625 114.359 55.2142Z" fill="#455A64"/>
<path d="M139.542 102.673L131.348 123.361L105.569 97.3496L98.3394 105.764C98.3394 105.764 123.619 147.153 123.77 145.282L132.196 127.441L144.54 139.772L143.377 108.693L139.542 102.673Z" fill="#EBEBEB"/>
<path d="M144.844 124.379C144.484 119.254 144.274 114.082 143.682 108.979C143.682 108.805 143.379 108.724 143.333 108.979C142.333 113.942 143.809 133.527 143.809 138.234H143.751C143.24 137.699 132.315 127.39 132.21 127.552C130.385 130.388 124.19 143.371 123.772 144.556C119.774 137.978 102.851 112.071 98.0858 105.853C98.0627 105.813 98.0246 105.784 97.9799 105.772C97.9352 105.76 97.8876 105.766 97.8475 105.789C97.8075 105.812 97.7782 105.85 97.7662 105.895C97.7542 105.94 97.7605 105.987 97.7836 106.027C101.27 113.001 123.237 147.183 123.539 147.09C126.801 140.961 129.745 134.669 132.361 128.238C134.209 130.481 145.227 142.127 145.262 141.36C145.423 135.697 145.283 130.028 144.844 124.379Z" fill="#263238"/>
<path d="M273.655 269.507H265.682V274.714H273.655V269.507Z" fill="#455A64"/>
<path d="M283.988 269.153H276.015V274.36H283.988V269.153Z" fill="#455A64"/>
<path d="M294.332 268.795H286.359V274.002H294.332V268.795Z" fill="#455A64"/>
<path d="M304.677 268.464H296.704V273.671H304.677V268.464Z" fill="#455A64"/>
<path d="M315.021 268.133H307.048V273.34H315.021V268.133Z" fill="#455A64"/>
<path d="M325.367 267.791H317.394V272.998H325.367V267.791Z" fill="#455A64"/>
<path d="M335.71 267.437H327.737V272.644H335.71V267.437Z" fill="#455A64"/>
<path d="M346.052 267.075H338.079V272.282H346.052V267.075Z" fill="#455A64"/>
<path d="M356.385 266.744H348.412V271.951H356.385V266.744Z" fill="#455A64"/>
<path d="M358.351 277.697H263.719V271.363L358.351 268.725V277.697Z" fill="#37474F"/>
<path d="M450.703 252.72H294.494L319.332 136.424H475.541L450.703 252.72Z" fill="#455A64"/>
<path d="M456.481 252.72H300.271L325.109 136.424H481.318L456.481 252.72Z" fill="#37474F"/>
<path d="M400.697 194.354C404.935 190.437 405.659 184.327 402.313 180.706C398.967 177.086 392.819 177.326 388.581 181.242C384.343 185.158 383.619 191.268 386.965 194.889C390.31 198.51 396.459 198.27 400.697 194.354Z" fill="#263238"/>
<path d="M412.302 283.096H335.476V277.122L412.302 274.647V283.096Z" fill="#455A64"/>
<path d="M433.19 283.081H391.941L367.091 217.912H408.34L433.19 283.081Z" fill="#455A64"/>
<path d="M439.977 283.081H398.728L373.891 217.912H415.14L439.977 283.081Z" fill="#263238"/>
<path d="M260.801 284.673H181.592C174.84 284.673 184.614 265.426 209.289 258.045C233.964 250.665 268.588 277.455 260.801 284.673Z" fill="#37474F"/>
<path d="M229.723 284.676C229.787 282.483 230.15 280.309 230.804 278.214C231.442 276.102 232.336 274.076 233.466 272.182C234.602 270.278 236.021 268.558 237.673 267.079C239.307 265.596 241.192 264.415 243.24 263.593C242.392 264.29 241.427 264.755 240.648 265.533L239.486 266.568L238.324 267.73C236.855 269.262 235.568 270.959 234.488 272.786C233.392 274.614 232.451 276.53 231.676 278.516C230.887 280.523 230.235 282.581 229.723 284.676Z" fill="#263238"/>
<path d="M239.1 266.359C243.805 267.916 248.257 270.152 252.315 272.995C254.366 274.413 256.222 276.093 257.836 277.993C258.628 278.965 259.311 280.021 259.87 281.143C260.422 282.264 260.739 283.486 260.8 284.734C260.523 283.551 260.039 282.426 259.37 281.41C258.738 280.392 257.998 279.445 257.162 278.586C255.469 276.87 253.62 275.314 251.641 273.937C249.677 272.519 247.597 271.252 245.516 269.997C244.47 269.369 243.401 268.765 242.331 268.184C241.262 267.602 240.181 266.952 239.1 266.359Z" fill="#263238"/>
</svg>
