<svg width="444" height="436" viewBox="0 0 444 436" fill="none" xmlns="http://www.w3.org/2000/svg">
<path d="M34.0438 230.565C34.0438 230.565 47.2299 301.75 114.109 340.359C180.989 378.968 264.105 369.788 331.663 364.05C399.22 358.311 444.823 312.582 443.852 254.063C442.88 195.544 389.209 186.523 351.549 125.502C313.889 64.4815 313.087 42.6585 248.377 11.4973C183.667 -19.6638 95.5224 18.9679 57.8737 95.0654C20.225 171.163 34.0438 230.565 34.0438 230.565Z" fill="#00A1F1" fill-opacity="0.11"/>
<path d="M193.574 435.954C290.412 435.954 368.914 430.269 368.914 423.255C368.914 416.241 290.412 410.555 193.574 410.555C96.7367 410.555 18.2344 416.241 18.2344 423.255C18.2344 430.269 96.7367 435.954 193.574 435.954Z" fill="#F65314" fill-opacity="0.65"/>
<path opacity="0.5" d="M193.574 435.954C290.412 435.954 368.914 430.269 368.914 423.255C368.914 416.241 290.412 410.555 193.574 410.555C96.7367 410.555 18.2344 416.241 18.2344 423.255C18.2344 430.269 96.7367 435.954 193.574 435.954Z" fill="#F5F5F5"/>
<path d="M415.603 16.5898H151.565C145.324 16.5898 140.266 21.6575 140.266 27.9088V376.93C140.266 383.181 145.324 388.249 151.565 388.249H415.603C421.843 388.249 426.902 383.181 426.902 376.93V27.9088C426.902 21.6575 421.843 16.5898 415.603 16.5898Z" stroke="#263238" stroke-width="1.15782" stroke-linecap="round" stroke-linejoin="round"/>
<path d="M260.612 118.719V119.873H259.46" stroke="#263238" stroke-width="1.15782" stroke-linecap="round" stroke-linejoin="round"/>
<path d="M257.178 119.875H189.96" stroke="#263238" stroke-width="1.15782" stroke-linecap="round" stroke-linejoin="round" stroke-dasharray="2.28 2.28"/>
<path d="M188.818 119.873H187.654V118.719" stroke="#263238" stroke-width="1.15782" stroke-linecap="round" stroke-linejoin="round"/>
<path d="M187.654 116.49V64.1172" stroke="#263238" stroke-width="1.15782" stroke-linecap="round" stroke-linejoin="round" stroke-dasharray="2.23 2.23"/>
<path d="M187.654 62.9983V61.8438H188.818" stroke="#263238" stroke-width="1.15782" stroke-linecap="round" stroke-linejoin="round"/>
<path d="M191.09 61.8438H258.32" stroke="#263238" stroke-width="1.15782" stroke-linecap="round" stroke-linejoin="round" stroke-dasharray="2.28 2.28"/>
<path d="M259.46 61.8438H260.612V62.9983" stroke="#263238" stroke-width="1.15782" stroke-linecap="round" stroke-linejoin="round"/>
<path d="M260.612 65.2266V117.611" stroke="#263238" stroke-width="1.15782" stroke-linecap="round" stroke-linejoin="round" stroke-dasharray="2.23 2.23"/>
<path d="M248.963 71.1133H199.304V110.617H248.963V71.1133Z" fill="white" stroke="#263238" stroke-width="1.15782" stroke-linecap="round" stroke-linejoin="round"/>
<path d="M196.389 68.1796L179.35 55.0156" stroke="#263238" stroke-width="1.15782" stroke-linecap="round" stroke-linejoin="round"/>
<path d="M252.376 112.562L266.986 125.24" stroke="#263238" stroke-width="1.15782" stroke-linecap="round" stroke-linejoin="round"/>
<path d="M178.671 59.3529L178.174 53.75H184.015" stroke="#263238" stroke-width="1.15782" stroke-linecap="round" stroke-linejoin="round"/>
<path d="M267.381 119.941L268.386 126.054L261.279 126.314" stroke="#263238" stroke-width="1.15782" stroke-linecap="round" stroke-linejoin="round"/>
<path d="M310.465 268.844H286.353V277.559H310.465V268.844Z" fill="#263238"/>
<path d="M320.26 273.189L304.803 264.258V282.13L320.26 273.189Z" fill="#263238"/>
<path d="M268.962 208.73H213.506C209.182 208.73 205.676 212.242 205.676 216.575V339.929C205.676 344.261 209.182 347.773 213.506 347.773H268.962C273.287 347.773 276.792 344.261 276.792 339.929V216.575C276.792 212.242 273.287 208.73 268.962 208.73Z" fill="#263238" stroke="#263238" stroke-width="0.93861" stroke-linecap="round" stroke-linejoin="round"/>
<path d="M273.64 218.172H208.84V339.511H273.64V218.172Z" fill="white" stroke="#263238" stroke-width="0.93861" stroke-linecap="round" stroke-linejoin="round"/>
<path d="M261.629 366.91L266.578 347.667C267.119 345.594 267.393 343.46 267.392 341.317V318.238C267.481 317.94 267.53 317.632 267.539 317.321C267.472 316.293 267.002 315.333 266.232 314.65C265.461 313.967 264.453 313.617 263.426 313.676C262.316 313.655 261.241 314.06 260.42 314.808C260.271 313.846 259.772 312.973 259.019 312.356C258.266 311.74 257.313 311.424 256.341 311.469C255.67 311.456 255.005 311.603 254.402 311.898C253.799 312.193 253.274 312.628 252.872 313.167C252.709 312.218 252.205 311.361 251.457 310.757C250.708 310.153 249.765 309.843 248.805 309.885C248.131 309.874 247.465 310.024 246.86 310.321C246.255 310.618 245.729 311.054 245.325 311.594C245.325 308.538 245.325 293.879 244.816 292.68C243.325 288.82 235.777 290.586 237.122 294.683V328.583C237.122 326.207 235.359 323.071 234.624 320.762C233.89 318.453 233.494 316.234 232.093 314.31C229.766 310.982 225.664 312.816 225.901 316.28C226.094 319.325 228.297 321.724 229.483 324.486C231.675 329.58 230.365 334.911 232.432 340.027C234.149 343.27 236.058 346.407 238.15 349.422C239.277 351.401 240.168 353.505 240.805 355.692L238.884 366.91" fill="white"/>
<path d="M261.629 366.91L266.578 347.667C267.119 345.594 267.393 343.46 267.392 341.317V318.238C267.481 317.94 267.53 317.632 267.539 317.321C267.472 316.293 267.002 315.333 266.232 314.65C265.461 313.967 264.453 313.617 263.426 313.676C262.316 313.655 261.241 314.06 260.42 314.808C260.271 313.846 259.772 312.973 259.019 312.356C258.266 311.74 257.313 311.424 256.341 311.469C255.67 311.456 255.005 311.603 254.402 311.898C253.799 312.193 253.274 312.628 252.872 313.167C252.709 312.218 252.205 311.361 251.457 310.757C250.708 310.153 249.765 309.843 248.805 309.885C248.131 309.874 247.465 310.024 246.86 310.321C246.255 310.618 245.729 311.054 245.325 311.594C245.325 308.538 245.325 293.879 244.816 292.68C243.325 288.82 235.777 290.586 237.122 294.683V328.583C237.122 326.207 235.359 323.071 234.624 320.762C233.89 318.453 233.494 316.234 232.093 314.31C229.766 310.982 225.664 312.816 225.901 316.28C226.094 319.325 228.297 321.724 229.483 324.486C231.675 329.58 230.365 334.911 232.432 340.027C234.149 343.27 236.058 346.407 238.15 349.422C239.277 351.401 240.168 353.505 240.805 355.692L238.884 366.91" stroke="#263238" stroke-width="1.15782" stroke-linecap="round" stroke-linejoin="round"/>
<path d="M241.291 281V287.339" stroke="#263238" stroke-width="1.15782" stroke-linecap="round" stroke-linejoin="round"/>
<path d="M248.41 293.273H253.551" stroke="#263238" stroke-width="1.15782" stroke-linecap="round" stroke-linejoin="round"/>
<path d="M227.065 293.273H232.207" stroke="#263238" stroke-width="1.15782" stroke-linecap="round" stroke-linejoin="round"/>
<path d="M234.184 286.551L236.161 289.709" stroke="#263238" stroke-width="1.15782" stroke-linecap="round" stroke-linejoin="round"/>
<path d="M246.036 290.105L248.804 286.551" stroke="#263238" stroke-width="1.15782" stroke-linecap="round" stroke-linejoin="round"/>
<path d="M271.335 265.164H211.258V272.691H271.335V265.164Z" stroke="#263238" stroke-width="1.15782" stroke-linecap="round" stroke-linejoin="round"/>
<path d="M242.093 224.777H213.235V259.221H242.093V224.777Z" stroke="#263238" stroke-width="1.15782" stroke-linecap="round" stroke-linejoin="round"/>
<path d="M213.235 224.777L242.082 259.221" stroke="#263238" stroke-width="1.15782" stroke-linecap="round" stroke-linejoin="round"/>
<path d="M212.444 325.746V276.645H270.94V325.35" stroke="#263238" stroke-width="1.15782" stroke-linecap="round" stroke-linejoin="round"/>
<path d="M388.565 208.73H333.109C328.784 208.73 325.278 212.242 325.278 216.575V339.929C325.278 344.261 328.784 347.773 333.109 347.773H388.565C392.889 347.773 396.395 344.261 396.395 339.929V216.575C396.395 212.242 392.889 208.73 388.565 208.73Z" fill="#263238" stroke="#263238" stroke-width="0.93861" stroke-linecap="round" stroke-linejoin="round"/>
<path d="M393.242 218.172H328.441V339.512H393.242V218.172Z" fill="white" stroke="#263238" stroke-width="0.93861" stroke-linecap="round" stroke-linejoin="round"/>
<path d="M390.304 223.988H331.809V288.133H390.304V223.988Z" stroke="#263238" stroke-width="1.15782" stroke-linecap="round" stroke-linejoin="round"/>
<path d="M331.809 294.066H390.304" stroke="#263238" stroke-width="1.15782" stroke-linecap="round" stroke-linejoin="round"/>
<path d="M331.809 298.812H390.304" stroke="#263238" stroke-width="1.15782" stroke-linecap="round" stroke-linejoin="round"/>
<path d="M331.809 303.57H390.304" stroke="#263238" stroke-width="1.15782" stroke-linecap="round" stroke-linejoin="round"/>
<path d="M331.809 308.32H390.304" stroke="#263238" stroke-width="1.15782" stroke-linecap="round" stroke-linejoin="round"/>
<path d="M331.809 313.067H390.304" stroke="#263238" stroke-width="1.15782" stroke-linecap="round" stroke-linejoin="round"/>
<path d="M331.809 317.82H390.304" stroke="#263238" stroke-width="1.15782" stroke-linecap="round" stroke-linejoin="round"/>
<path d="M331.809 322.574H390.304" stroke="#263238" stroke-width="1.15782" stroke-linecap="round" stroke-linejoin="round"/>
<path d="M331.809 288.133L390.304 223.988" stroke="#263238" stroke-width="1.15782" stroke-linecap="round" stroke-linejoin="round"/>
<path d="M388.565 49.1211H333.109C328.784 49.1211 325.278 52.633 325.278 56.9651V180.319C325.278 184.652 328.784 188.163 333.109 188.163H388.565C392.889 188.163 396.395 184.652 396.395 180.319V56.9651C396.395 52.633 392.889 49.1211 388.565 49.1211Z" fill="#263238" stroke="#263238" stroke-width="0.93861" stroke-linecap="round" stroke-linejoin="round"/>
<path d="M393.242 58.5586H328.441V179.898H393.242V58.5586Z" fill="white" stroke="#263238" stroke-width="0.93861" stroke-linecap="round" stroke-linejoin="round"/>
<path d="M253.63 204.588V167.609H305.572" stroke="#263238" stroke-width="1.15782" stroke-linecap="round" stroke-linejoin="round"/>
<path d="M303.877 173.377L313.854 167.605L303.877 161.832V173.377Z" fill="#263238"/>
<path d="M359.526 203.611V175.223" stroke="#263238" stroke-width="1.15782" stroke-linecap="round" stroke-linejoin="round"/>
<path d="M365.287 176.924L359.524 166.918L353.762 176.924H365.287Z" fill="#263238"/>
<path d="M332.746 360.426H358.949" stroke="#263238" stroke-width="1.15782" stroke-linecap="round" stroke-linejoin="round"/>
<path d="M332.746 366.332H358.949" stroke="#263238" stroke-width="1.15782" stroke-linecap="round" stroke-linejoin="round"/>
<path d="M332.746 372.23H358.949" stroke="#263238" stroke-width="1.15782" stroke-linecap="round" stroke-linejoin="round"/>
<path d="M269.211 360.426H295.414" stroke="#263238" stroke-width="1.15782" stroke-linecap="round" stroke-linejoin="round"/>
<path d="M269.211 366.332H295.414" stroke="#263238" stroke-width="1.15782" stroke-linecap="round" stroke-linejoin="round"/>
<path d="M269.211 372.23H295.414" stroke="#263238" stroke-width="1.15782" stroke-linecap="round" stroke-linejoin="round"/>
<path d="M262.002 179.324H288.205" stroke="#263238" stroke-width="1.15782" stroke-linecap="round" stroke-linejoin="round"/>
<path d="M262.002 185.219H288.205" stroke="#263238" stroke-width="1.15782" stroke-linecap="round" stroke-linejoin="round"/>
<path d="M262.002 191.129H288.205" stroke="#263238" stroke-width="1.15782" stroke-linecap="round" stroke-linejoin="round"/>
<path d="M281.651 107.797H307.854" stroke="#263238" stroke-width="1.15782" stroke-linecap="round" stroke-linejoin="round"/>
<path d="M281.651 113.707H307.854" stroke="#263238" stroke-width="1.15782" stroke-linecap="round" stroke-linejoin="round"/>
<path d="M281.651 119.605H307.854" stroke="#263238" stroke-width="1.15782" stroke-linecap="round" stroke-linejoin="round"/>
<path d="M187.326 128.137H213.529" stroke="#263238" stroke-width="1.15782" stroke-linecap="round" stroke-linejoin="round"/>
<path d="M187.326 134.047H213.529" stroke="#263238" stroke-width="1.15782" stroke-linecap="round" stroke-linejoin="round"/>
<path d="M187.326 139.945H213.529" stroke="#263238" stroke-width="1.15782" stroke-linecap="round" stroke-linejoin="round"/>
<path d="M59.4972 215.24C59.4972 215.24 59.4972 210.35 52.65 203.491C45.8027 196.631 41.3508 192.715 41.3508 192.715C41.3508 192.715 37.9611 204.034 44.2773 210.825C48.9541 215.649 54.0263 220.071 59.4407 224.046L59.4972 215.24Z" fill="#F65314"/>
<path d="M49.567 245.872C49.567 245.872 49.567 240.971 42.7197 234.112C35.8724 227.252 31.4319 223.336 31.4319 223.336C31.4319 223.336 28.0421 234.655 34.3584 241.446C39.0386 246.266 44.1105 250.688 49.5218 254.667L49.567 245.872Z" fill="#F65314"/>
<path d="M59.0691 223.616C59.0691 223.616 59.5889 218.749 67.1141 212.659C74.6393 206.57 79.4301 203.129 79.4301 203.129C79.4301 203.129 81.69 214.697 74.6054 220.843C69.4497 225.146 63.9428 229.008 58.1426 232.388L59.0691 223.616Z" fill="#F65314"/>
<path d="M47.0699 259.747C47.0699 259.747 48.0868 254.959 56.2221 249.695C64.3575 244.432 69.4647 241.512 69.4647 241.512C69.4647 241.512 70.459 253.25 62.8095 258.615C57.2282 262.354 51.3432 265.618 45.2168 268.372L47.0699 259.747Z" fill="#F65314"/>
<path d="M49.3184 299.138C49.3184 299.138 49.3184 294.237 56.1656 287.377C63.0129 280.518 67.4648 276.602 67.4648 276.602C67.4648 276.602 70.8545 287.921 64.5383 294.712C59.8601 299.538 54.788 303.964 49.3748 307.944L49.3184 299.138Z" fill="#F65314"/>
<path d="M49.2049 308.746C49.2049 308.746 49.9055 303.902 44.0977 296.137C38.29 288.372 34.4935 283.867 34.4935 283.867C34.4935 283.867 29.5106 294.541 34.8325 302.227C38.772 307.671 43.1642 312.771 47.962 317.473L49.2049 308.746Z" fill="#F65314"/>
<path d="M42.459 337.251C42.459 337.251 42.459 332.35 49.3063 325.491C56.1535 318.631 60.6054 314.715 60.6054 314.715C60.6054 314.715 63.9951 325.977 57.6676 332.825C52.9963 337.65 47.9276 342.073 42.5155 346.046L42.459 337.251Z" fill="#F65314"/>
<path d="M47.0236 363.079C47.0236 363.079 45.792 358.336 50.6393 349.937C55.4867 341.539 58.7973 336.66 58.7973 336.66C58.7973 336.66 64.9553 346.689 60.5487 354.929C57.2529 360.782 53.4733 366.348 49.2495 371.568L47.0236 363.079Z" fill="#F65314"/>
<path d="M60.1196 214.027C59.7701 219.125 59.1439 224.199 58.2439 229.228C55.5322 243.23 48.7753 252.274 46.0635 264.917C43.3517 277.561 51.1255 293.871 49.0465 310.114C46.9674 326.357 40.6512 335.401 42.4591 346.244C44.2669 357.088 53.7582 386.449 53.7582 386.449" stroke="#263238" stroke-width="1.17125" stroke-linecap="round" stroke-linejoin="round"/>
<path d="M59.002 226.882L66.3803 221.211" stroke="#263238" stroke-width="1.17125" stroke-linecap="round" stroke-linejoin="round"/>
<path d="M59.3405 220.345L56.2559 214.844" stroke="#263238" stroke-width="1.17125" stroke-linecap="round" stroke-linejoin="round"/>
<path d="M46.4707 264.34C46.4707 264.34 52.6513 259.699 59.0014 255.059" stroke="#263238" stroke-width="1.17125" stroke-linecap="round" stroke-linejoin="round"/>
<path d="M49.5667 254.688C49.5667 254.688 44.4143 244.58 38.584 237.879" stroke="#263238" stroke-width="1.17125" stroke-linecap="round" stroke-linejoin="round"/>
<path d="M49.5674 306.109C53.0893 299.597 57.5388 293.634 62.7761 288.406" stroke="#263238" stroke-width="1.17125" stroke-linecap="round" stroke-linejoin="round"/>
<path d="M48.3806 312.979C46.5016 308.56 44.2605 304.305 41.6803 300.256C38.0871 294.937 37.5674 294.246 37.5674 294.246" stroke="#263238" stroke-width="1.17125" stroke-linecap="round" stroke-linejoin="round"/>
<path d="M42.459 346.243C44.0222 342.334 45.8806 338.55 48.0182 334.924C50.1563 331.579 52.5675 328.418 55.227 325.473" stroke="#263238" stroke-width="1.17125" stroke-linecap="round" stroke-linejoin="round"/>
<path d="M49.2621 371.6C48.9043 367.886 49.54 364.143 51.1038 360.756C53.68 355.765 56.5952 349.245 57.8042 346.664" stroke="#263238" stroke-width="1.17125" stroke-linecap="round" stroke-linejoin="round"/>
<path d="M14.6747 280.705C14.6747 280.705 14.1436 277.638 17.6915 272.589C21.2395 267.541 23.5784 264.609 23.5784 264.609C23.5784 264.609 26.9681 271.31 23.7027 276.302C21.2893 279.836 18.583 283.161 15.6125 286.24L14.6747 280.705Z" fill="#F65314"/>
<path d="M24.2113 298.818C24.2113 298.818 23.6915 295.74 27.2394 290.703C30.7873 285.666 33.115 282.723 33.115 282.723C33.115 282.723 36.5047 289.412 33.2393 294.404C30.8316 297.936 28.133 301.261 25.1717 304.342L24.2113 298.818Z" fill="#F65314"/>
<path d="M15.8498 285.9C15.8498 285.9 14.991 282.901 9.61264 279.89C4.23426 276.879 0.855816 275.227 0.855816 275.227C0.855816 275.227 0.720228 282.72 5.80483 285.81C9.50252 287.946 13.3729 289.767 17.3751 291.254L15.8498 285.9Z" fill="#F65314"/>
<path d="M27.2846 307.249C27.2846 307.249 26.1547 304.351 20.5051 301.929C14.8555 299.506 11.3076 298.25 11.3076 298.25C11.3076 298.25 11.963 305.709 17.3413 308.245C21.2444 309.981 25.2845 311.389 29.4201 312.455L27.2846 307.249Z" fill="#F65314"/>
<path d="M30.1427 332.188C30.1427 332.188 29.6116 329.12 24.5722 325.566C19.5328 322.012 16.3578 320.031 16.3578 320.031C16.3578 320.031 15.4312 327.468 20.1542 331.078C23.6089 333.595 27.2675 335.817 31.0918 337.723L30.1427 332.188Z" fill="#F65314"/>
<path d="M31.2503 338.209C31.2503 338.209 30.3011 335.221 33.092 329.742C35.8829 324.264 37.7812 321.004 37.7812 321.004C37.7812 321.004 42.0635 327.15 39.5664 332.561C37.6796 336.398 35.4761 340.07 32.979 343.54L31.2503 338.209Z" fill="#F65314"/>
<path d="M39.849 362.985C39.849 362.985 40.1993 359.883 45.024 356.046C49.8487 352.209 52.9334 350.059 52.9334 350.059C52.9334 350.059 54.2893 357.427 49.7696 361.298C46.463 364.006 42.9368 366.433 39.2275 368.554L39.849 362.985Z" fill="#F65314"/>
<path d="M38.5721 355.342C38.5721 355.342 38.0411 352.264 33.0129 348.71C27.9848 345.155 24.7872 343.141 24.7872 343.141C24.7872 343.141 23.8607 350.577 28.595 354.188C32.0479 356.707 35.7067 358.929 39.5325 360.832L38.5721 355.342Z" fill="#F65314"/>
<path d="M38.5039 372.043C38.5039 372.043 38.7751 368.93 34.7978 364.221C30.8205 359.513 28.2443 356.773 28.2443 356.773C28.2443 356.773 25.4648 363.735 29.137 368.432C31.8416 371.741 34.816 374.819 38.0294 377.634L38.5039 372.043Z" fill="#F65314"/>
<path d="M14.1436 279.992C14.9201 283.149 15.863 286.262 16.9683 289.319C20.1886 297.808 25.4088 302.743 28.4708 310.384C31.5329 318.024 28.4708 329.083 31.499 339.043C34.5272 349.004 39.5101 353.984 39.544 360.98C39.5779 367.975 36.8322 387.421 36.8322 387.421" stroke="#263238" stroke-width="1.17125" stroke-linecap="round" stroke-linejoin="round"/>
<path d="M16.2467 287.934L11.0039 285.184" stroke="#263238" stroke-width="1.17125" stroke-linecap="round" stroke-linejoin="round"/>
<path d="M15.3193 283.882L16.6639 280.09" stroke="#263238" stroke-width="1.17125" stroke-linecap="round" stroke-linejoin="round"/>
<path d="M28.1554 310.065C28.1554 310.065 23.7826 307.801 19.2969 305.605" stroke="#263238" stroke-width="1.17125" stroke-linecap="round" stroke-linejoin="round"/>
<path d="M25.1709 304.339C26.4584 300.266 28.1544 296.333 30.2329 292.602" stroke="#263238" stroke-width="1.17125" stroke-linecap="round" stroke-linejoin="round"/>
<path d="M30.7425 336.588C27.8387 332.889 24.413 329.633 20.5732 326.922" stroke="#263238" stroke-width="1.17125" stroke-linecap="round" stroke-linejoin="round"/>
<path d="M32.2441 340.762C32.9378 337.787 33.8789 334.876 35.0576 332.058C36.7412 328.334 36.9898 327.836 36.9898 327.836" stroke="#263238" stroke-width="1.17125" stroke-linecap="round" stroke-linejoin="round"/>
<path d="M39.3418 366.29C41.0493 364.173 42.9398 362.211 44.9914 360.427C46.2958 359.468 47.5202 358.404 48.6523 357.246" stroke="#263238" stroke-width="1.17125" stroke-linecap="round" stroke-linejoin="round"/>
<path d="M39.5432 360.981C38.1443 358.712 36.5728 356.555 34.8428 354.529C33.1404 352.66 31.2846 350.937 29.2949 349.379" stroke="#263238" stroke-width="1.17125" stroke-linecap="round" stroke-linejoin="round"/>
<path d="M38.0299 377.633C37.8521 375.262 37.0489 372.98 35.7023 371.022C33.5442 368.181 31.0019 364.401 29.9736 362.918" stroke="#263238" stroke-width="1.17125" stroke-linecap="round" stroke-linejoin="round"/>
<path d="M22.8564 384.039H67.5897V417.781C67.5897 418.682 67.2325 419.545 66.5968 420.182C65.9611 420.819 65.0989 421.177 64.1999 421.177H26.2914C25.3924 421.177 24.5302 420.819 23.8945 420.182C23.2588 419.545 22.9016 418.682 22.9016 417.781V384.039H22.8564Z" fill="#263238"/>
<path d="M67.2392 389.888H22.8563C22.3953 389.888 21.9389 389.797 21.5132 389.62C21.0875 389.443 20.7009 389.184 20.3755 388.857C20.0501 388.53 19.7923 388.142 19.6169 387.715C19.4416 387.288 19.352 386.83 19.3535 386.368C19.3535 385.438 19.7226 384.545 20.3795 383.887C21.0364 383.229 21.9273 382.859 22.8563 382.859H67.2392C68.1682 382.859 69.0591 383.229 69.716 383.887C70.3729 384.545 70.742 385.438 70.742 386.368C70.7434 386.83 70.6539 387.288 70.4786 387.715C70.3032 388.142 70.0454 388.53 69.72 388.857C69.3946 389.184 69.008 389.443 68.5823 389.62C68.1566 389.797 67.7002 389.888 67.2392 389.888Z" fill="#263238"/>
<path d="M81.1471 409.917C81.1471 409.917 78.7178 419.289 78.7178 421.655C78.7178 424.021 78.1303 425.605 83.2375 426.59C88.3447 427.575 91.7118 426.986 92.5027 424.621C93.2937 422.255 93.8812 410.393 93.8812 410.393L81.4522 408.016L81.1471 409.917Z" fill="white" stroke="#263238" stroke-width="1.17125" stroke-linecap="round" stroke-linejoin="round"/>
<path d="M92.4465 424.64C92.6069 424.1 92.7203 423.547 92.7854 422.987C88.0464 423.012 83.3139 422.634 78.6389 421.855C78.6389 424.119 78.1983 425.647 83.1586 426.598C88.1189 427.549 91.6894 427.006 92.4465 424.64Z" fill="white" stroke="#263238" stroke-width="1.17125" stroke-linecap="round" stroke-linejoin="round"/>
<path d="M200.975 410.805C200.975 410.805 204.918 412.186 210.647 413.963C216.376 415.74 228.036 417.721 229.166 417.913C230.296 418.105 230.296 420.482 229.358 421.478C228.421 422.475 223.246 425.429 217.133 427.002C211.02 428.575 190.297 429.968 188.523 428.791C187.043 427.794 187.54 418.117 188.128 415.944C188.715 413.77 200.975 410.805 200.975 410.805Z" fill="white" stroke="#263238" stroke-width="1.17125" stroke-linecap="round" stroke-linejoin="round"/>
<path d="M229.38 421.476C229.702 421.1 229.925 420.649 230.028 420.165C230.13 419.68 230.11 419.178 229.968 418.703C225.968 421.895 217.979 425.404 209.855 426.219C202.481 426.745 195.077 426.708 187.709 426.106C187.856 427.464 188.116 428.494 188.545 428.788C190.319 429.92 211.03 428.585 217.155 427C223.279 425.415 228.397 422.461 229.38 421.476Z" fill="white" stroke="#263238" stroke-width="1.17125" stroke-linecap="round" stroke-linejoin="round"/>
<path d="M105.554 238.516C105.554 238.516 102.164 259.184 104.785 270.662C104.785 270.662 99.8249 316.186 99.0566 336.47C99.0566 336.47 88.3676 372.057 86.8309 383.15C85.384 392.162 83.4871 401.097 81.1475 409.919C83.5251 411.237 86.1073 412.143 88.7857 412.602C94.1414 413.733 94.8985 409.534 94.8985 409.534C94.8985 409.534 124.276 341.813 126.604 331.863C128.931 321.914 136.513 286.35 136.513 286.35L168.151 344.507C168.151 344.507 169.687 364.405 174.264 375.883C178.84 387.36 187.63 419.11 187.63 419.11C191.108 419.304 194.593 418.922 197.946 417.978C202.534 416.45 202.534 414.152 202.534 414.152C202.534 414.152 195.653 388.515 195.653 380.105C195.653 371.695 192.986 342.99 191.077 334.953C189.167 326.917 176.173 284.833 174.264 280.237C172.354 275.642 168.151 261.108 168.151 261.108L165.484 238.527C165.484 238.527 132.671 247.707 105.554 238.516Z" fill="#263238" stroke="#263238" stroke-width="1.17125" stroke-linecap="round" stroke-linejoin="round"/>
<path d="M129.79 141.005C129.79 141.005 128.028 137.191 128.028 134.848C128.028 132.505 126.898 121.367 126.898 121.367C126.898 121.367 143.846 90.6134 148.535 84.7501C151.594 80.995 155.024 77.5592 158.772 74.4952C158.772 74.4952 170.185 72.1521 172.523 72.1521C174.862 72.1521 177.495 71.0202 177.495 69.5148C177.495 68.0094 173.687 68.3829 171.348 68.3829C169.009 68.3829 166.083 66.3342 166.083 66.3342C166.083 66.3342 169.891 55.4113 171.055 51.0988C171.676 48.835 173.687 44.0697 172.185 44.0697C170.682 44.0697 170.433 45.2016 169.552 47.0013C168.671 48.8011 164.874 54.619 164.874 54.619L165.744 41.7267C165.744 41.7267 164.614 39.9723 163.699 42.021C162.54 45.1845 161.563 48.4119 160.772 51.6874C160.501 52.7133 160.003 53.665 159.315 54.4719L158.185 44.8621C158.185 44.8621 156.196 42.7454 155.846 46.4128C155.654 48.4502 155.846 55.2076 155.846 56.3735C155.846 57.5393 154.716 54.7096 154.716 54.7096C154.716 54.7096 154.027 51.5289 153.259 51.0988C152.49 50.6687 151.801 51.6874 152.129 54.0304C152.456 56.3735 151.835 66.0399 151.835 66.0399C151.835 66.0399 150.083 68.3829 147.451 71.6088C144.818 74.8347 123.723 93.8732 115.813 100.031C107.904 106.188 107.045 111.169 105.87 117.315C104.695 123.461 103.531 159.195 103.531 172.11C103.531 185.025 104.661 205.501 105.576 212.247C106.491 218.993 104.876 227.686 103.746 232.418C102.616 237.149 103.746 241.201 106.966 243.544C110.186 245.887 123.915 247.359 135.327 247.359C146.739 247.359 158.433 246.227 161.948 245.016C165.462 243.804 168.151 243.533 168.151 238.858C168.151 234.183 165.812 224.8 165.812 222.163C165.812 219.525 170.501 192.28 170.501 192.28C170.501 192.28 200.331 201.336 205.89 199.31C211.449 197.283 257.945 153.309 257.945 153.309C257.945 153.309 265.255 150.378 269.063 149.789C272.871 149.2 278.713 146.574 279.006 145.692C279.3 144.809 278.419 145.103 276.08 145.103C273.995 145.246 271.933 145.625 269.933 146.235C269.933 146.235 277.922 141.164 279.3 140.666C280.249 140.315 281.888 138.153 279.594 138.617C276.713 139.194 269.651 141.254 269.651 141.254L279.006 135.391C279.006 135.391 280.464 133.048 278.713 133.048C276.961 133.048 268.182 138.323 268.182 138.323L274.961 131.962C276.283 130.739 275.176 129.007 273.617 129.913L265.707 134.44C263.779 135.57 261.733 136.485 259.606 137.168L258.148 138.051C258.439 136.503 258.635 134.938 258.736 133.365C258.736 131.894 257.854 128.091 255.809 127.796C253.764 127.502 255.516 130.434 255.516 131.894C255.516 133.354 252.589 140.949 252.589 142.149V145.669C252.589 145.669 242.646 154.452 233.584 159.15C224.522 163.847 204.037 179.365 204.037 179.365C204.037 179.365 180.648 167.345 175.382 162.953C170.117 158.561 164.264 153.287 158.433 148.601C155.406 146.078 152.179 143.807 148.784 141.809L129.79 141.005Z" fill="white" stroke="#263238" stroke-width="1.17125" stroke-linecap="round" stroke-linejoin="round"/>
<path d="M227.528 162.777C217.596 169.139 204.071 179.394 204.071 179.394C204.071 179.394 180.681 167.373 175.416 162.981C170.151 158.589 164.298 153.315 158.467 148.629C155.44 146.106 152.213 143.835 148.818 141.837L129.813 140.966C129.813 140.966 128.05 137.151 128.05 134.808C128.05 132.465 126.92 121.327 126.92 121.327C126.92 121.327 135.677 105.481 142.344 94.3314L141.812 93.7881C138.536 90.5169 134.005 88.7512 130.05 87.7891C124.536 92.6902 119.056 97.4102 115.802 99.9457C107.893 106.092 107.034 111.084 105.859 117.23C104.684 123.376 103.52 159.11 103.52 172.025C103.52 184.94 104.65 205.416 105.565 212.162C106.48 218.908 104.876 227.692 103.746 232.423C102.616 237.154 103.746 241.207 106.966 243.55C110.186 245.893 123.915 247.364 135.327 247.364C146.739 247.364 158.433 246.232 161.948 245.021C165.462 243.81 168.151 243.538 168.151 238.863C168.151 234.189 165.812 224.805 165.812 222.168C165.812 219.531 170.501 192.286 170.501 192.286C170.501 192.286 200.331 201.341 205.89 199.315C208.85 198.183 223.516 185.166 236.522 173.281C234.155 169.284 231.111 165.729 227.528 162.777Z" fill="#F65314" stroke="#263238" stroke-width="1.17125" stroke-linecap="round" stroke-linejoin="round"/>
<path d="M161.371 153.84C161.371 153.84 149.598 157.054 148.942 165.985" stroke="#263238" stroke-width="1.17125" stroke-linecap="round" stroke-linejoin="round"/>
<path d="M170.41 192.282C170.41 192.282 156.693 188.501 149.563 181.348" stroke="#263238" stroke-width="1.17125" stroke-linecap="round" stroke-linejoin="round"/>
<path d="M162.794 190.334C162.794 190.334 151.021 193.548 140.32 189.27" stroke="#263238" stroke-width="1.17125" stroke-linecap="round" stroke-linejoin="round"/>
<path d="M113.124 171.348C113.124 171.348 116.841 197.381 134.762 210.353" stroke="#263238" stroke-width="1.17125" stroke-linecap="round" stroke-linejoin="round"/>
<path d="M140.411 217.496C141.778 217.87 143.191 218.198 144.648 218.458" stroke="#263238" stroke-width="1.17125" stroke-linecap="round" stroke-linejoin="round"/>
<path d="M113.124 197.355C118.136 204.844 125.062 210.849 133.18 214.741" stroke="#263238" stroke-width="1.17125" stroke-linecap="round" stroke-linejoin="round"/>
<path d="M109.655 139.556C109.655 139.556 121.067 133.896 127.847 139.194" stroke="#263238" stroke-width="1.17125" stroke-linecap="round" stroke-linejoin="round"/>
<path d="M112.864 113.48C112.864 113.48 123.214 117.057 126.062 124.2" stroke="#263238" stroke-width="1.17125" stroke-linecap="round" stroke-linejoin="round"/>
<path d="M119.644 110.977C122.12 112.979 123.874 115.738 124.638 118.832" stroke="#263238" stroke-width="1.17125" stroke-linecap="round" stroke-linejoin="round"/>
<path d="M168.389 94.1225C168.389 94.1225 170.151 104.083 170.151 106.72C170.151 109.358 167.225 110.241 168.389 113.75C169.553 117.258 172.197 117.564 171.609 120.541C171.021 123.518 167.225 125.227 167.225 125.227C167.225 125.227 165.18 133.433 163.123 136.942C161.067 140.451 153.474 137.825 153.474 137.825L152.886 147.197C152.886 147.197 150.254 151.012 140.604 149.834C135.049 149.22 129.623 147.738 124.526 145.443L123.057 143.394C123.057 143.394 130.661 139.579 130.966 136.942C131.271 134.305 130.966 128.159 130.966 119.364C130.966 110.569 128.333 93.5791 142.661 89.1874C156.988 84.7956 168.389 94.1225 168.389 94.1225Z" fill="white" stroke="#263238" stroke-width="1.17125" stroke-linecap="round" stroke-linejoin="round"/>
<path d="M150.523 118.177C150.523 118.177 147.224 110.594 143.529 114.929C141.134 117.747 144.117 126.067 145.574 127.233C147.032 128.398 150.252 127.821 150.252 127.821C150.252 127.821 145.574 132.507 140.603 132.507C135.631 132.507 131.247 127.821 128.027 119.615C124.806 111.409 122.468 97.3505 125.982 88.8499C129.496 80.3494 147.631 80.0664 151.721 80.0664C155.811 80.0664 161.958 82.4094 161.958 82.4094C161.958 82.4094 175.121 81.2775 175.415 85.6353C175.709 89.9932 173.653 90.3214 173.653 90.3214C173.653 90.3214 183.02 95.3018 178.624 97.3505C174.229 99.3992 167.517 98.2334 163.122 98.2334C161.945 98.165 160.773 98.4303 159.739 98.9989C158.706 99.5674 157.854 100.416 157.28 101.448C157.28 101.448 161.37 104.085 159.913 105.262C158.455 106.44 153.133 108.771 152.602 110.831C152.071 112.891 154.647 116.106 152.885 117.623C151.122 119.14 150.523 118.177 150.523 118.177Z" fill="#263238" stroke="#263238" stroke-width="1.17125" stroke-linecap="round" stroke-linejoin="round"/>
<path d="M166.795 114.631C166.795 116.125 166.173 117.336 165.416 117.336C164.659 117.336 164.049 116.125 164.049 114.631C164.049 113.137 164.67 111.926 165.416 111.926C166.162 111.926 166.795 113.137 166.795 114.631Z" fill="#263238"/>
<path d="M162.004 111.179C162.004 111.179 163.891 106.765 166.885 109.131" stroke="#263238" stroke-width="1.17125" stroke-linecap="round" stroke-linejoin="round"/>
<path d="M136.491 286.355L133.813 281.375L120.446 277.934" stroke="white" stroke-width="1.17125" stroke-linecap="round" stroke-linejoin="round"/>
</svg>
