<svg width="37" height="39" viewBox="0 0 37 39" fill="none" xmlns="http://www.w3.org/2000/svg">
<path fill-rule="evenodd" clip-rule="evenodd" d="M9.11471 3.98897C4.10729 5.85763 0.00569148 7.39115 4.30242e-05 7.39678C-0.0121304 7.40897 2.56302 30.0668 2.58386 30.1309C2.59506 30.1653 4.31018 31.0942 10.4337 34.3824L18.2691 38.5898L26.1083 34.3799C32.2984 31.0556 33.9494 30.1612 33.9563 30.1284C33.9689 30.0683 36.5379 7.48155 36.5378 7.432C36.5377 7.39513 36.4453 7.35605 35.7147 7.08376C35.2621 6.91508 31.1591 5.38459 26.5969 3.68267C22.0346 1.98075 18.2833 0.588968 18.2605 0.589844C18.2377 0.590701 14.1221 2.1203 9.11471 3.98897ZM26.0685 6.14853C30.3428 7.74233 33.8421 9.0481 33.8447 9.05022C33.8493 9.05402 31.6279 28.5837 31.6221 28.5905C31.6205 28.5924 28.6154 30.2069 24.9441 32.1783L18.269 35.7627L11.5925 32.1778C7.92045 30.2061 4.91477 28.5916 4.91325 28.59C4.90764 28.5841 2.68631 9.05404 2.69087 9.05071C2.71683 9.03176 18.2631 3.24154 18.2775 3.24544C18.2882 3.24834 21.7942 4.55471 26.0685 6.14853ZM16.3605 7.07912C16.3512 7.10324 14.5097 11.7201 12.2684 17.3389C10.027 22.9576 8.18898 27.5657 8.18378 27.5791C8.17624 27.5985 8.58486 27.6035 10.1874 27.6034L12.2006 27.6033L13.1939 25.1104L14.1873 22.6175L18.411 22.6223L22.6347 22.627L23.5616 25.1152L24.4885 27.6035H26.4813C27.5773 27.6035 28.474 27.6001 28.474 27.5959C28.474 27.5918 26.7904 23.0713 24.7327 17.5504C22.6751 12.0296 20.9519 7.40514 20.9035 7.2739L20.8154 7.0353H18.5965H16.3775L16.3605 7.07912ZM19.903 15.3008C20.6331 17.2597 21.2271 18.8659 21.2229 18.8701C21.2187 18.8743 19.9706 18.8755 18.4494 18.8728L15.6836 18.8678L17.1157 15.2783C17.9382 13.2166 18.5536 11.6994 18.5616 11.7139C18.5692 11.7278 19.1728 13.3418 19.903 15.3008Z" fill="white"/>
</svg>
