<svg width="26" height="27" viewBox="0 0 26 27" fill="none" xmlns="http://www.w3.org/2000/svg">
<path d="M19.6799 11.4113C19.6799 12.0361 20.1891 12.5444 20.815 12.5444C21.441 12.5444 21.9502 12.0361 21.9502 11.4113V9.84485H25.9072V0.6875H15.7229V3.88065H16.7452C17.3711 3.88065 17.8803 4.38898 17.8803 5.01377C17.8803 5.63857 17.3711 6.1469 16.7452 6.1469H15.7229V9.8448H19.6799V11.4113Z" fill="white"/>
<path d="M2.2163 15.5437C2.2163 14.2233 3.29243 13.1491 4.61512 13.1491C5.93782 13.1491 7.01394 14.2233 7.01394 15.5437V15.8487H9.20182V12.4031H10.771C11.3969 12.4031 11.9061 11.8948 11.9061 11.27C11.9061 10.6452 11.3969 10.1369 10.771 10.1369H9.20182V6.69141H0.0284729V15.8487H2.21625V15.5437H2.2163Z" fill="white"/>
<path d="M8.89636 24.3369C7.57367 24.3369 6.49754 23.2627 6.49754 21.9423C6.49754 20.622 7.57367 19.5477 8.89636 19.5477H9.20183V17.3636H5.4975V15.5449C5.4975 15.0592 5.10165 14.6641 4.61512 14.6641C4.1286 14.6641 3.73275 15.0592 3.73275 15.5449V17.3636H0.0284729V26.521H9.20183V24.337H8.89636V24.3369Z" fill="white"/>
<path d="M16.4402 18.1719C16.4402 18.7967 15.9311 19.305 15.3051 19.305C14.6792 19.305 14.17 18.7967 14.17 18.1719V16.6055H10.7184V21.0602H8.8965C8.40997 21.0602 8.01413 21.4553 8.01413 21.941C8.01413 22.4267 8.40997 22.8218 8.8965 22.8218H10.7184V26.5196H19.8918V16.6055H16.4403V18.1719H16.4402Z" fill="white"/>
</svg>
