<svg width="26" height="26" viewBox="0 0 26 26" fill="none" xmlns="http://www.w3.org/2000/svg">
<path d="M21.0353 8.07195L17.928 4.96472L10.6768 12.2154L13.7846 15.3231L21.0353 8.07195Z" fill="white"/>
<path d="M23.6246 5.4818C23.9106 5.19572 23.9106 4.73219 23.6246 4.44611L21.5532 2.37472C21.2671 2.08864 20.8036 2.08864 20.5175 2.37472L18.9639 3.92819L22.0711 7.03541L23.6246 5.4818Z" fill="white"/>
<path d="M8.93315 18.0487L12.6045 16.2133L9.78573 13.3945L7.95038 17.0659C7.80946 17.3477 7.86454 17.6882 8.08774 17.9113C8.31088 18.1345 8.65151 18.1895 8.93315 18.0487Z" fill="white"/>
<path d="M24.7676 19.5938H23.2539V21.791C23.2539 22.1958 22.9263 22.5234 22.5215 22.5234C22.1167 22.5234 21.7891 22.1958 21.7891 21.791V19.5938H20.3242V21.791C20.3242 22.1958 19.9966 22.5234 19.5918 22.5234C19.187 22.5234 18.8594 22.1958 18.8594 21.791V19.5938H17.3945V21.791C17.3945 22.1958 17.0669 22.5234 16.6621 22.5234C16.2573 22.5234 15.9297 22.1958 15.9297 21.791V19.5938H14.4648V21.791C14.4648 22.1958 14.1373 22.5234 13.7324 22.5234C13.3276 22.5234 13 22.1958 13 21.791V19.5938H11.5352V21.791C11.5352 22.1958 11.2076 22.5234 10.8027 22.5234C10.3979 22.5234 10.0703 22.1958 10.0703 21.791V19.5938H7.87305V25.502H24.7676C25.1724 25.502 25.5 25.1744 25.5 24.7695V20.3262C25.5 19.9213 25.1724 19.5938 24.7676 19.5938Z" fill="white"/>
<path d="M5.67578 0.5H1.23242C0.82793 0.5 0.5 0.827832 0.5 1.23242V24.7676C0.5 25.1721 0.82793 25.5 1.23242 25.5H6.4082V22.5215H4.21094C3.8061 22.5215 3.47852 22.1939 3.47852 21.7891C3.47852 21.3842 3.8061 21.0566 4.21094 21.0566H6.4082V19.5918H4.21094C3.8061 19.5918 3.47852 19.2642 3.47852 18.8594C3.47852 18.4545 3.8061 18.127 4.21094 18.127H6.4082V16.6621H4.21094C3.8061 16.6621 3.47852 16.3345 3.47852 15.9297C3.47852 15.5249 3.8061 15.1973 4.21094 15.1973H6.4082V13.7324H4.21094C3.8061 13.7324 3.47852 13.4048 3.47852 13C3.47852 12.5952 3.8061 12.2676 4.21094 12.2676H6.4082V10.8027H4.21094C3.8061 10.8027 3.47852 10.4751 3.47852 10.0703C3.47852 9.66548 3.8061 9.33789 4.21094 9.33789H6.4082V7.87305H4.21094C3.8061 7.87305 3.47852 7.54546 3.47852 7.14062C3.47852 6.73579 3.8061 6.4082 4.21094 6.4082H6.4082V4.94336H4.21094C3.8061 4.94336 3.47852 4.61577 3.47852 4.21094C3.47852 3.8061 3.8061 3.47852 4.21094 3.47852H6.4082V1.23242C6.4082 0.827832 6.08027 0.5 5.67578 0.5Z" fill="white"/>
</svg>
