<svg width="25" height="25" viewBox="0 0 25 25" fill="none" xmlns="http://www.w3.org/2000/svg">
<g clip-path="url(#clip0_1_409)">
<path d="M25 5.90625V2.24414C25 1.03257 24.0143 0.046875 22.8027 0.046875H2.19727C0.985693 0.046875 0 1.03257 0 2.24414V5.90625H25ZM16.8945 2.97656H21.2891C21.6936 2.97656 22.0215 3.30449 22.0215 3.70898C22.0215 4.11348 21.6936 4.44141 21.2891 4.44141H16.8945C16.49 4.44141 16.1621 4.11348 16.1621 3.70898C16.1621 3.30449 16.49 2.97656 16.8945 2.97656ZM9.57031 2.97656C9.9748 2.97656 10.3027 3.30449 10.3027 3.70898C10.3027 4.11348 9.9748 4.44141 9.57031 4.44141C9.16582 4.44141 8.83789 4.11348 8.83789 3.70898C8.83789 3.30449 9.16582 2.97656 9.57031 2.97656ZM6.64062 2.97656C7.04512 2.97656 7.37305 3.30449 7.37305 3.70898C7.37305 4.11348 7.04512 4.44141 6.64062 4.44141C6.23613 4.44141 5.9082 4.11348 5.9082 3.70898C5.9082 3.30449 6.23613 2.97656 6.64062 2.97656ZM3.71094 2.97656C4.11543 2.97656 4.44336 3.30449 4.44336 3.70898C4.44336 4.11348 4.11543 4.44141 3.71094 4.44141C3.30645 4.44141 2.97852 4.11348 2.97852 3.70898C2.97852 3.30449 3.30645 2.97656 3.71094 2.97656Z" fill="white"/>
<path d="M0 7.375V22.7559C0 23.9674 0.985693 24.9531 2.19727 24.9531H22.8027C24.0143 24.9531 25 23.9674 25 22.7559V7.375H0ZM8.56299 17.7894C8.87891 18.0421 8.93008 18.503 8.67739 18.8188C8.42476 19.1347 7.96377 19.1859 7.64795 18.9332L3.98584 16.0035C3.61968 15.7107 3.61943 15.1527 3.98584 14.8597L7.64795 11.93C7.96367 11.6773 8.42466 11.7285 8.67739 12.0443C8.93008 12.3602 8.87891 12.8211 8.56299 13.0738L5.61582 15.4316L8.56299 17.7894ZM15.3705 10.5932L10.9759 20.8471C10.8166 21.2188 10.3861 21.3912 10.0142 21.2318C9.64243 21.0725 9.47017 20.6418 9.62954 20.2701L14.0241 10.0162C14.1834 9.64438 14.614 9.47217 14.9858 9.63149C15.3576 9.79082 15.5298 10.2214 15.3705 10.5932ZM21.0142 16.0036L17.3521 18.9333C17.0367 19.1856 16.5757 19.1352 16.3226 18.8189C16.0699 18.503 16.1211 18.0421 16.437 17.7895L19.3842 15.4316L16.437 13.0739C16.1211 12.8212 16.0699 12.3603 16.3226 12.0444C16.5752 11.7286 17.0362 11.6773 17.3521 11.9301L21.0142 14.8598C21.3803 15.1526 21.3806 15.7105 21.0142 16.0036Z" fill="white"/>
</g>
<defs>
<clipPath id="clip0_1_409">
<rect width="25" height="25" fill="white"/>
</clipPath>
</defs>
</svg>
