<svg width="26" height="26" viewBox="0 0 26 26" fill="none" xmlns="http://www.w3.org/2000/svg">
<g clip-path="url(#clip0_1_377)">
<path d="M23.306 10.8788L13.5556 1.12699C12.9805 0.55336 12.0503 0.560147 11.4828 1.12626C10.912 1.69848 10.912 2.62758 11.4828 3.19907L21.2346 12.9502C21.8059 13.5215 22.7346 13.5215 23.306 12.9502C23.8788 12.3774 23.8788 11.4516 23.306 10.8788Z" fill="white"/>
<path d="M10.7598 4.54688L10.6864 4.91475C10.1695 7.50059 8.91314 9.95719 7.21387 11.9483L12.5189 17.2533C14.5097 15.5544 16.9325 14.2643 19.5184 13.7467L19.887 13.6733L10.7598 4.54688Z" fill="white"/>
<path d="M6.24118 13.0469L2.61554 16.6718C1.75884 17.5285 1.75528 18.9193 2.61554 19.7796L4.68693 21.8509C5.54362 22.7076 6.93444 22.7112 7.7947 21.8509L11.42 18.2256L6.24118 13.0469ZM6.75905 18.7439C6.47296 19.03 6.00944 19.03 5.72335 18.7439C5.43727 18.4578 5.43727 17.9943 5.72335 17.7082L6.75905 16.6725C7.04513 16.3864 7.50866 16.3864 7.79474 16.6725C8.08083 16.9586 8.08083 17.4221 7.79474 17.7082L6.75905 18.7439Z" fill="white"/>
<path d="M14.4782 22.2423L15.4745 21.246C16.3348 20.3858 16.332 18.995 15.4746 18.139L14.7345 17.3984C14.3255 17.6732 13.9349 17.9717 13.5551 18.2903L14.4389 19.1754C14.7243 19.4593 14.7263 19.9214 14.4389 20.2104L13.4261 21.2232L11.9377 19.7811L9.86621 21.8526L13.1893 25.0727C13.7564 25.6412 14.6875 25.6445 15.26 25.0719C15.8315 24.5005 15.8315 23.5714 15.26 22.9998L14.4782 22.2423Z" fill="white"/>
<path d="M17.4367 0.5C17.0319 0.5 16.7043 0.827589 16.7043 1.23242V2.69727C16.7043 3.1021 17.0319 3.42969 17.4367 3.42969C17.8416 3.42969 18.1692 3.1021 18.1692 2.69727V1.23242C18.1692 0.827589 17.8416 0.5 17.4367 0.5Z" fill="white"/>
<path d="M23.2961 6.35938H21.8313C21.4265 6.35938 21.0989 6.68696 21.0989 7.0918C21.0989 7.49663 21.4265 7.82422 21.8313 7.82422H23.2961C23.701 7.82422 24.0286 7.49663 24.0286 7.0918C24.0286 6.68696 23.701 6.35938 23.2961 6.35938Z" fill="white"/>
<path d="M22.3491 2.17941C22.063 1.89332 21.5995 1.89332 21.3134 2.17941L19.8486 3.64425C19.5625 3.93034 19.5625 4.39386 19.8486 4.67995C20.1347 4.96603 20.5982 4.96608 20.8843 4.67995L22.3491 3.2151C22.6352 2.92902 22.6352 2.46549 22.3491 2.17941Z" fill="white"/>
</g>
<defs>
<clipPath id="clip0_1_377">
<rect width="25" height="25" fill="white" transform="translate(0.5 0.5)"/>
</clipPath>
</defs>
</svg>
