<svg width="46" height="21" viewBox="0 0 46 21" fill="none" xmlns="http://www.w3.org/2000/svg">
<path fill-rule="evenodd" clip-rule="evenodd" d="M9.52497 0.238163C5.27672 0.763118 1.79254 3.83352 0.834628 7.89666C0.268705 10.2967 0.66703 13.4278 1.80707 15.5401C3.39218 18.4768 6.69461 20.3326 10.3233 20.3259C14.0957 20.319 17.046 18.8371 21.1416 14.8926L23.0891 13.0168L25.276 15.1389C29.1444 18.8926 31.9215 20.333 35.2768 20.3259C38.7803 20.3187 42.0321 18.6397 43.8751 15.8866C44.9113 14.3389 45.4288 12.7808 45.5545 10.8315C45.7547 7.72496 44.7524 4.89907 42.747 2.91545C40.7774 0.967216 38.7897 0.194215 35.7498 0.194215C32.0505 0.194215 29.4863 1.46647 25.2068 5.42551C24.0963 6.4527 23.1354 7.2933 23.0717 7.2933C23.0079 7.2933 22.0215 6.4177 20.8797 5.3473C16.3153 1.06908 13.4036 -0.241168 9.52497 0.238163ZM14.0551 5.05028C15.4525 5.73241 18.1181 7.87897 19.8172 9.69052L20.3648 10.2745L19.7241 10.9492C18.0393 12.7226 15.6544 14.6157 14.1829 15.3479C12.7967 16.0378 12.4626 16.1265 10.9887 16.1971C9.53502 16.2665 9.22515 16.222 8.33837 15.816C6.13259 14.8062 5.01825 13.1484 4.88008 10.6712C4.78212 8.91379 5.2365 7.55234 6.33855 6.30019C8.34079 4.02551 11.055 3.58584 14.0551 5.05028ZM38.1075 4.78641C39.2349 5.33724 40.2876 6.43594 40.8444 7.64302C41.4403 8.93502 41.4074 11.5065 40.7785 12.7868C39.7627 14.8548 37.9807 16.0576 35.734 16.1918C33.0757 16.3507 31.1615 15.3708 27.6492 12.0533L25.787 10.2944L27.2768 8.78251C31.4099 4.58752 34.9941 3.26517 38.1075 4.78641Z" fill="white"/>
</svg>
