<svg width="34" height="38" viewBox="0 0 34 38" fill="none" xmlns="http://www.w3.org/2000/svg">
<path fill-rule="evenodd" clip-rule="evenodd" d="M3.47771 0.483152C2.14655 0.963315 1.06773 2.09974 0.721278 3.38665C0.620027 3.76245 0.579807 9.34691 0.606828 19.2356L0.646609 33.7762C0.647917 34.2542 0.766498 34.7247 0.991952 35.1462C1.4291 35.9637 2.13972 36.6743 2.95717 37.1114C3.37864 37.3368 3.84922 37.4548 4.32718 37.4548H13.3826H22.4379C22.9159 37.4548 23.3865 37.3368 23.8079 37.1114C24.6254 36.6743 25.336 35.9637 25.7732 35.1462C26.1041 34.5274 26.1182 34.3222 26.1626 29.4572L26.1976 25.6194C26.2016 25.1739 25.6647 24.9463 25.3473 25.2591C24.7962 25.8021 24.4859 26.5435 24.4859 27.3173V29.9237C24.4859 33.5722 24.4706 33.77 24.1365 34.4325C23.8812 34.9387 23.6005 35.2195 23.0942 35.4748C22.6386 35.7045 22.1355 35.8242 21.6253 35.8242H13.374H5.11192C4.60951 35.8242 4.11472 35.7014 3.67059 35.4666C3.20844 35.2221 2.88124 34.8949 2.63681 34.4328C2.40194 33.9887 2.27917 33.4939 2.27917 32.9915V18.8974V4.80329C2.27917 4.30088 2.40194 3.80609 2.63681 3.36196C2.88124 2.89981 3.20844 2.57261 3.67059 2.32818C4.11472 2.09331 4.60951 1.97054 5.11192 1.97054H13.374H21.6285C22.1365 1.97054 22.6375 2.09024 23.0906 2.31995C23.7826 2.6706 24.2184 3.23291 24.4144 4.02816C24.4679 4.2455 24.3036 4.45556 24.0798 4.45592L22.2122 4.45894C19.5983 4.46329 18.74 4.61051 17.9887 5.18369C16.9009 6.01341 16.8835 6.1361 16.8835 12.9963C16.8835 18.6557 16.906 19.1797 17.1737 19.7695C17.7331 21.0011 18.8748 21.535 20.953 21.5364C21.6179 21.5369 22.1566 22.076 22.1566 22.7409V23.5352C22.1566 25.3212 22.1907 25.5765 22.4785 25.9422C22.6554 26.1672 22.9225 26.3514 23.0719 26.3514C23.3175 26.3514 27.7533 22.0458 27.8764 21.6878C27.905 21.6047 28.6012 21.537 29.4294 21.5364C31.1615 21.5355 31.962 21.3555 32.6945 20.8025C33.7783 19.9843 33.7966 19.8544 33.7966 12.9963C33.7966 6.1361 33.7792 6.01341 32.6914 5.18369C31.9421 4.61221 31.0823 4.46329 28.5046 4.45894L26.8775 4.45627C26.5065 4.45566 26.1908 4.18603 26.1322 3.81976C25.9257 2.52742 25.0521 1.34891 23.8079 0.683323C23.1677 0.340904 23.1413 0.339817 13.6155 0.305653C5.87108 0.2777 3.95399 0.311243 3.47771 0.483152ZM6.42034 5.49054C6.20573 5.705 6.32826 6.3139 6.6171 6.46857C6.80547 6.56936 8.67394 6.62868 11.6253 6.62775L15.661 6.62642C16.0683 6.62628 16.4357 6.38201 16.5934 6.00658C16.717 5.7122 16.5008 5.38697 16.1815 5.38697H11.6886C8.84803 5.38697 6.47718 5.43355 6.42034 5.49054ZM31.714 6.69996C31.9581 6.94396 32.0953 7.27496 32.0953 7.62009V12.9683C32.0953 20.2829 32.3311 19.6738 29.4978 19.6738C28.246 19.6738 27.0445 20.1668 26.1533 21.046L25.782 21.4123L24.9862 22.1974C24.6276 22.5513 24.0201 22.2972 24.0201 21.7934C24.0201 20.5595 23.9854 20.4015 23.6388 20.0551C23.2734 19.6895 23.175 19.6738 21.2431 19.6738C18.3384 19.6738 18.5848 20.2955 18.5848 12.9683V7.62009C18.5848 7.27496 18.722 6.94396 18.9661 6.69996C19.2101 6.45586 19.5411 6.31872 19.8862 6.31872H25.34H30.7939C31.139 6.31872 31.47 6.45586 31.714 6.69996ZM24.9829 7.9027C24.8804 8.00519 24.7965 8.29372 24.7965 8.5439C24.7965 8.8815 24.6198 9.16382 24.1112 9.63871C22.7538 10.9062 23.006 12.07 24.8931 13.2461C26.1606 14.0361 26.4339 14.4928 25.9556 15.0213C25.8041 15.1887 25.5272 15.3257 25.34 15.3257C24.9565 15.3257 24.4859 14.8803 24.4859 14.5172C24.4859 14.1911 24.0968 13.8905 23.759 13.9555C22.9454 14.1122 23.3039 15.7179 24.281 16.2945C24.7397 16.5652 24.7965 16.6734 24.7965 17.2768C24.7965 17.7881 24.8703 17.9942 25.0969 18.1155C25.4854 18.3234 25.5061 18.3209 25.7949 18.0322C25.9384 17.8886 26.0393 17.521 26.0398 17.1393C26.0407 16.5911 26.1084 16.4518 26.4766 16.2425C27.063 15.9089 27.4953 14.9725 27.3829 14.2793C27.2512 13.4674 26.9063 13.0527 25.7435 12.3072C24.5589 11.548 24.3698 11.2555 24.7189 10.7226C25.1812 10.0172 26.0184 10.3936 26.1777 11.3784C26.2552 11.8581 26.3513 11.9976 26.6319 12.0377C27.1043 12.1051 27.4365 11.8078 27.4365 11.318C27.4365 10.7271 26.8669 9.65998 26.4255 9.42378C26.1501 9.27626 26.0389 9.08742 26.0389 8.7669C26.0389 7.88453 25.4682 7.41741 24.9829 7.9027ZM6.50591 10.5399C6.25449 10.7913 6.26598 11.2079 6.53029 11.4274C6.67999 11.5514 7.80229 11.5921 10.2794 11.5628C13.4503 11.5254 13.8324 11.4931 13.9862 11.2492C14.111 11.0511 14.111 10.9039 13.9862 10.7057C13.8324 10.4619 13.4492 10.4296 10.255 10.3923C7.61671 10.3616 6.64598 10.3998 6.50591 10.5399ZM6.50311 13.3379C6.40062 13.4404 6.31676 13.6361 6.31676 13.7727C6.31676 14.3487 6.59893 14.3939 10.1991 14.3939C12.7216 14.3939 13.761 14.3416 13.895 14.2076C14.1749 13.9277 14.1196 13.4935 13.781 13.3123C13.3355 13.0739 6.74397 13.0971 6.50311 13.3379ZM6.56461 16.1496C6.3941 16.2743 6.30791 16.4987 6.34083 16.732C6.37165 16.9503 6.55723 17.1134 6.77768 17.1159L10.0244 17.1533C13.6765 17.1952 14.0814 17.1438 14.0814 16.6377C14.0814 16.5262 13.9716 16.3251 13.8374 16.1908C13.6304 15.9839 13.0794 15.9468 10.2177 15.9468C7.68504 15.9468 6.7727 15.9975 6.56461 16.1496ZM6.56461 18.9449C6.3941 19.0696 6.30791 19.294 6.34083 19.5272C6.37165 19.7455 6.55723 19.9086 6.77768 19.9112L10.0244 19.9485C13.6765 19.9905 14.0814 19.9391 14.0814 19.433C14.0814 19.3215 13.9716 19.1204 13.8374 18.986C13.6304 18.7792 13.0794 18.7421 10.2177 18.7421C7.68504 18.7421 6.7727 18.7927 6.56461 18.9449ZM6.38494 23.913C6.34177 24.0256 6.32624 24.9522 6.35046 25.9722C6.3749 27.0034 7.2179 27.8267 8.24943 27.8267H13.3826H18.3519C19.4669 27.8267 20.3707 26.9228 20.3707 25.8079C20.3707 24.691 19.4688 23.7838 18.3519 23.7774L13.4172 23.7487C7.7762 23.7159 6.44876 23.7468 6.38494 23.913ZM19.206 25.8079C19.206 26.2796 18.8236 26.662 18.3519 26.662H13.3826H8.41321C7.9415 26.662 7.5591 26.2796 7.5591 25.8079C7.5591 25.3362 7.9415 24.9538 8.41321 24.9538H13.3826H18.3519C18.8236 24.9538 19.206 25.3362 19.206 25.8079ZM12.9167 29.8801C11.4245 30.2609 10.985 32.1491 12.1505 33.1724C13.6292 34.4707 15.7949 32.9859 15.1726 31.1005C14.8895 30.2429 13.8017 29.6545 12.9167 29.8801ZM14.0554 31.6962C14.1267 32.0562 13.8003 32.4078 13.3947 32.4078C12.6769 32.4078 12.4395 31.6647 13.026 31.254C13.3175 31.0498 13.4152 31.0454 13.686 31.2249C13.8607 31.3408 14.027 31.5528 14.0554 31.6962Z" fill="white"/>
</svg>
