<svg width="38" height="33" viewBox="0 0 38 33" fill="none" xmlns="http://www.w3.org/2000/svg">
<path fill-rule="evenodd" clip-rule="evenodd" d="M17.5639 0.529665C17.4574 0.636215 17.3702 1.04062 17.3702 1.4284C17.3702 1.9316 17.2548 2.28467 16.9666 2.66244C16.7446 2.95352 16.563 3.27559 16.563 3.3781C16.563 3.51532 15.2413 3.56473 11.5781 3.56473C7.78216 3.56473 6.55554 3.61283 6.43527 3.76652C6.34842 3.87759 5.02574 6.76526 3.49627 10.1837C0.822026 16.1605 0.719027 16.4292 0.816698 17.1797C1.08291 19.2271 2.2979 20.9703 4.16398 21.9822C5.14682 22.515 5.24207 22.5339 6.95737 22.5339C8.59565 22.5339 8.80811 22.497 9.69974 22.0592C11.6189 21.1171 12.9711 19.2197 13.1295 17.247C13.1827 16.5841 13.068 15.9184 12.796 15.3115L10.7701 10.7909C9.42787 7.79589 8.3296 5.30795 8.3296 5.26226C8.3296 5.21657 10.1639 5.18186 12.4059 5.18525L15.702 5.19021C16.1908 5.19095 16.6482 5.43114 16.9262 5.83311C17.2153 6.25109 17.3702 6.74724 17.3702 7.25545V16.5627V22.8818C17.3702 24.9632 15.6829 26.6506 13.6014 26.6506C10.2138 26.6506 9.80758 26.6791 9.58576 26.9331C9.19185 27.3838 7.19953 31.4148 7.19953 31.7608C7.19953 32.4724 7.03211 32.4624 18.9039 32.4624C30.7241 32.4624 30.6082 32.4692 30.6082 31.7819C30.6082 31.4616 28.8234 27.8099 28.3172 27.0945C28.1203 26.8161 27.8005 26.6506 27.4595 26.6506H24.2204C22.1312 26.6506 20.4376 24.9569 20.4376 22.8677V16.5049C20.4376 6.60802 20.4453 6.35214 20.7562 6.07075C20.9316 5.91205 21.1182 5.64665 21.1708 5.48069C21.2609 5.19655 21.5053 5.17912 25.3895 5.17912C28.622 5.17912 29.4959 5.22271 29.4347 5.38092C29.3918 5.49199 28.2851 7.97234 26.9755 10.8929L25.0083 15.2801C24.7368 15.8857 24.6223 16.55 24.6755 17.2115C24.8376 19.2321 26.1635 21.1046 28.108 22.0592C28.9997 22.497 29.2121 22.5339 30.8504 22.5339C32.5657 22.5339 32.6609 22.515 33.6438 21.9822C35.5116 20.9693 36.7307 19.2187 36.9882 17.1797C37.0826 16.4314 36.9769 16.1547 34.4298 10.4916C32.9685 7.24248 31.6542 4.35481 31.5092 4.07439C31.3474 3.76134 31.0244 3.56473 30.672 3.56473H26.2452C22.5703 3.56473 21.2447 3.51532 21.2447 3.3781C21.2447 3.27559 21.0631 2.95352 20.8412 2.66244C20.5819 2.32245 20.4376 1.92369 20.4376 1.54689C20.4376 0.483009 20.2545 0.335938 18.9305 0.335938C18.2336 0.335938 17.679 0.414558 17.5639 0.529665ZM19.5981 3.59701C19.7046 3.70356 19.7918 4.01595 19.7918 4.2912C19.7918 4.92485 19.5375 5.17912 18.9039 5.17912C18.2702 5.17912 18.016 4.92485 18.016 4.2912C18.016 3.65755 18.2702 3.40329 18.9039 3.40329C19.1791 3.40329 19.4915 3.49046 19.5981 3.59701ZM9.13405 11.0284L9.49748 11.8383C10.2923 13.6097 9.00918 15.6147 7.06779 15.6351C4.80506 15.6588 2.92736 15.6519 2.89507 15.6196C2.81564 15.54 6.94042 6.32921 7.02178 6.40493C7.05714 6.43786 8.00769 8.51849 9.13405 11.0284ZM32.9192 11.0198C34.0433 13.522 34.9384 15.5937 34.9085 15.6238C34.8785 15.6536 32.9998 15.6588 30.7335 15.6351C28.7878 15.6147 27.5006 13.6066 28.2946 11.8301L28.6511 11.0324C29.772 8.52479 30.7309 6.47241 30.7823 6.47176C30.8336 6.47112 31.7953 8.51785 32.9192 11.0198Z" fill="white"/>
</svg>
