<svg width="37" height="38" viewBox="0 0 37 38" fill="none" xmlns="http://www.w3.org/2000/svg">
<path fill-rule="evenodd" clip-rule="evenodd" d="M9.17476 1.03611C6.95674 1.32268 5.03222 2.3554 3.42064 4.12393C1.83503 5.864 0.829025 8.00047 0.478726 10.3718C0.0748683 13.1054 0.815098 16.1852 2.74776 19.8126C5.29068 24.5855 9.73189 29.8523 15.9376 35.4546C18.0571 37.368 18.4305 37.6256 18.8821 37.4859C18.9842 37.4543 19.2483 37.2917 19.4691 37.1246C20.1668 36.5964 22.9194 34.1237 23.5791 33.4324C23.9697 33.0231 24.0334 32.8662 24.0084 32.3756C23.9763 31.7487 23.7169 31.3735 23.2189 31.2339C22.7832 31.1117 22.6307 31.216 20.7115 32.9501C19.0697 34.4336 18.7524 34.706 18.6664 34.706C18.5871 34.706 18.2761 34.4442 17.1419 33.4225C9.1512 26.224 4.20987 19.6777 2.89149 14.5434C2.46342 12.8763 2.4156 11.6728 2.71304 10.0489C2.85549 9.27094 2.99913 8.78251 3.28195 8.11441C4.35084 5.58948 6.47002 3.87968 8.96486 3.52948C9.58794 3.442 10.9859 3.49226 11.6021 3.62429C13.775 4.08983 15.528 5.5014 16.5953 7.64516C17.1458 8.75084 17.4411 9.92462 17.6003 11.6408C17.6361 12.0257 17.6832 12.3941 17.7052 12.4595C17.76 12.6226 18.1194 12.9888 18.3158 13.0817C18.5286 13.1823 18.8428 13.1785 19.0395 13.0728C19.2777 12.9449 19.5825 12.6196 19.6331 12.4391C19.6578 12.3512 19.7089 11.9535 19.7466 11.5555C19.8259 10.7168 19.9021 10.235 20.0591 9.57808C20.5649 7.46183 21.6371 5.8134 23.2361 4.69404C25.5553 3.07043 28.8684 3.04888 31.2597 4.64185C33.0251 5.81771 34.1888 7.69675 34.6405 10.1006C34.7393 10.6264 34.7647 10.907 34.7806 11.6489C34.8143 13.2131 34.6399 14.1064 33.8925 16.2001C33.5159 17.255 33.4934 17.4268 33.6777 17.8453C34.0225 18.6284 34.9182 18.7693 35.4027 18.1166C35.8686 17.489 36.6803 14.9242 36.858 13.5183C36.9467 12.817 36.9312 10.6586 36.8335 10.0985C36.4368 7.82378 35.3955 5.70228 33.8696 4.06024C32.6423 2.73956 31.1255 1.78222 29.5397 1.32724C28.699 1.08607 28.305 1.03492 27.28 1.03393C26.2543 1.03289 25.8745 1.0822 25.0203 1.32724C23.7592 1.68904 22.4206 2.45061 21.3679 3.40523C20.9766 3.76009 20.2362 4.58793 19.8791 5.06987C19.5352 5.53387 18.9511 6.4583 18.8057 6.76841C18.7458 6.89628 18.6838 7.00085 18.668 7.00085C18.6522 7.00085 18.5761 6.87264 18.4989 6.71587C18.4217 6.55916 18.2387 6.24131 18.0924 6.00961C16.9719 4.23549 15.7323 3.00214 14.2183 2.15502C13.069 1.51196 12.0876 1.19659 10.7172 1.02997C9.99373 0.941943 9.90075 0.94234 9.17476 1.03611ZM22.6012 15.6873C22.5087 15.721 22.3794 15.8094 22.3139 15.8837C22.1427 16.0779 21.7751 16.8256 21.0038 18.5488C20.0961 20.5765 19.2281 22.463 19.0121 22.8772C18.8831 23.1248 18.826 23.1967 18.8002 23.1445C18.7808 23.1052 18.54 22.3172 18.2651 21.3933C17.6822 19.4346 17.5852 19.1379 17.3983 18.7409C17.1735 18.2635 16.8925 18.0524 16.485 18.0546C16.1245 18.0565 15.8162 18.3167 14.6895 19.5699L14.5236 19.7545C14.1126 20.2117 13.5306 20.4781 12.9159 20.4903C11.9852 20.5088 11.944 20.5138 11.7039 20.6399C11.4066 20.7959 11.2532 21.0279 11.182 21.4294C11.0858 21.9711 11.2901 22.5158 11.6737 22.7402C11.8812 22.8616 12.5423 22.9056 13.6936 22.8744L13.98 22.8667C14.504 22.8525 15.0003 22.6287 15.3579 22.2455C15.6652 21.916 15.942 21.6401 15.9729 21.6324C16.0386 21.616 16.2545 22.2751 16.9922 24.7441C17.5502 26.6116 17.7149 27.1207 17.8197 27.3017C18.1004 27.7866 18.9767 27.8977 19.3154 27.4913C19.5283 27.2359 19.7352 26.8049 21.0627 23.8519C22.3557 20.9759 22.709 20.2237 22.7791 20.1972C22.8023 20.1884 22.8619 20.3214 22.9117 20.4926C23.3817 22.1099 25.7913 30.2132 25.996 30.8648C26.1415 31.3281 26.3266 31.8554 26.4071 32.0365C26.5946 32.4578 26.8077 32.5947 27.28 32.5977C27.7416 32.6005 27.8844 32.5004 28.1603 31.9801C28.5312 31.2805 29.2319 29.7453 30.7766 26.2478L31.4705 24.6765C31.943 23.6066 32.9982 22.9126 34.1677 22.9023L35.7945 22.8881C35.9872 22.8864 36.1762 22.8342 36.3426 22.7368C37.0632 22.3149 37.1288 21.2038 36.4627 20.705C36.1822 20.4949 35.8938 20.4738 33.5345 20.4908L31.6043 20.5047C31.4393 20.5059 31.2773 20.5492 31.1338 20.6304C30.7769 20.8323 30.7833 20.8197 28.8346 25.1841C28.1241 26.7755 27.523 28.0803 27.4989 28.0836C27.4425 28.0912 27.3455 27.7765 25.7305 22.3403C24.1046 16.8678 23.9091 16.2312 23.8048 16.0707C23.7605 16.0026 23.6366 15.885 23.5294 15.8096C23.2979 15.6466 22.8683 15.5901 22.6012 15.6873Z" fill="white"/>
</svg>
