<svg width="34" height="34" viewBox="0 0 34 34" fill="none" xmlns="http://www.w3.org/2000/svg">
<path fill-rule="evenodd" clip-rule="evenodd" d="M2.39141 0.187811C1.60161 0.396522 0.645477 1.37797 0.413805 2.21767C0.275743 2.71811 0.242626 5.47684 0.275302 13.767L0.315311 23.9065C0.317258 24.3999 0.444921 24.8848 0.686248 25.3152C0.921454 25.7348 1.31533 26.133 1.77823 26.4191C2.25189 26.7119 2.79656 26.8697 3.3534 26.8755L6.98307 26.9133L11.0612 26.9557C11.2706 26.9578 11.4267 27.1494 11.3866 27.3549C11.3442 27.5722 11.1914 28.495 11.0473 29.4057L10.9853 29.7975C10.87 30.5255 10.2423 31.0615 9.50527 31.0615C8.4807 31.0615 8.1585 31.1157 7.89018 31.3329C7.43449 31.7019 7.43449 32.4817 7.89018 32.8507C8.20737 33.1076 8.68632 33.1221 16.8033 33.1221C24.9202 33.1221 25.3991 33.1076 25.7163 32.8507C26.172 32.4817 26.172 31.7019 25.7163 31.3329C25.448 31.1157 25.1258 31.0615 24.1012 31.0615C23.3642 31.0615 22.7365 30.5255 22.6212 29.7975L22.5592 29.4057C22.4151 28.495 22.2621 27.5713 22.2194 27.3531C22.1792 27.1467 22.336 26.9544 22.5463 26.9523L26.6231 26.9116L30.2531 26.8752C30.8099 26.8696 31.3546 26.7119 31.8283 26.4191C32.2912 26.133 32.6851 25.7348 32.9203 25.3152C33.1616 24.8847 33.2893 24.3999 33.2915 23.9065L33.3343 13.9142C33.3677 6.14036 33.3331 2.95066 33.2092 2.37825C32.9855 1.34397 32.1151 0.42802 31.1174 0.176919C30.2157 -0.0501913 3.25275 -0.0398882 2.39141 0.187811ZM30.9606 2.38561C31.1779 2.58989 31.3012 2.8749 31.3012 3.17317V13.4314V23.6462C31.3012 23.9733 31.1712 24.287 30.9399 24.5183C30.7086 24.7497 30.3949 24.8797 30.0677 24.8797H16.8033H3.53877C3.21164 24.8797 2.89792 24.7497 2.66665 24.5183C2.43529 24.287 2.30531 23.9733 2.30531 23.6462V13.452V3.21439C2.30531 2.91411 2.41973 2.62511 2.62529 2.40622C2.82957 2.18888 3.11458 2.06563 3.41285 2.06563H16.7826H30.1524C30.4527 2.06563 30.7417 2.18005 30.9606 2.38561ZM12.0933 7.1926C6.47144 9.70126 6.63114 9.61795 6.50809 10.1082C6.34104 10.7738 6.78657 11.1587 8.71075 12.0108C9.78813 12.4878 10.4954 13.5416 10.5287 14.7194L10.5478 15.3936L10.5944 17.0412C10.6116 17.6508 10.8771 18.2269 11.3294 18.6361C13.3232 20.4402 16.6282 21.1034 19.3462 20.2449C20.6407 19.8358 22.3537 18.7966 22.9363 18.0665C22.9499 18.0494 22.9997 16.8556 23.0466 15.4135L23.0981 13.8374C23.119 13.1979 23.504 12.6267 24.089 12.3674L24.1289 12.3498C24.5756 12.1518 25.0835 12.4564 25.1193 12.9436C25.1598 13.4938 25.2839 14.0531 25.3949 14.1866C25.7237 14.5817 26.5166 14.4971 26.8859 14.0275C27.1788 13.6553 27.1985 13.4859 27.1542 11.727C27.1086 9.91615 27.0902 9.81754 26.7562 9.59602C26.3432 9.32225 17.3802 5.32788 16.9504 5.22618C16.7728 5.18408 14.8464 5.96403 12.0933 7.1926ZM20.0757 8.78016C21.8378 9.55893 23.3309 10.2428 23.3937 10.3C23.5094 10.4054 17.1503 13.3009 16.8033 13.3009C16.6996 13.3009 15.1419 12.6462 13.3418 11.8459C11.0956 10.8471 10.1326 10.3514 10.2717 10.2653C10.5547 10.09 16.6318 7.38188 16.764 7.37217C16.8233 7.3679 18.3135 8.00154 20.0757 8.78016ZM14.6558 14.6501C15.6478 15.0954 16.6141 15.4597 16.8033 15.4597C16.9924 15.4597 17.9587 15.0954 18.9507 14.6501C19.9426 14.2049 20.8113 13.8406 20.8809 13.8406C20.9507 13.8406 20.989 14.5858 20.9662 15.4965L20.9449 16.3425C20.9321 16.8503 20.6733 17.3202 20.251 17.6024C18.2579 18.9345 15.3486 18.9345 13.3555 17.6024C12.9332 17.3202 12.6744 16.8503 12.6616 16.3425L12.6404 15.4965C12.6175 14.5858 12.6558 13.8406 12.7256 13.8406C12.7952 13.8406 13.6639 14.2049 14.6558 14.6501ZM20.116 27.0507C20.1164 27.1113 20.2485 27.9228 20.4093 28.8537C20.5702 29.7847 20.7022 30.6622 20.7027 30.8039C20.7037 31.0428 20.4202 31.0615 16.8033 31.0615C13.1863 31.0615 12.9028 31.0428 12.9038 30.8039C12.9043 30.6622 13.0363 29.7847 13.1972 28.8537C13.358 27.9228 13.4901 27.1113 13.4905 27.0507C13.4911 26.99 14.9818 26.9403 16.8033 26.9403C18.6247 26.9403 20.1154 26.99 20.116 27.0507Z" fill="white"/>
</svg>
