<svg width="40" height="33" viewBox="0 0 40 33" fill="none" xmlns="http://www.w3.org/2000/svg">
<path fill-rule="evenodd" clip-rule="evenodd" d="M1.75563 3.69205C0.351863 6.69803 0.204941 7.10119 0.206061 7.94239C0.206861 8.45358 0.287684 9.19123 0.386113 9.58158C0.609057 10.4673 1.62263 11.6484 2.3718 11.8957C2.70383 12.0053 2.92812 12.3154 2.92812 12.6651V21.7576C2.92812 30.0955 2.96173 31.501 3.17091 31.9054C3.6901 32.9094 2.83178 32.8604 19.893 32.8604C36.9542 32.8604 36.0959 32.9094 36.6151 31.9054C36.8243 31.501 36.8579 30.0974 36.8579 21.776V12.8113C36.8579 12.3887 37.1073 12.006 37.4939 11.8354C38.2775 11.4897 39.1453 10.5033 39.3929 9.67649C39.4951 9.33543 39.5787 8.57057 39.5787 7.97664C39.5787 6.91746 39.5463 6.83439 37.8868 3.63395C36.8475 1.6294 34.7778 0.371094 32.5198 0.371094H19.7507H6.97124C4.73525 0.371094 2.70157 1.666 1.75563 3.69205ZM8.36281 1.4514C8.35897 1.60553 8.16099 2.8118 7.92268 4.13218C7.67099 5.52682 6.46725 6.54816 5.05024 6.56935L4.5686 6.57656C2.96205 6.60041 1.64776 6.5748 1.64776 6.51942C1.64776 6.46405 2.16166 5.23809 2.78984 3.79496L3.04631 3.2058C3.58413 1.97031 4.80334 1.17132 6.15081 1.17132C8.16003 1.17132 8.36905 1.19773 8.36281 1.4514ZM15.6763 2.09159C15.6231 2.59765 15.5316 3.82217 15.4729 4.81237C15.4129 5.82356 14.5754 6.61289 13.5624 6.61289H12.0487H10.8856C9.76289 6.61289 8.91349 5.59733 9.11198 4.49228C9.32148 3.32586 9.53739 2.10167 9.5918 1.7715C9.64904 1.42527 9.94843 1.17132 10.2993 1.17132H12.7321H14.8478C15.3423 1.17132 15.728 1.59971 15.6763 2.09159ZM22.8284 1.85152C22.8785 2.22571 22.9641 3.32394 23.019 4.29222C23.0738 5.2605 23.1539 6.17884 23.197 6.33281C23.27 6.5932 23.0381 6.61289 19.9007 6.61289H16.8937C16.7039 6.61289 16.5621 6.4386 16.6005 6.25279C16.6415 6.05481 16.7177 5.13646 16.7695 4.2122C16.8216 3.28793 16.9056 2.22571 16.9563 1.85152C17.0091 1.46192 17.3418 1.17132 17.7349 1.17132H19.893H22.0513C22.4441 1.17132 22.7764 1.4621 22.8284 1.85152ZM29.9759 1.29568C29.9759 1.36402 30.2203 2.58837 30.5189 4.01646C30.799 5.35526 29.7771 6.61289 28.4094 6.61289H27.7417H26.1454C25.1764 6.61289 24.3745 5.85946 24.3141 4.89239C24.2552 3.94604 24.1626 2.72185 24.1085 2.17161C24.0557 1.63577 24.4767 1.17132 25.0151 1.17132H26.993C28.6336 1.17132 29.9759 1.22734 29.9759 1.29568ZM36.8579 3.75255C37.5181 5.16991 38.0822 6.39331 38.1115 6.47125C38.1413 6.55015 36.8668 6.61289 35.2301 6.61289H34.9484C33.405 6.61289 32.0754 5.52503 31.7699 4.01214C31.481 2.58181 31.2473 1.3573 31.2505 1.29136C31.2537 1.22542 32.2466 1.17228 33.4569 1.1734C34.7995 1.17477 36.0198 1.95344 36.5868 3.17048L36.8579 3.75255ZM7.24937 8.41597C7.24937 10.0267 6.27837 10.9778 4.40775 11.1993C2.70166 11.4015 1.32766 10.1525 1.32766 8.39932C1.32766 7.94305 1.69755 7.57317 2.15382 7.57317H4.28852H6.40657C6.87203 7.57317 7.24937 7.9505 7.24937 8.41597ZM15.2517 8.2985C15.2517 9.78692 14.4465 10.769 12.9524 11.1035C11.9139 11.3358 10.8991 11.2081 9.96215 10.7274C9.09422 10.2819 8.68978 9.54733 8.68978 8.41597C8.68978 7.9505 9.06712 7.57317 9.53258 7.57317H11.9707H14.5263C14.9269 7.57317 15.2517 7.89791 15.2517 8.2985ZM23.1906 8.48799C23.1314 8.99117 22.9555 9.62127 22.7994 9.88823C21.9195 11.3949 18.6984 11.6886 17.3888 10.3815C16.8629 9.8567 16.5344 8.97853 16.533 8.09332C16.5325 7.8062 16.7651 7.57317 17.0522 7.57317H19.9151H22.3769C22.8672 7.57317 23.2478 8.00099 23.1906 8.48799ZM31.0962 8.41597C31.0962 9.54733 30.6918 10.2819 29.8239 10.7274C28.887 11.2081 27.8721 11.3358 26.8336 11.1035C25.3395 10.769 24.5343 9.78692 24.5343 8.2985C24.5343 7.89791 24.8591 7.57317 25.2597 7.57317H27.8153H30.2534C30.7189 7.57317 31.0962 7.9505 31.0962 8.41597ZM38.4558 8.41341C38.4502 10.1989 37.1804 11.3507 35.3826 11.2014C33.4862 11.0439 32.5366 10.1459 32.5366 8.50976C32.5366 7.99249 32.956 7.57317 33.4732 7.57317H35.4975H37.6181C38.0817 7.57317 38.4572 7.94977 38.4558 8.41341ZM9.32997 11.6311C10.2715 12.1393 11.6121 12.4112 12.5224 12.2787C13.78 12.0957 14.8903 11.5962 15.392 10.9874C15.6423 10.6838 16.0997 10.6618 16.3779 10.94L16.5093 11.0715C18.1069 12.669 21.6718 12.6764 23.2629 11.0852L23.3855 10.9627C23.6638 10.6844 24.1193 10.6992 24.3789 10.995C25.9131 12.7423 29.809 12.6906 31.3433 10.9028C31.5876 10.6182 32.023 10.6034 32.286 10.8707L32.3675 10.9535C32.8863 11.4807 33.3377 11.6815 35.0574 12.15C35.2145 12.1927 35.2574 14.1951 35.2574 21.4791C35.2574 26.5801 35.2137 30.8675 35.1603 31.0068C35.0783 31.2201 34.7272 31.26 32.926 31.26C31.7434 31.26 30.7826 30.3055 30.7747 29.1229L30.7425 24.3116L30.7017 18.1966C30.6981 17.6539 30.5286 17.1252 30.216 16.6815C29.9519 16.3069 29.4185 15.8325 29.0305 15.6278C28.359 15.2733 28.1704 15.2555 25.1094 15.2589C22.3212 15.2619 21.8084 15.3018 21.2534 15.5588C20.5082 15.9037 19.8251 16.5858 19.5832 17.2263C19.4726 17.5189 19.4129 20.0595 19.4129 24.47C19.4129 28.2156 16.3653 31.246 12.6198 31.225L12.0107 31.2216C7.91094 31.1985 4.59473 27.8776 4.57749 23.7778L4.56892 21.7372L4.53446 13.5405C4.53135 12.8011 5.01404 12.1475 5.72157 11.9328C6.69177 11.6385 7.01138 11.4549 7.43838 10.9465L7.60108 10.7526C7.78373 10.535 8.123 10.5496 8.28631 10.7821C8.46428 11.0353 8.93385 11.4173 9.32997 11.6311ZM28.7916 17.2399C29.14 17.5884 29.3357 18.0609 29.3357 18.5537V24.522V27.0188C29.3357 29.3611 27.4369 31.26 25.0945 31.26C22.7525 31.26 20.8543 29.3608 20.8555 27.0188L20.8568 24.498C20.8602 18.3321 20.8848 17.7062 21.1369 17.3968C21.658 16.7576 21.9574 16.7057 25.1505 16.7006L27.4779 16.697C27.9705 16.6962 28.4432 16.8916 28.7916 17.2399ZM9.34693 17.8758C9.21809 18.0309 9.17712 19.3365 9.20721 22.3171L9.21916 23.4981C9.23628 25.1892 10.5993 26.558 12.2903 26.5823C15.0079 26.6214 15.3519 26.5969 15.5313 26.3517C15.7875 26.001 15.819 18.4382 15.5662 17.9656C15.4116 17.6769 15.2033 17.6561 12.4648 17.6561C10.1715 17.6561 9.48937 17.7041 9.34693 17.8758ZM14.2914 22.2225V23.4673C14.2914 24.4988 13.4421 25.3281 12.4109 25.3034C11.3609 25.2782 10.5186 24.4275 10.5037 23.3774L10.4868 22.1774L10.4705 21.0202C10.4556 19.9622 11.3092 19.0965 12.3673 19.0965C13.43 19.0965 14.2914 19.9579 14.2914 21.0206V22.2225ZM21.981 25.2493C21.5487 25.7702 22.2641 26.3968 22.7436 25.9173C22.9473 25.7134 22.9683 25.5884 22.834 25.3752C22.6003 25.0043 22.2298 24.9495 21.981 25.2493Z" fill="white"/>
</svg>
