<svg width="41" height="41" viewBox="0 0 41 41" fill="none" xmlns="http://www.w3.org/2000/svg">
<path d="M5.59808 1.35279C5.66286 1.32846 5.72679 1.30685 5.79568 1.30039C5.97824 1.28327 6.15542 1.22247 6.32714 1.1582C6.68875 1.02286 7.05876 1.12761 7.44759 1.18055C7.55772 1.18347 7.62371 1.20867 7.71325 1.27014C7.72295 1.2771 7.75476 1.30357 7.76524 1.3093C7.89944 1.38263 8.05725 1.2743 8.2196 1.34631C8.67609 1.49023 9.09748 1.64096 9.49644 1.908C9.59792 1.97583 9.67166 2.03334 9.77497 2.0974C10.1577 2.37146 10.4974 2.65045 10.7735 3.0331C10.8425 3.10788 10.8895 3.16501 10.9552 3.24329C11.2266 3.63934 11.4226 4.04226 11.6064 4.48282C11.6505 4.57732 11.6756 4.64887 11.711 4.74746C11.7775 4.97179 11.8134 5.20491 11.8724 5.43133C11.8792 5.45754 11.886 5.48447 11.8927 5.51256C11.9112 5.67548 11.919 5.8289 11.9198 5.98346C11.921 6.24512 11.9029 6.50776 11.9023 6.76943C11.8924 6.94776 11.8432 7.08694 11.8161 7.26098C11.789 7.38797 11.7539 7.48167 11.728 7.60785C11.5727 8.05286 11.3771 8.44871 11.1551 8.86391C11.0912 8.96742 11.0325 9.04025 10.9665 9.14104C10.8991 9.24226 10.8005 9.32186 10.7555 9.42061C10.6826 9.58085 10.8219 9.7505 10.9522 9.86899C11.2856 10.1931 11.6039 10.4945 11.8906 10.8611C11.9614 10.9318 12.0098 10.986 12.0842 11.0534C12.3864 11.3596 12.6959 11.6223 12.9527 11.9694C13.0419 12.0708 13.1156 12.1496 13.217 12.2398C13.5271 12.5368 13.8121 12.82 14.0781 13.1565C14.1488 13.2273 14.1973 13.2814 14.2714 13.3489C14.4747 13.5505 14.6747 13.7384 14.8666 13.939C15.0574 14.1384 15.298 14.3356 15.512 14.1612C15.7062 14.003 15.9177 13.8693 16.1448 13.7112C16.2237 13.6555 16.2835 13.6186 16.354 13.5527C16.4095 13.5089 16.475 13.4803 16.5405 13.4534C16.7946 13.3489 17.0219 13.226 17.2752 13.1062C17.3895 13.0571 17.4829 13.031 17.5972 12.9759C17.9315 12.8438 18.2656 12.7624 18.6076 12.691C18.9545 12.6185 19.3104 12.5883 19.6562 12.5102C20.2326 12.449 20.7702 12.4905 21.3395 12.5821C21.6902 12.6112 22.0325 12.7098 22.3689 12.8128C22.6482 12.8983 22.9205 12.9934 23.1956 13.1151C23.2924 13.1606 23.3598 13.1984 23.4548 13.2434C23.7239 13.3317 23.9412 13.6536 24.2448 13.3119C24.3182 13.2233 24.3712 13.1528 24.4323 13.0554C24.6835 12.6757 24.9612 12.3462 25.2047 11.9613C25.2688 11.8652 25.325 11.796 25.3879 11.6984C25.5366 11.4787 25.7237 11.3148 25.8003 11.0514C25.826 10.9941 25.8454 10.9643 25.8878 10.9188C25.9604 10.858 26.0187 10.8205 26.0777 10.7456C26.3054 10.4148 26.5523 10.1284 26.7533 9.7805C26.7708 9.74148 26.7787 9.72654 26.8007 9.69086C26.8917 9.5659 26.8822 9.40836 26.7924 9.28258C26.605 9.02029 26.338 8.82724 26.1717 8.53609C26.118 8.45939 26.0832 8.4014 26.0232 8.33067C25.976 8.27312 25.9497 8.2315 25.915 8.1665C25.8851 8.10016 25.8695 8.05432 25.8373 7.98873C25.8177 7.95248 25.8097 7.93792 25.7899 7.90114C25.7188 7.75587 25.6549 7.63496 25.5902 7.48619C25.5626 7.41488 25.5487 7.36599 25.5213 7.29475C25.5052 7.25518 25.4989 7.23922 25.4836 7.19893C25.4478 7.09055 25.4218 7.00624 25.3837 6.89622C25.3507 6.77459 25.3239 6.68034 25.2926 6.55472C25.2242 6.13303 25.1643 5.742 25.1957 5.31169C25.2466 4.98488 25.3027 4.69204 25.3707 4.37001C25.4348 4.06487 25.567 3.81576 25.677 3.52792C25.7206 3.43173 25.7585 3.36521 25.805 3.27172C26.0405 2.86553 26.314 2.51932 26.6101 2.155C26.6762 2.07723 26.7314 2.02731 26.8059 1.95729C27.179 1.66986 27.5262 1.39386 27.9421 1.16454C28.1099 1.08762 28.3082 1.09569 28.482 1.03349C28.6012 0.990853 28.7186 0.946205 28.8392 0.899623C28.9648 0.851099 29.0848 0.789636 29.2033 0.725769C29.2814 0.68369 29.3593 0.646624 29.4388 0.618853C29.8403 0.478611 30.2873 0.632784 30.7113 0.666085C30.8111 0.673928 30.911 0.683475 31.0117 0.694494C31.2476 0.720311 31.4915 0.686308 31.7252 0.727544C31.9286 0.772215 32.0903 0.851081 32.295 0.8939C32.4696 0.946288 32.6122 1.00459 32.7627 1.10025C32.7825 1.11281 32.8104 1.12428 32.8332 1.12984C32.8988 1.14585 32.9301 1.20414 32.9705 1.25832C33.0435 1.35632 33.1828 1.35832 33.2927 1.42747C33.7052 1.66403 33.9996 1.99226 34.3364 2.31443C34.4082 2.38496 34.4549 2.44088 34.5195 2.51735C34.6233 2.67414 34.7409 2.78716 34.8445 2.94353C34.8815 3.01459 34.9001 3.06453 34.9344 3.13703C34.9556 3.17694 34.9641 3.19306 34.9847 3.23405C35.1318 3.51152 35.2453 3.77291 35.3453 4.07292C35.5445 4.57906 35.6036 5.07482 35.5727 5.61599C35.5922 6.00774 35.5562 6.40541 35.4668 6.78731C35.3977 7.08204 35.3045 7.36729 35.1649 7.65125C35.1034 7.76249 35.0502 7.84383 34.9957 7.95616C34.8364 8.27306 34.6643 8.55432 34.4321 8.81779C34.3858 8.87029 34.343 8.92572 34.3025 8.98276C34.2643 9.03017 34.2411 9.05595 34.1994 9.09974C34.1213 9.17864 34.0577 9.2357 33.981 9.31651C33.95 9.34733 33.9372 9.35937 33.904 9.38864C33.8692 9.41673 33.8548 9.42758 33.8176 9.45326C33.5027 9.66005 33.2436 9.89952 32.8958 10.0608C32.767 10.126 32.6601 10.1718 32.5329 10.2444C32.0851 10.4606 31.6339 10.5654 31.1448 10.6588C30.9104 10.6827 30.7069 10.6571 30.4713 10.6839C29.9182 10.6991 29.4067 10.6571 28.8823 10.4795C28.6367 10.3859 28.4125 10.323 28.1801 10.209C28.1403 10.1904 28.1244 10.1835 28.0857 10.1663C27.9679 10.118 27.8442 10.1746 27.7549 10.2653C27.5035 10.5207 27.3669 10.8479 27.1246 11.1219C27.0517 11.2135 26.9972 11.2847 26.9356 11.3837C26.7059 11.7403 26.4397 12.0398 26.2185 12.4027C26.0922 12.6611 25.9228 12.885 25.7466 13.1029C25.2622 13.7022 25.3288 14.4049 25.8344 14.9864C25.9193 15.0713 25.9761 15.1436 26.0504 15.237C26.3375 15.6062 26.5812 15.9713 26.8337 16.3642C26.8849 16.4545 26.9171 16.523 26.9667 16.6155C27.2034 17.0897 27.3739 17.5567 27.5081 18.0693C27.5358 18.266 27.5755 18.4291 27.6216 18.6235C27.7078 19.0564 27.7452 19.4604 27.7103 19.8984C27.7186 20.1127 27.9997 20.1515 28.2122 20.1807C28.423 20.2096 28.6306 20.2392 28.8404 20.2698C29.1504 20.315 29.457 20.4193 29.77 20.4067C29.9187 20.4165 30.0402 20.4261 30.0807 20.2447C30.1298 20.096 30.194 19.9795 30.2428 19.831C30.2562 19.7926 30.2619 19.7773 30.2768 19.7397C30.3046 19.6727 30.3244 19.6287 30.3496 19.5606C30.3905 19.4626 30.4396 19.3965 30.4911 19.3032C30.5348 19.2216 30.5681 19.1627 30.6125 19.08C30.8552 18.6914 31.1305 18.3624 31.4725 18.052C31.5434 17.9814 31.598 17.933 31.6688 17.8615C31.8463 17.7132 32.0298 17.5864 32.2194 17.4684C32.5952 17.2345 32.9947 17.0349 33.4161 16.8994C33.496 16.8731 33.5508 16.8597 33.6304 16.8291C33.676 16.8124 33.6945 16.806 33.7416 16.7914C34.0665 16.708 34.3701 16.6716 34.7023 16.6175C34.8185 16.6085 34.9034 16.6203 35.0206 16.6111C35.2053 16.6011 35.357 16.6102 35.5402 16.6328C35.7851 16.6939 36.0386 16.7165 36.2835 16.7778C36.6206 16.8622 36.9418 16.9708 37.2731 17.1009C38.166 17.5636 38.881 18.1784 39.4426 18.9984C39.496 19.0753 39.5253 19.1376 39.6072 19.1886C39.6094 19.1904 39.6115 19.1921 39.6136 19.1939C39.7041 19.2686 39.6625 19.4165 39.7239 19.5165C39.7696 19.6002 39.7958 19.6658 39.8415 19.7544C40.0585 20.2319 40.1707 20.706 40.2267 21.2266C40.2438 21.329 40.2279 21.4032 40.188 21.4892C40.1745 21.5183 40.1603 21.5513 40.155 21.583C40.143 21.6554 40.1685 21.7242 40.1961 21.7922C40.207 21.8191 40.2165 21.846 40.2251 21.8743C40.2483 21.9513 40.2493 22.0329 40.2393 22.1128C40.1804 22.5822 40.0777 23.0194 39.9339 23.4741C39.7768 23.8796 39.5439 24.2139 39.3583 24.6028C39.3339 24.663 39.3151 24.6948 39.2741 24.744C39.2164 24.7985 39.1731 24.8285 39.1144 24.8793C39.085 24.9095 39.0733 24.9216 39.0441 24.9518C38.9438 25.0523 38.8563 25.1308 38.7785 25.2509C38.6622 25.4124 38.5432 25.5365 38.3748 25.6469C38.2965 25.6941 38.2428 25.7315 38.1851 25.8029C38.1148 25.8795 38.0103 25.9088 37.9137 25.9472C37.7023 26.0311 37.5332 26.1691 37.3273 26.2782C37.2513 26.313 37.1984 26.3307 37.1206 26.3616C37.0774 26.3799 37.0599 26.3869 37.0154 26.4034C36.7105 26.496 36.4405 26.6053 36.1232 26.6639C35.9922 26.6966 35.8892 26.715 35.7536 26.7388C35.6368 26.7485 35.5267 26.7519 35.417 26.7532C35.1476 26.7562 34.8774 26.7388 34.6083 26.7522C34.3335 26.7474 34.0986 26.6966 33.8306 26.654C33.6352 26.6292 33.4984 26.5302 33.3096 26.4908C33.2247 26.4679 33.172 26.4435 33.0946 26.4059C32.9747 26.3363 32.8701 26.3005 32.7425 26.2487C32.3375 26.0435 31.9984 25.7901 31.6333 25.5257C31.5545 25.462 31.5035 25.4091 31.4287 25.3412C31.0758 25.0049 30.8289 24.6225 30.5492 24.2305C30.4947 24.1455 30.4637 24.0791 30.4152 23.9906C30.4087 23.9773 30.4022 23.9642 30.3957 23.9512C30.2437 23.6457 30.1142 23.3278 30.0136 23.0017C29.9807 22.8587 29.9937 22.7378 29.9386 22.5977C29.9069 22.4716 29.906 22.3723 29.9014 22.2446C29.8344 21.5121 29.8344 21.5121 29.0428 21.3797C28.921 21.3507 28.8231 21.3586 28.7003 21.3336C28.5642 21.2961 28.4554 21.2699 28.3137 21.2718C28.2309 21.2701 28.1764 21.2633 28.0952 21.2523C28.0512 21.2446 28.0339 21.241 27.9911 21.2308C27.9158 21.2104 27.8657 21.1981 27.7871 21.2054C27.5793 21.2389 27.5446 21.3816 27.5114 21.5232C27.4489 21.7897 27.3697 22.0514 27.2693 22.3363C27.1537 22.7895 26.9104 23.1551 26.6973 23.5649C26.6461 23.6534 26.5902 23.7037 26.5306 23.7848C26.434 23.9013 26.3659 24.0048 26.2794 24.1281C26.0083 24.4725 25.7379 24.7822 25.4136 25.0801C25.3371 25.1412 25.2809 25.1847 25.2128 25.2552C24.9607 25.4956 24.7028 25.6966 24.428 25.903C24.3625 25.9523 24.2893 25.996 24.2133 26.0267C23.9867 26.1183 24.0452 26.4002 24.1449 26.6233C24.2779 26.9209 24.3988 27.218 24.5608 27.5123C24.6084 27.6015 24.6378 27.6689 24.6857 27.7583C24.9169 28.1714 25.0578 28.5953 25.2866 29.0095C25.3337 29.0993 25.3623 29.1671 25.4097 29.2565C25.5035 29.4656 25.6198 29.6321 25.7209 29.8376C25.7491 29.9122 25.7514 29.9653 25.7699 30.0133C25.9545 30.4935 26.0318 30.5307 26.6006 30.3982C27.0977 30.2884 27.5692 30.2728 28.0774 30.3161C28.4662 30.3529 28.8508 30.447 29.2232 30.5642C29.5199 30.6576 29.8053 30.7719 30.0859 30.93C30.1974 30.9904 30.2751 31.0481 30.3803 31.1155C30.7412 31.3603 31.0787 31.5895 31.3736 31.9114C31.4518 32.0219 31.5201 32.1052 31.6203 32.1978C31.9271 32.5621 32.1634 32.9369 32.3475 33.3742C32.3835 33.4487 32.4034 33.4999 32.4367 33.5753C32.512 33.789 32.5809 33.9763 32.6278 34.1978C32.6412 34.2763 32.646 34.329 32.6654 34.4061C32.6788 34.4487 32.6837 34.4659 32.6947 34.5096C32.7136 34.6082 32.717 34.6814 32.7254 34.7824C32.7211 34.9276 32.7466 35.0394 32.7917 35.1787C32.8373 35.4211 32.7802 35.6704 32.7529 35.9155C32.7297 36.1237 32.7113 36.3292 32.6551 36.5416C32.6271 36.6503 32.5918 36.7242 32.5625 36.8311C32.4094 37.2811 32.2575 37.6992 31.9769 38.0911C31.7878 38.4468 31.5466 38.7267 31.2477 38.9961C31.072 39.1592 30.9191 39.3071 30.7164 39.437C30.6822 39.4633 30.6684 39.4735 30.6338 39.4988C30.5719 39.5441 30.5293 39.5727 30.4719 39.6247C30.4161 39.6679 30.3507 39.6962 30.2855 39.7232C29.9788 39.8503 29.705 40.0048 29.397 40.141C29.185 40.2159 28.9497 40.1747 28.729 40.218C28.6472 40.234 28.5661 40.2515 28.4847 40.2677C28.0791 40.3483 27.6606 40.495 27.251 40.4381C27.2195 40.4338 27.1879 40.4272 27.1559 40.4181C27.0286 40.3821 26.9103 40.3172 26.7814 40.2872C26.5344 40.2297 26.2877 40.2032 26.0503 40.1175C25.907 40.0657 25.7451 40.0706 25.5959 40.0395C25.5678 40.0336 25.5366 40.0224 25.5107 40.0102C25.0883 39.8121 24.6827 39.6343 24.3327 39.3168C24.2394 39.2421 24.1652 39.1881 24.0684 39.1181C23.7514 38.8234 23.5133 38.4994 23.2511 38.1594C23.1826 38.0596 23.1333 37.9805 23.062 37.8813C22.8125 37.4688 22.6864 37.0393 22.5432 36.5851C22.5112 36.4614 22.4902 36.3654 22.4639 36.2401C22.4529 36.1713 22.4492 36.1316 22.4465 36.0619C22.4641 35.8886 22.4052 35.7568 22.3766 35.5897C22.3391 35.2512 22.4203 34.9521 22.4539 34.6191C22.4611 34.5698 22.4648 34.5504 22.4755 34.5024C22.4976 34.4184 22.5228 34.3655 22.5308 34.279C22.5662 34.063 22.6352 33.8854 22.6993 33.677C22.8645 33.2418 23.0678 32.8573 23.3321 32.4721C23.3999 32.3704 23.464 32.3015 23.5439 32.2099C23.8099 31.8729 24.1054 31.6046 24.4484 31.3451C24.6253 31.2182 24.8757 31.1432 24.9465 30.9374C24.9776 30.8468 24.958 30.7443 24.8969 30.628C24.8061 30.4549 24.7209 30.2789 24.6164 30.0822C24.555 29.9606 24.5112 29.8607 24.4415 29.7425C24.251 29.3519 24.1087 28.9696 23.8911 28.5914C23.7843 28.3547 23.6697 28.1517 23.5631 27.9159C23.5346 27.843 23.5196 27.7932 23.4889 27.7218C23.47 27.6832 23.4622 27.6677 23.4431 27.6291C23.3516 27.4333 23.2655 27.2635 23.1629 27.0733C23.0545 26.8677 22.8767 26.6731 22.6562 26.7467C22.6061 26.7634 22.5549 26.7823 22.5005 26.7935C22.3976 26.819 22.322 26.8371 22.2207 26.8778C21.774 27.0252 21.3352 27.0533 20.8722 27.1325C20.6317 27.1449 20.425 27.1547 20.1837 27.1418C19.687 27.1817 19.2385 27.0873 18.7561 27.0024C18.6422 26.9731 18.5589 26.9565 18.4492 26.9232C18.2891 26.8872 18.1625 26.8421 18.0043 26.8084C17.8405 26.7664 17.716 26.6982 17.5571 26.6476C17.5166 26.6342 17.5006 26.6285 17.461 26.6137C17.3909 26.5861 17.3449 26.5663 17.2741 26.541C17.1576 26.4931 17.0759 26.4339 16.9631 26.378C16.8638 26.3269 16.788 26.2858 16.6836 26.2419C16.2791 26.046 15.9223 25.8264 15.5784 25.5385C15.4864 25.4646 15.4124 25.412 15.3168 25.3425C15.2564 25.2891 15.3036 25.3372 15.2652 25.3001C14.8056 24.8574 14.8056 24.8574 14.2995 25.3058C14.2094 25.3828 14.1297 25.4287 14.0368 25.5024C13.6822 25.7796 13.3595 26.0523 13.0102 26.336C12.9361 26.4056 12.8783 26.4518 12.7994 26.5161C12.4257 26.7978 12.0954 27.0888 11.7189 27.3666C11.6437 27.4335 11.587 27.48 11.5128 27.5482C11.1561 27.823 10.828 28.0886 10.4916 28.3864C10.3563 28.5028 10.2 28.6184 10.1457 28.7884C10.1087 28.9046 10.1418 29.0221 10.2298 29.1515C10.3942 29.3935 10.4995 29.666 10.5996 29.9687C10.6521 30.1006 10.6747 30.213 10.7305 30.3455C10.7348 30.3602 10.739 30.3747 10.7432 30.3891C10.8338 30.7061 10.8401 31.0412 10.9159 31.3621C10.9346 31.5429 10.942 31.6926 10.9245 31.8743C10.889 32.2049 10.818 32.5306 10.7545 32.857C10.7517 32.8713 10.7489 32.8859 10.7462 32.9007C10.7008 33.0399 10.6629 33.1505 10.6172 33.2887C10.4584 33.7486 10.2437 34.1493 9.96905 34.5518C9.92269 34.6228 9.88697 34.6666 9.83353 34.7318C9.51433 35.0717 9.20237 35.3797 8.84757 35.6841C8.7497 35.7547 8.66903 35.8016 8.57146 35.8738C8.17818 36.1403 7.76656 36.3054 7.31789 36.4589C7.19917 36.4894 7.10679 36.5072 6.98938 36.5391C6.85576 36.5697 6.7488 36.5927 6.61419 36.6165C6.53375 36.6296 6.47913 36.6327 6.40019 36.6576C6.35497 36.6708 6.33657 36.6758 6.28976 36.687C6.18249 36.7062 6.10289 36.7114 5.99189 36.7145C5.74701 36.7246 5.53334 36.7296 5.28766 36.7125C5.10516 36.7143 4.97061 36.632 4.78905 36.6329C4.63498 36.6185 4.51892 36.5783 4.37219 36.5376C4.25174 36.4949 4.15641 36.4725 4.03339 36.4409C3.58737 36.2846 3.19509 36.0867 2.7992 35.8341C2.69763 35.7667 2.62183 35.7121 2.52322 35.6416C2.21249 35.3466 1.9209 35.0713 1.62766 34.7596C1.55576 34.6657 1.50634 34.5893 1.42784 34.4995C1.16359 34.099 0.948693 33.7047 0.79215 33.251C0.756699 33.1526 0.751302 33.0786 0.7623 32.9755C0.764498 32.8328 0.785096 32.7149 0.695646 32.5862C0.627835 32.4825 0.597591 32.3952 0.577913 32.2752C0.568664 32.1943 0.569868 32.1399 0.548632 32.0613C0.535699 32.0181 0.530891 32.0007 0.520322 31.9566C0.492383 31.7666 0.495256 31.6029 0.509953 31.4119C0.516481 31.3667 0.51989 31.3488 0.529777 31.3044C0.549322 31.2253 0.56923 31.1741 0.570433 31.0912C0.575717 30.9673 0.611049 30.8801 0.668943 30.7715C0.747875 30.5701 0.712356 30.3394 0.76516 30.1297C0.766 30.1264 0.766856 30.123 0.767725 30.1196C0.904076 29.6954 1.06106 29.3113 1.318 28.9415C1.38697 28.8431 1.44525 28.7714 1.51022 28.6709C1.78999 28.2969 2.07657 27.9666 2.46683 27.6959C2.54392 27.6289 2.60238 27.5828 2.68267 27.5186C3.08834 27.2514 3.50855 27.0701 3.94775 26.8645C4.06284 26.8231 4.15395 26.8001 4.27097 26.7672C4.40442 26.736 4.51132 26.713 4.64585 26.6892C4.72626 26.676 4.78088 26.6728 4.85982 26.6478C4.90513 26.6346 4.92358 26.6296 4.97054 26.6184C5.07836 26.5991 5.15837 26.5936 5.27014 26.5909C5.38171 26.5851 5.48691 26.582 5.59159 26.5812C5.85253 26.579 6.11392 26.5885 6.37467 26.5987C6.59188 26.6349 6.77524 26.677 6.98914 26.7232C7.07692 26.7492 7.1373 26.7582 7.22474 26.7817C7.68578 26.9624 8.11436 27.1424 8.54096 27.3916C8.6434 27.4592 8.71956 27.5144 8.81944 27.585C8.91228 27.6486 8.98909 27.7315 9.07495 27.7912C9.28037 27.934 9.53184 27.765 9.72517 27.6062C10.0774 27.3572 10.3778 27.0883 10.7187 26.8256C10.7978 26.7647 10.8551 26.7204 10.9258 26.6498C11.2805 26.3692 11.6055 26.0958 11.9581 25.8127C12.0531 25.7434 12.1319 25.6982 12.2178 25.6176C12.5637 25.3297 12.8929 25.064 13.2404 24.7772C13.3146 24.7075 13.3725 24.6611 13.4514 24.5965C14.1201 24.1056 14.1202 24.1056 13.7337 23.4395C13.6676 23.3257 13.6105 23.2073 13.5348 23.0682C13.4752 22.9494 13.4359 22.8509 13.3711 22.7347C13.3506 22.6949 13.3428 22.6787 13.3246 22.6375C13.2032 22.217 13.0259 21.8162 12.9198 21.3917C12.9165 21.3784 12.9132 21.3651 12.91 21.3517C12.8583 21.1114 12.8192 20.8665 12.7902 20.6225C12.779 20.528 12.7679 20.4342 12.7569 20.3398C12.727 20.0821 12.7173 19.8213 12.722 19.5619C12.7333 19.424 12.7722 19.3243 12.7897 19.1893C12.7944 18.9422 12.8259 18.6953 12.8753 18.4531C12.9071 18.2968 12.9434 18.1427 12.9845 17.9797C13.0161 17.8746 13.052 17.8027 13.0768 17.6963C13.2399 17.2326 13.3825 16.7922 13.6302 16.3634C13.8288 15.9845 14.0854 15.6765 14.3135 15.3499C14.4423 15.1655 14.323 14.9766 14.1783 14.8043C13.9812 14.5699 13.7908 14.3384 13.5518 14.1297C13.4795 14.0597 13.4304 14.0057 13.3561 13.9377C13.0468 13.6394 12.8269 13.2982 12.4959 13.0192C12.3995 12.923 12.3259 12.8427 12.2237 12.752C11.9075 12.4335 11.5952 12.1492 11.2883 11.8229C11.2184 11.737 11.1798 11.66 11.0881 11.5945C10.986 11.52 10.9134 11.4515 10.8425 11.3482C10.7949 11.274 10.7556 11.2248 10.6762 11.1798C10.4725 11.0524 10.3218 10.9068 10.1885 10.7088C10.1375 10.6128 10.0921 10.545 9.99866 10.4858C9.95183 10.4549 9.9267 10.4358 9.88604 10.4004C9.79935 10.3296 9.68284 10.3844 9.5869 10.4421C9.26495 10.6359 8.9424 10.8018 8.57728 10.9334C8.47958 10.9748 8.40269 10.9908 8.30365 11.0339C8.17839 11.0739 8.05823 11.1102 7.93739 11.1408C7.62589 11.2197 7.29603 11.1956 6.98445 11.2741C6.87667 11.293 6.7974 11.2935 6.68915 11.296C6.6024 11.2967 6.54533 11.29 6.46046 11.2786C6.41434 11.2708 6.39607 11.267 6.35083 11.2565C6.27061 11.2331 6.21597 11.2246 6.1315 11.2225C5.84567 11.2095 5.59663 11.1511 5.31941 11.0844C5.19661 11.0495 5.10491 11.0149 4.98384 10.9759C4.51876 10.8113 4.11365 10.5948 3.70168 10.3304C3.61568 10.2713 3.56074 10.2197 3.48281 10.1522C3.12067 9.88052 2.85225 9.55893 2.56549 9.21685C2.49693 9.11836 2.44443 9.0423 2.37309 8.94474C2.09002 8.53922 1.90289 8.12045 1.75172 7.65303C1.74917 7.64566 1.74676 7.63836 1.74449 7.63113C1.67817 7.41979 1.63733 7.2016 1.60113 6.98308C1.56985 6.79431 1.54768 6.60299 1.53713 6.41194C1.5365 6.40038 1.5358 6.38855 1.53505 6.37637C1.54352 6.14663 1.51797 5.94914 1.54832 5.72034C1.57549 5.38714 1.66486 5.06068 1.75971 4.74011C1.76294 4.7292 1.76619 4.7182 1.76947 4.7071C1.80452 4.58725 1.84208 4.49886 1.88053 4.38095C2.06051 3.95787 2.27449 3.58488 2.5404 3.20823C2.60017 3.12507 2.65229 3.07169 2.71877 2.99443C2.98001 2.62171 3.33971 2.38905 3.68068 2.09742C3.78335 2.0298 3.86221 1.97715 3.96667 1.91015C4.33553 1.69979 4.67626 1.47818 5.09816 1.43926C5.22128 1.4279 5.34648 1.42926 5.46562 1.3962C5.51003 1.38388 5.55369 1.36947 5.59808 1.35279Z" fill="#F5F5F5"/>
</svg>
