<svg width="70" height="66" viewBox="0 0 70 66" fill="none" xmlns="http://www.w3.org/2000/svg">
<g filter="url(#filter0_d_1_1070)">
<path d="M5.9296 0.626569C7.67729 -0.24513 9.03604 0.424015 10.0702 2.01549C10.2857 2.34715 10.4948 2.47444 10.867 2.4962C11.7083 2.54538 12.5512 2.52743 13.3922 2.60837C14.6783 2.73214 15.6236 3.48487 16.4663 4.42265C17.7745 5.87846 18.4671 7.67789 18.9143 9.59301C19.0106 10.0056 19.1626 10.131 19.5532 10.1307C29.9271 10.1224 40.3011 10.1216 50.675 10.1312C53.4713 10.1338 56.2678 10.1636 59.0639 10.2034C59.9434 10.2159 60.8282 10.2488 61.6996 10.3652C63.4547 10.5995 64.5382 11.7696 65.2625 13.3971C65.6948 14.3685 65.7086 15.3963 65.599 16.4255C65.3198 19.0478 65.0221 21.668 64.7108 24.2863C64.3883 26.9985 64.0986 29.7163 63.644 32.4086C63.4865 33.3412 63.445 33.346 62.6548 32.9125C62.3145 32.7258 61.9713 32.5446 61.6368 32.3468C61.4257 32.222 61.3062 32.0599 61.344 31.755C61.6982 28.8984 62.0394 26.04 62.377 23.1812C62.6559 20.8189 62.9511 18.4582 63.1873 16.091C63.3089 14.8727 62.7599 13.9464 61.8106 13.2898C61.3336 12.9597 60.8182 12.8068 60.2241 12.8079C47.8956 12.83 35.567 12.8316 23.2384 12.8424C22.2554 12.8433 21.2723 12.8799 20.2893 12.9045C19.6095 12.9215 19.5417 13.0198 19.666 13.7341C19.8768 14.9452 20.0841 16.157 20.2899 17.369C20.828 20.5366 21.3649 23.7044 21.9015 26.8723C22.4789 30.2805 23.056 33.6888 23.6318 37.0974C23.7253 37.6508 23.7218 37.6496 24.2547 37.615C26.9172 37.4421 29.5806 37.2835 32.2421 37.0945C35.2464 36.8811 38.249 36.6394 41.2526 36.4137C41.6347 36.385 42.0188 36.386 42.4009 36.3575C42.5897 36.3434 42.6811 36.423 42.7324 36.608C42.9053 37.2316 43.0802 37.8547 43.2675 38.4735C43.3482 38.7398 43.2757 38.8486 43.0158 38.8686C41.7558 38.9655 40.4969 39.0777 39.2368 39.1717C36.9835 39.34 34.7297 39.5018 32.4759 39.6612C30.7822 39.781 29.0875 39.8862 27.3942 40.0112C26.5036 40.0769 25.6143 40.1635 24.7258 40.2558C24.3165 40.2984 24.2725 40.4135 24.4427 40.813C24.8492 41.7673 25.5913 42.3134 26.4715 42.6814C26.6177 42.7426 26.7991 42.7176 26.9642 42.7176C32.5984 42.7199 38.2325 42.7246 43.8667 42.7121C44.258 42.7112 44.4893 42.8087 44.5943 43.2287C44.679 43.5676 44.8192 43.8909 44.9341 44.2213C45.1105 44.7283 45.0749 44.7902 44.5778 44.7979C42.8537 44.8247 41.1297 44.8651 39.4055 44.869C36.3138 44.8761 33.2217 44.8872 30.1305 44.8415C28.8552 44.8226 27.577 44.8514 26.3024 44.733C24.8223 44.5954 23.6789 43.8276 22.7555 42.6445C21.9889 41.6625 21.6787 40.486 21.4808 39.2526C20.9991 36.2511 20.4958 33.2534 19.9923 30.2559C19.4822 27.2185 18.9634 24.1828 18.4444 21.1471C18.0392 18.7772 17.6441 16.4051 17.2134 14.0403C16.923 12.4466 16.7526 10.8204 16.2839 9.27236C15.8655 7.89061 15.3214 6.55436 14.3053 5.51306C13.7603 4.95445 13.1461 4.60514 12.351 4.66746C11.843 4.70728 11.3288 4.68479 10.8188 4.65819C10.4811 4.64057 10.3029 4.7816 10.126 5.09036C9.5056 6.17303 8.65711 6.94014 7.39352 6.96519C5.955 6.9937 4.68925 5.98827 4.34867 4.48716C4.01714 3.02589 4.44628 1.52554 5.9296 0.626569Z" fill="#F5F5F5"/>
<path d="M45.0248 25.7746C49.668 28.2581 54.2864 30.7265 58.9035 33.1976C59.2682 33.3927 59.6281 33.5989 59.9824 33.8145C60.3303 34.0262 60.5926 34.3058 60.576 34.7786C60.5595 35.2493 60.3348 35.5587 59.9436 35.759C58.988 36.2483 57.9819 36.608 57.0106 37.0566C55.9582 37.5425 56.0754 37.4417 56.6717 38.2798C58.1107 40.302 59.5732 42.3053 61.0231 44.3187C61.4583 44.9229 61.4577 45.186 60.9545 45.7293C60.0565 46.699 59.0293 47.5082 57.9849 48.2862C57.4176 48.7089 56.9871 48.6073 56.4593 48.0235C55.8121 47.3078 55.281 46.4918 54.7112 45.7093C53.7743 44.4227 52.8343 43.1386 51.8929 41.8556C51.8074 41.7391 51.7024 41.6386 51.6061 41.5303C51.4185 41.5768 51.3778 41.7494 51.3033 41.8814C50.6017 43.1255 50.0277 44.4456 49.2968 45.6722C49.215 45.8094 49.133 45.9482 49.0362 46.0733C48.5534 46.6972 47.7386 46.5807 47.4829 45.8224C47.1348 44.79 46.8223 43.7434 46.5152 42.6961C45.2148 38.2615 43.9182 33.8255 42.629 29.3872C42.2946 28.2359 41.9869 27.0756 41.6768 25.9165C41.5229 25.3413 41.7562 24.8503 42.2502 24.6169C42.4691 24.5135 42.6607 24.5323 42.8701 24.6444C43.577 25.0225 44.2893 25.3892 45.0248 25.7746ZM55.1686 39.8678C54.6033 39.0819 53.9914 38.3311 53.509 37.4822C53.1537 36.8567 53.3297 36.335 53.9444 36.0213C54.7741 35.5979 55.6342 35.2551 56.4921 34.9057C56.6294 34.8498 56.7863 34.8169 56.8929 34.5617C52.7732 32.3977 48.712 30.1187 44.4984 28.0684C45.7573 32.8545 47.1667 37.5555 48.5776 42.2879C48.8125 42.1346 48.8698 41.9498 48.9573 41.7886C49.5243 40.7438 49.9769 39.6318 50.6026 38.6217C50.944 38.0706 51.5953 37.9904 52.051 38.4442C52.1806 38.5733 52.2958 38.7214 52.404 38.8717C53.877 40.9173 55.3442 42.9677 56.8203 45.0107C57.5331 45.9972 57.5337 45.9833 58.4267 45.1564C58.6973 44.9057 58.7136 44.7008 58.495 44.4053C57.3914 42.913 56.2994 41.411 55.1686 39.8678Z" fill="#F5F5F5"/>
<path d="M29.3174 49.4272C30.94 49.9149 32.4195 51.5455 32.1993 54.2211C32.0464 56.0797 30.3504 57.812 28.6858 58.0379C26.721 58.3044 24.8443 57.1428 24.2114 55.1573C23.424 52.6872 24.6101 50.0343 26.9425 49.3621C27.7221 49.1373 28.5099 49.2012 29.3174 49.4272ZM26.6338 55.1864C27.0858 55.6564 27.6401 55.9033 28.2605 55.8705C29.2854 55.8165 30.2533 54.6504 30.2429 53.5469C30.2336 52.5717 29.1351 51.4238 28.1711 51.3847C27.2824 51.3486 26.6272 51.7784 26.2632 52.6098C25.872 53.5034 25.9664 54.3771 26.6338 55.1864Z" fill="#F5F5F5"/>
<path d="M49.6259 49.8445C51.4382 48.6197 54.4741 49.2003 55.5303 51.6087C56.4842 53.7839 55.8918 56.4612 53.5418 57.6482C51.6408 58.6084 49.2566 57.7481 48.2992 55.9432C47.2079 53.8859 47.7131 51.3062 49.4796 49.9579C49.521 49.9263 49.5618 49.8937 49.6259 49.8445ZM49.7706 53.4696C49.7543 54.5877 50.1945 55.3041 51.146 55.7073C51.8985 56.0263 52.7911 55.7932 53.3837 55.1229C53.9688 54.4611 54.0919 53.5213 53.7033 52.6832C53.1852 51.566 51.9941 51.0583 51.0119 51.5645C50.2964 51.9331 49.8979 52.5682 49.7706 53.4696Z" fill="#F5F5F5"/>
<path d="M40.227 29.659C40.5821 29.8046 40.6954 30.0582 40.5933 30.4119C40.2542 31.5876 39.8773 32.749 39.4002 33.8711C39.3205 34.0585 39.2199 34.2342 39.0028 34.2714C38.6794 34.3268 38.4575 34.1212 38.4671 33.7651C38.4703 33.6451 38.4922 33.5225 38.5247 33.4071C38.8456 32.2675 39.2058 31.1431 39.6785 30.0621C39.7839 29.8212 39.9358 29.6637 40.227 29.659Z" fill="#F5F5F5"/>
<path d="M35.8631 27.3621C36.4463 27.0812 37.0001 26.8045 37.561 26.5455C37.8486 26.4128 38.167 26.5512 38.2956 26.8443C38.4275 27.1447 38.2353 27.3021 38.0357 27.434C37.0147 28.1088 35.9245 28.6343 34.7993 29.0763C34.5663 29.1678 34.2897 29.221 34.1466 28.8736C34.0077 28.5368 34.165 28.3122 34.4137 28.1631C34.8794 27.8839 35.3615 27.6352 35.8631 27.3621Z" fill="#F5F5F5"/>
<path d="M39.9431 18.9633C39.7067 18.4048 39.4694 17.8806 39.2875 17.3302C39.1763 16.9936 39.2507 16.718 39.5403 16.5758C39.8262 16.4354 40.0151 16.6424 40.1534 16.8993C40.7366 17.9826 41.2276 19.111 41.6379 20.2799C41.7524 20.6058 41.6586 20.8469 41.3794 20.989C41.0838 21.1395 40.8954 20.9651 40.7658 20.6936C40.495 20.1264 40.2263 19.5581 39.9431 18.9633Z" fill="#F5F5F5"/>
<path d="M46.835 24.0104C46.9765 23.725 47.213 23.607 47.4401 23.4916C48.3586 23.0251 49.2844 22.5748 50.2038 22.1103C50.5078 21.9567 50.7505 21.9974 50.9145 22.32C51.085 22.6555 50.9453 22.8876 50.6629 23.0546C49.6497 23.6537 48.6085 24.191 47.5195 24.6175C47.032 24.8085 46.8169 24.6219 46.835 24.0104Z" fill="#F5F5F5"/>
<path d="M44.7796 19.9078C45.032 19.1359 45.2691 18.3928 45.5171 17.6538C45.5808 17.4639 45.6623 17.2755 45.7653 17.1069C45.8947 16.8951 46.1057 16.8751 46.3122 16.9503C46.5324 17.0303 46.6512 17.2202 46.5974 17.4597C46.3074 18.7525 45.9086 20.0072 45.3711 21.2091C45.2843 21.4032 45.1246 21.5178 44.9119 21.5223C44.6344 21.5283 44.4392 21.3242 44.4935 21.0348C44.5629 20.6645 44.6748 20.3032 44.7796 19.9078Z" fill="#F5F5F5"/>
<path d="M35.8219 21.4713C36.6402 21.7916 37.4306 22.0985 38.2174 22.4158C38.394 22.487 38.5777 22.5696 38.6402 22.7936C38.7677 23.251 38.5174 23.5845 38.0837 23.4721C36.9277 23.1727 35.8288 22.6959 34.7505 22.1688C34.5019 22.0473 34.4092 21.8077 34.493 21.5204C34.5747 21.2402 34.7913 21.2184 35.0202 21.2371C35.291 21.2593 35.5426 21.358 35.8219 21.4713Z" fill="#F5F5F5"/>
</g>
<defs>
<filter id="filter0_d_1_1070" x="0.606799" y="0.241364" width="68.6858" height="65.107" filterUnits="userSpaceOnUse" color-interpolation-filters="sRGB">
<feFlood flood-opacity="0" result="BackgroundImageFix"/>
<feColorMatrix in="SourceAlpha" type="matrix" values="0 0 0 0 0 0 0 0 0 0 0 0 0 0 0 0 0 0 127 0" result="hardAlpha"/>
<feOffset dy="3.63636"/>
<feGaussianBlur stdDeviation="1.81818"/>
<feComposite in2="hardAlpha" operator="out"/>
<feColorMatrix type="matrix" values="0 0 0 0 0 0 0 0 0 0 0 0 0 0 0 0 0 0 0.25 0"/>
<feBlend mode="normal" in2="BackgroundImageFix" result="effect1_dropShadow_1_1070"/>
<feBlend mode="normal" in="SourceGraphic" in2="effect1_dropShadow_1_1070" result="shape"/>
</filter>
</defs>
</svg>
