<svg width="147" height="208" viewBox="0 0 147 208" fill="none" xmlns="http://www.w3.org/2000/svg">
<path d="M72.208 138.07L84.6451 203.78L96.0115 182.777L117.555 195.422L94.688 131.438L72.208 138.07Z" fill="#F65314"/>
<g opacity="0.3">
<path d="M76.3915 160.172C77.5755 160.396 78.796 160.328 79.9479 159.974C81.0998 159.621 82.1487 158.993 83.0041 158.145C84.1393 156.975 84.8928 155.379 86.3204 154.596C87.6042 153.892 89.1855 153.991 90.5983 154.383C92.011 154.774 93.3395 155.424 94.7522 155.79C96.1462 156.146 97.5969 156.22 99.0199 156.009C100.443 155.798 101.81 155.306 103.04 154.561L99.4515 144.598L82.7959 142.516L74.8647 152.058L76.3915 160.172Z" fill="black"/>
</g>
<path d="M95.2042 180.171C95.1349 180.171 93.2809 173.36 91.0652 164.929C88.8494 156.497 87.0996 149.636 87.1789 149.621C87.2582 149.606 89.0972 156.422 91.313 164.864C93.5288 173.306 95.2736 180.152 95.2042 180.171Z" fill="#263238"/>
<path d="M74.0278 141.484L61.5907 207.194L50.2243 186.196L28.6812 198.837L51.5478 134.852L74.0278 141.484Z" fill="#F65314"/>
<g opacity="0.3">
<path d="M44.7065 153.986C44.7065 153.986 48.2458 156.896 52.4642 155.558C56.6827 154.219 59.3049 153.932 61.5901 155.558C63.8753 157.183 70.0566 162.473 70.0566 162.473L71.4892 154.893L63.1862 143.492L54.5214 145.242L48.3549 145.842L46.0598 150.189L44.7065 153.986Z" fill="black"/>
</g>
<path d="M146.949 82.1739C146.949 86.888 140.926 90.9478 140.044 95.4041C139.137 99.9943 143.132 106.047 141.382 110.275C139.633 114.503 132.46 116.02 129.917 119.842C127.374 123.664 128.712 130.822 125.456 134.084C122.199 137.345 115.046 135.972 111.214 138.545C107.382 141.118 105.945 148.226 101.647 150.01C97.4238 151.76 91.3713 147.765 86.7762 148.672C82.3149 149.554 78.26 155.577 73.5459 155.577C68.8318 155.577 64.7671 149.554 60.3107 148.672C55.7205 147.765 49.668 151.76 45.4397 150.01C41.2114 148.261 39.6995 141.088 35.8777 138.545C32.0558 136.002 24.8979 137.34 21.6312 134.084C18.3646 130.827 19.7426 123.674 17.1699 119.842C14.5973 116.01 7.48893 114.573 5.70936 110.275C3.9298 105.977 7.95488 99.9992 7.04775 95.4041C6.16541 90.9428 0.137695 86.888 0.137695 82.1739C0.137695 77.4597 6.16541 73.395 7.04775 68.9387C7.95488 64.3485 3.95459 58.296 5.70936 54.0677C7.46414 49.8393 14.632 48.3225 17.1699 44.5056C19.7079 40.6887 18.3745 33.5258 21.6312 30.2592C24.888 26.9925 32.041 28.3706 35.8777 25.7979C39.7144 23.2252 41.142 16.1169 45.4397 14.3373C49.7374 12.5577 55.7156 16.5828 60.3107 15.6757C64.772 14.7933 68.8318 8.76562 73.5459 8.76562C78.26 8.76562 82.3198 14.7933 86.7762 15.6757C91.3663 16.5828 97.4188 12.5825 101.647 14.3373C105.945 16.1169 107.392 23.2599 111.214 25.7979C115.036 28.3359 122.194 27.0024 125.456 30.2592C128.717 33.5159 127.344 40.6689 129.917 44.5056C132.49 48.3423 139.598 49.7699 141.382 54.0677C143.167 58.3654 139.137 64.3435 140.044 68.9387C140.926 73.395 146.949 77.4449 146.949 82.1739Z" fill="#F65314"/>
<path d="M56.3715 41.0187C56.3715 41.0187 56.317 40.9543 56.2377 40.8155C56.1584 40.6767 56.0345 40.4536 55.9006 40.2107C55.6082 39.6853 55.2066 38.912 54.7308 37.9503C53.7741 36.027 52.5348 33.3205 51.3402 30.267C50.1455 27.2135 49.2285 24.3781 48.6287 22.3358C48.3313 21.2998 48.1033 20.462 47.9595 19.8573C47.8951 19.5896 47.8405 19.3616 47.8009 19.1831C47.7752 19.1064 47.7618 19.0261 47.7612 18.9452C47.7997 19.0175 47.8297 19.094 47.8505 19.1732L48.0537 19.8325C48.247 20.4422 48.4998 21.2651 48.8022 22.2614C49.4466 24.3087 50.3934 27.1193 51.5781 30.1926C52.7628 33.266 53.9823 35.9477 54.8944 37.8909L55.9898 40.1859L56.2823 40.8105C56.3183 40.8771 56.3482 40.9468 56.3715 41.0187Z" fill="#263238"/>
<path d="M62.9036 38.539C62.8169 38.366 62.752 38.1828 62.7103 37.9938C62.6062 37.6369 62.4674 37.1164 62.3038 36.472C61.9767 35.1881 61.5702 33.3937 61.2034 31.401C60.8366 29.4082 60.5788 27.589 60.4301 26.2705C60.3508 25.6112 60.3012 25.0758 60.2715 24.704C60.2487 24.513 60.2487 24.32 60.2715 24.129C60.3285 24.3131 60.3667 24.5024 60.3855 24.6941L60.6234 26.2457C60.8217 27.5593 61.1191 29.3686 61.4711 31.3563C61.823 33.3441 62.2146 35.1385 62.4922 36.4323C62.6261 37.0371 62.7351 37.5526 62.8243 37.969C62.8697 38.1559 62.8962 38.3469 62.9036 38.539Z" fill="#263238"/>
<path d="M74.4295 37.3914C74.3551 37.3914 74.1717 31.8296 74.018 24.9741C73.8643 18.1186 73.795 12.5518 73.8643 12.5469C73.9337 12.5419 74.1221 18.1037 74.2758 24.9691C74.4295 31.8346 74.4989 37.3914 74.4295 37.3914Z" fill="#263238"/>
<path d="M86.0282 25.965C86.0976 25.965 85.2945 28.7657 84.2387 32.1761C83.1829 35.5865 82.2559 38.3277 82.2063 38.3079C82.1568 38.2881 82.94 35.5072 83.9958 32.0968C85.0516 28.6863 85.9538 25.9451 86.0282 25.965Z" fill="#263238"/>
<path d="M90.7583 40.336C90.768 40.2539 90.7897 40.1737 90.8227 40.098L91.0458 39.4437C91.2441 38.8786 91.5415 38.0657 91.9381 37.0643C92.7163 35.0815 93.8267 32.3106 95.0957 29.2868C96.3647 26.263 97.5444 23.5416 98.4119 21.5787C98.8382 20.6269 99.1902 19.8437 99.4578 19.2588L99.7503 18.6342C99.8246 18.4954 99.8643 18.4211 99.8742 18.426C99.8561 18.504 99.8312 18.5803 99.7999 18.654L99.5471 19.2984L98.5804 21.653C97.7328 23.6656 96.5976 26.382 95.3336 29.3909C94.0696 32.3998 92.9493 35.1162 92.1066 37.1337L91.14 39.4834L90.8674 40.1179C90.8401 40.1948 90.8035 40.268 90.7583 40.336Z" fill="#263238"/>
<path d="M96.9341 43.5709C97.0094 43.3955 97.1042 43.2293 97.2166 43.0752C97.4149 42.7579 97.7123 42.3068 98.0791 41.7566C98.8227 40.6611 99.8934 39.1641 101.138 37.5679C102.382 35.9718 103.576 34.5937 104.459 33.6023C104.9 33.1066 105.267 32.715 105.525 32.4473C105.649 32.2988 105.79 32.1657 105.946 32.0508C105.85 32.2199 105.733 32.3764 105.599 32.5167C105.331 32.8439 104.994 33.2454 104.608 33.7213C103.76 34.7424 102.595 36.1552 101.351 37.7513C100.107 39.3475 99.021 40.8197 98.2378 41.8904L97.3108 43.1545C97.2001 43.306 97.0738 43.4455 96.9341 43.5709Z" fill="#263238"/>
<path d="M105.966 50.9549C105.917 50.9053 109.843 47.1777 114.725 42.6321C119.608 38.0865 123.613 34.4431 123.648 34.4927C123.683 34.5423 119.776 38.2749 114.889 42.8205C110.001 47.366 106.016 51.0094 105.966 50.9549Z" fill="#263238"/>
<path d="M121.718 52.4961C121.24 52.7984 120.743 53.0699 120.23 53.309C119.299 53.8047 118.035 54.4938 116.637 55.2918C115.239 56.0899 113.95 56.7542 112.993 57.2003C112.498 57.4234 112.131 57.5969 111.853 57.696C111.718 57.7666 111.572 57.8167 111.422 57.8447C111.9 57.5424 112.397 57.2709 112.909 57.0318C113.841 56.5361 115.105 55.847 116.503 55.049C117.901 54.2509 119.189 53.5619 120.146 53.1405C120.642 52.9174 121.009 52.7439 121.286 52.6448C121.421 52.5721 121.567 52.5219 121.718 52.4961Z" fill="#263238"/>
<path d="M136.288 58.541C136.313 58.6104 131.643 60.3156 125.878 62.3529C120.113 64.3902 115.389 65.9814 115.369 65.917C115.349 65.8525 120.009 64.1424 125.779 62.105C131.549 60.0677 136.263 58.4765 136.288 58.541Z" fill="#263238"/>
<path d="M140.928 85.0435C140.928 85.1129 135.847 84.6916 129.596 84.0968C123.345 83.5019 118.279 82.9616 118.289 82.8872C118.299 82.8129 123.365 83.2442 129.621 83.839C135.877 84.4338 140.933 84.9741 140.928 85.0435Z" fill="#263238"/>
<path d="M137.195 108.819C137.165 108.884 132.421 106.703 126.602 103.957C120.782 101.21 116.088 98.9252 116.118 98.8608C116.148 98.7963 120.891 100.972 126.711 103.724C132.53 106.475 137.225 108.755 137.195 108.819Z" fill="#263238"/>
<path d="M121.589 131.434C121.535 131.479 118.119 127.508 113.951 122.571C109.782 117.634 106.451 113.584 106.515 113.539C106.58 113.495 109.985 117.46 114.154 122.403C118.323 127.345 121.644 131.385 121.589 131.434Z" fill="#263238"/>
<path d="M108.563 134.449C108.409 134.277 108.271 134.091 108.152 133.894C107.899 133.527 107.542 132.986 107.116 132.317C106.253 130.974 105.098 129.095 103.879 126.988C102.659 124.882 101.618 122.939 100.904 121.536C100.543 120.827 100.25 120.252 100.062 119.85C99.9497 119.646 99.8568 119.432 99.7842 119.211C99.9242 119.396 100.047 119.593 100.151 119.801C100.389 120.237 100.696 120.792 101.068 121.451C101.836 122.844 102.907 124.768 104.122 126.874C105.336 128.981 106.466 130.87 107.289 132.233C107.676 132.887 108.003 133.428 108.256 133.854C108.38 134.04 108.483 134.24 108.563 134.449Z" fill="#263238"/>
<path d="M100.472 145.799C100.472 145.799 100.423 145.735 100.343 145.596L100.021 144.991C99.7386 144.461 99.3569 143.687 98.9009 142.726C97.9888 140.797 96.814 138.091 95.6986 135.027C94.5833 131.964 93.7406 129.139 93.2201 127.096C92.9475 126.065 92.7244 125.223 92.6154 124.643C92.5609 124.375 92.5163 124.147 92.4766 123.968C92.4569 123.89 92.4452 123.811 92.4419 123.73C92.4824 123.801 92.5109 123.878 92.5262 123.958L92.7145 124.618C92.888 125.232 93.116 126.05 93.3936 127.047C93.9786 129.094 94.846 131.91 95.9614 134.978C97.0767 138.046 98.2168 140.738 99.0892 142.686L100.13 144.981C100.239 145.229 100.333 145.437 100.413 145.606C100.441 145.667 100.461 145.732 100.472 145.799Z" fill="#263238"/>
<path d="M84.0859 137.82C83.9786 137.25 83.9074 136.674 83.8727 136.095C83.7587 135.03 83.5753 133.557 83.3076 131.946C83.0399 130.335 82.7276 128.888 82.4897 127.842C82.3339 127.282 82.2147 126.712 82.1328 126.137C82.2066 126.275 82.2632 126.421 82.3013 126.573C82.4005 126.86 82.5244 127.277 82.6682 127.797C82.9507 128.833 83.2878 130.276 83.5604 131.907C83.7976 133.288 83.9631 134.682 84.0561 136.08C84.0908 136.616 84.1107 137.072 84.1107 137.354C84.1234 137.51 84.1151 137.667 84.0859 137.82Z" fill="#263238"/>
<path d="M73.3631 152.093C73.3516 152.01 73.3516 151.924 73.3631 151.841C73.3631 151.642 73.3631 151.399 73.3631 151.112C73.3631 150.477 73.3631 149.56 73.3631 148.43C73.4028 146.165 73.5069 143.042 73.6853 139.597C73.8638 136.152 74.0868 133.029 74.2702 130.773C74.3595 129.643 74.4437 128.731 74.5082 128.102C74.5429 127.814 74.5677 127.571 74.5875 127.378C74.5933 127.292 74.6099 127.207 74.637 127.125C74.6487 127.211 74.6487 127.297 74.637 127.383C74.637 127.576 74.6371 127.819 74.6024 128.111C74.5627 128.781 74.5131 129.683 74.4487 130.783C74.3148 133.078 74.1364 136.181 73.953 139.607C73.7696 143.032 73.6407 146.175 73.5564 148.435C73.5168 149.536 73.4821 150.418 73.4573 151.112C73.4573 151.404 73.4275 151.642 73.4176 151.841C73.412 151.927 73.3937 152.012 73.3631 152.093Z" fill="#263238"/>
<path d="M64.6497 127.125C64.6462 127.552 64.5964 127.978 64.501 128.394C64.3721 129.167 64.1639 130.233 63.8913 131.398C63.6187 132.563 63.3312 133.614 63.1031 134.372C63.0043 134.787 62.8596 135.189 62.6719 135.572C62.716 135.148 62.8007 134.73 62.9247 134.323L63.6385 131.348C63.8963 130.233 64.1342 129.222 64.3226 128.374C64.3913 127.948 64.5009 127.53 64.6497 127.125Z" fill="#263238"/>
<path d="M48.8912 119.57C48.2418 120.644 47.5179 121.671 46.725 122.644C45.9976 123.667 45.2044 124.643 44.3506 125.563C44.9986 124.489 45.7225 123.462 46.5168 122.49C47.2409 121.464 48.0342 120.488 48.8912 119.57Z" fill="#263238"/>
<path d="M40.6273 114.004C40.6769 114.049 37.6035 117.663 33.7569 122.07C29.9103 126.476 26.7427 130.001 26.6882 129.966C26.6337 129.931 29.712 126.308 33.5586 121.901C37.4053 117.494 40.5728 113.955 40.6273 114.004Z" fill="#263238"/>
<path d="M36.4886 107.855C35.273 109.028 33.9973 110.136 32.6668 111.177C30.5105 112.951 28.726 114.349 28.7012 114.295C29.9177 113.125 31.1933 112.018 32.523 110.978C33.7917 109.872 35.1152 108.829 36.4886 107.855Z" fill="#263238"/>
<path d="M31.6502 98.5757C31.6799 98.6402 27.3971 100.772 22.0782 103.329C16.7593 105.887 12.4319 107.915 12.3972 107.85C12.3625 107.786 16.6503 105.659 21.9692 103.096C27.288 100.534 31.6204 98.5113 31.6502 98.5757Z" fill="#263238"/>
<path d="M29.706 93.9492C29.5636 94.0118 29.4136 94.0551 29.2598 94.0781C28.9674 94.1475 28.546 94.2367 28.0255 94.3309C26.9796 94.5292 25.5223 94.7473 23.9063 94.9109C22.2903 95.0745 20.8181 95.1439 19.7523 95.1587C19.2219 95.1587 18.7906 95.1587 18.4932 95.1587C18.3382 95.1688 18.1825 95.1537 18.0322 95.1141C18.6008 95.036 19.1735 94.9913 19.7473 94.9803C20.8081 94.9158 22.2705 94.8167 23.8815 94.6531C25.4925 94.4895 26.9449 94.3012 27.9958 94.1574C28.5602 94.0477 29.1317 93.9781 29.706 93.9492Z" fill="#263238"/>
<path d="M28.1356 83.2711C27.8469 83.295 27.5567 83.295 27.2681 83.2711L24.9085 83.1521C22.9257 83.053 20.1696 82.9637 17.131 82.9786C14.0924 82.9935 11.3363 83.1174 9.34852 83.2364L6.99394 83.3801C6.70603 83.4131 6.41595 83.423 6.12646 83.4099C6.40808 83.3423 6.69499 83.2992 6.98402 83.281C7.53921 83.2165 8.34225 83.1372 9.33365 83.053C11.3164 82.8894 14.0825 82.7407 17.1261 82.7208C20.1697 82.701 22.9307 82.8249 24.9234 82.9687C25.9148 83.043 26.7228 83.1124 27.278 83.1719C27.5658 83.1848 27.8524 83.218 28.1356 83.2711Z" fill="#263238"/>
<path d="M29.1076 73.8869C29.1076 73.9563 25.8806 73.1185 21.9398 72.0181C17.999 70.9176 14.8216 69.9758 14.8414 69.9064C14.8612 69.837 18.0684 70.6698 22.0092 71.7702C25.95 72.8707 29.1275 73.8175 29.1076 73.8869Z" fill="#263238"/>
<path d="M31.1848 66.0404C31.1051 66.0357 31.0265 66.019 30.9518 65.9908L30.2925 65.7925C29.7274 65.6141 28.9095 65.3365 27.9132 64.9746C25.3098 64.0187 22.7583 62.9266 20.2695 61.703C17.7816 60.478 15.3608 59.1212 13.0174 57.6383C12.1202 57.0682 11.4014 56.5923 10.9156 56.2503L10.3604 55.8488C10.2365 55.7546 10.1721 55.705 10.177 55.6951C10.252 55.7253 10.3234 55.7636 10.3902 55.8091L10.9751 56.166C11.4708 56.4833 12.2044 56.9344 13.1116 57.4846C14.9308 58.5851 17.4787 60.0375 20.3835 61.4502C23.2883 62.863 25.9948 64.013 27.9776 64.7863C28.969 65.168 29.7671 65.4703 30.3272 65.6785L30.9667 65.9214C31.0426 65.9549 31.1155 65.9947 31.1848 66.0404Z" fill="#263238"/>
<path d="M35.8491 58.1064C35.8095 58.1609 33.3012 56.4657 30.2477 54.3143C27.1942 52.163 24.7504 50.3735 24.795 50.314C24.8396 50.2545 27.3429 51.9548 30.4014 54.1061C33.4599 56.2575 35.8888 58.0618 35.8491 58.1064Z" fill="#263238"/>
<path d="M25.9902 34.0312C25.9902 34.0312 26.0596 34.0709 26.1786 34.1651L26.6743 34.6013L28.5034 36.2173L34.5063 41.5758L40.534 46.9046L42.3582 48.5255L42.8539 48.9766C42.9138 49.0258 42.9671 49.0824 43.0125 49.1452C43.0125 49.1452 42.9431 49.1104 42.8192 49.0163L42.3235 48.6048C41.8724 48.243 41.233 47.7076 40.4448 47.0434C38.8685 45.7149 36.7171 43.856 34.3626 41.7691C32.008 39.6822 29.9013 37.7589 28.4142 36.3511C27.6607 35.6472 27.0559 35.0772 26.6396 34.6707L26.1686 34.2047C26.0497 34.0957 25.9803 34.0362 25.9902 34.0312Z" fill="#263238"/>
<path d="M41.4497 34.4805C41.4497 34.4805 41.5835 34.5895 41.7868 34.8225C41.99 35.0555 42.2825 35.3975 42.6245 35.8139C43.3135 36.6764 44.2306 37.8958 45.1823 39.2838C46.1341 40.6718 46.9321 41.9705 47.4824 42.9272C47.76 43.4229 47.9781 43.7947 48.1169 44.0673C48.2027 44.2029 48.2694 44.3497 48.3151 44.5035C47.9518 44.0305 47.6206 43.5337 47.3237 43.0164C46.7339 42.0845 45.911 40.8106 44.9642 39.4226C44.0174 38.0346 43.1252 36.8103 42.4857 35.923C42.112 35.4631 41.7661 34.9815 41.4497 34.4805Z" fill="#263238"/>
<g opacity="0.2">
<path d="M21.6367 30.26L43.2046 49.1412L48.5631 44.8534L36.0517 25.6797C36.0517 25.6797 35.09 26.3836 32.5818 27.0974C30.1875 27.7864 23.0742 27.9698 21.6367 30.26Z" fill="black"/>
</g>
<g opacity="0.2">
<path d="M45.645 14.2871L56.1737 40.6435L62.9053 38.5368L60.6598 15.6751C60.6598 15.6751 59.5048 15.9477 56.9321 15.6206C54.4387 15.3033 48.3962 12.9388 45.645 14.2871Z" fill="black"/>
</g>
<g opacity="0.3">
<path d="M73.7197 8.76696L74.4286 37.3887L80.7339 37.6911L87.1185 15.7216C85.792 15.4582 84.5304 14.9361 83.4057 14.185C81.2246 12.7871 76.7732 8.53398 73.7197 8.76696Z" fill="black"/>
</g>
<g opacity="0.2">
<path d="M101.222 14.1797L90.7573 40.5658L96.438 43.2872L110.838 25.5114C109.756 24.5977 108.833 23.5105 108.107 22.2943C106.749 20.0983 104.409 15.0571 101.222 14.1797Z" fill="black"/>
</g>
<g opacity="0.2">
<path d="M125.797 30.6367L106.306 50.9604L110.648 56.8146L129.693 44.1049C129.066 42.9498 128.642 41.6957 128.439 40.3971C127.983 37.9186 127.919 33.4176 125.797 30.6367Z" fill="black"/>
</g>
<g opacity="0.2">
<path d="M141.185 53.5703L114.938 64.3716L117.114 71.0784L139.951 68.5999C139.951 68.5999 139.807 67.896 140.109 65.3234C140.397 62.83 143.034 57.2583 141.185 53.5703Z" fill="black"/>
</g>
<g opacity="0.2">
<path d="M147 82.168L118.383 83.1594L118.145 89.4696L139.956 95.8543C140.101 94.9458 140.392 94.0669 140.818 93.2518C142.444 90.2181 147 85.9353 147 82.168Z" fill="black"/>
</g>
<g opacity="0.2">
<path d="M141.719 109.223L115.373 98.957L112.711 104.702L130.64 118.894C131.583 117.992 132.626 117.2 133.748 116.535C135.93 115.142 141.115 112.886 141.719 109.223Z" fill="black"/>
</g>
<g opacity="0.2">
<path d="M102.972 108.824L96.4487 114.277C96.9444 114.773 105.634 129.564 110.993 138.695C111.062 138.635 111.135 138.579 111.211 138.527C114.735 136.167 121.011 137.114 124.55 134.779L102.972 108.824Z" fill="black"/>
<path d="M90.9865 119.172L81.251 122.493L85.861 148.924C86.1604 148.818 86.4668 148.734 86.778 148.671C91.3682 147.764 97.4207 151.759 101.649 150.009C102.228 149.761 102.766 149.427 103.245 149.018L90.9865 119.172Z" fill="black"/>
<path d="M73.2113 155.565L74.7628 121.035L66.3359 118.898L60.0752 148.64L60.3032 148.68C64.6654 149.528 68.6359 155.268 73.2113 155.565Z" fill="black"/>
<path d="M52.0446 115.176C52.0446 115.176 40.9211 130.077 35.1016 138.097C35.3709 138.233 35.6324 138.383 35.8848 138.548C39.7066 141.106 41.1491 148.229 45.4468 150.014C45.6451 150.093 45.8483 150.157 46.0516 150.217L61.5918 120.802L52.0446 115.176Z" fill="black"/>
<path d="M40.629 103.176L16.9048 119.479C16.994 119.598 17.0931 119.712 17.1725 119.836C19.7501 123.683 18.377 130.816 21.6338 134.078C21.9344 134.373 22.2669 134.634 22.6252 134.856C31.0075 125.408 46.0569 108.445 46.6022 107.855L40.629 103.176Z" fill="black"/>
<path d="M35.1907 91.5312L7.13907 96.0619C7.59016 100.563 4.04094 106.244 5.71145 110.269C5.81211 110.515 5.93315 110.752 6.07331 110.978C15.8882 106.09 36.3953 95.9232 37.2479 95.8686L35.1907 91.5312Z" fill="black"/>
<path d="M33.6589 75.9026L7.14389 68.2539C7.11911 68.4819 7.08936 68.7099 7.04971 68.933C6.16736 73.3943 0.139648 77.4541 0.139648 82.1682C0.14101 82.4821 0.16753 82.7954 0.218958 83.1051H32.5832L33.6589 75.9026Z" fill="black"/>
<path d="M5.82031 53.8634C15.7343 59.1723 35.1013 69.9142 35.1013 69.9142L39.87 60.8577L17.4742 44.0039C17.3751 44.1774 17.2809 44.3559 17.1718 44.4996C14.6487 48.262 7.74363 49.7292 5.82031 53.8634Z" fill="black"/>
</g>
<path d="M146.95 82.1712L146.92 81.854C146.908 81.5431 146.865 81.2342 146.791 80.932C146.503 79.7433 145.999 78.6176 145.304 77.6108C144.452 76.2427 143.163 74.7109 141.834 72.7728C141.084 71.7417 140.508 70.5947 140.129 69.3772C139.807 67.9561 139.807 66.4808 140.129 65.0597C140.407 63.5478 140.858 61.9913 141.249 60.3406C141.641 58.6899 142.008 56.9054 141.641 55.0812C141.433 54.1579 141.011 53.2967 140.407 52.568C139.759 51.8261 139.02 51.1697 138.206 50.615C136.56 49.4451 134.667 48.5132 132.857 47.2938C131.921 46.6902 131.071 45.9633 130.329 45.1325C129.601 44.2308 129.072 43.185 128.778 42.0641C128.143 39.8087 127.999 37.3996 127.519 34.9905C127.308 33.7638 126.895 32.5809 126.294 31.4908C125.642 30.3934 124.653 29.5362 123.474 29.047C122.256 28.558 120.982 28.2248 119.682 28.0556C118.368 27.8375 117.02 27.6839 115.671 27.4459C114.29 27.2467 112.95 26.8231 111.706 26.1918C110.472 25.4499 109.426 24.4318 108.652 23.2176C107.829 22.0378 107.12 20.7689 106.367 19.5147C105.645 18.2315 104.781 17.0342 103.789 15.9457C102.768 14.8445 101.374 14.1611 99.8783 14.0273C98.3498 13.9708 96.8217 14.1497 95.3476 14.5577C93.8605 14.9196 92.3337 15.3608 90.7723 15.6532C89.1939 16.0252 87.5473 15.9945 85.9838 15.564C84.4598 14.9661 83.0344 14.1423 81.7555 13.1202C80.432 12.1288 79.1432 11.1374 77.7304 10.255C76.3177 9.3727 74.7166 8.73325 73.051 8.92161H72.7387C72.6346 8.92161 72.5355 8.96623 72.4363 8.98606C72.2331 9.03563 72.0249 9.07033 71.8266 9.12981C71.4274 9.2568 71.0366 9.40913 70.6568 9.58585C69.89 9.9505 69.154 10.3765 68.4559 10.8598C67.0481 11.8512 65.7146 12.9318 64.2672 13.9133C63.5466 14.4178 62.7837 14.859 61.987 15.2319C61.1705 15.5971 60.2965 15.8169 59.4044 15.8812C57.6158 15.8927 55.8353 15.6405 54.1202 15.1327C52.3934 14.6397 50.632 14.2768 48.8509 14.0472C47.9615 13.9596 47.0637 14.0199 46.194 14.2256C45.3276 14.4665 44.5286 14.9041 43.8592 15.5045C42.4911 16.6992 41.5393 18.3052 40.5876 19.8815C39.6891 21.5322 38.6386 23.0954 37.4498 24.551C36.8205 25.2721 36.0645 25.8719 35.2192 26.3207C34.3562 26.7287 33.4499 27.0379 32.5176 27.2427C30.6538 27.6541 28.7503 27.8276 26.8716 28.1647C24.9929 28.5018 23.0745 29.0322 21.7163 30.3507C21.0607 31.049 20.5547 31.8739 20.2292 32.7747C19.901 33.6833 19.6603 34.6211 19.5104 35.5754C19.1634 37.4888 19.0147 39.4518 18.519 41.3801C18.306 42.3587 17.9503 43.3007 17.4632 44.1758C16.95 45.0428 16.2772 45.8048 15.4804 46.4213C13.914 47.6804 12.1344 48.6123 10.4292 49.6533C9.5749 50.1674 8.75523 50.7371 7.97549 51.3585C7.19978 51.9784 6.54737 52.7384 6.05218 53.5991C5.58001 54.4756 5.34104 55.4588 5.3582 56.4543C5.37573 57.455 5.49364 58.4514 5.71014 59.4285C6.12653 61.4113 6.75607 63.3594 7.09314 65.3769C7.29296 66.4123 7.33309 67.4721 7.21211 68.5196C7.0714 69.5645 6.73507 70.5735 6.22071 71.4939C5.1847 73.3032 3.83639 74.8943 2.64176 76.5797C2.02825 77.4103 1.49387 78.2965 1.0456 79.2268C0.554483 80.1341 0.297291 81.1495 0.297291 82.1811C0.297291 83.2128 0.554483 84.2282 1.0456 85.1355C1.49312 86.0662 2.02754 86.9524 2.64176 87.7826C3.83639 89.4679 5.1847 91.0591 6.22071 92.8684C6.72561 93.7717 7.06158 94.7594 7.21211 95.7832C7.33805 96.8165 7.30461 97.8631 7.11298 98.8862C6.78086 100.924 6.15131 102.877 5.72997 104.859C5.51527 105.837 5.39739 106.833 5.37802 107.834C5.35849 108.83 5.59578 109.815 6.06705 110.694C6.55841 111.557 7.20942 112.319 7.9854 112.939C8.76515 113.561 9.58481 114.13 10.4391 114.645C12.1443 115.686 13.909 116.627 15.4953 117.877C16.2908 118.494 16.9634 119.256 17.4781 120.122C17.9688 120.994 18.3248 121.935 18.5339 122.913C18.9999 124.846 19.1585 126.809 19.5253 128.722C19.6792 129.676 19.9215 130.614 20.249 131.523C20.5668 132.424 21.0643 133.25 21.7113 133.952C23.0844 135.286 25.0177 135.816 26.8716 136.153C28.7255 136.49 30.6538 136.649 32.5176 137.075C33.4513 137.28 34.3591 137.59 35.2241 137.997C36.0683 138.447 36.8241 139.047 37.4548 139.767C38.6317 141.225 39.6721 142.788 40.5628 144.436C41.5146 146.012 42.4663 147.619 43.8344 148.813C44.5027 149.412 45.2999 149.85 46.1642 150.092C47.0415 150.314 47.9495 150.387 48.8509 150.31C50.6288 150.071 52.3866 149.702 54.1103 149.205C55.8263 148.693 57.6088 148.439 59.3994 148.451C60.2916 148.519 61.1654 148.74 61.982 149.106C62.7781 149.48 63.541 149.921 64.2622 150.424C65.7097 151.416 67.0382 152.511 68.4509 153.473C69.1461 153.959 69.8806 154.387 70.6469 154.752C71.0271 154.928 71.4178 155.08 71.8167 155.208C72.0199 155.262 72.2232 155.302 72.4264 155.351L72.7338 155.416H73.0411C74.7116 155.604 76.3177 154.92 77.7255 154.082C79.1332 153.245 80.427 152.189 81.7456 151.217C83.0263 150.195 84.4533 149.372 85.9789 148.774C87.5427 148.346 89.1886 148.315 90.7673 148.684C92.3288 148.982 93.8357 149.423 95.3426 149.785C96.8193 150.188 98.3484 150.367 99.8783 150.315C101.373 150.176 102.763 149.491 103.784 148.392C104.773 147.299 105.637 146.1 106.362 144.818C107.111 143.569 107.819 142.3 108.642 141.115C109.421 139.903 110.467 138.885 111.701 138.141C112.945 137.509 114.285 137.087 115.666 136.892C117.02 136.649 118.363 136.495 119.677 136.282C120.978 136.105 122.253 135.763 123.469 135.266C124.647 134.775 125.636 133.918 126.289 132.822C126.886 131.731 127.298 130.548 127.509 129.322C128.004 126.913 128.133 124.499 128.773 122.244C129.064 121.123 129.593 120.078 130.324 119.18C131.064 118.347 131.914 117.62 132.852 117.019C134.662 115.8 136.555 114.868 138.196 113.698C139.013 113.144 139.755 112.486 140.402 111.74C141.005 111.013 141.426 110.153 141.631 109.232C141.804 108.341 141.829 107.428 141.705 106.53C141.603 105.669 141.447 104.814 141.24 103.972C140.843 102.321 140.397 100.765 140.119 99.2531C139.797 97.832 139.797 96.3566 140.119 94.9355C140.5 93.7189 141.076 92.5722 141.824 91.54C143.168 89.6018 144.462 88.0701 145.294 86.7019C145.99 85.6955 146.494 84.5697 146.781 83.3807C146.856 83.0786 146.899 82.7697 146.91 82.4587L146.94 82.1464C146.94 82.1464 146.94 82.2505 146.94 82.4587C146.931 82.7708 146.891 83.0813 146.821 83.3857C146.539 84.5842 146.034 85.7191 145.334 86.7317C144.486 88.1097 143.202 89.6464 141.864 91.5846C141.12 92.6087 140.553 93.7496 140.184 94.9603C139.861 96.3664 139.861 97.8272 140.184 99.2332C140.461 100.72 140.912 102.292 141.314 103.942C141.53 104.791 141.695 105.652 141.81 106.52C141.933 107.43 141.908 108.354 141.735 109.256C141.528 110.199 141.1 111.079 140.486 111.824C139.833 112.578 139.085 113.245 138.26 113.807C136.605 114.987 134.716 115.923 132.917 117.138C131.998 117.735 131.164 118.454 130.438 119.274C129.722 120.159 129.205 121.186 128.921 122.288C128.292 124.519 128.153 126.928 127.667 129.352C127.458 130.597 127.04 131.799 126.433 132.906C125.763 134.035 124.748 134.917 123.538 135.424C122.31 135.929 121.022 136.275 119.706 136.455C118.388 136.673 117.039 136.827 115.696 137.07C114.332 137.265 113.009 137.682 111.78 138.304C110.581 139.032 109.564 140.024 108.806 141.204C107.993 142.379 107.284 143.643 106.531 144.902C105.801 146.198 104.93 147.408 103.933 148.511C102.879 149.647 101.442 150.354 99.8981 150.494C98.3466 150.555 96.795 150.376 95.298 149.963C93.7861 149.601 92.2792 149.165 90.7326 148.873C89.1884 148.511 87.5785 148.54 86.0483 148.957C84.546 149.549 83.1409 150.363 81.8794 151.371C80.5658 152.338 79.272 153.379 77.8444 154.251C77.4726 154.449 77.1207 154.682 76.7341 154.846C76.5407 154.935 76.3524 155.029 76.159 155.109L75.5592 155.322C74.7459 155.601 73.8821 155.702 73.0262 155.619L72.704 155.594C72.5999 155.594 72.4958 155.55 72.3868 155.53C72.1786 155.48 71.9654 155.441 71.7622 155.381C71.3504 155.254 70.9479 155.098 70.5576 154.915C69.7797 154.546 69.0336 154.113 68.327 153.621C66.9043 152.63 65.5709 151.549 64.1383 150.573C63.4266 150.079 62.6756 149.645 61.8928 149.274C61.1008 148.922 60.2539 148.709 59.3895 148.645C57.6223 148.637 55.8636 148.889 54.1698 149.393C52.4281 149.905 50.65 150.285 48.8509 150.528C47.9317 150.618 47.0039 150.556 46.1048 150.345C45.2041 150.094 44.3731 149.639 43.6758 149.016C42.268 147.782 41.3064 146.161 40.3546 144.58C39.4727 142.944 38.4405 141.394 37.2714 139.95C36.6623 139.252 35.9296 138.672 35.1101 138.24C34.2654 137.838 33.3772 137.536 32.4631 137.338C30.6191 136.931 28.7205 136.758 26.827 136.416C25.873 136.257 24.9355 136.011 24.0263 135.682C23.1041 135.344 22.2607 134.821 21.5478 134.145C20.8711 133.423 20.3528 132.567 20.026 131.632C19.6913 130.709 19.444 129.756 19.2874 128.787C18.9404 126.859 18.7917 124.896 18.296 122.992C18.0901 122.039 17.7426 121.121 17.2649 120.271C16.7632 119.43 16.1073 118.692 15.3317 118.095C13.795 116.86 12.0204 115.928 10.3102 114.882C9.44746 114.362 8.61953 113.786 7.83174 113.157C7.02989 112.515 6.35708 111.726 5.84894 110.833C5.35945 109.919 5.11361 108.895 5.13513 107.858C5.1469 106.833 5.26652 105.811 5.49203 104.81C5.91338 102.827 6.54292 100.844 6.87008 98.8615C7.0572 97.8627 7.08896 96.8411 6.96426 95.8327C6.8141 94.8308 6.47785 93.8657 5.97286 92.9874C4.98146 91.2029 3.61333 89.6216 2.40878 87.9214C1.78105 87.0742 1.23186 86.1716 0.768012 85.2247C0.263806 84.2824 0 83.2301 0 82.1613C0 81.0925 0.263806 80.0403 0.768012 79.0979C1.22551 78.1539 1.76982 77.2544 2.39391 76.4112C3.59846 74.7109 4.94181 73.1297 5.95304 71.3501C6.45754 70.4698 6.79374 69.5032 6.94444 68.4998C7.06009 67.4908 7.02668 66.4703 6.84529 65.4711C6.51317 63.4883 5.88364 61.5055 5.46229 59.5227C5.24088 58.5229 5.12294 57.503 5.11035 56.4791C5.09058 55.4424 5.33812 54.4181 5.82911 53.5049C6.34057 52.6154 7.01292 51.8287 7.81191 51.185C8.59849 50.5551 9.42653 49.9788 10.2904 49.46C12.0006 48.4141 13.7603 47.4772 15.3119 46.2478C16.086 45.6505 16.7403 44.9121 17.2401 44.0717C17.7155 43.2188 18.0613 42.3 18.2662 41.3454C18.7272 39.4419 18.8859 37.4839 19.2576 35.5556C19.4126 34.5863 19.6582 33.6336 19.9913 32.7103C20.2902 31.7651 20.8105 30.9049 21.5088 30.2014C22.2072 29.4978 23.0635 28.9712 24.0064 28.6654C24.9157 28.3359 25.8532 28.0904 26.8071 27.9317C28.7007 27.5897 30.5992 27.436 32.4432 27.0147C33.3556 26.8106 34.2432 26.5081 35.0903 26.1125C35.9074 25.6767 36.6381 25.0955 37.2466 24.3974C38.4157 22.9531 39.4479 21.4031 40.3298 19.7675C41.2816 18.1863 42.2432 16.5653 43.656 15.336C44.3567 14.7039 45.1951 14.2439 46.1048 13.9926C47.0042 13.7835 47.9316 13.7216 48.8509 13.8092C50.639 14.0483 52.4068 14.4194 54.14 14.9196C55.833 15.4279 57.5921 15.6818 59.3598 15.6731C60.2161 15.6048 61.0544 15.3902 61.8383 15.0386C62.6236 14.6727 63.3751 14.2381 64.0838 13.7398C65.5213 12.7484 66.8548 11.6628 68.2774 10.6962C68.9829 10.2025 69.7292 9.76965 70.5081 9.40244C70.8978 9.22078 71.2984 9.0635 71.7076 8.93153C71.9158 8.87205 72.129 8.83735 72.3372 8.78778L72.6495 8.71838H72.9717C73.8276 8.63754 74.6908 8.7389 75.5047 9.0158L76.1045 9.22895C76.2979 9.30826 76.4862 9.40244 76.6795 9.49167C77.0711 9.66021 77.4231 9.88823 77.7899 10.0865C79.2225 10.9589 80.5113 11.9999 81.8299 12.9665C83.0901 13.9738 84.4935 14.7874 85.9937 15.3806C87.5236 15.7998 89.1342 15.8288 90.6781 15.4649C92.2247 15.1774 93.7316 14.7411 95.2435 14.3793C96.7406 13.9676 98.2919 13.787 99.8436 13.8439C101.387 13.9857 102.823 14.6917 103.879 15.8267C104.877 16.9315 105.75 18.1434 106.481 19.4404C107.234 20.6945 107.938 21.9635 108.751 23.1333C109.508 24.3162 110.525 25.3099 111.726 26.0381C112.954 26.6629 114.277 27.08 115.642 27.2724C116.985 27.5153 118.333 27.669 119.652 27.8871C120.967 28.0695 122.254 28.4159 123.484 28.9182C124.694 29.4247 125.71 30.3054 126.383 31.4314C126.989 32.5396 127.406 33.7406 127.618 34.9855C128.113 37.4095 128.242 39.8186 128.867 42.0493C129.154 43.1498 129.671 44.177 130.384 45.0631C131.108 45.8867 131.942 46.6072 132.862 47.2045C134.662 48.419 136.555 49.3559 138.206 50.5356C139.03 51.0976 139.778 51.7641 140.432 52.5184C141.046 53.2617 141.476 54.1399 141.686 55.0812C141.858 55.9849 141.884 56.9107 141.76 57.8224C141.646 58.6891 141.481 59.5482 141.264 60.3951C140.868 62.0508 140.412 63.6023 140.134 65.1092C139.812 66.5153 139.812 67.9761 140.134 69.3822C140.503 70.5929 141.071 71.7337 141.815 72.7579C143.148 74.701 144.432 76.2278 145.284 77.6108C145.984 78.6241 146.488 79.7588 146.772 80.9568C146.841 81.2612 146.881 81.5716 146.891 81.8837C146.95 82.0622 146.95 82.1712 146.95 82.1712Z" fill="#263238"/>
<path d="M59.7559 150.309C59.8253 150.309 57.9962 157.744 55.6713 166.875C53.3465 176.006 51.4033 183.397 51.3339 183.382C51.2645 183.367 53.0937 175.946 55.4185 166.811C57.7433 157.675 59.7063 150.269 59.7559 150.309Z" fill="#263238"/>
<path d="M73.5461 127.167C98.3987 127.167 118.546 107.02 118.546 82.1676C118.546 57.315 98.3987 37.168 73.5461 37.168C48.6934 37.168 28.5464 57.315 28.5464 82.1676C28.5464 107.02 48.6934 127.167 73.5461 127.167Z" fill="white"/>
<path d="M45.8363 66.5758C45.2167 67.1955 41.8063 73.4016 41.494 78.5222C41.1817 83.6428 41.9203 112.383 41.9203 112.383L42.0541 114.292C50.1539 123.765 79.5984 137.862 106.118 114.242L107.606 96.5608L103.228 59.1304L88.0105 55.4077L84.4464 49.6328L60.6924 55.1946L58.5709 60.2011L45.8363 66.5758Z" fill="#455A64"/>
<path d="M82.816 34.5791C83.8619 30.6879 84.8881 26.7719 85.2499 22.7616C85.6118 18.7514 85.2797 14.6074 83.6835 10.9095C83.4406 10.3493 81.433 6.60678 80.8283 6.70097C80.397 6.76541 81.6957 10.2849 81.4975 10.6666C79.589 14.3694 79.242 18.7167 79.7923 22.8459C80.3599 26.8558 81.3741 30.7897 82.816 34.5742" fill="#263238"/>
<path d="M82.4188 19.2103C82.2304 9.11287 76.1928 0.809897 66.1053 1.28081L65.1734 1.37995C60.6615 1.8556 56.494 4.01215 53.4997 7.42064C50.5055 10.8291 48.9039 15.2398 49.0136 19.7754C49.2317 28.5245 49.5787 38.1906 50.1289 42.8403C51.2641 52.4619 61.0343 52.9476 61.0343 52.9476L61.4854 59.2777L65.6245 63.7737L84.813 51.8769L82.4188 19.2103Z" fill="#FFBF9D"/>
<path d="M61.0601 53.0274C61.0601 53.0274 67.172 52.7449 73.2146 47.9961C73.2146 47.9961 71.1922 56.7254 61.4864 56.8691L61.0601 53.0274Z" fill="#FF9A6C"/>
<path d="M54.5604 27.6264C54.5945 27.9882 54.7695 28.3221 55.0478 28.5559C55.3261 28.7897 55.6852 28.9045 56.0475 28.8755C56.224 28.8711 56.3977 28.8315 56.5586 28.7589C56.7195 28.6863 56.8642 28.5823 56.9843 28.453C57.1044 28.3237 57.1974 28.1717 57.2578 28.0059C57.3183 27.8401 57.345 27.6638 57.3364 27.4876C57.3011 27.1262 57.1257 26.7931 56.8477 26.5596C56.5697 26.3261 56.2113 26.2108 55.8493 26.2384C55.6726 26.2421 55.4985 26.2813 55.3373 26.3537C55.1762 26.426 55.0311 26.53 54.9109 26.6595C54.7907 26.7889 54.6977 26.9412 54.6375 27.1073C54.5773 27.2734 54.5511 27.4499 54.5604 27.6264Z" fill="#263238"/>
<path d="M51.4971 23.5623C51.6855 23.7209 52.6471 22.8435 54.1293 22.6898C55.6114 22.5362 56.7714 23.1855 56.9151 22.9625C56.9845 22.8782 56.7763 22.5709 56.2657 22.2735C55.5787 21.8989 54.7929 21.7448 54.0153 21.8323C53.2451 21.9116 52.5198 22.2326 51.9432 22.7493C51.5219 23.1508 51.4029 23.4879 51.4971 23.5623Z" fill="#263238"/>
<path d="M67.6422 26.5141C67.6762 26.8759 67.8513 27.2099 68.1296 27.4436C68.4079 27.6774 68.767 27.7922 69.1293 27.7633C69.3057 27.7589 69.4795 27.7192 69.6404 27.6466C69.8012 27.5741 69.946 27.4701 70.0661 27.3408C70.1862 27.2114 70.2792 27.0594 70.3396 26.8936C70.4001 26.7278 70.4268 26.5516 70.4181 26.3753C70.3841 26.0131 70.2092 25.6787 69.9311 25.4441C69.6529 25.2096 69.2938 25.0936 68.931 25.1212C68.7544 25.1262 68.5805 25.1665 68.4196 25.2396C68.2587 25.3127 68.114 25.4172 67.994 25.5469C67.874 25.6766 67.781 25.829 67.7206 25.995C67.6602 26.1611 67.6336 26.3376 67.6422 26.5141Z" fill="#263238"/>
<path d="M66.0669 22.6326C66.2553 22.7962 67.2219 21.9139 68.6991 21.7602C70.1763 21.6065 71.3461 22.2559 71.4849 22.0378C71.5543 21.9486 71.3511 21.6412 70.8405 21.3488C70.1523 20.9723 69.3644 20.8181 68.5851 20.9076C67.814 20.9836 67.0877 21.305 66.5131 21.8246C66.0967 22.2212 65.9777 22.5632 66.0669 22.6326Z" fill="#263238"/>
<path d="M61.9519 34.5716C61.9519 34.4873 61.015 34.4229 59.5031 34.3882C59.1215 34.3882 58.7546 34.3535 58.6654 34.1007C58.5906 33.7143 58.6373 33.3143 58.7993 32.9556L59.6122 29.9814C60.7325 25.7184 61.5008 22.2286 61.3323 22.184C61.1637 22.1394 60.1079 25.5597 58.9876 29.8277L58.2242 32.8267C58.0376 33.3025 58.0235 33.8287 58.1846 34.3138C58.2523 34.4429 58.3487 34.5548 58.4664 34.6407C58.5842 34.7267 58.7201 34.7844 58.8637 34.8095C59.0793 34.836 59.2974 34.836 59.5131 34.8095C61.0249 34.7451 61.9569 34.6558 61.9519 34.5716Z" fill="#263238"/>
<path d="M66.4194 35.1336C66.1765 35.1336 66.345 36.7495 65.0909 38.0384C63.8368 39.3272 62.1167 39.3272 62.1167 39.5552C62.1167 39.6543 62.5281 39.8278 63.2568 39.7683C64.1954 39.6802 65.0729 39.2643 65.7353 38.5935C66.3675 37.9446 66.7229 37.0755 66.7267 36.1696C66.7515 35.4905 66.5284 35.1137 66.4194 35.1336Z" fill="#263238"/>
<path d="M65.5164 16.6162C65.7048 17.0028 67.1621 16.6558 68.9219 16.6856C70.6816 16.7153 72.1389 17.0375 72.3273 16.6509C72.4116 16.4674 72.129 16.1155 71.5193 15.7834C70.7105 15.3912 69.8232 15.1875 68.9243 15.1875C68.0254 15.1875 67.1382 15.3912 66.3293 15.7834C65.7048 16.0808 65.4321 16.4327 65.5164 16.6162Z" fill="#263238"/>
<path d="M51.5926 18.5737C51.8851 18.881 52.8715 18.425 54.0959 18.2763C55.3203 18.1276 56.386 18.2763 56.5744 17.8896C56.6636 17.7062 56.4654 17.3939 55.9796 17.1163C55.3288 16.7989 54.5984 16.6818 53.881 16.7797C53.1636 16.8777 52.4914 17.1863 51.9495 17.6666C51.5629 18.0582 51.4588 18.42 51.5926 18.5737Z" fill="#263238"/>
<path d="M82.3843 26.4344C82.5429 26.3452 88.7986 23.7775 89.2844 30.4C89.7702 37.0226 83.0535 36.1204 83.0089 35.932C82.9643 35.7437 82.3843 26.4344 82.3843 26.4344Z" fill="#FFBF9D"/>
<path d="M84.8432 33.2824C84.8729 33.2824 84.9621 33.3518 85.1654 33.4261C85.4478 33.5239 85.7571 33.5079 86.0279 33.3815C86.707 33.0742 87.2126 31.9241 87.1581 30.7295C87.1351 30.1613 86.9843 29.6055 86.7169 29.1036C86.6394 28.902 86.5141 28.7222 86.3518 28.5798C86.1895 28.4373 85.995 28.3364 85.785 28.2857C85.6508 28.2591 85.5115 28.2809 85.3917 28.3471C85.272 28.4133 85.1795 28.5198 85.1307 28.6476C85.0514 28.8409 85.1059 28.9698 85.0712 28.9846C85.0365 28.9995 84.9225 28.8806 84.9522 28.6079C84.9782 28.4403 85.0604 28.2865 85.1852 28.1717C85.3574 28.0216 85.5817 27.9451 85.8098 27.9586C86.0851 27.9911 86.3472 28.0945 86.5705 28.2587C86.7938 28.423 86.9707 28.6423 87.0837 28.8954C87.4093 29.4467 87.5932 30.07 87.6191 30.7097C87.6736 32.0431 87.0837 33.3419 86.132 33.6839C85.9587 33.7492 85.7729 33.7746 85.5884 33.7583C85.4039 33.742 85.2254 33.6844 85.0662 33.5897C84.868 33.441 84.8233 33.2923 84.8432 33.2824Z" fill="#FF9A6C"/>
<path d="M52.5884 8.53798C51.483 8.01254 54.4721 4.3394 57.0497 2.97623C60.9112 0.919071 66.9092 -0.582899 70.6418 0.220135C75.1378 1.21154 78.9448 3.14477 81.4183 7.02114C83.8919 10.8975 85.027 15.5224 85.1956 20.1175C85.2452 21.5204 85.1956 22.9876 84.5214 24.217C83.6936 25.7388 81.9785 26.7748 82.1867 28.7873C82.2363 29.1507 82.2127 29.5203 82.1173 29.8745C82.022 30.2286 81.8568 30.5601 81.6315 30.8494C80.5013 32.2176 78.9448 31.1023 78.1864 29.9324C76.5654 27.4539 76.2036 24.3558 75.8863 21.3915C75.6583 19.2897 75.4352 17.1384 75.8863 15.0763C76.1342 13.951 76.5902 12.8754 76.7786 11.7402C76.967 10.6051 76.8529 9.34102 76.0995 8.46859C75.9239 8.2856 75.7313 8.11963 75.5245 7.97289C74.5492 7.22435 73.3918 6.74976 72.1718 6.59813C70.9518 6.4465 69.7135 6.62334 68.5847 7.11037C64.9413 8.66687 58.7103 11.0462 56.9655 9.88629C54.4622 8.22074 53.8078 7.05088 53.8078 7.05088L52.5884 8.53798Z" fill="#263238"/>
<path d="M45.8371 66.5781C45.4554 67.1085 40.0374 68.9079 37.9802 72.3332C35.9231 75.7585 33.8907 91.1351 33.8907 91.1351L32.582 101.237C35.1597 105.312 38.6197 110.71 42.2878 114.517L45.8371 66.5781Z" fill="#455A64"/>
<g opacity="0.3">
<path d="M86.5479 81.4022C86.694 83.4754 87.0867 85.5239 87.7177 87.5042C88.4266 89.4523 89.6708 91.2864 91.49 92.2927C92.2484 92.7091 93.106 92.9867 93.7454 93.5815C94.3849 94.1764 94.7715 95.138 95.3912 95.8369C96.1663 96.6057 97.1227 97.1666 98.172 97.4678C101.125 98.5506 104.258 99.0554 107.402 98.9549C107.501 97.8941 107.506 93.9979 107.605 92.9321L86.5479 81.4022Z" fill="black"/>
</g>
<path d="M103.229 59.1289C103.229 59.1289 110.06 61.1514 112.062 64.0611C114.065 66.9709 117.609 78.253 118.338 80.3449C119.067 82.4367 118.427 87.2847 117.064 90.7546C115.701 94.2245 113.331 97.2433 109.242 97.6944C105.152 98.1455 98.6883 95.7859 97.231 94.2245C95.7736 92.663 95.1738 89.208 95.1738 89.208C96.99 88.8897 98.7808 88.4407 100.532 87.8646" fill="#455A64"/>
<path d="M100.533 87.8996L100.449 87.9343L100.191 88.0285C99.9632 88.1078 99.6212 88.2218 99.1701 88.3557C97.8667 88.7454 96.5428 89.0631 95.2045 89.3074L95.259 89.2331C95.4252 90.0847 95.6589 90.9218 95.9579 91.7364C96.1211 92.1981 96.3183 92.6471 96.5478 93.0797C96.7831 93.542 97.0929 93.9623 97.4649 94.3239C97.8845 94.684 98.3474 94.9904 98.8429 95.236C99.3663 95.5108 99.9041 95.7573 100.454 95.9746C101.634 96.4463 102.846 96.8307 104.082 97.1246C105.417 97.452 106.784 97.6266 108.157 97.6451C108.515 97.6483 108.872 97.6317 109.228 97.5955C109.587 97.5544 109.942 97.4915 110.294 97.4072C111.014 97.2452 111.705 96.9762 112.346 96.6091C113.679 95.838 114.799 94.7457 115.603 93.4316C116.453 92.0671 117.103 90.5882 117.536 89.0397C117.889 87.8499 118.152 86.6354 118.324 85.4063C118.508 84.2161 118.568 83.01 118.502 81.8075C118.463 81.2289 118.345 80.6585 118.15 80.1122C117.962 79.557 117.779 79.0068 117.6 78.4615L116.534 75.2742C115.831 73.2021 115.137 71.2441 114.443 69.4249C113.833 67.7321 113.099 66.0868 112.247 64.5026C111.853 63.8292 111.327 63.2425 110.7 62.7776C110.154 62.3432 109.574 61.9536 108.965 61.6127C107.987 61.0548 106.976 60.5581 105.936 60.1256C105.084 59.7736 104.41 59.5258 103.954 59.3622L103.433 59.1788C103.371 59.1623 103.311 59.139 103.255 59.1094C103.317 59.1175 103.379 59.1325 103.438 59.154L103.968 59.3126C104.434 59.4613 105.118 59.6943 105.981 60.0314C107.029 60.4452 108.051 60.9236 109.039 61.464C109.659 61.8049 110.251 62.1944 110.809 62.6288C111.454 63.1021 111.997 63.7006 112.405 64.3886C113.277 65.9814 114.026 67.6386 114.646 69.3456C115.355 71.1598 116.054 73.1228 116.762 75.1948C117.114 76.2309 117.471 77.2966 117.838 78.3822C118.022 78.9225 118.205 79.4727 118.388 80.0279C118.592 80.593 118.717 81.1835 118.76 81.7827C118.831 83.0032 118.772 84.2277 118.587 85.436C118.411 86.6784 118.145 87.9061 117.789 89.1091C117.346 90.6839 116.678 92.1865 115.806 93.5704C114.979 94.9196 113.827 96.0395 112.455 96.8272C111.794 97.2032 111.08 97.4789 110.338 97.6451C109.977 97.7311 109.611 97.7956 109.243 97.8384C108.876 97.8384 108.509 97.9029 108.152 97.888C106.76 97.8627 105.374 97.6798 104.023 97.3427C102.776 97.0437 101.553 96.6509 100.365 96.1679C99.8113 95.9441 99.2702 95.6909 98.7438 95.4095C98.2337 95.154 97.7575 94.836 97.3261 94.4627C96.9424 94.083 96.6242 93.6425 96.3842 93.159C96.1542 92.7198 95.957 92.2642 95.7944 91.7958C95.5037 90.9667 95.2767 90.1166 95.1152 89.2529V89.1885H95.1797C96.9245 88.8861 98.2629 88.544 99.1701 88.2962L100.201 88.0037L100.464 87.9294C100.503 87.8996 100.533 87.8947 100.533 87.8996Z" fill="#263238"/>
<path d="M113.069 84.2468C113.02 84.2468 112.861 83.4041 112.291 82.145C111.542 80.5082 110.497 79.0242 109.208 77.768C108.494 77.0881 107.686 76.5139 106.809 76.0628L106.209 75.7951C106.011 75.7059 105.802 75.6662 105.614 75.6018C105.257 75.4895 104.89 75.4131 104.519 75.3738L104.271 75.3391H103.597C103.364 75.3356 103.131 75.3555 102.903 75.3986C102.703 75.4386 102.501 75.4601 102.298 75.463C102.486 75.3852 102.682 75.3303 102.883 75.2994C103.114 75.234 103.352 75.199 103.592 75.1953H104.038H104.281L104.538 75.2251C104.923 75.2518 105.303 75.3182 105.674 75.4233C105.882 75.4754 106.087 75.5383 106.288 75.6117L106.913 75.8794C107.822 76.3285 108.658 76.9135 109.391 77.6143C110.709 78.8874 111.753 80.4155 112.46 82.1054C112.586 82.3928 112.695 82.6874 112.787 82.9877C112.863 83.2134 112.926 83.4435 112.975 83.6767C113.025 83.8633 113.056 84.0542 113.069 84.2468Z" fill="#263238"/>
<path d="M116.796 78.1153C116.515 77.3939 116.17 76.6988 115.765 76.0383C114.738 74.4704 113.2 73.3058 111.413 72.7419C109.316 72.1025 107.279 72.3008 105.856 72.4346L104.156 72.6378C103.95 72.675 103.741 72.6933 103.531 72.6924C103.727 72.6158 103.932 72.5642 104.141 72.5387C104.538 72.4594 105.132 72.3553 105.836 72.2561C107.715 71.9278 109.643 72.009 111.487 72.4941C112.497 72.7977 113.435 73.3036 114.243 73.9812C114.905 74.5436 115.471 75.2099 115.919 75.9541C116.225 76.4425 116.47 76.9669 116.647 77.5155C116.72 77.7091 116.77 77.9103 116.796 78.1153Z" fill="#263238"/>
<path d="M111.647 70.7791C108.975 70.149 106.181 70.2587 103.567 71.0963C103.91 70.8727 104.286 70.7053 104.682 70.6006C105.62 70.3122 106.592 70.1456 107.572 70.1049C108.553 70.0702 109.534 70.1601 110.492 70.3726C110.895 70.4497 111.284 70.5867 111.647 70.7791Z" fill="#263238"/>
<path d="M100.593 60.8359C100.632 60.8359 100.533 61.5349 100.454 62.6552C100.246 65.5246 100.494 68.409 101.188 71.201L101.009 71.2605C100.806 70.6905 100.647 70.2245 100.543 69.8973C100.478 69.7378 100.432 69.5716 100.404 69.4016C100.505 69.5556 100.585 69.7223 100.642 69.8973C100.776 70.2096 100.96 70.6657 101.188 71.2308L101.009 71.2853C100.617 69.9137 100.356 68.5078 100.231 67.0867C100.101 65.6167 100.114 64.1375 100.271 62.67C100.335 62.1099 100.409 61.6786 100.469 61.3465C100.485 61.1713 100.527 60.9993 100.593 60.8359Z" fill="#263238"/>
<path d="M90.9314 48.1211C90.9314 48.1211 87.3872 48.1211 86.941 52.3792C86.599 55.6508 86.941 58.8233 86.941 60.2608C86.941 61.6983 86.3115 66.7892 86.3115 66.7892C86.3115 66.7892 83.8925 68.9355 83.9321 71.5132C83.9718 74.0908 85.8158 74.8939 85.8158 74.8939C85.5066 75.6926 85.4385 76.5645 85.62 77.4016C85.8015 78.2387 86.2246 79.0041 86.8369 79.603C86.8369 79.603 85.8108 81.9774 86.6535 83.5686C87.1392 84.3601 87.8972 84.9471 88.785 85.2193C88.6396 85.5325 88.5631 85.8733 88.5606 86.2187C88.5582 86.564 88.6298 86.9059 88.7708 87.2212C88.9118 87.5364 89.1187 87.8178 89.3777 88.0463C89.6367 88.2747 89.9417 88.4449 90.2721 88.5454C91.4631 88.9143 92.7104 89.0671 93.9552 88.9965L96.6022 88.947L98.932 90.2358C98.932 90.2358 102.927 88.4959 103.027 86.1413L103.131 83.7867C103.131 83.7867 101.986 79.9203 101.891 78.681C101.797 77.4418 102.813 74.4824 102.199 73.154C101.584 71.8255 99.4376 71.0423 99.6409 69.1884C99.8441 67.3344 99.4376 66.3034 98.5156 65.2773C97.5936 64.2512 93.5239 62.2089 93.5239 62.2089C93.5239 62.2089 92.478 59.2347 92.478 57.1974C92.478 55.16 94.5153 48.8993 90.9314 48.1211Z" fill="#FFBF9D"/>
<path d="M93.3199 62.9805C93.0152 63.2298 92.6825 63.4427 92.3285 63.615C91.7039 63.9818 90.8414 64.4676 89.85 64.993C88.8586 65.5185 87.9961 65.9844 87.3715 66.3066C87.0339 66.5107 86.6748 66.6769 86.3008 66.8023C86.6044 66.5501 86.9373 66.3355 87.2922 66.1629C87.9168 65.796 88.7793 65.3103 89.7707 64.7848C90.7621 64.2594 91.6246 63.7934 92.2492 63.4712C92.5861 63.2671 92.9454 63.1024 93.3199 62.9805Z" fill="#FF9A6C"/>
<path d="M95.6503 70.9961C95.6503 70.9961 95.5512 71.1101 95.338 71.2737C95.0422 71.506 94.7344 71.7227 94.4161 71.9231C93.3693 72.5939 92.2564 73.1553 91.0949 73.5985C89.9333 74.0491 88.7293 74.3812 87.501 74.5899C87.0053 74.6643 86.6435 74.7089 86.3807 74.7238C86.2431 74.7495 86.102 74.7495 85.9644 74.7238C85.9644 74.6841 86.5394 74.6048 87.4515 74.4115C88.6542 74.1587 89.8358 73.814 90.9858 73.3804C92.1331 72.9365 93.2436 72.4028 94.307 71.7843C94.7411 71.4989 95.1894 71.2358 95.6503 70.9961Z" fill="#FF9A6C"/>
<path d="M98.6936 68.4432C98.7581 68.468 98.6242 68.9389 98.1979 69.3008C97.7716 69.6626 97.3156 69.7717 97.3007 69.7072C97.2859 69.6428 97.6527 69.4544 98.0245 69.1074C98.3962 68.7604 98.6242 68.4134 98.6936 68.4432Z" fill="#FF9A6C"/>
<path d="M97.2316 78.0117C96.7555 78.243 96.2573 78.4257 95.7445 78.557C94.525 78.9198 93.2831 79.203 92.0268 79.4046C90.7706 79.6094 89.502 79.7286 88.2297 79.7615C87.7024 79.8022 87.1722 79.7856 86.6484 79.712C87.1692 79.6379 87.6939 79.5948 88.2198 79.5831C89.2112 79.5137 90.5248 79.3848 91.9871 79.1518C93.4494 78.9189 94.7531 78.6165 95.695 78.3785C96.1996 78.2265 96.7127 78.104 97.2316 78.0117Z" fill="#FF9A6C"/>
<path d="M100.473 77.4405C100.548 77.1824 100.639 76.9291 100.746 76.6821C100.942 76.0766 101.008 75.4363 100.939 74.8034C100.86 74.171 100.643 73.5635 100.304 73.0238C100.144 72.8083 99.9965 72.5832 99.8633 72.3497C99.8633 72.3249 100.146 72.5083 100.458 72.9197C100.859 73.4635 101.112 74.1021 101.192 74.7729C101.272 75.4437 101.176 76.1238 100.914 76.7465C100.711 77.1976 100.498 77.4405 100.473 77.4405Z" fill="#FF9A6C"/>
<path d="M97.4293 85.1888C97.0232 85.3385 96.6004 85.4384 96.1702 85.4863C95.1405 85.6487 94.0996 85.7299 93.0572 85.7292C92.0124 85.7273 90.9696 85.6394 89.9393 85.4664C89.5087 85.4178 89.0858 85.3163 88.6802 85.1641C89.1107 85.1716 89.54 85.2131 89.964 85.288C90.9911 85.4041 92.0236 85.4653 93.0572 85.4714C94.0888 85.4693 95.1197 85.413 96.1454 85.3029C96.5697 85.2307 96.999 85.1926 97.4293 85.1888Z" fill="#FF9A6C"/>
<path d="M91.1245 57.2417C91.1245 57.2714 90.9609 57.4052 90.6288 57.5242C90.1915 57.6703 89.7273 57.7176 89.2696 57.6628C88.8119 57.6079 88.372 57.4522 87.9817 57.207C87.6843 57.0136 87.5455 56.8451 87.5653 56.8203C88.1134 57.0956 88.6974 57.2925 89.3003 57.4052C89.913 57.4378 90.5273 57.3828 91.1245 57.2417Z" fill="#FF9A6C"/>
<path d="M101.206 77.7266C101.251 77.8487 101.271 77.9783 101.266 78.1082C101.266 78.4606 101.224 78.8116 101.142 79.1542C101.048 79.5854 100.884 80.0861 100.725 80.6413C100.533 81.2221 100.471 81.838 100.542 82.4456C100.626 83.0752 101.097 83.5808 101.172 84.2202C101.222 84.7607 101.084 85.3021 100.78 85.7519C100.595 86.0502 100.381 86.3292 100.14 86.5847C99.9719 86.7681 99.8679 86.8574 99.853 86.8474C99.8381 86.8375 100.195 86.4112 100.621 85.6627C100.878 85.2407 100.987 84.7458 100.934 84.2549C100.874 83.7146 100.398 83.209 100.284 82.4902C100.209 81.8445 100.282 81.1901 100.497 80.5768C100.671 80.0167 100.849 79.526 100.963 79.0897C101.078 78.6419 101.159 78.1863 101.206 77.7266Z" fill="#FF9A6C"/>
<path d="M102.54 80.8359C102.621 80.9812 102.678 81.1385 102.709 81.3019C102.798 81.6043 102.917 82.0504 103.026 82.6056C103.161 83.2587 103.24 83.922 103.264 84.5884C103.307 85.4217 103.154 86.2535 102.818 87.0173C102.428 87.7487 101.911 88.4049 101.291 88.9555C100.798 89.4047 100.273 89.8172 99.7198 90.1898C99.2489 90.512 98.8523 90.7499 98.5747 90.9036C98.4382 90.996 98.2898 91.0693 98.1336 91.1217C98.1088 91.087 98.7036 90.7103 99.6207 90.0411C100.153 89.6541 100.659 89.2335 101.138 88.782C101.727 88.2433 102.22 87.6079 102.595 86.9033C102.913 86.1742 103.063 85.3833 103.036 84.5884C103.024 83.9322 102.965 83.2778 102.858 82.6304C102.664 81.525 102.501 80.8459 102.54 80.8359Z" fill="#263238"/>
<path d="M65.14 64.3341C64.9338 64.2128 64.7411 64.0699 64.565 63.9078L63.0779 62.6636L62.0469 61.7962C61.8707 61.6313 61.6741 61.4897 61.4619 61.3748C61.3591 61.3222 61.2453 61.2947 61.1298 61.2947C61.0143 61.2947 60.9005 61.3222 60.7977 61.3748C60.3714 61.5979 60.0839 62.1431 59.722 62.5992C59.3602 63.0552 59.0033 63.5906 58.6265 64.0863C58.0317 64.8893 57.4517 65.6577 56.9213 66.3715L56.5991 66.7978L56.7032 66.2723C56.9874 64.7982 57.4004 63.3518 57.9375 61.9498C58.1358 61.4541 58.3142 61.0278 58.4332 60.7552C58.489 60.6087 58.564 60.4704 58.6563 60.3438C58.6223 60.495 58.5741 60.6427 58.5125 60.7849C58.4084 61.0675 58.2548 61.4789 58.0763 62.0043C57.5916 63.4135 57.2122 64.8566 56.9412 66.3219L56.7181 66.2228L58.4183 63.9326L59.5138 62.4455L60.0393 61.7466C60.2061 61.4983 60.4306 61.2942 60.6936 61.1517C60.8314 61.0913 60.981 61.0631 61.1313 61.0691C61.2816 61.0751 61.4286 61.1152 61.5611 61.1864C61.7863 61.3133 61.9945 61.4682 62.1807 61.6474L63.1721 62.5397L64.6195 63.8434C64.8057 63.993 64.9797 64.1571 65.14 64.3341Z" fill="#263238"/>
<path d="M86.0689 60.142C86.0114 60.2071 85.9465 60.2654 85.8755 60.3155L85.2906 60.7715L83.1046 62.4123L75.8128 67.7807L75.7038 67.86L75.6294 67.746C75.5699 67.6568 75.5105 67.5577 75.446 67.4635L71.7877 61.6836L71.9216 61.7282C70.5119 62.2882 69.1522 62.9664 67.8568 63.7556C67.3909 64.0382 67.029 64.2513 66.7812 64.4347C66.6607 64.5255 66.5311 64.6036 66.3945 64.6677C66.4996 64.5584 66.6159 64.4603 66.7415 64.3753C66.9795 64.2018 67.3314 63.949 67.7924 63.6466C69.0712 62.8142 70.4255 62.1038 71.8373 61.525L71.9216 61.4903L71.9712 61.5646C73.0468 63.2351 74.3109 65.213 75.6641 67.3247C75.7286 67.4189 75.788 67.518 75.8475 67.6072L75.6592 67.5725L83.0005 62.2685L85.2311 60.6873L85.8458 60.2709C85.9896 60.1767 86.0639 60.1321 86.0689 60.142Z" fill="#263238"/>
<path d="M41.5795 79.8594C41.6021 79.9736 41.6121 80.09 41.6092 80.2064C41.6092 80.4641 41.6092 80.7962 41.634 81.1978C41.634 82.095 41.6786 83.3491 41.7034 84.8858C41.7629 87.9988 41.8868 92.3213 42.0504 97.0552C42.214 101.789 42.3082 106.112 42.3181 109.23C42.3181 110.791 42.3181 112.05 42.3181 112.923C42.3181 113.334 42.3181 113.671 42.2933 113.914C42.2986 114.032 42.2903 114.15 42.2685 114.266C42.2613 114.149 42.2613 114.031 42.2685 113.914C42.2685 113.661 42.2685 113.324 42.2388 112.923C42.2388 112.02 42.1991 110.766 42.1694 109.235C42.1148 106.117 41.9859 101.799 41.8273 97.0602C41.6687 92.3213 41.5696 88.0037 41.5596 84.8858C41.5596 83.3293 41.5596 82.0652 41.5596 81.1978C41.5596 80.7814 41.5596 80.4493 41.5596 80.2064C41.5588 80.0904 41.5654 79.9745 41.5795 79.8594Z" fill="#263238"/>
<path d="M65.3036 124.633C65.2871 124.588 65.2771 124.541 65.2739 124.494C65.2739 124.385 65.2739 124.246 65.2293 124.073C65.1896 123.681 65.1351 123.141 65.0706 122.452C64.9319 121.044 64.7732 118.982 64.6146 116.478C64.456 113.975 64.3221 110.941 64.2379 107.6C64.1536 104.259 64.1437 100.576 64.2379 96.695C64.3321 92.8137 64.5055 89.1604 64.7336 85.8243C64.9616 82.4883 65.2293 79.4843 65.497 76.9711C65.7646 74.4579 65.9927 72.4206 66.2108 71.0227C66.3099 70.3337 66.3843 69.7984 66.4388 69.4117C66.4685 69.2382 66.4883 69.0994 66.5082 68.9904C66.5106 68.9428 66.5207 68.8959 66.5379 68.8516C66.5456 68.8992 66.5456 68.9477 66.5379 68.9953C66.5379 69.1044 66.5131 69.2432 66.4983 69.4167C66.4537 69.8033 66.3942 70.3436 66.3149 71.0326C66.1463 72.4404 65.9282 74.4728 65.6853 76.981C65.4424 79.4893 65.1896 82.4982 64.9765 85.8342C64.7633 89.1703 64.5997 92.8435 64.5105 96.7C64.4213 100.557 64.4461 104.23 64.5105 107.571C64.5749 110.912 64.6989 113.916 64.8377 116.439C64.9765 118.962 65.1004 121.009 65.2094 122.417C65.2541 123.106 65.2937 123.651 65.3185 124.043C65.3185 124.216 65.3185 124.355 65.3433 124.464C65.3347 124.521 65.3214 124.578 65.3036 124.633Z" fill="#263238"/>
<path d="M50.532 43.5L50.0066 43.847L48.46 44.8384C47.776 45.2796 46.9729 45.9091 46.0311 46.6031C45.5354 46.96 45.0793 47.3912 44.544 47.8275L43.736 48.5066C43.4584 48.7445 43.1957 49.0023 42.9131 49.2749C40.1715 51.8324 37.7633 54.7253 35.7453 57.8852L34.863 59.3029C34.5507 59.7738 34.3127 60.2943 34.0252 60.79C33.7377 61.2857 33.4552 61.8211 33.1974 62.3663C32.9396 62.9116 32.7017 63.4718 32.434 64.0369C32.3101 64.3194 32.1713 64.597 32.0523 64.8895C31.9334 65.1819 31.8293 65.4793 31.7153 65.7817C31.4922 66.3766 31.2543 66.9764 31.0362 67.596C30.6693 68.8501 30.2034 70.1191 29.9258 71.4724C28.5126 77.3275 28.2767 83.4051 29.2318 89.3523C30.4746 97.0105 33.6814 104.216 38.5394 110.265C43.3973 116.314 49.7405 121.001 56.9499 123.868C64.1593 126.734 71.9887 127.683 79.6742 126.622C87.3597 125.56 94.6387 122.524 100.801 117.81C102.357 116.615 103.837 115.323 105.233 113.944L106.224 112.893C106.561 112.546 106.888 112.194 107.215 111.822L108.157 110.737C108.455 110.36 108.747 109.983 109.044 109.612C113.528 103.836 116.52 97.0447 117.754 89.838C118.044 88.1649 118.241 86.4769 118.344 84.7819C118.393 83.9442 118.393 83.1164 118.423 82.3034C118.453 81.4905 118.364 80.6626 118.334 79.8546C118.334 79.4531 118.299 79.0467 118.284 78.6451C118.269 78.2436 118.195 77.852 118.155 77.4555C118.056 76.6673 117.962 75.8841 117.868 75.1108C117.774 74.3375 117.571 73.584 117.422 72.8306C117.298 72.0834 117.132 71.3437 116.926 70.6148L116.311 68.4684C116.215 68.1163 116.098 67.7704 115.96 67.4324C115.831 67.0904 115.702 66.7483 115.578 66.4113C115.315 65.7421 115.082 65.058 114.8 64.4285C114.517 63.7989 114.21 63.1595 113.917 62.5398C111.761 58.0582 108.869 53.9699 105.361 50.4448C102.704 47.8039 99.7379 45.4922 96.5281 43.5595L94.6345 42.4739C94.3487 42.3063 94.0541 42.1541 93.7521 42.0179L92.9194 41.6213L91.4323 40.9174C90.9861 40.6894 90.545 40.5605 90.1732 40.4217L88.4482 39.7575L87.8632 39.5195L88.4581 39.7327L90.1881 40.3771C90.5648 40.5258 91.006 40.6547 91.4571 40.8728L92.9442 41.5668L93.7819 41.9633C94.0854 42.0961 94.3816 42.245 94.6692 42.4095L96.5677 43.4901C99.7985 45.4106 102.783 47.7177 105.456 50.3605C108.985 53.883 111.897 57.9733 114.071 62.4605C114.363 63.0901 114.661 63.7196 114.963 64.364C115.266 65.0084 115.459 65.6875 115.746 66.3468L116.133 67.368C116.271 67.7076 116.389 68.0552 116.485 68.4089C116.693 69.1227 116.901 69.8365 117.11 70.5652C117.324 71.2968 117.498 72.0399 117.63 72.7909C117.779 73.5444 117.957 74.278 118.086 75.0761C118.215 75.8742 118.274 76.6425 118.374 77.4356C118.418 77.8322 118.483 78.2287 118.507 78.6303C118.532 79.0318 118.542 79.4383 118.557 79.8447C118.587 80.6577 118.631 81.4756 118.651 82.3232C118.671 83.1709 118.626 83.9838 118.572 84.8017C118.065 93.8757 114.81 102.581 109.238 109.76L108.336 110.89L107.384 111.986C107.077 112.358 106.744 112.715 106.392 113.062L105.401 114.122C103.997 115.51 102.507 116.808 100.94 118.009C94.7477 122.742 87.4347 125.79 79.7139 126.856C71.993 127.922 64.1278 126.969 56.8848 124.091C49.6418 121.212 43.2682 116.506 38.3854 110.431C33.5026 104.356 30.2772 97.1192 29.0236 89.4266C28.5206 86.3258 28.3544 83.1796 28.5279 80.043C28.6529 77.1499 29.0698 74.2768 29.7721 71.4674C30.0497 70.1092 30.5206 68.8402 30.8874 67.5762C31.1105 66.9615 31.3534 66.3567 31.5814 65.7569C31.6954 65.4595 31.8095 65.1621 31.9185 64.8647C32.0276 64.5673 32.1812 64.2946 32.3052 64.0071C32.5679 63.442 32.8009 62.8868 33.0735 62.3366C33.3461 61.7864 33.6386 61.2758 33.9112 60.7553C34.1839 60.2348 34.4416 59.7193 34.7539 59.2434L35.6462 57.8257C37.6747 54.661 40.1021 51.7705 42.8685 49.2253C43.1511 48.9626 43.4138 48.6949 43.6914 48.457L44.5043 47.7779C45.0397 47.3466 45.4957 46.9203 45.9914 46.5634C46.958 45.8694 47.7512 45.2498 48.4402 44.8136L50.0017 43.8222C50.3387 43.6041 50.532 43.5 50.532 43.5Z" fill="#263238"/>
</svg>
