<svg width="159" height="209" viewBox="0 0 159 209" fill="none" xmlns="http://www.w3.org/2000/svg">
<path d="M132.893 193.123H64.6234C63.3098 193.137 62.0076 192.879 60.7982 192.366C59.5888 191.853 58.4983 191.096 57.5948 190.143C56.6914 189.189 55.9944 188.059 55.5476 186.824C55.1009 185.589 54.9138 184.274 54.9982 182.963L63.8669 13.7151C64.0365 10.9839 65.2335 8.41806 67.2174 6.53332C69.2014 4.64857 71.8252 3.5846 74.5615 3.55526H142.824C144.138 3.54087 145.441 3.79796 146.651 4.31042C147.862 4.82288 148.953 5.57967 149.857 6.5334C150.761 7.48714 151.459 8.61729 151.906 9.85306C152.353 11.0888 152.54 12.4036 152.456 13.7151L143.587 182.963C143.416 185.694 142.219 188.259 140.235 190.143C138.251 192.028 135.628 193.092 132.893 193.123Z" fill="#F65314"/>
<path d="M142.472 10.3675H74.2025C72.468 10.3887 70.8056 11.0643 69.548 12.259C68.2904 13.4536 67.5306 15.0793 67.4205 16.8104L58.8779 179.837C58.824 180.669 58.9423 181.502 59.2255 182.286C59.5087 183.07 59.9507 183.786 60.5237 184.391C61.0966 184.996 61.7884 185.476 62.5555 185.801C63.3226 186.126 64.1486 186.289 64.9817 186.28H133.251C134.985 186.259 136.648 185.584 137.905 184.389C139.163 183.194 139.923 181.569 140.033 179.837L148.575 16.8104C148.629 15.979 148.511 15.1454 148.228 14.3618C147.945 13.5783 147.503 12.8616 146.93 12.2568C146.357 11.652 145.665 11.172 144.898 10.8469C144.131 10.5218 143.305 10.3586 142.472 10.3675Z" fill="#F65314"/>
<path opacity="0.8" d="M142.472 10.3675H74.2025C72.468 10.3887 70.8056 11.0643 69.548 12.259C68.2904 13.4536 67.5306 15.0793 67.4205 16.8104L58.8779 179.837C58.824 180.669 58.9423 181.502 59.2255 182.286C59.5087 183.07 59.9507 183.786 60.5237 184.391C61.0966 184.996 61.7884 185.476 62.5555 185.801C63.3226 186.126 64.1486 186.289 64.9817 186.28H133.251C134.985 186.259 136.648 185.584 137.905 184.389C139.163 183.194 139.923 181.569 140.033 179.837L148.575 16.8104C148.629 15.979 148.511 15.1454 148.228 14.3618C147.945 13.5783 147.503 12.8616 146.93 12.2568C146.357 11.652 145.665 11.172 144.898 10.8469C144.131 10.5218 143.305 10.3586 142.472 10.3675Z" fill="white"/>
<path d="M148.419 3.55526H142.844C144.158 3.54087 145.461 3.79796 146.671 4.31042C147.881 4.82288 148.972 5.57967 149.877 6.5334C150.781 7.48714 151.478 8.61729 151.925 9.85306C152.373 11.0888 152.56 12.4036 152.475 13.7151L143.607 182.963C143.437 185.695 142.24 188.26 140.256 190.145C138.272 192.03 135.648 193.094 132.912 193.123H138.488C141.224 193.094 143.848 192.03 145.832 190.145C147.816 188.26 149.013 185.695 149.182 182.963L158.051 13.7151C158.135 12.4036 157.948 11.0888 157.501 9.85306C157.054 8.61729 156.356 7.48714 155.452 6.5334C154.548 5.57967 153.457 4.82288 152.246 4.31042C151.036 3.79796 149.733 3.54087 148.419 3.55526Z" fill="#F65314"/>
<path opacity="0.4" d="M148.419 3.55526H142.844C144.158 3.54087 145.461 3.79796 146.671 4.31042C147.881 4.82288 148.972 5.57967 149.877 6.5334C150.781 7.48714 151.478 8.61729 151.925 9.85306C152.373 11.0888 152.56 12.4036 152.475 13.7151L143.607 182.963C143.437 185.695 142.24 188.26 140.256 190.145C138.272 192.03 135.648 193.094 132.912 193.123H138.488C141.224 193.094 143.848 192.03 145.832 190.145C147.816 188.26 149.013 185.695 149.182 182.963L158.051 13.7151C158.135 12.4036 157.948 11.0888 157.501 9.85306C157.054 8.61729 156.356 7.48714 155.452 6.5334C154.548 5.57967 153.457 4.82288 152.246 4.31042C151.036 3.79796 149.733 3.54087 148.419 3.55526Z" fill="white"/>
<path opacity="0.4" d="M74.1973 10.3672L83.4702 186.339H107.598L98.3253 10.3998H74.1973V10.3672Z" fill="white"/>
<path opacity="0.4" d="M111.966 186.306H117.398L108.125 10.3672H102.693L111.966 186.306Z" fill="white"/>
<path d="M77.6392 0.586899H80.0324C80.1102 0.586899 80.1849 0.555979 80.2399 0.500947C80.2949 0.445915 80.3258 0.371274 80.3258 0.293447C80.3258 0.215619 80.2949 0.140984 80.2399 0.0859514C80.1849 0.0309191 80.1102 0 80.0324 0H77.6392C77.5613 0 77.4867 0.0309191 77.4317 0.0859514C77.3766 0.140984 77.3457 0.215619 77.3457 0.293447C77.3457 0.371274 77.3766 0.445915 77.4317 0.500947C77.4867 0.555979 77.5613 0.586899 77.6392 0.586899Z" fill="#F65314"/>
<path d="M60.2411 19.9051C60.3911 17.1141 60.2737 14.1339 60.8932 11.4277C62.2757 5.14137 67.923 0.837455 74.2484 0.622259C74.6201 0.622259 74.6266 0.0223237 74.2484 0.0353659C71.4793 0.0960043 68.7842 0.940574 66.4758 2.47109C64.1673 4.0016 62.3401 6.1553 61.2062 8.68232C59.6673 12.1711 59.902 16.2077 59.6934 19.9377C59.6934 20.3159 60.2607 20.3159 60.2803 19.9377L60.2411 19.9051Z" fill="#F65314"/>
<path d="M113.714 45.2894H98.0634C97.375 45.2971 96.6924 45.1626 96.0583 44.8943C95.4243 44.626 94.8525 44.2297 94.3787 43.7302C93.9049 43.2306 93.5393 42.6387 93.3048 41.9914C93.0704 41.344 92.9721 40.6553 93.0161 39.9682L93.8377 24.3176C93.9251 22.8866 94.5517 21.5418 95.5911 20.5544C96.6306 19.567 98.0057 19.0102 99.4394 18.9964H115.09C115.778 18.9887 116.46 19.1232 117.094 19.3916C117.728 19.6599 118.299 20.0564 118.773 20.556C119.246 21.0556 119.611 21.6476 119.845 22.2949C120.078 22.9423 120.176 23.6309 120.131 24.3176L119.316 39.9682C119.225 41.3982 118.598 42.7411 117.559 43.728C116.52 44.7148 115.147 45.2725 113.714 45.2894Z" fill="white"/>
<path d="M103.723 34.4981C102.626 33.297 101.979 31.7532 101.891 30.1289H101.826C101.174 30.1289 100.717 29.4312 100.763 28.5769C100.808 27.7227 101.356 27.0249 101.989 27.0249H102.152L102.269 26.6075C106.045 26.4054 108.138 25.1599 109.292 24.1426C109.532 24.6523 109.877 25.1058 110.304 25.4732C110.731 25.8407 111.231 26.1139 111.77 26.275C111.829 26.5163 111.881 26.7706 111.92 27.0249H112.083C112.736 27.0249 113.199 27.7161 113.153 28.5769C113.107 29.4377 112.553 30.1289 111.92 30.1289H111.855C111.59 31.6935 110.866 33.1439 109.775 34.2959C110.667 34.5796 111.609 34.6751 112.54 34.5763C116.355 34.3546 114.34 26.5097 112.286 23.6991C111.034 21.9776 110.329 21.1755 109.618 21.495C108.823 21.0581 104.043 19.0887 100.952 24.886C97.7435 30.9049 96.7915 36.3827 103.723 34.4981Z" fill="#F65314"/>
<path d="M114.229 38.7195L110.284 37.4609C110.284 37.4609 106.873 38.7652 106.058 42.0257C105.589 38.7652 102.315 37.4609 102.315 37.4609L98.2393 38.7195C95.7939 39.0586 94.6071 41.1519 94.0332 43.3169C94.5073 43.933 95.1182 44.4305 95.8176 44.7701C96.517 45.1096 97.2858 45.2818 98.0632 45.2732H113.714C114.519 45.2694 115.314 45.0928 116.046 44.7553C116.777 44.4178 117.427 43.9273 117.953 43.3169C117.607 41.1519 116.635 39.0586 114.229 38.7195Z" fill="#F65314"/>
<path d="M125.041 42.9872C125.064 42.679 125.064 42.3695 125.041 42.0612L126.599 40.7179C126.46 40.0716 126.241 39.4451 125.947 38.8529L123.945 38.9572C123.598 38.4647 123.18 38.0253 122.706 37.653L122.915 35.6575C122.341 35.3259 121.727 35.0675 121.089 34.888L119.628 36.3553C119.323 36.3136 119.016 36.2919 118.709 36.2901C118.397 36.2919 118.085 36.3136 117.776 36.3553L116.518 34.875C115.855 35.0554 115.216 35.3137 114.613 35.6445V37.6595C114.1 38.0324 113.637 38.4709 113.238 38.9637L111.249 38.8594C110.888 39.4463 110.595 40.0719 110.375 40.7244L111.79 42.0678C111.729 42.3731 111.692 42.6827 111.679 42.9937C111.656 43.2998 111.656 43.6072 111.679 43.9132L110.127 45.2566C110.269 45.9021 110.488 46.5283 110.779 47.1216L112.781 47.0173C113.132 47.5068 113.549 47.9456 114.02 48.3215L113.818 50.3169C114.39 50.6485 115.001 50.907 115.637 51.0864L117.059 49.6061C117.364 49.6478 117.671 49.6696 117.978 49.6713C118.288 49.6696 118.597 49.6478 118.904 49.6061L120.169 51.0864C120.832 50.9038 121.47 50.6456 122.074 50.3169V48.3215C122.584 47.9451 123.046 47.507 123.45 47.0173L125.438 47.1216C125.799 46.5359 126.09 45.9099 126.306 45.2566L124.943 43.9067C124.995 43.6027 125.028 43.2955 125.041 42.9872ZM118.246 45.0805C117.974 45.0857 117.704 45.0343 117.454 44.9295C117.203 44.8248 116.977 44.669 116.79 44.4721C116.603 44.2752 116.459 44.0414 116.367 43.7858C116.275 43.5301 116.238 43.2582 116.257 42.9872C116.293 42.4231 116.541 41.8934 116.951 41.504C117.36 41.1147 117.902 40.8945 118.467 40.8874C118.737 40.8867 119.004 40.9417 119.251 41.0488C119.498 41.156 119.72 41.3131 119.904 41.5102C120.088 41.7073 120.229 41.9403 120.318 42.1945C120.408 42.4486 120.444 42.7185 120.424 42.9872C120.39 43.5458 120.147 44.071 119.743 44.4588C119.34 44.8465 118.805 45.0685 118.246 45.0805Z" fill="#F65314"/>
<path opacity="0.4" d="M125.041 42.9872C125.064 42.679 125.064 42.3695 125.041 42.0612L126.599 40.7179C126.46 40.0716 126.241 39.4451 125.947 38.8529L123.945 38.9572C123.598 38.4647 123.18 38.0253 122.706 37.653L122.915 35.6575C122.341 35.3259 121.727 35.0675 121.089 34.888L119.628 36.3553C119.323 36.3136 119.016 36.2919 118.709 36.2901C118.397 36.2919 118.085 36.3136 117.776 36.3553L116.518 34.875C115.855 35.0554 115.216 35.3137 114.613 35.6445V37.6595C114.1 38.0324 113.637 38.4709 113.238 38.9637L111.249 38.8594C110.888 39.4463 110.595 40.0719 110.375 40.7244L111.79 42.0678C111.729 42.3731 111.692 42.6827 111.679 42.9937C111.656 43.2998 111.656 43.6072 111.679 43.9132L110.127 45.2566C110.269 45.9021 110.488 46.5283 110.779 47.1216L112.781 47.0173C113.132 47.5068 113.549 47.9456 114.02 48.3215L113.818 50.3169C114.39 50.6485 115.001 50.907 115.637 51.0864L117.059 49.6061C117.364 49.6478 117.671 49.6696 117.978 49.6713C118.288 49.6696 118.597 49.6478 118.904 49.6061L120.169 51.0864C120.832 50.9038 121.47 50.6456 122.074 50.3169V48.3215C122.584 47.9451 123.046 47.507 123.45 47.0173L125.438 47.1216C125.799 46.5359 126.09 45.9099 126.306 45.2566L124.943 43.9067C124.995 43.6027 125.028 43.2955 125.041 42.9872ZM118.246 45.0805C117.974 45.0857 117.704 45.0343 117.454 44.9295C117.203 44.8248 116.977 44.669 116.79 44.4721C116.603 44.2752 116.459 44.0414 116.367 43.7858C116.275 43.5301 116.238 43.2582 116.257 42.9872C116.293 42.4231 116.541 41.8934 116.951 41.504C117.36 41.1147 117.902 40.8945 118.467 40.8874C118.737 40.8867 119.004 40.9417 119.251 41.0488C119.498 41.156 119.72 41.3131 119.904 41.5102C120.088 41.7073 120.229 41.9403 120.318 42.1945C120.408 42.4486 120.444 42.7185 120.424 42.9872C120.39 43.5458 120.147 44.071 119.743 44.4588C119.34 44.8465 118.805 45.0685 118.246 45.0805Z" fill="white"/>
<path d="M118.246 45.0798C117.974 45.085 117.704 45.0336 117.454 44.9288C117.203 44.8241 116.977 44.6683 116.79 44.4714C116.603 44.2744 116.459 44.0407 116.367 43.7851C116.275 43.5294 116.238 43.2575 116.257 42.9865C116.293 42.4224 116.541 41.8927 116.951 41.5033C117.36 41.114 117.902 40.8938 118.467 40.8867C118.737 40.886 119.004 40.9409 119.251 41.0481C119.498 41.1553 119.72 41.3123 119.904 41.5095C120.088 41.7066 120.229 41.9396 120.318 42.1937C120.408 42.4479 120.444 42.7178 120.424 42.9865C120.39 43.5451 120.147 44.0703 119.743 44.4581C119.34 44.8458 118.805 45.0677 118.246 45.0798Z" fill="white"/>
<path d="M104.8 117.458H102.576L102.778 113.637H104.995L104.8 117.458Z" fill="#F65314"/>
<path d="M114.914 117.456H112.697L113.03 111.156H115.247L114.914 117.456Z" fill="#F65314"/>
<path d="M125.036 117.457H122.818L123.275 108.68H125.499L125.036 117.457Z" fill="#F65314"/>
<path d="M135.155 117.456H132.932L133.525 106.207H135.742L135.155 117.456Z" fill="white"/>
<path d="M74.1309 117.454H85.4124C86.9322 117.438 88.3899 116.848 89.4921 115.802C90.5943 114.755 91.2592 113.33 91.3531 111.813C91.3998 111.085 91.2957 110.355 91.0474 109.669C90.7991 108.983 90.4119 108.356 89.9099 107.826C89.408 107.297 88.8022 106.876 88.1304 106.592C87.4586 106.307 86.7354 106.164 86.0058 106.172H74.7309C73.2111 106.187 71.7534 106.778 70.6512 107.824C69.549 108.871 68.8841 110.296 68.7902 111.813C68.7435 112.54 68.8474 113.27 69.0953 113.955C69.3433 114.641 69.7299 115.268 70.2311 115.797C70.7324 116.327 71.3374 116.747 72.0084 117.032C72.6794 117.317 73.402 117.461 74.1309 117.454Z" fill="white"/>
<path d="M74.66 107.435H85.9415C87.3086 107.419 88.6287 107.933 89.6254 108.869C90.6221 109.805 91.2181 111.09 91.2888 112.456C91.3214 112.254 91.3409 112.045 91.354 111.836C91.4007 111.108 91.2966 110.378 91.0483 109.692C90.7999 109.006 90.4127 108.379 89.9108 107.85C89.4088 107.32 88.803 106.9 88.1313 106.615C87.4595 106.331 86.7362 106.188 86.0067 106.196H74.7317C73.2119 106.211 71.7542 106.801 70.652 107.848C69.5498 108.894 68.8849 110.319 68.791 111.836C68.791 112.045 68.791 112.254 68.791 112.456C69.0274 111.065 69.7441 109.8 70.8164 108.883C71.8888 107.965 73.2489 107.453 74.66 107.435Z" fill="#F65314"/>
<path opacity="0.3" d="M74.66 107.435H85.9415C87.3086 107.419 88.6287 107.933 89.6254 108.869C90.6221 109.805 91.2181 111.09 91.2888 112.456C91.3214 112.254 91.3409 112.045 91.354 111.836C91.4007 111.108 91.2966 110.378 91.0483 109.692C90.7999 109.006 90.4127 108.379 89.9108 107.85C89.4088 107.32 88.803 106.9 88.1313 106.615C87.4595 106.331 86.7362 106.188 86.0067 106.196H74.7317C73.2119 106.211 71.7542 106.801 70.652 107.848C69.5498 108.894 68.8849 110.319 68.791 111.836C68.791 112.045 68.791 112.254 68.791 112.456C69.0274 111.065 69.7441 109.8 70.8164 108.883C71.8888 107.965 73.2489 107.453 74.66 107.435Z" fill="white"/>
<path d="M78.2599 115.743C80.5504 113.511 80.6894 109.939 78.5705 107.764C76.4516 105.59 72.8771 105.637 70.5867 107.869C68.2962 110.101 68.1572 113.673 70.2761 115.847C72.395 118.022 75.9695 117.975 78.2599 115.743Z" fill="#F65314"/>
<path d="M67.7728 166.084H65.5557L65.823 161.023H68.0402L67.7728 166.084Z" fill="#F65314"/>
<path d="M76.0023 164.85H73.7852L73.8895 162.887H76.1067L76.0023 164.85Z" fill="#F65314"/>
<path d="M84.1351 165.464H81.918L82.081 162.262H84.3047L84.1351 165.464Z" fill="#F65314"/>
<path d="M92.3311 164.85H90.1074L90.2118 162.887H92.4355L92.3311 164.85Z" fill="#F65314"/>
<path d="M100.431 166.084H98.207L98.4744 161.023H100.692L100.431 166.084Z" fill="#F65314"/>
<path d="M108.653 164.85H106.436L106.54 162.887H108.757L108.653 164.85Z" fill="#F65314"/>
<path d="M116.786 165.464H114.568L114.738 162.262H116.955L116.786 165.464Z" fill="#F65314"/>
<path d="M124.983 164.85H122.766L122.863 162.887H125.087L124.983 164.85Z" fill="#F65314"/>
<path d="M133.08 166.084H130.863L131.124 161.023H133.348L133.08 166.084Z" fill="#F65314"/>
<g opacity="0.3">
<path d="M67.7738 166.088H65.5566L65.824 161.027H68.0412L67.7738 166.088Z" fill="black"/>
<path d="M76.0033 164.849H73.7861L73.8905 162.887H76.1076L76.0033 164.849Z" fill="black"/>
<path d="M84.1351 165.468H81.918L82.081 162.266H84.3047L84.1351 165.468Z" fill="black"/>
<path d="M92.3321 164.849H90.1084L90.2127 162.887H92.4364L92.3321 164.849Z" fill="black"/>
<path d="M100.432 166.088H98.208L98.4754 161.027H100.693L100.432 166.088Z" fill="black"/>
<path d="M108.655 164.849H106.438L106.542 162.887H108.759L108.655 164.849Z" fill="black"/>
<path d="M116.787 165.468H114.569L114.739 162.266H116.956L116.787 165.468Z" fill="black"/>
<path d="M124.984 164.849H122.767L122.864 162.887H125.088L124.984 164.849Z" fill="black"/>
<path d="M133.082 166.088H130.865L131.126 161.027H133.35L133.082 166.088Z" fill="black"/>
</g>
<path d="M94.1642 166.92C94.1968 166.359 94.2947 164.422 94.3273 163.868C94.3599 163.314 94.4577 161.371 94.4838 160.816C94.5098 160.422 94.4542 160.027 94.3205 159.655C94.1868 159.284 93.9778 158.944 93.7066 158.657C93.4354 158.37 93.1079 158.142 92.7446 157.987C92.3812 157.832 91.9898 157.754 91.5949 157.758C90.772 157.768 89.9833 158.089 89.387 158.656C88.7907 159.223 88.431 159.995 88.38 160.816C88.3474 161.371 88.2496 163.307 88.217 163.868C88.1844 164.429 88.0866 166.359 88.0605 166.92C88.0354 167.314 88.0917 167.708 88.2258 168.079C88.36 168.45 88.5691 168.789 88.8402 169.075C89.1113 169.362 89.4385 169.589 89.8014 169.743C90.1642 169.898 90.555 169.975 90.9493 169.972C91.7712 169.962 92.5591 169.642 93.1552 169.076C93.7513 168.51 94.1117 167.74 94.1642 166.92Z" fill="#F65314"/>
<path d="M72.7029 144.649H83.9909C85.51 144.634 86.9669 144.043 88.0681 142.996C89.1692 141.95 89.8328 140.525 89.9251 139.008C89.9727 138.281 89.8695 137.551 89.6219 136.865C89.3744 136.179 88.9877 135.551 88.4863 135.022C87.9849 134.492 87.3795 134.072 86.708 133.787C86.0366 133.503 85.3136 133.36 84.5843 133.367H73.2963C71.7765 133.383 70.3188 133.973 69.2166 135.02C68.1144 136.066 67.4495 137.491 67.3556 139.008C67.3089 139.736 67.413 140.466 67.6613 141.152C67.9096 141.838 68.2969 142.466 68.7988 142.995C69.3007 143.525 69.9065 143.945 70.5783 144.229C71.2501 144.514 71.9734 144.657 72.7029 144.649Z" fill="white"/>
<path d="M73.231 134.607H84.5124C85.8789 134.591 87.1983 135.106 88.1939 136.042C89.1896 136.978 89.7842 138.263 89.8532 139.628C89.8882 139.423 89.9099 139.216 89.9184 139.008C89.9661 138.281 89.8629 137.551 89.6153 136.865C89.3677 136.179 88.9811 135.551 88.4797 135.022C87.9782 134.492 87.3728 134.072 86.7014 133.787C86.0299 133.503 85.3069 133.36 84.5777 133.367H73.2962C71.7764 133.383 70.3187 133.973 69.2165 135.02C68.1143 136.066 67.4494 137.491 67.3555 139.008C67.3555 139.217 67.3555 139.426 67.3555 139.628C67.5896 138.234 68.3066 136.968 69.3808 136.05C70.455 135.131 71.818 134.621 73.231 134.607Z" fill="#F65314"/>
<path opacity="0.3" d="M73.231 134.607H84.5124C85.8789 134.591 87.1983 135.106 88.1939 136.042C89.1896 136.978 89.7842 138.263 89.8532 139.628C89.8882 139.423 89.9099 139.216 89.9184 139.008C89.9661 138.281 89.8629 137.551 89.6153 136.865C89.3677 136.179 88.9811 135.551 88.4797 135.022C87.9782 134.492 87.3728 134.072 86.7014 133.787C86.0299 133.503 85.3069 133.36 84.5777 133.367H73.2962C71.7764 133.383 70.3187 133.973 69.2165 135.02C68.1143 136.066 67.4494 137.491 67.3555 139.008C67.3555 139.217 67.3555 139.426 67.3555 139.628C67.5896 138.234 68.3066 136.968 69.3808 136.05C70.455 135.131 71.818 134.621 73.231 134.607Z" fill="white"/>
<path d="M78.6437 139.008C78.7376 137.491 79.4025 136.066 80.5047 135.02C81.6069 133.973 83.0646 133.383 84.5844 133.367C85.3136 133.36 86.0367 133.503 86.7081 133.787C87.3796 134.072 87.985 134.492 88.4864 135.022C88.9878 135.551 89.3744 136.179 89.622 136.865C89.8696 137.551 89.9728 138.281 89.9252 139.008C89.8329 140.525 89.1693 141.95 88.0682 142.996C86.967 144.043 85.5101 144.634 83.991 144.649C83.2614 144.657 82.5382 144.514 81.8664 144.229C81.1946 143.945 80.5888 143.525 80.0869 142.995C79.585 142.466 79.1977 141.838 78.9494 141.152C78.7011 140.466 78.597 139.736 78.6437 139.008Z" fill="#F65314"/>
<path d="M73.8118 65.7013H135.377C136.184 65.693 136.958 65.3799 137.543 64.8247C138.129 64.2695 138.483 63.5134 138.534 62.7081C138.558 62.322 138.502 61.935 138.37 61.5713C138.238 61.2076 138.033 60.8749 137.767 60.5941C137.501 60.3133 137.179 60.0903 136.823 59.939C136.467 59.7878 136.084 59.7115 135.697 59.715H74.1248C73.3187 59.7233 72.5457 60.0367 71.9613 60.5921C71.3769 61.1474 71.0246 61.9035 70.9752 62.7081C70.949 63.0947 71.0032 63.4825 71.1344 63.8471C71.2657 64.2117 71.471 64.5451 71.7375 64.8264C72.0041 65.1076 72.326 65.3306 72.683 65.4811C73.04 65.6317 73.4244 65.7067 73.8118 65.7013Z" fill="white"/>
<path d="M74.1241 61.0387H135.664C136.307 61.0331 136.932 61.2492 137.434 61.6506C137.937 62.0521 138.286 62.6144 138.422 63.2428C138.458 63.0728 138.484 62.9008 138.5 62.7277C138.524 62.3415 138.469 61.9545 138.337 61.5908C138.205 61.2271 138 60.8945 137.733 60.6137C137.467 60.3328 137.146 60.1098 136.79 59.9586C136.434 59.8073 136.05 59.731 135.664 59.7345H74.1241C73.318 59.7429 72.5449 60.0563 71.9605 60.6116C71.3762 61.1669 71.0238 61.923 70.9744 62.7277C70.9603 62.9953 70.9867 63.2635 71.0527 63.5232C71.2109 62.8242 71.6 62.1988 72.1573 61.7481C72.7145 61.2973 73.4074 61.0474 74.1241 61.0387Z" fill="#F65314"/>
<path opacity="0.3" d="M74.1241 61.0387H135.664C136.307 61.0331 136.932 61.2492 137.434 61.6506C137.937 62.0521 138.286 62.6144 138.422 63.2428C138.458 63.0728 138.484 62.9008 138.5 62.7277C138.524 62.3415 138.469 61.9545 138.337 61.5908C138.205 61.2271 138 60.8945 137.733 60.6137C137.467 60.3328 137.146 60.1098 136.79 59.9586C136.434 59.8073 136.05 59.731 135.664 59.7345H74.1241C73.318 59.7429 72.5449 60.0563 71.9605 60.6116C71.3762 61.1669 71.0238 61.923 70.9744 62.7277C70.9603 62.9953 70.9867 63.2635 71.0527 63.5232C71.2109 62.8242 71.6 62.1988 72.1573 61.7481C72.7145 61.2973 73.4074 61.0474 74.1241 61.0387Z" fill="white"/>
<path d="M88.8999 66.6511C91.1907 64.4195 91.3304 60.8474 89.2118 58.6727C87.0933 56.498 83.5188 56.5441 81.228 58.7757C78.9372 61.0073 78.7975 64.5794 80.916 66.7541C83.0346 68.9289 86.6091 68.8827 88.8999 66.6511Z" fill="#F65314"/>
<path d="M134.302 135.539C134.32 135.258 134.28 134.977 134.184 134.713C134.088 134.449 133.939 134.207 133.745 134.003C133.552 133.799 133.318 133.638 133.06 133.528C132.801 133.419 132.522 133.364 132.241 133.367H114.073C113.488 133.374 112.928 133.602 112.503 134.005C112.079 134.407 111.822 134.955 111.784 135.539L111.419 142.477C111.401 142.758 111.441 143.039 111.537 143.303C111.633 143.567 111.782 143.809 111.976 144.013C112.169 144.217 112.402 144.378 112.661 144.488C112.92 144.597 113.199 144.652 113.48 144.649H131.648C132.233 144.642 132.793 144.414 133.218 144.012C133.642 143.609 133.899 143.061 133.937 142.477L134.302 135.539Z" fill="#F65314"/>
<path d="M114.008 134.606H132.175C132.456 134.603 132.735 134.658 132.994 134.767C133.253 134.877 133.486 135.038 133.68 135.242C133.873 135.446 134.022 135.688 134.118 135.952C134.214 136.216 134.254 136.497 134.236 136.778L134.301 135.539C134.319 135.258 134.279 134.977 134.183 134.713C134.088 134.449 133.938 134.207 133.745 134.003C133.551 133.799 133.318 133.638 133.059 133.528C132.8 133.419 132.522 133.364 132.241 133.367H114.073C113.488 133.374 112.927 133.602 112.503 134.005C112.078 134.407 111.822 134.955 111.784 135.539L111.719 136.778C111.757 136.194 112.013 135.646 112.438 135.244C112.862 134.841 113.423 134.613 114.008 134.606Z" fill="#F65314"/>
<path opacity="0.3" d="M114.008 134.606H132.175C132.456 134.603 132.735 134.658 132.994 134.767C133.253 134.877 133.486 135.038 133.68 135.242C133.873 135.446 134.022 135.688 134.118 135.952C134.214 136.216 134.254 136.497 134.236 136.778L134.301 135.539C134.319 135.258 134.279 134.977 134.183 134.713C134.088 134.449 133.938 134.207 133.745 134.003C133.551 133.799 133.318 133.638 133.059 133.528C132.8 133.419 132.522 133.364 132.241 133.367H114.073C113.488 133.374 112.927 133.602 112.503 134.005C112.078 134.407 111.822 134.955 111.784 135.539L111.719 136.778C111.757 136.194 112.013 135.646 112.438 135.244C112.862 134.841 113.423 134.613 114.008 134.606Z" fill="black"/>
<path d="M123.072 135.539C123.09 135.258 123.05 134.977 122.955 134.713C122.859 134.449 122.71 134.207 122.516 134.003C122.323 133.799 122.089 133.638 121.83 133.528C121.571 133.419 121.293 133.364 121.012 133.367H114.073C113.488 133.374 112.928 133.602 112.503 134.005C112.079 134.407 111.822 134.955 111.784 135.539L111.419 142.477C111.401 142.758 111.441 143.039 111.537 143.303C111.633 143.567 111.782 143.809 111.976 144.013C112.169 144.217 112.402 144.378 112.661 144.488C112.92 144.597 113.199 144.652 113.48 144.649H120.418C121.003 144.642 121.564 144.414 121.988 144.012C122.413 143.609 122.669 143.061 122.707 142.477L123.072 135.539Z" fill="white"/>
<path d="M118.252 140.919H116.035L116.237 137.098H118.454L118.252 140.919Z" fill="#F65314"/>
<path d="M134.373 84.2777H72.8399C72.0336 84.2875 71.2606 84.6012 70.6755 85.1561C70.0904 85.7109 69.7362 86.4662 69.6837 87.2709C69.6585 87.6572 69.7134 88.0446 69.845 88.4088C69.9766 88.7729 70.182 89.106 70.4483 89.387C70.7147 89.668 71.0362 89.891 71.3927 90.0419C71.7493 90.1928 72.1332 90.2685 72.5204 90.2641H134.073C134.879 90.2572 135.653 89.9443 136.238 89.3887C136.823 88.833 137.175 88.0761 137.223 87.2709C137.248 86.8834 137.193 86.4949 137.06 86.1299C136.928 85.7648 136.721 85.4312 136.454 85.1499C136.186 84.8687 135.863 84.646 135.505 84.4959C135.146 84.3458 134.761 84.2715 134.373 84.2777Z" fill="#F65314"/>
<path opacity="0.3" d="M72.8395 85.5823H134.372C135.015 85.5751 135.64 85.7898 136.143 86.1902C136.645 86.5905 136.994 87.152 137.131 87.7799C137.174 87.6133 137.2 87.443 137.209 87.2712C137.234 86.8849 137.179 86.4975 137.048 86.1333C136.916 85.7692 136.711 85.4362 136.445 85.1551C136.178 84.8741 135.857 84.6511 135.5 84.5002C135.144 84.3493 134.76 84.2737 134.372 84.2781H72.8395C72.3687 84.2679 71.9018 84.3654 71.4744 84.5632C71.047 84.761 70.6705 85.0538 70.3735 85.4193C70.0766 85.7848 69.8671 86.2134 69.761 86.6722C69.655 87.1311 69.6552 87.6081 69.7616 88.0668C69.9222 87.3678 70.3129 86.7429 70.871 86.2924C71.4291 85.8419 72.1224 85.5918 72.8395 85.5823Z" fill="black"/>
<path d="M124.826 92.9118H120.111C119.688 92.916 119.269 92.8334 118.879 92.6692C118.49 92.5049 118.138 92.2625 117.846 91.9569C117.554 91.6513 117.327 91.289 117.181 90.8924C117.034 90.4958 116.971 90.0734 116.994 89.6512L117.242 84.9365C117.302 84.0569 117.693 83.2326 118.335 82.6282C118.977 82.0237 119.823 81.6837 120.704 81.6759H125.419C125.842 81.6717 126.261 81.7543 126.65 81.9186C127.039 82.0829 127.39 82.3254 127.682 82.6311C127.974 82.9369 128.199 83.2992 128.345 83.6958C128.491 84.0924 128.554 84.5146 128.53 84.9365L128.282 89.6512C128.221 90.5297 127.832 91.3531 127.191 91.9573C126.551 92.5616 125.706 92.9024 124.826 92.9118Z" fill="white"/>
<path d="M124.018 89.1807H121.801L122.003 85.3594H124.22L124.018 89.1807Z" fill="#F65314"/>
<path d="M27.0025 67.3698L18.649 76.8254C19.3011 81.338 20.664 94.4323 20.664 94.4323C19.412 96.0887 16.3536 95.6192 16.3536 95.6192C13.8562 89.3992 12.8339 82.6852 13.3669 76.0038C13.9538 69.8935 21.7922 57.8751 27.3742 54.4842C28.285 53.9329 29.2714 53.5177 30.3022 53.2517L31.4042 53.1213L27.4916 67.6568L27.0025 67.3698Z" fill="#F65314"/>
<path opacity="0.6" d="M27.0025 67.3698L18.649 76.8254C19.3011 81.338 20.664 94.4323 20.664 94.4323C19.412 96.0887 16.3536 95.6192 16.3536 95.6192C13.8562 89.3992 12.8339 82.6852 13.3669 76.0038C13.9538 69.8935 21.7922 57.8751 27.3742 54.4842C28.285 53.9329 29.2714 53.5177 30.3022 53.2517L31.4042 53.1213L27.4916 67.6568L27.0025 67.3698Z" fill="black"/>
<path d="M20.2083 95.4644L22.2299 97.6229C22.2956 97.6949 22.3466 97.7791 22.3799 97.8707L23.5667 101.209C23.6384 101.385 23.6384 101.582 23.5667 101.757L22.9928 102.938C22.9456 103.036 22.8762 103.121 22.7903 103.188C22.7043 103.255 22.604 103.301 22.4972 103.322L18.3694 104.177C18.2768 104.195 18.1814 104.196 18.0888 104.177C17.9961 104.159 17.908 104.122 17.8297 104.069C17.7514 104.017 17.6844 103.949 17.6326 103.87C17.5808 103.791 17.5453 103.702 17.5282 103.609L16.7326 99.214C16.7141 99.1259 16.7141 99.0348 16.7326 98.9467L17.2804 96.1296C17.3084 95.9892 17.3782 95.8605 17.4806 95.7604C17.583 95.6604 17.7132 95.5936 17.8542 95.5688L19.5693 95.2623C19.6842 95.2408 19.8027 95.248 19.9141 95.2833C20.0256 95.3185 20.1267 95.3808 20.2083 95.4644Z" fill="#FAB27B"/>
<path d="M21.9491 94.9704L15.5193 97.8853L15.4346 94.7748L21.3688 92.4924L21.9491 94.9704Z" fill="#F65314"/>
<path opacity="0.5" d="M21.9491 94.9704L15.5193 97.8853L15.4346 94.7748L21.3688 92.4924L21.9491 94.9704Z" fill="white"/>
<path d="M19.4566 106.469C15.6222 120.163 17.246 140.379 15.1397 153.936C13.692 163.274 3.79297 194.008 3.79297 194.008L12.5312 196.656C12.5312 196.656 23.4345 169.587 25.5734 161.52C29.0035 148.432 34.1551 123.6 34.1551 123.6C34.1551 123.6 36.0789 116.557 35.205 115.775C34.3312 114.992 19.4566 106.469 19.4566 106.469Z" fill="#F65314"/>
<path opacity="0.3" d="M29.082 115.871L35.401 117.919L33.0338 129.005C33.0338 129.005 34.1946 118.401 29.082 115.871Z" fill="black"/>
<path d="M5.54749 193.609L3.98242 198.572L8.22113 200.476L10.3209 195.207L5.54749 193.609Z" fill="#FAB27B"/>
<path opacity="0.2" d="M4.62207 196.553L9.09553 198.281L9.68895 196.788L4.98725 195.399L4.62207 196.553Z" fill="black"/>
<path d="M3.88509 191.289L14.5732 194.211L12.6364 197.654L3.28516 194.895L3.88509 191.289Z" fill="#F65314"/>
<path opacity="0.5" d="M3.88509 191.289L14.5732 194.211L12.6364 197.654L3.28516 194.895L3.88509 191.289Z" fill="white"/>
<path d="M9.12847 201.158C9.10709 201.143 9.09031 201.122 9.07996 201.098C9.06961 201.074 9.06609 201.047 9.06978 201.021C9.07493 200.996 9.08773 200.973 9.10641 200.956C9.1251 200.938 9.14876 200.927 9.17412 200.924C9.27194 200.924 11.3978 200.598 12.1412 201.152C12.2115 201.201 12.2714 201.264 12.3172 201.337C12.3631 201.41 12.3942 201.491 12.4086 201.576C12.4334 201.671 12.4279 201.772 12.3929 201.864C12.3578 201.957 12.295 202.036 12.213 202.091C11.6701 202.223 11.0976 202.154 10.6022 201.895C10.0904 201.693 9.59727 201.447 9.12847 201.158ZM9.57191 201.158C10.4588 201.641 11.7173 202.123 12.076 201.889C12.1282 201.889 12.1869 201.804 12.1543 201.621C12.1484 201.568 12.1299 201.518 12.1004 201.474C12.0709 201.429 12.0312 201.393 11.9847 201.367C11.922 201.317 11.8515 201.277 11.776 201.25C11.0547 201.075 10.3066 201.039 9.57191 201.145V201.158Z" fill="#F65314"/>
<path d="M9.06923 201.123C9.05778 201.103 9.05176 201.08 9.05176 201.057C9.05176 201.034 9.05778 201.012 9.06923 200.992C9.10184 200.933 9.76047 199.642 10.6017 199.368C10.7217 199.327 10.8488 199.31 10.9755 199.319C11.1021 199.328 11.2256 199.362 11.3386 199.421C11.6516 199.584 11.6907 199.786 11.6451 199.929C11.5342 200.529 9.91045 201.142 9.2127 201.175C9.19592 201.181 9.1773 201.181 9.16053 201.175C9.14218 201.174 9.12424 201.169 9.10831 201.16C9.09237 201.151 9.07894 201.138 9.06923 201.123ZM11.156 199.616C11.0068 199.56 10.8421 199.56 10.693 199.616C10.1471 199.91 9.70532 200.366 9.42789 200.92C10.1909 200.796 11.3125 200.268 11.3842 199.91C11.3842 199.877 11.3842 199.786 11.2016 199.681H11.1299L11.156 199.616Z" fill="#F65314"/>
<path d="M8.8671 200.258L3.42199 198.126C3.32234 198.084 3.21155 198.079 3.10824 198.11C3.00492 198.141 2.91538 198.206 2.85466 198.295L0.135372 202.345C0.0192942 202.516 -0.0245696 202.727 0.0132563 202.931C0.0510823 203.134 0.167559 203.315 0.337524 203.434L0.487512 203.512C2.44384 204.242 4.25017 204.816 6.69558 205.781C9.5779 206.916 8.71059 206.975 12.082 208.351C14.1166 209.179 15.4012 207.001 14.5796 206.551C10.8104 204.497 10.8691 203.134 9.89092 201.119C9.6688 200.714 9.30369 200.407 8.8671 200.258Z" fill="#263238"/>
<path d="M44.3936 197.653L44.4914 202.432L49.1148 202.876L49.3952 197.653H44.3936Z" fill="#FAB27B"/>
<path opacity="0.2" d="M49.2781 199.87L49.3433 198.618L44.4199 198.82L44.4525 200.28L49.2781 199.87Z" fill="black"/>
<path d="M19.4563 106.472C20.9039 99.5727 26.6816 93.4299 26.6816 93.4299L48.8533 94.8515C48.8533 94.8515 50.2488 109.094 50.5749 113.854C51.227 123.466 53.9267 138.393 53.9984 148.031C54.0963 161.073 51.1096 195.68 51.1096 195.68L42.7365 196.672C42.7365 196.672 42.8604 164.66 41.491 152.589C40.4541 143.46 34.207 118.38 34.207 118.38C34.207 118.38 17.0369 118.04 19.4563 106.472Z" fill="#F65314"/>
<path d="M41.29 195.319L52.3498 194.641L51.626 198.521L41.8835 198.925L41.29 195.319Z" fill="#F65314"/>
<path opacity="0.5" d="M41.29 195.319L52.3498 194.641L51.626 198.521L41.8835 198.925L41.29 195.319Z" fill="white"/>
<path d="M50.1195 203.211C50.0939 203.204 50.0709 203.19 50.0534 203.171C50.0359 203.151 50.0249 203.126 50.0217 203.1C50.0167 203.075 50.0204 203.049 50.0323 203.026C50.0442 203.004 50.0635 202.986 50.0869 202.976C50.1717 202.93 52.0824 201.933 52.9627 202.22C53.1285 202.266 53.2691 202.376 53.354 202.526C53.4101 202.608 53.4401 202.704 53.4401 202.803C53.4401 202.902 53.4101 202.999 53.354 203.08C52.8844 203.388 52.3177 203.511 51.7628 203.426C51.21 203.401 50.6602 203.329 50.1195 203.211ZM50.5369 203.054C51.5281 203.217 52.8779 203.263 53.1453 202.924C53.1844 202.885 53.217 202.807 53.1453 202.65C53.1228 202.602 53.0892 202.56 53.0473 202.527C53.0054 202.494 52.9563 202.471 52.904 202.461C52.8262 202.435 52.7447 202.422 52.6628 202.422C51.9201 202.494 51.1983 202.709 50.5369 203.054Z" fill="#F65314"/>
<path d="M50.0473 203.199C50.0305 203.185 50.0171 203.167 50.008 203.146C49.999 203.126 49.9946 203.104 49.9952 203.082C49.9952 203.016 50.2103 201.582 50.9146 201.047C51.0139 200.969 51.1282 200.911 51.2504 200.879C51.3727 200.846 51.5003 200.839 51.6254 200.858C51.9711 200.904 52.0754 201.086 52.0819 201.23C52.1732 201.836 50.8429 202.951 50.1908 203.186C50.1829 203.191 50.1739 203.193 50.1647 203.193C50.1555 203.193 50.1465 203.191 50.1386 203.186C50.1251 203.194 50.11 203.2 50.0943 203.202C50.0786 203.204 50.0626 203.203 50.0473 203.199ZM51.5341 201.093C51.372 201.087 51.2129 201.138 51.0842 201.236C50.6685 201.682 50.3979 202.244 50.3082 202.847C50.9603 202.482 51.8732 201.608 51.8537 201.243C51.8537 201.21 51.8537 201.119 51.6059 201.093H51.5341Z" fill="#F65314"/>
<path d="M49.5986 202.442L43.7297 202.207C43.6222 202.204 43.5167 202.237 43.4302 202.301C43.3438 202.364 43.2815 202.456 43.2536 202.56L42.0081 207.274C41.9815 207.374 41.9747 207.477 41.9882 207.579C42.0016 207.681 42.0351 207.78 42.0865 207.869C42.138 207.958 42.2065 208.036 42.2882 208.098C42.3698 208.161 42.463 208.206 42.5624 208.233C42.6165 208.24 42.6713 208.24 42.7254 208.233C44.8317 208.279 46.7098 208.233 49.3378 208.344C52.4288 208.468 51.6332 208.807 55.272 208.996C57.4631 209.113 57.9587 206.635 57.0392 206.479C52.8005 205.775 52.4092 204.47 50.8311 202.886C50.4859 202.596 50.0491 202.439 49.5986 202.442Z" fill="#263238"/>
<path d="M42.6658 47.6225C42.2811 48.855 41.316 50.9352 42.6658 52.7937L36.0078 52.1416C36.0078 52.1416 36.7186 47.2312 37.1294 45.6205C37.3968 44.5837 37.7424 43.4555 41.2442 44.4337C43.2527 45.0141 42.9267 46.7878 42.6658 47.6225Z" fill="#FAB27B"/>
<path d="M36.6603 45.8032C32.9954 42.973 25.2484 35.3042 32.6824 28.6071C38.8709 23.0315 44.5573 26.2921 46.4941 30.0613C48.6656 34.2804 53.589 45.5554 42.6662 47.6225C40.6577 48.0008 38.5645 47.2704 36.6603 45.8032Z" fill="#FAB27B"/>
<path d="M31.4238 52.365C31.4238 52.365 36.5624 47.8524 46.3245 53.8061L46.1876 55.2016L31.5151 53.7801L31.4238 52.365Z" fill="#F65314"/>
<path opacity="0.5" d="M31.4238 52.365C31.4238 52.365 36.5624 47.8524 46.3245 53.8061L46.1876 55.2016L31.5151 53.7801L31.4238 52.365Z" fill="white"/>
<path opacity="0.1" d="M41.2637 46.293C41.2637 47.7994 41.7267 48.5819 42.2679 48.9732C42.3685 48.5144 42.5014 48.0633 42.6657 47.6233C41.355 47.0495 41.2637 46.293 41.2637 46.293Z" fill="black"/>
<path d="M45.1762 53.6295C43.0632 53.1783 40.9278 52.8388 38.779 52.6122C34.9968 52.1688 32.108 51.8753 30.0212 52.7948C26.6955 54.2621 26.2716 55.2011 26.2716 55.2011L26.9237 65.9804C27.4424 71.181 27.5362 76.4152 27.2041 81.631C27.2041 81.6767 26.9433 91.9018 21.4199 97.3925C23.716 99.255 26.4346 100.525 29.3365 101.09L32.4536 93.6298L33.4383 101.455C33.4383 101.455 44.6611 104.781 53.921 101.709C53.921 101.709 48.8541 93.6103 50.4844 85.3285C51.2734 81.3441 51.8473 79.4595 52.2907 76.3294C52.5465 74.6414 52.5465 72.9245 52.2907 71.2364L50.2105 57.0205C50.2105 57.0205 46.5326 53.9621 45.1762 53.6295Z" fill="#F65314"/>
<path opacity="0.6" d="M45.1762 53.6295C43.0632 53.1783 40.9278 52.8388 38.779 52.6122C34.9968 52.1688 32.108 51.8753 30.0212 52.7948C26.6955 54.2621 26.2716 55.2011 26.2716 55.2011L26.9237 65.9804C27.4424 71.181 27.5362 76.4152 27.2041 81.631C27.2041 81.6767 26.9433 91.9018 21.4199 97.3925C23.716 99.255 26.4346 100.525 29.3365 101.09L32.4536 93.6298L33.4383 101.455C33.4383 101.455 44.6611 104.781 53.921 101.709C53.921 101.709 48.8541 93.6103 50.4844 85.3285C51.2734 81.3441 51.8473 79.4595 52.2907 76.3294C52.5465 74.6414 52.5465 72.9245 52.2907 71.2364L50.2105 57.0205C50.2105 57.0205 46.5326 53.9621 45.1762 53.6295Z" fill="black"/>
<path d="M51.6249 80.3669C51.8923 78.9257 52.127 77.5694 52.277 76.363C52.5327 74.6749 52.5327 72.958 52.277 71.27L49.2969 67.9182C49.2969 67.9182 52.1662 71.9482 51.6249 80.3669Z" fill="black"/>
<path d="M78.2379 65.0445L80.2985 59.1755C80.3384 59.0573 80.4226 58.9591 80.5333 58.9016L83.7612 57.2518C83.8488 57.2103 83.9464 57.1949 84.0425 57.2077C84.1385 57.2204 84.2288 57.2606 84.3025 57.3235L86.6044 59.3451C86.6954 59.4256 86.7526 59.5375 86.7647 59.6583C86.7768 59.7792 86.7429 59.9002 86.6696 59.9972L84.2895 63.1273C84.2626 63.1633 84.2406 63.2028 84.2242 63.2447C84.0416 63.7077 82.8157 66.6356 80.2072 67.366L80.1094 67.4051L79.2356 67.8681C79.1294 67.9329 79.0022 67.9541 78.8807 67.9274C78.7592 67.9006 78.6527 67.828 78.5835 67.7247L77.4684 66.1661C77.4263 66.1079 77.3978 66.041 77.3848 65.9703C77.3719 65.8996 77.3749 65.8269 77.3937 65.7576C77.4124 65.6882 77.4464 65.6239 77.4932 65.5693C77.54 65.5148 77.5983 65.4714 77.664 65.4423L77.9575 65.3053C78.0205 65.2852 78.0784 65.2513 78.1268 65.2062C78.1753 65.1611 78.2132 65.1059 78.2379 65.0445Z" fill="#FAB27B"/>
<path d="M45.1182 53.6213C49.0241 54.585 52.4498 56.929 54.7629 60.2206C57.6656 63.8851 60.944 67.2356 64.5445 70.2174C64.5445 70.2174 72.0828 68.6133 76.8367 64.4985L79.6277 68.6654C79.6277 68.6654 68.1767 77.2993 63.5141 76.8494C59.5363 76.4646 52.2848 71.2869 52.2848 71.2869L49.2982 67.9351L45.1182 53.6213Z" fill="#F65314"/>
<path opacity="0.6" d="M45.1182 53.6213C49.0241 54.585 52.4498 56.929 54.7629 60.2206C57.6656 63.8851 60.944 67.2356 64.5445 70.2174C64.5445 70.2174 72.0828 68.6133 76.8367 64.4985L79.6277 68.6654C79.6277 68.6654 68.1767 77.2993 63.5141 76.8494C59.5363 76.4646 52.2848 71.2869 52.2848 71.2869L49.2982 67.9351L45.1182 53.6213Z" fill="black"/>
<path d="M77.097 63.9807L81.2835 69.178L78.4794 69.9214L75.1406 65.0371L77.097 63.9807Z" fill="#F65314"/>
<path opacity="0.5" d="M77.097 63.9807L81.2835 69.178L78.4794 69.9214L75.1406 65.0371L77.097 63.9807Z" fill="white"/>
<path d="M49.2129 39.0744V41.0959L50.5758 40.9068L49.2129 39.0744Z" fill="#E07F50"/>
<path d="M38.5251 51.1776C35.3885 51.4971 26.135 51.6797 27.2371 44.8913C28.3392 38.1028 26.8393 34.7379 29.7151 29.958C32.5909 25.178 38.5838 23.7825 43.9767 25.1976C48.4698 26.3714 48.8349 29.5145 47.6155 31.4057C46.396 33.2968 45.8483 33.6489 46.0635 34.9923C46.2787 36.3356 45.4635 37.0855 45.1114 37.7181C44.7235 38.174 44.2314 38.5296 43.6768 38.7549C43.4344 40.0744 43.5172 41.433 43.918 42.7132C44.5701 45.1978 45.9004 50.4146 38.5251 51.1776Z" fill="black"/>
<path d="M42.6982 25.2687C44.2058 25.425 45.6739 25.8466 47.0347 26.5142C48.0976 27.062 49.1606 27.8772 49.4019 29.1227C49.7475 30.916 48.3585 32.618 47.2564 33.857C47.0803 34.0591 47.4194 34.2939 47.589 34.0983C49.5453 31.9072 51.0582 28.8292 48.1889 26.7294C46.558 25.6582 44.6827 25.0166 42.7373 24.8644C42.6837 24.8592 42.6302 24.8755 42.5886 24.9098C42.547 24.944 42.5208 24.9934 42.5156 25.047C42.5104 25.1006 42.5267 25.1541 42.561 25.1957C42.5952 25.2373 42.6446 25.2635 42.6982 25.2687Z" fill="black"/>
<path d="M29.7345 29.919C27.6673 32.5992 27.5695 36.101 27.1261 39.2963C26.8326 41.5526 24.2894 45.9543 26.0892 48.0802C26.2588 48.2824 26.5848 48.028 26.4153 47.8259C25.1828 46.3717 26.4153 44.2328 26.8326 42.7264C27.2272 41.2454 27.4956 39.7336 27.6347 38.2073C27.9151 35.4749 28.2868 32.4231 30.041 30.1668C30.204 29.9581 29.8714 29.7103 29.7084 29.919H29.7345Z" fill="black"/>
<path d="M47.8103 35.228C47.7711 35.3128 47.8429 35.1628 47.8559 35.1432C47.896 35.0651 47.9465 34.9927 48.0059 34.928C48.0955 34.8199 48.2154 34.741 48.3502 34.7014C48.485 34.6619 48.6285 34.6636 48.7623 34.7063C49.0101 34.765 49.1145 34.3868 48.8667 34.3281C48.5713 34.2554 48.2593 34.297 47.9933 34.4445C47.7273 34.592 47.5268 34.8346 47.432 35.1237C47.3342 35.3519 47.7124 35.4563 47.8103 35.228Z" fill="black"/>
<path d="M46.2073 38.2031C46.6247 39.4551 46.2073 40.7202 45.3139 41.0267C44.4205 41.3332 43.3576 40.5637 42.9011 39.3052C42.4447 38.0466 42.9011 36.788 43.7945 36.4815C44.6879 36.175 45.7834 36.9445 46.2073 38.2031Z" fill="#FAB27B"/>
<path d="M49.2987 35.051C49.24 35.5205 48.7835 35.6183 48.5488 35.6574C48.314 35.6965 48.2944 35.9639 48.3401 36.3095C48.3857 36.6551 48.5487 36.903 48.7053 36.8769C48.8618 36.8508 48.9596 36.5704 48.9205 36.2248C48.904 36.131 48.8777 36.0392 48.8422 35.9509C49.5791 35.5074 49.2987 35.051 49.2987 35.051Z" fill="black"/>
</svg>
