<svg width="96" height="150" viewBox="0 0 96 150" fill="none" xmlns="http://www.w3.org/2000/svg">
<path d="M61.5973 89.0105L61.4692 89.3469L44.2152 133.083L37.727 149.535L25.5355 127.491L1.58496 135.277L25.4874 74.7523L40.6587 80.7439L60.6842 88.658L61.5973 89.0105Z" fill="#373F41"/>
<g opacity="0.2">
<path d="M37.8746 141.479L27.4614 122.623L6.9873 129.287L27.6536 76.9004L58.5569 89.0919L37.8746 141.479ZM27.8458 121.709L37.7625 139.652L57.4675 89.5405L28.0701 77.9417L8.30096 127.989L27.8458 121.709Z" fill="white"/>
</g>
<path opacity="0.2" d="M61.4701 89.3461L44.2001 133.082C37.77 117.811 33.9781 101.56 32.9858 85.0206L40.7237 80.7592L60.7492 88.6732L61.4701 89.3461Z" fill="black"/>
<path d="M57.5446 149.535L69.7201 127.491L93.6706 135.277L69.7681 74.7523L33.6582 89.0105L57.5446 149.535Z" fill="#373F41"/>
<g opacity="0.2">
<path d="M36.6406 89.0773L67.608 76.8378L88.2903 129.224L67.8003 122.56L57.4671 141.464L36.6406 89.0773ZM86.8646 127.975L67.0954 77.9271L37.6819 89.5259L57.4671 139.59L67.3677 121.647L86.8646 127.975Z" fill="white"/>
</g>
<path d="M47.6286 3.33224L51.906 0L55.5106 4.05316L60.3168 1.52193L63.1364 6.15182L68.3109 4.53377L70.2654 9.58019L75.6483 8.90733L76.6736 14.2421L82.0885 14.5305L82.1365 19.9614L87.4233 21.211L86.5101 26.5618L91.4764 28.7406L89.6181 33.8351L94.1037 36.8789L91.3803 41.5569L95.2572 45.3377L91.7328 49.4549L94.8727 53.8766L90.6754 57.3049L92.9663 62.2072L88.2243 64.8345L89.6181 70.0732L84.4755 71.8034L84.9081 77.2023L79.5412 77.9873L78.9965 83.3861L73.5816 83.1939L72.0918 88.4005L66.789 87.2471L64.3859 92.1172L59.3716 90.0346L56.1514 94.3921L51.5856 91.4444L47.6286 95.1611L43.6716 91.4444L39.1218 94.3921L35.8857 90.0346L30.8713 92.1172L28.4842 87.2471L23.1815 88.4005L21.6916 83.1939L16.2607 83.3861L15.732 77.9873L10.3652 77.2023L10.7977 71.8034L5.6552 70.0732L7.04896 64.8345L2.2909 62.2072L4.59784 57.3049L0.384474 53.8766L3.54049 49.4549L0 45.3377L3.89294 41.5569L1.15347 36.8789L5.6552 33.8351L3.79682 28.7406L8.76315 26.5618L7.84998 21.211L13.1207 19.9614L13.1688 14.5305L18.5836 14.2421L19.6089 8.90733L24.9918 9.58019L26.9463 4.53377L32.1209 6.15182L34.9405 1.52193L39.7466 4.05316L43.3512 0L47.6286 3.33224Z" fill="#00A1F1"/>
<path d="M28.5327 49.1274L38.1449 48.2783C38.1449 48.2783 39.9072 41.3094 38.8178 26.3143C40.4639 25.9968 42.1462 25.9106 43.8162 26.058C45.4182 26.4104 47.2125 43.0877 47.2125 43.0877C47.2125 43.0877 64.5625 40.7006 65.5558 41.3895C66.1806 41.8221 66.501 44.3853 66.6612 46.1956C66.7067 46.7088 66.5716 47.2218 66.279 47.6459C65.9865 48.0701 65.5551 48.3787 65.0592 48.5186L64.4664 48.6788L64.8029 65.372C64.8129 65.9914 64.5866 66.5913 64.1699 67.0497C63.7532 67.508 63.1775 67.7904 62.56 67.8392L46.2993 69.1368C44.6916 69.2621 43.0835 68.8991 41.6854 68.0955L39.8271 67.0221L29.8624 68.448L28.5327 49.1274Z" fill="#E1291E"/>
<path opacity="0.7" d="M28.5327 49.1274L38.1449 48.2783C38.1449 48.2783 39.9072 41.3094 38.8178 26.3143C40.4639 25.9968 42.1462 25.9106 43.8162 26.058C45.4182 26.4104 47.2125 43.0877 47.2125 43.0877C47.2125 43.0877 64.5625 40.7006 65.5558 41.3895C66.1806 41.8221 66.501 44.3853 66.6612 46.1956C66.7067 46.7088 66.5716 47.2218 66.279 47.6459C65.9865 48.0701 65.5551 48.3787 65.0592 48.5186L64.4664 48.6788L64.8029 65.372C64.8129 65.9914 64.5866 66.5913 64.1699 67.0497C63.7532 67.508 63.1775 67.7904 62.56 67.8392L46.2993 69.1368C44.6916 69.2621 43.0835 68.8991 41.6854 68.0955L39.8271 67.0221L29.8624 68.448L28.5327 49.1274Z" fill="white"/>
</svg>
