<svg width="47" height="70" viewBox="0 0 47 70" fill="none" xmlns="http://www.w3.org/2000/svg">
<path d="M44.1856 3.00781H2.44415C1.27496 3.00781 0.327148 3.95563 0.327148 5.12481V67.5457C0.327148 68.7148 1.27496 69.6627 2.44415 69.6627H44.1856C45.3547 69.6627 46.3026 68.7148 46.3026 67.5457V5.12481C46.3026 3.95563 45.3547 3.00781 44.1856 3.00781Z" fill="#263238"/>
<path opacity="0.4" d="M44.1856 3.00781H2.44415C1.27496 3.00781 0.327148 3.95563 0.327148 5.12481V67.5457C0.327148 68.7148 1.27496 69.6627 2.44415 69.6627H44.1856C45.3547 69.6627 46.3026 68.7148 46.3026 67.5457V5.12481C46.3026 3.95563 45.3547 3.00781 44.1856 3.00781Z" fill="white"/>
<path opacity="0.2" d="M44.1129 7.89062H4.27246V67.0732H44.1129V7.89062Z" fill="black"/>
<path d="M24.537 2.13754C24.537 1.81306 24.4081 1.50186 24.1786 1.27241C23.9492 1.04296 23.638 0.914062 23.3135 0.914062C22.989 0.914062 22.6778 1.04296 22.4483 1.27241C22.2189 1.50186 22.09 1.81306 22.09 2.13754H13.33C13.249 2.13716 13.1687 2.15283 13.0938 2.18365C13.0188 2.21448 12.9508 2.25985 12.8935 2.31714C12.8362 2.37443 12.7908 2.4425 12.76 2.51743C12.7292 2.59236 12.7135 2.67265 12.7139 2.75366V9.12802H33.8926V2.75366C33.893 2.67265 33.8773 2.59236 33.8465 2.51743C33.8157 2.4425 33.7703 2.37443 33.713 2.31714C33.6558 2.25985 33.5877 2.21448 33.5128 2.18365C33.4378 2.15283 33.3575 2.13716 33.2765 2.13754H24.537ZM23.3135 1.49806C23.44 1.49806 23.5636 1.53557 23.6688 1.60583C23.7739 1.6761 23.8559 1.77598 23.9043 1.89283C23.9527 2.00968 23.9653 2.13825 23.9407 2.2623C23.916 2.38635 23.8551 2.50029 23.7657 2.58973C23.6762 2.67916 23.5623 2.74006 23.4382 2.76474C23.3142 2.78941 23.1856 2.77675 23.0688 2.72835C22.9519 2.67995 22.852 2.59798 22.7818 2.49282C22.7115 2.38766 22.674 2.26402 22.674 2.13754C22.674 1.96794 22.7414 1.80529 22.8613 1.68536C22.9812 1.56544 23.1439 1.49806 23.3135 1.49806Z" fill="#263238"/>
<path d="M43.234 7.01562H3.39355V66.1982H43.234V7.01562Z" fill="#00A1F1"/>
<path opacity="0.7" d="M43.234 7.01562H3.39355V66.1982H43.234V7.01562Z" fill="white"/>
<g opacity="0.4">
<path d="M36.9447 13.5625H9.68359V15.0225H36.9447V13.5625Z" fill="black"/>
</g>
<g opacity="0.4">
<path d="M36.9466 18.7422H12.6055V19.3262H36.9466V18.7422Z" fill="black"/>
</g>
<g opacity="0.4">
<path d="M36.9447 21.0078H9.68359V21.5918H36.9447V21.0078Z" fill="black"/>
</g>
<g opacity="0.4">
<path d="M36.9447 23.2734H9.68359V23.8574H36.9447V23.2734Z" fill="black"/>
</g>
<g opacity="0.4">
<path d="M36.9447 25.5391H9.68359V26.1231H36.9447V25.5391Z" fill="black"/>
</g>
<g opacity="0.4">
<path d="M36.9447 27.8047H9.68359V28.3887H36.9447V27.8047Z" fill="black"/>
</g>
<g opacity="0.4">
<path d="M36.9447 30.0703H9.68359V30.6543H36.9447V30.0703Z" fill="black"/>
</g>
<g opacity="0.4">
<path d="M22.3359 32.3281H9.68359V32.9121H22.3359V32.3281Z" fill="black"/>
</g>
<g opacity="0.4">
<path d="M14.4724 41.5447H9.68359V36.7734H14.4724V41.5447ZM10.2822 40.9607H13.8884V37.3574H10.2676L10.2822 40.9607Z" fill="black"/>
</g>
<g opacity="0.4">
<path d="M36.9462 37.9766H16.0098V38.5606H36.9462V37.9766Z" fill="black"/>
<path d="M30.2769 39.75H16.0098V40.334H30.2769V39.75Z" fill="black"/>
</g>
<g opacity="0.4">
<path d="M14.4724 50.3025H9.68359V45.5312H14.4724V50.3025ZM10.2822 49.7185H13.8884V46.1152H10.2676L10.2822 49.7185Z" fill="black"/>
</g>
<g opacity="0.4">
<path d="M36.9462 46.7422H16.0098V47.3262H36.9462V46.7422Z" fill="black"/>
<path d="M30.2769 48.5156H16.0098V49.0996H30.2769V48.5156Z" fill="black"/>
</g>
<g opacity="0.4">
<path d="M14.4724 59.0711H9.68359V54.2969H14.4724V59.0711ZM10.2822 58.4871H13.8884V54.8809H10.2676L10.2822 58.4871Z" fill="black"/>
</g>
<g opacity="0.4">
<path d="M36.9462 55.5078H16.0098V56.0918H36.9462V55.5078Z" fill="black"/>
<path d="M30.2769 57.2812H16.0098V57.8652H30.2769V57.2812Z" fill="black"/>
</g>
<path d="M11.5606 40.5027L10.708 39.3259L11.181 38.9814L11.6103 39.577L12.9798 38.0703L13.4119 38.4645L11.5606 40.5027Z" fill="#00A1F1"/>
<path d="M11.5606 49.2654L10.708 48.0886L11.181 47.747L11.6103 48.3427L12.9798 46.8359L13.4119 47.2301L11.5606 49.2654Z" fill="#00A1F1"/>
<path d="M11.5606 58.031L10.708 56.8542L11.181 56.5126L11.6103 57.1083L12.9798 55.6016L13.4119 55.9958L11.5606 58.031Z" fill="#00A1F1"/>
<g opacity="0.2">
<path d="M30.6929 10.8798H16.5163C16.3927 10.8833 16.2698 10.86 16.156 10.8116C16.0422 10.7631 15.9402 10.6907 15.857 10.5992C15.7739 10.5077 15.7114 10.3993 15.674 10.2814C15.6366 10.1635 15.6251 10.039 15.6403 9.91622L16.0287 6.12022C16.0551 5.85291 16.1789 5.60464 16.3765 5.42266C16.5741 5.24069 16.8317 5.13769 17.1003 5.13326H31.2681C31.3922 5.12924 31.5156 5.15225 31.6298 5.2007C31.7441 5.24914 31.8464 5.32186 31.9298 5.41382C32.0131 5.50577 32.0755 5.61475 32.1125 5.7332C32.1495 5.85165 32.1603 5.97674 32.1441 6.09978L31.7558 9.89578C31.7294 10.1613 31.6068 10.4081 31.4109 10.5894C31.2151 10.7707 30.9597 10.874 30.6929 10.8798ZM17.0477 5.71726C16.9432 5.7194 16.8431 5.75933 16.7657 5.82966C16.6884 5.89999 16.6392 5.99596 16.6273 6.09978L16.2389 9.89578C16.233 9.94407 16.2376 9.99306 16.2523 10.0394C16.2671 10.0858 16.2916 10.1284 16.3243 10.1644C16.357 10.2004 16.3971 10.229 16.4418 10.2481C16.4865 10.2673 16.5348 10.2766 16.5834 10.2754H30.7513C30.8553 10.2733 30.9552 10.2338 31.0324 10.1641C31.1096 10.0943 31.1591 9.99908 31.1718 9.89578L31.5601 6.09978C31.5664 6.05152 31.5623 6.00247 31.5479 5.95596C31.5335 5.90946 31.5093 5.8666 31.4769 5.8303C31.4445 5.794 31.4046 5.76511 31.36 5.74561C31.3154 5.7261 31.2672 5.71643 31.2185 5.71726H17.0477Z" fill="black"/>
</g>
<path d="M30.4002 10.5825H16.2236C15.9677 10.5825 15.7223 10.4811 15.5412 10.3004C15.36 10.1198 15.2578 9.87473 15.2571 9.6189V5.8229C15.2543 5.69426 15.2773 5.56638 15.3247 5.44675C15.372 5.32711 15.4428 5.21814 15.5328 5.12621C15.6228 5.03429 15.7303 4.96126 15.8489 4.91141C15.9675 4.86157 16.0949 4.83591 16.2236 4.83594H30.3943C30.6507 4.83594 30.8965 4.93777 31.0778 5.11903C31.259 5.30028 31.3608 5.54612 31.3608 5.80246V9.59846C31.3632 9.72636 31.3401 9.85345 31.2929 9.97236C31.2457 10.0913 31.1754 10.1996 31.0861 10.2912C30.9967 10.3827 30.8901 10.4556 30.7723 10.5056C30.6546 10.5556 30.5281 10.5817 30.4002 10.5825ZM16.2236 5.41994C16.1221 5.41994 16.0248 5.46024 15.9531 5.53198C15.8814 5.60371 15.8411 5.70101 15.8411 5.80246V9.59846C15.8418 9.6994 15.8825 9.79595 15.9541 9.86706C16.0258 9.93816 16.1226 9.97806 16.2236 9.97806H30.3943C30.4953 9.97806 30.5921 9.93816 30.6638 9.86706C30.7354 9.79595 30.7761 9.6994 30.7768 9.59846V5.80246C30.7768 5.70101 30.7366 5.60371 30.6648 5.53198C30.5931 5.46024 30.4958 5.41994 30.3943 5.41994H16.2236Z" fill="white"/>
<path d="M28.8844 3.94531H17.7417C17.5014 3.94531 17.3066 4.1401 17.3066 4.38039V5.89879C17.3066 6.13908 17.5014 6.33387 17.7417 6.33387H28.8844C29.1247 6.33387 29.3195 6.13908 29.3195 5.89879V4.38039C29.3195 4.1401 29.1247 3.94531 28.8844 3.94531Z" fill="#263238"/>
<path opacity="0.1" d="M28.8844 3.94531H17.7417C17.5014 3.94531 17.3066 4.1401 17.3066 4.38039V5.89879C17.3066 6.13908 17.5014 6.33387 17.7417 6.33387H28.8844C29.1247 6.33387 29.3195 6.13908 29.3195 5.89879V4.38039C29.3195 4.1401 29.1247 3.94531 28.8844 3.94531Z" fill="white"/>
</svg>
