<svg width="123" height="102" viewBox="0 0 123 102" fill="none" xmlns="http://www.w3.org/2000/svg">
<path d="M26.1724 87.8205L32.9263 15.7578H25.1299L18.373 87.8205H26.1724Z" fill="#FAFAFA"/>
<path d="M11.9536 63.3251C11.8857 63.3285 11.8178 63.3162 11.7554 63.2891C11.693 63.262 11.6378 63.2208 11.5939 63.1688C11.5501 63.1167 11.5189 63.0553 11.5028 62.9892C11.4867 62.9231 11.4861 62.8541 11.501 62.7878C11.5357 62.6221 11.6224 62.4719 11.7485 62.3589C11.8745 62.246 12.0334 62.1763 12.2018 62.16L20.3778 61.5088C20.449 61.4981 20.5217 61.5049 20.5897 61.5286C20.6576 61.5523 20.7188 61.5921 20.768 61.6447C20.8171 61.6973 20.8527 61.7611 20.8717 61.8305C20.8908 61.8999 20.8926 61.9729 20.8771 62.0432C20.8438 62.2072 20.7595 62.3565 20.6363 62.4698C20.5131 62.583 20.3572 62.6545 20.1909 62.6739L12.0149 63.3221L11.9536 63.3251Z" fill="#00A1F1"/>
<path d="M58.0467 85.7221H1.6644C1.22271 85.7214 0.799366 85.5454 0.487314 85.2328C0.175262 84.9202 -6.7736e-07 84.4965 0 84.0548V4.79725C0.00384504 4.35809 0.180805 3.93818 0.492441 3.62873C0.804078 3.31928 1.22522 3.14528 1.6644 3.14453H58.0467C58.4889 3.14453 58.913 3.32019 59.2257 3.63288C59.5383 3.94556 59.714 4.36965 59.714 4.81185V84.0548C59.714 84.497 59.5383 84.9211 59.2257 85.2338C58.913 85.5465 58.4889 85.7221 58.0467 85.7221ZM1.6644 3.20293C1.24207 3.2037 0.837295 3.37202 0.538933 3.67093C0.240571 3.96984 0.0729993 4.37492 0.073 4.79725V84.0548C0.0729993 84.4771 0.240571 84.8822 0.538933 85.1811C0.837295 85.48 1.24207 85.6484 1.6644 85.6491H58.0467C58.4693 85.6484 58.8744 85.4801 59.1732 85.1813C59.472 84.8825 59.6402 84.4774 59.641 84.0548V4.79725C59.6402 4.37465 59.472 3.96958 59.1732 3.67075C58.8744 3.37192 58.4693 3.2037 58.0467 3.20293H1.6644Z" fill="#EBEBEB"/>
<path d="M121.21 85.7221H64.8245C64.3826 85.7214 63.9589 85.5454 63.6464 85.2329C63.3339 84.9204 63.158 84.4968 63.1572 84.0548V4.79725C63.1618 4.35782 63.3394 3.93792 63.6515 3.62855C63.9636 3.31918 64.3851 3.14528 64.8245 3.14453H121.21C121.648 3.14605 122.069 3.32039 122.38 3.62976C122.691 3.93912 122.867 4.35859 122.871 4.79725V84.0548C122.871 84.496 122.696 84.9192 122.385 85.2317C122.074 85.5442 121.651 85.7206 121.21 85.7221ZM64.8245 3.20293C64.4019 3.2037 63.9969 3.37192 63.698 3.67075C63.3992 3.96958 63.231 4.37465 63.2302 4.79725V84.0548C63.231 84.4774 63.3992 84.8825 63.698 85.1813C63.9969 85.4801 64.4019 85.6484 64.8245 85.6491H121.21C121.632 85.6484 122.037 85.4801 122.336 85.1813C122.635 84.8825 122.803 84.4774 122.804 84.0548V4.79725C122.803 4.37465 122.635 3.96958 122.336 3.67075C122.037 3.37192 121.632 3.2037 121.21 3.20293H64.8245Z" fill="#EBEBEB"/>
<path d="M81.2579 44.4258L111.897 44.4258V10.3844L81.2579 10.3844V44.4258Z" fill="#E6E6E6"/>
<path d="M74.7027 44.4258L110.484 44.4258V10.3844L74.7027 10.3844V44.4258Z" fill="#F5F5F5"/>
<path d="M106.969 42.2414V12.5742L78.2184 12.5742V42.2414H106.969Z" fill="white"/>
<path d="M92.7803 42.6178V12.1914H92.4065V42.6178H92.7803Z" fill="#F5F5F5"/>
<path d="M12.5302 91.2695H51.6699L51.6699 12.3127H12.5302L12.5302 91.2695Z" fill="#E6E6E6"/>
<path d="M9.80836 91.2695H50.9453L50.9453 12.3127H9.80836L9.80836 91.2695Z" fill="#F0F0F0"/>
<path d="M47.4971 87.8195L47.4971 15.7539L13.2542 15.7539L13.2542 87.8195H47.4971Z" fill="white"/>
<path d="M32.2136 87.8166L38.9705 15.7539H35.0694L28.3154 87.8166H32.2136Z" fill="#FAFAFA"/>
<path d="M66.4715 98.7461H73.7861V67.8262H66.4715V98.7461Z" fill="#E6E6E6"/>
<path d="M66.4709 97.2773H113.638V67.8262H66.4709V97.2773Z" fill="#FAFAFA"/>
<path d="M69.7733 86.168H110.338V78.7979H69.7733V86.168Z" fill="#F0F0F0"/>
<path d="M102.626 79.5898H77.4824C77.1277 79.5898 76.7875 79.4489 76.5367 79.1981C76.2859 78.9473 76.145 78.6072 76.145 78.2525V78.162H103.961V78.2525C103.961 78.6072 103.82 78.9473 103.569 79.1981C103.318 79.4489 102.978 79.5898 102.624 79.5898H102.626Z" fill="#FAFAFA"/>
<path d="M69.7733 77.2227H110.338V69.8526H69.7733V77.2227Z" fill="#F0F0F0"/>
<path d="M102.626 70.6367H77.4824C77.1277 70.6367 76.7875 70.4958 76.5367 70.245C76.2859 69.9942 76.145 69.654 76.145 69.2994V69.2088H103.961V69.2994C103.961 69.6535 103.82 69.9933 103.57 70.244C103.32 70.4947 102.981 70.6359 102.626 70.6367Z" fill="#FAFAFA"/>
<path d="M74.203 67.3086H75.6455V53.9292H74.203V67.3086Z" fill="#F5F5F5"/>
<path d="M74.39 67.3008H74.7959V53.9213H74.39V67.3008Z" fill="#FAFAFA"/>
<path d="M71.7441 67.8225H78.101C78.1014 67.7172 78.081 67.6129 78.0409 67.5155C78.0009 67.418 77.942 67.3295 77.8677 67.2549C77.7933 67.1803 77.705 67.1211 77.6078 67.0807C77.5105 67.0403 77.4062 67.0195 77.3009 67.0195H72.5471C72.3342 67.0195 72.1299 67.1041 71.9793 67.2547C71.8287 67.4053 71.7441 67.6096 71.7441 67.8225Z" fill="#F0F0F0"/>
<path d="M72.1617 63.4259C72.2714 63.4251 72.3765 63.3812 72.4541 63.3036C72.5317 63.226 72.5756 63.121 72.5764 63.0112V55.6295C72.5756 55.5198 72.5317 55.4147 72.4541 55.3371C72.3765 55.2595 72.2714 55.2156 72.1617 55.2148C72.0515 55.2148 71.9457 55.2584 71.8675 55.3361C71.7893 55.4138 71.7449 55.5192 71.7442 55.6295V63.0054C71.7438 63.0605 71.7543 63.1151 71.7751 63.1661C71.7959 63.2171 71.8266 63.2635 71.8654 63.3026C71.9042 63.3416 71.9504 63.3727 72.0012 63.3938C72.0521 63.415 72.1066 63.4259 72.1617 63.4259Z" fill="#F0F0F0"/>
<path d="M68.4717 57.4737H81.3781L80.9196 56.2006C80.6187 55.3718 80.0701 54.6557 79.3481 54.1495C78.6262 53.6433 77.7659 53.3715 76.8842 53.3711H72.9656C72.0838 53.3715 71.2236 53.6433 70.5016 54.1495C69.7797 54.6557 69.231 55.3718 68.9301 56.2006L68.4717 57.4737Z" fill="#E0E0E0"/>
<path d="M104.767 67.8225H111.123C111.123 67.6101 111.039 67.4063 110.889 67.2557C110.739 67.1052 110.536 67.0203 110.323 67.0195H105.561C105.348 67.0203 105.145 67.1052 104.995 67.2557C104.845 67.4063 104.761 67.6101 104.761 67.8225H104.767Z" fill="#F0F0F0"/>
<path d="M105.175 63.4259C105.285 63.4251 105.39 63.3812 105.468 63.3036C105.545 63.226 105.589 63.121 105.59 63.0112V55.6295C105.589 55.5198 105.545 55.4147 105.468 55.3371C105.39 55.2595 105.285 55.2156 105.175 55.2148C105.066 55.2156 104.961 55.2595 104.883 55.3371C104.805 55.4147 104.762 55.5198 104.761 55.6295V63.0054C104.76 63.0602 104.771 63.1146 104.791 63.1654C104.812 63.2162 104.842 63.2625 104.881 63.3015C104.919 63.3406 104.965 63.3716 105.016 63.393C105.066 63.4143 105.121 63.4255 105.175 63.4259Z" fill="#F0F0F0"/>
<path d="M101.484 57.4737H114.402L113.941 56.2006C113.64 55.3701 113.09 54.6528 112.366 54.1464C111.643 53.64 110.78 53.3693 109.897 53.3711H105.981C105.099 53.3715 104.239 53.6433 103.517 54.1495C102.795 54.6557 102.247 55.3718 101.946 56.2006L101.484 57.4737Z" fill="#E0E0E0"/>
<path d="M37.4691 20.3626L37.2852 20.1348C38.5681 19.0941 39.9033 18.1195 41.2856 17.2148L41.4462 17.4601C40.0717 18.3589 38.7443 19.3277 37.4691 20.3626Z" fill="#263238"/>
<path d="M35.3138 22.2058L35.1152 21.9897C35.5065 21.6364 35.9095 21.283 36.3095 20.9414L36.4993 21.1662C36.0993 21.505 35.7022 21.8554 35.3138 22.2058Z" fill="#263238"/>
<path d="M67.6539 57.8387C81.6328 45.5924 85.9707 27.6811 77.3429 17.8325C68.715 7.98392 50.3886 9.92762 36.4097 22.1739C22.4308 34.4201 18.0929 52.3315 26.7207 62.1801C35.3486 72.0286 53.675 70.0849 67.6539 57.8387Z" fill="#263238"/>
<path d="M65.5831 55.4799C77.7097 44.8564 81.473 29.3185 73.9886 20.7752C66.5042 12.2318 50.6063 13.9182 38.4797 24.5417C26.353 35.1653 22.5898 50.7031 30.0742 59.2464C37.5586 67.7898 53.4565 66.1035 65.5831 55.4799Z" fill="white"/>
<path d="M58.0905 17.4324C45.4498 18.4573 32.4909 29.4044 29.1445 41.8611L74.9214 38.1557C78.2677 25.6873 70.7312 16.4104 58.0905 17.4324Z" fill="#00A1F1"/>
<path opacity="0.7" d="M29.1387 41.8603L52.0286 40.0061L40.1325 25.3477C34.894 29.7744 30.8177 35.6261 29.1387 41.8603Z" fill="white"/>
<path opacity="0.4" d="M58.0898 17.4258C51.771 17.9397 45.3703 20.9298 40.1318 25.3477L52.0338 40.0003L58.0898 17.4258Z" fill="white"/>
<path opacity="0.1" d="M58.0903 17.4324L52.0342 40.0069L72.5005 22.7351C69.4549 18.9858 64.4121 16.9214 58.0903 17.4324Z" fill="white"/>
<path d="M57.5601 46.3226C62.508 41.988 64.0441 35.6489 60.991 32.1638C57.938 28.6788 51.4519 29.3676 46.504 33.7022C41.556 38.0369 40.0199 44.376 43.073 47.861C46.126 51.346 52.6121 50.6573 57.5601 46.3226Z" fill="white"/>
<path d="M55.2591 43.6974C58.1461 41.1682 59.0418 37.4688 57.2597 35.4346C55.4776 33.4003 51.6925 33.8015 48.8055 36.3307C45.9185 38.8599 45.0228 42.5592 46.8049 44.5935C48.587 46.6277 52.3721 46.2265 55.2591 43.6974Z" fill="#263238"/>
<path d="M69.1658 27.9258C63.72 29.9822 58.5563 32.7196 53.7979 36.0726L55.9499 39.927C60.8159 36.4652 65.2524 32.4365 69.1658 27.9258Z" fill="#263238"/>
<path d="M31.7661 50.476C31.6982 50.4795 31.6303 50.4672 31.5679 50.4401C31.5055 50.413 31.4503 50.3718 31.4064 50.3197C31.3626 50.2677 31.3314 50.2062 31.3153 50.1401C31.2992 50.074 31.2986 50.0051 31.3135 49.9387C31.3474 49.7745 31.4323 49.6251 31.556 49.5119C31.6797 49.3986 31.836 49.3273 32.0026 49.308L57.1701 47.3137C57.2412 47.3028 57.3139 47.3095 57.3818 47.3331C57.4497 47.3568 57.5108 47.3967 57.5598 47.4494C57.6087 47.5021 57.6441 47.566 57.6627 47.6355C57.6813 47.7049 57.6826 47.7779 57.6665 47.848C57.6335 48.0119 57.5492 48.161 57.4259 48.2739C57.3025 48.3867 57.1465 48.4574 56.9803 48.4758L31.8333 50.4731L31.7661 50.476Z" fill="#00A1F1"/>
<path d="M53.5345 52.8726C53.4664 52.8766 53.3983 52.8647 53.3355 52.8378C53.2728 52.8109 53.2173 52.7697 53.1733 52.7175C53.1294 52.6653 53.0982 52.6036 53.0823 52.5372C53.0665 52.4709 53.0663 52.4017 53.0819 52.3353C53.1151 52.171 53.1998 52.0215 53.3237 51.9086C53.4477 51.7957 53.6043 51.7253 53.771 51.7075L61.947 51.0563C62.0183 51.0449 62.0914 51.0512 62.1597 51.0746C62.228 51.098 62.2895 51.1379 62.3388 51.1907C62.3881 51.2434 62.4237 51.3075 62.4425 51.3773C62.4612 51.447 62.4626 51.5203 62.4463 51.5907C62.4128 51.7551 62.3281 51.9048 62.2043 52.0181C62.0805 52.1314 61.924 52.2026 61.7572 52.2214L53.5812 52.8696L53.5345 52.8726Z" fill="#00A1F1"/>
<path d="M19.2366 58.5512C19.1687 58.5548 19.101 58.5426 19.0386 58.5155C18.9763 58.4883 18.9211 58.4471 18.8775 58.395C18.8339 58.3428 18.803 58.2813 18.7873 58.2151C18.7715 58.149 18.7714 58.0801 18.7869 58.0139C18.8204 57.8503 18.9048 57.7014 19.0281 57.5886C19.1513 57.4758 19.3071 57.405 19.4731 57.3861L44.0011 55.4385C44.0723 55.4278 44.145 55.4346 44.213 55.4583C44.281 55.482 44.3421 55.5218 44.3913 55.5744C44.4404 55.627 44.476 55.6907 44.4951 55.7602C44.5141 55.8296 44.5159 55.9026 44.5005 55.9729C44.4665 56.1371 44.3817 56.2865 44.258 56.3997C44.1342 56.513 43.9779 56.5843 43.8113 56.6036L19.2833 58.5483L19.2366 58.5512Z" fill="#00A1F1"/>
<path d="M71.8848 84.7702L72.9243 86.8697L78.0664 85.0214L77.0269 82.9219L71.8848 84.7702Z" fill="#FF8B7B"/>
<path d="M73.1604 86.7364L72.0245 84.4413C72.0036 84.4002 71.9695 84.3673 71.9277 84.3477C71.8859 84.3281 71.8388 84.3231 71.7938 84.3333L69.7206 84.8443C69.67 84.8558 69.6228 84.8788 69.5825 84.9114C69.5421 84.9441 69.5099 84.9856 69.4882 85.0327C69.4664 85.0799 69.4558 85.1313 69.4571 85.1832C69.4585 85.2351 69.4717 85.286 69.4958 85.3319C69.9192 86.1524 70.5587 87.3234 71.0755 88.3629C71.677 89.5805 71.7588 89.6185 72.4654 91.0434C72.8918 91.9048 73.8816 91.715 73.7824 91.315C73.3268 89.4929 73.0728 89.1776 73.248 87.3234C73.2737 87.1234 73.2434 86.9202 73.1604 86.7364Z" fill="#263238"/>
<path d="M93.3786 47.0273C93.2705 47.7865 93.1537 48.6041 93.0632 49.3954C92.9727 50.1867 92.8822 50.9926 92.815 51.7898C92.6602 53.3479 92.6133 54.9148 92.6748 56.4793C92.6748 56.6691 92.6924 56.8589 92.7157 57.037L92.7683 57.5568C92.7676 57.7108 92.8155 57.8612 92.9051 57.9864C92.9948 58.1117 93.1216 58.2056 93.2676 58.2547C93.5323 58.3759 93.8123 58.4604 94.0998 58.5058C94.8188 58.6125 95.5473 58.6399 96.2723 58.5875C96.6548 58.5613 97.0461 58.5321 97.4403 58.4853C97.8345 58.4386 98.2345 58.3773 98.6083 58.3218L99.1748 59.9891C98.7711 60.1789 98.3579 60.3475 97.9367 60.4943C97.5206 60.649 97.0966 60.7816 96.6665 60.8914C96.2255 61.0083 95.7779 61.0989 95.3262 61.163C94.849 61.2361 94.3664 61.2674 93.8837 61.2564C93.3417 61.2499 92.8032 61.1683 92.2836 61.0141C91.6502 60.822 91.0743 60.4759 90.6075 60.0067C90.1215 59.4976 89.7859 58.8639 89.638 58.1758C89.6176 58.0853 89.6088 58.0357 89.6001 57.9773L89.5709 57.8079L89.5096 57.4633C89.4658 57.2356 89.4366 57.0107 89.4103 56.7859C89.2205 55.0405 89.1833 53.2818 89.2993 51.5299C89.3548 50.6714 89.4161 49.8188 89.5212 48.972C89.6264 48.1252 89.7286 47.293 89.8921 46.4141L93.3786 47.0273Z" fill="#FF8B7B"/>
<path d="M89.6379 44.9086C88.1019 46.5409 88.721 50.661 88.721 50.661L93.0367 51.3326C93.0367 51.3326 94.0383 48.9966 93.6616 46.5876C93.2002 43.6618 91.3169 43.1128 89.6379 44.9086Z" fill="#00A1F1"/>
<path opacity="0.2" d="M91.0421 46.7176C90.3296 45.8008 89.5821 45.4737 89.1849 45.5496C88.2301 47.4214 88.7148 50.6509 88.7148 50.6509L91.7721 51.1473C92.1225 50.1983 92.1663 48.1514 91.0421 46.7176Z" fill="black"/>
<path d="M98.0332 58.5746L100.536 56.9336L101.09 59.474C101.09 59.474 99.5341 61.0508 98.2376 59.9383L98.0332 58.5746Z" fill="#FF8B7B"/>
<path d="M102.075 56.3828L102.364 58.5787L101.091 59.4722L100.533 56.9318L102.075 56.3828Z" fill="#FF8B7B"/>
<path opacity="0.2" d="M78.063 85.0243L75.4145 85.9762L74.375 83.8738L77.0234 82.9219L78.063 85.0243Z" fill="black"/>
<path d="M80.7467 39.2773C78.9714 48.3615 74.2439 56.5579 73.584 58.3683C75.2776 59.0779 81.6695 61.7409 85.153 63.1921C91.65 53.524 92.6457 46.5277 92.7947 44.8341C92.8051 44.7131 92.7836 44.5914 92.7324 44.4812C92.6812 44.3711 92.602 44.2763 92.5027 44.2063C92.2253 44.0048 91.7814 43.6895 91.2412 43.3303C90.9492 43.1434 90.6368 42.9478 90.301 42.7463C90.117 42.6383 89.9272 42.5331 89.7345 42.4309C88.1349 41.656 86.4922 40.9735 84.8143 40.3869C84.499 40.2731 84.1748 40.1621 83.8566 40.0628C83.5383 39.9635 83.2725 39.8847 82.9951 39.8088C81.7512 39.4759 80.7467 39.2773 80.7467 39.2773Z" fill="#00A1F1"/>
<path d="M87.7023 52.2307L88.3418 52.3942C87.9199 52.8021 87.4061 53.1026 86.8438 53.2702C86.2012 53.4626 85.5178 53.4727 84.8699 53.2994C84.2965 53.1822 83.7715 52.8953 83.3632 52.476C83.1911 52.2822 83.0604 52.0554 82.979 51.8094C82.8977 51.5634 82.8674 51.3033 82.8901 51.0452C82.9327 50.4317 83.1059 49.8343 83.3982 49.2932C83.7376 48.632 84.1947 48.0383 84.7472 47.5412C85.245 47.0745 85.845 46.7305 86.4992 46.5367C87.0877 46.3681 87.7102 46.358 88.3038 46.5075C88.756 46.6049 89.1653 46.8443 89.4718 47.1908C89.7551 47.5335 89.8989 47.9703 89.8748 48.4143C89.8525 48.9255 89.7136 49.4249 89.4689 49.8743C89.1603 50.4735 88.7127 50.9901 88.1636 51.381C87.4541 51.892 86.7912 52.0672 86.178 51.9124C86.1136 51.9032 86.0518 51.8812 85.9961 51.8476C85.9404 51.8139 85.8921 51.7695 85.8539 51.7168C85.809 51.6073 85.809 51.4846 85.8539 51.3751C85.5511 51.5694 85.1851 51.6394 84.8319 51.5708C84.68 51.5404 84.5404 51.4661 84.4304 51.3571C84.3204 51.2481 84.2447 51.1092 84.2129 50.9576C84.1443 50.5586 84.2243 50.1482 84.4377 49.8042C84.7185 49.2538 85.1173 48.7722 85.6057 48.3938C86.2092 47.9208 86.7611 47.7466 87.2614 47.8711C87.4194 47.8975 87.5621 47.9811 87.6623 48.1061C87.7625 48.2311 87.8131 48.3886 87.8045 48.5486L88.079 48.1777L88.8703 48.3792L87.1183 50.7882C87.0453 50.8814 86.978 50.9789 86.9168 51.0802C86.8914 51.1235 86.8792 51.1732 86.8818 51.2233C86.8847 51.2388 86.8921 51.2531 86.9029 51.2645C86.9138 51.2759 86.9278 51.2839 86.9431 51.2875C87.1092 51.2981 87.2747 51.2595 87.419 51.1766C87.7444 51.0374 88.0414 50.8394 88.295 50.5926C88.5663 50.3401 88.7933 50.044 88.9666 49.7166C89.107 49.4802 89.1982 49.218 89.2348 48.9455C89.2714 48.6731 89.2527 48.3961 89.1798 48.131C89.0221 47.6521 88.625 47.3329 87.9884 47.1733C87.4697 47.036 86.9225 47.0502 86.4116 47.2141C85.8777 47.3918 85.3928 47.6917 84.9954 48.0901C84.5737 48.4968 84.2206 48.9692 83.9501 49.4888C83.7102 49.9292 83.581 50.4212 83.5734 50.9225C83.5671 51.1284 83.6026 51.3335 83.6779 51.5252C83.7532 51.7169 83.8667 51.8914 84.0114 52.038C84.3395 52.3422 84.7426 52.5539 85.1794 52.6512C85.621 52.7695 86.0822 52.7954 86.5343 52.7271C86.9557 52.6508 87.3548 52.4812 87.7023 52.2307ZM85.2028 49.9677C85.0722 50.1753 85.008 50.4177 85.0188 50.6627C85.0262 50.7366 85.0567 50.8062 85.106 50.8618C85.1553 50.9174 85.2208 50.956 85.2933 50.9722C85.4161 51.001 85.5445 50.9949 85.6641 50.9547C85.7844 50.9156 85.8984 50.8595 86.0028 50.7882C86.2278 50.6317 86.4294 50.4439 86.6014 50.2305C86.7995 50.0046 86.9709 49.7567 87.1124 49.4917C87.232 49.2978 87.2862 49.0706 87.2672 48.8435C87.2581 48.7668 87.225 48.695 87.1725 48.6383C87.1201 48.5816 87.051 48.5431 86.9752 48.5281C86.7684 48.4902 86.555 48.5308 86.3766 48.642C86.1171 48.7914 85.889 48.9898 85.705 49.226C85.5121 49.455 85.3438 49.7036 85.2028 49.9677Z" fill="white"/>
<path d="M87.6226 35.1133C87.2751 36.8244 86.3757 39.8554 84.8281 40.4481C85.3304 41.6628 86.0428 43.1199 87.897 43.9696C89.7512 44.8194 89.9586 43.3856 89.7454 42.5096C88.1569 41.3416 88.7497 40.0627 89.5673 38.9618L87.6226 35.1133Z" fill="#FF8B7B"/>
<path opacity="0.2" d="M88.4148 36.6797L89.5653 38.9485C89.3699 39.2031 89.1979 39.4748 89.0514 39.7603C88.4178 39.3807 87.7987 38.2536 88.0206 37.5177C88.1004 37.2169 88.2339 36.933 88.4148 36.6797Z" fill="black"/>
<path d="M92.2923 35.1787C94.1232 35.3131 95.7438 30.7462 93.072 30.2147C91.2703 29.8556 91.2879 30.9331 91.0981 32.1127C90.9083 33.2924 91.1331 35.0941 92.2923 35.1787Z" fill="#263238"/>
<path d="M87.8305 32.8666C87.3603 35.1442 86.9691 36.4524 87.7867 37.9124C89.0189 40.1053 92.0615 39.8308 93.2062 37.7401C94.234 35.8567 94.8326 32.4491 92.8821 30.9599C92.4534 30.6299 91.9476 30.4149 91.4125 30.3353C90.8774 30.2557 90.3309 30.3143 89.8248 30.5053C89.3187 30.6963 88.8698 31.0135 88.5208 31.4268C88.1717 31.8401 87.9341 32.3357 87.8305 32.8666Z" fill="#FF8B7B"/>
<path d="M87.4422 34.4948C89.2731 34.6291 90.4995 30.4535 87.8277 29.9191C86.026 29.56 85.8742 30.6141 85.9034 31.7412C85.9326 32.9384 86.2801 34.3984 87.4422 34.4948Z" fill="#263238"/>
<path d="M88.9194 31.3007C90.1545 31.8993 96.1084 33.1812 95.7668 30.6204C95.4251 28.0595 92.2453 26.8711 92.2453 26.8711C92.2453 26.8711 94.0965 28.9005 92.5694 28.4129C91.0422 27.9252 90.6042 27.569 88.7734 27.2449C88.7734 27.2449 90.5721 28.737 88.4814 28.3165C87.2686 28.055 86.0019 28.2571 84.9307 28.883C85.4619 29.2402 85.8859 29.7351 86.1575 30.3148C86.4291 30.8944 86.5379 31.537 86.4724 32.1738C86.3293 34.4251 88.9194 31.3007 88.9194 31.3007Z" fill="#263238"/>
<path d="M86.3701 34.6038C86.4504 35.1336 86.7357 35.6108 87.1643 35.9324C87.725 36.3441 88.236 35.8711 88.2739 35.1878C88.3061 34.5717 88.0549 33.6139 87.3979 33.4767C86.7409 33.3394 86.2825 33.9439 86.3701 34.6038Z" fill="#FF8B7B"/>
<path d="M77.5865 60.0391L75.1512 67.8822L87.6868 75.7662C85.5231 79.3753 74.5293 82.9669 74.5293 82.9669L76.2813 86.5235C76.2813 86.5235 91.5909 85.3555 94.6948 78.5869C97.682 72.087 85.1464 63.1927 85.1464 63.1927L77.5865 60.0391Z" fill="#263238"/>
<path opacity="0.2" d="M79.2134 70.4385L77.0264 69.0691L79.7186 65.1562C79.7186 65.1562 79.7945 68.2923 79.2134 70.4385Z" fill="black"/>
<path opacity="0.2" d="M79.2134 70.4385L77.0264 69.0691L79.7186 65.1562C79.7186 65.1562 79.7945 68.2923 79.2134 70.4385Z" fill="black"/>
<path d="M82.4373 62.0629C82.4373 62.0629 72.3282 78.8763 68.1556 84.3308C63.5858 90.3052 51.7539 101.559 51.7539 101.559L48.2295 99.106C48.2295 99.106 58.4495 87.8407 62.301 81.6065C66.6956 74.505 73.5838 58.3633 73.5838 58.3633L82.4373 62.0629Z" fill="#263238"/>
<path d="M76.4276 87.012L74.3281 82.7751L75.6976 82.0977L78.1154 86.7989L76.4276 87.012Z" fill="#00A1F1"/>
<path d="M91.0629 34.4173C91.0133 34.5983 91.0629 34.7735 91.1885 34.8057C91.3141 34.8378 91.4455 34.7181 91.4951 34.5341C91.5447 34.3501 91.4951 34.1779 91.3666 34.1457C91.2381 34.1136 91.1126 34.2363 91.0629 34.4173Z" fill="#263238"/>
<path d="M93.1245 34.98C93.0748 35.1639 93.1245 35.3362 93.25 35.3683C93.3756 35.4005 93.507 35.2807 93.5566 35.0968C93.6063 34.9128 93.5566 34.7405 93.4311 34.7084C93.3055 34.6763 93.1741 34.7931 93.1245 34.98Z" fill="#263238"/>
<path d="M92.4447 34.8906C92.5108 35.5078 92.6611 36.113 92.8915 36.6893C92.7423 36.7442 92.583 36.7658 92.4247 36.7527C92.2663 36.7395 92.1127 36.692 91.9746 36.6134L92.4447 34.8906Z" fill="#FF5652"/>
<path d="M91.0751 36.8935C90.8774 36.8145 90.6977 36.6961 90.5472 36.5455C90.3966 36.3949 90.2782 36.2153 90.1991 36.0175C90.1954 36.0032 90.1973 35.988 90.2043 35.975C90.2114 35.962 90.2231 35.9522 90.2371 35.9475C90.2511 35.9436 90.266 35.945 90.2789 35.9515C90.2919 35.958 90.3019 35.969 90.3072 35.9825C90.3968 36.1985 90.536 36.3904 90.7136 36.5426C90.8911 36.6947 91.102 36.803 91.3292 36.8585C91.3365 36.8598 91.3434 36.8627 91.3496 36.8669C91.3557 36.8711 91.3609 36.8765 91.3647 36.8829C91.3686 36.8892 91.3711 36.8963 91.372 36.9037C91.3729 36.9111 91.3723 36.9186 91.3701 36.9257C91.3681 36.9328 91.3646 36.9395 91.36 36.9453C91.3554 36.9511 91.3496 36.9559 91.3431 36.9595C91.3365 36.963 91.3294 36.9652 91.322 36.9659C91.3145 36.9666 91.3071 36.9658 91.3 36.9636C91.2235 36.9457 91.1483 36.9222 91.0751 36.8935Z" fill="#263238"/>
<path d="M90.6076 33.5779C90.5906 33.5696 90.5756 33.5576 90.5638 33.5428C90.5547 33.5315 90.5479 33.5183 90.544 33.5043C90.5401 33.4903 90.5391 33.4756 90.541 33.4611C90.5429 33.4466 90.5477 33.4327 90.5551 33.4202C90.5626 33.4076 90.5725 33.3967 90.5842 33.3881C90.7212 33.2769 90.8828 33.2001 91.0555 33.164C91.2282 33.1279 91.407 33.1337 91.577 33.1808C91.6046 33.1913 91.627 33.2121 91.6395 33.2387C91.652 33.2654 91.6537 33.2959 91.6442 33.3238C91.6343 33.3512 91.6141 33.3735 91.5878 33.3861C91.5616 33.3986 91.5315 33.4004 91.504 33.391C91.3689 33.3549 91.227 33.3517 91.0904 33.3817C90.9537 33.4117 90.8262 33.4739 90.7186 33.5633C90.7028 33.5748 90.6843 33.5822 90.6649 33.5847C90.6456 33.5873 90.6258 33.5849 90.6076 33.5779Z" fill="#263238"/>
<path d="M94.2047 34.509C94.188 34.5018 94.1733 34.4906 94.1621 34.4763C94.1509 34.462 94.1434 34.4451 94.1405 34.4272C94.119 34.2893 94.0648 34.1585 93.9825 34.0457C93.9002 33.933 93.7922 33.8415 93.6674 33.779C93.6529 33.7742 93.6395 33.7665 93.628 33.7564C93.6166 33.7462 93.6074 33.7338 93.601 33.7199C93.5946 33.706 93.5911 33.6909 93.5908 33.6756C93.5905 33.6603 93.5934 33.6451 93.5993 33.631C93.6051 33.6169 93.6138 33.6041 93.6249 33.5935C93.6359 33.5829 93.649 33.5747 93.6634 33.5694C93.6777 33.5641 93.693 33.5618 93.7083 33.5627C93.7235 33.5636 93.7385 33.5676 93.7521 33.5746C93.9106 33.6515 94.0482 33.7654 94.1534 33.9066C94.2586 34.0479 94.3283 34.2125 94.3565 34.3863C94.3595 34.4005 94.3595 34.4152 94.3567 34.4294C94.3539 34.4437 94.3482 34.4572 94.34 34.4692C94.3319 34.4812 94.3213 34.4914 94.3091 34.4992C94.2969 34.5071 94.2832 34.5124 94.2689 34.5148C94.2475 34.5203 94.2248 34.5182 94.2047 34.509Z" fill="#263238"/>
<path d="M80.837 43.2545L79.9143 42.6384C79.596 42.4311 79.2719 42.2296 78.9478 42.0281C78.2966 41.6281 77.6367 41.2485 76.9709 40.8835C76.3052 40.5185 75.6307 40.1856 74.9503 39.8877C74.6116 39.733 74.2699 39.5957 73.9283 39.4643L73.4173 39.2833L73.2888 39.2395L73.2246 39.2161C73.2246 39.2161 73.2041 39.2161 73.1779 39.1957C72.9327 39.1749 72.6859 39.1897 72.4449 39.2395C72.1091 39.3012 71.7775 39.3841 71.4521 39.4877C70.7352 39.716 70.0306 39.9811 69.341 40.2819C67.9248 40.8922 66.4823 41.5872 65.0807 42.2967L64.0908 40.8367C65.3576 39.7582 66.708 38.7818 68.1292 37.9167C68.8651 37.4687 69.6288 37.0679 70.4155 36.7166C70.8422 36.5317 71.2801 36.3737 71.7266 36.2436C72.2637 36.0788 72.8236 36.001 73.3852 36.0129C73.5695 36.0224 73.7529 36.0449 73.9341 36.0801L74.0714 36.1122L74.1531 36.1326L74.3137 36.1735L74.9561 36.3399C75.3766 36.4655 75.8 36.5911 76.203 36.7458C77.0128 37.035 77.8055 37.3704 78.5769 37.7503C79.3449 38.1182 80.0895 38.527 80.8166 38.9592C81.1757 39.1811 81.5349 39.4059 81.8882 39.6395C82.2415 39.8731 82.5803 40.1067 82.9599 40.39L80.837 43.2545Z" fill="#FF8B7B"/>
<path d="M84.3264 40.7741C83.8096 39.4952 78.9244 37.7461 78.9244 37.7461L77.3447 41.8691C77.3447 41.8691 79.0529 42.9992 80.4691 43.846C83.1585 45.4666 85.3368 43.2912 84.3264 40.7741Z" fill="#00A1F1"/>
<path d="M65.5503 41.6786L64.5604 43.8248L63.0508 41.8684C63.0508 41.8684 64.1896 39.9529 65.0013 40.7004L65.5503 41.6786Z" fill="#FF8B7B"/>
<path d="M62.474 44.4981L61.709 42.7811L63.0522 41.8672L64.5618 43.8236L62.474 44.4981Z" fill="#FF8B7B"/>
</svg>
