<svg width="70" height="100" viewBox="0 0 70 100" fill="none" xmlns="http://www.w3.org/2000/svg">
<g opacity="0.6">
<path d="M43.4243 62.057L43.347 62.267L32.9351 89.567L29.0198 99.837L21.6628 86.077L7.20996 90.937L21.6338 53.157L30.7889 56.897L42.8733 61.837L43.4243 62.057Z" fill="#263238"/>
<g opacity="0.2">
<path d="M29.1076 94.8107L22.8238 83.0407L10.4688 87.2007L22.9398 54.5007L41.5883 62.1107L29.1076 94.8107ZM23.0558 82.4707L29.04 93.6707L40.931 62.3907L23.1911 55.1507L11.2615 86.3907L23.0558 82.4707Z" fill="white"/>
</g>
<path opacity="0.2" d="M43.347 62.267L32.9254 89.567C29.0452 80.035 26.757 69.891 26.1582 59.567L30.8276 56.907L42.9119 61.847L43.347 62.267Z" fill="black"/>
<path d="M40.9786 99.837L48.3259 86.077L62.7788 90.937L48.3549 53.157L26.5645 62.057L40.9786 99.837Z" fill="#263238"/>
<g opacity="0.2">
<path d="M28.3623 62.1095L47.0495 54.4695L59.5302 87.1695L47.1656 83.0095L40.93 94.8095L28.3623 62.1095ZM58.6698 86.3895L46.7402 55.1495L28.9907 62.3895L40.93 93.6395L46.9045 82.4395L58.6698 86.3895Z" fill="white"/>
</g>
<path d="M34.9953 8.58073L37.5765 6.50073L39.7517 9.03073L42.6519 7.45073L44.3534 10.3407L47.476 9.33073L48.6554 12.4807L51.9037 12.0607L52.5224 15.3907L55.79 15.5707L55.819 18.9607L59.0093 19.7407L58.4583 23.0807L61.4552 24.4407L60.3338 27.6207L63.0406 29.5207L61.3972 32.4407L63.7367 34.8007L61.6099 37.3707L63.5047 40.1307L60.9718 42.2707L62.3543 45.3307L59.4927 46.9707L60.3338 50.2407L57.2305 51.3207L57.4915 54.6907L54.2529 55.1807L53.9242 58.5507L50.6566 58.4307L49.7575 61.6807L46.5576 60.9607L45.1075 64.0007L42.0816 62.7007L40.1384 65.4207L37.3832 63.5807L34.9953 65.9007L32.6075 63.5807L29.8619 65.4207L27.909 62.7007L24.8831 64.0007L23.4427 60.9607L20.2427 61.6807L19.3437 58.4307L16.0664 58.5507L15.7474 55.1807L12.5088 54.6907L12.7698 51.3207L9.66652 50.2407L10.5076 46.9707L7.63635 45.3307L9.02847 42.2707L6.48592 40.1307L8.39041 37.3707L6.25391 34.8007L8.6031 32.4407L6.94997 29.5207L9.66652 27.6207L8.54509 24.4407L11.542 23.0807L10.991 19.7407L14.1716 18.9607L14.2006 15.5707L17.4682 15.3907L18.0869 12.0607L21.3352 12.4807L22.5146 9.33073L25.6372 10.3407L27.3387 7.45073L30.2389 9.03073L32.4141 6.50073L34.9953 8.58073Z" fill="#00A1F1"/>
<path opacity="0.2" d="M52.5 54.3058C62.165 44.3084 62.165 28.0993 52.5 18.1019C42.835 8.1045 27.165 8.10451 17.5 18.1019C7.83501 28.0994 7.83501 44.3084 17.5 54.3058C27.165 64.3032 42.835 64.3032 52.5 54.3058Z" fill="black"/>
<path d="M23.4707 37.1631L29.2712 36.6331C29.2712 36.6331 30.3346 32.2831 29.6772 22.9231C30.6705 22.7249 31.6858 22.671 32.6935 22.7631C33.6602 22.9831 34.743 33.3931 34.743 33.3931C34.743 33.3931 45.2128 31.9031 45.8122 32.3331C46.1893 32.6031 46.3826 34.2031 46.4793 35.3331C46.5067 35.6534 46.4252 35.9736 46.2487 36.2384C46.0721 36.5031 45.8118 36.6958 45.5125 36.7831L45.1548 36.8831L45.3579 47.3031C45.3639 47.6897 45.2274 48.0642 44.9759 48.3503C44.7245 48.6364 44.3771 48.8126 44.0044 48.8431L34.1919 49.6531C33.2218 49.7312 32.2514 49.5047 31.4077 49.0031L30.2863 48.3331L24.2731 49.2231L23.4707 37.1631Z" fill="#00A1F1"/>
<path opacity="0.7" d="M23.4707 37.1631L29.2712 36.6331C29.2712 36.6331 30.3346 32.2831 29.6772 22.9231C30.6705 22.7249 31.6858 22.671 32.6935 22.7631C33.6602 22.9831 34.743 33.3931 34.743 33.3931C34.743 33.3931 45.2128 31.9031 45.8122 32.3331C46.1893 32.6031 46.3826 34.2031 46.4793 35.3331C46.5067 35.6534 46.4252 35.9736 46.2487 36.2384C46.0721 36.5031 45.8118 36.6958 45.5125 36.7831L45.1548 36.8831L45.3579 47.3031C45.3639 47.6897 45.2274 48.0642 44.9759 48.3503C44.7245 48.6364 44.3771 48.8126 44.0044 48.8431L34.1919 49.6531C33.2218 49.7312 32.2514 49.5047 31.4077 49.0031L30.2863 48.3331L24.2731 49.2231L23.4707 37.1631Z" fill="white"/>
</g>
</svg>
