<svg width="30" height="39" viewBox="0 0 30 39" fill="none" xmlns="http://www.w3.org/2000/svg">
<path fill-rule="evenodd" clip-rule="evenodd" d="M17.555 0.752662C17.5709 0.795272 17.6202 0.926006 17.6645 1.04318C17.7333 1.22474 17.7449 1.33928 17.743 1.81791C17.741 2.31454 17.7286 2.41944 17.6356 2.72379C17.3674 3.60225 16.7744 4.47919 15.8234 5.40375C15.1588 6.04991 14.7916 6.35147 13.2336 7.53125C11.7036 8.6897 11.2707 9.04785 10.6355 9.68068C9.99696 10.3169 9.65046 10.7598 9.36687 11.3026C9.09119 11.8302 9.00826 12.1477 8.98312 12.7719C8.9524 13.5344 9.0566 14.0566 9.39976 14.8598C9.81773 15.838 10.3901 16.6426 11.3527 17.6048C11.9438 18.1957 12.3305 18.531 13.0786 19.1011C13.5751 19.4795 14.6375 20.2176 14.6857 20.2176C14.7395 20.2176 14.3333 19.5174 13.7194 18.5519C12.9727 17.3777 12.7537 17.0093 12.4907 16.4853C12.0606 15.6283 11.88 14.9988 11.8786 14.3515C11.8776 13.8761 11.9489 13.5714 12.1737 13.0918C12.5491 12.2905 13.0509 11.6655 14.2572 10.4968C15.6888 9.10979 16.738 8.03854 17.0665 7.62833C17.8767 6.6165 18.3303 5.72282 18.547 4.71103C18.6665 4.15311 18.6651 3.28186 18.5437 2.70884C18.4322 2.18222 18.2032 1.60211 17.9626 1.23686C17.7509 0.915354 17.5084 0.627273 17.555 0.752662ZM23.4793 7.18999C23.4153 7.1982 23.0406 7.25762 22.6464 7.32204C18.8826 7.93732 16.4881 9.18548 15.4992 11.0475C14.925 12.1285 14.8188 13.4222 15.2117 14.5474C15.3809 15.0322 15.6427 15.5071 16.2224 16.3805C16.8256 17.2895 17.0781 17.7856 17.1683 18.2393C17.323 19.0176 17.0396 19.8501 16.3891 20.5275C16.0829 20.8463 16.0109 20.9555 16.0462 21.0476C16.059 21.0811 16.0767 21.1085 16.0853 21.1085C16.1181 21.1085 17.1005 20.6663 17.3881 20.5221C18.389 20.0203 18.9546 19.5061 19.3152 18.7704C19.5381 18.3154 19.6027 18.0316 19.5986 17.5254C19.5928 16.8323 19.3823 16.256 18.705 15.0799C18.0063 13.8665 17.8441 13.4599 17.8146 12.8483C17.7971 12.4859 17.806 12.3966 17.8834 12.1559C17.9322 12.0039 18.0585 11.7467 18.1639 11.5842C18.513 11.0462 18.9771 10.6334 21.0002 9.06121C21.2856 8.83933 22.0731 8.28518 22.8982 7.72544C23.6265 7.2314 23.7209 7.16152 23.6491 7.1693C23.6196 7.17248 23.5432 7.18182 23.4793 7.18999ZM9.43741 19.6201C9.19241 19.6487 8.62589 19.6996 8.17849 19.7333C4.48426 20.0113 2.89263 20.5592 2.7863 21.5894C2.71689 22.2618 3.47751 22.8111 4.98276 23.1759C6.35433 23.5082 7.72009 23.6439 10.154 23.6896C14.602 23.7732 18.8664 23.2139 20.8131 22.2918C21.6475 21.8965 22.6132 21.0663 22.3542 20.9669C22.3247 20.9556 22.0166 20.9908 21.6697 21.0452C20.0104 21.3056 18.1096 21.4975 15.6546 21.6524C14.5889 21.7197 10.9517 21.7447 9.78604 21.6928C8.30214 21.6266 7.86279 21.5519 7.3383 21.2763L7.07563 21.1383L7.15822 21.0223C7.27939 20.8521 7.66926 20.5758 8.02668 20.4068C8.19886 20.3253 8.66951 20.1613 9.07256 20.0423C10.0719 19.7473 10.3868 19.6341 10.3222 19.5932C10.2525 19.549 9.97437 19.5574 9.43741 19.6201ZM24.9825 19.6941C24.4176 19.7965 23.734 20.0874 23.3572 20.3855L23.2023 20.5081L23.8831 20.5096C24.516 20.511 24.5857 20.5184 24.8738 20.6147C25.489 20.8205 25.9261 21.1675 26.1543 21.6314C26.3168 21.9617 26.3652 22.2054 26.3648 22.6923C26.3639 23.9486 25.611 25.1089 23.8473 26.5722C23.6023 26.7755 23.1958 27.1126 22.9439 27.3214C22.6921 27.5303 22.4916 27.7067 22.4985 27.7135C22.5272 27.7422 23.2021 27.6452 23.6148 27.5531C24.299 27.4004 24.8155 27.215 25.4935 26.8789C26.2349 26.5115 26.7187 26.1752 27.2196 25.6794C28.0356 24.8715 28.4676 24.0082 28.5766 22.9671C28.6523 22.2441 28.5346 21.5991 28.2257 21.045C27.6431 19.9996 26.3249 19.4506 24.9825 19.6941ZM8.19786 23.9403C7.23844 24.1936 6.81703 24.3573 6.39202 24.6415C5.94233 24.9423 5.75748 25.2285 5.75748 25.6239C5.75748 25.9057 5.83476 26.0621 6.0886 26.2941C6.65937 26.8158 7.93914 27.2534 9.55362 27.4791C13.2078 27.9899 18.2294 27.4888 20.9953 26.3374L21.2997 26.2107L21.0337 26.0854C20.8874 26.0166 20.6698 25.8839 20.5502 25.7907C19.8324 25.2317 19.6882 25.1287 19.4671 25.0163C19.2814 24.9219 19.157 24.8879 18.9493 24.8746C18.7012 24.8588 18.6282 24.8736 18.1577 25.0356C17.2229 25.3575 15.4876 25.6022 13.613 25.6766C11.6584 25.7541 10.0684 25.5573 9.06326 25.1135C8.78742 24.9917 8.33479 24.6955 8.25891 24.5872C8.18577 24.4828 8.23555 24.3499 8.41842 24.1617C8.6362 23.9376 8.54706 23.8481 8.19786 23.9403ZM9.03417 27.9686C7.77989 28.3013 7.30418 28.6968 7.18394 29.5069C7.11724 29.9563 7.13939 30.0061 7.51033 30.2394C8.53041 30.881 9.86653 31.2614 11.6421 31.4157C12.3334 31.4758 14.3488 31.4403 15.0735 31.3553C17.1776 31.1084 19.1874 30.5518 20.3749 29.8869L20.6405 29.7382L20.4204 29.6487C20.1958 29.5574 19.8651 29.3165 19.363 28.878C18.8679 28.4457 18.337 28.2329 17.9631 28.3169C17.8724 28.3373 17.6395 28.416 17.4456 28.4917C17.0208 28.6577 16.6877 28.7422 15.9451 28.8725C12.7373 29.4349 10.3096 29.2291 9.66553 28.3401L9.55459 28.1869L9.67219 28.053C9.76559 27.9467 9.78046 27.9079 9.74444 27.8645C9.68552 27.7935 9.70524 27.7906 9.03417 27.9686ZM3.10905 29.9979C1.06774 30.2894 -0.163066 31.2029 0.0174833 32.2925C0.209576 33.4518 1.64471 34.3627 4.33095 35.0303C7.80221 35.8932 12.901 36.124 18.0562 35.6517C22.5105 35.2436 25.9228 34.0969 26.8417 32.6992C27.0925 32.3178 27.1592 32.1119 27.1583 31.7222C27.1576 31.4497 27.1402 31.3562 27.0573 31.1799C26.948 30.9477 26.7479 30.7231 26.5261 30.5837C26.3443 30.4695 25.9641 30.3277 25.8396 30.3277C25.7444 30.3277 25.7435 30.3307 25.7683 30.5727C25.9925 32.7614 21.8339 34.0544 14.2601 34.1506C11.3382 34.1878 9.20798 34.045 7.19072 33.6769C5.20518 33.3146 4.11058 32.858 3.67541 32.2106C3.52605 31.9884 3.50846 31.7602 3.62343 31.5367C3.85643 31.0837 4.35078 30.9108 5.69938 30.8103C6.67491 30.7376 6.84852 30.7149 6.83105 30.6626C6.80801 30.5934 6.42157 30.3755 6.10347 30.2521C5.57333 30.0466 5.12662 29.9752 4.26614 29.9584C3.731 29.9479 3.37316 29.9602 3.10905 29.9979ZM29.6063 33.7849C29.5094 33.8542 29.2908 34.0241 29.1206 34.1626C28.9505 34.3011 28.6378 34.5224 28.4258 34.6543C26.0835 36.1126 22.6068 37.0831 18.5404 37.414C16.4891 37.5808 13.7455 37.5809 11.6066 37.4141C9.65933 37.2622 7.66644 36.9795 5.93179 36.6091C5.63353 36.5454 5.33719 36.4824 5.27328 36.469C5.07789 36.4283 5.85099 36.7471 6.44559 36.9525C8.30984 37.5965 10.3289 38.0249 13.4188 38.4323L14.6474 38.5943L16.8785 38.6077L19.1095 38.6213L20.5971 38.405C22.9493 38.0631 23.8304 37.9035 24.8738 37.6306C27.0693 37.0561 28.5304 36.185 29.38 34.9439C29.618 34.5962 29.9351 33.9822 29.9884 33.7655C30.0127 33.6672 30.0058 33.659 29.8987 33.659C29.8297 33.659 29.7111 33.7101 29.6063 33.7849Z" fill="white"/>
</svg>
