<svg width="31" height="22" viewBox="0 0 31 22" fill="none" xmlns="http://www.w3.org/2000/svg">
<path fill-rule="evenodd" clip-rule="evenodd" d="M22.0798 0.201234C19.5865 0.593966 17.8392 2.03496 17.1669 4.25332C16.9482 4.9743 16.9463 6.69039 17.1629 7.49999C17.5206 8.8359 18.2392 9.88381 19.3865 10.7429C20.2285 11.3734 20.8796 11.7214 22.6552 12.4898C25.594 13.7616 26.1431 14.1936 26.279 15.341C26.3841 16.228 25.7643 17.0989 24.7855 17.4397C24.1378 17.6651 22.6424 17.6717 21.9319 17.4523C21.0058 17.1663 20.2418 16.54 19.3157 15.3076L19.1375 15.0706L17.4455 16.0581C16.5149 16.6011 15.7386 17.0599 15.7204 17.0777C15.6572 17.1392 16.1826 17.967 16.6547 18.5499C17.7424 19.8929 19.3992 20.8603 21.3208 21.2743C21.8899 21.3969 22.439 21.4356 23.5458 21.431C25.3176 21.4238 26.1715 21.2472 27.4642 20.6204C28.1535 20.2861 28.4344 20.0848 28.9811 19.5324C30.107 18.3948 30.5825 17.1888 30.5796 15.4784C30.5748 12.6782 29.3253 10.9172 26.2619 9.3932C25.8701 9.19826 25.0085 8.80482 24.3473 8.51886C21.8046 7.4193 21.2372 6.91267 21.2323 5.73759C21.2276 4.60223 22.0305 3.90832 23.336 3.91945C24.3825 3.92836 25.1192 4.36793 25.7899 5.38387L26.0097 5.71675L26.8928 5.15446C27.3785 4.84517 28.1276 4.3649 28.5576 4.08723L29.3393 3.58238L29.2054 3.32341C28.9802 2.88784 28.1906 1.95552 27.7032 1.54961C27.0904 1.03924 26.1738 0.580786 25.3394 0.36741C24.5461 0.164544 22.8591 0.0785168 22.0798 0.201234ZM9.10072 8.14563L9.07436 15.9157L8.869 16.424C8.52186 17.2831 7.95592 17.6062 6.80346 17.6031C5.7259 17.6 5.08657 17.1618 4.31509 15.8972L4.03216 15.4334L2.3232 16.4673C1.38323 17.0358 0.601418 17.511 0.585923 17.5232C0.51548 17.5787 1.04776 18.4828 1.43479 18.9651C2.31278 20.0592 3.53889 20.8587 4.90775 21.23C5.86322 21.4891 7.96393 21.5106 8.94077 21.2712C11.1359 20.7334 12.5359 19.3658 13.1472 17.1624C13.3436 16.4545 13.345 16.3986 13.3727 8.4128L13.4006 0.375603H11.2639H9.12708L9.10072 8.14563Z" fill="white"/>
</svg>
