<svg width="30" height="30" viewBox="0 0 30 30" fill="none" xmlns="http://www.w3.org/2000/svg">
<path fill-rule="evenodd" clip-rule="evenodd" d="M0 7.78104V15.5622L0.391658 15.156C0.607134 14.9326 3.96742 11.4312 7.85916 7.37492L14.935 0H7.4675H0V7.78104ZM8.30772 8.71617L0 17.4138V23.6023V29.7908L14.8664 14.9247C23.043 6.74843 29.7329 0.0454738 29.7329 0.0292665C29.7329 0.0131758 26.7815 0.00419759 23.1742 0.00921137L16.6154 0.0184227L8.30772 8.71617ZM14.3278 16.8946C13.6621 17.5994 10.527 20.8026 7.3607 24.0129L1.60394 29.8495H15.7502H29.8965L22.8478 22.7661C18.9711 18.8701 15.7405 15.667 15.6687 15.6479C15.5968 15.6288 14.9934 16.1897 14.3278 16.8946Z" fill="white"/>
</svg>
