<svg width="37" height="41" viewBox="0 0 37 41" fill="none" xmlns="http://www.w3.org/2000/svg">
<path fill-rule="evenodd" clip-rule="evenodd" d="M17.799 0.294213C17.799 0.377831 17.6808 0.41294 17.531 0.373677C17.3836 0.335218 17.263 0.349154 17.263 0.404766C17.263 0.523895 16.1768 1.03096 16.0262 0.982052C15.9695 0.96356 15.923 1.00309 15.923 1.06982C15.923 1.21616 14.7313 1.9312 14.4875 1.9312C14.3925 1.9312 14.3149 1.97569 14.3149 2.03009C14.3149 2.15405 12.8316 3.00095 12.6123 3.00229C12.5234 3.00282 12.4791 3.04919 12.5138 3.10534C12.5773 3.20825 12.0558 3.43646 11.8694 3.38714C11.8142 3.37254 11.7689 3.41931 11.7689 3.49113C11.7689 3.67217 11.0229 4.04162 10.8933 3.92477C10.8354 3.8725 10.8375 3.91525 10.8984 4.01991C10.9813 4.16289 10.9516 4.18822 10.7789 4.12188C10.6521 4.07324 10.5829 4.08879 10.6249 4.15646C10.7001 4.27813 10.1961 4.51331 9.98341 4.45582C9.92257 4.43947 9.90837 4.48343 9.95178 4.55364C10.0271 4.67545 9.53396 4.91679 9.32331 4.86118C9.2681 4.84658 9.2228 4.89334 9.2228 4.96517C9.2228 5.14621 8.47681 5.51565 8.34723 5.3988C8.28934 5.34654 8.2825 5.37468 8.33222 5.46152C8.41664 5.60879 7.95366 5.86219 7.71527 5.79921C7.65992 5.7846 7.61476 5.83137 7.61476 5.90319C7.61476 6.0715 6.87131 6.45864 6.76076 6.34795C6.71453 6.30185 6.67674 6.32865 6.67674 6.40758C6.67674 6.57026 5.50542 7.29133 5.2413 7.29133C5.14629 7.29133 5.0687 7.34011 5.0687 7.39961C5.0687 7.56443 4.31332 7.91927 4.19312 7.81086C4.13523 7.7586 4.12679 7.78406 4.1745 7.86768C4.25959 8.01669 3.51064 8.41964 3.28324 8.34728C3.2224 8.32798 3.2082 8.36952 3.25162 8.43974C3.32693 8.56155 2.83379 8.80289 2.62314 8.74728C2.5678 8.73267 2.52264 8.77944 2.52264 8.85126C2.52264 8.9858 1.72023 9.46406 1.56398 9.42266C1.51574 9.40979 1.39513 9.50292 1.29597 9.62956C1.13115 9.83994 1.13865 9.84396 1.38361 9.67552C1.54683 9.56336 1.5207 9.61911 1.31661 9.81797C1.13235 9.99766 0.962035 10.2314 0.938049 10.3372C0.914062 10.4431 0.845184 10.5477 0.784749 10.5697C0.724447 10.5917 0.708233 10.7368 0.74897 10.8921C0.789573 11.0476 0.768133 11.1408 0.701265 11.0996C0.628903 11.0548 0.57959 14.7584 0.57959 20.245C0.57959 25.7317 0.628903 29.4353 0.701265 29.3905C0.768133 29.3492 0.788769 29.4454 0.747228 29.6044C0.705687 29.7633 0.716675 29.8933 0.771617 29.8933C0.885787 29.8933 1.2413 30.5788 1.20606 30.7308C1.19319 30.7861 1.25791 30.8163 1.35011 30.7978C1.44217 30.7794 1.50247 30.8397 1.48411 30.9318C1.46562 31.024 1.49577 31.0856 1.55111 31.069C1.71969 31.0181 3.04378 31.819 2.97503 31.9303C2.93966 31.9875 3.01416 31.9946 3.14066 31.9461C3.29892 31.8854 3.33979 31.9077 3.27172 32.0179C3.21731 32.1059 3.2224 32.1621 3.28324 32.1428C3.48277 32.0793 4.26307 32.4676 4.18602 32.5922C4.14461 32.6592 4.16043 32.6981 4.22126 32.6788C4.4208 32.6153 5.2011 33.0036 5.12404 33.1283C5.08264 33.1953 5.09845 33.2341 5.15929 33.2148C5.3544 33.1526 6.13992 33.5383 6.06502 33.6594C6.02535 33.7236 6.09624 33.7366 6.22274 33.6881C6.37778 33.6286 6.42146 33.6505 6.35674 33.7551C6.2959 33.8535 6.33061 33.8835 6.45148 33.8371C6.55641 33.7969 6.72592 33.8477 6.82817 33.95C6.93041 34.0522 7.08894 34.111 7.18046 34.0805C7.27198 34.0499 7.34676 34.0848 7.34676 34.1577C7.34676 34.2306 7.47674 34.2563 7.63567 34.2147C7.7946 34.1732 7.89081 34.1938 7.84927 34.2607C7.80719 34.3289 8.07801 34.3701 8.46488 34.3545C8.99621 34.3331 9.07848 34.3532 8.82079 34.4416C8.54743 34.5356 8.60907 34.5574 9.1558 34.5606C9.66743 34.5636 9.76244 34.5353 9.55781 34.4409C9.35788 34.3486 9.45155 34.3257 9.92605 34.3508C10.2759 34.3691 10.5793 34.3331 10.6001 34.2705C10.621 34.2079 10.802 34.1472 11.0024 34.1356C11.2027 34.1239 11.3667 34.0592 11.3667 33.9915C11.3669 33.924 11.4034 33.9053 11.4482 33.9501C11.493 33.9949 11.7795 33.7763 12.0847 33.4645C12.8725 32.6599 13.0684 32.3848 13.0001 32.1798C12.9669 32.0802 13.0021 32.0383 13.079 32.0858C13.166 32.1396 13.1896 32.0636 13.1423 31.8826C13.0959 31.7054 13.1192 31.6259 13.2024 31.6773C13.2866 31.7293 13.3127 31.6277 13.2712 31.4103C13.2342 31.2174 13.258 31.0929 13.324 31.1336C13.3941 31.1769 13.4439 27.4149 13.4439 22.0749V12.9419L12.2714 12.9849L11.0989 13.0279L11.0668 21.6281L11.0348 30.2283L10.9631 21.6521L10.8913 13.0759L10.8945 21.8738C10.8964 26.7127 10.8534 30.6442 10.7988 30.6106C10.7444 30.577 10.7334 30.6369 10.7746 30.7438C10.8714 30.9963 9.92981 31.9462 9.67828 31.8496C9.5751 31.8101 9.49081 31.8362 9.49081 31.9075C9.49081 31.9789 9.1893 32.0373 8.82079 32.0373C8.45229 32.0373 8.15078 31.9789 8.15078 31.9075C8.15078 31.8362 8.06033 31.8125 7.94977 31.8548C7.83922 31.8973 7.74877 31.8617 7.74877 31.7758C7.74877 31.6899 7.69396 31.6534 7.62682 31.6948C7.46897 31.7924 7.06173 31.6373 7.14066 31.5096C7.17376 31.4559 7.1282 31.4115 7.03935 31.411C6.79748 31.4095 5.33671 30.5563 5.33671 30.4166C5.33671 30.3498 5.29155 30.3072 5.23621 30.3218C4.99781 30.3848 4.53483 30.1314 4.61925 29.9841C4.66897 29.8973 4.66214 29.8692 4.60425 29.9214C4.47145 30.0412 3.72867 29.6667 3.72867 29.4799C3.72867 29.4038 3.6689 29.3784 3.59574 29.4236C3.5227 29.4688 3.31165 29.3544 3.12672 29.1695L2.79064 28.8334L2.82267 20.2176L2.8547 11.6018L2.92559 20.245L2.99661 28.8883L2.99406 20.1553L2.99165 11.4221L3.30508 11.143C3.47755 10.9894 3.67346 10.8978 3.74059 10.9392C3.80773 10.9807 3.86267 10.9523 3.86267 10.8762C3.86267 10.6894 4.60545 10.3148 4.73825 10.4346C4.79614 10.4869 4.80297 10.4588 4.75326 10.3719C4.66884 10.2247 5.13182 9.97127 5.37021 10.0342C5.42555 10.0489 5.47071 10.0062 5.47071 9.93951C5.47071 9.79974 6.93148 8.94654 7.17336 8.94507C7.2622 8.94453 7.29758 8.88356 7.25188 8.80959C7.2019 8.72865 7.26033 8.71029 7.39875 8.76349C7.52552 8.81214 7.59466 8.79659 7.55272 8.72892C7.47754 8.60724 7.98153 8.37207 8.1942 8.42956C8.25503 8.4459 8.27084 8.40463 8.22944 8.33763C8.15239 8.21301 8.93269 7.82467 9.13222 7.88818C9.19306 7.90748 9.20726 7.86594 9.16384 7.79572C9.08853 7.67391 9.58167 7.43257 9.79232 7.48818C9.84753 7.50279 9.89282 7.45884 9.89282 7.39049C9.89282 7.24349 11.3332 6.39807 11.5838 6.39807C11.6791 6.39807 11.7287 6.3521 11.694 6.29596C11.6304 6.19304 12.152 5.96483 12.3384 6.01415C12.3936 6.02875 12.4389 5.98199 12.4389 5.91016C12.4389 5.74185 13.1823 5.35472 13.2929 5.4654C13.3391 5.5115 13.3769 5.48055 13.3769 5.39639C13.3769 5.19927 14.1139 4.81549 14.2525 4.94051C14.3104 4.99277 14.3188 4.96731 14.2711 4.88369C14.186 4.73468 14.935 4.33173 15.1624 4.4041C15.2232 4.42339 15.2374 4.38185 15.194 4.31163C15.1187 4.18982 15.6118 3.94848 15.8225 4.0041C15.8777 4.0187 15.923 3.97194 15.923 3.90011C15.923 3.7318 16.6664 3.34467 16.777 3.45535C16.8232 3.50145 16.861 3.47492 16.861 3.39612C16.861 3.19217 17.791 2.66982 17.964 2.77676C18.0499 2.82982 18.0696 2.80316 18.0128 2.71137C17.9527 2.61395 18.017 2.55659 18.1864 2.55659C18.3345 2.55659 18.5171 2.66205 18.5923 2.7911C18.6675 2.92001 18.7307 2.97884 18.733 2.92162C18.7395 2.75599 19.5411 3.21696 19.5411 3.38634C19.5411 3.47049 19.5788 3.50145 19.6251 3.45535C19.7356 3.34467 20.4791 3.7318 20.4791 3.90011C20.4791 3.97194 20.5244 4.0187 20.5796 4.0041C20.818 3.94111 21.281 4.19451 21.1965 4.34178C21.1468 4.42862 21.1537 4.45676 21.2115 4.4045C21.3501 4.27947 22.0871 4.66326 22.0871 4.86038C22.0871 4.94453 22.1249 4.97549 22.1711 4.92939C22.2901 4.81026 23.0251 5.21227 23.0251 5.39639C23.0251 5.48055 23.0629 5.5115 23.1092 5.4654C23.2197 5.35472 23.9632 5.74185 23.9632 5.91016C23.9632 5.98199 24.0085 6.02875 24.0637 6.01415C24.2501 5.96483 24.7716 6.19304 24.7081 6.29596C24.6734 6.3521 24.723 6.39807 24.8182 6.39807C25.0688 6.39807 26.5092 7.24349 26.5092 7.39049C26.5092 7.45884 26.5545 7.50279 26.6097 7.48818C26.8204 7.43257 27.3135 7.67391 27.2382 7.79572C27.1948 7.86594 27.209 7.90748 27.2698 7.88818C27.4972 7.81582 28.2462 8.21877 28.1611 8.36778C28.1134 8.4514 28.1218 8.47686 28.1797 8.4246C28.3183 8.29957 29.0553 8.68336 29.0553 8.88048C29.0553 8.96463 29.0931 8.99559 29.1393 8.94949C29.2499 8.8388 29.9933 9.22594 29.9933 9.39425C29.9933 9.46607 30.0386 9.51284 30.0938 9.49823C30.3045 9.44262 30.7976 9.68396 30.7223 9.80577C30.6789 9.87599 30.6931 9.91753 30.7539 9.89823C30.9813 9.82587 31.7303 10.2288 31.6452 10.3778C31.5975 10.4614 31.6059 10.4869 31.6638 10.4346C31.7966 10.3148 32.5394 10.6894 32.5394 10.8762C32.5394 10.9523 32.5934 10.9812 32.6595 10.9404C32.7255 10.8996 32.9084 10.9715 33.0662 11.1L33.3526 11.3338L33.3792 20.111L33.4056 28.8883L33.4765 20.245L33.5474 11.6018L33.5794 20.2176L33.6114 28.8334L33.2753 29.1695C33.0904 29.3544 32.8793 29.4688 32.8063 29.4236C32.7332 29.3784 32.6734 29.4038 32.6734 29.4799C32.6734 29.6667 31.9306 30.0412 31.7978 29.9214C31.7399 29.8692 31.7331 29.8973 31.7828 29.9841C31.8672 30.1314 31.4042 30.3848 31.1658 30.3218C31.1106 30.3072 31.0653 30.3498 31.0653 30.4166C31.0653 30.5583 29.603 31.4095 29.3568 31.411C29.2646 31.4115 29.2196 31.4424 29.2567 31.4793C29.3516 31.5743 27.8105 32.4312 27.6846 32.3534C27.6278 32.3182 27.5813 32.3477 27.5813 32.4187C27.5813 32.5708 26.3968 33.288 26.1458 33.288C26.0508 33.288 25.9732 33.3368 25.9732 33.3963C25.9732 33.5611 25.2178 33.9159 25.0976 33.8075C25.0398 33.7553 25.0313 33.7807 25.079 33.8643C25.1641 34.0133 24.4152 34.4163 24.1878 34.3439C24.1269 34.3246 24.1127 34.3662 24.1561 34.4364C24.2314 34.5582 23.7383 34.7995 23.5277 34.7439C23.4725 34.7293 23.4272 34.7761 23.4272 34.8479C23.4272 35.029 22.6812 35.3984 22.5516 35.2816C22.4937 35.2293 22.4869 35.2574 22.5366 35.3443C22.621 35.4915 22.158 35.7449 21.9196 35.682C21.8643 35.6673 21.8191 35.712 21.8191 35.7811C21.8191 35.9246 20.4836 36.6779 20.3194 36.6269C20.2597 36.6085 20.2111 36.6521 20.2111 36.724C20.2111 36.8923 19.4676 37.2794 19.3571 37.1687C19.3108 37.1226 19.2731 37.1536 19.2731 37.2377C19.2731 37.4064 18.4702 37.8692 18.467 37.7025C18.4658 37.6452 18.4055 37.6889 18.333 37.7995C18.2156 37.9781 18.1864 37.9781 18.069 37.7995C17.9965 37.6889 17.9362 37.6471 17.935 37.7067C17.934 37.7662 17.6359 37.6479 17.2727 37.4437C16.9095 37.2396 16.6474 37.0157 16.6904 36.9463C16.7333 36.8769 16.711 36.8554 16.641 36.8988C16.4862 36.9944 15.2213 36.2769 15.3183 36.1484C15.3561 36.0983 15.3476 36.0868 15.2995 36.1226C15.2513 36.1583 14.8895 36.0032 14.4954 35.7778C14.1013 35.5522 13.7789 35.431 13.7789 35.5082C13.7789 35.7077 12.9971 36.0869 12.8162 35.9752C12.7173 35.914 12.7033 35.9431 12.7752 36.0594C12.8548 36.1884 12.8237 36.2135 12.6619 36.1514C12.5393 36.1043 12.4389 36.1184 12.4389 36.1826C12.4389 36.2466 12.2586 36.362 12.0382 36.4389C11.6479 36.575 11.5784 36.9471 11.9421 36.9538C12.1847 36.9583 13.1089 37.5388 13.1089 37.6866C13.1089 37.7574 13.1671 37.7794 13.2381 37.7356C13.309 37.6916 13.4899 37.7784 13.6401 37.9287C13.7902 38.0787 13.9582 38.2022 14.0134 38.2031C14.3064 38.2078 14.5756 38.3729 14.4972 38.4999C14.4479 38.5796 14.4649 38.6095 14.535 38.5661C14.7175 38.4533 15.9467 39.2007 15.8241 39.35C15.7679 39.4185 15.7749 39.4316 15.8395 39.3794C15.9795 39.2659 16.727 39.6275 16.727 39.8087C16.727 39.8783 16.8274 39.8966 16.95 39.8496C17.0911 39.7955 17.1403 39.817 17.0838 39.9083C17.0261 40.0017 17.0967 40.0258 17.2838 39.9769C17.4428 39.9354 17.5391 39.956 17.4978 40.0229C17.4558 40.0908 17.7966 40.1445 18.2696 40.1445C18.7356 40.1445 19.0911 40.1188 19.0597 40.0874C18.9973 40.0251 19.9073 39.6637 20.1776 39.6434C20.2698 39.6365 20.3451 39.5821 20.3451 39.5226C20.3451 39.3578 21.1005 39.003 21.2207 39.1114C21.2785 39.1636 21.2854 39.1355 21.2357 39.0487C21.1512 38.9014 21.6142 38.648 21.8526 38.711C21.9078 38.7256 21.9531 38.6816 21.9531 38.6133C21.9531 38.4663 23.3935 37.6208 23.6441 37.6208C23.7394 37.6208 23.789 37.5749 23.7543 37.5187C23.6907 37.4158 24.2123 37.1876 24.3987 37.2369C24.4539 37.2515 24.4992 37.2048 24.4992 37.1329C24.4992 36.9519 25.2452 36.5825 25.3748 36.6993C25.4326 36.7516 25.4395 36.7234 25.3898 36.6366C25.3053 36.4893 25.7683 36.2359 26.0067 36.2989C26.0619 36.3135 26.1072 36.2667 26.1072 36.1949C26.1072 36.0266 26.8507 35.6395 26.9612 35.7502C27.0075 35.7963 27.0452 35.7653 27.0452 35.6811C27.0452 35.484 27.7823 35.1002 27.9208 35.2253C27.9787 35.2775 27.9855 35.2494 27.9358 35.1626C27.8514 35.0153 28.3144 34.7619 28.5528 34.8249C28.608 34.8395 28.6533 34.7927 28.6533 34.7209C28.6533 34.5398 29.3993 34.1704 29.5289 34.2872C29.5868 34.3395 29.5936 34.3114 29.5439 34.2245C29.4594 34.0773 29.9224 33.8239 30.1608 33.8868C30.216 33.9015 30.2613 33.8547 30.2613 33.7829C30.2613 33.6145 31.0048 33.2274 31.1153 33.3381C31.1616 33.3842 31.1994 33.3532 31.1994 33.2691C31.1994 33.072 31.9364 32.6882 32.0749 32.8132C32.1328 32.8655 32.1397 32.8373 32.0899 32.7505C32.0055 32.6032 32.4685 32.3498 32.7069 32.4128C32.7621 32.4274 32.8074 32.3848 32.8074 32.3181C32.8074 32.1763 34.2698 31.3251 34.5159 31.3236C34.6081 31.3231 34.6603 31.2995 34.632 31.2711C34.5482 31.1875 35.2768 30.4786 35.3903 30.5333C35.4474 30.5607 35.4828 30.5335 35.4688 30.4727C35.4192 30.2567 35.6519 29.6282 35.7572 29.6933C35.8162 29.7298 35.8329 29.6389 35.7943 29.4914C35.7551 29.3415 35.7902 29.2233 35.8738 29.2233C36.0835 29.2233 36.0875 11.4562 35.8778 11.3266C35.7977 11.2771 35.7619 11.1226 35.7983 10.9835C35.8347 10.8443 35.8162 10.7603 35.7572 10.7967C35.6444 10.8664 35.4198 10.2236 35.4766 9.99378C35.4948 9.92008 35.4665 9.90292 35.4139 9.95572C35.3611 10.0085 35.2036 9.90654 35.0641 9.72912C34.9246 9.5517 34.6905 9.36852 34.5439 9.32202C34.389 9.27284 34.3155 9.1714 34.368 9.07961C34.4177 8.99277 34.4109 8.96463 34.353 9.01689C34.2234 9.13374 33.4774 8.7643 33.4774 8.58326C33.4774 8.51143 33.4321 8.46467 33.3769 8.47927C33.1385 8.54225 32.6755 8.28885 32.76 8.14158C32.8097 8.05475 32.8028 8.02661 32.7449 8.07887C32.6064 8.20389 31.8694 7.82011 31.8694 7.62299C31.8694 7.53884 31.8316 7.50788 31.7853 7.55398C31.6748 7.66467 30.9313 7.27753 30.9313 7.10922C30.9313 7.0374 30.886 6.9858 30.8308 6.99451C30.5648 7.03659 30.3877 6.96544 30.4614 6.84617C30.51 6.76751 30.4499 6.74956 30.3133 6.80195C30.1406 6.86828 30.1108 6.84296 30.1938 6.69998C30.2546 6.59532 30.2568 6.55257 30.1989 6.60483C30.0693 6.72168 29.3233 6.35224 29.3233 6.1712C29.3233 6.09937 29.278 6.05261 29.2228 6.06721C28.9844 6.13019 28.5214 5.87679 28.6058 5.72952C28.6556 5.64269 28.6487 5.61455 28.5908 5.66681C28.4523 5.79183 27.7153 5.40805 27.7153 5.21093C27.7153 5.12678 27.6775 5.09582 27.6312 5.14192C27.5294 5.2439 26.7772 4.8719 26.7772 4.71954C26.7772 4.66004 26.6997 4.61127 26.6046 4.61127C26.3537 4.61127 25.1692 3.89408 25.1692 3.74199C25.1692 3.67096 25.1227 3.64148 25.0659 3.67673C24.9279 3.76195 23.4076 2.89508 23.4938 2.78024C23.5309 2.73093 23.5234 2.71833 23.4771 2.75224C23.3525 2.84376 22.6231 2.438 22.6231 2.27719C22.6231 2.20108 22.5752 2.16838 22.5165 2.2047C22.3626 2.29971 21.1267 1.55157 21.2438 1.43445C21.2978 1.38058 21.2283 1.38004 21.0895 1.43324C20.8952 1.50788 20.8625 1.48631 20.9476 1.33984C21.0084 1.23518 21.0105 1.19244 20.9527 1.2447C20.8231 1.36155 20.0771 0.992102 20.0771 0.811064C20.0771 0.739238 20.0318 0.690461 19.9766 0.702521C19.7656 0.748618 19.144 0.512906 19.2071 0.410796C19.2436 0.351834 19.1527 0.335084 19.0052 0.373677C18.8552 0.41294 18.737 0.377831 18.737 0.294213C18.737 0.211801 18.526 0.144531 18.268 0.144531C18.0101 0.144531 17.799 0.211801 17.799 0.294213ZM20.444 12.5243C20.4842 12.5896 20.3277 12.615 20.0961 12.5811C19.8645 12.5471 19.6751 12.5762 19.6751 12.6457C19.6751 12.7153 19.5545 12.7406 19.4071 12.702C19.2597 12.6635 19.1391 12.693 19.1391 12.7678C19.1391 12.8424 19.0486 12.8688 18.938 12.8263C18.8275 12.784 18.737 12.8141 18.737 12.8933C18.737 12.9727 18.6435 13.0016 18.5291 12.9577C18.3967 12.9069 18.3547 12.9323 18.4137 13.0277C18.4693 13.1178 18.4325 13.153 18.3214 13.1159C18.2197 13.082 18.0556 13.1351 17.9569 13.2338C17.8582 13.3326 17.7127 13.3733 17.6335 13.3244C17.5534 13.2749 17.5281 13.2978 17.5766 13.3762C17.6666 13.5218 17.2977 13.746 17.062 13.6889C16.9883 13.6711 16.9671 13.6956 17.0148 13.7435C17.1319 13.8604 16.5583 14.4499 16.4047 14.3703C16.3381 14.3358 16.3252 14.3749 16.3762 14.4573C16.4271 14.5397 16.3573 14.7186 16.221 14.8549C16.0847 14.9912 15.9999 15.1827 16.0325 15.2805C16.0651 15.3784 16.0295 15.4197 15.9529 15.3724C15.8659 15.3187 15.8423 15.3946 15.8896 15.5757C15.9329 15.7414 15.9109 15.8314 15.8381 15.7863C15.7634 15.7401 15.734 15.9049 15.7667 16.1857C15.8054 16.5165 15.7762 16.6349 15.6717 16.5703C15.5693 16.507 15.521 16.6543 15.521 17.029C15.521 17.4063 15.5691 17.551 15.6729 17.4868C15.7782 17.4217 15.806 17.5222 15.7632 17.8139C15.7292 18.0455 15.7577 18.235 15.8265 18.235C15.8954 18.235 15.9169 18.3254 15.8745 18.436C15.8321 18.5465 15.8407 18.6374 15.8936 18.6378C16.0122 18.6389 16.5166 19.4696 16.4831 19.6085C16.4698 19.6639 16.5041 19.6958 16.5595 19.6797C16.6714 19.6468 17.8419 20.3927 17.9082 20.539C17.9314 20.5901 18.0369 20.5988 18.1427 20.5582C18.2485 20.5176 18.335 20.5492 18.335 20.6286C18.335 20.7077 18.4255 20.7379 18.536 20.6956C18.6466 20.6531 18.737 20.6795 18.737 20.7541C18.737 20.8289 18.867 20.856 19.026 20.8144C19.2031 20.768 19.2824 20.7914 19.2311 20.8746C19.1797 20.9578 19.2753 20.9858 19.4781 20.9471C19.6602 20.9122 19.8091 20.939 19.8091 21.0066C19.8091 21.074 20.0283 21.1036 20.2963 21.0724C20.5644 21.041 20.7503 21.0694 20.7097 21.1352C20.669 21.2011 20.8869 21.2352 21.1939 21.2111C21.6173 21.1778 21.7036 21.2017 21.5511 21.31C21.4046 21.4141 21.565 21.4287 22.1414 21.3641C22.7333 21.2976 22.9082 21.3152 22.8351 21.4334C22.763 21.5498 22.881 21.5685 23.2832 21.5041C23.6445 21.4464 23.8292 21.4667 23.8292 21.5646C23.8292 21.6573 23.979 21.6824 24.2312 21.632C24.4605 21.5861 24.6332 21.6084 24.6332 21.6837C24.6332 21.7565 24.7929 21.7854 24.9882 21.748C25.2058 21.7065 25.311 21.7321 25.2602 21.8143C25.2095 21.8964 25.3135 21.9224 25.5282 21.8813C25.7681 21.8354 25.8494 21.8623 25.7852 21.9662C25.7248 22.0639 25.7655 22.0896 25.8993 22.0383C26.014 21.9942 26.1072 22.0285 26.1072 22.1146C26.1072 22.2005 26.1679 22.2334 26.2422 22.1875C26.4176 22.0791 27.2061 22.6394 27.106 22.8013C27.0639 22.8694 27.0913 22.9251 27.1672 22.9251C27.2429 22.9251 27.2664 23.0255 27.2193 23.1481C27.1617 23.298 27.185 23.3393 27.2905 23.2742C27.3991 23.207 27.4473 23.326 27.4473 23.6621C27.4473 23.9982 27.3991 24.1172 27.2905 24.0501C27.1831 23.9837 27.1625 24.0281 27.2251 24.1913C27.4148 24.6859 26.2352 25.9169 25.8182 25.6592C25.7161 25.5961 25.7005 25.6233 25.7725 25.7396C25.8534 25.8705 25.8075 25.8961 25.5921 25.8398C25.4332 25.7983 25.3032 25.8237 25.3032 25.8964C25.3032 25.9746 25.1325 25.991 24.8844 25.9366C24.6541 25.8859 24.4978 25.8966 24.5372 25.9604C24.5766 26.0242 23.7702 26.0763 22.7449 26.0763C21.7198 26.0763 20.8811 26.0321 20.8811 25.9781C20.8811 25.9241 20.6908 25.9179 20.4583 25.9644C20.1756 26.021 20.0646 26.0018 20.1234 25.9065C20.1788 25.817 20.1119 25.7902 19.9432 25.8343C19.7958 25.8729 19.6751 25.839 19.6751 25.759C19.6751 25.679 19.5893 25.6464 19.4844 25.6868C19.3796 25.727 19.1735 25.6396 19.0266 25.4927C18.8796 25.3457 18.7286 25.2562 18.6911 25.2937C18.5745 25.4103 17.7864 24.2232 17.8574 24.038C17.8944 23.9418 17.8597 23.8631 17.7803 23.8631C17.6919 23.8631 17.6697 23.7287 17.7229 23.5169C17.7858 23.2665 17.7654 23.1981 17.6493 23.2699C17.5396 23.3377 17.51 23.2883 17.5559 23.1135C17.6189 22.8742 17.5484 22.8608 16.4381 22.9011L15.253 22.9441V23.5266C15.253 23.847 15.2126 24.2145 15.1632 24.3431C15.0971 24.5155 15.1203 24.5481 15.2513 24.4672C15.3847 24.3847 15.4103 24.4294 15.3536 24.6462C15.312 24.8052 15.3391 24.9352 15.4139 24.9352C15.4885 24.9352 15.5137 25.0287 15.4698 25.1431C15.419 25.2755 15.4444 25.3175 15.5399 25.2585C15.6272 25.2045 15.6658 25.2376 15.6325 25.3376C15.5755 25.5084 15.8033 25.8375 16.4761 26.5567C16.6699 26.7638 16.7905 26.9711 16.7441 27.0173C16.6979 27.0637 16.7203 27.086 16.794 27.067C17.0037 27.0129 17.6647 27.3733 17.5869 27.4993C17.5484 27.5613 17.6205 27.5725 17.747 27.524C17.9021 27.4645 17.9458 27.4863 17.881 27.591C17.8198 27.69 17.8554 27.7192 17.9793 27.6716C18.0862 27.6306 18.2533 27.6825 18.3508 27.7869C18.4484 27.8913 18.6448 27.9462 18.7876 27.9088C18.9423 27.8684 19.0131 27.8957 18.9631 27.9768C18.9111 28.0609 19.0127 28.087 19.23 28.0455C19.4367 28.006 19.548 28.0314 19.501 28.1075C19.4537 28.1843 19.5894 28.2121 19.8352 28.176C20.0865 28.139 20.2171 28.167 20.1677 28.2472C20.1166 28.3297 20.3471 28.3579 20.7851 28.3225C21.1701 28.2914 21.4146 28.3154 21.3293 28.3761C21.2441 28.4367 21.8564 28.4862 22.6899 28.4862C23.5499 28.4862 24.1733 28.4342 24.1312 28.366C24.0893 28.2981 24.3269 28.2763 24.6777 28.3158C25.0817 28.3613 25.2689 28.338 25.2138 28.2491C25.161 28.1637 25.2625 28.1378 25.4842 28.1802C25.6795 28.2176 25.8392 28.1892 25.8392 28.1171C25.8392 28.045 25.9598 28.0175 26.1072 28.0561C26.2546 28.0945 26.3752 28.0651 26.3752 27.9903C26.3752 27.9157 26.4657 27.8893 26.5762 27.9317C26.6868 27.9741 26.7772 27.9439 26.7772 27.8647C26.7772 27.7854 26.8708 27.7565 26.9852 27.8004C27.1211 27.8525 27.16 27.8263 27.0972 27.725C27.0325 27.6203 27.0762 27.5985 27.2312 27.658C27.3862 27.7173 27.4298 27.6955 27.3652 27.591C27.3005 27.4863 27.3442 27.4645 27.4993 27.524C27.626 27.5726 27.6952 27.5571 27.6532 27.4894C27.6115 27.4217 27.687 27.3317 27.821 27.2892C27.9549 27.2467 28.2723 27.0068 28.5263 26.7563C28.7803 26.5057 29.0349 26.3296 29.092 26.3648C29.1492 26.4002 29.1847 26.3794 29.1712 26.3186C29.1309 26.1392 29.6745 25.063 29.7615 25.15C29.8053 25.1938 29.8056 25.0937 29.7622 24.9275C29.7185 24.7607 29.7376 24.6591 29.8046 24.7006C29.9594 24.7966 29.9673 22.3521 29.8127 22.2391C29.7502 22.1934 29.6899 22.0033 29.6787 21.8165C29.6676 21.6297 29.613 21.5047 29.5578 21.5388C29.4631 21.5974 29.4024 21.3833 29.4447 21.1396C29.4553 21.0788 29.413 21.0607 29.3505 21.0992C29.2054 21.189 28.7795 20.6994 28.8988 20.5802C28.948 20.531 28.928 20.5057 28.8543 20.5239C28.6647 20.5707 27.3021 19.8988 27.3962 19.8047C27.4388 19.7621 27.3378 19.7628 27.1716 19.8062C26.9761 19.8574 26.9005 19.8349 26.9575 19.7427C27.013 19.6529 26.9464 19.6259 26.7774 19.6702C26.63 19.7088 26.5092 19.6813 26.5092 19.6092C26.5092 19.5371 26.3495 19.5087 26.1543 19.5461C25.9449 19.586 25.8321 19.5609 25.8793 19.4847C25.9266 19.4079 25.7908 19.3802 25.5451 19.4162C25.2716 19.4564 25.1613 19.4282 25.2201 19.333C25.2807 19.2352 25.151 19.2145 24.8164 19.2688C24.4855 19.3226 24.3524 19.3021 24.4114 19.2066C24.4705 19.111 24.3173 19.0889 23.9427 19.1391C23.5357 19.1938 23.4123 19.1714 23.4836 19.0563C23.5554 18.94 23.4324 18.9224 23.0144 18.9893C22.5965 19.056 22.4736 19.0385 22.5454 18.9223C22.6174 18.806 22.4945 18.7884 22.0764 18.8553C21.6812 18.9184 21.5374 18.9015 21.6006 18.7994C21.6629 18.6985 21.5376 18.6777 21.1983 18.7328C20.8928 18.7824 20.7361 18.7631 20.7862 18.6822C20.8347 18.6036 20.7018 18.5758 20.453 18.6122C20.1872 18.6512 20.0698 18.6231 20.1252 18.5335C20.1785 18.4474 20.1088 18.4208 19.9432 18.4641C19.7958 18.5027 19.6751 18.4688 19.6751 18.3888C19.6751 18.3088 19.5846 18.2781 19.4741 18.3205C19.3635 18.363 19.2731 18.3273 19.2731 18.2414C19.2731 18.1555 19.2199 18.118 19.1549 18.1582C18.9701 18.2724 18.3102 17.6889 18.3897 17.4819C18.4287 17.3802 18.4022 17.297 18.3309 17.297C18.2595 17.297 18.201 17.0823 18.201 16.82C18.201 16.5398 18.2557 16.3769 18.3336 16.425C18.4066 16.4702 18.4334 16.4221 18.3933 16.3177C18.3074 16.0937 18.9745 15.2522 19.1512 15.3614C19.2182 15.4028 19.2731 15.3693 19.2731 15.2869C19.2731 15.2045 19.3334 15.1743 19.4071 15.2199C19.4808 15.2655 19.5411 15.2324 19.5411 15.1465C19.5411 15.0603 19.6343 15.026 19.749 15.0701C19.8838 15.1218 19.9236 15.0958 19.8621 14.9963C19.7975 14.8917 19.8596 14.8668 20.0563 14.9183C20.2415 14.9668 20.3137 14.9427 20.2573 14.8513C20.197 14.7537 20.3764 14.7362 20.8267 14.7959C21.2751 14.8554 21.4202 14.8415 21.2831 14.7521C21.1445 14.6617 21.4568 14.6233 22.2881 14.6284C23.1128 14.6334 23.4093 14.6736 23.2262 14.7556C23.0514 14.8337 23.2099 14.8468 23.6819 14.7932C24.1522 14.7398 24.3766 14.7581 24.3224 14.8456C24.2714 14.9283 24.3747 14.9543 24.5902 14.9132C24.83 14.8672 24.9114 14.8941 24.8472 14.998C24.7868 15.0957 24.8275 15.1214 24.9612 15.0701C25.0759 15.026 25.1692 15.0603 25.1692 15.1465C25.1692 15.2324 25.2322 15.2637 25.3092 15.2162C25.492 15.1032 26.693 16.3041 26.58 16.4869C26.5324 16.564 26.5638 16.6269 26.6497 16.6269C26.7358 16.6269 26.7701 16.7202 26.726 16.8349C26.6743 16.9697 26.7003 17.0095 26.7999 16.948C26.9019 16.8849 26.9307 16.9402 26.8856 17.1124C26.8483 17.2552 26.8965 17.4454 26.9929 17.5355C27.2347 17.7614 29.1795 17.7579 29.2493 17.5315C29.4356 16.9267 29.458 16.6107 29.3078 16.7036C29.1901 16.7762 29.1703 16.6883 29.2334 16.3731C29.2944 16.0682 29.2749 15.971 29.1661 16.0383C29.0623 16.1025 29.0373 16.0399 29.0887 15.8437C29.1303 15.6846 29.1096 15.5883 29.0428 15.6297C28.9273 15.701 28.8985 15.6389 28.8677 15.2534C28.8603 15.1613 28.7466 14.9782 28.615 14.8466C28.4832 14.7148 28.4172 14.5397 28.4681 14.4573C28.5197 14.3739 28.5007 14.3446 28.4255 14.3911C28.2554 14.4962 27.6764 13.8964 27.8146 13.7582C27.8704 13.7023 27.856 13.6726 27.7823 13.6923C27.5874 13.7441 26.3774 13.1139 26.4491 12.9979C26.4823 12.944 26.3795 12.9338 26.2205 12.9755C26.0351 13.0239 25.963 12.9999 26.0195 12.9085C26.0759 12.8171 26.0038 12.793 25.8184 12.8415C25.6154 12.8945 25.5589 12.8692 25.6284 12.7565C25.7008 12.6395 25.6286 12.6209 25.3615 12.688C25.1128 12.7505 25.0241 12.7332 25.0852 12.6343C25.1468 12.5346 25.0201 12.5138 24.6824 12.5687C24.4008 12.6143 24.2217 12.5967 24.2645 12.5272C24.3081 12.4568 23.5069 12.4058 22.3551 12.4058C21.2393 12.4058 20.4027 12.4577 20.444 12.5243ZM11.7389 12.8391C12.054 12.8675 12.5364 12.8671 12.8109 12.8383C13.0853 12.8095 12.8275 12.7863 12.2379 12.7868C11.6483 12.7872 11.4237 12.8108 11.7389 12.8391ZM14.9955 23.2712C15.002 23.4273 15.0337 23.4591 15.0765 23.3523C15.1152 23.2556 15.1104 23.1399 15.0659 23.0954C15.0214 23.0509 14.9898 23.13 14.9955 23.2712ZM30.0244 23.4611C30.0244 23.7191 30.052 23.8247 30.0856 23.6956C30.1194 23.5666 30.1194 23.3557 30.0856 23.2266C30.052 23.0976 30.0244 23.2032 30.0244 23.4611Z" fill="white"/>
</svg>
