<svg width="30" height="54" viewBox="0 0 40 64" fill="none" xmlns="http://www.w3.org/2000/svg">
<path fill-rule="evenodd" clip-rule="evenodd" d="M0.80571 0.463161C0.366624 0.719013 0.313708 1.27491 0.317367 5.59146C0.319901 8.25412 0.441212 10.6215 0.587011 10.8523C0.776156 11.1512 1.50262 11.3013 3.11598 11.3747L3.86932 11.4089C4.71423 11.4473 5.37952 12.1434 5.37952 12.9892C5.37952 14.3003 5.28382 14.5634 4.65953 14.9727C4.26379 15.2319 3.69382 15.9266 3.39294 16.516C2.86632 17.5487 2.84633 18.3506 2.84633 38.5769C2.84633 55.569 2.91867 59.7397 3.22659 60.4766C3.79937 61.847 5.42934 63.139 6.84539 63.345C7.50993 63.4415 14.2057 63.4818 21.7253 63.4342L34.0408 63.3566C34.9261 63.3511 35.7906 63.0878 36.5287 62.5991C37.151 62.1873 37.9014 61.3641 38.1967 60.7696C38.7101 59.7358 38.7331 58.7777 38.7331 38.5792C38.7331 15.3802 38.815 16.5199 37.05 15.1314C36.4426 14.6538 36.3407 14.347 36.3407 12.9957V12.6216C36.3407 11.9568 36.8797 11.4178 37.5445 11.4178C38.2068 11.4178 39.0301 11.2205 39.374 10.9795C39.9786 10.5562 39.9997 10.3809 39.9997 5.7927C39.9997 1.85078 39.9246 0.968672 39.5576 0.60136C39.1641 0.207872 37.0283 0.160023 20.2068 0.167622C7.88794 0.173252 1.12658 0.276268 0.80571 0.463161ZM6.50538 5.78848V7.05507C6.50538 8.06549 5.68627 8.8846 4.67586 8.8846C3.66544 8.8846 2.84633 8.06549 2.84633 7.05507V5.78848V4.52189C2.84633 3.51147 3.66544 2.69236 4.67586 2.69236C5.68627 2.69236 6.50538 3.51147 6.50538 4.52189V5.78848ZM12.6976 5.78848V7.05507C12.6976 8.06549 11.8785 8.8846 10.8681 8.8846C9.85767 8.8846 9.03857 8.06549 9.03857 7.05507V5.78848V4.52189C9.03857 3.51147 9.85767 2.69236 10.8681 2.69236C11.8785 2.69236 12.6976 3.51147 12.6976 4.52189V5.78848ZM18.8898 5.78848V7.05507C18.8898 8.06549 18.0707 8.8846 17.0603 8.8846C16.0499 8.8846 15.2308 8.06549 15.2308 7.05507V5.78848V4.52189C15.2308 3.51147 16.0499 2.69236 17.0603 2.69236C18.0707 2.69236 18.8898 3.51147 18.8898 4.52189V5.78848ZM25.0821 5.78848V7.05507C25.0821 8.06549 24.263 8.8846 23.2526 8.8846C22.2421 8.8846 21.423 8.06549 21.423 7.05507V5.78848V4.52189C21.423 3.51147 22.2421 2.69236 23.2526 2.69236C24.263 2.69236 25.0821 3.51147 25.0821 4.52189V5.78848ZM31.2743 5.78848V7.05507C31.2743 8.06549 30.4552 8.8846 29.4448 8.8846C28.4344 8.8846 27.6153 8.06549 27.6153 7.05507V5.78848V4.52189C27.6153 3.51147 28.4344 2.69236 29.4448 2.69236C30.4552 2.69236 31.2743 3.51147 31.2743 4.52189V5.78848ZM37.4665 5.78848V7.05507C37.4665 8.06549 36.6474 8.8846 35.637 8.8846C34.6266 8.8846 33.8075 8.06549 33.8075 7.05507V5.78848V4.52189C33.8075 3.51147 34.6266 2.69236 35.637 2.69236C36.6474 2.69236 37.4665 3.51147 37.4665 4.52189V5.78848ZM33.8075 12.6872C33.8075 13.3871 33.238 13.9534 32.5381 13.9495L20.7897 13.8834L8.9713 13.817C8.29437 13.8132 7.73433 13.2892 7.68556 12.614C7.63873 11.9678 8.15035 11.4178 8.79824 11.4178H20.7033H32.5381C33.2392 11.4178 33.8075 11.9861 33.8075 12.6872ZM34.8005 16.539C36.3807 17.2587 36.3407 16.6817 36.3407 38.8252V58.0922C36.3407 58.823 36.0826 59.5304 35.612 60.0896C35.15 60.6387 34.469 60.9556 33.7514 60.9556H20.8508H7.86003C7.18795 60.9556 6.53815 60.7147 6.02858 60.2765C5.52718 59.8451 5.23879 59.2166 5.23879 58.5552V38.7213V19.078C5.23879 18.2937 5.57316 17.5466 6.15805 17.024C6.75007 16.4951 7.51615 16.2027 8.31004 16.2027H20.5699C30.4313 16.2027 34.2612 16.2933 34.8005 16.539ZM15.5686 27.7991C15.3518 28.0158 15.2308 29.125 15.2308 30.8952V31.1018C15.2308 32.5111 14.0883 33.6535 12.679 33.6535C8.79679 33.6535 9.03857 33.2457 9.03857 39.7993C9.03857 43.7508 9.13651 45.4604 9.37632 45.7002C9.59305 45.917 10.7023 46.038 12.4724 46.038C13.9958 46.038 15.2308 47.273 15.2308 48.7964C15.2308 50.5665 15.3518 51.6757 15.5686 51.8925C16.0456 52.3696 26.8004 52.3696 27.2775 51.8925C27.4942 51.6757 27.6153 50.5665 27.6153 48.7964C27.6153 47.273 28.8502 46.038 30.3736 46.038C32.1438 46.038 33.253 45.917 33.4697 45.7002C33.709 45.461 33.8075 43.7846 33.8075 39.9502C33.8075 35.4054 33.7366 34.4672 33.3653 34.0957C33.0256 33.7563 32.3064 33.6535 30.2692 33.6535C28.8035 33.6535 27.6153 32.4653 27.6153 30.9996C27.6153 28.9624 27.5125 28.2432 27.1731 27.9035C26.8016 27.5322 25.8634 27.4613 21.3186 27.4613C17.4842 27.4613 15.8078 27.5598 15.5686 27.7991ZM25.0821 32.6484C25.0821 36.1256 25.1432 36.1867 28.6204 36.1867C30.0861 36.1867 31.2743 37.3749 31.2743 38.8407V39.9865V41.0279C31.2743 42.5513 30.0394 43.7863 28.516 43.7863C26.7458 43.7863 25.6366 43.9073 25.4198 44.124C25.2031 44.3408 25.0821 45.45 25.0821 47.2201C25.0821 48.7435 23.8471 49.9785 22.3237 49.9785H21.423H20.3841C18.9371 49.9785 17.764 48.8054 17.764 47.3583C17.764 45.7002 17.6348 44.5659 17.4122 44.269C17.1327 43.8963 16.4822 43.784 14.2457 43.7227C12.6696 43.6795 11.4049 42.4068 11.3717 40.8305L11.3525 39.9161L11.3331 38.9929C11.3006 37.4527 12.5402 36.1867 14.0807 36.1867C17.6303 36.1867 17.764 36.0516 17.764 32.4649C17.764 31.1005 18.87 29.9945 20.2344 29.9945H21.423H22.4281C23.8939 29.9945 25.0821 31.1827 25.0821 32.6484Z" fill="white"/>
</svg>
