<svg width="43" height="22" viewBox="0 0 43 22" fill="none" xmlns="http://www.w3.org/2000/svg">
<path fill-rule="evenodd" clip-rule="evenodd" d="M18.6651 0.824773C18.6283 0.92951 15.3471 17.2296 15.3471 17.3081C15.3471 17.3407 16.0531 17.3665 16.9411 17.3665H18.5351L19.4808 12.6334C20.0008 10.0301 20.4467 7.8877 20.4715 7.87232C20.4963 7.85701 21.2865 7.86687 22.2275 7.89433C23.8728 7.9423 23.9505 7.95045 24.2566 8.10801C24.4484 8.20671 24.6279 8.3621 24.708 8.49897C24.964 8.93579 24.9016 9.42327 24.0636 13.5338C23.6423 15.5999 23.2977 17.308 23.2977 17.3295C23.2977 17.3512 24.0291 17.361 24.9232 17.3512L26.5486 17.3337L27.361 13.3584L28.1735 9.38313L28.1824 8.39752C28.1904 7.50062 28.1772 7.37676 28.0348 7.02155C27.7325 6.2671 26.9495 5.7101 25.768 5.40896C25.1009 5.23898 23.8573 5.14534 22.2628 5.14515C21.5672 5.14508 20.9979 5.12734 20.9979 5.10579C20.9979 5.08424 21.1901 4.133 21.425 2.99206C21.6599 1.85105 21.8521 0.878193 21.8521 0.830095C21.8521 0.70604 18.7088 0.700783 18.6651 0.824773ZM3.95056 5.22065C3.93393 5.2694 3.19282 8.96096 2.30361 13.4241C1.4144 17.8873 0.671576 21.5912 0.652981 21.6551C0.621179 21.7643 0.716914 21.7702 2.24736 21.7537L3.87552 21.7361L4.30827 19.5677L4.74102 17.3994L6.90652 17.3582C8.88529 17.3206 9.13873 17.3027 9.84449 17.1507C11.1236 16.8752 11.8614 16.4506 12.8517 15.4197C13.5346 14.7089 13.9597 14.0796 14.3384 13.2192C15.0298 11.6484 15.2731 9.56934 14.9183 8.2661C14.4797 6.6551 13.3345 5.66095 11.4704 5.27321C11.238 5.22485 9.837 5.18621 7.54487 5.16499C4.59028 5.13759 3.97553 5.14712 3.95056 5.22065ZM31.5464 5.22065C31.518 5.30147 28.2257 21.6819 28.2257 21.7426C28.2257 21.7706 31.4433 21.7804 31.4483 21.7525C31.4499 21.7435 31.6495 20.7603 31.8918 19.5677L32.3324 17.3994L34.5008 17.3582C36.4733 17.3207 36.7373 17.3023 37.4247 17.1535C38.708 16.8757 39.4639 16.4458 40.4189 15.4503C41.895 13.9115 42.6484 11.9723 42.6484 9.71166C42.6484 8.62999 42.5785 8.2912 42.1869 7.47762C41.6127 6.28464 40.6462 5.60161 39.0674 5.27321C38.835 5.22485 37.434 5.18621 35.1419 5.16499C32.1876 5.13759 31.5723 5.14712 31.5464 5.22065ZM10.2345 8.02726C10.926 8.18811 11.1515 8.2985 11.3603 8.57815C11.6811 9.00761 11.7819 9.65075 11.6676 10.5385C11.4979 11.8561 11.0947 12.9983 10.5637 13.665C10.2176 14.0995 9.69198 14.3606 8.80927 14.5365C7.72622 14.7522 5.42115 14.891 5.33146 14.7458C5.30268 14.6992 6.47667 8.68111 6.64678 8.00341L6.69212 7.82258L8.17783 7.85852C9.33986 7.88658 9.78785 7.92331 10.2345 8.02726ZM37.0698 7.90366C37.8121 8.00019 38.4526 8.16511 38.6867 8.31998C38.817 8.40619 38.9809 8.61889 39.0984 8.85418C39.2803 9.21827 39.2931 9.29278 39.2856 9.93835C39.2731 11.0085 38.9268 12.3922 38.4683 13.2033C38.0282 13.9823 37.5205 14.31 36.4063 14.5348C35.3228 14.7533 33.0186 14.8916 32.9271 14.7436C32.8991 14.6983 34.03 8.87101 34.2385 7.98685C34.2729 7.84032 34.2835 7.83901 35.4383 7.84105C36.0791 7.84216 36.8133 7.87035 37.0698 7.90366Z" fill="white"/>
</svg>
