<svg width="32" height="31" viewBox="0 0 32 31" fill="none" xmlns="http://www.w3.org/2000/svg">
<path fill-rule="evenodd" clip-rule="evenodd" d="M13.4382 0.877911C11.8384 0.928197 10.2877 1.17651 9.41362 1.52239C8.32922 1.95152 7.82972 2.56656 7.67705 3.66073C7.63907 3.93293 7.6315 4.2531 7.63145 5.5876L7.63142 6.99815H10.8865H14.1417V7.4172V7.83625H9.59497C6.57949 7.83625 4.98049 7.8415 4.84699 7.85185C3.81665 7.9317 2.9328 8.3279 2.25553 9.01353C2.05042 9.22116 1.92543 9.3724 1.78126 9.58735C1.43622 10.1018 1.24202 10.5705 1.06813 11.3084C0.526236 13.6078 0.511644 15.1141 1.00959 17.3514C1.19297 18.1753 1.34747 18.6467 1.59168 19.1277C2.16681 20.2603 3.00749 20.8974 4.11891 21.0431C4.26616 21.0624 4.5044 21.0662 5.55131 21.0662H6.80708L6.81229 19.3863C6.81694 17.8861 6.82022 17.6906 6.84301 17.5593C6.96808 16.8385 7.21146 16.2637 7.62301 15.7171C8.27007 14.8577 9.17733 14.293 10.228 14.0958L10.4376 14.0565L14.0668 14.0472C17.9775 14.0373 17.7204 14.0425 18.0933 13.965C18.7554 13.8274 19.4316 13.4152 19.8752 12.8789C20.3071 12.3568 20.5561 11.7703 20.6369 11.0843C20.6465 11.0034 20.6519 9.75189 20.6519 7.63223C20.6519 4.6786 20.6492 4.28637 20.6281 4.12231C20.4923 3.06991 19.7909 2.12928 18.7326 1.58042C18.1556 1.28116 17.7172 1.1614 16.7383 1.03561C15.6372 0.89412 14.5602 0.842651 13.4382 0.877911ZM10.7994 2.90612C11.2243 3.02925 11.5336 3.34719 11.6604 3.7911C11.7034 3.94153 11.7067 4.24087 11.6672 4.40155C11.608 4.64248 11.4276 4.92817 11.2416 5.07587C10.5941 5.58979 9.65735 5.34768 9.33993 4.58443C9.23937 4.34264 9.22041 4.01641 9.29235 3.76607C9.42802 3.29397 9.82325 2.94306 10.3034 2.86832C10.4367 2.84758 10.6547 2.86419 10.7994 2.90612Z" fill="white"/>
<path fill-rule="evenodd" clip-rule="evenodd" d="M16.8042 30.8551C18.6143 30.7982 20.3687 30.5172 21.3576 30.1259C22.5845 29.6404 23.1496 28.9445 23.3224 27.7066C23.3653 27.3987 23.3739 27.0364 23.3739 25.5266L23.374 23.9307H19.6912H16.0084V23.4566V22.9825H21.1525C24.5641 22.9825 26.3732 22.9766 26.5242 22.9649C27.6899 22.8745 28.6899 22.4263 29.4562 21.6506C29.6882 21.4156 29.8297 21.2445 29.9928 21.0013C30.3831 20.4193 30.6028 19.889 30.7996 19.0542C31.4127 16.4526 31.4292 14.7484 30.8658 12.2173C30.6583 11.2851 30.4835 10.7517 30.2072 10.2076C29.5565 8.92616 28.6054 8.20528 27.348 8.0405C27.1814 8.01867 26.9118 8.01432 25.7274 8.01432H24.3066L24.3007 9.91498C24.2955 11.6122 24.2918 11.8334 24.266 11.982C24.1245 12.7975 23.8491 13.4478 23.3835 14.0663C22.6514 15.0386 21.625 15.6774 20.4362 15.9006L20.1992 15.9451L16.0931 15.9555C11.6686 15.9668 11.9595 15.9609 11.5376 16.0485C10.7885 16.2042 10.0235 16.6705 9.52152 17.2773C9.0329 17.868 8.75125 18.5316 8.65977 19.3077C8.64898 19.3992 8.64285 20.8152 8.64285 23.2133C8.64285 26.555 8.64586 26.9988 8.66981 27.1844C8.82336 28.3751 9.61693 29.4393 10.8143 30.0603C11.4671 30.3988 11.9631 30.5343 13.0707 30.6766C14.3163 30.8367 15.5349 30.8949 16.8042 30.8551ZM19.7898 28.5604C19.3091 28.4211 18.9591 28.0614 18.8156 27.5591C18.767 27.3889 18.7632 27.0503 18.8079 26.8685C18.875 26.5959 19.079 26.2727 19.2895 26.1056C20.022 25.5241 21.0819 25.798 21.441 26.6616C21.5548 26.9351 21.5762 27.3042 21.4948 27.5874C21.3413 28.1216 20.8942 28.5186 20.3509 28.6031C20.2001 28.6266 19.9535 28.6078 19.7898 28.5604Z" fill="white"/>
</svg>
