<svg width="41" height="37" viewBox="0 0 41 37" fill="none" xmlns="http://www.w3.org/2000/svg">
<path fill-rule="evenodd" clip-rule="evenodd" d="M10.6521 1.16659C9.02955 1.98623 8.30988 3.80679 8.34237 7.01027C8.35339 8.10774 8.48243 9.63299 8.62876 10.3994C8.86954 11.6607 8.86574 11.8025 8.58866 11.8903C4.88215 13.0643 1.59411 15.2268 0.866073 16.9692C0.180605 18.6098 0.731906 20.3054 2.44814 21.8352C3.51369 22.7848 6.05507 24.1588 7.9526 24.8112C8.53602 25.0117 8.91781 25.2471 8.8684 25.376C8.58524 26.1137 8.34256 28.9983 8.41763 30.7312C8.52006 33.0932 8.97976 34.4111 10.0202 35.3247C10.8317 36.0373 11.3193 36.1578 12.924 36.043C14.8761 35.9033 16.7193 34.9193 20.0031 32.2633L20.5119 31.8519L21.5234 32.7033C25.4363 35.9951 28.999 36.9668 30.9326 35.2692C32.6224 33.7853 32.9713 31.2164 32.2036 25.9092L32.0922 25.139L33.68 24.5193C38.8762 22.4908 41.1833 19.7451 40.0235 16.9694C39.357 15.3742 36.4361 13.3275 33.1257 12.1362C32.2262 11.8125 31.9554 11.6322 32.0223 11.4017C32.5618 9.54196 32.6716 5.63097 32.2308 3.97441C31.8889 2.68956 31.1093 1.56016 30.2317 1.07822C28.3454 0.0423232 24.5473 1.41326 21.3058 4.29975L20.4566 5.05592L18.9963 3.86723C15.6075 1.10882 12.6568 0.153876 10.6521 1.16659ZM14.2685 2.88891C15.4327 3.36856 17.3658 4.62871 18.4758 5.63154L19.2036 6.28907L18.1014 7.55226C17.4952 8.24723 16.7312 9.16435 16.4038 9.59061C15.8158 10.3563 15.7843 10.3698 13.7558 10.7135C10.3632 11.2888 10.5324 11.2854 10.4077 10.7814C10.1135 9.59365 9.88719 6.79287 10.0029 5.77502C10.353 2.69735 11.6587 1.81386 14.2685 2.88891ZM29.8509 2.98944C30.1479 3.28647 30.4932 3.90656 30.6183 4.36722C30.917 5.46906 30.9178 8.08589 30.6196 9.83196C30.3876 11.1907 30.3676 11.2261 29.8788 11.143C29.6025 11.0961 28.4119 10.9045 27.2331 10.7172L25.0895 10.3766L24.4899 9.59612C24.1602 9.16683 23.378 8.2288 22.7518 7.5114L21.6131 6.20717L22.0742 5.83621C24.9734 3.50273 26.9371 2.44935 28.3882 2.44935C29.1485 2.44935 29.4058 2.54437 29.8509 2.98944ZM21.569 8.75292C22.1526 9.39791 22.6302 9.99653 22.6302 10.0832C22.6302 10.17 21.5977 10.2409 20.3359 10.2409H18.0417L18.388 9.80307C19.2044 8.77098 20.2644 7.59236 20.3813 7.58666C20.4509 7.58324 20.9854 8.10812 21.569 8.75292ZM25.1646 13.5769C25.7438 14.471 26.5864 15.9248 27.037 16.8075L27.8563 18.4126L26.9581 20.1704C26.4642 21.1373 25.6419 22.5776 25.1309 23.3712L24.2016 24.8144L23.008 24.9391C21.4944 25.0974 19.0351 25.0968 17.7113 24.9377L16.6883 24.815L15.7588 23.3716C15.2476 22.5778 14.4253 21.1334 13.9314 20.1619L13.0333 18.3955L13.9481 16.6644C14.4512 15.7121 15.2932 14.2623 15.8192 13.4423L16.7757 11.9513H20.4436H24.1116L25.1646 13.5769ZM14.225 12.7589C14.0726 12.994 13.5355 13.9037 13.0314 14.7804L12.1148 16.374L11.5875 14.9704C10.8412 12.9841 10.845 12.9684 12.1306 12.704C12.7315 12.5805 13.3088 12.4528 13.4134 12.4203C13.5179 12.388 13.8056 12.3545 14.0528 12.3464C14.4749 12.3323 14.4854 12.3574 14.225 12.7589ZM28.4064 12.6155C29.1271 12.7682 29.7559 12.9322 29.8038 12.9803C29.9245 13.101 28.9011 16.1321 28.7398 16.1321C28.6679 16.1321 28.335 15.6403 27.9998 15.0394C27.6647 14.4385 27.1699 13.5833 26.9 13.139C26.3221 12.1875 26.3464 12.1791 28.4064 12.6155ZM9.80244 14.9134C10.0516 15.6542 10.4683 16.7421 10.7287 17.3313L11.2024 18.4021L10.57 19.9751C10.2222 20.8403 9.82695 21.9205 9.69164 22.3756C9.55634 22.8308 9.3357 23.2452 9.20135 23.2967C8.87657 23.4214 6.64685 22.5531 5.31677 21.784C3.24592 20.5864 2.29611 19.5068 2.29611 18.3502C2.29611 17.6661 2.41261 17.4662 3.32707 16.5804C4.32515 15.6137 5.63528 14.8364 7.80722 13.9227C8.38209 13.6808 8.96437 13.5018 9.1012 13.5248C9.23802 13.5478 9.55349 14.1726 9.80244 14.9134ZM32.8579 13.856C34.7092 14.5595 36.411 15.5162 37.4114 16.4156C38.4735 17.3706 38.8323 18.1805 38.555 18.9977C38.3255 19.6744 37.0074 20.9186 35.6714 21.7192C34.362 22.5041 32.0348 23.4298 31.6971 23.3002C31.5675 23.2506 31.2593 22.5795 31.0119 21.8089C30.7644 21.0383 30.3642 19.9591 30.1223 19.4103L29.6825 18.4126L30.1196 17.4149C30.36 16.866 30.7517 15.8185 30.9898 15.0869C31.4763 13.5924 31.5307 13.4716 31.7158 13.4718C31.788 13.4718 32.3018 13.6447 32.8579 13.856ZM19.216 16.0742C17.9539 16.7313 17.4023 18.7014 18.1577 19.8542C19.1977 21.4418 21.6918 21.4418 22.7319 19.8542C23.4035 18.8293 22.9905 16.8816 21.9584 16.2053C21.2346 15.7311 19.9894 15.6715 19.216 16.0742ZM12.3681 20.8453C12.3681 20.9291 12.833 21.7842 13.4012 22.7456L14.4341 24.4938L13.9238 24.4908C13.3373 24.4873 11.2648 24.0238 11.1002 23.8593C10.9524 23.7114 12.0113 20.693 12.211 20.693C12.2975 20.693 12.3681 20.7616 12.3681 20.8453ZM29.3806 22.2253C29.6613 23.0681 29.8433 23.8055 29.785 23.8636C29.6238 24.0248 27.5442 24.4875 26.9657 24.4908L26.4555 24.4938L27.4884 22.7456C28.0566 21.7842 28.5214 20.9291 28.5214 20.8453C28.5214 20.7616 28.5999 20.693 28.6959 20.693C28.7918 20.693 29.0999 21.3827 29.3806 22.2253ZM13.2957 26.1152C14.1718 26.2686 15.0785 26.3942 15.3105 26.3942C15.6028 26.3942 16.018 26.7596 16.6598 27.5819C17.1697 28.2353 17.9596 29.1716 18.4154 29.6628C18.8709 30.1541 19.1913 30.641 19.127 30.7449C18.9062 31.102 15.9325 33.2527 15.0201 33.715C12.8252 34.8273 11.3186 34.7207 10.6477 33.4058C9.95143 32.0412 9.84349 29.1857 10.3798 26.3279C10.5111 25.6287 10.5434 25.6017 11.1101 25.7163C11.4362 25.7823 12.4196 25.9617 13.2957 26.1152ZM30.4864 26.0616C31.0065 28.1634 31.0415 31.0826 30.5664 32.72C30.2148 33.9311 29.6538 34.3758 28.4777 34.3758C26.9258 34.3758 25.0268 33.3699 22.0601 30.9768L21.585 30.5937L22.4628 29.6817C22.9455 29.18 23.7341 28.2596 24.2151 27.6361L25.0897 26.5025L27.4232 26.096C30.4758 25.5641 30.3636 25.5654 30.4864 26.0616ZM22.63 26.8109C22.6302 26.8833 22.1485 27.5105 21.5599 28.2043C20.6787 29.2429 20.4467 29.4213 20.2473 29.2128C19.6669 28.606 18.2593 26.8818 18.2593 26.7777C18.2593 26.7148 19.2428 26.6671 20.4446 26.6713C21.6466 26.6756 22.63 26.7385 22.63 26.8109Z" fill="white"/>
</svg>
