<svg width="35" height="32" viewBox="0 0 35 32" fill="none" xmlns="http://www.w3.org/2000/svg">
<path fill-rule="evenodd" clip-rule="evenodd" d="M21.6394 0.155352C22.2144 0.967749 23.1296 2.52669 23.6019 3.49823C24.2753 4.88332 24.66 5.89733 24.9973 7.17517C25.4736 8.97943 25.5396 9.52304 25.5395 11.6371C25.5395 13.3447 25.5169 13.6819 25.353 14.4331C25.1187 15.5066 24.7426 16.6968 24.6253 16.7359C24.5131 16.7733 21.9895 15.0989 20.3083 13.8717C16.3768 11.0019 12.2845 7.54658 8.90375 4.24204C8.11333 3.46939 7.50552 2.91157 7.55319 3.00246C7.74142 3.36148 11.3433 8.73493 12.6487 10.6042C14.0838 12.6592 14.4782 13.27 14.4127 13.3355C14.3627 13.3855 13.7897 12.9499 12.6132 11.9674C10.2184 9.96741 7.2378 7.60525 4.88754 5.84461C2.99627 4.42779 3.09121 4.46853 3.66985 5.32298C4.22453 6.14207 4.17347 6.07564 5.82991 8.13373C7.50213 10.2115 7.9641 10.7703 9.13609 12.1328C12.3398 15.8574 16.0943 19.5654 18.9862 21.8612L19.885 22.5746L19.327 22.8889C18.1286 23.5639 16.3197 24.1575 14.6789 24.4141C13.5139 24.5963 11.2283 24.5971 9.96915 24.4157C6.50985 23.9176 3.12442 22.523 0.058433 20.3332C-0.255636 20.109 0.754655 21.5627 1.6957 22.689C6.50481 28.4458 13.8819 31.7707 20.4279 31.1318C22.3841 30.9408 24.0001 30.4841 25.7959 29.6144C27.5426 28.7686 28.6726 28.4618 30.0477 28.4603C30.9858 28.4594 31.5718 28.59 32.3164 28.966C32.8556 29.2383 33.9887 30.3806 34.3325 30.9983C34.4796 31.2626 34.6447 31.4643 34.6994 31.4464C35.0864 31.3196 35.1037 28.8647 34.7283 27.3707C34.3449 25.8457 33.7224 24.4844 32.7244 22.9887L32.1115 22.0702L32.3141 21.1296C32.8462 18.6593 32.7938 16.3065 32.1503 13.7682C31.5206 11.284 30.1044 8.41178 28.4111 6.18471C26.5688 3.76165 24.1026 1.52557 21.6197 0.0271138C21.5245 -0.0303125 21.5291 -0.000566326 21.6394 0.155352Z" fill="white"/>
</svg>
