<svg width="45" height="45" viewBox="0 0 45 45" fill="none" xmlns="http://www.w3.org/2000/svg">
<path fill-rule="evenodd" clip-rule="evenodd" d="M23.3203 0.798572C22.5651 1.086 21.5903 1.54177 21.1542 1.81135C20.3237 2.32452 18.2817 4.3772 17.874 5.10865C17.6415 5.52578 17.614 5.52578 16.5327 5.10865C14.8443 4.45742 12.3776 4.52769 10.7862 5.27225C8.45012 6.36502 7.00868 8.07016 6.47834 10.3678L6.2126 11.5189L4.83263 11.9007C3.68269 12.2189 3.24363 12.4968 2.19786 13.5693C0.721624 15.0832 0.298842 16.2481 0.444138 18.4016C0.557799 20.0848 1.03368 21.1656 2.16826 22.3162C3.43344 23.5992 4.68711 24.0722 7.1246 24.1856L9.21479 24.283V27.4194V30.5561H7.97785C6.83921 30.5561 6.71357 30.5034 6.39948 29.896C5.24095 27.656 1.89371 27.6492 0.737668 29.8847C0.266529 30.7956 0.316241 32.3333 0.845002 33.2001C2.04398 35.1669 5.33698 35.0785 6.38502 33.0516C6.73594 32.3733 6.76509 32.3638 8.5265 32.3638C11.0777 32.3638 11.0225 32.4616 11.0225 27.9414V24.229H13.0562H15.0899V31.234V38.2389L13.2257 38.2337L11.3615 38.2287L11.0072 37.5095C10.5155 36.5116 8.91177 35.6787 7.85899 35.8739C5.56385 36.2997 4.2711 38.5855 5.25225 40.483C5.88405 41.7048 6.85909 42.3063 8.20743 42.3063C9.24349 42.3063 9.54244 42.2033 10.2129 41.6144C10.6463 41.2341 11.0634 40.7257 11.14 40.4846C11.2663 40.0866 11.5034 40.0466 13.7332 40.0466C15.663 40.0466 16.2634 39.9707 16.5426 39.6916C16.8511 39.383 16.8976 38.3485 16.8976 31.7828V24.229H19.1573H21.417V30.9856V37.7422L20.6401 38.2007C17.8523 39.8455 19.0656 44.1124 22.3208 44.1124C25.5761 44.1124 26.7893 39.8455 24.0016 38.2007L23.2247 37.7422V30.9856V24.229H25.3714H27.5181V31.7828C27.5181 38.3485 27.5646 39.383 27.873 39.6916C28.1523 39.9707 28.7527 40.0466 30.6825 40.0466C32.9123 40.0466 33.1494 40.0866 33.2757 40.4846C33.3523 40.7257 33.7694 41.2341 34.2028 41.6144C34.8732 42.2033 35.1722 42.3063 36.2083 42.3063C37.5566 42.3063 38.5316 41.7048 39.1634 40.483C40.2241 38.4317 38.5979 35.904 36.2178 35.904C35.031 35.904 33.7737 36.6422 33.3923 37.563C33.113 38.2375 33.1085 38.2389 31.2192 38.2389H29.3258V31.234V24.229H31.3595H33.3932V27.9414C33.3932 32.486 33.3211 32.3638 36.0022 32.3638C37.8894 32.3638 37.903 32.3679 38.2566 33.0516C39.3404 35.1477 42.8169 35.1373 43.904 33.0351C44.7909 31.32 44.1408 29.4355 42.3563 28.5477C41.3709 28.0573 41.1854 28.0334 40.3265 28.2867C39.2721 28.5976 38.4164 29.2805 38.1202 30.0476C37.9466 30.4969 37.7652 30.5561 36.5623 30.5561H35.2009V27.4233V24.2907L37.2911 24.1782C39.7035 24.0485 40.9931 23.5516 42.3258 22.2382C44.04 20.5487 44.7229 17.8407 44.0201 15.5182C43.3461 13.2907 41.0213 11.2875 38.7567 10.9829C37.5885 10.8256 37.6117 10.8611 37.3507 8.83777C37.2766 8.26427 36.866 7.06439 36.4378 6.17114C35.3853 3.97475 33.7023 2.31684 31.4227 1.23107C29.7666 0.441997 29.5206 0.390025 27.1791 0.334889C25.0385 0.284273 24.503 0.348674 23.3203 0.798572ZM30.0909 2.5541C33.4361 3.82946 35.5801 6.87096 35.7814 10.6274C35.83 11.5372 35.9287 12.3769 36.0006 12.4932C36.0727 12.6096 36.7366 12.7047 37.4764 12.7047C41.8721 12.7047 44.1962 17.5006 41.3372 20.6718C39.6782 22.5119 40.7838 22.4113 22.2078 22.4113C6.73481 22.4113 5.65627 22.3858 4.80642 21.9998C3.27527 21.3041 1.98636 19.4315 1.98636 17.902C1.98636 15.6491 4.29844 13.4003 6.62748 13.3876C7.80905 13.3813 8.08496 13.0771 8.08496 11.7814C8.08496 9.60854 10.0167 7.17986 12.2183 6.58489C13.5398 6.22786 15.3615 6.46422 16.5937 7.15297C18.07 7.97797 18.3343 7.91425 19.106 6.54693C21.2755 2.70234 25.9874 0.989965 30.0909 2.5541ZM4.59265 30.4329C5.25451 31.0945 5.29586 31.6784 4.73072 32.3764C3.89148 33.4127 1.98387 32.7515 1.98387 31.4247C1.98387 30.8442 2.97202 29.8782 3.56563 29.8782C3.8255 29.8782 4.2876 30.1278 4.59265 30.4329ZM42.103 30.4329C42.7649 31.0945 42.8062 31.6784 42.2411 32.3764C41.4019 33.4127 39.4943 32.7515 39.4943 31.4247C39.4943 30.8442 40.4824 29.8782 41.076 29.8782C41.3359 29.8782 41.798 30.1278 42.103 30.4329ZM8.83426 37.8209C9.48324 38.1623 9.65904 38.4515 9.66333 39.1828C9.66672 39.7897 8.77822 40.7245 8.19794 40.7245C8.04496 40.7245 7.65201 40.5137 7.32458 40.2561C6.52444 39.627 6.52444 38.6585 7.32458 38.0294C8.01242 37.4882 8.16292 37.4675 8.83426 37.8209ZM36.8541 37.8209C37.503 38.1623 37.6788 38.4515 37.6831 39.1828C37.6865 39.7897 36.798 40.7245 36.2178 40.7245C35.6375 40.7245 34.749 39.7897 34.7524 39.1828C34.7564 38.4701 34.9261 38.179 35.5398 37.831C36.1149 37.505 36.2519 37.5038 36.8541 37.8209ZM23.3478 39.9235C23.6529 40.2285 23.9026 40.6906 23.9026 40.9505C23.9026 41.5441 22.9366 42.5323 22.3561 42.5323C21.7442 42.5323 21.0111 41.8548 20.8401 41.1313C20.7287 40.6601 20.827 40.3901 21.2721 39.945C21.9968 39.2203 22.6383 39.2137 23.3478 39.9235Z" fill="white"/>
</svg>
