<svg width="58" height="65" viewBox="0 0 58 65" fill="none" xmlns="http://www.w3.org/2000/svg">
<path d="M54.6458 27.3559L54.6457 27.3558L29.5059 2.19028C29.5058 2.19017 29.5057 2.19007 29.5056 2.18996C28.3401 1.02667 26.4523 1.03969 25.3017 2.18768C24.1442 3.34993 24.145 5.23771 25.302 6.39728L50.4459 31.5614L50.4459 31.5614C51.6039 32.7204 53.4876 32.7205 54.6458 31.5614L54.6458 27.3559ZM54.6458 27.3559C55.8082 28.5191 55.8082 30.3979 54.6458 31.5614L54.6458 27.3559Z" stroke="#FF725E" stroke-width="1.61292"/>
<path d="M23.3605 12.083L44.7696 33.5092C38.391 34.8886 32.427 38.0362 27.4513 42.1471L14.8172 29.5018C18.925 24.5093 21.9892 18.4627 23.3605 12.083Z" stroke="#FF725E" stroke-width="1.61292"/>
<path d="M2.43766 49.1838C0.535027 47.2795 0.542516 44.2005 2.43766 42.3037L11.2155 33.5199L23.4286 45.7437L14.6507 54.5294C14.6507 54.5294 14.6507 54.5294 14.6506 54.5294C12.7484 56.4332 9.67328 56.4258 7.77855 54.5294L2.43766 49.1838ZM9.30988 47.6511C10.3625 48.7047 12.0687 48.7047 13.1213 47.6511L15.7918 44.9784C16.844 43.9252 16.844 42.2187 15.7918 41.1656C14.7391 40.112 13.033 40.112 11.9803 41.1656L9.30988 43.8384C8.25763 44.8915 8.25763 46.598 9.30988 47.6511Z" stroke="#FF725E" stroke-width="1.61292"/>
<path d="M31.885 55.536L31.3064 56.1151L31.8941 56.685L33.905 58.635C35.0597 59.7955 35.0583 61.6798 33.9008 62.8383L33.9008 62.8383C32.7402 64 30.851 63.9924 29.7035 62.8409L29.7036 62.8408L29.6937 62.8313L21.713 55.0912L25.9141 50.8864L29.1813 54.0548L29.7517 54.6079L30.3133 54.0458L32.9247 51.4321L32.9262 51.4306C33.9793 50.371 33.9759 48.669 32.9242 47.6207C32.9238 47.6204 32.9235 47.6201 32.9232 47.6197L31.2738 45.9664C31.8449 45.508 32.4258 45.0688 33.0203 44.6505L34.4539 46.0865L34.4546 46.0871C36.3506 47.9816 36.3571 51.0603 34.454 52.9647L34.454 52.9648L31.885 55.536Z" stroke="#FF725E" stroke-width="1.61292"/>
<path d="M40.0833 -0.00390625C39.0394 -0.00390625 38.1948 0.841493 38.1948 1.88624V5.66653C38.1948 6.71128 39.0394 7.55668 40.0833 7.55668C41.1271 7.55668 41.9717 6.71128 41.9717 5.66653V1.88624C41.9717 0.841493 41.1271 -0.00390625 40.0833 -0.00390625Z" fill="#FF725E"/>
<path d="M55.192 15.1173H51.415C50.3711 15.1173 49.5265 15.9627 49.5265 17.0075C49.5265 18.0522 50.3711 18.8976 51.415 18.8976H55.192C56.2358 18.8976 57.0804 18.0522 57.0804 17.0075C57.0804 15.9627 56.2358 15.1173 55.192 15.1173Z" fill="#FF725E"/>
<path d="M52.7497 4.32716C52.012 3.58886 50.8169 3.58886 50.0792 4.32716L46.3023 8.10745C45.5646 8.84574 45.5646 10.0419 46.3023 10.7802C47.0399 11.5185 48.2351 11.5187 48.9727 10.7802L52.7497 6.99995C53.4873 6.26166 53.4873 5.06545 52.7497 4.32716Z" fill="#FF725E"/>
</svg>
