<svg width="60" height="59" viewBox="0 0 60 59" fill="none" xmlns="http://www.w3.org/2000/svg">
<path fill-rule="evenodd" clip-rule="evenodd" d="M27.4723 0.0538864C21.4882 0.623611 16.0952 2.77261 11.5092 6.41477C10.2951 7.37891 7.82271 9.8396 6.88005 11.022C3.38978 15.3996 1.25526 20.5352 0.564267 26.2179C0.383026 27.708 0.357681 31.0848 0.517223 32.4821C1.09127 37.5097 2.62124 41.7807 5.30259 45.8408C9.48688 52.1766 16.0724 56.7096 23.5148 58.3765C25.8417 58.8977 26.8569 58.9973 29.8734 58.9999C32.874 59.0026 33.6512 58.9345 35.9621 58.467C41.0834 57.4308 46.1934 54.7948 50.0407 51.2046C55.0498 46.5302 58.1777 40.5923 59.2243 33.7704C59.4672 32.1875 59.5621 28.509 59.4039 26.8181C58.8297 20.686 56.3804 14.9087 52.3875 10.2689C48.423 5.66201 43.0378 2.32408 37.2102 0.861381C36.1897 0.605307 34.789 0.341236 33.6085 0.182456C32.385 0.0179008 28.6683 -0.060023 27.4723 0.0538864ZM31.6075 1.47287C37.5901 1.85707 42.9461 3.92316 47.5729 7.63143C52.6748 11.7204 56.2306 17.5547 57.5215 23.9546C57.9961 26.3072 58.1838 29.4691 57.9857 31.7712C57.4982 37.4353 55.4395 42.6321 51.9314 47.0539C50.98 48.2534 48.68 50.551 47.4817 51.4992C40.7752 56.8062 32.1228 58.7997 23.8261 56.9492C12.7048 54.4689 4.11786 45.4293 2.22968 34.2147C1.9186 32.3673 1.83331 31.0188 1.88533 28.7676C1.9571 25.6608 2.32065 23.5503 3.28137 20.6646C5.67112 13.486 10.7984 7.61349 17.5565 4.31474C19.913 3.16445 21.8738 2.49059 24.2707 2.00723C26.9583 1.46522 29.0809 1.31062 31.6075 1.47287ZM41.2268 10.6254C40.1592 11.0035 39.8133 11.3351 38.4011 13.3343C37.8834 14.0673 35.3528 17.6579 32.7775 21.3134C30.2023 24.969 27.8951 28.2071 27.6504 28.5093C27.4056 28.8115 27.2055 29.1441 27.2055 29.2485C27.2055 29.4358 27.6314 29.8814 28.281 30.3739C28.8081 30.7734 28.9751 30.7151 29.6546 29.8945C29.9833 29.4975 31.6777 27.6279 33.4199 25.7396C42.8835 15.4831 43.436 14.8673 43.7503 14.2257C44.2783 13.148 44.3046 12.2734 43.8338 11.4498C43.3304 10.5691 42.3033 10.2442 41.2268 10.6254ZM41.5456 11.1273C41.4845 11.1521 41.3844 11.1521 41.3232 11.1273C41.2621 11.1027 41.3121 11.0826 41.4344 11.0826C41.5567 11.0826 41.6067 11.1027 41.5456 11.1273ZM42.1458 11.1021C42.1458 11.1205 42.0758 11.1905 41.9902 11.2576C41.8492 11.3681 41.8461 11.3649 41.9566 11.224C42.0728 11.076 42.1458 11.029 42.1458 11.1021ZM41.0342 11.2462C40.7897 11.3512 40.6493 11.3512 40.8119 11.2462C40.8853 11.1989 41.0053 11.1623 41.0787 11.165C41.1666 11.1682 41.1515 11.1959 41.0342 11.2462ZM40.2594 11.7127C40.0497 11.9205 39.8584 12.0773 39.8342 12.0613C39.7856 12.0291 40.5076 11.3351 40.5895 11.3351C40.6177 11.3351 40.4692 11.505 40.2594 11.7127ZM41.4586 11.6536C41.2517 11.8268 40.9784 12.0959 40.8511 12.2516C40.7238 12.4073 40.6618 12.4493 40.7133 12.3452C40.8084 12.1528 41.6729 11.3337 41.7775 11.3369C41.8089 11.3378 41.6653 11.4804 41.4586 11.6536ZM40.1004 12.4457C40.2153 12.5679 40.2893 12.6679 40.2649 12.6679C40.2404 12.6679 40.1264 12.5679 40.0115 12.4457C39.8966 12.3236 39.8226 12.2236 39.8471 12.2236C39.8715 12.2236 39.9855 12.3236 40.1004 12.4457ZM40.5896 12.6679C40.5593 12.7167 40.4869 12.7561 40.4287 12.7554C40.365 12.7545 40.376 12.7196 40.4562 12.6679C40.627 12.5575 40.6578 12.5575 40.5896 12.6679ZM10.9418 16.5021C10.4753 16.6361 10.2659 16.8109 10.0107 17.2795L9.77501 17.7121L9.77537 29.6952L9.77564 41.6783L9.9623 41.9893C10.2993 42.551 10.5767 42.7768 11.0557 42.8794C11.3779 42.9484 16.9271 42.9687 30.2291 42.9494C48.0039 42.9236 48.9637 42.9143 49.2399 42.7636C49.3998 42.6763 49.6499 42.4404 49.7957 42.2393L50.0607 41.8738V29.7125V17.5512L49.8499 17.2198C49.3504 16.4345 49.1955 16.4008 46.0813 16.4002L43.5693 16.3997L43.1981 16.7329C42.994 16.9162 42.5122 17.4259 42.1276 17.8658L41.4283 18.6654L44.5662 18.7099L47.704 18.7543L47.7266 28.4615L47.7493 38.1686H29.9623H12.1753L12.198 28.4615L12.2206 18.7543L22.5519 18.7099L32.8833 18.6654L33.646 17.585C34.0656 16.9908 34.4089 16.481 34.4089 16.4521C34.4089 16.3596 11.2662 16.4089 10.9418 16.5021ZM24.9377 30.2112C24.3395 30.4317 23.9951 30.8944 23.5729 32.0447C22.9642 33.7035 22.5249 34.0761 21.0892 34.1514C20.6354 34.1752 20.2457 34.2246 20.2231 34.2611C20.1451 34.3874 21.0294 34.5432 22.095 34.5909C24.6774 34.7063 27.5813 34.0504 28.308 33.1874C28.6605 32.7689 28.69 32.3876 28.4134 31.8229C27.8251 30.6215 26.0534 29.7999 24.9377 30.2112ZM25.7826 44.7C25.7826 44.7247 25.7212 45.1533 25.6461 45.6525C25.4779 46.7716 25.2676 47.158 24.4859 47.7839C24.147 48.0552 23.92 48.3022 23.9355 48.3828C23.959 48.5049 24.6212 48.52 29.9339 48.52C33.2185 48.52 35.9302 48.4957 35.9599 48.4661C36.0624 48.3636 35.901 48.1629 35.3561 47.7146C34.5527 47.0539 34.3777 46.6666 34.1839 45.1214L34.1254 44.6549H29.954C27.6597 44.6549 25.7826 44.6752 25.7826 44.7Z" fill="#FF725E"/>
</svg>
