<svg width="54" height="53" viewBox="0 0 54 53" fill="none" xmlns="http://www.w3.org/2000/svg">
<path fill-rule="evenodd" clip-rule="evenodd" d="M24.6342 1.27941C22.7778 2.16375 21.7036 3.89633 21.7036 6.00544C21.7036 7.96802 22.734 9.76483 24.3411 10.6042C24.9249 10.9092 24.9859 11.0623 24.9859 12.2244V13.5078H17.9728H10.9599L9.47399 14.2766C7.38482 15.3576 6.29064 16.9596 5.94108 19.4499L5.68928 21.2446H3.97499C2.39292 21.2446 2.19692 21.3007 1.43473 21.9698C0.226141 23.0309 0.0903948 23.7926 0.175969 29.0237C0.245131 33.2517 0.291787 33.6918 0.734896 34.2842C1.67152 35.5376 2.32118 35.8457 4.08213 35.8726L5.71812 35.8977L5.87848 37.1872C6.11668 39.1031 6.84582 40.582 8.11512 41.7231C9.16827 42.67 11.0586 43.5173 12.1181 43.5173C12.6475 43.5173 12.6466 43.4941 12.3026 48.2084C11.8884 53.8858 12.0255 53.8809 18.8658 47.9719L24.0223 43.5173H32.9018C43.0225 43.5173 43.4051 43.465 45.2653 41.8276C46.5779 40.6721 47.4208 39.0185 47.6306 37.1872L47.7783 35.8977L49.3557 35.875C51.296 35.8468 52.2439 35.3475 52.8903 34.0118C53.3031 33.1589 53.3542 32.5582 53.3542 28.5482C53.3542 23.5568 53.226 22.9425 51.9614 21.8784C51.2929 21.3159 51.0151 21.2446 49.4907 21.2446H47.7734L47.606 19.8014C47.3066 17.222 46.1916 15.4343 44.1926 14.3284L42.9212 13.625L35.7705 13.5078L28.6198 13.3906L28.5607 12.2183C28.5021 11.0606 28.5143 11.0384 29.5412 10.4201C30.113 10.0759 30.8783 9.34517 31.2417 8.79609C31.8215 7.91995 31.9021 7.57883 31.9021 6.00544C31.9021 4.44096 31.8198 4.08835 31.2553 3.23566C30.2446 1.70822 28.9715 0.990336 27.1219 0.904527C25.968 0.851073 25.3324 0.946728 24.6342 1.27941ZM42.7993 16.1454C43.3672 16.4354 44.1544 17.0782 44.5488 17.5736L45.2657 18.4742L45.3318 28.073C45.3942 37.099 45.3712 37.7321 44.9495 38.6856C44.4032 39.9206 43.2649 40.8303 41.8615 41.1538C41.2409 41.2969 37.1831 41.3981 31.9429 41.4017L23.0746 41.4073L18.8562 45.0642C16.5361 47.0756 14.5981 48.6815 14.5496 48.633C14.5011 48.5845 14.5726 47.0953 14.7085 45.3238C14.9934 41.6098 14.9266 41.408 13.4106 41.4059C11.1958 41.4031 9.39874 40.4439 8.5723 38.8241C8.12919 37.9557 8.10551 37.432 8.10551 28.5372C8.10551 22.4853 8.1939 18.9313 8.35497 18.5051C8.70945 17.5668 9.71008 16.5676 10.8017 16.0624C11.6832 15.6542 12.6398 15.6279 26.7531 15.623L41.7668 15.6179L42.7993 16.1454ZM16.2304 21.5759C13.8793 22.442 12.8559 24.9288 13.9602 27.093C15.1713 29.4672 18.0377 30.0632 20.0601 28.3614C21.0492 27.5291 21.4691 26.6264 21.4691 25.3325C21.4691 22.5501 18.7941 20.6318 16.2304 21.5759ZM34.7155 21.5032C33.1545 21.9832 32.0215 23.5795 32.0203 25.3006C32.017 29.58 37.7765 30.8805 39.611 27.0144C40.5871 24.9574 39.7011 22.6903 37.5289 21.6878C36.5072 21.2163 35.7998 21.1699 34.7155 21.5032ZM20.7658 33.1458C20.3885 33.2635 19.828 33.8786 19.828 34.175C19.828 34.5789 20.9819 35.4176 22.6414 36.2199C24.3078 37.0254 24.524 37.07 26.7771 37.07C29.1333 37.07 29.1727 37.0606 31.2133 36.0149C33.4281 34.88 33.932 34.3879 33.5308 33.7518C33.1016 33.0712 32.3694 32.9617 31.516 33.4501C29.3377 34.6964 28.7746 34.9126 27.4183 35.0214C25.4789 35.177 24.6065 34.9838 23.069 34.058C21.5078 33.1179 21.2204 33.0042 20.7658 33.1458Z" fill="white"/>
</svg>
