<svg width="63" height="62" viewBox="0 0 63 62" fill="none" xmlns="http://www.w3.org/2000/svg">
<path fill-rule="evenodd" clip-rule="evenodd" d="M32.6461 0.67711C31.5769 1.08405 30.1968 1.72932 29.5793 2.11098C28.4036 2.83752 25.5125 5.74366 24.9354 6.77923C24.6062 7.3698 24.5672 7.3698 23.0364 6.77923C20.6459 5.85723 17.1537 5.95672 14.9005 7.01085C11.5932 8.55798 9.55244 10.9721 8.80159 14.225L8.42537 15.8547L6.47163 16.3953C4.84356 16.8458 4.22196 17.2393 2.74138 18.7576C0.651351 20.9011 0.0527849 22.5502 0.258492 25.5991C0.419411 27.9821 1.09316 29.5123 2.69947 31.1413C4.49069 32.9578 6.2656 33.6274 9.71656 33.788L12.6758 33.9259V38.3664V42.8071H10.9246C9.3125 42.8071 9.13463 42.7326 8.68994 41.8727C7.04972 38.7013 2.31077 38.6917 0.674066 41.8567C0.00703654 43.1463 0.0774181 45.3233 0.826027 46.5505C2.52351 49.3351 7.18568 49.21 8.66947 46.3403C9.1663 45.3799 9.20757 45.3665 11.7013 45.3665C15.3132 45.3665 15.2351 45.505 15.2351 39.1054V33.8494H18.1144H20.9937V43.7669V53.6844L18.3544 53.677L15.715 53.67L15.2134 52.6517C14.5173 51.2389 12.2468 50.0597 10.7563 50.3361C7.50688 50.9388 5.67663 54.1751 7.06571 56.8615C7.96021 58.5913 9.34065 59.4429 11.2496 59.4429C12.7164 59.4429 13.1397 59.297 14.0889 58.4633C14.7025 57.9249 15.2931 57.2051 15.4015 56.8637C15.5803 56.3003 15.9159 56.2437 19.0729 56.2437C21.805 56.2437 22.655 56.1362 23.0504 55.7411C23.4871 55.3041 23.553 53.8395 23.553 44.544V33.8494H26.7522H29.9514V43.4153V52.9812L28.8515 53.6303C24.9047 55.959 26.6223 62 31.2311 62C35.8398 62 37.5575 55.959 33.6106 53.6303L32.5107 52.9812V43.4153V33.8494H35.55H38.5892V44.544C38.5892 53.8395 38.6551 55.3041 39.0918 55.7411C39.4872 56.1362 40.3372 56.2437 43.0693 56.2437C46.2263 56.2437 46.5619 56.3003 46.7407 56.8637C46.8492 57.2051 47.4397 57.9249 48.0533 58.4633C49.0025 59.297 49.4258 59.4429 50.8926 59.4429C52.8016 59.4429 54.182 58.5913 55.0765 56.8615C56.5782 53.9573 54.2757 50.3787 50.906 50.3787C49.2258 50.3787 47.4458 51.4238 46.9058 52.7275C46.5104 53.6824 46.504 53.6844 43.8291 53.6844H41.1485V43.7669V33.8494H44.0278H46.9071V39.1054C46.9071 45.5396 46.805 45.3665 50.6008 45.3665C53.2728 45.3665 53.292 45.3723 53.7927 46.3403C55.327 49.3079 60.2489 49.2932 61.7881 46.317C63.0437 43.8888 62.1233 41.2207 59.5969 39.9637C58.2018 39.2695 57.9391 39.2356 56.7231 39.5942C55.2304 40.0344 54.0189 41.0012 53.5994 42.0873C53.3537 42.7233 53.0968 42.8071 51.3939 42.8071H49.4664V38.3718V33.9368L52.4257 33.7775C55.8411 33.5938 57.6669 32.8903 59.5538 31.031C61.9807 28.6389 62.9475 24.805 61.9525 21.5169C60.9982 18.3632 57.7069 15.5271 54.5006 15.0958C52.8467 14.8732 52.8796 14.9234 52.5101 12.0588C52.4052 11.2469 51.8239 9.54812 51.2176 8.28349C49.7275 5.17388 47.3447 2.82664 44.1174 1.28943C41.7727 0.172278 41.4243 0.0986974 38.1093 0.0206373C35.0787 -0.0510244 34.3205 0.040153 32.6461 0.67711ZM42.2318 3.16255C46.9678 4.96817 50.0032 9.27427 50.2883 14.5926C50.3571 15.8806 50.4969 17.0694 50.5986 17.2342C50.7007 17.3989 51.6406 17.5336 52.688 17.5336C58.9114 17.5336 62.2017 24.3236 58.1541 28.8133C55.8053 31.4184 57.3706 31.276 31.0711 31.276C9.1647 31.276 7.63773 31.2399 6.43452 30.6934C4.26675 29.7084 2.44194 27.0573 2.44194 24.8917C2.44194 21.7021 5.71534 18.5183 9.01274 18.5004C10.6856 18.4914 11.0762 18.0608 11.0762 16.2264C11.0762 13.1501 13.8112 9.7116 16.9282 8.86926C18.799 8.36379 21.3782 8.69842 23.1227 9.67353C25.2128 10.8416 25.5871 10.7513 26.6796 8.81551C29.7511 3.37242 36.4221 0.94808 42.2318 3.16255ZM6.13187 42.6328C7.06891 43.5695 7.12746 44.3962 6.32734 45.3844C5.13917 46.8516 2.43842 45.9155 2.43842 44.0369C2.43842 43.215 3.83742 41.8474 4.67784 41.8474C5.04575 41.8474 5.69998 42.2009 6.13187 42.6328ZM59.2383 42.6328C60.1754 43.5695 60.2339 44.3962 59.4338 45.3844C58.2456 46.8516 55.5449 45.9155 55.5449 44.0369C55.5449 43.215 56.9439 41.8474 57.7843 41.8474C58.1522 41.8474 58.8064 42.2009 59.2383 42.6328ZM12.1371 53.0925C13.0559 53.5759 13.3048 53.9854 13.3108 55.0207C13.3156 55.88 12.0577 57.2035 11.2362 57.2035C11.0196 57.2035 10.4632 56.905 9.99969 56.5403C8.86685 55.6496 8.86685 54.2785 9.99969 53.3878C10.9735 52.6216 11.1866 52.5922 12.1371 53.0925ZM51.8069 53.0925C52.7257 53.5759 52.9746 53.9854 52.9807 55.0207C52.9855 55.88 51.7276 57.2035 50.906 57.2035C50.0845 57.2035 48.8266 55.88 48.8314 55.0207C48.8371 54.0116 49.0774 53.5996 49.9463 53.1069C50.7605 52.6453 50.9543 52.6437 51.8069 53.0925ZM32.6851 56.0694C33.117 56.5012 33.4705 57.1555 33.4705 57.5234C33.4705 58.3638 32.1028 59.7628 31.281 59.7628C30.4146 59.7628 29.3768 58.8037 29.1346 57.7793C28.9769 57.1123 29.1161 56.73 29.7463 56.0998C30.7723 55.0738 31.6805 55.0645 32.6851 56.0694Z" fill="#FF725E"/>
</svg>
