<svg width="35" height="57" viewBox="0 0 35 57" fill="none" xmlns="http://www.w3.org/2000/svg">
<path fill-rule="evenodd" clip-rule="evenodd" d="M4.52892 0.944402C3.17278 1.21735 1.77566 2.33281 1.16589 3.62955L0.834825 4.33368L0.801538 28.461C0.770812 50.6855 0.785023 52.6391 0.98141 53.2334C1.39531 54.4854 2.20646 55.4078 3.48669 56.0824L4.16342 56.4389H17.5418H30.9202L31.5969 56.0824C32.8771 55.4078 33.6883 54.4854 34.1022 53.2334C34.2986 52.6391 34.3128 50.6855 34.282 28.461L34.2488 4.33368L33.9177 3.62955C33.4594 2.65504 32.563 1.77655 31.5251 1.28494L30.6641 0.877062L17.8618 0.857345C10.8206 0.846463 4.82081 0.885639 4.52892 0.944402ZM31.1547 2.71829C31.7841 3.10965 32.212 3.56362 32.5566 4.20565C32.7977 4.65501 32.8374 4.97251 32.8811 6.79811L32.9309 8.87848H17.5418H2.15269L2.20249 6.79811C2.24653 4.95395 2.28404 4.65962 2.53279 4.20565C3.00622 3.3415 3.72007 2.69934 4.45671 2.47466C4.64747 2.41654 10.6222 2.3789 17.7338 2.39106L30.6641 2.41333L31.1547 2.71829ZM23.8588 4.98224C23.5938 5.24725 23.5454 5.38961 23.6089 5.71837C23.81 6.76009 25.0954 6.87966 25.471 5.89159C25.8424 4.91464 24.6174 4.2237 23.8588 4.98224ZM14.0303 5.1109C13.7605 5.38077 13.7759 5.84614 14.0633 6.10615C14.2683 6.29166 14.704 6.31803 17.5641 6.31803C20.5662 6.31803 20.8479 6.29908 21.0426 6.08388C21.3096 5.78891 21.3142 5.37181 21.0533 5.1109C20.8808 4.93846 20.3804 4.90978 17.5418 4.90978C14.7031 4.90978 14.2028 4.93846 14.0303 5.1109ZM32.8405 29.7106V49.0136H17.5418H2.24308L2.21017 29.8102C2.19212 19.2483 2.19916 10.5492 2.22592 10.4788C2.25805 10.3941 7.46038 10.3603 17.5575 10.3792L32.8405 10.4077V29.7106ZM16.7738 16.8247C16.1215 17.0991 15.7653 17.5964 15.5653 18.5131C15.4965 18.8274 15.1263 19.0469 12.1764 20.5228L8.86454 22.1797L8.37024 21.9218C7.18757 21.3049 5.72798 22.0915 5.54657 23.4434C5.45696 24.1118 5.85805 24.9866 6.40113 25.3074L6.78788 25.5359L6.78289 29.7215L6.77803 33.9069L6.36682 34.1657C5.90068 34.4588 5.52289 35.1344 5.5138 35.6908C5.50561 36.1919 5.9428 37.049 6.36118 37.3521C6.8469 37.7042 7.79222 37.7658 8.38599 37.484L8.86799 37.2552L12.172 38.9034L15.476 40.5514L15.6159 41.1073C15.6931 41.4141 15.9509 41.8757 16.1909 42.1378C16.615 42.6006 16.649 42.6125 17.5418 42.6125C18.4346 42.6125 18.4685 42.6006 18.8927 42.1378C19.1327 41.8757 19.3904 41.4141 19.4676 41.1073L19.6076 40.5514L22.9116 38.9034L26.2156 37.2552L26.6669 37.4694C28.289 38.2392 30.0622 36.6827 29.4397 35.0354C29.276 34.6018 28.6976 33.9709 28.4638 33.9709C28.3285 33.9709 28.2957 33.1499 28.2957 29.7535V25.5359L28.6825 25.3074C29.2255 24.9866 29.6266 24.1118 29.537 23.4434C29.3556 22.0915 27.896 21.3049 26.7133 21.9218L26.219 22.1797L22.9072 20.5228C19.9429 19.0398 19.588 18.8289 19.524 18.5131C19.4087 17.9443 19.04 17.3039 18.6715 17.0324C18.2743 16.7398 17.2438 16.6271 16.7738 16.8247ZM16.6456 20.4005C17.2746 20.7214 17.8015 20.7252 18.4129 20.4133L18.8897 20.1701L22.2484 21.8448C24.0958 22.7658 25.6072 23.5952 25.6072 23.6878C25.6072 23.7805 24.1044 24.608 22.2675 25.5269L18.9278 27.1978L18.3864 26.9357C18.0887 26.7916 17.7086 26.6736 17.5418 26.6736C17.375 26.6736 16.9949 26.7916 16.6972 26.9357L16.1558 27.1978L12.8161 25.5269C10.9792 24.608 9.47636 23.7821 9.47636 23.6915C9.47636 23.6008 10.9598 22.7745 12.7729 21.8549C14.5861 20.9353 16.0862 20.1743 16.1067 20.1637C16.127 20.1532 16.3696 20.2597 16.6456 20.4005ZM15.6165 29.0755C15.7199 29.4862 15.9238 29.8236 16.264 30.1473L16.7605 30.6196L16.7739 32.1992C16.7813 33.068 16.7843 34.9357 16.7806 36.3497C16.7737 38.911 16.7725 38.9212 16.4741 39.081C16.2017 39.2267 15.8702 39.089 12.8254 37.5658C9.76108 36.0327 9.47636 35.8626 9.47636 35.5644C9.47636 35.0885 9.15515 34.544 8.64434 34.1544L8.19613 33.8126V29.6966V25.5807L8.53642 25.3742C8.87145 25.171 8.92817 25.1936 12.1711 26.8219L15.4655 28.4759L15.6165 29.0755ZM26.8875 29.657V33.7373L26.302 34.2703C25.8273 34.7022 25.7029 34.9077 25.6438 35.3558L25.5713 35.9083L22.2402 37.5748C18.1658 39.6132 18.3177 39.611 18.2953 37.63C18.2874 36.9201 18.2911 35.0461 18.3037 33.4654L18.3263 30.5913L18.7752 30.2008C19.0724 29.9422 19.2999 29.5759 19.4486 29.1171L19.6732 28.424L22.9282 26.7999C26.1266 25.2042 26.1895 25.1794 26.5354 25.3763L26.8875 25.5766V29.657ZM32.8354 51.5741C32.8294 52.7994 32.4924 53.5994 31.695 54.2819C30.7119 55.1234 31.2117 55.0947 17.5418 55.0947C3.87191 55.0947 4.37171 55.1234 3.38862 54.2819C2.68629 53.6807 2.28417 52.8202 2.208 51.7548C2.17382 51.2767 2.18034 50.7952 2.22259 50.6851C2.29185 50.5047 3.81647 50.488 17.57 50.5174L32.8405 50.5499L32.8354 51.5741Z" fill="white"/>
</svg>
