<svg width="46" height="76" viewBox="0 0 46 76" fill="none" xmlns="http://www.w3.org/2000/svg">
<path fill-rule="evenodd" clip-rule="evenodd" d="M5.32629 0.632067C3.48984 1.00168 1.5979 2.51221 0.772164 4.26823L0.323842 5.22174L0.278765 37.8943C0.237157 67.9902 0.256401 70.6357 0.522343 71.4405C1.08283 73.136 2.18127 74.3851 3.91493 75.2985L4.83134 75.7814H22.948H41.0647L41.9811 75.2985C43.7147 74.3851 44.8132 73.136 45.3736 71.4405C45.6396 70.6357 45.6588 67.9902 45.6172 37.8943L45.5721 5.22174L45.1238 4.26823C44.5032 2.94857 43.2893 1.75894 41.8838 1.09322L40.7179 0.540877L23.3814 0.514177C13.8463 0.499441 5.72157 0.552492 5.32629 0.632067ZM41.3823 3.03422C42.2345 3.56419 42.8141 4.17894 43.2806 5.04837C43.6072 5.65688 43.661 6.08683 43.7201 8.55902L43.7875 11.3762H22.948H2.10846L2.1759 8.55902C2.23554 6.06169 2.28634 5.66312 2.62318 5.04837C3.26429 3.87816 4.23097 3.00856 5.22851 2.7043C5.48683 2.62559 13.5776 2.57462 23.208 2.59109L40.7179 2.62126L41.3823 3.03422ZM31.5023 6.1C31.1435 6.45887 31.078 6.65165 31.1639 7.09685C31.4363 8.50753 33.1769 8.66945 33.6855 7.33142C34.1885 6.00847 32.5295 5.07281 31.5023 6.1ZM18.1928 6.27424C17.8275 6.63969 17.8483 7.26987 18.2375 7.62198C18.515 7.87318 19.1052 7.9089 22.9782 7.9089C27.0436 7.9089 27.425 7.88324 27.6887 7.59181C28.0503 7.19238 28.0565 6.62755 27.7032 6.27424C27.4695 6.04071 26.792 6.00188 22.948 6.00188C19.104 6.00188 18.4265 6.04071 18.1928 6.27424ZM43.6651 39.5865V65.7262H22.948H2.23086L2.18631 39.7214C2.16186 25.4188 2.17139 13.6386 2.20763 13.5433C2.25114 13.4287 9.29601 13.3829 22.9693 13.4084L43.6651 13.447V39.5865ZM21.908 22.1368C21.0247 22.5083 20.5424 23.1818 20.2714 24.4231C20.1783 24.8488 19.6769 25.1461 15.6823 27.1446L11.1975 29.3883L10.5281 29.0392C8.92657 28.2037 6.95003 29.2689 6.70437 31.0996C6.58301 32.0047 7.12617 33.1894 7.86159 33.6238L8.38532 33.9333L8.37856 39.6013L8.37197 45.2691L7.81512 45.6195C7.1839 46.0165 6.6723 46.9313 6.65999 47.6848C6.6489 48.3633 7.24094 49.524 7.80749 49.9345C8.46524 50.4113 9.74537 50.4947 10.5494 50.1131L11.2022 49.8033L15.6764 52.0352L20.1506 54.2669L20.3401 55.0197C20.4446 55.4351 20.7936 56.0602 21.1186 56.4151C21.693 57.0418 21.7389 57.0579 22.948 57.0579C24.157 57.0579 24.203 57.0418 24.7773 56.4151C25.1024 56.0602 25.4514 55.4351 25.5559 55.0197L25.7454 54.2669L30.2196 52.0352L34.6938 49.8033L35.3049 50.0933C37.5017 51.1358 39.9028 49.028 39.0599 46.7973C38.8381 46.2101 38.0549 45.3558 37.7383 45.3558C37.555 45.3558 37.5107 44.244 37.5107 39.6446V33.9333L38.0344 33.6238C38.7698 33.1894 39.313 32.0047 39.1916 31.0996C38.946 29.2689 36.9694 28.2037 35.3679 29.0392L34.6985 29.3883L30.2137 27.1446C26.1995 25.1364 25.7189 24.8508 25.6322 24.4231C25.4762 23.6529 24.9769 22.7857 24.4778 22.418C23.94 22.0219 22.5444 21.8691 21.908 22.1368ZM21.7344 26.9791C22.5862 27.4135 23.2997 27.4187 24.1276 26.9964L24.7734 26.667L29.3216 28.9348C31.8233 30.182 33.87 31.3052 33.87 31.4306C33.87 31.5561 31.8349 32.6767 29.3474 33.9211L24.8248 36.1837L24.0917 35.8288C23.6886 35.6336 23.1739 35.474 22.948 35.474C22.7221 35.474 22.2074 35.6336 21.8043 35.8288L21.0711 36.1837L16.5486 33.9211C14.0611 32.6767 12.026 31.5583 12.026 31.4356C12.026 31.3128 14.0348 30.1938 16.4901 28.9485C18.9455 27.7032 20.9768 26.6727 21.0046 26.6583C21.0321 26.6441 21.3607 26.7884 21.7344 26.9791ZM20.3408 38.7265C20.4808 39.2826 20.757 39.7396 21.2176 40.1779L21.8899 40.8174L21.9082 42.9566C21.9182 44.133 21.9222 46.6623 21.9172 48.5771C21.9078 52.0454 21.9062 52.0593 21.5021 52.2756C21.1332 52.4729 20.6844 52.2866 16.5612 50.2239C12.4116 48.1478 12.026 47.9174 12.026 47.5136C12.026 46.8691 11.591 46.1318 10.8993 45.6042L10.2923 45.1413V39.5676V33.9939L10.7531 33.7143C11.2068 33.4392 11.2836 33.4697 15.6752 35.6747L20.1364 37.9146L20.3408 38.7265ZM35.6037 39.5139V45.0394L34.8109 45.7611C34.168 46.346 33.9995 46.6243 33.9196 47.2311L33.8213 47.9793L29.3105 50.236C23.793 52.9963 23.9988 52.9934 23.9684 50.3107C23.9577 49.3494 23.9627 46.8117 23.9797 44.6712L24.0104 40.7791L24.6182 40.2503C25.0207 39.9001 25.3288 39.4041 25.5301 38.7828L25.8343 37.8442L30.2422 35.6449C34.5733 33.4841 34.6585 33.4504 35.1269 33.7171L35.6037 33.9884V39.5139ZM43.6582 69.1935C43.6501 70.8528 43.1938 71.9361 42.1139 72.8603C40.7826 73.9999 41.4594 73.961 22.948 73.961C4.43658 73.961 5.1134 73.9999 3.78213 72.8603C2.83105 72.0462 2.28651 70.881 2.18336 69.4383C2.13707 68.7908 2.14591 68.1387 2.20312 67.9896C2.29691 67.7454 4.36152 67.7228 22.9861 67.7625L43.6651 67.8066L43.6582 69.1935Z" fill="#FF725E"/>
</svg>
