<svg width="49" height="48" viewBox="0 0 49 48" fill="none" xmlns="http://www.w3.org/2000/svg">
<g clip-path="url(#clip0_1_5512)">
<path d="M33.4545 0.152344C32.6851 0.152344 32.0625 0.7755 32.0625 1.5456V4.33211C32.0625 5.1022 32.6851 5.72536 33.4545 5.72536C34.224 5.72536 34.8466 5.1022 34.8466 4.33211V1.5456C34.8466 0.7755 34.224 0.152344 33.4545 0.152344Z" fill="white"/>
<path d="M44.1824 20.3312L44.1825 20.3312C45.0392 21.1886 45.0393 22.5736 44.1824 23.4312C43.3287 24.2855 41.9402 24.2855 41.0866 23.4312L41.0866 23.4312L22.5527 4.88233C21.6998 4.0276 21.6993 2.6361 22.5525 1.77939C23.4006 0.933191 24.7921 0.923569 25.6512 1.781C25.6513 1.7811 25.6514 1.78119 25.6515 1.78129L44.1824 20.3312Z" stroke="white" stroke-width="1.18891"/>
<path d="M21.1278 9.08711L36.9087 24.8807C32.207 25.8974 27.8108 28.2176 24.1432 31.2478L14.8304 21.9268C17.8583 18.2467 20.117 13.7897 21.1278 9.08711Z" stroke="white" stroke-width="1.18891"/>
<path d="M5.70669 31.3313C5.7067 31.3313 5.70671 31.3313 5.70673 31.3313L12.177 24.8566L21.1795 33.867L14.7091 40.343C14.7091 40.343 14.7091 40.343 14.7091 40.343C13.3069 41.7464 11.0402 41.7409 9.64358 40.343L5.70673 36.4027C4.30428 34.999 4.30979 32.7295 5.70669 31.3313ZM10.7723 35.273C11.5483 36.0496 12.8059 36.0496 13.5818 35.273L15.5502 33.3028C16.3259 32.5265 16.3259 31.2687 15.5502 30.4924C14.7743 29.7158 13.5167 29.7158 12.7408 30.4924L10.7723 32.4625C9.99671 33.2388 9.99671 34.4967 10.7723 35.273Z" stroke="white" stroke-width="1.18891"/>
<path d="M27.4095 41.1147L26.983 41.5415L27.4162 41.9616L28.8985 43.399C29.7496 44.2544 29.7485 45.6433 28.8953 46.4973L28.8953 46.4973C28.0399 47.3536 26.6473 47.348 25.8015 46.4992L25.8015 46.4991L25.7943 46.4921L19.9116 40.7868L23.0082 37.6874L25.4166 40.0228L25.837 40.4305L26.2509 40.0162L28.1758 38.0896L28.1769 38.0885C28.9532 37.3075 28.9507 36.0531 28.1757 35.2804C28.1754 35.2801 28.1751 35.2798 28.1748 35.2795L26.9589 34.0608C27.3799 33.7229 27.8081 33.3992 28.2463 33.0908L29.3031 34.1493L29.3036 34.1498C30.7011 35.5462 30.706 37.8155 29.3032 39.2193L29.3031 39.2194L27.4095 41.1147Z" stroke="white" stroke-width="1.18891"/>
<path d="M44.5863 11.3203H41.8022C41.0328 11.3203 40.4102 11.9435 40.4102 12.7136C40.4102 13.4837 41.0328 14.1068 41.8022 14.1068H44.5863C45.3557 14.1068 45.9783 13.4837 45.9783 12.7136C45.9783 11.9435 45.3557 11.3203 44.5863 11.3203Z" fill="white"/>
<path d="M42.7931 3.33784C42.2494 2.79364 41.3684 2.79364 40.8247 3.33784L38.0406 6.12435C37.4969 6.66855 37.4969 7.5503 38.0406 8.0945C38.5843 8.63871 39.4653 8.6388 40.009 8.0945L42.7931 5.308C43.3368 4.76379 43.3368 3.88205 42.7931 3.33784Z" fill="white"/>
</g>
<defs>
<clipPath id="clip0_1_5512">
<rect width="47.5146" height="47.5563" fill="white" transform="translate(0.892578 0.164062)"/>
</clipPath>
</defs>
</svg>
