<svg width="64" height="64" viewBox="0 0 64 64" fill="none" xmlns="http://www.w3.org/2000/svg">
<path fill-rule="evenodd" clip-rule="evenodd" d="M31.4601 0.357488C30.9325 0.458753 30.5122 0.684541 30.1163 1.07924C29.6366 1.55758 29.4103 2.10794 29.4103 2.79665C29.4103 3.48308 29.6337 4.02642 30.1156 4.51217C30.3405 4.73891 30.4944 4.85362 30.7311 4.97112C30.9046 5.05729 31.0864 5.13822 31.1351 5.15095L31.2236 5.17409V11.189V17.204H28.0307H24.8378V14.5027C24.8378 11.9646 24.842 11.7999 24.9068 11.7792C25.1119 11.7135 25.5518 11.4719 25.7174 11.334C26.1432 10.9795 26.4731 10.4358 26.5733 9.92379C26.6474 9.54479 26.6068 8.9649 26.4815 8.61176C26.1356 7.63745 25.2146 6.9824 24.1874 6.98004C23.7489 6.97901 23.4897 7.03826 23.0837 7.23235C22.5278 7.49811 22.0486 8.03337 21.8414 8.61968C21.7194 8.96514 21.6893 9.6729 21.7817 10.0268C21.9947 10.8434 22.62 11.5083 23.4286 11.7782C23.4934 11.7999 23.4976 11.965 23.4976 14.5027V17.204L22.4235 17.2047C21.8327 17.2051 21.1808 17.223 20.9748 17.2444C19.5025 17.398 18.2924 18.2353 17.6436 19.5494C17.2658 20.3148 17.1924 20.7832 17.1914 22.4368L17.1907 23.511H14.4893C11.9516 23.511 11.7865 23.5068 11.7649 23.442C11.4968 22.639 10.8279 22.0065 10.0274 21.7991C9.7234 21.7203 9.11904 21.7191 8.81272 21.7966C8.13694 21.9677 7.51736 22.4691 7.22633 23.0804C7.02475 23.5038 6.96566 23.7587 6.96669 24.2008C6.96968 25.501 7.98187 26.5583 9.27975 26.6169C9.77315 26.6392 10.0699 26.5811 10.4896 26.3803C10.9443 26.1626 11.3982 25.716 11.6032 25.2848C11.6805 25.1222 11.7536 24.9581 11.7658 24.9202C11.7866 24.8554 11.9512 24.8512 14.4893 24.8512H17.1907V28.0442V31.2372L11.175 31.2272L5.15932 31.2172L5.07883 31.0004C4.80988 30.2762 4.1372 29.6769 3.37615 29.4834C3.0748 29.4068 2.49181 29.4068 2.19045 29.4834C1.38431 29.6884 0.720703 30.3035 0.448126 31.0985C0.354626 31.3712 0.339844 31.4761 0.339844 31.8676C0.339844 32.2591 0.354626 32.364 0.448126 32.6368C0.720703 33.4318 1.38431 34.0469 2.19045 34.2519C2.49181 34.3284 3.0748 34.3284 3.37615 34.2519C4.04492 34.0818 4.65934 33.592 4.95777 32.9909C5.04394 32.8173 5.12487 32.6355 5.1376 32.5868L5.16074 32.4983H11.1757H17.1907V35.6912V38.8841H14.4893C11.9512 38.8841 11.7866 38.8799 11.7658 38.8151C11.5826 38.2431 11.0562 37.6294 10.529 37.3731C10.0876 37.1584 9.80275 37.099 9.30971 37.1185C8.98876 37.1313 8.8255 37.1592 8.59841 37.2401C7.62328 37.5875 6.96905 38.5075 6.96669 39.5345C6.96566 39.9765 7.02475 40.2315 7.22633 40.6549C7.51736 41.2662 8.13694 41.7676 8.81272 41.9387C9.11904 42.0162 9.7234 42.015 10.0274 41.9362C10.8279 41.7288 11.4968 41.0962 11.7649 40.2933C11.7865 40.2285 11.9514 40.2243 14.4847 40.2243H17.1816L17.2025 41.5547C17.2176 42.5164 17.2397 42.9615 17.2823 43.161C17.5791 44.552 18.5217 45.6856 19.821 46.2141C20.4505 46.4702 20.9392 46.5296 22.4235 46.5306L23.4976 46.5312V49.2326C23.4976 51.7703 23.4934 51.9354 23.4286 51.957C22.62 52.227 21.9947 52.8919 21.7817 53.7085C21.6893 54.0624 21.7194 54.7701 21.8414 55.1156C22.0486 55.7019 22.5278 56.2372 23.0837 56.5029C23.4897 56.697 23.7489 56.7563 24.1874 56.7552C25.2145 56.7529 26.1344 56.0986 26.4818 55.1235C26.5627 54.8964 26.5906 54.7332 26.6034 54.4122C26.6229 53.9192 26.5635 53.6343 26.3489 53.1929C26.1471 52.7779 25.6813 52.3135 25.2714 52.1187C25.1088 52.0414 24.9447 51.9683 24.9068 51.9561C24.842 51.9354 24.8378 51.7707 24.8378 49.2326V46.5312H28.0307H31.2236V52.5462V58.5612L31.1351 58.5843C31.0864 58.5971 30.9046 58.678 30.7311 58.7642C30.1299 59.0626 29.6401 59.677 29.4701 60.3458C29.3935 60.6471 29.3935 61.2301 29.4701 61.5315C29.5806 61.9661 29.7901 62.3308 30.1163 62.656C30.6454 63.1836 31.1207 63.3822 31.8543 63.3822C32.5876 63.3822 33.0623 63.1839 33.5929 62.656C33.8298 62.4204 33.9265 62.2872 34.0526 62.0226C34.1404 61.8383 34.2316 61.5936 34.2552 61.4787C34.3166 61.1805 34.3083 60.6204 34.2385 60.3458C34.0685 59.677 33.5786 59.0626 32.9775 58.7642C32.804 58.678 32.6222 58.5971 32.5735 58.5843L32.485 58.5612V52.5462V46.5312H35.6779H38.8707V49.2326C38.8707 51.7707 38.8666 51.9354 38.8018 51.9561C38.227 52.1402 37.6002 52.6777 37.3551 53.1968C37.1437 53.6443 37.0859 53.9255 37.1052 54.4122C37.1254 54.921 37.244 55.2899 37.5152 55.6867C37.7602 56.0453 38.0687 56.3124 38.4542 56.4998C38.8593 56.6966 39.1177 56.7563 39.5606 56.7552C40.2229 56.7537 40.7944 56.5126 41.2758 56.0314C41.7621 55.5455 41.9848 55.0029 41.9848 54.3039C41.9848 53.715 41.8207 53.2372 41.457 52.7664C41.2041 52.4391 40.7137 52.1018 40.2799 51.957C40.2151 51.9354 40.211 51.7703 40.211 49.2326V46.5312L41.2851 46.5306C42.7694 46.5296 43.2581 46.4702 43.8876 46.2141C45.1868 45.6856 46.1295 44.552 46.4263 43.161C46.4689 42.9615 46.491 42.5164 46.5061 41.5547L46.5269 40.2243H49.2238C51.7572 40.2243 51.922 40.2285 51.9437 40.2933C52.2136 41.102 52.8785 41.7272 53.6952 41.9403C54.049 42.0326 54.7568 42.0026 55.1022 41.8805C55.6885 41.6734 56.2238 41.1941 56.4896 40.6382C56.6837 40.2322 56.7429 39.9731 56.7419 39.5345C56.7396 38.5263 56.1191 37.6341 55.158 37.257C54.7981 37.1158 54.2115 37.0684 53.8006 37.1473C53.2756 37.2481 52.6691 37.6319 52.3327 38.076C52.202 38.2487 52.0128 38.608 51.9437 38.8151C51.922 38.8799 51.757 38.8841 49.2193 38.8841H46.5179V35.6911V32.4981L52.5335 32.5081L58.5492 32.518L58.6297 32.7348C58.8987 33.4591 59.5714 34.0584 60.3324 34.2519C60.6071 34.3217 61.1671 34.3299 61.4653 34.2686C61.5802 34.245 61.8203 34.1559 61.9989 34.0706C62.5828 33.7918 63.0442 33.2675 63.2604 32.6368C63.3539 32.364 63.3687 32.2591 63.3687 31.8676C63.3687 31.4761 63.3539 31.3712 63.2604 31.0985C62.9879 30.3035 62.3243 29.6884 61.5181 29.4834C61.2168 29.4068 60.6338 29.4068 60.3324 29.4834C59.6636 29.6534 59.0492 30.1433 58.7508 30.7444C58.6646 30.9179 58.5837 31.0997 58.571 31.1485L58.5478 31.2369H52.5329H46.5179V28.0441V24.8512H49.2193C51.7573 24.8512 51.922 24.8554 51.9427 24.9202C51.9549 24.9581 52.0281 25.1222 52.1053 25.2848C52.3103 25.716 52.7643 26.1626 53.219 26.3803C53.645 26.5842 53.9386 26.6405 54.451 26.6163C54.7773 26.6009 54.9131 26.5744 55.158 26.4783C56.1191 26.1011 56.7396 25.209 56.7419 24.2008C56.7429 23.7622 56.6837 23.503 56.4896 23.0971C56.2238 22.5412 55.6885 22.0619 55.1022 21.8548C54.7568 21.7327 54.049 21.7027 53.6952 21.795C52.8785 22.0081 52.2136 22.6333 51.9437 23.442C51.922 23.5068 51.757 23.511 49.2193 23.511H46.5179L46.5172 22.4368C46.5163 20.9526 46.4568 20.4639 46.2008 19.8343C45.6722 18.5351 44.5386 17.5925 43.1476 17.2956C42.9482 17.253 42.503 17.2309 41.5413 17.2158L40.211 17.195V14.4981C40.211 11.9647 40.2151 11.7999 40.2799 11.7782C40.7137 11.6334 41.2041 11.2962 41.457 10.9689C41.8207 10.4981 41.9848 10.0203 41.9848 9.43138C41.9848 8.73238 41.7621 8.18982 41.2758 7.70383C40.9546 7.38277 40.6727 7.21256 40.2307 7.07283C39.8444 6.95071 39.2383 6.95055 38.851 7.07247C38.2794 7.25246 37.8392 7.57423 37.5144 8.04973C37.244 8.44541 37.1253 8.81468 37.1052 9.32306C37.0859 9.80976 37.1437 10.091 37.3551 10.5384C37.5479 10.9467 38.0224 11.4194 38.4371 11.6166C38.5997 11.6938 38.7638 11.767 38.8018 11.7792C38.8666 11.7999 38.8707 11.9646 38.8707 14.5027V17.204H35.6779H32.485V11.189V5.17409L32.5735 5.15095C32.6222 5.13822 32.804 5.05729 32.9775 4.97112C33.5786 4.67269 34.0685 4.05827 34.2385 3.3895C34.3083 3.11484 34.3166 2.55482 34.2552 2.25658C34.1832 1.90647 33.9278 1.4256 33.6642 1.14376C33.1826 0.62904 32.633 0.374674 31.9528 0.351812C31.736 0.344519 31.5143 0.347081 31.4601 0.357488ZM32.3572 1.77442C32.5822 1.88652 32.755 2.06288 32.887 2.31488C33.0099 2.54954 33.011 3.04171 32.8891 3.27424C32.7518 3.53626 32.6156 3.67126 32.3588 3.79953C31.7193 4.11914 30.9656 3.78952 30.7659 3.10293C30.6136 2.57871 30.8601 2.01924 31.3513 1.77442C31.5159 1.69243 31.6113 1.67323 31.8543 1.67323C32.0972 1.67323 32.1927 1.69243 32.3572 1.77442ZM24.6692 8.40781C24.8929 8.52243 25.1059 8.74211 25.2067 8.96211C25.3326 9.23717 25.3227 9.67014 25.1843 9.93491C24.7505 10.7648 23.5762 10.7673 23.1566 9.93936C22.8426 9.31975 23.138 8.59831 23.8083 8.34753C24.0151 8.27016 24.4617 8.30142 24.6692 8.40781ZM40.0906 8.43611C40.6188 8.72362 40.8271 9.39925 40.553 9.93582C40.1267 10.77 38.9605 10.7695 38.5243 9.93491C38.3853 9.66895 38.3759 9.23728 38.5031 8.95946C38.7725 8.37091 39.5188 8.1249 40.0906 8.43611ZM43.0294 18.5938C43.1594 18.6318 43.433 18.745 43.6374 18.8453C44.445 19.2415 45.0303 20.0537 45.1732 20.976C45.2355 21.3784 45.2355 42.3569 45.1732 42.7592C45.076 43.3863 44.8081 43.9115 44.3531 44.3665C43.8879 44.8317 43.3565 45.098 42.7103 45.1898C42.4844 45.2218 39.445 45.2308 31.6572 45.2224C19.5416 45.2092 20.795 45.2452 20.0712 44.89C19.2636 44.4938 18.6783 43.6816 18.5354 42.7592C18.4731 42.3569 18.4731 21.3784 18.5354 20.976C18.6325 20.3489 18.9005 19.8238 19.3555 19.3688C19.7956 18.9287 20.2737 18.6754 20.8763 18.5629C21.0996 18.5213 23.2142 18.5127 31.9725 18.518C42.1641 18.5242 42.8066 18.5286 43.0294 18.5938ZM9.91876 23.1671C10.7566 23.5951 10.7582 24.7603 9.92156 25.1976C9.6571 25.3359 9.22271 25.3461 8.95226 25.2205C8.5772 25.0463 8.32441 24.6864 8.29224 24.2808C8.26919 23.9902 8.32252 23.7796 8.47905 23.5434C8.78753 23.0776 9.42004 22.9123 9.91876 23.1671ZM54.7622 23.146C54.9764 23.2408 55.1965 23.4523 55.3173 23.6796C55.444 23.918 55.4443 24.4436 55.3179 24.6814C55.2009 24.9016 54.9739 25.1194 54.7563 25.2205C54.4858 25.3461 54.0515 25.3359 53.787 25.1976C53.3938 24.9921 53.1611 24.6124 53.1638 24.1811C53.1672 23.6569 53.4797 23.2462 54.0074 23.0724C54.1644 23.0207 54.5679 23.0601 54.7622 23.146ZM28.8376 25.0187C28.82 25.0661 28.5329 25.9103 27.0848 30.1726C25.7699 34.0429 24.9566 36.44 24.6039 37.4847C24.4063 38.0701 24.2273 38.5898 24.2062 38.6396C24.185 38.6894 24.1677 38.7382 24.1677 38.748C24.1677 38.7578 24.5835 38.7658 25.0918 38.7658H26.0158L26.7353 36.5978L27.4547 34.4298H29.8887C31.4032 34.4298 32.3315 34.4441 32.3461 34.4677C32.3767 34.5173 33.75 38.5615 33.7754 38.6771L33.795 38.7658H34.7561C35.2847 38.7658 35.7173 38.7578 35.7173 38.7479C35.7173 38.738 35.086 36.8799 34.3144 34.6188C33.5428 32.3577 32.5307 29.3902 32.0652 28.0244C31.5997 26.6585 31.1733 25.4124 31.1175 25.2552L31.0163 24.9694H29.9361C29.1081 24.9694 28.8517 24.9809 28.8376 25.0187ZM37.767 31.8676V38.7658H38.6539H39.5408V31.8676V24.9694H38.6539H37.767V31.8676ZM29.999 26.9108C30.2662 27.9768 30.8185 29.6945 31.8678 32.7218C31.9216 32.8773 31.9554 33.0147 31.9429 33.0273C31.9072 33.063 27.8336 33.0542 27.8336 33.0185C27.8336 33.0011 27.9151 32.7483 28.0147 32.4568C29.1168 29.2315 29.5509 27.8583 29.7868 26.8517C29.8262 26.6836 29.8695 26.5462 29.883 26.5462C29.8965 26.5462 29.9487 26.7103 29.999 26.9108ZM3.10945 30.7847C3.40682 30.873 3.62792 31.06 3.77834 31.3506C3.88646 31.5595 3.90672 31.641 3.90672 31.8676C3.90672 32.0943 3.88646 32.1758 3.77834 32.3847C3.34974 33.2126 2.17658 33.2044 1.76107 32.3706C1.63308 32.1137 1.62007 31.6631 1.73348 31.4143C1.97763 30.8788 2.54782 30.6178 3.10945 30.7847ZM61.4153 30.8414C61.8415 31.0588 62.0487 31.3945 62.0487 31.8676C62.0487 32.1106 62.0295 32.206 61.9475 32.3706C61.7027 32.8618 61.1432 33.1084 60.619 32.956C60.3049 32.8646 60.0838 32.6812 59.9302 32.3847C59.8225 32.1766 59.802 32.0944 59.8027 31.8741C59.8044 31.3458 60.1507 30.8866 60.6427 30.7599C60.8383 30.7096 61.2399 30.7519 61.4153 30.8414ZM9.92235 38.5412C10.5971 38.8832 10.7592 39.7954 10.2412 40.3362C10.0176 40.5696 9.76294 40.6756 9.42528 40.6758C8.95747 40.6761 8.6025 40.4628 8.39544 40.0569C8.29418 39.8584 8.25689 39.4771 8.31704 39.2548C8.50104 38.575 9.29366 38.2227 9.92235 38.5412ZM54.7587 38.5187C54.9725 38.6146 55.2002 38.8326 55.3179 39.0538C55.4443 39.2917 55.444 39.8172 55.3173 40.0557C55.1971 40.2819 54.9777 40.4933 54.7598 40.5932C54.4855 40.7187 54.0513 40.7092 53.7906 40.5717C52.8529 40.0775 52.985 38.7822 54.0074 38.4456C54.1643 38.3939 54.5681 38.4332 54.7587 38.5187ZM24.6131 53.2642C24.8528 53.3702 25.0622 53.5668 25.1843 53.8004C25.2706 53.9655 25.2892 54.0533 25.2893 54.2966C25.2895 54.6462 25.2001 54.8778 24.9798 55.0981C24.7304 55.3475 24.5496 55.419 24.1677 55.4196C23.8692 55.42 23.8095 55.4072 23.6206 55.3026C23.0988 55.0136 22.8824 54.3404 23.1437 53.8188C23.4242 53.2589 24.0592 53.0192 24.6131 53.2642ZM40.0108 53.2749C40.8527 53.6468 40.8987 54.8536 40.0879 55.3026C39.899 55.4072 39.8394 55.42 39.5408 55.4196C39.1589 55.419 38.9782 55.3475 38.7288 55.0981C38.5085 54.8778 38.419 54.6462 38.4192 54.2966C38.4194 54.0538 38.4379 53.9658 38.5231 53.8039C38.818 53.2437 39.4396 53.0227 40.0108 53.2749ZM32.3713 59.9436C33.0493 60.2946 33.1953 61.1364 32.6801 61.7232C32.2775 62.1818 31.4311 62.1818 31.0285 61.7232C30.7473 61.403 30.6543 61.0164 30.7659 60.6323C30.8573 60.3183 31.0407 60.0971 31.3372 59.9436C31.5461 59.8355 31.6277 59.8152 31.8543 59.8152C32.0809 59.8152 32.1625 59.8355 32.3713 59.9436Z" fill="white"/>
</svg>
