<svg width="78" height="80" viewBox="0 0 78 80" fill="none" xmlns="http://www.w3.org/2000/svg">
<path fill-rule="evenodd" clip-rule="evenodd" d="M34.0479 2.54673C31.6292 3.94533 29.6056 5.1486 29.551 5.22066C29.4693 5.32842 29.4512 6.27987 29.4493 10.5755L29.447 15.7994L29.6109 15.9767C29.8377 16.2218 38.502 21.1994 38.7019 21.1994C38.9016 21.1994 47.5634 16.2218 47.7903 15.9766L47.9542 15.7994L47.9526 10.5755C47.9511 5.73442 47.9418 5.34059 47.8251 5.20026C47.7558 5.11705 45.7252 3.91204 43.3125 2.52253C39.9086 0.562296 38.8719 -0.00290333 38.6857 1.12001e-05C38.5066 0.00285286 37.3271 0.650533 34.0479 2.54673ZM42.3229 3.58932C44.215 4.67885 45.7549 5.59831 45.7449 5.63256C45.7295 5.68553 43.496 6.99255 39.6252 9.21393L38.6918 9.74954L37.7308 9.1917C37.2022 8.88488 35.6233 7.97256 34.2221 7.16436C32.8208 6.35608 31.6662 5.6668 31.6561 5.63256C31.6268 5.53281 38.6503 1.52125 38.7735 1.56737C38.8336 1.58989 40.4308 2.4998 42.3229 3.58932ZM32.9205 8.071C33.9555 8.66986 35.5074 9.56687 36.369 10.0644L37.9355 10.9689L37.9543 15.1023L37.9732 19.2357L37.623 19.0336C37.4304 18.9224 35.8235 17.9953 34.0521 16.9733L30.8315 15.1153L30.8314 11.009C30.8314 7.48933 30.8462 6.90832 30.935 6.94242C30.992 6.96427 31.8854 7.47213 32.9205 8.071ZM46.5698 11.0168V15.1153L43.3498 16.9733C41.5788 17.9953 39.9719 18.9224 39.7789 19.0336L39.428 19.2357L39.4469 15.1024L39.4657 10.9691L41.7244 9.6651C42.9667 8.9479 44.5406 8.03682 45.2219 7.64059C45.9031 7.24429 46.4852 6.91961 46.5152 6.91917C46.5452 6.91866 46.5698 8.76261 46.5698 11.0168ZM24.7837 13.2647C23.3784 14.0523 22.9694 14.2976 22.0878 14.8819C20.3091 16.0607 19.0111 17.1275 17.4205 18.7181C15.1904 20.9482 13.615 23.0658 12.0443 25.9445C11.6839 26.6051 11.6499 26.9437 11.9171 27.211C12.1605 27.4544 12.4345 27.5095 12.7213 27.3727C12.9111 27.2822 13.056 27.0771 13.4604 26.326C15.2893 22.9301 18.0649 19.6843 21.2499 17.2169C22.4399 16.2951 24.2789 15.1169 25.4423 14.531C26.0202 14.24 26.2104 13.979 26.1354 13.5795C26.0312 13.0238 25.4536 12.8893 24.7837 13.2647ZM51.4877 13.2146C51.2416 13.4608 51.1891 13.7319 51.3304 14.0281C51.4188 14.2134 51.5715 14.3359 51.9549 14.529C53.1223 15.1169 54.9595 16.2937 56.1513 17.2169C59.3363 19.6843 62.1119 22.9301 63.9408 26.326C64.3452 27.0771 64.4901 27.2822 64.6799 27.3727C64.9667 27.5095 65.2407 27.4544 65.4841 27.211C65.7514 26.9437 65.7174 26.6051 65.3567 25.9445C63.7747 23.0469 62.2211 20.9585 59.9807 18.7181C57.7283 16.4657 55.6629 14.9343 52.6785 13.304C52.091 12.983 51.7453 12.9571 51.4877 13.2146ZM38.3181 22.1525C37.9892 22.344 37.972 22.4999 37.972 25.2797C37.972 28.2105 37.9793 28.2592 38.4504 28.456C38.6677 28.5468 38.7335 28.5468 38.9508 28.456C39.4219 28.2592 39.4292 28.2105 39.4292 25.2797C39.4292 22.4799 39.4123 22.3325 39.0689 22.1488C38.8911 22.0537 38.4844 22.0556 38.3181 22.1525ZM4.60501 31.9816C1.81318 33.595 0.167202 34.5877 0.108328 34.6939C0.035538 34.825 0.0148446 35.9781 0.0128044 40.0152L0.0102539 45.1691L0.210628 45.3847C0.523429 45.7214 9.02525 50.5927 9.29674 50.591C9.44808 50.5899 10.0418 50.2846 11.1583 49.6335C12.06 49.1078 14.0437 47.9601 15.5665 47.0832C17.9492 45.7111 18.3532 45.4539 18.4635 45.239C18.5829 45.0065 18.5904 44.6343 18.5728 39.8644L18.5539 34.7396L18.3353 34.5544C18.2151 34.4526 17.1167 33.7961 15.8944 33.0956C14.6721 32.395 12.7432 31.2843 11.608 30.6273C9.94821 29.667 9.49136 29.4333 9.27634 29.4349C9.05921 29.4364 8.1796 29.916 4.60501 31.9816ZM34.1467 31.9018C31.7822 33.2594 29.7576 34.4539 29.6474 34.5564L29.447 34.7426L29.4486 39.9752C29.4501 44.8223 29.4595 45.2194 29.5761 45.3651C29.6454 45.4516 31.6201 46.6276 33.9645 47.9785C36.3089 49.3293 38.2685 50.468 38.3193 50.5089C38.37 50.5497 38.5416 50.5832 38.7006 50.5832C38.8596 50.5832 39.0312 50.5497 39.0819 50.5089C39.1327 50.468 41.0923 49.3293 43.4367 47.9785C45.7811 46.6276 47.7558 45.4516 47.8251 45.3651C47.9417 45.2194 47.9511 44.8223 47.9526 39.9752L47.9542 34.7426L47.7539 34.5564C47.6436 34.4539 45.619 33.2594 43.2546 31.9018C39.8523 29.9484 38.9024 29.4335 38.7006 29.4335C38.4988 29.4335 37.5489 29.9484 34.1467 31.9018ZM67.1537 29.833C66.793 30.0462 64.8749 31.1541 62.8912 32.2949C60.9075 33.4358 59.1861 34.4526 59.0659 34.5544L58.8473 34.7396L58.8284 39.8644C58.8108 44.6343 58.8184 45.0065 58.9377 45.239C59.048 45.4539 59.452 45.7111 61.8347 47.0832C63.3575 47.9601 65.3412 49.1078 66.2429 49.6335C67.3512 50.2798 67.9537 50.5899 68.1027 50.591C68.3728 50.5928 76.8802 45.7194 77.1906 45.385L77.391 45.1691V40.0368C77.391 36.3545 77.3675 34.8531 77.3081 34.7225C77.2466 34.5877 76.0776 33.8781 72.8005 31.9867C68.9789 29.7809 68.3373 29.4338 68.0927 29.4391C67.8884 29.4435 67.6268 29.5532 67.1537 29.833ZM12.8396 32.9775C14.7602 34.0854 16.3316 35.0153 16.3316 35.0439C16.3316 35.108 9.39263 39.1238 9.28173 39.1238C9.23772 39.1238 8.61736 38.7852 7.90308 38.3714C7.18881 37.9576 5.6127 37.0477 4.40077 36.3494C3.18876 35.6512 2.19724 35.0635 2.19739 35.0434C2.19753 35.0234 3.25099 34.4004 4.53841 33.659C5.82583 32.9176 7.40587 32.0077 8.04962 31.6371C8.69336 31.2664 9.2488 30.9631 9.28384 30.9631C9.31889 30.9631 10.919 31.8696 12.8396 32.9775ZM42.2496 32.9729C44.1648 34.0783 45.748 34.9988 45.7677 35.0185C45.8107 35.0616 45.9354 34.9848 44.0561 36.0719C39.395 38.7679 38.7427 39.1324 38.6354 39.1011C38.5386 39.0728 32.053 35.3421 31.7057 35.1149C31.6086 35.0514 31.6086 35.0357 31.7057 34.9738C32.2559 34.6234 38.6123 30.9726 38.6793 30.9685C38.7277 30.9655 40.3343 31.8675 42.2496 32.9729ZM69.3516 31.6371C69.9954 32.0077 71.5754 32.9176 72.8628 33.659C74.1502 34.4004 75.2038 35.0234 75.2041 35.0434C75.2049 35.09 68.2992 39.0792 68.1622 39.1114C68.0359 39.141 61.0566 35.1188 61.0853 35.033C61.1101 34.9593 67.9945 30.9706 68.1046 30.9661C68.1467 30.9645 68.7079 31.2664 69.3516 31.6371ZM4.32915 37.9646C5.86102 38.85 7.43414 39.7592 7.82483 39.985L8.53525 40.3957V44.4958C8.53525 46.7509 8.51069 48.5943 8.4806 48.5923C8.45051 48.5902 6.85211 47.6774 4.92852 46.5638L1.43109 44.539L1.41229 40.447C1.39946 37.6708 1.41761 36.355 1.46861 36.355C1.51 36.355 2.7972 37.0794 4.32915 37.9646ZM17.1322 40.4535L17.1313 44.5521L15.0394 45.7543C13.8888 46.4155 12.3072 47.3252 11.5246 47.7757C10.7421 48.2262 10.0773 48.595 10.0472 48.5954C10.0171 48.5957 9.99324 46.7517 9.99411 44.4974L9.99572 40.3989L10.6681 40.0195C11.0379 39.8109 12.6192 38.9018 14.1821 37.9994C15.7451 37.097 17.0484 36.3578 17.0785 36.3568C17.1085 36.3558 17.1327 38.1993 17.1322 40.4535ZM33.6816 37.929C35.1797 38.7948 36.7573 39.7046 37.1875 39.951L37.9695 40.3989L37.9707 44.4974C37.9714 46.7517 37.9474 48.5954 37.9173 48.5947C37.8872 48.5941 36.2888 47.6837 34.3652 46.5718L30.8678 44.5502L30.849 40.4526C30.8384 38.1442 30.8581 36.355 30.894 36.355C30.929 36.355 32.1834 37.0633 33.6816 37.929ZM46.5522 40.4526L46.5334 44.5502L43.036 46.5718C41.1124 47.6837 39.514 48.5941 39.4839 48.5947C39.4538 48.5954 39.4295 46.7517 39.4299 44.4974L39.4306 40.3989L41.0511 39.4687C41.9424 38.957 43.5078 38.0506 44.5297 37.4542C45.5516 36.8578 46.4289 36.3665 46.4793 36.3624C46.5523 36.3565 46.5672 37.1955 46.5522 40.4526ZM63.4142 38.1133C65.0301 39.045 66.5892 39.9404 66.8788 40.1031L67.4056 40.3989L67.4071 44.5052C67.4086 48.3863 67.4017 48.6089 67.2812 48.5629C67.211 48.5362 65.6051 47.6227 63.7124 46.5331L60.271 44.5521L60.2696 40.4457C60.2683 36.9177 60.2828 36.345 60.3722 36.3793C60.4294 36.4012 61.7982 37.1815 63.4142 38.1133ZM75.9889 40.447L75.9701 44.539L72.4727 46.5638C70.5491 47.6774 68.9425 48.5902 68.9024 48.5923C68.8545 48.5947 68.8362 47.1955 68.8489 44.4959L68.8683 40.3958L72.3464 38.3803C74.2593 37.2716 75.8656 36.3625 75.9161 36.3598C75.9889 36.356 76.0039 37.1955 75.9889 40.447ZM20.8838 39.3712C20.3462 39.6055 20.3773 40.4531 20.9307 40.646C21.0851 40.6998 22.12 40.7267 24.0332 40.7267C26.4513 40.7267 26.9376 40.7094 27.1168 40.6167C27.3735 40.484 27.4797 40.303 27.4797 39.9981C27.4797 39.6933 27.3735 39.5123 27.1168 39.3795C26.8228 39.2275 21.2308 39.22 20.8838 39.3712ZM50.2695 39.3831C50.0255 39.5155 49.9215 39.6993 49.9215 39.9981C49.9215 40.303 50.0277 40.484 50.2844 40.6167C50.4636 40.7094 50.9499 40.7267 53.368 40.7267C55.2812 40.7267 56.3162 40.6998 56.4706 40.646C57.0579 40.4412 57.0531 39.5534 56.4636 39.3478C56.3174 39.2969 55.2306 39.2705 53.3535 39.2724C50.9491 39.2748 50.4349 39.2933 50.2695 39.3831ZM38.4321 51.5443C37.9812 51.7404 37.972 51.8041 37.972 54.7165C37.972 56.92 37.9898 57.3813 38.082 57.5596C38.2148 57.8163 38.3957 57.9225 38.7006 57.9225C39.0055 57.9225 39.1865 57.8163 39.3192 57.5596C39.4114 57.3813 39.4292 56.92 39.4292 54.7165C39.4292 51.7883 39.4215 51.7369 38.9532 51.5412C38.662 51.4196 38.7197 51.4192 38.4321 51.5443ZM12.1316 52.6029C11.9043 52.6945 11.7412 52.9641 11.7412 53.2482C11.7412 53.4967 11.9597 53.9434 12.709 55.2265C14.6209 58.5005 17.3071 61.5255 20.4848 63.9829C22.1661 65.2831 24.9649 66.9575 25.4568 66.9575C25.9869 66.9575 26.3088 66.4207 26.0634 65.9462C25.9809 65.7867 25.7954 65.6431 25.4423 65.4652C24.712 65.0975 23.7777 64.5382 22.7815 63.8724C18.9529 61.3138 15.6017 57.6464 13.4624 53.6739C12.8726 52.5787 12.6451 52.3956 12.1316 52.6029ZM64.6307 52.6368C64.5052 52.7074 64.2671 53.0642 63.9385 53.6744C61.7995 57.6463 58.4481 61.314 54.6198 63.8724C53.6235 64.5382 52.6892 65.0975 51.9589 65.4652C51.6058 65.6431 51.4203 65.7867 51.3378 65.9462C51.0925 66.4207 51.4144 66.9575 51.9444 66.9575C52.2002 66.9575 52.6337 66.7461 53.929 65.9897C57.203 64.0779 60.228 61.3916 62.6854 58.2139C63.9943 56.5214 65.66 53.7339 65.66 53.2361C65.66 52.7197 65.082 52.3831 64.6307 52.6368ZM38.3363 58.9239C37.2181 59.513 29.7393 63.8805 29.6109 64.0194L29.447 64.1969V69.4013V74.6058L29.6474 74.8189C29.9654 75.1572 38.4275 80 38.7006 80C38.9737 80 47.4358 75.1572 47.7539 74.8189L47.9542 74.6058V69.4013V64.1969L47.7903 64.0191C47.7002 63.9214 46.823 63.3818 45.8412 62.82C44.8594 62.2581 42.913 61.1379 41.5159 60.3306C40.1188 59.5233 38.8893 58.8463 38.7835 58.8262C38.672 58.8049 38.4844 58.8459 38.3363 58.9239ZM40.2307 61.2229C41.0122 61.6755 42.5778 62.5799 43.71 63.2329C44.842 63.8857 45.7676 64.4417 45.7667 64.4682C45.7643 64.5427 38.828 68.5189 38.7006 68.5189C38.5732 68.5189 31.6369 64.5427 31.6345 64.4682C31.6336 64.4417 32.5591 63.8857 33.6913 63.2329C34.8234 62.5799 36.389 61.6755 37.1705 61.2229C37.9519 60.7702 38.6405 60.3999 38.7006 60.3999C38.7607 60.3999 39.4493 60.7702 40.2307 61.2229ZM34.3186 67.7182C36.0675 68.7302 37.6049 69.6132 37.7352 69.6805L37.972 69.8029V73.9256C37.972 77.1953 37.9531 78.0405 37.8809 78.0106C37.8308 77.9898 36.2324 77.0719 34.3288 75.9708L30.8678 73.9689L30.849 69.841L30.8301 65.7131L30.9845 65.7956C31.0694 65.8411 32.5697 66.7062 34.3186 67.7182ZM46.5158 73.9605C46.4462 74.0274 39.5095 78.0327 39.4633 78.0327C39.4445 78.0327 39.4292 76.1808 39.4292 73.9174V69.8021L39.7025 69.6608C39.8528 69.583 41.4512 68.6651 43.2546 67.621L46.5334 65.7225L46.5522 69.815C46.5626 72.0659 46.5462 73.9313 46.5158 73.9605Z" fill="#FF725E"/>
</svg>
