<svg width="58" height="60" viewBox="0 0 58 60" fill="none" xmlns="http://www.w3.org/2000/svg">
<path fill-rule="evenodd" clip-rule="evenodd" d="M25.1793 2.34619C23.3965 3.37712 21.9048 4.26405 21.8645 4.31717C21.8043 4.3966 21.791 5.09792 21.7896 8.26428L21.7879 12.1148L21.9088 12.2455C22.0759 12.4262 28.4624 16.0952 28.6098 16.0952C28.757 16.0952 35.1417 12.4262 35.3089 12.2454L35.4298 12.1148L35.4286 8.26428C35.4274 4.69587 35.4206 4.40557 35.3346 4.30213C35.2835 4.2408 33.7867 3.35257 32.0083 2.32836C29.4993 0.883452 28.7351 0.466839 28.5978 0.468987C28.4659 0.471082 27.5964 0.948493 25.1793 2.34619ZM31.2789 3.1147C32.6735 3.9178 33.8086 4.59554 33.8013 4.62078C33.7899 4.65983 32.1436 5.62324 29.2904 7.26064L28.6023 7.65545L27.894 7.24426C27.5043 7.0181 26.3405 6.34562 25.3077 5.74989C24.2748 5.1541 23.4237 4.64603 23.4163 4.62078C23.3946 4.54726 28.5718 1.5903 28.6625 1.6243C28.7069 1.6409 29.8842 2.3116 31.2789 3.1147ZM24.3483 6.41818C25.1112 6.8596 26.2551 7.5208 26.8902 7.88752L28.0449 8.55425L28.0588 11.601L28.0727 14.6478L27.8145 14.4988C27.6725 14.4168 26.4881 13.7334 25.1824 12.9802L22.8084 11.6106L22.8084 8.58379C22.8084 5.98943 22.8193 5.56116 22.8847 5.58629C22.9267 5.6024 23.5853 5.97675 24.3483 6.41818ZM34.4093 8.58954V11.6106L32.0358 12.9802C30.7304 13.7334 29.5459 14.4168 29.4037 14.4988L29.145 14.6478L29.1589 11.6011L29.1728 8.55436L30.8377 7.5932C31.7534 7.06455 32.9135 6.39299 33.4157 6.10092C33.9179 5.8088 34.3469 5.56948 34.369 5.56916C34.3912 5.56878 34.4093 6.92797 34.4093 8.58954ZM18.3506 10.2465C17.3147 10.827 17.0133 11.0079 16.3634 11.4385C15.0523 12.3074 14.0955 13.0938 12.9231 14.2662C11.2793 15.9101 10.118 17.471 8.96022 19.5929C8.69458 20.0798 8.66949 20.3294 8.8665 20.5264C9.04588 20.7058 9.24788 20.7465 9.45927 20.6457C9.59918 20.579 9.70595 20.4277 10.0041 19.8741C11.3522 17.371 13.3981 14.9784 15.7457 13.1597C16.6229 12.4803 17.9784 11.6118 18.836 11.1799C19.262 10.9654 19.4022 10.773 19.3469 10.4786C19.2701 10.0689 18.8443 9.96978 18.3506 10.2465ZM38.0343 10.2096C37.8529 10.391 37.8142 10.5909 37.9184 10.8092C37.9835 10.9458 38.096 11.0361 38.3787 11.1784C39.2392 11.6118 40.5934 12.4792 41.4719 13.1597C43.8196 14.9784 45.8655 17.371 47.2136 19.8741C47.5117 20.4277 47.6185 20.579 47.7584 20.6457C47.9698 20.7465 48.1718 20.7058 48.3512 20.5264C48.5482 20.3294 48.5231 20.0798 48.2573 19.5929C47.0912 17.457 45.946 15.9176 44.2945 14.2662C42.6343 12.606 41.1119 11.4772 38.9121 10.2754C38.479 10.0389 38.2242 10.0197 38.0343 10.2096ZM28.3269 16.7977C28.0845 16.9389 28.0718 17.0538 28.0718 19.1029C28.0718 21.2631 28.0772 21.2991 28.4244 21.4441C28.5846 21.5111 28.6331 21.5111 28.7933 21.4441C29.1405 21.2991 29.1459 21.2631 29.1459 19.1029C29.1459 17.0391 29.1334 16.9305 28.8803 16.7951C28.7493 16.7249 28.4494 16.7264 28.3269 16.7977ZM3.47668 24.0429C1.4188 25.2321 0.205531 25.9639 0.162135 26.0421C0.108481 26.1388 0.0932276 26.9887 0.0917237 29.9645L0.0898438 33.7635L0.237541 33.9225C0.46811 34.1706 6.73487 37.7613 6.93499 37.76C7.04654 37.7593 7.48416 37.5342 8.30718 37.0543C8.97182 36.6667 10.434 35.8208 11.5565 35.1744C13.3128 34.163 13.6106 33.9734 13.6919 33.815C13.7799 33.6437 13.7855 33.3693 13.7725 29.8534L13.7585 26.0758L13.5974 25.9393C13.5088 25.8643 12.6992 25.3804 11.7982 24.864C10.8973 24.3476 9.47544 23.5289 8.63861 23.0446C7.4152 22.3368 7.07845 22.1645 6.91995 22.1657C6.7599 22.1668 6.11154 22.5203 3.47668 24.0429ZM25.2521 23.9841C23.5093 24.9847 22.0169 25.8652 21.9356 25.9408L21.7879 26.0781L21.7891 29.9351C21.7902 33.5079 21.7971 33.8006 21.8831 33.908C21.9342 33.9718 23.3897 34.8386 25.1178 35.8343C26.8459 36.8301 28.2903 37.6693 28.3278 37.6995C28.3652 37.7296 28.4916 37.7543 28.6088 37.7543C28.726 37.7543 28.8525 37.7296 28.8899 37.6995C28.9273 37.6693 30.3718 36.8301 32.0999 35.8343C33.8279 34.8386 35.2835 33.9718 35.3346 33.908C35.4205 33.8006 35.4274 33.5079 35.4286 29.9351L35.4298 26.0781L35.2821 25.9408C35.2008 25.8652 33.7084 24.9847 31.9656 23.9841C29.4577 22.5442 28.7576 22.1647 28.6088 22.1647C28.4601 22.1647 27.7599 22.5442 25.2521 23.9841ZM49.5818 22.4591C49.316 22.6163 47.9021 23.4329 46.4399 24.2739C44.9777 25.1148 43.7089 25.8643 43.6202 25.9393L43.4591 26.0758L43.4452 29.8534C43.4322 33.3693 43.4378 33.6437 43.5258 33.815C43.6071 33.9734 43.9048 34.163 45.6611 35.1744C46.7836 35.8208 48.2458 36.6667 48.9105 37.0543C49.7274 37.5307 50.1715 37.7593 50.2813 37.76C50.4805 37.7613 56.7513 34.1691 56.9801 33.9226L57.1278 33.7635V29.9804C57.1278 27.2662 57.1105 26.1595 57.0667 26.0632C57.0214 25.9638 56.1597 25.4408 53.7442 24.0467C50.9272 22.4208 50.4543 22.1648 50.274 22.1688C50.1234 22.172 49.9306 22.2529 49.5818 22.4591ZM9.54644 24.777C10.9621 25.5936 12.1205 26.279 12.1205 26.3001C12.1205 26.3474 7.00567 29.3074 6.92393 29.3074C6.89149 29.3074 6.43422 29.0578 5.90772 28.7528C5.38122 28.4478 4.21946 27.7771 3.32613 27.2624C2.43275 26.7478 1.70189 26.3145 1.702 26.2998C1.70211 26.285 2.47862 25.8258 3.42759 25.2793C4.37655 24.7328 5.54121 24.0621 6.01573 23.7889C6.49024 23.5157 6.89965 23.2921 6.92548 23.2921C6.95132 23.2921 8.13075 23.9603 9.54644 24.777ZM31.2248 24.7736C32.6366 25.5884 33.8035 26.2669 33.8181 26.2814C33.8498 26.3132 33.9417 26.2566 32.5564 27.0579C29.1207 29.0451 28.6399 29.3138 28.5608 29.2907C28.4894 29.2699 23.7088 26.5199 23.4529 26.3525C23.3813 26.3056 23.3813 26.2941 23.4529 26.2485C23.8584 25.9902 28.5437 23.2992 28.5931 23.2961C28.6288 23.2939 29.8131 23.9588 31.2248 24.7736ZM51.2019 23.7889C51.6765 24.0621 52.8411 24.7328 53.7901 25.2793C54.739 25.8258 55.5157 26.285 55.5159 26.2998C55.5164 26.3342 50.4262 29.2746 50.3252 29.2983C50.2321 29.3201 45.0876 26.3553 45.1088 26.2921C45.1271 26.2377 50.2016 23.2977 50.2827 23.2944C50.3138 23.2931 50.7274 23.5157 51.2019 23.7889ZM3.27334 28.453C4.40249 29.1056 5.56205 29.7758 5.85003 29.9423L6.37369 30.245V33.2672C6.37369 34.9294 6.35559 36.2882 6.33341 36.2867C6.31123 36.2852 5.13303 35.6124 3.71514 34.7916L1.13715 33.2991L1.12329 30.2828C1.11384 28.2364 1.12722 27.2665 1.16481 27.2665C1.19532 27.2665 2.14412 27.8005 3.27334 28.453ZM12.7105 30.2876L12.7099 33.3087L11.1679 34.1949C10.3198 34.6823 9.15399 35.3528 8.57717 35.6848C8.00034 36.0169 7.51031 36.2888 7.48813 36.2891C7.46595 36.2893 7.44839 34.93 7.44903 33.2684L7.45021 30.2473L7.94583 29.9677C8.2184 29.814 9.38403 29.1438 10.5361 28.4787C11.6881 27.8135 12.6488 27.2686 12.671 27.2679C12.6931 27.2671 12.7109 28.626 12.7105 30.2876ZM24.9093 28.4268C26.0136 29.0649 27.1764 29.7356 27.4935 29.9172L28.0699 30.2473L28.0708 33.2684C28.0713 34.93 28.0537 36.289 28.0315 36.2886C28.0093 36.2881 26.8311 35.6171 25.4132 34.7975L22.8352 33.3073L22.8214 30.2869C22.8135 28.5854 22.828 27.2665 22.8545 27.2665C22.8803 27.2665 23.805 27.7886 24.9093 28.4268ZM34.3963 30.2869L34.3825 33.3073L31.8045 34.7975C30.3866 35.6171 29.2084 36.2881 29.1862 36.2886C29.164 36.289 29.1461 34.93 29.1464 33.2684L29.1469 30.2473L30.3414 29.5617C30.9984 29.1845 32.1522 28.5164 32.9055 28.0768C33.6587 27.6372 34.3054 27.2751 34.3426 27.272C34.3964 27.2677 34.4074 27.8861 34.3963 30.2869ZM46.8254 28.5626C48.0165 29.2494 49.1658 29.9094 49.3792 30.0293L49.7675 30.2473L49.7686 33.2741C49.7698 36.135 49.7647 36.299 49.6758 36.2651C49.6241 36.2454 48.4404 35.5721 47.0452 34.769L44.5086 33.3087L44.5075 30.2819C44.5066 27.6813 44.5172 27.2592 44.5831 27.2845C44.6253 27.3006 45.6343 27.8758 46.8254 28.5626ZM56.0944 30.2828L56.0805 33.2991L53.5025 34.7916C52.0846 35.6124 50.9004 36.2852 50.8708 36.2867C50.8355 36.2886 50.822 35.2572 50.8314 33.2673L50.8457 30.2451L53.4094 28.7594C54.8194 27.9422 56.0035 27.2721 56.0407 27.2701C56.0944 27.2673 56.1054 27.8861 56.0944 30.2828ZM15.4759 29.4898C15.0796 29.6625 15.1026 30.2873 15.5105 30.4295C15.6243 30.4691 16.3871 30.489 17.7973 30.489C19.5798 30.489 19.9382 30.4762 20.0703 30.4079C20.2595 30.3101 20.3378 30.1766 20.3378 29.9519C20.3378 29.7272 20.2595 29.5938 20.0703 29.4959C19.8536 29.3839 15.7317 29.3784 15.4759 29.4898ZM37.1363 29.4986C36.9565 29.5962 36.8799 29.7317 36.8799 29.9519C36.8799 30.1766 36.9581 30.3101 37.1473 30.4079C37.2795 30.4762 37.6379 30.489 39.4203 30.489C40.8305 30.489 41.5934 30.4691 41.7072 30.4295C42.1402 30.2785 42.1366 29.6241 41.7021 29.4726C41.5943 29.435 40.7932 29.4156 39.4096 29.417C37.6373 29.4188 37.2583 29.4324 37.1363 29.4986ZM28.4109 38.4627C28.0786 38.6073 28.0718 38.6542 28.0718 40.801C28.0718 42.4252 28.0849 42.7652 28.1529 42.8966C28.2507 43.0859 28.3841 43.1641 28.6088 43.1641C28.8335 43.1641 28.967 43.0859 29.0648 42.8966C29.1328 42.7652 29.1459 42.4252 29.1459 40.801C29.1459 38.6425 29.1402 38.6047 28.795 38.4604C28.5804 38.3708 28.6229 38.3705 28.4109 38.4627ZM9.02456 39.243C8.85704 39.3106 8.73684 39.5093 8.73684 39.7187C8.73684 39.9019 8.89791 40.2311 9.45019 41.1769C10.8594 43.5902 12.8395 45.82 15.1818 47.6313C16.4211 48.5897 18.4841 49.8239 18.8467 49.8239C19.2374 49.8239 19.4747 49.4282 19.2939 49.0785C19.233 48.9609 19.0963 48.855 18.836 48.7239C18.2977 48.4529 17.609 48.0406 16.8747 47.5499C14.0527 45.6639 11.5825 42.9606 10.0055 40.0324C9.57082 39.2252 9.40309 39.0902 9.02456 39.243ZM47.7221 39.268C47.6296 39.32 47.4541 39.5831 47.2119 40.0328C45.6352 42.9606 43.1648 45.664 40.343 47.5499C39.6086 48.0406 38.9199 48.4529 38.3817 48.7239C38.1214 48.855 37.9847 48.9609 37.9238 49.0785C37.743 49.4282 37.9802 49.8239 38.3709 49.8239C38.5595 49.8239 38.879 49.6681 39.8338 49.1106C42.2471 47.7013 44.4769 45.7213 46.2882 43.3789C47.2531 42.1314 48.4808 40.0767 48.4808 39.7098C48.4808 39.3291 48.0548 39.081 47.7221 39.268ZM28.3403 43.9023C27.516 44.3365 22.0034 47.5558 21.9088 47.6582L21.7879 47.789V51.6253V55.4615L21.9356 55.6186C22.17 55.868 28.4075 59.4377 28.6088 59.4377C28.8101 59.4377 35.0476 55.868 35.2821 55.6186L35.4298 55.4615V51.6253V47.789L35.3089 47.658C35.2425 47.586 34.5959 47.1882 33.8722 46.7741C33.1485 46.36 31.7138 45.5343 30.684 44.9392C29.6542 44.3441 28.7479 43.8451 28.67 43.8303C28.5877 43.8146 28.4494 43.8448 28.3403 43.9023ZM29.7367 45.5969C30.3127 45.9305 31.4667 46.5972 32.3013 47.0785C33.1357 47.5597 33.818 47.9695 33.8173 47.989C33.8156 48.0439 28.7027 50.9748 28.6088 50.9748C28.5149 50.9748 23.4021 48.0439 23.4003 47.989C23.3997 47.9695 24.0819 47.5597 24.9164 47.0785C25.7509 46.5972 26.9049 45.9305 27.481 45.5969C28.057 45.2632 28.5645 44.9902 28.6088 44.9902C28.6531 44.9902 29.1607 45.2632 29.7367 45.5969ZM25.3788 50.3846C26.6679 51.1306 27.8012 51.7815 27.8972 51.8311L28.0718 51.9213V54.9602C28.0718 57.3703 28.0578 57.9933 28.0046 57.9712C27.9677 57.9559 26.7895 57.2793 25.3863 56.4677L22.8352 54.9921L22.8214 51.9494L22.8074 48.9066L22.9212 48.9675C22.9838 49.001 24.0897 49.6387 25.3788 50.3846ZM34.3695 54.9859C34.3182 55.0352 29.2051 57.9875 29.171 57.9875C29.1572 57.9875 29.1459 56.6225 29.1459 54.9541V51.9207L29.3473 51.8165C29.4581 51.7592 30.6363 51.0826 31.9656 50.313L34.3825 48.9136L34.3963 51.9302C34.404 53.5893 34.3919 54.9644 34.3695 54.9859Z" fill="white"/>
</svg>
