<svg width="62" height="48" viewBox="0 0 62 48" fill="none" xmlns="http://www.w3.org/2000/svg">
<path fill-rule="evenodd" clip-rule="evenodd" d="M0 19.3294V38.6588H13.2785H26.5569V42.5112V46.3633L23.7873 46.4611C21.463 46.5428 20.9995 46.6531 20.9053 47.1469C20.8001 47.6965 21.4566 47.7352 30.927 47.7352C40.3974 47.7352 41.0539 47.6965 40.9487 47.1469C40.8546 46.6531 40.391 46.5428 38.0668 46.4611L35.2971 46.3633V42.5112V38.6588H48.5756H61.8541V19.3294V0H30.927H0V19.3294ZM60.5094 2.35314V3.36163H30.927H1.34465V2.35314V1.34465H30.927H60.5094V2.35314ZM60.5094 19.3294V33.9525H30.927H1.34465V19.3294V4.70629H30.927H60.5094V19.3294ZM27.2615 8.21852C25.2479 8.87337 22.4365 10.8638 21.3951 12.3722C19.6978 14.8305 19.0729 16.7584 19.0729 19.5351C19.0729 21.7256 19.2329 22.4752 20.0935 24.3144C24.8895 34.563 39.5489 33.0822 42.2406 22.0772C43.9772 14.9771 38.7179 8.15297 31.2699 7.84235C29.7081 7.77714 28.1762 7.92102 27.2615 8.21852ZM30.2547 14.1189V18.8251H28.0696H25.8846V17.5158C25.8846 15.5065 27.1368 11.8945 28.2878 10.5834C30.0876 8.53384 30.2547 8.83437 30.2547 14.1189ZM32.9302 10.0711C34.287 11.4279 35.3035 14.1202 35.76 17.5645L35.9271 18.8251H33.7632H31.5994V14.1189C31.5994 11.2053 31.7274 9.41257 31.9355 9.41257C32.1204 9.41257 32.5678 9.70873 32.9302 10.0711ZM26.2513 11.1351C25.423 12.5406 24.5399 15.8511 24.5399 17.5511V18.8251H22.5229C20.545 18.8251 20.506 18.8073 20.5134 17.9007C20.5224 16.7682 21.585 14.3622 22.7519 12.8324C23.5614 11.7714 26.5267 9.60654 26.7986 9.87816C26.8655 9.94539 26.6194 10.5108 26.2513 11.1351ZM37.9965 11.9829C39.3674 13.2213 40.8089 15.8588 41.139 17.7326L41.3313 18.8251H39.3378H37.3447L37.1393 17.5645C36.6062 14.2869 36.2451 12.9685 35.4535 11.4067L34.5976 9.71747L35.6397 10.2563C36.2129 10.5528 37.2735 11.3297 37.9965 11.9829ZM24.5399 21.4439C24.5399 23.1331 25.4213 26.4514 26.2379 27.8367C27.0975 29.295 27.0736 29.3568 25.8889 28.7443C23.3002 27.4054 20.506 23.4504 20.506 21.1245C20.506 20.1816 20.5312 20.1698 22.5229 20.1698H24.5399V21.4439ZM30.2547 24.8761C30.2547 30.1606 30.0876 30.4611 28.2878 28.4115C27.1368 27.1005 25.8846 23.4884 25.8846 21.4792V20.1698H28.0696H30.2547V24.8761ZM35.829 20.9262C35.7446 21.342 35.5836 22.3569 35.4713 23.1812C35.359 24.0051 34.963 25.3666 34.5915 26.2066C33.931 27.7009 32.4156 29.5824 31.8727 29.5824C31.7224 29.5824 31.5994 27.4645 31.5994 24.8761V20.1698H33.7908C35.8848 20.1698 35.9755 20.2034 35.829 20.9262ZM41.021 21.464C40.4791 24.4287 38.3135 27.356 35.6397 28.7386L34.5976 29.2775L35.4535 27.5883C36.2451 26.0264 36.6062 24.708 37.1393 21.4304L37.3447 20.1698H39.3012H41.2577L41.021 21.464ZM60.5094 36.3056V37.3141H30.927H1.34465V36.3056V35.2972H30.927H60.5094V36.3056ZM33.9525 42.5247V46.3905H30.927H27.9016V42.5247V38.6588H30.927H33.9525V42.5247Z" fill="white"/>
</svg>
