<svg width="73" height="70" viewBox="0 0 73 70" fill="none" xmlns="http://www.w3.org/2000/svg">
<path fill-rule="evenodd" clip-rule="evenodd" d="M33.2615 0.527987C30.7405 1.72896 29.2816 4.08187 29.2816 6.94612C29.2816 9.61137 30.6809 12.0515 32.8635 13.1914C33.6563 13.6056 33.7391 13.8135 33.7391 15.3918V17.1346H24.215H14.6913L12.6734 18.1786C9.83619 19.6467 8.35026 21.8223 7.87553 25.2043L7.53358 27.6415H5.2055C3.057 27.6415 2.79083 27.7176 1.75574 28.6263C0.114429 30.0674 -0.0699193 31.1018 0.0462935 38.2058C0.140219 43.9476 0.203579 44.5453 0.805338 45.3498C2.07731 47.0519 2.95957 47.4703 5.35101 47.5069L7.57274 47.541L7.79052 49.2921C8.11401 51.894 9.1042 53.9025 10.828 55.4521C12.2582 56.738 14.8254 57.8887 16.2642 57.8887C16.9831 57.8887 16.9818 57.8572 16.5148 64.2594C15.9522 71.9696 16.1384 71.9629 25.4278 63.9381L32.4305 57.8887H44.4893C58.2336 57.8887 58.7532 57.8177 61.2793 55.5941C63.062 54.0247 64.2066 51.7791 64.4915 49.2921L64.6921 47.541L66.8343 47.5101C69.4693 47.4719 70.7565 46.7937 71.6343 44.9799C72.195 43.8215 72.2644 43.0058 72.2644 37.5601C72.2644 30.7815 72.0903 29.9473 70.3729 28.5022C69.4651 27.7383 69.0878 27.6415 67.0177 27.6415H64.6854L64.4581 25.6815C64.0515 22.1786 62.5373 19.7509 59.8227 18.249L58.096 17.2938L48.3851 17.1346L38.6742 16.9754L38.5939 15.3835C38.5143 13.8113 38.5309 13.781 39.9254 12.9414C40.702 12.474 41.7412 11.4816 42.2347 10.7359C43.0221 9.5461 43.1316 9.08284 43.1316 6.94612C43.1316 4.82149 43.0199 4.34263 42.2532 3.18464C40.8806 1.11032 39.1517 0.135411 36.6399 0.0188798C35.0728 -0.0537134 34.2097 0.0761901 33.2615 0.527987ZM57.9305 20.7165C58.7016 21.1104 59.7708 21.9834 60.3063 22.6562L61.2799 23.8791L61.3697 36.9147C61.4544 49.1724 61.4232 50.0321 60.8504 51.327C60.1086 53.0043 58.5628 54.2396 56.6569 54.679C55.8141 54.8732 50.3034 55.0108 43.187 55.0155L31.1436 55.0232L25.4148 59.9895C22.264 62.7209 19.6321 64.9019 19.5662 64.836C19.5003 64.7701 19.5974 62.7477 19.7821 60.3419C20.1689 55.2983 20.0782 55.0241 18.0195 55.0213C15.0116 55.0175 12.5712 53.7149 11.4488 51.5152C10.8471 50.3358 10.8149 49.6245 10.8149 37.5451C10.8149 29.3265 10.935 24.5 11.1537 23.9211C11.6351 22.6469 12.994 21.29 14.4764 20.6038C15.6736 20.0495 16.9726 20.0138 36.1391 20.0072L56.5283 20.0002L57.9305 20.7165ZM21.8488 28.0914C18.6559 29.2676 17.2662 32.6447 18.7658 35.5838C20.4106 38.8082 24.3032 39.6175 27.0497 37.3063C28.393 36.176 28.9632 34.9502 28.9632 33.193C28.9632 29.4143 25.3304 26.8093 21.8488 28.0914ZM46.9523 27.9927C44.8325 28.6445 43.2937 30.8124 43.2921 33.1497C43.2876 38.9613 51.1092 40.7274 53.6007 35.4772C54.9261 32.6836 53.7229 29.6047 50.773 28.2433C49.3855 27.603 48.4249 27.54 46.9523 27.9927ZM28.008 43.8037C27.4958 43.9636 26.7345 44.799 26.7345 45.2015C26.7345 45.75 28.3016 46.8889 30.5552 47.9785C32.8183 49.0725 33.1119 49.133 36.1716 49.133C39.3714 49.133 39.4249 49.1202 42.1962 47.7002C45.204 46.1589 45.8883 45.4906 45.3435 44.6268C44.7605 43.7025 43.7662 43.5538 42.6072 44.217C39.6491 45.9096 38.8843 46.2031 37.0424 46.3508C34.4087 46.5623 33.2239 46.2999 31.1359 45.0426C29.0158 43.7658 28.6254 43.6114 28.008 43.8037Z" fill="#FF725E"/>
</svg>
