<svg width="63" height="62" viewBox="0 0 63 62" fill="none" xmlns="http://www.w3.org/2000/svg">
<path fill-rule="evenodd" clip-rule="evenodd" d="M28.8083 0.0719062C22.5583 0.66695 16.9256 2.91145 12.1358 6.71548C10.8677 7.72247 8.28549 10.2925 7.30093 11.5274C3.65555 16.0996 1.42617 21.4634 0.704464 27.3987C0.515168 28.955 0.488696 32.4818 0.655329 33.9412C1.25489 39.1923 2.85285 43.6531 5.65337 47.8937C10.0236 54.511 16.9018 59.2455 24.675 60.9865C27.1053 61.5309 28.1655 61.6348 31.3161 61.6376C34.4501 61.6404 35.2618 61.5693 37.6755 61.081C43.0243 59.9987 48.3615 57.2456 52.3797 53.4958C57.6114 48.6137 60.8783 42.4119 61.9715 35.2869C62.2251 33.6336 62.3243 29.7916 62.159 28.0256C61.5593 21.6209 59.0012 15.5869 54.8308 10.7408C50.6902 5.92927 45.0656 2.44299 38.979 0.915287C37.9132 0.647833 36.4502 0.372026 35.2172 0.20619C33.9393 0.0343214 30.0575 -0.0470655 28.8083 0.0719062ZM33.1274 1.55395C39.3758 1.95522 44.9699 4.11314 49.8023 7.98621C55.1309 12.2569 58.8447 18.3505 60.193 25.0348C60.6887 27.492 60.8847 30.7943 60.6778 33.1988C60.1686 39.1147 58.0184 44.5423 54.3545 49.1607C53.3607 50.4134 50.9585 52.8132 49.707 53.8036C42.7024 59.3464 33.6655 61.4284 25.0001 59.4957C13.3846 56.9052 4.41598 47.4639 2.44389 35.7509C2.11898 33.8213 2.02991 32.413 2.08424 30.0617C2.1592 26.8169 2.53891 24.6125 3.54232 21.5986C6.03828 14.101 11.3935 7.96747 18.4518 4.52211C20.913 3.3207 22.961 2.6169 25.4645 2.11206C28.2715 1.54597 30.4885 1.38449 33.1274 1.55395ZM43.1741 11.1133C42.0591 11.5081 41.6978 11.8545 40.2229 13.9425C39.6821 14.7081 37.039 18.4583 34.3493 22.2763C31.6597 26.0943 29.2499 29.4763 28.9943 29.7919C28.7387 30.1075 28.5296 30.455 28.5296 30.564C28.5296 30.7596 28.9745 31.225 29.653 31.7393C30.2035 32.1567 30.3779 32.0958 31.0876 31.2387C31.4309 30.824 33.2006 28.8713 35.0203 26.8992C44.9045 16.1868 45.4815 15.5437 45.8098 14.8736C46.3612 13.7479 46.3887 12.8344 45.897 11.9743C45.3712 11.0544 44.2984 10.7151 43.1741 11.1133ZM43.507 11.6375C43.4432 11.6633 43.3387 11.6633 43.2748 11.6375C43.211 11.6118 43.2632 11.5907 43.3909 11.5907C43.5187 11.5907 43.5709 11.6118 43.507 11.6375ZM44.134 11.6111C44.134 11.6303 44.0608 11.7035 43.9715 11.7735C43.8241 11.8889 43.8209 11.8856 43.9363 11.7385C44.0577 11.5839 44.134 11.5348 44.134 11.6111ZM42.973 11.7617C42.7176 11.8713 42.571 11.8713 42.7408 11.7617C42.8174 11.7122 42.9428 11.674 43.0194 11.6768C43.1113 11.6802 43.0955 11.709 42.973 11.7617ZM42.1638 12.2489C41.9448 12.4658 41.7449 12.6296 41.7196 12.6129C41.6689 12.5793 42.4229 11.8545 42.5085 11.8545C42.538 11.8545 42.3829 12.0319 42.1638 12.2489ZM43.4162 12.1872C43.2002 12.368 42.9146 12.6491 42.7817 12.8117C42.6487 12.9743 42.584 13.0182 42.6377 12.9094C42.7371 12.7085 43.64 11.853 43.7493 11.8563C43.7821 11.8572 43.6322 12.0062 43.4162 12.1872ZM41.9977 13.0145C42.1177 13.1421 42.195 13.2465 42.1694 13.2465C42.1439 13.2465 42.0248 13.1421 41.9048 13.0145C41.7848 12.8869 41.7075 12.7825 41.7331 12.7825C41.7586 12.7825 41.8777 12.8869 41.9977 13.0145ZM42.5085 13.2465C42.477 13.2975 42.4014 13.3386 42.3405 13.3379C42.274 13.337 42.2855 13.3005 42.3692 13.2465C42.5477 13.1312 42.5798 13.1312 42.5085 13.2465ZM11.5432 17.2512C11.0559 17.3911 10.8373 17.5736 10.5707 18.0631L10.3246 18.5149L10.3249 31.0305L10.3252 43.5462L10.5202 43.871C10.8721 44.4576 11.1619 44.6935 11.6622 44.8006C11.9987 44.8727 17.7945 44.8939 31.6877 44.8737C50.2524 44.8468 51.2549 44.8371 51.5433 44.6797C51.7103 44.5886 51.9716 44.3422 52.1238 44.1322L52.4006 43.7504V31.0486V18.3469L52.1805 18.0007C51.6587 17.1805 51.4969 17.1453 48.2444 17.1447L45.6207 17.1442L45.233 17.4922C45.0198 17.6836 44.5167 18.216 44.115 18.6754L43.3845 19.5106L46.6619 19.557L49.9392 19.6034L49.9628 29.742L49.9865 39.8805H31.409H12.8316L12.8552 29.742L12.8788 19.6034L23.6693 19.557L34.4598 19.5106L35.2564 18.3821C35.6946 17.7616 36.0532 17.2291 36.0532 17.1989C36.0532 17.1023 11.882 17.1537 11.5432 17.2512ZM26.1611 31.5694C25.5363 31.7998 25.1767 32.283 24.7356 33.4845C24.0999 35.217 23.6411 35.6061 22.1415 35.6848C21.6676 35.7097 21.2606 35.7612 21.237 35.7993C21.1555 35.9313 22.0791 36.094 23.1921 36.1438C25.8893 36.2644 28.9222 35.5793 29.6812 34.6779C30.0494 34.2408 30.0801 33.8426 29.7913 33.2528C29.1769 31.998 27.3263 31.1398 26.1611 31.5694ZM27.0435 46.7021C27.0435 46.7279 26.9794 47.1756 26.901 47.6969C26.7253 48.8659 26.5056 49.2694 25.6892 49.9231C25.3352 50.2065 25.0982 50.4645 25.1143 50.5486C25.1389 50.6762 25.8306 50.6919 31.3794 50.6919C34.8099 50.6919 37.6421 50.6666 37.6731 50.6356C37.7801 50.5286 37.6117 50.319 37.0425 49.8508C36.2035 49.1607 36.0207 48.7562 35.8182 47.1423L35.7571 46.6551H31.4003C29.0041 46.6551 27.0435 46.6762 27.0435 46.7021Z" fill="white"/>
</svg>
