<svg width="86" height="85" viewBox="0 0 86 85" fill="none" xmlns="http://www.w3.org/2000/svg">
<path fill-rule="evenodd" clip-rule="evenodd" d="M42.5577 0.0132575C41.8463 0.149811 41.2795 0.454278 40.7456 0.986512C40.0987 1.63154 39.7937 2.37368 39.7937 3.30239C39.7937 4.22802 40.0949 4.9607 40.7447 5.61572C41.048 5.92146 41.2555 6.07614 41.5746 6.23459C41.8086 6.35079 42.0538 6.45992 42.1195 6.47709L42.2388 6.50829V14.6193V22.7303H37.9333H33.6278V19.0876C33.6278 15.6651 33.6334 15.443 33.7208 15.415C33.9974 15.3264 34.5906 15.0006 34.8139 14.8147C35.388 14.3366 35.8329 13.6036 35.968 12.9131C36.068 12.402 36.0133 11.6201 35.8442 11.1439C35.3777 9.83006 34.1358 8.94674 32.7508 8.94355C32.1594 8.94217 31.8099 9.02206 31.2624 9.28379C30.5129 9.64216 29.8665 10.3639 29.5872 11.1546C29.4227 11.6204 29.3822 12.5748 29.5066 13.052C29.7939 14.1531 30.6371 15.0498 31.7275 15.4138C31.8149 15.4429 31.8206 15.6655 31.8206 19.0876V22.7303L30.3721 22.7312C29.5755 22.7317 28.6964 22.7559 28.4187 22.7848C26.4333 22.9919 24.8015 24.1209 23.9267 25.893C23.4171 26.925 23.3182 27.5567 23.3168 29.7865L23.3159 31.235H19.6731C16.2511 31.235 16.0285 31.2293 15.9993 31.1419C15.6379 30.0592 14.7359 29.2063 13.6565 28.9265C13.2465 28.8203 12.4315 28.8187 12.0185 28.9232C11.1072 29.1539 10.2717 29.83 9.87926 30.6544C9.60743 31.2253 9.52775 31.5691 9.52913 32.1652C9.53317 33.9185 10.8981 35.3443 12.6482 35.4233C13.3136 35.4533 13.7138 35.375 14.2796 35.1041C14.8928 34.8107 15.505 34.2084 15.7814 33.6269C15.8855 33.4077 15.9842 33.1864 16.0006 33.1352C16.0286 33.0479 16.2507 33.0422 19.6731 33.0422H23.3159V37.3479V41.6535L15.2039 41.6401L7.09196 41.6266L6.98342 41.3343C6.62074 40.3577 5.71367 39.5495 4.68742 39.2886C4.28105 39.1854 3.4949 39.1854 3.08854 39.2886C2.00148 39.565 1.10663 40.3945 0.739063 41.4665C0.612981 41.8343 0.593048 41.9758 0.593048 42.5037C0.593048 43.0316 0.612981 43.173 0.739063 43.5409C1.10663 44.6129 2.00148 45.4424 3.08854 45.7187C3.4949 45.822 4.28105 45.822 4.68742 45.7187C5.58923 45.4895 6.41775 44.8289 6.82018 44.0183C6.93637 43.7843 7.0455 43.5392 7.06267 43.4735L7.09387 43.3541H15.2048H23.3159V47.6596V51.9651H19.6731C16.2507 51.9651 16.0286 51.9595 16.0006 51.8721C15.7536 51.1008 15.0437 50.2732 14.3328 49.9276C13.7376 49.6382 13.3535 49.558 12.6886 49.5844C12.2558 49.6015 12.0357 49.6392 11.7295 49.7482C10.4145 50.2168 9.53232 51.4573 9.52913 52.8422C9.52775 53.4383 9.60743 53.7821 9.87926 54.353C10.2717 55.1774 11.1072 55.8535 12.0185 56.0841C12.4315 56.1887 13.2465 56.187 13.6565 56.0808C14.7359 55.8011 15.6379 54.9482 15.9993 53.8654C16.0285 53.778 16.2508 53.7724 19.667 53.7724H23.3036L23.3318 55.5663C23.3521 56.8632 23.3819 57.4634 23.4393 57.7324C23.8396 59.6081 25.1107 61.1368 26.8627 61.8494C27.7116 62.1947 28.3706 62.2749 30.3721 62.2762L31.8206 62.2771V65.9198C31.8206 69.3418 31.8149 69.5644 31.7275 69.5936C30.6371 69.9576 29.7939 70.8542 29.5066 71.9554C29.3822 72.4326 29.4227 73.387 29.5872 73.8528C29.8665 74.6434 30.5129 75.3652 31.2624 75.7236C31.8099 75.9853 32.1594 76.0652 32.7508 76.0638C34.1357 76.0606 35.3761 75.1784 35.8447 73.8635C35.9538 73.5573 35.9914 73.3371 36.0086 72.9043C36.0349 72.2395 35.9548 71.8554 35.6654 71.2601C35.3933 70.7005 34.7652 70.0743 34.2125 69.8116C33.9932 69.7074 33.772 69.6088 33.7208 69.5923C33.6334 69.5644 33.6278 69.3423 33.6278 65.9198V62.2771H37.9333H42.2388V70.3881V78.4991L42.1195 78.5303C42.0538 78.5474 41.8086 78.6566 41.5746 78.7728C40.764 79.1752 40.1035 80.0037 39.8742 80.9055C39.7709 81.3119 39.7709 82.098 39.8742 82.5044C40.0232 83.0904 40.3058 83.5823 40.7456 84.0208C41.4591 84.7322 42.1001 85 43.0893 85C44.0781 85 44.7182 84.7326 45.4338 84.0208C45.7532 83.7031 45.8835 83.5235 46.0536 83.1667C46.172 82.9182 46.295 82.5881 46.3269 82.4332C46.4096 82.0311 46.3984 81.2759 46.3043 80.9055C46.075 80.0037 45.4145 79.1752 44.6039 78.7728C44.3699 78.6566 44.1248 78.5474 44.0591 78.5303L43.9397 78.4991V70.3881V62.2771H48.2452H52.5507V65.9198C52.5507 69.3423 52.5451 69.5644 52.4577 69.5923C51.6827 69.8406 50.8375 70.5654 50.5069 71.2654C50.2219 71.8688 50.144 72.248 50.1699 72.9043C50.1972 73.5904 50.3572 74.0878 50.7228 74.623C51.0532 75.1065 51.4692 75.4667 51.989 75.7193C52.5353 75.9847 52.8837 76.0652 53.4809 76.0638C54.3741 76.0617 55.1447 75.7366 55.7939 75.0878C56.4496 74.4324 56.7499 73.7008 56.7499 72.7582C56.7499 71.9642 56.5287 71.3198 56.0382 70.685C55.6972 70.2436 55.0359 69.7888 54.451 69.5936C54.3636 69.5644 54.358 69.3418 54.358 65.9198V62.2771L55.8064 62.2762C57.8079 62.2749 58.4669 62.1947 59.3158 61.8494C61.0678 61.1368 62.3389 59.6081 62.7392 57.7324C62.7966 57.4634 62.8264 56.8632 62.8468 55.5663L62.8749 53.7724H66.5115C69.9277 53.7724 70.15 53.778 70.1792 53.8654C70.5432 54.9559 71.4398 55.799 72.541 56.0863C73.0182 56.2108 73.9725 56.1703 74.4384 56.0057C75.229 55.7264 75.9508 55.0801 76.3091 54.3305C76.5709 53.7831 76.6508 53.4336 76.6494 52.8422C76.6463 51.4827 75.8096 50.2796 74.5136 49.771C74.0283 49.5806 73.2373 49.5167 72.6831 49.6231C71.9752 49.7591 71.1573 50.2765 70.7038 50.8755C70.5275 51.1083 70.2724 51.5929 70.1792 51.8721C70.15 51.9595 69.9274 51.9651 66.5054 51.9651H62.8627V47.6595V43.3538L70.9746 43.3673L79.0866 43.3807L79.1951 43.6731C79.5578 44.6497 80.4649 45.4578 81.4911 45.7187C81.8615 45.8129 82.6167 45.824 83.0188 45.7413C83.1737 45.7094 83.4975 45.5893 83.7383 45.4743C84.5257 45.0984 85.1479 44.3913 85.4395 43.5409C85.5655 43.173 85.5855 43.0316 85.5855 42.5037C85.5855 41.9758 85.5655 41.8343 85.4395 41.4665C85.0719 40.3945 84.177 39.565 83.09 39.2886C82.6836 39.1854 81.8975 39.1854 81.4911 39.2886C80.5893 39.5179 79.7608 40.1784 79.3583 40.989C79.2421 41.223 79.133 41.4682 79.1159 41.5339L79.0847 41.6532H70.9737H62.8627V37.3477V33.0422H66.5054C69.9279 33.0422 70.15 33.0479 70.1779 33.1352C70.1943 33.1864 70.293 33.4077 70.3972 33.6269C70.6736 34.2084 71.2858 34.8107 71.8989 35.1041C72.4734 35.3791 72.8693 35.455 73.5602 35.4224C74.0002 35.4016 74.1833 35.3659 74.5136 35.2363C75.8096 34.7277 76.6463 33.5247 76.6494 32.1652C76.6508 31.5738 76.5709 31.2243 76.3091 30.6768C75.9508 29.9273 75.229 29.281 74.4384 29.0016C73.9725 28.8371 73.0182 28.7966 72.541 28.9211C71.4398 29.2084 70.5432 30.0515 70.1792 31.1419C70.15 31.2293 69.9274 31.235 66.5054 31.235H62.8627L62.8618 29.7865C62.8605 27.785 62.7803 27.126 62.435 26.2772C61.7223 24.5251 60.1937 23.2541 58.318 22.8538C58.049 22.7964 57.4487 22.7665 56.1519 22.7462L54.358 22.7181V19.0814C54.358 15.6652 54.3636 15.4429 54.451 15.4138C55.0359 15.2185 55.6972 14.7638 56.0382 14.3224C56.5287 13.6876 56.7499 13.0432 56.7499 12.2491C56.7499 11.3065 56.4496 10.5749 55.7939 9.91957C55.3607 9.48663 54.9806 9.25711 54.3845 9.06868C53.8637 8.904 53.0463 8.90379 52.5241 9.0682C51.7534 9.3109 51.1598 9.7448 50.7217 10.386C50.3572 10.9196 50.1971 11.4175 50.1699 12.103C50.144 12.7593 50.2219 13.1385 50.5069 13.7419C50.7669 14.2924 51.4068 14.9299 51.966 15.1958C52.1853 15.3 52.4065 15.3986 52.4577 15.415C52.5451 15.443 52.5507 15.6651 52.5507 19.0876V22.7303H48.2452H43.9397V14.6193V6.50829L44.0591 6.47709C44.1248 6.45992 44.3699 6.35079 44.6039 6.23459C45.4145 5.83216 46.075 5.00365 46.3043 4.10183C46.3984 3.73145 46.4096 2.97629 46.3269 2.57412C46.2298 2.10201 45.8853 1.45358 45.5298 1.07353C44.8805 0.379437 44.1394 0.0364329 43.2221 0.0056034C42.9298 -0.00423015 42.6308 -0.000775267 42.5577 0.0132575ZM43.7675 1.92394C44.0708 2.07511 44.3039 2.31292 44.4818 2.65274C44.6475 2.96917 44.649 3.63285 44.4847 3.94641C44.2996 4.29973 44.1158 4.48178 43.7696 4.65474C42.9072 5.08572 41.8909 4.64124 41.6217 3.7154C41.4162 3.0085 41.7486 2.25408 42.4111 1.92394C42.6329 1.81338 42.7617 1.78749 43.0893 1.78749C43.4169 1.78749 43.5456 1.81338 43.7675 1.92394ZM33.4005 10.8689C33.7021 11.0234 33.9892 11.3197 34.1252 11.6163C34.295 11.9872 34.2816 12.5711 34.095 12.9281C33.51 14.0472 31.9265 14.0506 31.3607 12.9341C30.9373 12.0986 31.3356 11.1257 32.2395 10.7876C32.5184 10.6832 33.1207 10.7254 33.4005 10.8689ZM54.1956 10.907C54.9079 11.2947 55.1888 12.2058 54.8191 12.9293C54.2444 14.0542 52.6718 14.0535 52.0836 12.9281C51.8961 12.5695 51.8834 11.9874 52.055 11.6127C52.4183 10.8191 53.4246 10.4874 54.1956 10.907ZM58.1585 24.6043C58.3339 24.6556 58.7029 24.8082 58.9784 24.9434C60.0674 25.4777 60.8567 26.5729 61.0494 27.8167C61.1334 28.3592 61.1334 56.6481 61.0494 57.1906C60.9184 58.0363 60.5571 58.7444 59.9435 59.3579C59.3162 59.9853 58.5997 60.3444 57.7282 60.4681C57.4236 60.5114 53.3251 60.5235 42.8235 60.5121C26.486 60.4944 28.1762 60.5429 27.2001 60.0639C26.1111 59.5296 25.3218 58.4344 25.1292 57.1906C25.0451 56.6481 25.0451 28.3592 25.1292 27.8167C25.2601 26.9711 25.6214 26.263 26.235 25.6494C26.8285 25.0559 27.4732 24.7143 28.2858 24.5627C28.587 24.5065 31.4384 24.495 43.2487 24.5021C56.9917 24.5104 57.8581 24.5164 58.1585 24.6043ZM13.5099 30.7713C14.6397 31.3485 14.6419 32.9197 13.5137 33.5094C13.1571 33.6958 12.5713 33.7096 12.2066 33.5402C11.7009 33.3053 11.36 32.82 11.3166 32.273C11.2855 31.8813 11.3574 31.5973 11.5685 31.2787C11.9845 30.6506 12.8374 30.4277 13.5099 30.7713ZM73.9799 30.7429C74.2688 30.8706 74.5655 31.1559 74.7283 31.4623C74.8993 31.7839 74.8997 32.4925 74.7291 32.8133C74.5714 33.1101 74.2653 33.4039 73.9719 33.5402C73.6072 33.7096 73.0214 33.6958 72.6648 33.5094C72.1346 33.2322 71.8208 32.7203 71.8245 32.1386C71.829 31.4317 72.2504 30.8779 72.962 30.6436C73.1737 30.5739 73.7179 30.627 73.9799 30.7429ZM39.0214 33.2681C38.9977 33.332 38.6105 34.4704 36.6577 40.218C34.8847 45.4369 33.788 48.6693 33.3124 50.0782C33.0459 50.8675 32.8045 51.5683 32.776 51.6354C32.7475 51.7026 32.7242 51.7684 32.7242 51.7816C32.7242 51.7948 33.2849 51.8057 33.9702 51.8057H35.2163L36.1864 48.8822L37.1566 45.9587H40.4387C42.481 45.9587 43.7327 45.978 43.7524 46.0098C43.7937 46.0767 45.6456 51.5301 45.6799 51.6861L45.7062 51.8057H47.0023C47.7151 51.8057 48.2984 51.7948 48.2984 51.7814C48.2984 51.7681 47.4471 49.2625 46.4067 46.2135C45.3662 43.1645 44.0014 39.1629 43.3737 37.3211C42.746 35.4793 42.171 33.799 42.0958 33.587L41.9593 33.2017H40.5027C39.3862 33.2017 39.0404 33.2172 39.0214 33.2681ZM51.0624 42.5037V51.8057H52.2584H53.4543V42.5037V33.2017H52.2584H51.0624V42.5037ZM40.5874 35.8195C40.9477 37.257 41.6926 39.5732 43.1074 43.6555C43.18 43.8652 43.2257 44.0505 43.2087 44.0675C43.1606 44.1155 37.6675 44.1037 37.6675 44.0556C37.6675 44.0321 37.7774 43.6912 37.9118 43.2981C39.3979 38.949 39.9833 37.0972 40.3013 35.7398C40.3544 35.5132 40.4128 35.3279 40.431 35.3279C40.4492 35.3279 40.5196 35.5491 40.5874 35.8195ZM4.32778 41.0433C4.72877 41.1624 5.02691 41.4146 5.22975 41.8065C5.37555 42.0881 5.40287 42.1981 5.40287 42.5037C5.40287 42.8093 5.37555 42.9192 5.22975 43.2009C4.6518 44.3174 3.06983 44.3062 2.50953 43.1819C2.33693 42.8355 2.31939 42.2279 2.47232 41.8924C2.80156 41.1702 3.57043 40.8184 4.32778 41.0433ZM82.9513 41.1198C83.526 41.413 83.8054 41.8657 83.8054 42.5037C83.8054 42.8313 83.7796 42.96 83.669 43.1819C83.3389 43.8443 82.5844 44.1768 81.8775 43.9713C81.454 43.8481 81.1558 43.6008 80.9488 43.2009C80.8035 42.9202 80.7759 42.8095 80.7768 42.5123C80.7792 41.8 81.246 41.1808 81.9095 41.0099C82.1733 40.9421 82.7148 40.9991 82.9513 41.1198ZM13.5147 51.5028C14.4247 51.9639 14.6433 53.1941 13.9447 53.9233C13.6432 54.238 13.2998 54.381 12.8445 54.3812C12.2136 54.3816 11.735 54.0939 11.4558 53.5466C11.3192 53.279 11.2689 52.7648 11.35 52.4651C11.5982 51.5484 12.667 51.0733 13.5147 51.5028ZM73.9751 51.4725C74.2634 51.6017 74.5705 51.8957 74.7291 52.194C74.8997 52.5148 74.8993 53.2235 74.7283 53.545C74.5663 53.85 74.2705 54.1352 73.9766 54.2698C73.6068 54.4391 73.0212 54.4262 72.6696 54.2409C71.4052 53.5744 71.5834 51.8277 72.962 51.3738C73.1736 51.3041 73.7181 51.3572 73.9751 51.4725ZM33.3248 71.3562C33.648 71.4992 33.9304 71.7643 34.095 72.0793C34.2114 72.3019 34.2364 72.4203 34.2366 72.7485C34.2369 73.2198 34.1163 73.5321 33.8192 73.8293C33.4829 74.1655 33.2392 74.262 32.7242 74.2627C32.3216 74.2633 32.2412 74.2461 31.9864 74.105C31.2827 73.7153 30.991 72.8075 31.3433 72.1041C31.7216 71.3491 32.5779 71.0259 33.3248 71.3562ZM54.088 71.3707C55.2234 71.8722 55.2854 73.4995 54.1921 74.105C53.9374 74.2461 53.8569 74.2633 53.4543 74.2627C52.9393 74.262 52.6956 74.1655 52.3593 73.8293C52.0622 73.5321 51.9416 73.2198 51.9419 72.7485C51.9421 72.421 51.9671 72.3023 52.082 72.084C52.4795 71.3287 53.3178 71.0306 54.088 71.3707ZM43.7865 80.3632C44.7007 80.8365 44.8976 81.9716 44.2028 82.763C43.6599 83.3813 42.5186 83.3813 41.9757 82.763C41.5965 82.3312 41.4711 81.8099 41.6217 81.292C41.7448 80.8684 41.9922 80.5702 42.392 80.3632C42.6737 80.2174 42.7837 80.1901 43.0893 80.1901C43.3948 80.1901 43.5048 80.2174 43.7865 80.3632Z" fill="#FF725E"/>
</svg>
