<svg width="84" height="65" viewBox="0 0 84 65" fill="none" xmlns="http://www.w3.org/2000/svg">
<path fill-rule="evenodd" clip-rule="evenodd" d="M0.11322 26.3084V52.4331H18.0598H36.0064V57.6399V62.8463L32.2631 62.9785C29.1217 63.0889 28.4952 63.2379 28.368 63.9053C28.2258 64.6482 29.1131 64.7004 41.9129 64.7004C54.7126 64.7004 55.6 64.6482 55.4578 63.9053C55.3305 63.2379 54.704 63.0889 51.5627 62.9785L47.8193 62.8463V57.6399V52.4331H65.7659H83.7125V26.3084V0.183594H41.9129H0.11322V26.3084ZM81.8951 3.364V4.72703H41.9129H1.9306V3.364V2.00097H41.9129H81.8951V3.364ZM81.8951 26.3084V46.0723H41.9129H1.9306V26.3084V6.54441H41.9129H81.8951V26.3084ZM36.9587 11.2914C34.2372 12.1765 30.4375 14.8666 29.0299 16.9053C26.736 20.2279 25.8913 22.8335 25.8913 26.5864C25.8913 29.5469 26.1076 30.5601 27.2707 33.0458C33.7528 46.8974 53.5659 44.896 57.2038 30.0222C59.5509 20.426 52.4427 11.2028 42.3763 10.783C40.2654 10.6948 38.195 10.8893 36.9587 11.2914ZM41.0042 19.266V25.6269H38.0509H35.0977V23.8572C35.0977 21.1416 36.7901 16.2596 38.3458 14.4877C40.7784 11.7176 41.0042 12.1238 41.0042 19.266ZM44.6203 13.7953C46.454 15.629 47.828 19.2679 48.445 23.9231L48.6708 25.6269H45.7462H42.8215V19.266C42.8215 15.3282 42.9947 12.9052 43.2759 12.9052C43.5258 12.9052 44.1305 13.3055 44.6203 13.7953ZM35.5934 15.2333C34.4739 17.1329 33.2803 21.6073 33.2803 23.9049V25.6269H30.5543C27.8809 25.6269 27.8282 25.6028 27.8382 24.3774C27.8505 22.8467 29.2866 19.595 30.8637 17.5273C31.9577 16.0934 35.9655 13.1674 36.3331 13.5345C36.4235 13.6254 36.0909 14.3896 35.5934 15.2333ZM51.4677 16.3791C53.3205 18.0529 55.2688 21.6177 55.7149 24.1502L55.9748 25.6269H53.2805H50.5867L50.3091 23.9231C49.5885 19.4932 49.1006 17.7113 48.0306 15.6004L46.8738 13.3173L48.2823 14.0456C49.057 14.4464 50.4904 15.4963 51.4677 16.3791ZM33.2803 29.1662C33.2803 31.4493 34.4716 35.9341 35.5752 37.8065C36.737 39.7774 36.7047 39.861 35.1036 39.0332C31.6047 37.2235 27.8282 31.8782 27.8282 28.7346C27.8282 27.4601 27.8623 27.4442 30.5543 27.4442H33.2803V29.1662ZM41.0042 33.805C41.0042 40.9473 40.7784 41.3535 38.3458 38.5834C36.7901 36.8114 35.0977 31.9295 35.0977 29.2139V27.4442H38.0509H41.0042V33.805ZM48.5381 28.4665C48.4241 29.0285 48.2064 30.4002 48.0547 31.5142C47.9029 32.6278 47.3677 34.4679 46.8657 35.6033C45.9729 37.6229 43.9247 40.1659 43.1909 40.1659C42.9878 40.1659 42.8215 37.3035 42.8215 33.805V27.4442H45.7834C48.6135 27.4442 48.7362 27.4897 48.5381 28.4665ZM55.5554 29.1935C54.823 33.2003 51.8962 37.1567 48.2823 39.0255L46.8738 39.7538L48.0306 37.4707C49.1006 35.3598 49.5885 33.5779 50.3091 29.148L50.5867 27.4442H53.231H55.8753L55.5554 29.1935ZM81.8951 49.2527V50.6158H41.9129H1.9306V49.2527V47.8897H41.9129H81.8951V49.2527ZM46.002 57.6581V62.8831H41.9129H37.8238V57.6581V52.4331H41.9129H46.002V57.6581Z" fill="#FF725E"/>
</svg>
